<?xml version="1.0" encoding="UTF-8"?>
<!DOCTYPE svg PUBLIC "-//W3C//DTD SVG 1.1//EN" "http://www.w3.org/Graphics/SVG/1.1/DTD/svg11.dtd">
<svg xmlns="http://www.w3.org/2000/svg" version="1.1" width="1024px" height="1024px" style="shape-rendering:geometricPrecision; text-rendering:geometricPrecision; image-rendering:optimizeQuality; fill-rule:evenodd; clip-rule:evenodd" xmlns:xlink="http://www.w3.org/1999/xlink">
<g><path style="opacity:1" fill="#fdfdfd" d="M 646.5,267.5 C 681.835,267.333 717.168,267.5 752.5,268C 764.784,270.284 772.618,277.451 776,289.5C 777.229,299.441 777.896,309.441 778,319.5C 814.82,325.653 839.487,346.32 852,381.5C 854.307,389.676 855.64,398.009 856,406.5C 856.494,495.873 856.661,585.04 856.5,674C 852.787,707.771 836.454,733.438 807.5,751C 795.281,757.305 782.281,760.638 768.5,761C 597.833,761.667 427.167,761.667 256.5,761C 214.179,758.661 185.346,737.827 170,698.5C 168.524,693.594 167.524,688.594 167,683.5C 165.149,590.898 165.149,497.564 167,403.5C 171.816,367.34 190.649,341.507 223.5,326C 231.569,322.899 239.902,320.899 248.5,320C 372.837,319.787 497.171,319.287 621.5,318.5C 620.755,306.937 621.922,295.604 625,284.5C 629.715,275.606 636.882,269.94 646.5,267.5 Z M 652.5,294.5 C 684.502,294.333 716.502,294.5 748.5,295C 749.126,295.75 749.626,296.584 750,297.5C 750.667,304.5 750.667,311.5 750,318.5C 716.903,319.309 683.736,319.309 650.5,318.5C 650.334,311.159 650.5,303.826 651,296.5C 651.717,295.956 652.217,295.289 652.5,294.5 Z M 250.5,346.5 C 427.601,347.166 604.601,347.333 781.5,347C 809.672,355.809 825.172,374.976 828,404.5C 828.436,495.982 828.436,586.982 828,677.5C 823.284,706.149 807.117,724.649 779.5,733C 605.5,733.667 431.5,733.667 257.5,733C 223.202,732.036 202.035,714.869 194,681.5C 193.509,590.187 193.509,498.853 194,407.5C 198.588,373.752 217.421,353.419 250.5,346.5 Z M 394.5,403.5 C 447.583,405.129 487.75,428.795 515,474.5C 540.728,528.334 536.061,579.334 501,627.5C 458.431,673.184 407.598,685.684 348.5,665C 303.25,645.396 276.083,611.23 267,562.5C 259.784,483.745 293.617,431.912 368.5,407C 377.234,405.256 385.9,404.089 394.5,403.5 Z"/></g>
<g><path style="opacity:1" fill="#fefefe" d="M 379.5,378.5 C 447.308,373.821 499.475,399.821 536,456.5C 556.626,493.927 562.626,533.594 554,575.5C 540.389,632.443 506.222,671.277 451.5,692C 392.445,709.83 339.112,699.497 291.5,661C 252.43,622.808 235.263,576.308 240,521.5C 246.191,468.926 271.691,428.76 316.5,401C 336.176,389.482 357.176,381.982 379.5,378.5 Z M 394.5,403.5 C 385.9,404.089 377.234,405.256 368.5,407C 293.617,431.912 259.784,483.745 267,562.5C 276.083,611.23 303.25,645.396 348.5,665C 407.598,685.684 458.431,673.184 501,627.5C 536.061,579.334 540.728,528.334 515,474.5C 487.75,428.795 447.583,405.129 394.5,403.5 Z"/></g>
<g><path style="opacity:1" fill="#f8382a" d="M 399.5,439.5 C 414.946,447.377 424.946,459.711 429.5,476.5C 429.631,477.239 429.464,477.906 429,478.5C 423.957,461.131 413.457,448.297 397.5,440C 398.094,439.536 398.761,439.369 399.5,439.5 Z"/></g>
<g><path style="opacity:1" fill="#fc5043" d="M 399.5,439.5 C 398.761,439.369 398.094,439.536 397.5,440C 413.457,448.297 423.957,461.131 429,478.5C 429.464,477.906 429.631,477.239 429.5,476.5C 432.897,488.23 433.397,500.23 431,512.5C 430.005,519.48 428.505,526.314 426.5,533C 427.577,533.47 428.577,533.303 429.5,532.5C 429.5,533.167 429.5,533.833 429.5,534.5C 427.753,537.643 426.92,540.976 427,544.5C 428.626,541.934 430.126,542.101 431.5,545C 430.552,545.483 429.552,545.649 428.5,545.5C 427.298,548.909 425.798,552.242 424,555.5C 422.983,552.972 421.816,552.972 420.5,555.5C 419.468,553.96 418.135,553.46 416.5,554C 417.653,555.883 419.319,556.716 421.5,556.5C 422.361,559.297 422.695,561.963 422.5,564.5C 421.5,565.5 420.5,566.5 419.5,567.5C 418.521,564.223 417.187,563.89 415.5,566.5C 416.328,567.415 417.328,568.081 418.5,568.5C 419.113,569.98 419.446,571.313 419.5,572.5C 420.684,570.954 421.684,569.287 422.5,567.5C 423.382,568.76 424.382,569.926 425.5,571C 424.551,571.617 423.718,571.451 423,570.5C 422.508,572.825 423.508,574.158 426,574.5C 428.151,574.227 430.151,573.561 432,572.5C 432.5,573 433,573.5 433.5,574C 432.377,575.044 431.044,575.71 429.5,576C 431.469,580.427 433.303,580.261 435,575.5C 435.497,577.81 435.663,580.143 435.5,582.5C 433.194,582.993 430.861,583.326 428.5,583.5C 428.631,582.761 428.464,582.094 428,581.5C 427.311,582.357 426.478,583.023 425.5,583.5C 424.476,582.147 423.143,581.48 421.5,581.5C 421.719,580.325 421.386,579.325 420.5,578.5C 418.829,580.51 418.162,582.843 418.5,585.5C 417.178,585.67 416.011,585.337 415,584.5C 412.71,581.42 410.543,578.253 408.5,575C 409.167,574.667 409.833,574.333 410.5,574C 409.448,572.881 408.281,572.381 407,572.5C 406.383,571.551 406.549,570.718 407.5,570C 404.597,569.431 402.597,567.765 401.5,565C 402.167,564.667 402.833,564.333 403.5,564C 400.981,561.475 398.814,558.642 397,555.5C 396.536,556.094 396.369,556.761 396.5,557.5C 395.133,554.534 394.133,551.367 393.5,548C 394.769,545.861 394.769,543.695 393.5,541.5C 381.628,552.569 373.294,565.902 368.5,581.5C 367.417,581.461 366.417,581.127 365.5,580.5C 364.236,583.79 363.07,587.124 362,590.5C 361.13,589.892 360.63,589.059 360.5,588C 361.369,585.112 360.536,582.612 358,580.5C 357.667,581.167 357.333,581.833 357,582.5C 356.405,581.101 356.572,579.768 357.5,578.5C 356.369,577.396 355.535,577.729 355,579.5C 353.885,575.979 355.051,574.146 358.5,574C 356.604,575.065 356.437,575.898 358,576.5C 362.386,574.278 362.552,574.945 358.5,578.5C 360.53,582.202 362.196,582.535 363.5,579.5C 361.252,578.676 361.086,577.676 363,576.5C 363.718,577.451 364.551,577.617 365.5,577C 364.351,575.396 364.351,573.73 365.5,572C 365.167,571.5 364.833,571 364.5,570.5C 362.636,572.945 360.636,573.112 358.5,571C 359.5,570.667 360.5,570.333 361.5,570C 360.289,569.107 360.289,568.274 361.5,567.5C 363.611,570.044 365.778,570.044 368,567.5C 368.71,568.973 369.876,569.64 371.5,569.5C 371.739,567.533 371.406,565.699 370.5,564C 369.668,563.312 369.002,563.479 368.5,564.5C 369.506,565.396 369.506,566.062 368.5,566.5C 367.468,564.96 366.135,564.46 364.5,565C 366.271,565.535 366.604,566.369 365.5,567.5C 363.227,566.625 362.227,564.958 362.5,562.5C 358.705,563.041 356.705,561.375 356.5,557.5C 355.109,558.645 353.776,558.645 352.5,557.5C 354.045,556.548 355.712,556.215 357.5,556.5C 358.045,552.828 358.378,553.162 358.5,557.5C 360.288,557.215 361.955,557.548 363.5,558.5C 363.023,559.478 362.357,560.311 361.5,561C 363,561.5 364.5,562 366,562.5C 369.554,558.185 373.221,553.851 377,549.5C 377.471,551.246 378.138,552.913 379,554.5C 380.703,552.653 380.536,550.819 378.5,549C 376.299,548.175 374.466,548.675 373,550.5C 371.948,548.189 370.115,546.856 367.5,546.5C 366.727,544.187 366.06,541.854 365.5,539.5C 366.359,538.226 367.026,538.392 367.5,540C 368.078,541.811 368.578,543.645 369,545.5C 369.333,545.167 369.667,544.833 370,544.5C 369.903,541.704 369.07,539.037 367.5,536.5C 368.736,534.689 368.736,532.856 367.5,531C 367.833,530.5 368.167,530 368.5,529.5C 369.609,530.59 370.609,530.59 371.5,529.5C 370.167,528.833 368.833,528.167 367.5,527.5C 367.987,526.554 368.32,525.554 368.5,524.5C 366.597,520.758 365.931,516.925 366.5,513C 367.648,511.274 368.815,511.441 370,513.5C 371.099,510.956 372.265,510.956 373.5,513.5C 368.328,515.201 367.328,518.201 370.5,522.5C 370.488,520.588 370.821,518.588 371.5,516.5C 373.435,515.932 374.768,514.765 375.5,513C 371.483,509.468 369.149,504.968 368.5,499.5C 368.108,497.821 367.608,496.154 367,494.5C 365.922,499.499 364.088,499.665 361.5,495C 363.126,492.372 365.126,490.039 367.5,488C 366.906,487.536 366.239,487.369 365.5,487.5C 373.166,478.845 379.333,469.178 384,458.5C 387,450.192 387.166,441.859 384.5,433.5C 384.833,433.167 385.167,432.833 385.5,432.5C 390.271,434.853 394.937,437.186 399.5,439.5 Z"/></g>
<g><path style="opacity:1" fill="#fb4638" d="M 365.5,487.5 C 366.239,487.369 366.906,487.536 367.5,488C 365.126,490.039 363.126,492.372 361.5,495C 364.088,499.665 365.922,499.499 367,494.5C 367.608,496.154 368.108,497.821 368.5,499.5C 367.078,499.709 365.745,500.209 364.5,501C 366.255,501.72 367.089,502.887 367,504.5C 365.414,503.624 363.914,502.624 362.5,501.5C 361.328,501.919 360.328,502.585 359.5,503.5C 361.016,506.756 363.349,508.09 366.5,507.5C 363.919,505.829 364.252,505.329 367.5,506C 368.833,507.333 368.833,508.667 367.5,510C 364.079,512.594 361.912,511.761 361,507.5C 358.958,508.285 356.958,507.952 355,506.5C 354.691,504.487 355.358,504.154 357,505.5C 356.64,502.002 358.474,500.002 362.5,499.5C 362.081,498.328 361.415,497.328 360.5,496.5C 353.844,503.323 347.344,510.323 341,517.5C 340.601,517.272 340.435,516.938 340.5,516.5C 348.459,506.538 356.793,496.872 365.5,487.5 Z"/></g>
<g><path style="opacity:1" fill="#f9382a" d="M 454.5,496.5 C 453.883,496.611 453.383,496.944 453,497.5C 451.333,495.167 449.667,492.833 448,490.5C 447.954,499.398 446.121,507.898 442.5,516C 444.372,517.974 444.705,520.141 443.5,522.5C 442.719,521.271 442.219,519.938 442,518.5C 439.336,522.657 436.503,526.657 433.5,530.5C 432.167,531.833 430.833,533.167 429.5,534.5C 429.5,533.833 429.5,533.167 429.5,532.5C 441.848,518.625 447.348,502.291 446,483.5C 448.269,488.256 451.103,492.59 454.5,496.5 Z"/></g>
<g><path style="opacity:1" fill="#f83f2f" d="M 455.5,497.5 C 474.783,516.088 482.783,538.755 479.5,565.5C 478.901,553.872 477.401,542.206 475,530.5C 470.376,518.87 463.709,508.537 455,499.5C 454.308,498.563 454.475,497.897 455.5,497.5 Z"/></g>
<g><path style="opacity:1" fill="#fd5447" d="M 368.5,499.5 C 369.149,504.968 371.483,509.468 375.5,513C 374.768,514.765 373.435,515.932 371.5,516.5C 370.821,518.588 370.488,520.588 370.5,522.5C 367.328,518.201 368.328,515.201 373.5,513.5C 372.265,510.956 371.099,510.956 370,513.5C 368.815,511.441 367.648,511.274 366.5,513C 365.931,516.925 366.597,520.758 368.5,524.5C 368.32,525.554 367.987,526.554 367.5,527.5C 368.833,528.167 370.167,528.833 371.5,529.5C 370.609,530.59 369.609,530.59 368.5,529.5C 368.167,530 367.833,530.5 367.5,531C 368.736,532.856 368.736,534.689 367.5,536.5C 369.07,539.037 369.903,541.704 370,544.5C 369.667,544.833 369.333,545.167 369,545.5C 368.578,543.645 368.078,541.811 367.5,540C 367.026,538.392 366.359,538.226 365.5,539.5C 366.06,541.854 366.727,544.187 367.5,546.5C 370.115,546.856 371.948,548.189 373,550.5C 374.466,548.675 376.299,548.175 378.5,549C 380.536,550.819 380.703,552.653 379,554.5C 378.138,552.913 377.471,551.246 377,549.5C 373.221,553.851 369.554,558.185 366,562.5C 364.5,562 363,561.5 361.5,561C 362.357,560.311 363.023,559.478 363.5,558.5C 361.955,557.548 360.288,557.215 358.5,557.5C 358.378,553.162 358.045,552.828 357.5,556.5C 355.712,556.215 354.045,556.548 352.5,557.5C 353.776,558.645 355.109,558.645 356.5,557.5C 356.705,561.375 358.705,563.041 362.5,562.5C 362.227,564.958 363.227,566.625 365.5,567.5C 366.604,566.369 366.271,565.535 364.5,565C 366.135,564.46 367.468,564.96 368.5,566.5C 369.506,566.062 369.506,565.396 368.5,564.5C 369.002,563.479 369.668,563.312 370.5,564C 371.406,565.699 371.739,567.533 371.5,569.5C 369.876,569.64 368.71,568.973 368,567.5C 365.778,570.044 363.611,570.044 361.5,567.5C 360.289,568.274 360.289,569.107 361.5,570C 360.5,570.333 359.5,570.667 358.5,571C 360.636,573.112 362.636,572.945 364.5,570.5C 364.833,571 365.167,571.5 365.5,572C 364.351,573.73 364.351,575.396 365.5,577C 364.551,577.617 363.718,577.451 363,576.5C 361.086,577.676 361.252,578.676 363.5,579.5C 362.196,582.535 360.53,582.202 358.5,578.5C 362.552,574.945 362.386,574.278 358,576.5C 356.437,575.898 356.604,575.065 358.5,574C 355.051,574.146 353.885,575.979 355,579.5C 355.535,577.729 356.369,577.396 357.5,578.5C 356.572,579.768 356.405,581.101 357,582.5C 357.333,581.833 357.667,581.167 358,580.5C 360.536,582.612 361.369,585.112 360.5,588C 360.63,589.059 361.13,589.892 362,590.5C 363.07,587.124 364.236,583.79 365.5,580.5C 366.417,581.127 367.417,581.461 368.5,581.5C 368.142,584.689 367.475,587.689 366.5,590.5C 366.649,589.448 366.483,588.448 366,587.5C 365.667,587.833 365.333,588.167 365,588.5C 364.985,592.415 364.152,596.082 362.5,599.5C 364.976,610.74 368.976,621.407 374.5,631.5C 374,631.833 373.5,632.167 373,632.5C 367.614,630.224 362.447,627.557 357.5,624.5C 356.893,624.624 356.56,624.957 356.5,625.5C 355.128,624.488 353.795,623.488 352.5,622.5C 353.239,622.631 353.906,622.464 354.5,622C 349.032,617.533 343.865,612.7 339,607.5C 338.51,606.207 338.343,604.873 338.5,603.5C 337.325,603.719 336.325,603.386 335.5,602.5C 336.496,600.184 338.163,598.517 340.5,597.5C 339.349,596.269 338.183,596.269 337,597.5C 336.1,596.23 334.934,595.23 333.5,594.5C 334,594.167 334.5,593.833 335,593.5C 338.973,596.272 341.473,595.105 342.5,590C 342.355,589.228 342.022,588.561 341.5,588C 342.766,587.691 343.933,587.191 345,586.5C 344.757,591.713 345.591,591.713 347.5,586.5C 346.691,584.929 346.357,583.262 346.5,581.5C 348.833,581.5 351.167,581.5 353.5,581.5C 352.494,577.47 349.827,575.803 345.5,576.5C 345.785,578.288 345.452,579.955 344.5,581.5C 337.878,580.529 337.878,580.862 344.5,582.5C 344.616,585.91 342.95,587.244 339.5,586.5C 339.421,587.93 339.754,589.264 340.5,590.5C 339.965,592.101 338.965,592.601 337.5,592C 339.013,589.546 338.346,587.879 335.5,587C 337.337,585.048 339.671,584.048 342.5,584C 340.385,583.443 338.385,582.609 336.5,581.5C 335.914,581.709 335.414,582.043 335,582.5C 333.246,579.801 331.079,578.468 328.5,578.5C 331.5,577.833 334.5,577.167 337.5,576.5C 336.603,576.331 335.603,575.998 334.5,575.5C 338.19,573.949 338.19,572.116 334.5,570C 332.744,569.798 331.078,569.298 329.5,568.5C 331.743,567.526 334.076,567.192 336.5,567.5C 336.648,563.445 337.648,562.945 339.5,566C 341.709,567.691 343.542,567.524 345,565.5C 346.495,569.828 348.995,570.495 352.5,567.5C 353.167,568.167 353.833,568.833 354.5,569.5C 355.506,569.062 355.506,568.396 354.5,567.5C 356.5,566.833 358.5,566.167 360.5,565.5C 358.158,563.821 355.824,562.154 353.5,560.5C 353.167,560.667 352.833,560.833 352.5,561C 353.685,562.353 355.019,563.52 356.5,564.5C 355.132,565.594 353.965,565.26 353,563.5C 352.716,565.886 351.716,566.552 350,565.5C 349.667,563.953 350.167,562.62 351.5,561.5C 348.736,557.73 349.236,554.73 353,552.5C 353.945,552.905 354.612,553.572 355,554.5C 355.667,552.833 355.667,551.167 355,549.5C 354.586,549.957 354.086,550.291 353.5,550.5C 351.678,546.898 350.678,546.898 350.5,550.5C 348.5,550.5 346.5,550.5 344.5,550.5C 344.5,549.5 344.5,548.5 344.5,547.5C 342.712,547.785 341.045,547.452 339.5,546.5C 339.938,545.494 340.604,545.494 341.5,546.5C 341.749,542.751 343.749,540.917 347.5,541C 344.937,540.237 344.937,539.737 347.5,539.5C 350.253,541.089 352.086,543.422 353,546.5C 355.159,544.044 355.992,544.71 355.5,548.5C 360.422,548.11 360.756,549.277 356.5,552C 357.449,552.617 358.282,552.451 359,551.5C 359.739,553.221 360.573,554.887 361.5,556.5C 361.689,552.478 363.023,552.478 365.5,556.5C 367.941,554.978 368.607,552.978 367.5,550.5C 366.833,551.5 366.167,552.5 365.5,553.5C 364.422,551.525 364.755,549.692 366.5,548C 365.299,547.097 364.465,545.931 364,544.5C 363.667,544.833 363.333,545.167 363,545.5C 363.374,547.769 363.374,550.102 363,552.5C 361.108,551.383 360.275,549.716 360.5,547.5C 359.5,547.5 358.5,547.5 357.5,547.5C 357.33,546.178 357.663,545.011 358.5,544C 356.5,543.333 354.5,542.667 352.5,542C 350.83,539.441 348.497,537.775 345.5,537C 346.711,536.107 346.711,535.274 345.5,534.5C 344.226,536.85 342.893,536.683 341.5,534C 342.5,533.667 343.5,533.333 344.5,533C 342.5,532.333 341.167,531 340.5,529C 342.135,528.46 343.468,528.96 344.5,530.5C 345.5,530 346.5,529.5 347.5,529C 345.38,527.477 345.047,525.644 346.5,523.5C 347.955,522.255 349.289,522.422 350.5,524C 348.604,525.808 348.104,527.975 349,530.5C 349.893,529.289 350.726,529.289 351.5,530.5C 349.947,531.439 348.613,532.606 347.5,534C 350.257,536.283 352.923,538.783 355.5,541.5C 356.613,539.969 358.113,538.969 360,538.5C 361.446,539.079 362.613,539.079 363.5,538.5C 360.429,537.215 357.596,535.549 355,533.5C 354.383,532.551 354.549,531.718 355.5,531C 353.595,530.174 353.261,529.007 354.5,527.5C 355.5,528.5 356.5,529.5 357.5,530.5C 356.41,531.609 356.41,532.609 357.5,533.5C 358.386,532.675 358.719,531.675 358.5,530.5C 359.978,530.762 361.311,530.429 362.5,529.5C 360.667,528.032 360.334,526.365 361.5,524.5C 363.071,525.309 364.738,525.643 366.5,525.5C 366.657,524.127 366.49,522.793 366,521.5C 365.481,522.516 364.647,523.182 363.5,523.5C 361.178,522.511 359.511,520.844 358.5,518.5C 357.692,518.808 357.025,519.308 356.5,520C 358.776,521.03 359.443,522.53 358.5,524.5C 357.521,521.223 356.187,520.89 354.5,523.5C 354.709,524.086 355.043,524.586 355.5,525C 352.85,524.722 350.85,523.222 349.5,520.5C 349.833,520.167 350.167,519.833 350.5,519.5C 351.167,520.167 351.833,520.833 352.5,521.5C 353.132,519.263 354.465,517.597 356.5,516.5C 350.933,511.709 347.933,513.043 347.5,520.5C 345.058,520.119 344.391,520.786 345.5,522.5C 344.275,525.66 342.775,525.994 341,523.5C 340.5,523.667 340,523.833 339.5,524C 340.711,524.893 340.711,525.726 339.5,526.5C 337.898,525.45 337.065,526.117 337,528.5C 336.283,527.956 335.783,527.289 335.5,526.5C 336.945,523.882 338.611,521.382 340.5,519C 339.906,518.536 339.239,518.369 338.5,518.5C 338.833,517.5 339.5,516.833 340.5,516.5C 340.435,516.938 340.601,517.272 341,517.5C 347.344,510.323 353.844,503.323 360.5,496.5C 361.415,497.328 362.081,498.328 362.5,499.5C 358.474,500.002 356.64,502.002 357,505.5C 355.358,504.154 354.691,504.487 355,506.5C 356.958,507.952 358.958,508.285 361,507.5C 361.912,511.761 364.079,512.594 367.5,510C 368.833,508.667 368.833,507.333 367.5,506C 364.252,505.329 363.919,505.829 366.5,507.5C 363.349,508.09 361.016,506.756 359.5,503.5C 360.328,502.585 361.328,501.919 362.5,501.5C 363.914,502.624 365.414,503.624 367,504.5C 367.089,502.887 366.255,501.72 364.5,501C 365.745,500.209 367.078,499.709 368.5,499.5 Z"/></g>
<g><path style="opacity:1" fill="#f83a2c" d="M 338.5,518.5 C 339.239,518.369 339.906,518.536 340.5,519C 338.611,521.382 336.945,523.882 335.5,526.5C 331.471,531.891 328.471,537.891 326.5,544.5C 327.167,545.167 327.833,545.833 328.5,546.5C 327.302,546.94 326.135,547.273 325,547.5C 324.627,549.698 324.127,551.865 323.5,554C 323.759,555.261 324.426,556.261 325.5,557C 324.584,557.374 323.75,557.874 323,558.5C 322.827,564.016 322.327,569.349 321.5,574.5C 319.496,553.511 325.163,534.844 338.5,518.5 Z"/></g>
<g><path style="opacity:1" fill="#fc4e41" d="M 352.5,622.5 C 335.733,610.718 325.399,594.718 321.5,574.5C 322.327,569.349 322.827,564.016 323,558.5C 323.75,557.874 324.584,557.374 325.5,557C 324.426,556.261 323.759,555.261 323.5,554C 324.127,551.865 324.627,549.698 325,547.5C 326.135,547.273 327.302,546.94 328.5,546.5C 327.833,545.833 327.167,545.167 326.5,544.5C 328.471,537.891 331.471,531.891 335.5,526.5C 335.783,527.289 336.283,527.956 337,528.5C 337.065,526.117 337.898,525.45 339.5,526.5C 340.711,525.726 340.711,524.893 339.5,524C 340,523.833 340.5,523.667 341,523.5C 342.775,525.994 344.275,525.66 345.5,522.5C 344.391,520.786 345.058,520.119 347.5,520.5C 347.933,513.043 350.933,511.709 356.5,516.5C 354.465,517.597 353.132,519.263 352.5,521.5C 351.833,520.833 351.167,520.167 350.5,519.5C 350.167,519.833 349.833,520.167 349.5,520.5C 350.85,523.222 352.85,524.722 355.5,525C 355.043,524.586 354.709,524.086 354.5,523.5C 356.187,520.89 357.521,521.223 358.5,524.5C 359.443,522.53 358.776,521.03 356.5,520C 357.025,519.308 357.692,518.808 358.5,518.5C 359.511,520.844 361.178,522.511 363.5,523.5C 364.647,523.182 365.481,522.516 366,521.5C 366.49,522.793 366.657,524.127 366.5,525.5C 364.738,525.643 363.071,525.309 361.5,524.5C 360.334,526.365 360.667,528.032 362.5,529.5C 361.311,530.429 359.978,530.762 358.5,530.5C 358.719,531.675 358.386,532.675 357.5,533.5C 356.41,532.609 356.41,531.609 357.5,530.5C 356.5,529.5 355.5,528.5 354.5,527.5C 353.261,529.007 353.595,530.174 355.5,531C 354.549,531.718 354.383,532.551 355,533.5C 357.596,535.549 360.429,537.215 363.5,538.5C 362.613,539.079 361.446,539.079 360,538.5C 358.113,538.969 356.613,539.969 355.5,541.5C 352.923,538.783 350.257,536.283 347.5,534C 348.613,532.606 349.947,531.439 351.5,530.5C 350.726,529.289 349.893,529.289 349,530.5C 348.104,527.975 348.604,525.808 350.5,524C 349.289,522.422 347.955,522.255 346.5,523.5C 345.047,525.644 345.38,527.477 347.5,529C 346.5,529.5 345.5,530 344.5,530.5C 343.468,528.96 342.135,528.46 340.5,529C 341.167,531 342.5,532.333 344.5,533C 343.5,533.333 342.5,533.667 341.5,534C 342.893,536.683 344.226,536.85 345.5,534.5C 346.711,535.274 346.711,536.107 345.5,537C 348.497,537.775 350.83,539.441 352.5,542C 354.5,542.667 356.5,543.333 358.5,544C 357.663,545.011 357.33,546.178 357.5,547.5C 358.5,547.5 359.5,547.5 360.5,547.5C 360.275,549.716 361.108,551.383 363,552.5C 363.374,550.102 363.374,547.769 363,545.5C 363.333,545.167 363.667,544.833 364,544.5C 364.465,545.931 365.299,547.097 366.5,548C 364.755,549.692 364.422,551.525 365.5,553.5C 366.167,552.5 366.833,551.5 367.5,550.5C 368.607,552.978 367.941,554.978 365.5,556.5C 363.023,552.478 361.689,552.478 361.5,556.5C 360.573,554.887 359.739,553.221 359,551.5C 358.282,552.451 357.449,552.617 356.5,552C 360.756,549.277 360.422,548.11 355.5,548.5C 355.992,544.71 355.159,544.044 353,546.5C 352.086,543.422 350.253,541.089 347.5,539.5C 344.937,539.737 344.937,540.237 347.5,541C 343.749,540.917 341.749,542.751 341.5,546.5C 340.604,545.494 339.938,545.494 339.5,546.5C 341.045,547.452 342.712,547.785 344.5,547.5C 344.5,548.5 344.5,549.5 344.5,550.5C 346.5,550.5 348.5,550.5 350.5,550.5C 350.678,546.898 351.678,546.898 353.5,550.5C 354.086,550.291 354.586,549.957 355,549.5C 355.667,551.167 355.667,552.833 355,554.5C 354.612,553.572 353.945,552.905 353,552.5C 349.236,554.73 348.736,557.73 351.5,561.5C 350.167,562.62 349.667,563.953 350,565.5C 351.716,566.552 352.716,565.886 353,563.5C 353.965,565.26 355.132,565.594 356.5,564.5C 355.019,563.52 353.685,562.353 352.5,561C 352.833,560.833 353.167,560.667 353.5,560.5C 355.824,562.154 358.158,563.821 360.5,565.5C 358.5,566.167 356.5,566.833 354.5,567.5C 355.506,568.396 355.506,569.062 354.5,569.5C 353.833,568.833 353.167,568.167 352.5,567.5C 348.995,570.495 346.495,569.828 345,565.5C 343.542,567.524 341.709,567.691 339.5,566C 337.648,562.945 336.648,563.445 336.5,567.5C 334.076,567.192 331.743,567.526 329.5,568.5C 331.078,569.298 332.744,569.798 334.5,570C 338.19,572.116 338.19,573.949 334.5,575.5C 335.603,575.998 336.603,576.331 337.5,576.5C 334.5,577.167 331.5,577.833 328.5,578.5C 331.079,578.468 333.246,579.801 335,582.5C 335.414,582.043 335.914,581.709 336.5,581.5C 338.385,582.609 340.385,583.443 342.5,584C 339.671,584.048 337.337,585.048 335.5,587C 338.346,587.879 339.013,589.546 337.5,592C 338.965,592.601 339.965,592.101 340.5,590.5C 339.754,589.264 339.421,587.93 339.5,586.5C 342.95,587.244 344.616,585.91 344.5,582.5C 337.878,580.862 337.878,580.529 344.5,581.5C 345.452,579.955 345.785,578.288 345.5,576.5C 349.827,575.803 352.494,577.47 353.5,581.5C 351.167,581.5 348.833,581.5 346.5,581.5C 346.357,583.262 346.691,584.929 347.5,586.5C 345.591,591.713 344.757,591.713 345,586.5C 343.933,587.191 342.766,587.691 341.5,588C 342.022,588.561 342.355,589.228 342.5,590C 341.473,595.105 338.973,596.272 335,593.5C 334.5,593.833 334,594.167 333.5,594.5C 334.934,595.23 336.1,596.23 337,597.5C 338.183,596.269 339.349,596.269 340.5,597.5C 338.163,598.517 336.496,600.184 335.5,602.5C 336.325,603.386 337.325,603.719 338.5,603.5C 338.343,604.873 338.51,606.207 339,607.5C 343.865,612.7 349.032,617.533 354.5,622C 353.906,622.464 353.239,622.631 352.5,622.5 Z"/></g>
<g><path style="opacity:1" fill="#fc4e42" d="M 454.5,496.5 C 455.167,496.5 455.5,496.833 455.5,497.5C 454.475,497.897 454.308,498.563 455,499.5C 463.709,508.537 470.376,518.87 475,530.5C 477.401,542.206 478.901,553.872 479.5,565.5C 476.771,587.632 466.771,605.632 449.5,619.5C 449.103,618.475 448.437,618.308 447.5,619C 442.772,622.726 437.772,626.059 432.5,629C 430.833,629.667 429.167,629.667 427.5,629C 428.711,628.107 428.711,627.274 427.5,626.5C 424.528,627.836 424.195,629.336 426.5,631C 426.167,631.167 425.833,631.333 425.5,631.5C 423.709,629.336 422.376,626.836 421.5,624C 421.833,623.5 422.167,623 422.5,622.5C 423.732,623.145 425.065,623.311 426.5,623C 424.993,623.837 424.493,625.004 425,626.5C 426.299,625.91 427.132,624.91 427.5,623.5C 427.02,620.946 426.02,618.612 424.5,616.5C 424.667,615.833 424.833,615.167 425,614.5C 426.538,616.233 428.038,617.9 429.5,619.5C 429.833,618.833 430.167,618.167 430.5,617.5C 429.194,615.527 427.527,613.861 425.5,612.5C 424.548,610.955 424.215,609.288 424.5,607.5C 425.22,604.275 427.22,602.109 430.5,601C 429.04,599.418 427.373,598.085 425.5,597C 427.271,596.465 427.604,595.631 426.5,594.5C 425.252,595.04 424.085,595.707 423,596.5C 422.517,595.552 422.351,594.552 422.5,593.5C 425.252,593.422 427.918,593.255 430.5,593C 429.643,593.689 428.977,594.522 428.5,595.5C 429.443,598.109 431.11,600.109 433.5,601.5C 431.978,603.156 432.311,604.323 434.5,605C 429.28,605.93 429.28,607.097 434.5,608.5C 435.696,608.154 435.696,607.654 434.5,607C 436.901,605.961 439.234,605.794 441.5,606.5C 439.55,607.731 438.717,609.398 439,611.5C 440,610.5 441,609.5 442,608.5C 441.676,612.389 442.509,612.389 444.5,608.5C 442.164,606.927 442.164,605.594 444.5,604.5C 445.173,606.689 446.173,608.689 447.5,610.5C 446.319,612.198 446.319,613.865 447.5,615.5C 448.167,614.167 448.833,612.833 449.5,611.5C 450.609,612.59 451.609,612.59 452.5,611.5C 450.208,610.21 448.208,608.543 446.5,606.5C 447.167,605.833 447.833,605.167 448.5,604.5C 448,604.167 447.5,603.833 447,603.5C 444.191,603.348 441.357,603.014 438.5,602.5C 439.428,601.232 439.595,599.899 439,598.5C 438.667,598.833 438.333,599.167 438,599.5C 438.107,596.443 436.94,594.109 434.5,592.5C 436.133,590.497 438.133,589.164 440.5,588.5C 440.227,586.042 441.227,584.375 443.5,583.5C 443.88,585.021 444.046,586.687 444,588.5C 445.171,586.384 446.671,585.718 448.5,586.5C 447.147,587.524 446.48,588.857 446.5,590.5C 447.552,590.649 448.552,590.483 449.5,590C 448.112,589.111 448.278,588.611 450,588.5C 450.5,588.833 451,589.167 451.5,589.5C 450.04,592.951 450.373,593.617 452.5,591.5C 453.5,591.833 454.167,592.5 454.5,593.5C 453.754,594.736 453.421,596.07 453.5,597.5C 455.201,597.034 456.701,597.034 458,597.5C 457.388,599.752 457.055,602.085 457,604.5C 458.834,603.505 460.001,602.005 460.5,600C 459.834,598.331 459.834,596.831 460.5,595.5C 462.015,597.547 462.849,599.881 463,602.5C 464.115,601 464.948,599.333 465.5,597.5C 463.838,596.673 462.505,595.507 461.5,594C 459.527,593.505 457.527,593.338 455.5,593.5C 455.576,591.077 454.576,589.244 452.5,588C 452.667,587.5 452.833,587 453,586.5C 453.893,587.711 454.726,587.711 455.5,586.5C 454.311,585.571 452.978,585.238 451.5,585.5C 451.657,584.127 451.49,582.793 451,581.5C 450.221,582.728 449.221,583.728 448,584.5C 447.5,584.167 447,583.833 446.5,583.5C 449.852,582.095 450.018,580.761 447,579.5C 446.667,579.833 446.333,580.167 446,580.5C 445.505,578.527 445.338,576.527 445.5,574.5C 449.5,574.167 449.5,573.833 445.5,573.5C 445.48,571.857 446.147,570.524 447.5,569.5C 446.833,567.5 446.167,565.5 445.5,563.5C 444.675,562.614 443.675,562.281 442.5,562.5C 442.48,564.143 443.147,565.476 444.5,566.5C 443.29,569.141 443.29,571.807 444.5,574.5C 444.333,575.167 444.167,575.833 444,576.5C 443.138,574.913 442.471,573.246 442,571.5C 440.787,574.768 440.454,578.101 441,581.5C 441.893,580.289 442.726,580.289 443.5,581.5C 441.469,583.404 439.469,583.571 437.5,582C 440.001,580.582 439.668,579.582 436.5,579C 437.059,578.275 437.392,577.442 437.5,576.5C 435.637,574.107 434.304,571.44 433.5,568.5C 432.604,569.506 431.938,569.506 431.5,568.5C 434.086,566.554 436.419,566.554 438.5,568.5C 439.672,568.081 440.672,567.415 441.5,566.5C 440.198,564.799 438.531,563.632 436.5,563C 438.221,561.473 440.221,560.473 442.5,560C 437.166,558.686 437.166,558.019 442.5,558C 445.271,561.654 446.605,561.154 446.5,556.5C 448.678,555.796 450.678,555.463 452.5,555.5C 450.525,554.725 449.691,553.391 450,551.5C 451.356,552.38 452.856,552.714 454.5,552.5C 454.915,555.368 453.915,557.535 451.5,559C 452.116,561.179 453.283,563.012 455,564.5C 455.611,560.48 456.278,556.813 457,553.5C 459.148,555.572 458.982,557.406 456.5,559C 457.09,560.509 457.756,562.009 458.5,563.5C 460.135,562.67 461.802,562.503 463.5,563C 462.421,562.044 461.255,561.211 460,560.5C 459.383,559.551 459.549,558.718 460.5,558C 461.944,557.219 463.277,557.386 464.5,558.5C 463.624,559.251 462.624,559.751 461.5,560C 464.554,561.161 465.22,563.161 463.5,566C 462.616,567.098 461.616,567.598 460.5,567.5C 464.658,570.474 464.324,571.641 459.5,571C 460.701,571.903 461.535,573.069 462,574.5C 462.414,574.043 462.914,573.709 463.5,573.5C 464.298,575.078 464.798,576.744 465,578.5C 465.483,577.552 465.649,576.552 465.5,575.5C 466.978,575.762 468.311,575.429 469.5,574.5C 471.67,570.404 473.337,570.571 474.5,575C 473.971,576.559 473.304,578.059 472.5,579.5C 473.002,580.521 473.668,580.688 474.5,580C 475.167,577.667 475.833,575.333 476.5,573C 474.963,571.89 474.297,570.39 474.5,568.5C 473.07,568.579 471.736,568.246 470.5,567.5C 471.21,570.086 470.21,572.086 467.5,573.5C 466.5,573 465.5,572.5 464.5,572C 465.711,570.887 465.711,569.72 464.5,568.5C 465.248,566.668 466.248,565.001 467.5,563.5C 470.35,565.979 473.684,566.979 477.5,566.5C 477.649,565.448 477.483,564.448 477,563.5C 475.644,564.38 474.144,564.714 472.5,564.5C 471.671,561.531 471.505,558.531 472,555.5C 472.58,560.401 474.247,560.735 477,556.5C 477.483,555.552 477.649,554.552 477.5,553.5C 474.795,553.62 474.128,552.62 475.5,550.5C 472.356,549.764 469.689,548.264 467.5,546C 469.67,544.57 469.836,543.07 468,541.5C 467.692,542.308 467.192,542.975 466.5,543.5C 464.309,542.119 462.976,540.119 462.5,537.5C 460.249,538.865 458.249,538.531 456.5,536.5C 456.112,534.359 456.112,532.359 456.5,530.5C 454.411,529.197 452.744,529.697 451.5,532C 452.833,532 454.167,532 455.5,532C 454.643,532.689 453.977,533.522 453.5,534.5C 454.167,536.833 454.833,539.167 455.5,541.5C 454.494,542.396 454.494,543.062 455.5,543.5C 456.386,542.675 456.719,541.675 456.5,540.5C 463.626,540.363 463.959,541.03 457.5,542.5C 458.44,545.052 457.44,545.886 454.5,545C 453.429,541.088 452.095,537.255 450.5,533.5C 449.289,534.274 449.289,535.107 450.5,536C 449.049,535.737 447.716,535.904 446.5,536.5C 447.09,537.799 448.09,538.632 449.5,539C 445.588,542.454 445.588,543.288 449.5,541.5C 449.833,542 450.167,542.5 450.5,543C 449.44,544.928 448.107,546.595 446.5,548C 448.519,547.848 450.519,547.348 452.5,546.5C 452.5,547.833 452.5,549.167 452.5,550.5C 450.712,550.215 449.045,550.548 447.5,551.5C 448.326,552.451 448.492,553.451 448,554.5C 446.386,551.398 444.553,551.064 442.5,553.5C 441.742,552.189 440.742,551.689 439.5,552C 441.337,553.952 443.671,554.952 446.5,555C 442.925,556.481 439.758,555.647 437,552.5C 437.195,554.126 437.195,555.793 437,557.5C 436.107,556.289 435.274,556.289 434.5,557.5C 435.167,558.167 435.833,558.833 436.5,559.5C 435.726,560.711 434.893,560.711 434,559.5C 432.039,562.631 429.873,565.631 427.5,568.5C 428.326,569.451 428.492,570.451 428,571.5C 425.293,569.428 424.293,566.761 425,563.5C 425.249,564.624 425.749,565.624 426.5,566.5C 427.248,564.668 428.248,563.001 429.5,561.5C 426.906,558.901 425.406,559.234 425,562.5C 423.513,560.728 423.18,558.728 424,556.5C 425.907,559.287 427.407,559.12 428.5,556C 428.095,555.055 427.428,554.388 426.5,554C 428.367,553.289 429.867,553.789 431,555.5C 431.311,556.742 430.811,557.742 429.5,558.5C 430.002,559.521 430.668,559.688 431.5,559C 435.779,554.975 435.445,551.475 430.5,548.5C 432.365,547.334 434.032,547.667 435.5,549.5C 435.554,548.47 435.888,547.303 436.5,546C 438.392,545.027 440.392,544.36 442.5,544C 443.765,539.526 443.099,539.359 440.5,543.5C 437.057,540.31 434.891,540.977 434,545.5C 432.528,542.537 433.361,540.037 436.5,538C 436.167,537.833 435.833,537.667 435.5,537.5C 433.867,539.503 431.867,540.836 429.5,541.5C 429.073,536.424 431.407,533.591 436.5,533C 435.167,533 433.833,533 432.5,533C 433.999,532.162 434.332,531.329 433.5,530.5C 436.503,526.657 439.336,522.657 442,518.5C 442.219,519.938 442.719,521.271 443.5,522.5C 444.705,520.141 444.372,517.974 442.5,516C 446.121,507.898 447.954,499.398 448,490.5C 449.667,492.833 451.333,495.167 453,497.5C 453.383,496.944 453.883,496.611 454.5,496.5 Z"/></g>
<g><path style="opacity:1" fill="#fb483a" d="M 428.5,583.5 C 428.414,584.496 428.748,585.329 429.5,586C 430.938,586.219 432.271,586.719 433.5,587.5C 431.263,588.132 429.597,589.465 428.5,591.5C 427.41,590.609 427.41,589.609 428.5,588.5C 427.974,586.77 426.974,585.436 425.5,584.5C 424.289,585.274 424.289,586.107 425.5,587C 424.5,587.833 423.5,588.667 422.5,589.5C 423.603,589.998 424.603,590.331 425.5,590.5C 424.15,591.95 422.484,592.617 420.5,592.5C 420.755,595.016 421.589,597.35 423,599.5C 424.297,598.216 425.464,598.383 426.5,600C 424.887,602.228 424.22,604.728 424.5,607.5C 424.215,609.288 424.548,610.955 425.5,612.5C 427.527,613.861 429.194,615.527 430.5,617.5C 430.167,618.167 429.833,618.833 429.5,619.5C 428.038,617.9 426.538,616.233 425,614.5C 424.833,615.167 424.667,615.833 424.5,616.5C 426.02,618.612 427.02,620.946 427.5,623.5C 427.132,624.91 426.299,625.91 425,626.5C 424.493,625.004 424.993,623.837 426.5,623C 425.065,623.311 423.732,623.145 422.5,622.5C 422.167,623 421.833,623.5 421.5,624C 422.376,626.836 423.709,629.336 425.5,631.5C 425.833,631.333 426.167,631.167 426.5,631C 424.195,629.336 424.528,627.836 427.5,626.5C 428.711,627.274 428.711,628.107 427.5,629C 429.167,629.667 430.833,629.667 432.5,629C 437.772,626.059 442.772,622.726 447.5,619C 448.437,618.308 449.103,618.475 449.5,619.5C 437.893,629.47 424.559,635.97 409.5,639C 418.903,629.367 423.07,617.867 422,604.5C 418.175,591.181 411.509,579.514 402,569.5C 399.35,565.867 397.517,561.867 396.5,557.5C 396.369,556.761 396.536,556.094 397,555.5C 398.814,558.642 400.981,561.475 403.5,564C 402.833,564.333 402.167,564.667 401.5,565C 402.597,567.765 404.597,569.431 407.5,570C 406.549,570.718 406.383,571.551 407,572.5C 408.281,572.381 409.448,572.881 410.5,574C 409.833,574.333 409.167,574.667 408.5,575C 410.543,578.253 412.71,581.42 415,584.5C 416.011,585.337 417.178,585.67 418.5,585.5C 418.162,582.843 418.829,580.51 420.5,578.5C 421.386,579.325 421.719,580.325 421.5,581.5C 423.143,581.48 424.476,582.147 425.5,583.5C 426.478,583.023 427.311,582.357 428,581.5C 428.464,582.094 428.631,582.761 428.5,583.5 Z"/></g>
<g><path style="opacity:1" fill="#fe5649" d="M 424.5,607.5 C 424.22,604.728 424.887,602.228 426.5,600C 425.464,598.383 424.297,598.216 423,599.5C 421.589,597.35 420.755,595.016 420.5,592.5C 422.484,592.617 424.15,591.95 425.5,590.5C 424.603,590.331 423.603,589.998 422.5,589.5C 423.5,588.667 424.5,587.833 425.5,587C 424.289,586.107 424.289,585.274 425.5,584.5C 426.974,585.436 427.974,586.77 428.5,588.5C 427.41,589.609 427.41,590.609 428.5,591.5C 429.597,589.465 431.263,588.132 433.5,587.5C 432.271,586.719 430.938,586.219 429.5,586C 428.748,585.329 428.414,584.496 428.5,583.5C 430.861,583.326 433.194,582.993 435.5,582.5C 435.663,580.143 435.497,577.81 435,575.5C 433.303,580.261 431.469,580.427 429.5,576C 431.044,575.71 432.377,575.044 433.5,574C 433,573.5 432.5,573 432,572.5C 430.151,573.561 428.151,574.227 426,574.5C 423.508,574.158 422.508,572.825 423,570.5C 423.718,571.451 424.551,571.617 425.5,571C 424.382,569.926 423.382,568.76 422.5,567.5C 421.684,569.287 420.684,570.954 419.5,572.5C 419.446,571.313 419.113,569.98 418.5,568.5C 417.328,568.081 416.328,567.415 415.5,566.5C 417.187,563.89 418.521,564.223 419.5,567.5C 420.5,566.5 421.5,565.5 422.5,564.5C 422.695,561.963 422.361,559.297 421.5,556.5C 419.319,556.716 417.653,555.883 416.5,554C 418.135,553.46 419.468,553.96 420.5,555.5C 421.816,552.972 422.983,552.972 424,555.5C 425.798,552.242 427.298,548.909 428.5,545.5C 429.552,545.649 430.552,545.483 431.5,545C 430.126,542.101 428.626,541.934 427,544.5C 426.92,540.976 427.753,537.643 429.5,534.5C 430.833,533.167 432.167,531.833 433.5,530.5C 434.332,531.329 433.999,532.162 432.5,533C 433.833,533 435.167,533 436.5,533C 431.407,533.591 429.073,536.424 429.5,541.5C 431.867,540.836 433.867,539.503 435.5,537.5C 435.833,537.667 436.167,537.833 436.5,538C 433.361,540.037 432.528,542.537 434,545.5C 434.891,540.977 437.057,540.31 440.5,543.5C 443.099,539.359 443.765,539.526 442.5,544C 440.392,544.36 438.392,545.027 436.5,546C 435.888,547.303 435.554,548.47 435.5,549.5C 434.032,547.667 432.365,547.334 430.5,548.5C 435.445,551.475 435.779,554.975 431.5,559C 430.668,559.688 430.002,559.521 429.5,558.5C 430.811,557.742 431.311,556.742 431,555.5C 429.867,553.789 428.367,553.289 426.5,554C 427.428,554.388 428.095,555.055 428.5,556C 427.407,559.12 425.907,559.287 424,556.5C 423.18,558.728 423.513,560.728 425,562.5C 425.406,559.234 426.906,558.901 429.5,561.5C 428.248,563.001 427.248,564.668 426.5,566.5C 425.749,565.624 425.249,564.624 425,563.5C 424.293,566.761 425.293,569.428 428,571.5C 428.492,570.451 428.326,569.451 427.5,568.5C 429.873,565.631 432.039,562.631 434,559.5C 434.893,560.711 435.726,560.711 436.5,559.5C 435.833,558.833 435.167,558.167 434.5,557.5C 435.274,556.289 436.107,556.289 437,557.5C 437.195,555.793 437.195,554.126 437,552.5C 439.758,555.647 442.925,556.481 446.5,555C 443.671,554.952 441.337,553.952 439.5,552C 440.742,551.689 441.742,552.189 442.5,553.5C 444.553,551.064 446.386,551.398 448,554.5C 448.492,553.451 448.326,552.451 447.5,551.5C 449.045,550.548 450.712,550.215 452.5,550.5C 452.5,549.167 452.5,547.833 452.5,546.5C 450.519,547.348 448.519,547.848 446.5,548C 448.107,546.595 449.44,544.928 450.5,543C 450.167,542.5 449.833,542 449.5,541.5C 445.588,543.288 445.588,542.454 449.5,539C 448.09,538.632 447.09,537.799 446.5,536.5C 447.716,535.904 449.049,535.737 450.5,536C 449.289,535.107 449.289,534.274 450.5,533.5C 452.095,537.255 453.429,541.088 454.5,545C 457.44,545.886 458.44,545.052 457.5,542.5C 463.959,541.03 463.626,540.363 456.5,540.5C 456.719,541.675 456.386,542.675 455.5,543.5C 454.494,543.062 454.494,542.396 455.5,541.5C 454.833,539.167 454.167,536.833 453.5,534.5C 453.977,533.522 454.643,532.689 455.5,532C 454.167,532 452.833,532 451.5,532C 452.744,529.697 454.411,529.197 456.5,530.5C 456.112,532.359 456.112,534.359 456.5,536.5C 458.249,538.531 460.249,538.865 462.5,537.5C 462.976,540.119 464.309,542.119 466.5,543.5C 467.192,542.975 467.692,542.308 468,541.5C 469.836,543.07 469.67,544.57 467.5,546C 469.689,548.264 472.356,549.764 475.5,550.5C 474.128,552.62 474.795,553.62 477.5,553.5C 477.649,554.552 477.483,555.552 477,556.5C 474.247,560.735 472.58,560.401 472,555.5C 471.505,558.531 471.671,561.531 472.5,564.5C 474.144,564.714 475.644,564.38 477,563.5C 477.483,564.448 477.649,565.448 477.5,566.5C 473.684,566.979 470.35,565.979 467.5,563.5C 466.248,565.001 465.248,566.668 464.5,568.5C 465.711,569.72 465.711,570.887 464.5,572C 465.5,572.5 466.5,573 467.5,573.5C 470.21,572.086 471.21,570.086 470.5,567.5C 471.736,568.246 473.07,568.579 474.5,568.5C 474.297,570.39 474.963,571.89 476.5,573C 475.833,575.333 475.167,577.667 474.5,580C 473.668,580.688 473.002,580.521 472.5,579.5C 473.304,578.059 473.971,576.559 474.5,575C 473.337,570.571 471.67,570.404 469.5,574.5C 468.311,575.429 466.978,575.762 465.5,575.5C 465.649,576.552 465.483,577.552 465,578.5C 464.798,576.744 464.298,575.078 463.5,573.5C 462.914,573.709 462.414,574.043 462,574.5C 461.535,573.069 460.701,571.903 459.5,571C 464.324,571.641 464.658,570.474 460.5,567.5C 461.616,567.598 462.616,567.098 463.5,566C 465.22,563.161 464.554,561.161 461.5,560C 462.624,559.751 463.624,559.251 464.5,558.5C 463.277,557.386 461.944,557.219 460.5,558C 459.549,558.718 459.383,559.551 460,560.5C 461.255,561.211 462.421,562.044 463.5,563C 461.802,562.503 460.135,562.67 458.5,563.5C 457.756,562.009 457.09,560.509 456.5,559C 458.982,557.406 459.148,555.572 457,553.5C 456.278,556.813 455.611,560.48 455,564.5C 453.283,563.012 452.116,561.179 451.5,559C 453.915,557.535 454.915,555.368 454.5,552.5C 452.856,552.714 451.356,552.38 450,551.5C 449.691,553.391 450.525,554.725 452.5,555.5C 450.678,555.463 448.678,555.796 446.5,556.5C 446.605,561.154 445.271,561.654 442.5,558C 437.166,558.019 437.166,558.686 442.5,560C 440.221,560.473 438.221,561.473 436.5,563C 438.531,563.632 440.198,564.799 441.5,566.5C 440.672,567.415 439.672,568.081 438.5,568.5C 436.419,566.554 434.086,566.554 431.5,568.5C 431.938,569.506 432.604,569.506 433.5,568.5C 434.304,571.44 435.637,574.107 437.5,576.5C 437.392,577.442 437.059,578.275 436.5,579C 439.668,579.582 440.001,580.582 437.5,582C 439.469,583.571 441.469,583.404 443.5,581.5C 442.726,580.289 441.893,580.289 441,581.5C 440.454,578.101 440.787,574.768 442,571.5C 442.471,573.246 443.138,574.913 444,576.5C 444.167,575.833 444.333,575.167 444.5,574.5C 443.29,571.807 443.29,569.141 444.5,566.5C 443.147,565.476 442.48,564.143 442.5,562.5C 443.675,562.281 444.675,562.614 445.5,563.5C 446.167,565.5 446.833,567.5 447.5,569.5C 446.147,570.524 445.48,571.857 445.5,573.5C 449.5,573.833 449.5,574.167 445.5,574.5C 445.338,576.527 445.505,578.527 446,580.5C 446.333,580.167 446.667,579.833 447,579.5C 450.018,580.761 449.852,582.095 446.5,583.5C 447,583.833 447.5,584.167 448,584.5C 449.221,583.728 450.221,582.728 451,581.5C 451.49,582.793 451.657,584.127 451.5,585.5C 452.978,585.238 454.311,585.571 455.5,586.5C 454.726,587.711 453.893,587.711 453,586.5C 452.833,587 452.667,587.5 452.5,588C 454.576,589.244 455.576,591.077 455.5,593.5C 457.527,593.338 459.527,593.505 461.5,594C 462.505,595.507 463.838,596.673 465.5,597.5C 464.948,599.333 464.115,601 463,602.5C 462.849,599.881 462.015,597.547 460.5,595.5C 459.834,596.831 459.834,598.331 460.5,600C 460.001,602.005 458.834,603.505 457,604.5C 457.055,602.085 457.388,599.752 458,597.5C 456.701,597.034 455.201,597.034 453.5,597.5C 453.421,596.07 453.754,594.736 454.5,593.5C 454.167,592.5 453.5,591.833 452.5,591.5C 450.373,593.617 450.04,592.951 451.5,589.5C 451,589.167 450.5,588.833 450,588.5C 448.278,588.611 448.112,589.111 449.5,590C 448.552,590.483 447.552,590.649 446.5,590.5C 446.48,588.857 447.147,587.524 448.5,586.5C 446.671,585.718 445.171,586.384 444,588.5C 444.046,586.687 443.88,585.021 443.5,583.5C 441.227,584.375 440.227,586.042 440.5,588.5C 438.133,589.164 436.133,590.497 434.5,592.5C 436.94,594.109 438.107,596.443 438,599.5C 438.333,599.167 438.667,598.833 439,598.5C 439.595,599.899 439.428,601.232 438.5,602.5C 441.357,603.014 444.191,603.348 447,603.5C 447.5,603.833 448,604.167 448.5,604.5C 447.833,605.167 447.167,605.833 446.5,606.5C 448.208,608.543 450.208,610.21 452.5,611.5C 451.609,612.59 450.609,612.59 449.5,611.5C 448.833,612.833 448.167,614.167 447.5,615.5C 446.319,613.865 446.319,612.198 447.5,610.5C 446.173,608.689 445.173,606.689 444.5,604.5C 442.164,605.594 442.164,606.927 444.5,608.5C 442.509,612.389 441.676,612.389 442,608.5C 441,609.5 440,610.5 439,611.5C 438.717,609.398 439.55,607.731 441.5,606.5C 439.234,605.794 436.901,605.961 434.5,607C 435.696,607.654 435.696,608.154 434.5,608.5C 429.28,607.097 429.28,605.93 434.5,605C 432.311,604.323 431.978,603.156 433.5,601.5C 431.11,600.109 429.443,598.109 428.5,595.5C 428.977,594.522 429.643,593.689 430.5,593C 427.918,593.255 425.252,593.422 422.5,593.5C 422.351,594.552 422.517,595.552 423,596.5C 424.085,595.707 425.252,595.04 426.5,594.5C 427.604,595.631 427.271,596.465 425.5,597C 427.373,598.085 429.04,599.418 430.5,601C 427.22,602.109 425.22,604.275 424.5,607.5 Z"/></g>
<g><path style="opacity:1" fill="#f83c2e" d="M 366.5,590.5 C 365.605,606.812 369.605,621.812 378.5,635.5C 378.167,635.833 377.833,636.167 377.5,636.5C 370.031,633.6 363.031,629.934 356.5,625.5C 356.56,624.957 356.893,624.624 357.5,624.5C 362.447,627.557 367.614,630.224 373,632.5C 373.5,632.167 374,631.833 374.5,631.5C 368.976,621.407 364.976,610.74 362.5,599.5C 364.152,596.082 364.985,592.415 365,588.5C 365.333,588.167 365.667,587.833 366,587.5C 366.483,588.448 366.649,589.448 366.5,590.5 Z"/></g>
</svg>
