<?xml version="1.0" encoding="UTF-8"?>
<!DOCTYPE svg PUBLIC "-//W3C//DTD SVG 1.1//EN" "http://www.w3.org/Graphics/SVG/1.1/DTD/svg11.dtd">
<svg xmlns="http://www.w3.org/2000/svg" version="1.1" width="1024px" height="1024px" style="shape-rendering:geometricPrecision; text-rendering:geometricPrecision; image-rendering:optimizeQuality; fill-rule:evenodd; clip-rule:evenodd" xmlns:xlink="http://www.w3.org/1999/xlink">
<g><path style="opacity:1" fill="#2c2d2e" d="M 712.5,259.5 C 712.265,260.097 711.765,260.43 711,260.5C 694.85,253.587 678.017,249.421 660.5,248C 561.167,247.333 461.833,247.333 362.5,248C 349.468,249.258 336.801,252.092 324.5,256.5C 323.584,256.457 322.917,256.124 322.5,255.5C 337.287,249.867 352.62,246.701 368.5,246C 464.167,245.333 559.833,245.333 655.5,246C 675.468,246.576 694.468,251.076 712.5,259.5 Z"/></g>
<g><path style="opacity:1" fill="#1e3036" d="M 712.5,259.5 C 724.611,265.298 735.611,272.631 745.5,281.5C 750.104,287.636 755.604,293.636 762,299.5C 764.333,302.5 766.667,305.5 769,308.5C 769.399,308.272 769.565,307.938 769.5,307.5C 778.842,319.849 785.842,333.516 790.5,348.5C 789.761,348.369 789.094,348.536 788.5,349C 792.193,360.678 794.526,372.511 795.5,384.5C 795.824,436.209 795.491,487.875 794.5,539.5C 792.438,565.521 783.938,589.187 769,610.5C 768.308,611.437 768.475,612.103 769.5,612.5C 762.576,622.094 754.576,630.76 745.5,638.5C 745.103,637.475 744.437,637.308 743.5,638C 739.833,641 736.167,644 732.5,647C 722.967,652.396 713.967,657.563 705.5,662.5C 705.158,663.338 704.492,663.672 703.5,663.5C 703.265,662.903 702.765,662.57 702,662.5C 690.068,666.981 677.902,669.981 665.5,671.5C 614.166,671.333 562.832,671.5 511.5,672C 510.167,672.667 508.833,673.333 507.5,674C 506.262,674.69 506.262,675.19 507.5,675.5C 466.205,707.489 424.872,739.489 383.5,771.5C 383.44,770.957 383.107,770.624 382.5,770.5C 375.067,776.137 367.067,776.971 358.5,773C 356.19,771.363 354.69,769.196 354,766.5C 353.907,739.313 354.74,712.147 356.5,685C 356.499,680.653 356.166,676.486 355.5,672.5C 348.377,670.216 341.043,668.216 333.5,666.5C 332.584,666.543 331.917,666.876 331.5,667.5C 321.634,664.562 312.301,660.562 303.5,655.5C 304.738,655.19 304.738,654.69 303.5,654C 281.099,641.599 263.265,624.432 250,602.5C 249.31,601.262 248.81,601.262 248.5,602.5C 238.861,587.2 232.528,570.533 229.5,552.5C 229.367,493.354 229.534,434.02 230,374.5C 231.634,361.766 234.801,349.433 239.5,337.5C 239.457,336.584 239.124,335.917 238.5,335.5C 241.262,329.64 244.262,323.974 247.5,318.5C 247.369,319.239 247.536,319.906 248,320.5C 251.109,315.06 254.609,309.893 258.5,305C 258.272,304.601 257.938,304.435 257.5,304.5C 259.458,301.208 261.791,298.208 264.5,295.5C 264.435,295.938 264.601,296.272 265,296.5C 280.488,279.348 298.988,266.515 320.5,258C 319.906,257.536 319.239,257.369 318.5,257.5C 319.514,256.326 320.847,255.66 322.5,255.5C 322.917,256.124 323.584,256.457 324.5,256.5C 336.801,252.092 349.468,249.258 362.5,248C 461.833,247.333 561.167,247.333 660.5,248C 678.017,249.421 694.85,253.587 711,260.5C 711.765,260.43 712.265,260.097 712.5,259.5 Z M 672.5,280.5 C 673.209,281.404 674.209,281.737 675.5,281.5C 687.481,284.269 698.815,288.603 709.5,294.5C 713.476,297.469 717.476,300.469 721.5,303.5C 740.997,319.132 753.997,339.132 760.5,363.5C 761.508,368.961 762.508,374.294 763.5,379.5C 763.5,382.833 763.5,386.167 763.5,389.5C 763.667,440.168 763.5,490.834 763,541.5C 760.572,560.962 753.739,578.629 742.5,594.5C 741.833,594.5 741.5,594.833 741.5,595.5C 721.14,621.187 694.473,635.687 661.5,639C 609.833,639.333 558.167,639.667 506.5,640C 498.415,640.544 491.415,643.544 485.5,649C 452.424,675.287 419.258,701.454 386,727.5C 386.007,707.664 386.507,687.831 387.5,668C 387.333,662.833 387.167,657.667 387,652.5C 386.153,650.807 385.32,649.14 384.5,647.5C 382.557,644.529 379.891,642.529 376.5,641.5C 360.429,640.209 344.762,636.876 329.5,631.5C 321.938,627.943 314.605,623.943 307.5,619.5C 299.895,613.563 292.895,606.897 286.5,599.5C 286.5,598.833 286.167,598.5 285.5,598.5C 271.385,580.677 263.219,560.343 261,537.5C 260.048,483.148 260.382,428.814 262,374.5C 265.039,356.2 271.873,339.533 282.5,324.5C 288.139,318.526 293.805,312.526 299.5,306.5C 310.76,297.701 323.094,290.701 336.5,285.5C 337.492,285.672 338.158,285.338 338.5,284.5C 345.697,282.427 353.031,280.927 360.5,280C 464.513,279.182 568.513,279.349 672.5,280.5 Z"/></g>
<g><path style="opacity:1" fill="#151718" d="M 318.5,257.5 C 319.239,257.369 319.906,257.536 320.5,258C 298.988,266.515 280.488,279.348 265,296.5C 264.601,296.272 264.435,295.938 264.5,295.5C 279.469,278.532 297.469,265.866 318.5,257.5 Z"/></g>
<g><path style="opacity:1" fill="#141617" d="M 672.5,280.5 C 568.513,279.349 464.513,279.182 360.5,280C 353.031,280.927 345.697,282.427 338.5,284.5C 339.848,282.782 342.182,281.616 345.5,281C 351.107,279.677 356.774,278.677 362.5,278C 461.5,277.333 560.5,277.333 659.5,278C 665.35,278.043 669.683,278.876 672.5,280.5 Z"/></g>
<g><path style="opacity:1" fill="#131617" d="M 675.5,281.5 C 688.008,282.508 699.675,286.675 710.5,294C 710.272,294.399 709.938,294.565 709.5,294.5C 698.815,288.603 687.481,284.269 675.5,281.5 Z"/></g>
<g><path style="opacity:1" fill="#0f1112" d="M 745.5,281.5 C 754.576,289.24 762.576,297.906 769.5,307.5C 769.565,307.938 769.399,308.272 769,308.5C 766.667,305.5 764.333,302.5 762,299.5C 755.604,293.636 750.104,287.636 745.5,281.5 Z"/></g>
<g><path style="opacity:1" fill="#171819" d="M 336.5,285.5 C 323.094,290.701 310.76,297.701 299.5,306.5C 299.062,306.565 298.728,306.399 298.5,306C 309.583,295.634 322.249,288.801 336.5,285.5 Z"/></g>
<g><path style="opacity:1" fill="#0d1012" d="M 257.5,304.5 C 257.938,304.435 258.272,304.601 258.5,305C 254.609,309.893 251.109,315.06 248,320.5C 247.536,319.906 247.369,319.239 247.5,318.5C 250.355,313.443 253.688,308.777 257.5,304.5 Z"/></g>
<g><path style="opacity:1" fill="#141718" d="M 721.5,303.5 C 721.56,302.957 721.893,302.624 722.5,302.5C 741.731,317.939 754.731,337.606 761.5,361.5C 761.457,362.416 761.124,363.083 760.5,363.5C 753.997,339.132 740.997,319.132 721.5,303.5 Z"/></g>
<g><path style="opacity:1" fill="#181a1b" d="M 790.5,348.5 C 793.685,359.273 795.685,370.273 796.5,381.5C 795.596,382.209 795.263,383.209 795.5,384.5C 794.526,372.511 792.193,360.678 788.5,349C 789.094,348.536 789.761,348.369 790.5,348.5 Z"/></g>
<g><path style="opacity:1" fill="#0b0d0d" d="M 282.5,324.5 C 271.873,339.533 265.039,356.2 262,374.5C 260.382,428.814 260.048,483.148 261,537.5C 263.219,560.343 271.385,580.677 285.5,598.5C 284.883,598.611 284.383,598.944 284,599.5C 269.268,580.357 260.934,558.69 259,534.5C 258.065,481.818 258.398,429.151 260,376.5C 262.595,357.32 269.595,339.987 281,324.5C 281.69,323.262 282.19,323.262 282.5,324.5 Z"/></g>
<g><path style="opacity:1" fill="#080b0c" d="M 238.5,335.5 C 239.124,335.917 239.457,336.584 239.5,337.5C 234.801,349.433 231.634,361.766 230,374.5C 229.534,434.02 229.367,493.354 229.5,552.5C 228.955,549.187 228.455,545.854 228,542.5C 227.333,487.167 227.333,431.833 228,376.5C 229.783,362.368 233.283,348.701 238.5,335.5 Z"/></g>
<g><path style="opacity:1" fill="#000000" d="M 796.5,381.5 C 796.5,434.5 796.5,487.5 796.5,540.5C 795.833,540.167 795.167,539.833 794.5,539.5C 795.491,487.875 795.824,436.209 795.5,384.5C 795.263,383.209 795.596,382.209 796.5,381.5 Z"/></g>
<g><path style="opacity:1" fill="#000001" d="M 765.5,535.5 C 764.833,486.833 764.167,438.167 763.5,389.5C 763.5,386.167 763.5,382.833 763.5,379.5C 763.34,377.801 763.506,376.134 764,374.5C 764.333,377.167 764.667,379.833 765,382.5C 765.5,433.499 765.667,484.499 765.5,535.5 Z"/></g>
<g><path style="opacity:1" fill="#1a1d1e" d="M 794.5,539.5 C 795.167,539.833 795.833,540.167 796.5,540.5C 794.19,567.101 785.19,591.101 769.5,612.5C 768.475,612.103 768.308,611.437 769,610.5C 783.938,589.187 792.438,565.521 794.5,539.5 Z"/></g>
<g><path style="opacity:1" fill="#212527" d="M 763.5,389.5 C 764.167,438.167 764.833,486.833 765.5,535.5C 763.984,554.881 758.151,572.881 748,589.5C 746.574,591.766 744.74,593.432 742.5,594.5C 753.739,578.629 760.572,560.962 763,541.5C 763.5,490.834 763.667,440.168 763.5,389.5 Z"/></g>
<g><path style="opacity:1" fill="#16191a" d="M 286.5,599.5 C 292.895,606.897 299.895,613.563 307.5,619.5C 304.86,619.046 302.527,617.879 300.5,616C 295.667,611.167 290.833,606.333 286,601.5C 285.308,600.563 285.475,599.897 286.5,599.5 Z"/></g>
<g><path style="opacity:1" fill="#1a1d1f" d="M 303.5,655.5 C 280.267,642.934 261.934,625.267 248.5,602.5C 248.81,601.262 249.31,601.262 250,602.5C 263.265,624.432 281.099,641.599 303.5,654C 304.738,654.69 304.738,655.19 303.5,655.5 Z"/></g>
<g><path style="opacity:1" fill="#17191b" d="M 329.5,631.5 C 344.762,636.876 360.429,640.209 376.5,641.5C 359.638,642.162 343.305,638.996 327.5,632C 328.094,631.536 328.761,631.369 329.5,631.5 Z"/></g>
<g><path style="opacity:1" fill="#161818" d="M 741.5,595.5 C 742.239,595.369 742.906,595.536 743.5,596C 721.839,623.333 693.506,638.333 658.5,641C 606.833,641.333 555.167,641.667 503.5,642C 498.349,642.91 493.682,644.91 489.5,648C 454.977,675.357 420.31,702.524 385.5,729.5C 384.914,729.291 384.414,728.957 384,728.5C 384.18,705.486 385.013,682.486 386.5,659.5C 386.278,655.612 385.278,651.946 383.5,648.5C 383.624,647.893 383.957,647.56 384.5,647.5C 385.32,649.14 386.153,650.807 387,652.5C 387.167,657.667 387.333,662.833 387.5,668C 386.507,687.831 386.007,707.664 386,727.5C 419.258,701.454 452.424,675.287 485.5,649C 491.415,643.544 498.415,640.544 506.5,640C 558.167,639.667 609.833,639.333 661.5,639C 694.473,635.687 721.14,621.187 741.5,595.5 Z"/></g>
<g><path style="opacity:1" fill="#1a1c1e" d="M 745.5,638.5 C 733.8,649.025 720.467,657.025 705.5,662.5C 713.967,657.563 722.967,652.396 732.5,647C 736.167,644 739.833,641 743.5,638C 744.437,637.308 745.103,637.475 745.5,638.5 Z"/></g>
<g><path style="opacity:1" fill="#1a1c1d" d="M 703.5,663.5 C 691.981,668.272 679.981,671.272 667.5,672.5C 667.158,671.662 666.492,671.328 665.5,671.5C 677.902,669.981 690.068,666.981 702,662.5C 702.765,662.57 703.265,662.903 703.5,663.5 Z"/></g>
<g><path style="opacity:1" fill="#131617" d="M 331.5,667.5 C 331.917,666.876 332.584,666.543 333.5,666.5C 341.043,668.216 348.377,670.216 355.5,672.5C 347.296,671.782 339.296,670.115 331.5,667.5 Z"/></g>
<g><path style="opacity:1" fill="#010102" d="M 665.5,671.5 C 666.492,671.328 667.158,671.662 667.5,672.5C 616.166,672.333 564.832,672.5 513.5,673C 511.359,673.573 509.359,674.406 507.5,675.5C 506.262,675.19 506.262,674.69 507.5,674C 508.833,673.333 510.167,672.667 511.5,672C 562.832,671.5 614.166,671.333 665.5,671.5 Z"/></g>
<g><path style="opacity:1" fill="#191c1e" d="M 355.5,672.5 C 356.166,676.486 356.499,680.653 356.5,685C 354.74,712.147 353.907,739.313 354,766.5C 354.69,769.196 356.19,771.363 358.5,773C 367.067,776.971 375.067,776.137 382.5,770.5C 383.107,770.624 383.44,770.957 383.5,771.5C 373.314,779.829 363.481,779.495 354,770.5C 353.138,768.913 352.471,767.246 352,765.5C 352.441,734.471 353.607,703.471 355.5,672.5 Z"/></g>
</svg>
