<?xml version="1.0" encoding="UTF-8"?>
<!DOCTYPE svg PUBLIC "-//W3C//DTD SVG 1.1//EN" "http://www.w3.org/Graphics/SVG/1.1/DTD/svg11.dtd">
<svg xmlns="http://www.w3.org/2000/svg" version="1.1" width="1024px" height="1024px" style="shape-rendering:geometricPrecision; text-rendering:geometricPrecision; image-rendering:optimizeQuality; fill-rule:evenodd; clip-rule:evenodd" xmlns:xlink="http://www.w3.org/1999/xlink">
<g><path style="opacity:1" fill="#fdfdfd" d="M 368.5,245.5 C 464.167,245.333 559.834,245.5 655.5,246C 706.648,249.318 746.482,272.151 775,314.5C 786.377,333.298 793.377,353.631 796,375.5C 796.667,432.167 796.667,488.833 796,545.5C 788.54,594.595 763.374,631.428 720.5,656C 705.155,664.337 688.822,669.671 671.5,672C 617.775,672.013 564.109,672.679 510.5,674C 466.806,706.849 423.473,740.182 380.5,774C 370.674,779.57 361.84,778.403 354,770.5C 353.138,768.913 352.471,767.246 352,765.5C 352.441,734.471 353.607,703.471 355.5,672.5C 294.117,662.056 253.284,627.389 233,568.5C 230.692,559.958 229.025,551.291 228,542.5C 227.333,487.167 227.333,431.833 228,376.5C 236.572,319.165 267.406,278.998 320.5,256C 336.157,250.248 352.157,246.748 368.5,245.5 Z M 360.5,279.5 C 462.167,279.333 563.834,279.5 665.5,280C 721.552,290.052 754.052,323.219 763,379.5C 763.667,433.5 763.667,487.5 763,541.5C 753.736,595.431 722.236,627.597 668.5,638C 614.528,639.303 560.528,639.97 506.5,640C 498.415,640.544 491.415,643.544 485.5,649C 452.424,675.287 419.258,701.454 386,727.5C 386.007,707.664 386.507,687.831 387.5,668C 387.333,662.833 387.167,657.667 387,652.5C 385.141,646.64 381.307,642.807 375.5,641C 330.953,638.992 297.12,619.158 274,581.5C 266.634,567.733 262.3,553.067 261,537.5C 260.333,486.833 260.333,436.167 261,385.5C 265.159,338.347 288.992,305.514 332.5,287C 341.716,283.532 351.049,281.032 360.5,279.5 Z"/></g>
</svg>
