<?xml version="1.0" encoding="UTF-8"?>
<!DOCTYPE svg PUBLIC "-//W3C//DTD SVG 1.1//EN" "http://www.w3.org/Graphics/SVG/1.1/DTD/svg11.dtd">
<svg xmlns="http://www.w3.org/2000/svg" version="1.1" width="1024px" height="1024px" style="shape-rendering:geometricPrecision; text-rendering:geometricPrecision; image-rendering:optimizeQuality; fill-rule:evenodd; clip-rule:evenodd" xmlns:xlink="http://www.w3.org/1999/xlink">
<g><path style="opacity:1" fill="#dd3c25" d="M 530.5,177.5 C 533.167,178.167 535.833,178.833 538.5,179.5C 516.906,177.631 495.406,178.297 474,181.5C 472.5,181.333 471,181.167 469.5,181C 472.036,180.814 474.369,180.314 476.5,179.5C 494.299,176.926 512.299,176.26 530.5,177.5 Z"/></g>
<g><path style="opacity:1" fill="#bf3423" d="M 530.5,177.5 C 536.726,177.388 542.726,178.054 548.5,179.5C 545.167,179.5 541.833,179.5 538.5,179.5C 535.833,178.833 533.167,178.167 530.5,177.5 Z"/></g>
<g><path style="opacity:1" fill="#f64233" d="M 538.5,179.5 C 541.833,179.5 545.167,179.5 548.5,179.5C 577.787,182.573 606.12,189.24 633.5,199.5C 633.47,200.497 633.97,201.164 635,201.5C 649.111,207.22 662.611,213.72 675.5,221C 675.944,222.533 676.277,224.033 676.5,225.5C 678.423,225.37 680.256,225.036 682,224.5C 683.066,226.099 684.566,227.099 686.5,227.5C 687.251,228.376 687.751,229.376 688,230.5C 689.087,228.068 689.587,228.402 689.5,231.5C 690.873,231.343 692.207,231.51 693.5,232C 695.346,234.092 697.679,235.426 700.5,236C 699.833,236.333 699.167,236.667 698.5,237C 702.404,239.132 706.404,241.132 710.5,243C 711.191,244.067 711.691,245.234 712,246.5C 713.414,245.587 714.914,245.587 716.5,246.5C 781.657,296.726 823.157,362.393 841,443.5C 848.654,484.031 849.487,524.698 843.5,565.5C 842.679,562.359 842.179,559.025 842,555.5C 841.667,555.833 841.333,556.167 841,556.5C 840.692,555.692 840.192,555.025 839.5,554.5C 838.709,557.317 837.376,559.817 835.5,562C 838.097,564.262 837.93,566.095 835,567.5C 833.984,566.366 833.317,566.699 833,568.5C 831.387,567.378 830.22,567.878 829.5,570C 830.448,570.483 831.448,570.649 832.5,570.5C 831.313,572.905 829.813,575.239 828,577.5C 827.626,576.584 827.126,575.75 826.5,575C 828.211,573.867 828.711,572.367 828,570.5C 827.667,571.167 827.333,571.833 827,572.5C 825.951,571.483 824.784,571.316 823.5,572C 824.337,573.011 824.67,574.178 824.5,575.5C 822.712,575.215 821.045,575.548 819.5,576.5C 820.735,579.044 821.901,579.044 823,576.5C 823.589,579.79 822.089,581.29 818.5,581C 819.667,581.5 820.5,582.333 821,583.5C 821.837,581.993 823.004,581.493 824.5,582C 823.417,584.056 821.75,585.389 819.5,586C 820,586.5 820.5,587 821,587.5C 824.385,585.939 825.051,586.606 823,589.5C 822.059,591.061 820.892,592.395 819.5,593.5C 818.494,593.062 818.494,592.396 819.5,591.5C 818.311,590.571 816.978,590.238 815.5,590.5C 815.307,586.551 814.807,586.551 814,590.5C 813.692,589.692 813.192,589.025 812.5,588.5C 811.416,589.665 810.583,590.998 810,592.5C 809.333,591.167 808.667,591.167 808,592.5C 807.085,591.672 806.419,590.672 806,589.5C 805.682,591.061 804.849,592.228 803.5,593C 805.481,593.605 805.815,594.605 804.5,596C 804.833,596.167 805.167,596.333 805.5,596.5C 806.251,595.624 806.751,594.624 807,593.5C 806.84,596.509 808.007,598.675 810.5,600C 808.388,601.445 806.222,601.278 804,599.5C 801.571,600.818 799.404,602.484 797.5,604.5C 796.893,604.376 796.56,604.043 796.5,603.5C 796.389,602.883 796.056,602.383 795.5,602C 797.705,596.609 799.705,591.109 801.5,585.5C 801.167,584.833 800.833,584.167 800.5,583.5C 802.698,580.555 803.365,577.388 802.5,574C 804.669,572.672 805.002,571.006 803.5,569C 805.636,565.021 806.302,560.854 805.5,556.5C 807.357,553.622 807.691,550.622 806.5,547.5C 808.727,543.482 809.06,539.315 807.5,535C 808.881,531.813 809.548,528.48 809.5,525C 808.959,515.641 808.293,506.308 807.5,497C 808.051,495.042 808.385,493.042 808.5,491C 806.95,482.73 805.617,474.397 804.5,466C 805.368,464.135 805.034,462.302 803.5,460.5C 803.709,459.914 804.043,459.414 804.5,459C 802.887,456.772 802.22,454.272 802.5,451.5C 802.889,448.447 802.223,445.78 800.5,443.5C 798.478,434.745 796.145,426.079 793.5,417.5C 792.71,410.797 790.71,404.463 787.5,398.5C 788.167,397.833 788.833,397.167 789.5,396.5C 785.076,393.317 783.076,388.983 783.5,383.5C 782.325,383.719 781.325,383.386 780.5,382.5C 778.564,377.871 776.064,372.871 773,367.5C 772.536,368.094 772.369,368.761 772.5,369.5C 754.534,335.79 730.534,306.957 700.5,283C 680.193,266.503 658.193,252.503 634.5,241C 599.07,226.552 562.404,218.052 524.5,215.5C 519.54,214.287 508.54,214.12 491.5,215C 485.126,215.311 478.793,215.977 472.5,217C 474.473,217.495 476.473,217.662 478.5,217.5C 475.316,218.323 471.983,218.99 468.5,219.5C 456.247,219.008 444.081,220.675 432,224.5C 430.856,224.089 429.689,223.756 428.5,223.5C 426.936,224.769 425.269,225.936 423.5,227C 418.145,227.645 413.479,229.478 409.5,232.5C 397.372,237.771 385.372,243.438 373.5,249.5C 373.473,245.851 374.973,244.518 378,245.5C 380.437,244.2 382.937,243.2 385.5,242.5C 385.457,238.107 385.957,237.774 387,241.5C 388.718,240.15 390.552,238.983 392.5,238C 390.996,236.509 390.163,234.676 390,232.5C 388.184,231.671 386.351,230.837 384.5,230C 384.982,228.992 385.148,227.825 385,226.5C 385.333,226.833 385.667,227.167 386,227.5C 386.5,226.333 387.333,225.5 388.5,225C 386.699,224.683 386.366,224.016 387.5,223C 384.997,222.126 382.997,222.793 381.5,225C 384.182,227.33 383.849,227.83 380.5,226.5C 378.002,229.191 375.835,228.858 374,225.5C 373.333,226.5 373.333,227.5 374,228.5C 377.362,231.732 377.362,232.398 374,230.5C 373.689,232.556 373.189,234.556 372.5,236.5C 372.709,237.086 373.043,237.586 373.5,238C 372.069,238.465 370.903,239.299 370,240.5C 365.506,239.267 365.672,238.1 370.5,237C 368.479,236.487 366.979,235.32 366,233.5C 364.989,234.337 363.822,234.67 362.5,234.5C 362.413,237.598 362.913,237.932 364,235.5C 365.365,236.593 365.699,237.926 365,239.5C 364.333,238.167 363.667,238.167 363,239.5C 362.217,241.319 362.717,242.652 364.5,243.5C 365.386,242.675 365.719,241.675 365.5,240.5C 368.598,240.413 368.932,240.913 366.5,242C 366.833,242.333 367.167,242.667 367.5,243C 366.773,244.399 366.273,245.899 366,247.5C 365.259,246.359 364.425,246.359 363.5,247.5C 362.571,246.311 362.238,244.978 362.5,243.5C 358.71,243.992 358.044,243.159 360.5,241C 356.437,239.036 356.103,237.036 359.5,235C 357.913,234.138 356.246,233.471 354.5,233C 356.5,232.667 358.5,232.333 360.5,232C 356.157,230.066 352.657,231.233 350,235.5C 349.309,233.109 348.309,233.109 347,235.5C 346.667,234.833 346.333,234.167 346,233.5C 344.989,234.337 343.822,234.67 342.5,234.5C 342.167,236.5 341.833,238.5 341.5,240.5C 339.345,240.628 337.345,240.128 335.5,239C 335.833,238.667 336.167,238.333 336.5,238C 335.128,237.598 333.795,237.098 332.5,236.5C 332.5,237.5 332.5,238.5 332.5,239.5C 331.28,238.289 330.113,238.289 329,239.5C 328.667,238.833 328.333,238.167 328,237.5C 326.027,238.64 324.193,239.973 322.5,241.5C 321.742,240.189 320.742,239.689 319.5,240C 318.138,242.034 317.138,244.201 316.5,246.5C 313.833,246.167 311.167,245.833 308.5,245.5C 355.912,207.793 411.912,185.793 476.5,179.5C 474.369,180.314 472.036,180.814 469.5,181C 471,181.167 472.5,181.333 474,181.5C 495.406,178.297 516.906,177.631 538.5,179.5 Z"/></g>
<g><path style="opacity:1" fill="#d92916" d="M 524.5,215.5 C 509.139,215.591 493.806,216.257 478.5,217.5C 476.473,217.662 474.473,217.495 472.5,217C 478.793,215.977 485.126,215.311 491.5,215C 508.54,214.12 519.54,214.287 524.5,215.5 Z"/></g>
<g><path style="opacity:1" fill="#df3120" d="M 468.5,219.5 C 448.434,222.1 428.767,226.434 409.5,232.5C 413.479,229.478 418.145,227.645 423.5,227C 425.269,225.936 426.936,224.769 428.5,223.5C 429.689,223.756 430.856,224.089 432,224.5C 444.081,220.675 456.247,219.008 468.5,219.5 Z"/></g>
<g><path style="opacity:1" fill="#e33826" d="M 633.5,199.5 C 654.26,207.213 673.927,217.047 692.5,229C 700.962,234.31 708.962,240.143 716.5,246.5C 714.914,245.587 713.414,245.587 712,246.5C 711.691,245.234 711.191,244.067 710.5,243C 706.404,241.132 702.404,239.132 698.5,237C 699.167,236.667 699.833,236.333 700.5,236C 697.679,235.426 695.346,234.092 693.5,232C 692.207,231.51 690.873,231.343 689.5,231.5C 689.587,228.402 689.087,228.068 688,230.5C 687.751,229.376 687.251,228.376 686.5,227.5C 684.566,227.099 683.066,226.099 682,224.5C 680.256,225.036 678.423,225.37 676.5,225.5C 676.277,224.033 675.944,222.533 675.5,221C 662.611,213.72 649.111,207.22 635,201.5C 633.97,201.164 633.47,200.497 633.5,199.5 Z"/></g>
<g><path style="opacity:1" fill="#a83122" d="M 264.5,285.5 C 263.581,288.089 261.914,290.089 259.5,291.5C 260.419,288.911 262.086,286.911 264.5,285.5 Z"/></g>
<g><path style="opacity:1" fill="#1b282f" d="M 678.5,372.5 C 679.5,372.833 680.167,373.5 680.5,374.5C 679.761,374.369 679.094,374.536 678.5,375C 682.98,383.365 682.147,391.198 676,398.5C 674.667,399.833 673.333,401.167 672,402.5C 671.308,403.437 671.475,404.103 672.5,404.5C 668.139,409.193 663.805,413.859 659.5,418.5C 659.565,418.062 659.399,417.728 659,417.5C 654.175,421.478 650.342,426.145 647.5,431.5C 588.436,499.406 528.769,566.906 468.5,634C 460.963,638.73 453.63,638.564 446.5,633.5C 438.904,623.23 430.904,613.23 422.5,603.5C 423.145,602.188 424.145,601.188 425.5,600.5C 427.121,602.423 428.954,604.089 431,605.5C 431.333,605.167 431.667,604.833 432,604.5C 432.652,606.723 434.152,607.89 436.5,608C 435.294,609.018 435.627,609.518 437.5,609.5C 438.966,608.865 440.3,608.031 441.5,607C 440.464,605.383 439.297,605.216 438,606.5C 437.024,602.748 437.69,602.082 440,604.5C 441.816,603.671 443.649,602.837 445.5,602C 443.77,600.148 442.604,600.314 442,602.5C 441.626,601.584 441.126,600.75 440.5,600C 442.767,599.724 445.1,599.057 447.5,598C 445.337,597.066 443.67,595.066 442.5,592C 444.001,590.748 445.668,589.748 447.5,589C 446.464,587.383 445.297,587.216 444,588.5C 443.405,587.101 443.572,585.768 444.5,584.5C 442.262,583.617 440.095,583.95 438,585.5C 437.833,585.167 437.667,584.833 437.5,584.5C 440.949,583.452 443.616,581.452 445.5,578.5C 449.074,581.463 452.074,584.963 454.5,589C 455.5,589.667 456.5,589.667 457.5,589C 480.5,563.333 503.5,537.667 526.5,512C 525.906,511.536 525.239,511.369 524.5,511.5C 525.5,509.833 526.833,508.5 528.5,507.5C 528.393,509.379 528.893,509.712 530,508.5C 547.631,487.6 565.965,467.267 585,447.5C 586.094,445.922 586.928,444.255 587.5,442.5C 587.328,441.508 587.662,440.842 588.5,440.5C 588.369,441.239 588.536,441.906 589,442.5C 610.464,418.035 632.297,393.868 654.5,370C 663.119,365.871 670.952,367.038 678,373.5C 678.399,373.272 678.565,372.938 678.5,372.5 Z"/></g>
<g><path style="opacity:1" fill="#f64436" d="M 373.5,249.5 C 314.966,279.202 271.799,323.869 244,383.5C 233.616,405.32 225.616,427.986 220,451.5C 217.606,465.243 215.773,478.909 214.5,492.5C 214.665,489.15 214.498,485.817 214,482.5C 211.895,504.378 212.395,526.045 215.5,547.5C 215.5,551.833 215.5,556.167 215.5,560.5C 213.058,560.881 212.391,560.214 213.5,558.5C 212.559,558.511 211.892,558.011 211.5,557C 211.905,556.055 212.572,555.388 213.5,555C 211.203,554.982 208.869,555.149 206.5,555.5C 206.351,554.448 206.517,553.448 207,552.5C 207.889,553.888 208.389,553.722 208.5,552C 206.999,550.101 205.499,548.935 204,548.5C 202.685,550.316 201.185,551.983 199.5,553.5C 196.434,552.419 193.267,550.753 190,548.5C 189.667,548.833 189.333,549.167 189,549.5C 188.727,547.899 188.227,546.399 187.5,545C 192.833,543.667 192.833,542.333 187.5,541C 189.037,539.89 189.703,538.39 189.5,536.5C 188.448,536.649 187.448,536.483 186.5,536C 187.5,535 188.5,534 189.5,533C 187.009,532.374 187.009,531.541 189.5,530.5C 187.009,529.459 187.009,528.626 189.5,528C 189.576,524.999 188.409,524.833 186,527.5C 185.626,526.584 185.126,525.75 184.5,525C 185.308,524.692 185.975,524.192 186.5,523.5C 185.349,522.269 184.183,522.269 183,523.5C 182.449,521.647 183.115,520.313 185,519.5C 185.725,521.158 186.892,521.658 188.5,521C 187.125,518.523 185.291,517.689 183,518.5C 182.689,517.258 183.189,516.258 184.5,515.5C 184.154,514.304 183.654,514.304 183,515.5C 182.333,514.833 182.333,514.167 183,513.5C 185.362,512.374 187.529,511.04 189.5,509.5C 190.799,510.09 191.632,511.09 192,512.5C 194.003,510.275 193.503,508.608 190.5,507.5C 189.252,508.04 188.085,508.707 187,509.5C 186.667,509.167 186.333,508.833 186,508.5C 187.56,508.146 188.393,506.48 188.5,503.5C 192.554,503.79 193.054,503.123 190,501.5C 189.667,501.833 189.333,502.167 189,502.5C 188.751,501.376 188.251,500.376 187.5,499.5C 185.955,501.395 184.455,503.395 183,505.5C 182.5,505 182,504.5 181.5,504C 183.612,503.094 184.445,501.594 184,499.5C 183.257,501.645 182.424,501.811 181.5,500C 182.466,498.171 182.633,496.338 182,494.5C 182.667,495.167 183.333,495.833 184,496.5C 184.526,494.45 185.359,492.617 186.5,491C 186.043,490.586 185.709,490.086 185.5,489.5C 187.902,488.425 190.236,487.258 192.5,486C 191.531,484.242 190.364,483.742 189,484.5C 187.991,482.975 187.491,481.308 187.5,479.5C 189.103,479.312 190.437,479.812 191.5,481C 190.833,481.333 190.167,481.667 189.5,482C 191.55,482.526 193.383,483.359 195,484.5C 196.509,481.275 198.676,479.442 201.5,479C 199.888,478.28 198.388,478.446 197,479.5C 197.035,475.755 196.035,475.088 194,477.5C 191.819,475.022 192.152,473.022 195,471.5C 195.333,472.167 195.667,472.833 196,473.5C 197.167,472.333 198.333,471.167 199.5,470C 198.5,469.667 197.5,469.333 196.5,469C 198.135,467.252 200.135,466.085 202.5,465.5C 201.498,462.297 202.832,460.463 206.5,460C 202.863,457.787 201.196,454.787 201.5,451C 202.067,448.318 203.401,446.151 205.5,444.5C 204.289,443.28 204.289,442.113 205.5,441C 203.536,441.266 202.036,442.433 201,444.5C 198.833,443 199,441.833 201.5,441C 201.167,440.667 200.833,440.333 200.5,440C 203.896,439.987 206.562,438.654 208.5,436C 207.667,433.5 206.167,433 204,434.5C 202.872,432.655 202.372,430.655 202.5,428.5C 205.797,428.329 206.131,428.995 203.5,430.5C 203.808,431.308 204.308,431.975 205,432.5C 205.903,431.299 207.069,430.465 208.5,430C 206.699,429.683 206.366,429.016 207.5,428C 206.884,425.821 205.717,423.988 204,422.5C 203.751,423.624 203.251,424.624 202.5,425.5C 202.251,424.418 202.085,423.085 202,421.5C 200.467,421.056 198.967,420.723 197.5,420.5C 198.641,419.575 198.641,418.741 197.5,418C 199.087,417.138 200.754,416.471 202.5,416C 201.833,415.333 201.167,414.667 200.5,414C 204.164,410.588 203.997,409.421 200,410.5C 199.544,409.256 200.044,408.423 201.5,408C 200.584,407.626 199.75,407.126 199,406.5C 196.351,410.736 194.851,410.236 194.5,405C 194.878,403.365 195.544,401.865 196.5,400.5C 197.251,401.376 197.751,402.376 198,403.5C 199.011,402.663 200.178,402.33 201.5,402.5C 201.119,404.942 201.786,405.609 203.5,404.5C 204.023,401.501 205.023,398.501 206.5,395.5C 207.822,395.33 208.989,395.663 210,396.5C 212.171,394.047 214.671,393.047 217.5,393.5C 217.489,392.559 217.989,391.892 219,391.5C 220.162,392.187 221.328,392.353 222.5,392C 220.043,389.743 217.376,388.743 214.5,389C 215.672,388.581 216.672,387.915 217.5,387C 215.633,386.289 214.133,386.789 213,388.5C 212.833,388.167 212.667,387.833 212.5,387.5C 213.766,386.276 214.933,384.943 216,383.5C 216.414,383.957 216.914,384.291 217.5,384.5C 219.167,383.167 220.833,381.833 222.5,380.5C 224.214,381.609 224.881,380.942 224.5,378.5C 223.127,378.657 221.793,378.49 220.5,378C 221.673,374.89 221.173,374.723 219,377.5C 218.99,374.6 220.323,373.934 223,375.5C 223.317,373.699 223.984,373.366 225,374.5C 225.483,373.552 225.649,372.552 225.5,371.5C 223.304,371.435 221.304,370.768 219.5,369.5C 220.167,368.5 220.833,367.5 221.5,366.5C 220.048,363.242 220.714,362.742 223.5,365C 223.5,366.667 223.5,368.333 223.5,370C 225.743,369.681 227.91,369.848 230,370.5C 230.833,369.667 231.667,368.833 232.5,368C 230.559,367.696 228.893,366.863 227.5,365.5C 226.833,365.833 226.167,366.167 225.5,366.5C 224.866,364.433 223.866,362.6 222.5,361C 224.5,360 226.5,359 228.5,358C 224.726,356.53 222.892,354.03 223,350.5C 222,350.833 221,351.167 220,351.5C 219.667,350.833 219.333,350.167 219,349.5C 218.722,350.416 218.222,351.082 217.5,351.5C 217.062,351.565 216.728,351.399 216.5,351C 219.427,346.606 222.427,342.272 225.5,338C 224.655,336.442 225.321,335.442 227.5,335C 230.548,327.328 235.214,320.328 241.5,314C 241.167,313.667 240.833,313.333 240.5,313C 246.463,305.896 252.796,298.73 259.5,291.5C 261.914,290.089 263.581,288.089 264.5,285.5C 274.187,275.98 283.687,266.313 293,256.5C 293.333,256.833 293.667,257.167 294,257.5C 297.166,254.238 300.332,251.072 303.5,248C 305.452,247.634 307.118,246.801 308.5,245.5C 311.167,245.833 313.833,246.167 316.5,246.5C 317.138,244.201 318.138,242.034 319.5,240C 320.742,239.689 321.742,240.189 322.5,241.5C 324.193,239.973 326.027,238.64 328,237.5C 328.333,238.167 328.667,238.833 329,239.5C 330.113,238.289 331.28,238.289 332.5,239.5C 332.5,238.5 332.5,237.5 332.5,236.5C 333.795,237.098 335.128,237.598 336.5,238C 336.167,238.333 335.833,238.667 335.5,239C 337.345,240.128 339.345,240.628 341.5,240.5C 341.833,238.5 342.167,236.5 342.5,234.5C 343.822,234.67 344.989,234.337 346,233.5C 346.333,234.167 346.667,234.833 347,235.5C 348.309,233.109 349.309,233.109 350,235.5C 352.657,231.233 356.157,230.066 360.5,232C 358.5,232.333 356.5,232.667 354.5,233C 356.246,233.471 357.913,234.138 359.5,235C 356.103,237.036 356.437,239.036 360.5,241C 358.044,243.159 358.71,243.992 362.5,243.5C 362.238,244.978 362.571,246.311 363.5,247.5C 364.425,246.359 365.259,246.359 366,247.5C 366.273,245.899 366.773,244.399 367.5,243C 367.167,242.667 366.833,242.333 366.5,242C 368.932,240.913 368.598,240.413 365.5,240.5C 365.719,241.675 365.386,242.675 364.5,243.5C 362.717,242.652 362.217,241.319 363,239.5C 363.667,238.167 364.333,238.167 365,239.5C 365.699,237.926 365.365,236.593 364,235.5C 362.913,237.932 362.413,237.598 362.5,234.5C 363.822,234.67 364.989,234.337 366,233.5C 366.979,235.32 368.479,236.487 370.5,237C 365.672,238.1 365.506,239.267 370,240.5C 370.903,239.299 372.069,238.465 373.5,238C 373.043,237.586 372.709,237.086 372.5,236.5C 373.189,234.556 373.689,232.556 374,230.5C 377.362,232.398 377.362,231.732 374,228.5C 373.333,227.5 373.333,226.5 374,225.5C 375.835,228.858 378.002,229.191 380.5,226.5C 383.849,227.83 384.182,227.33 381.5,225C 382.997,222.793 384.997,222.126 387.5,223C 386.366,224.016 386.699,224.683 388.5,225C 387.333,225.5 386.5,226.333 386,227.5C 385.667,227.167 385.333,226.833 385,226.5C 385.148,227.825 384.982,228.992 384.5,230C 386.351,230.837 388.184,231.671 390,232.5C 390.163,234.676 390.996,236.509 392.5,238C 390.552,238.983 388.718,240.15 387,241.5C 385.957,237.774 385.457,238.107 385.5,242.5C 382.937,243.2 380.437,244.2 378,245.5C 374.973,244.518 373.473,245.851 373.5,249.5 Z"/></g>
<g><path style="opacity:1" fill="#0a0e13" d="M 678.5,372.5 C 678.565,372.938 678.399,373.272 678,373.5C 670.952,367.038 663.119,365.871 654.5,370C 632.297,393.868 610.464,418.035 589,442.5C 588.536,441.906 588.369,441.239 588.5,440.5C 609.996,416.836 631.33,393.002 652.5,369C 659.642,364.745 666.975,364.412 674.5,368C 676.041,369.371 677.375,370.871 678.5,372.5 Z"/></g>
<g><path style="opacity:1" fill="#060b11" d="M 680.5,374.5 C 684.66,381.571 684.493,388.571 680,395.5C 677.665,398.665 675.165,401.665 672.5,404.5C 671.475,404.103 671.308,403.437 672,402.5C 673.333,401.167 674.667,399.833 676,398.5C 682.147,391.198 682.98,383.365 678.5,375C 679.094,374.536 679.761,374.369 680.5,374.5 Z"/></g>
<g><path style="opacity:1" fill="#db3827" d="M 793.5,417.5 C 787.639,401.1 780.639,385.1 772.5,369.5C 772.369,368.761 772.536,368.094 773,367.5C 776.064,372.871 778.564,377.871 780.5,382.5C 781.325,383.386 782.325,383.719 783.5,383.5C 783.076,388.983 785.076,393.317 789.5,396.5C 788.833,397.167 788.167,397.833 787.5,398.5C 790.71,404.463 792.71,410.797 793.5,417.5 Z"/></g>
<g><path style="opacity:1" fill="#04070e" d="M 659.5,418.5 C 655.472,422.859 651.472,427.193 647.5,431.5C 650.342,426.145 654.175,421.478 659,417.5C 659.399,417.728 659.565,418.062 659.5,418.5 Z"/></g>
<g><path style="opacity:1" fill="#a5382b" d="M 800.5,443.5 C 802.223,445.78 802.889,448.447 802.5,451.5C 801.469,449.039 800.802,446.373 800.5,443.5 Z"/></g>
<g><path style="opacity:1" fill="#0a0e12" d="M 587.5,442.5 C 586.928,444.255 586.094,445.922 585,447.5C 565.965,467.267 547.631,487.6 530,508.5C 528.893,509.712 528.393,509.379 528.5,507.5C 547.826,485.508 567.492,463.842 587.5,442.5 Z"/></g>
<g><path style="opacity:1" fill="#e82d1b" d="M 214.5,492.5 C 214.45,508.177 214.783,523.844 215.5,539.5C 215.5,542.167 215.5,544.833 215.5,547.5C 212.395,526.045 211.895,504.378 214,482.5C 214.498,485.817 214.665,489.15 214.5,492.5 Z"/></g>
<g><path style="opacity:1" fill="#0d1218" d="M 387.5,505.5 C 386.883,505.611 386.383,505.944 386,506.5C 379.352,495.618 370.185,492.784 358.5,498C 348.831,506.351 347.998,515.518 356,525.5C 371,542.833 386,560.167 401,577.5C 401.791,578.745 402.291,580.078 402.5,581.5C 384.306,561.461 366.806,540.795 350,519.5C 347.264,507.138 351.764,498.638 363.5,494C 373.943,492.585 381.943,496.418 387.5,505.5 Z"/></g>
<g><path style="opacity:1" fill="#19262c" d="M 387.5,505.5 C 404.919,526.645 422.585,547.645 440.5,568.5C 439.957,568.56 439.624,568.893 439.5,569.5C 441.769,572.385 443.769,575.385 445.5,578.5C 443.616,581.452 440.949,583.452 437.5,584.5C 437.667,584.833 437.833,585.167 438,585.5C 440.095,583.95 442.262,583.617 444.5,584.5C 443.572,585.768 443.405,587.101 444,588.5C 445.297,587.216 446.464,587.383 447.5,589C 445.668,589.748 444.001,590.748 442.5,592C 443.67,595.066 445.337,597.066 447.5,598C 445.1,599.057 442.767,599.724 440.5,600C 441.126,600.75 441.626,601.584 442,602.5C 442.604,600.314 443.77,600.148 445.5,602C 443.649,602.837 441.816,603.671 440,604.5C 437.69,602.082 437.024,602.748 438,606.5C 439.297,605.216 440.464,605.383 441.5,607C 440.3,608.031 438.966,608.865 437.5,609.5C 435.627,609.518 435.294,609.018 436.5,608C 434.152,607.89 432.652,606.723 432,604.5C 431.667,604.833 431.333,605.167 431,605.5C 428.954,604.089 427.121,602.423 425.5,600.5C 424.145,601.188 423.145,602.188 422.5,603.5C 417.197,597.356 412.031,591.022 407,584.5C 406.023,583.226 405.189,583.226 404.5,584.5C 403.094,584.027 402.427,583.027 402.5,581.5C 402.291,580.078 401.791,578.745 401,577.5C 386,560.167 371,542.833 356,525.5C 347.998,515.518 348.831,506.351 358.5,498C 370.185,492.784 379.352,495.618 386,506.5C 386.383,505.944 386.883,505.611 387.5,505.5 Z"/></g>
<g><path style="opacity:1" fill="#090e12" d="M 524.5,511.5 C 525.239,511.369 525.906,511.536 526.5,512C 503.5,537.667 480.5,563.333 457.5,589C 456.5,589.667 455.5,589.667 454.5,589C 452.074,584.963 449.074,581.463 445.5,578.5C 443.769,575.385 441.769,572.385 439.5,569.5C 439.624,568.893 439.957,568.56 440.5,568.5C 444.834,573.671 449,579.005 453,584.5C 454.113,586.329 455.613,587.163 457.5,587C 480.041,561.962 502.375,536.795 524.5,511.5 Z"/></g>
<g><path style="opacity:1" fill="#a62e22" d="M 177.5,537.5 C 178.164,542.473 178.497,547.473 178.5,552.5C 177.558,548.855 176.892,545.022 176.5,541C 176.514,539.615 176.848,538.449 177.5,537.5 Z"/></g>
<g><path style="opacity:1" fill="#f6473a" d="M 843.5,565.5 C 823.515,669.925 768.182,749.425 677.5,804C 658.5,814.17 638.833,822.67 618.5,829.5C 615.038,829.566 611.705,830.233 608.5,831.5C 606.626,831.61 605.126,830.944 604,829.5C 602.747,832.381 600.58,834.215 597.5,835C 594.173,835.61 590.839,836.11 587.5,836.5C 587.406,833.932 586.072,832.432 583.5,832C 587.927,832 588.427,830.833 585,828.5C 583.946,830.754 582.446,831.087 580.5,829.5C 579.618,828.24 578.618,827.074 577.5,826C 578.167,825.667 578.833,825.333 579.5,825C 578.299,824.097 577.465,822.931 577,821.5C 576.581,822.672 575.915,823.672 575,824.5C 573.111,823.903 571.278,823.569 569.5,823.5C 567.568,824.145 566.401,825.479 566,827.5C 565.667,827.167 565.333,826.833 565,826.5C 564.504,828.035 564.67,829.535 565.5,831C 564.527,831.349 563.694,832.182 563,833.5C 561.829,832.107 560.329,831.273 558.5,831C 560.891,830.309 560.891,829.309 558.5,828C 559.308,827.692 559.975,827.192 560.5,826.5C 559.395,825.108 558.061,823.941 556.5,823C 556.833,822.667 557.167,822.333 557.5,822C 556.022,820.807 554.688,820.307 553.5,820.5C 555.446,818.917 557.446,818.417 559.5,819C 560.701,818.097 561.535,816.931 562,815.5C 562.333,815.833 562.667,816.167 563,816.5C 563.456,815.256 562.956,814.423 561.5,814C 562.126,813.25 562.626,812.416 563,811.5C 564.333,813.167 565.667,814.833 567,816.5C 567.347,814.82 568.347,813.82 570,813.5C 571.816,815.441 573.816,816.108 576,815.5C 578.516,813.998 581.016,812.498 583.5,811C 581.765,810.349 580.098,810.515 578.5,811.5C 577.112,810.409 576.612,809.076 577,807.5C 577.667,808.167 578.333,808.833 579,809.5C 580.667,808.167 582.333,808.167 584,809.5C 584.456,808.256 583.956,807.423 582.5,807C 584.883,806.196 587.05,805.029 589,803.5C 590.512,804.257 591.846,805.257 593,806.5C 593.833,805 595,803.833 596.5,803C 596.167,802.667 595.833,802.333 595.5,802C 596.76,800.887 597.927,800.72 599,801.5C 599.692,800.975 600.192,800.308 600.5,799.5C 598.564,799.638 596.564,799.305 594.5,798.5C 594.706,796.451 595.539,796.117 597,797.5C 599.419,795.415 602.253,794.415 605.5,794.5C 609.827,793.449 614.16,792.282 618.5,791C 620.584,790.303 622.251,789.136 623.5,787.5C 634.344,782.196 645.344,777.029 656.5,772C 660.869,769.793 665.369,766.626 670,762.5C 670.333,762.833 670.667,763.167 671,763.5C 674.62,760.766 677.953,758.432 681,756.5C 682.667,754.833 684.333,753.167 686,751.5C 687.943,751.959 689.276,750.959 690,748.5C 691.558,749.345 692.558,748.679 693,746.5C 694.943,746.959 696.276,745.959 697,743.5C 698.943,743.959 700.276,742.959 701,740.5C 701.333,740.833 701.667,741.167 702,741.5C 703.713,740.122 705.047,738.455 706,736.5C 706.333,736.833 706.667,737.167 707,737.5C 709.237,735.353 711.237,733.02 713,730.5C 713.333,730.833 713.667,731.167 714,731.5C 718.174,726.117 722.674,721.784 727.5,718.5C 730.243,716.761 732.243,714.427 733.5,711.5C 741.051,703.449 748.051,694.949 754.5,686C 754.167,685.667 753.833,685.333 753.5,685C 755.679,684.558 756.345,683.558 755.5,682C 757.679,681.558 758.345,680.558 757.5,679C 759.679,678.558 760.345,677.558 759.5,676C 760.937,673.758 762.937,671.425 765.5,669C 765.167,668.667 764.833,668.333 764.5,668C 766.679,667.558 767.345,666.558 766.5,665C 767.937,662.758 769.937,660.425 772.5,658C 776.244,651.178 779.911,643.845 783.5,636C 783.167,635.667 782.833,635.333 782.5,635C 783.5,634 784.5,633 785.5,632C 785.167,631.667 784.833,631.333 784.5,631C 786.379,628.179 788.046,625.346 789.5,622.5C 789.291,621.914 788.957,621.414 788.5,621C 790.917,619.856 791.584,618.19 790.5,616C 791.939,615.009 792.939,613.676 793.5,612C 793.5,610.667 793.5,609.333 793.5,608C 795.481,607.395 795.815,606.395 794.5,605C 795.044,604.283 795.711,603.783 796.5,603.5C 796.56,604.043 796.893,604.376 797.5,604.5C 799.404,602.484 801.571,600.818 804,599.5C 806.222,601.278 808.388,601.445 810.5,600C 808.007,598.675 806.84,596.509 807,593.5C 806.751,594.624 806.251,595.624 805.5,596.5C 805.167,596.333 804.833,596.167 804.5,596C 805.815,594.605 805.481,593.605 803.5,593C 804.849,592.228 805.682,591.061 806,589.5C 806.419,590.672 807.085,591.672 808,592.5C 808.667,591.167 809.333,591.167 810,592.5C 810.583,590.998 811.416,589.665 812.5,588.5C 813.192,589.025 813.692,589.692 814,590.5C 814.807,586.551 815.307,586.551 815.5,590.5C 816.978,590.238 818.311,590.571 819.5,591.5C 818.494,592.396 818.494,593.062 819.5,593.5C 820.892,592.395 822.059,591.061 823,589.5C 825.051,586.606 824.385,585.939 821,587.5C 820.5,587 820,586.5 819.5,586C 821.75,585.389 823.417,584.056 824.5,582C 823.004,581.493 821.837,581.993 821,583.5C 820.5,582.333 819.667,581.5 818.5,581C 822.089,581.29 823.589,579.79 823,576.5C 821.901,579.044 820.735,579.044 819.5,576.5C 821.045,575.548 822.712,575.215 824.5,575.5C 824.67,574.178 824.337,573.011 823.5,572C 824.784,571.316 825.951,571.483 827,572.5C 827.333,571.833 827.667,571.167 828,570.5C 828.711,572.367 828.211,573.867 826.5,575C 827.126,575.75 827.626,576.584 828,577.5C 829.813,575.239 831.313,572.905 832.5,570.5C 831.448,570.649 830.448,570.483 829.5,570C 830.22,567.878 831.387,567.378 833,568.5C 833.317,566.699 833.984,566.366 835,567.5C 837.93,566.095 838.097,564.262 835.5,562C 837.376,559.817 838.709,557.317 839.5,554.5C 840.192,555.025 840.692,555.692 841,556.5C 841.333,556.167 841.667,555.833 842,555.5C 842.179,559.025 842.679,562.359 843.5,565.5 Z"/></g>
<g><path style="opacity:1" fill="#a62d20" d="M 183.5,583.5 C 184.924,585.515 185.59,587.848 185.5,590.5C 184.076,588.485 183.41,586.152 183.5,583.5 Z"/></g>
<g><path style="opacity:1" fill="#0b1118" d="M 422.5,603.5 C 430.904,613.23 438.904,623.23 446.5,633.5C 431.781,617.781 417.781,601.447 404.5,584.5C 405.189,583.226 406.023,583.226 407,584.5C 412.031,591.022 417.197,597.356 422.5,603.5 Z"/></g>
<g><path style="opacity:1" fill="#d73122" d="M 200.5,637.5 C 202.449,641.064 204.949,644.398 208,647.5C 208.355,650.982 209.855,653.815 212.5,656C 212.043,656.414 211.709,656.914 211.5,657.5C 213.757,660.474 215.257,663.808 216,667.5C 218.644,670.205 220.811,672.705 222.5,675C 221.892,678.453 223.225,681.119 226.5,683C 225.402,683.77 225.402,684.603 226.5,685.5C 224.926,685.063 223.759,684.063 223,682.5C 214.434,668.036 206.934,653.036 200.5,637.5 Z"/></g>
<g><path style="opacity:1" fill="#cf2e1d" d="M 275.5,694.5 C 283.355,704.169 291.688,713.502 300.5,722.5C 290.111,714.984 281.778,705.651 275.5,694.5 Z"/></g>
<g><path style="opacity:1" fill="#a63625" d="M 733.5,711.5 C 732.243,714.427 730.243,716.761 727.5,718.5C 728.438,715.843 730.438,713.51 733.5,711.5 Z"/></g>
<g><path style="opacity:1" fill="#f54234" d="M 215.5,547.5 C 215.5,544.833 215.5,542.167 215.5,539.5C 220.959,596.891 240.959,648.558 275.5,694.5C 281.778,705.651 290.111,714.984 300.5,722.5C 317.906,739.409 336.906,754.243 357.5,767C 395.285,786.428 434.952,799.928 476.5,807.5C 474.143,807.337 471.81,807.503 469.5,808C 473.081,809.001 476.581,810.167 480,811.5C 482.075,810.866 484.241,810.532 486.5,810.5C 489.58,810.32 492.413,810.986 495,812.5C 512.453,811.532 529.953,810.365 547.5,809C 544.854,808.503 542.187,808.336 539.5,808.5C 548.78,807.285 558.114,805.618 567.5,803.5C 569.398,804.734 571.065,804.401 572.5,802.5C 573.086,802.709 573.586,803.043 574,803.5C 577.412,801.56 581.079,800.227 585,799.5C 586.147,800.458 587.147,800.125 588,798.5C 589.587,799.727 590.921,799.394 592,797.5C 592.671,798.252 593.504,798.586 594.5,798.5C 596.564,799.305 598.564,799.638 600.5,799.5C 600.192,800.308 599.692,800.975 599,801.5C 597.927,800.72 596.76,800.887 595.5,802C 595.833,802.333 596.167,802.667 596.5,803C 595,803.833 593.833,805 593,806.5C 591.846,805.257 590.512,804.257 589,803.5C 587.05,805.029 584.883,806.196 582.5,807C 583.956,807.423 584.456,808.256 584,809.5C 582.333,808.167 580.667,808.167 579,809.5C 578.333,808.833 577.667,808.167 577,807.5C 576.612,809.076 577.112,810.409 578.5,811.5C 580.098,810.515 581.765,810.349 583.5,811C 581.016,812.498 578.516,813.998 576,815.5C 573.816,816.108 571.816,815.441 570,813.5C 568.347,813.82 567.347,814.82 567,816.5C 565.667,814.833 564.333,813.167 563,811.5C 562.626,812.416 562.126,813.25 561.5,814C 562.956,814.423 563.456,815.256 563,816.5C 562.667,816.167 562.333,815.833 562,815.5C 561.535,816.931 560.701,818.097 559.5,819C 557.446,818.417 555.446,818.917 553.5,820.5C 554.688,820.307 556.022,820.807 557.5,822C 557.167,822.333 556.833,822.667 556.5,823C 558.061,823.941 559.395,825.108 560.5,826.5C 559.975,827.192 559.308,827.692 558.5,828C 560.891,829.309 560.891,830.309 558.5,831C 560.329,831.273 561.829,832.107 563,833.5C 563.694,832.182 564.527,831.349 565.5,831C 564.67,829.535 564.504,828.035 565,826.5C 565.333,826.833 565.667,827.167 566,827.5C 566.401,825.479 567.568,824.145 569.5,823.5C 571.278,823.569 573.111,823.903 575,824.5C 575.915,823.672 576.581,822.672 577,821.5C 577.465,822.931 578.299,824.097 579.5,825C 578.833,825.333 578.167,825.667 577.5,826C 578.618,827.074 579.618,828.24 580.5,829.5C 582.446,831.087 583.946,830.754 585,828.5C 588.427,830.833 587.927,832 583.5,832C 586.072,832.432 587.406,833.932 587.5,836.5C 577.163,839.337 566.83,841.67 556.5,843.5C 550.51,844.242 544.51,844.409 538.5,844C 537.366,842.984 537.699,842.317 539.5,842C 538.5,841.5 537.5,841 536.5,840.5C 535.398,842.889 533.731,844.723 531.5,846C 518.504,846.5 505.504,846.667 492.5,846.5C 485.183,845.669 477.849,845.002 470.5,844.5C 364.432,829.179 282.766,776.679 225.5,687C 226.056,686.617 226.389,686.117 226.5,685.5C 225.402,684.603 225.402,683.77 226.5,683C 223.225,681.119 221.892,678.453 222.5,675C 220.811,672.705 218.644,670.205 216,667.5C 215.257,663.808 213.757,660.474 211.5,657.5C 211.709,656.914 212.043,656.414 212.5,656C 209.855,653.815 208.355,650.982 208,647.5C 204.949,644.398 202.449,641.064 200.5,637.5C 193.857,622.885 188.857,607.219 185.5,590.5C 185.59,587.848 184.924,585.515 183.5,583.5C 180.679,573.388 179.012,563.054 178.5,552.5C 178.497,547.473 178.164,542.473 177.5,537.5C 176.299,533.292 175.633,528.959 175.5,524.5C 176.718,514.989 176.718,505.489 175.5,496C 177.39,490.69 177.723,485.357 176.5,480C 178.984,467.479 181.151,454.312 183,440.5C 183.306,438.094 184.139,435.927 185.5,434C 184.102,432.351 184.436,431.018 186.5,430C 186.5,428.333 186.5,426.667 186.5,425C 188.394,423.921 188.727,422.587 187.5,421C 188.671,418.489 190.005,415.656 191.5,412.5C 194.773,399.001 199.773,385.001 206.5,370.5C 207.025,369.808 207.692,369.308 208.5,369C 208.167,368.667 207.833,368.333 207.5,368C 209.206,365.074 210.873,362.741 212.5,361C 212.167,360.667 211.833,360.333 211.5,360C 213.721,356.729 215.721,353.895 217.5,351.5C 218.222,351.082 218.722,350.416 219,349.5C 219.333,350.167 219.667,350.833 220,351.5C 221,351.167 222,350.833 223,350.5C 222.892,354.03 224.726,356.53 228.5,358C 226.5,359 224.5,360 222.5,361C 223.866,362.6 224.866,364.433 225.5,366.5C 226.167,366.167 226.833,365.833 227.5,365.5C 228.893,366.863 230.559,367.696 232.5,368C 231.667,368.833 230.833,369.667 230,370.5C 227.91,369.848 225.743,369.681 223.5,370C 223.5,368.333 223.5,366.667 223.5,365C 220.714,362.742 220.048,363.242 221.5,366.5C 220.833,367.5 220.167,368.5 219.5,369.5C 221.304,370.768 223.304,371.435 225.5,371.5C 225.649,372.552 225.483,373.552 225,374.5C 223.984,373.366 223.317,373.699 223,375.5C 220.323,373.934 218.99,374.6 219,377.5C 221.173,374.723 221.673,374.89 220.5,378C 221.793,378.49 223.127,378.657 224.5,378.5C 224.881,380.942 224.214,381.609 222.5,380.5C 220.833,381.833 219.167,383.167 217.5,384.5C 216.914,384.291 216.414,383.957 216,383.5C 214.933,384.943 213.766,386.276 212.5,387.5C 212.667,387.833 212.833,388.167 213,388.5C 214.133,386.789 215.633,386.289 217.5,387C 216.672,387.915 215.672,388.581 214.5,389C 217.376,388.743 220.043,389.743 222.5,392C 221.328,392.353 220.162,392.187 219,391.5C 217.989,391.892 217.489,392.559 217.5,393.5C 214.671,393.047 212.171,394.047 210,396.5C 208.989,395.663 207.822,395.33 206.5,395.5C 205.023,398.501 204.023,401.501 203.5,404.5C 201.786,405.609 201.119,404.942 201.5,402.5C 200.178,402.33 199.011,402.663 198,403.5C 197.751,402.376 197.251,401.376 196.5,400.5C 195.544,401.865 194.878,403.365 194.5,405C 194.851,410.236 196.351,410.736 199,406.5C 199.75,407.126 200.584,407.626 201.5,408C 200.044,408.423 199.544,409.256 200,410.5C 203.997,409.421 204.164,410.588 200.5,414C 201.167,414.667 201.833,415.333 202.5,416C 200.754,416.471 199.087,417.138 197.5,418C 198.641,418.741 198.641,419.575 197.5,420.5C 198.967,420.723 200.467,421.056 202,421.5C 202.085,423.085 202.251,424.418 202.5,425.5C 203.251,424.624 203.751,423.624 204,422.5C 205.717,423.988 206.884,425.821 207.5,428C 206.366,429.016 206.699,429.683 208.5,430C 207.069,430.465 205.903,431.299 205,432.5C 204.308,431.975 203.808,431.308 203.5,430.5C 206.131,428.995 205.797,428.329 202.5,428.5C 202.372,430.655 202.872,432.655 204,434.5C 206.167,433 207.667,433.5 208.5,436C 206.562,438.654 203.896,439.987 200.5,440C 200.833,440.333 201.167,440.667 201.5,441C 199,441.833 198.833,443 201,444.5C 202.036,442.433 203.536,441.266 205.5,441C 204.289,442.113 204.289,443.28 205.5,444.5C 203.401,446.151 202.067,448.318 201.5,451C 201.196,454.787 202.863,457.787 206.5,460C 202.832,460.463 201.498,462.297 202.5,465.5C 200.135,466.085 198.135,467.252 196.5,469C 197.5,469.333 198.5,469.667 199.5,470C 198.333,471.167 197.167,472.333 196,473.5C 195.667,472.833 195.333,472.167 195,471.5C 192.152,473.022 191.819,475.022 194,477.5C 196.035,475.088 197.035,475.755 197,479.5C 198.388,478.446 199.888,478.28 201.5,479C 198.676,479.442 196.509,481.275 195,484.5C 193.383,483.359 191.55,482.526 189.5,482C 190.167,481.667 190.833,481.333 191.5,481C 190.437,479.812 189.103,479.312 187.5,479.5C 187.491,481.308 187.991,482.975 189,484.5C 190.364,483.742 191.531,484.242 192.5,486C 190.236,487.258 187.902,488.425 185.5,489.5C 185.709,490.086 186.043,490.586 186.5,491C 185.359,492.617 184.526,494.45 184,496.5C 183.333,495.833 182.667,495.167 182,494.5C 182.633,496.338 182.466,498.171 181.5,500C 182.424,501.811 183.257,501.645 184,499.5C 184.445,501.594 183.612,503.094 181.5,504C 182,504.5 182.5,505 183,505.5C 184.455,503.395 185.955,501.395 187.5,499.5C 188.251,500.376 188.751,501.376 189,502.5C 189.333,502.167 189.667,501.833 190,501.5C 193.054,503.123 192.554,503.79 188.5,503.5C 188.393,506.48 187.56,508.146 186,508.5C 186.333,508.833 186.667,509.167 187,509.5C 188.085,508.707 189.252,508.04 190.5,507.5C 193.503,508.608 194.003,510.275 192,512.5C 191.632,511.09 190.799,510.09 189.5,509.5C 187.529,511.04 185.362,512.374 183,513.5C 182.333,514.167 182.333,514.833 183,515.5C 183.654,514.304 184.154,514.304 184.5,515.5C 183.189,516.258 182.689,517.258 183,518.5C 185.291,517.689 187.125,518.523 188.5,521C 186.892,521.658 185.725,521.158 185,519.5C 183.115,520.313 182.449,521.647 183,523.5C 184.183,522.269 185.349,522.269 186.5,523.5C 185.975,524.192 185.308,524.692 184.5,525C 185.126,525.75 185.626,526.584 186,527.5C 188.409,524.833 189.576,524.999 189.5,528C 187.009,528.626 187.009,529.459 189.5,530.5C 187.009,531.541 187.009,532.374 189.5,533C 188.5,534 187.5,535 186.5,536C 187.448,536.483 188.448,536.649 189.5,536.5C 189.703,538.39 189.037,539.89 187.5,541C 192.833,542.333 192.833,543.667 187.5,545C 188.227,546.399 188.727,547.899 189,549.5C 189.333,549.167 189.667,548.833 190,548.5C 193.267,550.753 196.434,552.419 199.5,553.5C 201.185,551.983 202.685,550.316 204,548.5C 205.499,548.935 206.999,550.101 208.5,552C 208.389,553.722 207.889,553.888 207,552.5C 206.517,553.448 206.351,554.448 206.5,555.5C 208.869,555.149 211.203,554.982 213.5,555C 212.572,555.388 211.905,556.055 211.5,557C 211.892,558.011 212.559,558.511 213.5,558.5C 212.391,560.214 213.058,560.881 215.5,560.5C 215.5,556.167 215.5,551.833 215.5,547.5 Z"/></g>
<g><path style="opacity:1" fill="#bc2b1a" d="M 623.5,787.5 C 622.251,789.136 620.584,790.303 618.5,791C 614.16,792.282 609.827,793.449 605.5,794.5C 611.267,791.796 617.267,789.462 623.5,787.5 Z"/></g>
<g><path style="opacity:1" fill="#e23825" d="M 476.5,807.5 C 497.472,809.619 518.472,809.952 539.5,808.5C 542.187,808.336 544.854,808.503 547.5,809C 529.953,810.365 512.453,811.532 495,812.5C 492.413,810.986 489.58,810.32 486.5,810.5C 484.241,810.532 482.075,810.866 480,811.5C 476.581,810.167 473.081,809.001 469.5,808C 471.81,807.503 474.143,807.337 476.5,807.5 Z"/></g>
<g><path style="opacity:1" fill="#d93422" d="M 618.5,829.5 C 598.5,836.771 577.833,841.771 556.5,844.5C 556.5,844.167 556.5,843.833 556.5,843.5C 566.83,841.67 577.163,839.337 587.5,836.5C 590.839,836.11 594.173,835.61 597.5,835C 600.58,834.215 602.747,832.381 604,829.5C 605.126,830.944 606.626,831.61 608.5,831.5C 611.705,830.233 615.038,829.566 618.5,829.5 Z"/></g>
<g><path style="opacity:1" fill="#dc3927" d="M 556.5,843.5 C 556.5,843.833 556.5,844.167 556.5,844.5C 535.335,848.295 514.001,849.295 492.5,847.5C 492.5,847.167 492.5,846.833 492.5,846.5C 505.504,846.667 518.504,846.5 531.5,846C 533.731,844.723 535.398,842.889 536.5,840.5C 537.5,841 538.5,841.5 539.5,842C 537.699,842.317 537.366,842.984 538.5,844C 544.51,844.409 550.51,844.242 556.5,843.5 Z"/></g>
<g><path style="opacity:1" fill="#c0261b" d="M 470.5,844.5 C 477.849,845.002 485.183,845.669 492.5,846.5C 492.5,846.833 492.5,847.167 492.5,847.5C 484.923,847.304 477.589,846.304 470.5,844.5 Z"/></g>
</svg>
