<?xml version="1.0" encoding="UTF-8"?>
<!DOCTYPE svg PUBLIC "-//W3C//DTD SVG 1.1//EN" "http://www.w3.org/Graphics/SVG/1.1/DTD/svg11.dtd">
<svg xmlns="http://www.w3.org/2000/svg" version="1.1" width="1024px" height="1024px" style="shape-rendering:geometricPrecision; text-rendering:geometricPrecision; image-rendering:optimizeQuality; fill-rule:evenodd; clip-rule:evenodd" xmlns:xlink="http://www.w3.org/1999/xlink">
<g><path style="opacity:1" fill="#f74a3b" d="M 816.5,553.5 C 815.167,566.833 815.167,580.167 816.5,593.5C 807.193,698.975 761.193,784.142 678.5,849C 593.792,905.756 503.125,917.422 406.5,884C 350.381,862.533 303.214,828.7 265,782.5C 219.377,721.022 201.043,652.022 210,575.5C 218.225,517.784 240.225,466.117 276,420.5C 293.055,397.776 312.555,377.276 334.5,359C 359.167,340.333 383.833,321.667 408.5,303C 448.364,268.059 472.531,224.226 481,171.5C 481.905,157.481 482.905,143.481 484,129.5C 490.183,116.326 500.016,112.493 513.5,118C 555.923,147.072 594.757,180.572 630,218.5C 655.165,246.821 672.498,279.488 682,316.5C 686.481,341.018 687.481,365.685 685,390.5C 682.422,408.97 679.088,427.303 675,445.5C 674.331,450.513 673.997,455.513 674,460.5C 679.224,460.915 684.391,460.081 689.5,458C 708.502,449.589 725.335,438.089 740,423.5C 745.291,415.752 750.458,407.919 755.5,400C 765.135,394.14 773.301,395.64 780,404.5C 797.019,438.224 808.019,473.891 813,511.5C 815.22,525.416 816.386,539.416 816.5,553.5 Z M 514.5,160.5 C 545.461,181.602 573.961,205.936 600,233.5C 617.508,253.163 631.508,275.163 642,299.5C 653.281,330.033 656.281,361.366 651,393.5C 647.794,411.197 644.46,428.864 641,446.5C 640.333,453.833 640.333,461.167 641,468.5C 643.439,482.57 651.605,491.07 665.5,494C 679.425,495.149 692.758,492.816 705.5,487C 727.142,477.503 746.476,464.669 763.5,448.5C 787.921,516.807 791.087,586.14 773,656.5C 750.308,735.113 704.141,795.613 634.5,838C 564.898,874.781 492.898,880.115 418.5,854C 363.455,832.745 318.288,798.578 283,751.5C 248.026,698.653 234.693,640.653 243,577.5C 254.167,508.658 284.667,450.158 334.5,402C 343.833,394 353.167,386 362.5,378C 384.859,361.819 406.859,345.152 428.5,328C 479.513,283.811 508.179,227.978 514.5,160.5 Z"/></g>
<g><path style="opacity:1" fill="#fefefe" d="M 505.5,415.5 C 518.144,413.558 526.311,418.558 530,430.5C 530.5,481.499 530.667,532.499 530.5,583.5C 580.501,583.333 630.501,583.5 680.5,584C 694.521,590.392 698.021,600.558 691,614.5C 688.441,617.531 685.274,619.698 681.5,621C 631.168,621.5 580.834,621.667 530.5,621.5C 530.667,671.501 530.5,721.501 530,771.5C 527.233,780.64 521.066,785.64 511.5,786.5C 501.934,785.64 495.767,780.64 493,771.5C 492.5,721.501 492.333,671.501 492.5,621.5C 442.166,621.667 391.832,621.5 341.5,621C 330.352,616.54 326.186,608.374 329,596.5C 331.263,589.903 335.763,585.736 342.5,584C 392.499,583.5 442.499,583.333 492.5,583.5C 492.333,532.166 492.5,480.832 493,429.5C 494.926,422.745 499.093,418.078 505.5,415.5 Z"/></g>
<g><path style="opacity:1" fill="#fb4d3a" d="M 816.5,553.5 C 817.782,566.837 817.782,580.171 816.5,593.5C 815.167,580.167 815.167,566.833 816.5,553.5 Z"/></g>
</svg>
