<?xml version="1.0" encoding="UTF-8"?>
<!DOCTYPE svg PUBLIC "-//W3C//DTD SVG 1.1//EN" "http://www.w3.org/Graphics/SVG/1.1/DTD/svg11.dtd">
<svg xmlns="http://www.w3.org/2000/svg" version="1.1" width="2048px" height="2048px" style="shape-rendering:geometricPrecision; text-rendering:geometricPrecision; image-rendering:optimizeQuality; fill-rule:evenodd; clip-rule:evenodd" xmlns:xlink="http://www.w3.org/1999/xlink">
<g><path style="opacity:1" fill="#fefefd" d="M 857.5,704.5 C 857.423,705.75 856.756,706.583 855.5,707C 856.833,708.333 856.833,709.667 855.5,711C 857.449,713.267 859.782,714.934 862.5,716C 863.191,717.067 863.691,718.234 864,719.5C 868.001,718.531 871.835,719.197 875.5,721.5C 877.178,720.094 878.844,718.761 880.5,717.5C 930.127,749.196 958.127,794.53 964.5,853.5C 963.226,878.279 950.226,892.446 925.5,896C 908.281,899.045 890.948,900.045 873.5,899C 857.8,894.968 847.634,885.135 843,869.5C 841.383,863.914 840.216,858.247 839.5,852.5C 839.709,851.078 840.209,849.745 841,848.5C 842.28,852.96 843.446,853.46 844.5,850C 845.938,849.781 847.271,849.281 848.5,848.5C 847.5,847.167 846.5,845.833 845.5,844.5C 847.184,843.146 847.684,841.479 847,839.5C 846.361,842.228 845.194,842.728 843.5,841C 844.167,840.667 844.833,840.333 845.5,840C 844.167,838.667 842.833,837.333 841.5,836C 842.28,834.927 842.113,833.76 841,832.5C 839.254,834.457 837.088,835.457 834.5,835.5C 820.464,793.868 791.297,773.201 747,773.5C 711.571,772.625 682.571,785.625 660,812.5C 642.633,839.219 638.633,867.885 648,898.5C 656.133,919.3 669.966,935.134 689.5,946C 705.855,954.563 722.855,961.563 740.5,967C 768.21,974.177 795.877,981.511 823.5,989C 861.569,998.869 895.903,1015.87 926.5,1040C 960.721,1071.95 979.221,1111.45 982,1158.5C 986.846,1211.26 973.846,1258.93 943,1301.5C 912.691,1337.59 874.524,1361.42 828.5,1373C 814.938,1376.41 801.271,1379.25 787.5,1381.5C 786.667,1398.49 786.167,1415.49 786,1432.5C 784.482,1444.06 778.315,1451.89 767.5,1456C 752.5,1456.67 737.5,1456.67 722.5,1456C 719.761,1454.97 717.428,1453.47 715.5,1451.5C 717.169,1450.34 719.003,1450.34 721,1451.5C 722.274,1450.46 723.44,1449.3 724.5,1448C 722.699,1447.68 722.366,1447.02 723.5,1446C 722.12,1444.07 720.62,1442.24 719,1440.5C 718.667,1441.17 718.333,1441.83 718,1442.5C 716.595,1440.89 714.928,1439.56 713,1438.5C 711.301,1439.7 709.801,1441.04 708.5,1442.5C 706.469,1439.58 705.302,1436.25 705,1432.5C 704.833,1415.49 704.333,1398.49 703.5,1381.5C 664.904,1377.13 628.571,1365.63 594.5,1347C 543.374,1317.28 513.208,1273.11 504,1214.5C 501.932,1200.83 503.932,1187.83 510,1175.5C 512,1172.33 514.5,1169.67 517.5,1167.5C 518.91,1169.46 519.577,1171.46 519.5,1173.5C 520.852,1172.48 521.852,1171.15 522.5,1169.5C 523.592,1170.83 524.926,1171.66 526.5,1172C 523.879,1172.91 524.046,1173.41 527,1173.5C 529.228,1172.64 531.395,1171.64 533.5,1170.5C 532.975,1169.81 532.308,1169.31 531.5,1169C 532.308,1168.69 532.975,1168.19 533.5,1167.5C 532.855,1166.27 532.689,1164.93 533,1163.5C 531.372,1162.9 529.705,1163.24 528,1164.5C 527.005,1163.93 526.172,1163.27 525.5,1162.5C 532.196,1158.48 539.529,1155.98 547.5,1155C 564.133,1152.22 580.799,1151.89 597.5,1154C 610.013,1157.18 618.846,1164.68 624,1176.5C 628.337,1189.51 632.67,1202.51 637,1215.5C 646.788,1242.12 663.954,1262.45 688.5,1276.5C 687.671,1279.88 687.338,1283.21 687.5,1286.5C 688.376,1287.25 689.376,1287.75 690.5,1288C 689.346,1288.91 689.513,1289.75 691,1290.5C 691.333,1289.83 691.667,1289.17 692,1288.5C 693.667,1289.5 695.333,1290.5 697,1291.5C 697.79,1289.21 699.124,1288.88 701,1290.5C 705.121,1289.66 705.288,1288 701.5,1285.5C 701.833,1285.17 702.167,1284.83 702.5,1284.5C 704.167,1285.83 705.833,1287.17 707.5,1288.5C 709.075,1287.54 710.742,1286.88 712.5,1286.5C 750.657,1295.73 786.657,1290.57 820.5,1271C 828.633,1265.03 835.966,1258.2 842.5,1250.5C 843.79,1251.06 844.623,1252.06 845,1253.5C 848.11,1252.33 848.277,1252.83 845.5,1255C 847.409,1255.45 848.576,1254.61 849,1252.5C 849.414,1252.96 849.914,1253.29 850.5,1253.5C 851.337,1251.16 852.671,1249.16 854.5,1247.5C 855.614,1246.28 855.781,1244.94 855,1243.5C 853.951,1244.52 852.784,1244.68 851.5,1244C 852.578,1243.33 853.245,1242.33 853.5,1241C 852.926,1239.39 852.26,1237.89 851.5,1236.5C 864.505,1205.61 863.338,1175.28 848,1145.5C 835.632,1129.15 819.798,1117.31 800.5,1110C 759.558,1097.18 718.558,1084.51 677.5,1072C 641.039,1059.94 608.039,1041.94 578.5,1018C 563.596,1004.95 551.596,989.785 542.5,972.5C 544.385,972.118 545.885,970.785 547,968.5C 547.863,966.251 547.363,964.418 545.5,963C 548,962.167 548.167,961 546,959.5C 545.586,959.957 545.086,960.291 544.5,960.5C 543.784,959.689 542.95,959.022 542,958.5C 538.342,959.913 536.176,958.58 535.5,954.5C 536.166,953.169 536.166,951.669 535.5,950C 537.681,946.178 536.348,945.011 531.5,946.5C 523.763,925.319 520.097,903.319 520.5,880.5C 520.592,862.19 522.925,844.19 527.5,826.5C 529.179,826.892 530.846,827.392 532.5,828C 531.5,828.333 530.5,828.667 529.5,829C 533.027,829.86 535.193,832.027 536,835.5C 536.5,835 537,834.5 537.5,834C 537.092,828.501 537.092,822.835 537.5,817C 540.693,815.974 542.026,813.808 541.5,810.5C 542.978,810.762 544.311,810.429 545.5,809.5C 544.36,806.594 544.36,803.761 545.5,801C 543.557,797.668 542.39,797.834 542,801.5C 541.5,801 541,800.5 540.5,800C 541.833,799.333 541.833,798.667 540.5,798C 541.167,797.667 541.833,797.333 542.5,797C 540.937,796.241 539.937,795.074 539.5,793.5C 544.326,781.834 550.659,771.168 558.5,761.5C 560.39,761.297 561.89,761.963 563,763.5C 564.268,763.384 565.602,763.051 567,762.5C 566.383,764.095 566.716,765.428 568,766.5C 569.352,764.406 569.852,762.073 569.5,759.5C 576.351,757.795 582.018,754.295 586.5,749C 585.676,745.881 584.343,742.714 582.5,739.5C 581.209,739.737 580.209,739.404 579.5,738.5C 590.402,728.376 602.402,719.709 615.5,712.5C 615.892,714.179 616.392,715.846 617,717.5C 617.333,717.167 617.667,716.833 618,716.5C 618.667,717.833 619.667,718.833 621,719.5C 622.333,718.167 623.667,718.167 625,719.5C 625.561,717.275 626.561,715.275 628,713.5C 631.881,717.067 635.048,717.233 637.5,714C 635.487,713.125 635.487,711.791 637.5,710C 640.544,709.641 640.878,708.974 638.5,708C 640.134,707.506 641.801,707.34 643.5,707.5C 643.33,706.178 643.663,705.011 644.5,704C 643.5,703.667 642.5,703.333 641.5,703C 642.171,702.014 642.171,700.847 641.5,699.5C 662.018,691.412 683.184,685.746 705,682.5C 705.193,664.457 705.693,646.457 706.5,628.5C 707.458,628.047 708.292,627.381 709,626.5C 709.034,628.18 709.201,629.68 709.5,631C 711.403,632.828 713.236,632.661 715,630.5C 715.219,631.938 715.719,633.271 716.5,634.5C 716.833,634.333 717.167,634.167 717.5,634C 716.288,631.719 716.455,629.219 718,626.5C 718.333,626.833 718.667,627.167 719,627.5C 719.167,626.333 719.333,625.167 719.5,624C 718.927,621.994 718.927,620.16 719.5,618.5C 717.009,617.459 717.009,616.626 719.5,616C 717.942,615.79 716.609,615.29 715.5,614.5C 717.89,611.972 720.89,610.472 724.5,610C 738.833,609.333 753.167,609.333 767.5,610C 777.581,613.751 783.748,620.918 786,631.5C 786.5,648.83 786.667,666.163 786.5,683.5C 810.981,687.869 834.648,694.869 857.5,704.5 Z"/></g>
<g><path style="opacity:1" fill="#fbfcf6" d="M 715.5,614.5 C 716.609,615.29 717.942,615.79 719.5,616C 717.009,616.626 717.009,617.459 719.5,618.5C 718.927,620.16 718.927,621.994 719.5,624C 719.333,625.167 719.167,626.333 719,627.5C 718.667,627.167 718.333,626.833 718,626.5C 716.455,629.219 716.288,631.719 717.5,634C 717.167,634.167 716.833,634.333 716.5,634.5C 715.719,633.271 715.219,631.938 715,630.5C 713.236,632.661 711.403,632.828 709.5,631C 709.201,629.68 709.034,628.18 709,626.5C 708.292,627.381 707.458,628.047 706.5,628.5C 708.008,622.805 711.008,618.138 715.5,614.5 Z"/></g>
<g><path style="opacity:1" fill="#fbfcf7" d="M 641.5,699.5 C 642.171,700.847 642.171,702.014 641.5,703C 642.5,703.333 643.5,703.667 644.5,704C 643.663,705.011 643.33,706.178 643.5,707.5C 641.801,707.34 640.134,707.506 638.5,708C 640.878,708.974 640.544,709.641 637.5,710C 635.487,711.791 635.487,713.125 637.5,714C 635.048,717.233 631.881,717.067 628,713.5C 626.561,715.275 625.561,717.275 625,719.5C 623.667,718.167 622.333,718.167 621,719.5C 619.667,718.833 618.667,717.833 618,716.5C 617.667,716.833 617.333,717.167 617,717.5C 616.392,715.846 615.892,714.179 615.5,712.5C 623.854,707.657 632.52,703.323 641.5,699.5 Z"/></g>
<g><path style="opacity:1" fill="#faf9f6" d="M 857.5,704.5 C 865.445,708.469 873.112,712.802 880.5,717.5C 878.844,718.761 877.178,720.094 875.5,721.5C 871.835,719.197 868.001,718.531 864,719.5C 863.691,718.234 863.191,717.067 862.5,716C 859.782,714.934 857.449,713.267 855.5,711C 856.833,709.667 856.833,708.333 855.5,707C 856.756,706.583 857.423,705.75 857.5,704.5 Z"/></g>
<g><path style="opacity:1" fill="#fdfdfd" d="M 1436.5,727.5 C 1446.48,726.203 1455.82,728.036 1464.5,733C 1494.5,753.333 1524.5,773.667 1554.5,794C 1568.29,806.706 1572.79,822.206 1568,840.5C 1566.19,845.446 1563.86,850.112 1561,854.5C 1549.83,870.333 1538.67,886.167 1527.5,902C 1526.09,902.315 1524.76,901.982 1523.5,901C 1472.82,866.994 1422.49,832.494 1372.5,797.5C 1378.53,788.482 1384.53,779.482 1390.5,770.5C 1393.47,771.17 1396.31,772.837 1399,775.5C 1400.05,773.893 1401.55,773.227 1403.5,773.5C 1404.41,769.263 1405.41,764.93 1406.5,760.5C 1404,758.445 1402.67,756.111 1402.5,753.5C 1405.98,746.873 1410.65,741.207 1416.5,736.5C 1417.87,736.343 1419.21,736.51 1420.5,737C 1419.3,737.654 1419.3,738.154 1420.5,738.5C 1421.54,736.009 1422.37,736.009 1423,738.5C 1423.41,738.043 1423.91,737.709 1424.5,737.5C 1426.67,740.081 1428.84,740.081 1431,737.5C 1431.33,737.833 1431.67,738.167 1432,738.5C 1432.96,737.421 1433.79,736.255 1434.5,735C 1439.72,735.793 1440.38,734.459 1436.5,731C 1437.17,730.014 1437.17,728.847 1436.5,727.5 Z"/></g>
<g><path style="opacity:1" fill="#f9f9f6" d="M 1436.5,727.5 C 1437.17,728.847 1437.17,730.014 1436.5,731C 1440.38,734.459 1439.72,735.793 1434.5,735C 1433.79,736.255 1432.96,737.421 1432,738.5C 1431.67,738.167 1431.33,737.833 1431,737.5C 1428.84,740.081 1426.67,740.081 1424.5,737.5C 1423.91,737.709 1423.41,738.043 1423,738.5C 1422.37,736.009 1421.54,736.009 1420.5,738.5C 1419.3,738.154 1419.3,737.654 1420.5,737C 1419.21,736.51 1417.87,736.343 1416.5,736.5C 1422.11,731.364 1428.78,728.364 1436.5,727.5 Z"/></g>
<g><path style="opacity:1" fill="#fbfcf6" d="M 579.5,738.5 C 580.209,739.404 581.209,739.737 582.5,739.5C 584.343,742.714 585.676,745.881 586.5,749C 582.018,754.295 576.351,757.795 569.5,759.5C 569.852,762.073 569.352,764.406 568,766.5C 566.716,765.428 566.383,764.095 567,762.5C 565.602,763.051 564.268,763.384 563,763.5C 561.89,761.963 560.39,761.297 558.5,761.5C 564.422,752.909 571.422,745.242 579.5,738.5 Z"/></g>
<g><path style="opacity:1" fill="#fbfbf6" d="M 1402.5,753.5 C 1402.67,756.111 1404,758.445 1406.5,760.5C 1405.41,764.93 1404.41,769.263 1403.5,773.5C 1401.55,773.227 1400.05,773.893 1399,775.5C 1396.31,772.837 1393.47,771.17 1390.5,770.5C 1394.53,764.81 1398.53,759.143 1402.5,753.5 Z"/></g>
<g><path style="opacity:1" fill="#fbfaf6" d="M 539.5,793.5 C 539.937,795.074 540.937,796.241 542.5,797C 541.833,797.333 541.167,797.667 540.5,798C 541.833,798.667 541.833,799.333 540.5,800C 541,800.5 541.5,801 542,801.5C 542.39,797.834 543.557,797.668 545.5,801C 544.36,803.761 544.36,806.594 545.5,809.5C 544.311,810.429 542.978,810.762 541.5,810.5C 542.026,813.808 540.693,815.974 537.5,817C 537.092,822.835 537.092,828.501 537.5,834C 537,834.5 536.5,835 536,835.5C 535.193,832.027 533.027,829.86 529.5,829C 530.5,828.667 531.5,828.333 532.5,828C 530.846,827.392 529.179,826.892 527.5,826.5C 530.338,814.977 534.338,803.977 539.5,793.5 Z"/></g>
<g><path style="opacity:1" fill="#fafbf6" d="M 839.5,852.5 C 838.007,846.876 836.34,841.209 834.5,835.5C 837.088,835.457 839.254,834.457 841,832.5C 842.113,833.76 842.28,834.927 841.5,836C 842.833,837.333 844.167,838.667 845.5,840C 844.833,840.333 844.167,840.667 843.5,841C 845.194,842.728 846.361,842.228 847,839.5C 847.684,841.479 847.184,843.146 845.5,844.5C 846.5,845.833 847.5,847.167 848.5,848.5C 847.271,849.281 845.938,849.781 844.5,850C 843.446,853.46 842.28,852.96 841,848.5C 840.209,849.745 839.709,851.078 839.5,852.5 Z"/></g>
<g><path style="opacity:1" fill="#fdfdfc" d="M 1384.5,865.5 C 1381,865.259 1380.67,866.092 1383.5,868C 1382.87,868.75 1382.37,869.584 1382,870.5C 1381.33,869.167 1380.67,869.167 1380,870.5C 1379.5,874.152 1379.33,877.818 1379.5,881.5C 1378.17,881.5 1376.83,881.5 1375.5,881.5C 1375.92,884.079 1375.25,886.246 1373.5,888C 1374.17,889 1374.83,890 1375.5,891C 1378.28,891.37 1380.28,892.37 1381.5,894C 1381.17,894.333 1380.83,894.667 1380.5,895C 1381.89,896.171 1382.73,897.671 1383,899.5C 1384.67,898.66 1384.83,899.16 1383.5,901C 1388.49,902.301 1392.32,900.801 1395,896.5C 1394.59,894.338 1395.09,892.172 1396.5,890C 1395.13,889.598 1393.79,889.098 1392.5,888.5C 1386.56,890.516 1383.89,888.516 1384.5,882.5C 1386.24,881.943 1387.9,881.61 1389.5,881.5C 1390.43,883.113 1391.26,884.779 1392,886.5C 1393.49,885.747 1393.65,884.914 1392.5,884C 1396.74,881.537 1399.57,882.704 1401,887.5C 1403,887.5 1405,887.5 1407,887.5C 1407.9,886.299 1409.07,885.465 1410.5,885C 1409.75,884.329 1409.41,883.496 1409.5,882.5C 1437.78,901.313 1466.11,920.146 1494.5,939C 1496.73,940.61 1498.73,942.443 1500.5,944.5C 1450.64,1018.25 1400.3,1091.58 1349.5,1164.5C 1346.79,1164.63 1344.12,1164.47 1341.5,1164C 1340.77,1162.6 1340.27,1161.1 1340,1159.5C 1338.79,1161.44 1338.63,1163.27 1339.5,1165C 1337.83,1165.33 1336.17,1165.67 1334.5,1166C 1334.83,1166.33 1335.17,1166.67 1335.5,1167C 1333.56,1167.3 1331.89,1168.14 1330.5,1169.5C 1329.91,1169.29 1329.41,1168.96 1329,1168.5C 1327.73,1169.9 1327.23,1171.57 1327.5,1173.5C 1329.1,1173.31 1330.44,1173.81 1331.5,1175C 1329.4,1176.68 1328.07,1178.35 1327.5,1180C 1328.74,1182.45 1330.74,1183.62 1333.5,1183.5C 1334.72,1179.34 1336.56,1176.01 1339,1173.5C 1339.17,1170.67 1340.67,1169.17 1343.5,1169C 1341.11,1168.31 1341.11,1167.31 1343.5,1166C 1345.13,1165.51 1346.8,1165.34 1348.5,1165.5C 1332.66,1189.85 1316.33,1213.85 1299.5,1237.5C 1298.91,1236.85 1298.24,1236.18 1297.5,1235.5C 1298.64,1234.57 1298.64,1233.74 1297.5,1233C 1299.88,1232.03 1299.54,1231.36 1296.5,1231C 1298.82,1229.07 1301.16,1227.23 1303.5,1225.5C 1301,1221.31 1297.83,1220.64 1294,1223.5C 1293.59,1223.04 1293.09,1222.71 1292.5,1222.5C 1292.5,1223.87 1291.83,1225.37 1290.5,1227C 1290.96,1227.41 1291.29,1227.91 1291.5,1228.5C 1289.83,1229.5 1288.5,1230.83 1287.5,1232.5C 1287.59,1234.7 1287.59,1236.87 1287.5,1239C 1286.45,1239.49 1285.45,1239.33 1284.5,1238.5C 1283.3,1238.85 1283.3,1239.35 1284.5,1240C 1282.91,1239.38 1281.57,1239.72 1280.5,1241C 1281.17,1241.33 1281.83,1241.67 1282.5,1242C 1281.11,1244.48 1279.45,1246.82 1277.5,1249C 1278.17,1249.67 1278.83,1250.33 1279.5,1251C 1277.29,1251.39 1275.95,1252.39 1275.5,1254C 1276.7,1254.9 1277.53,1256.07 1278,1257.5C 1279.78,1254.72 1280.78,1255.06 1281,1258.5C 1281.33,1257.5 1281.67,1256.5 1282,1255.5C 1282.33,1255.83 1282.67,1256.17 1283,1256.5C 1285.38,1253.3 1287.88,1250.3 1290.5,1247.5C 1291.17,1245.83 1291.83,1244.17 1292.5,1242.5C 1293.73,1243.36 1295.06,1243.36 1296.5,1242.5C 1282.4,1263.71 1268.07,1284.71 1253.5,1305.5C 1253.78,1302.61 1252.45,1301.11 1249.5,1301C 1250.83,1300.33 1252.17,1299.67 1253.5,1299C 1252.43,1297.75 1252.43,1296.42 1253.5,1295C 1252.24,1292.54 1250.24,1291.37 1247.5,1291.5C 1247.69,1293.1 1247.19,1294.44 1246,1295.5C 1245.68,1293.7 1245.02,1293.37 1244,1294.5C 1243.41,1295.9 1243.57,1297.23 1244.5,1298.5C 1242.73,1299.19 1241.06,1300.02 1239.5,1301C 1240.17,1301.33 1240.83,1301.67 1241.5,1302C 1240.17,1303 1238.83,1304 1237.5,1305C 1240.03,1305.61 1240.87,1307.11 1240,1309.5C 1239.36,1306.77 1238.19,1306.27 1236.5,1308C 1239.45,1310.15 1241.11,1312.65 1241.5,1315.5C 1244.25,1312.34 1246.75,1309 1249,1305.5C 1249.7,1306.69 1250.53,1307.69 1251.5,1308.5C 1245.58,1317.76 1239.25,1326.76 1232.5,1335.5C 1222.97,1341.1 1213.3,1346.43 1203.5,1351.5C 1204.17,1349.98 1205.17,1348.64 1206.5,1347.5C 1205.22,1345.85 1203.55,1344.69 1201.5,1344C 1201.97,1342.7 1201.97,1341.2 1201.5,1339.5C 1199.83,1339.5 1198.17,1339.5 1196.5,1339.5C 1196.37,1342.56 1194.87,1342.89 1192,1340.5C 1191.83,1341 1191.67,1341.5 1191.5,1342C 1193.15,1343.04 1194.48,1344.54 1195.5,1346.5C 1195.33,1347.17 1195.17,1347.83 1195,1348.5C 1194.67,1347.5 1194.33,1346.5 1194,1345.5C 1193.5,1346.67 1192.67,1347.5 1191.5,1348C 1192.23,1349.4 1192.73,1350.9 1193,1352.5C 1193.75,1349.17 1195.25,1349.17 1197.5,1352.5C 1199.07,1351.69 1200.74,1351.36 1202.5,1351.5C 1156.84,1377.25 1110.34,1401.58 1063,1424.5C 1058.08,1423.67 1055.91,1420.67 1056.5,1415.5C 1061.52,1372.02 1066.52,1328.69 1071.5,1285.5C 1071.86,1289.51 1072.36,1293.51 1073,1297.5C 1074.47,1295.21 1075.3,1295.71 1075.5,1299C 1075.17,1299.83 1074.83,1300.67 1074.5,1301.5C 1075.02,1300.24 1074.35,1299.24 1072.5,1298.5C 1071.71,1301.65 1071.04,1304.81 1070.5,1308C 1070.86,1309.22 1071.36,1310.39 1072,1311.5C 1074.45,1311.06 1076.95,1311.56 1079.5,1313C 1078.57,1313.39 1077.91,1314.05 1077.5,1315C 1078.68,1316.9 1080.18,1318.4 1082,1319.5C 1083.01,1317.94 1084.84,1316.6 1087.5,1315.5C 1086.53,1326.75 1085.2,1337.92 1083.5,1349C 1094.75,1358.08 1106.41,1366.58 1118.5,1374.5C 1145.67,1359.41 1173.01,1344.58 1200.5,1330C 1204.22,1328.74 1205.22,1326.41 1203.5,1323C 1168.26,1298.13 1132.76,1273.63 1097,1249.5C 1095.05,1252.14 1094.05,1255.14 1094,1258.5C 1092.61,1271.52 1091.11,1284.52 1089.5,1297.5C 1087.84,1296.17 1086.51,1294.5 1085.5,1292.5C 1082.69,1291.7 1080.19,1291.7 1078,1292.5C 1077.88,1290.89 1078.38,1289.39 1079.5,1288C 1079.39,1286.28 1078.89,1286.11 1078,1287.5C 1078.21,1281.49 1076.04,1280.16 1071.5,1283.5C 1072.87,1264.79 1074.7,1246.13 1077,1227.5C 1082.31,1219.04 1088.14,1211.04 1094.5,1203.5C 1095.15,1205.09 1095.65,1206.75 1096,1208.5C 1097.75,1207.19 1099.25,1207.52 1100.5,1209.5C 1101.7,1209.15 1101.7,1208.65 1100.5,1208C 1101.93,1207.53 1103.1,1206.7 1104,1205.5C 1104.33,1205.83 1104.67,1206.17 1105,1206.5C 1106.05,1204.91 1107.21,1203.41 1108.5,1202C 1108.17,1201.67 1107.83,1201.33 1107.5,1201C 1109.16,1200.27 1109.66,1199.11 1109,1197.5C 1107.94,1196.56 1106.77,1195.56 1105.5,1194.5C 1106.03,1193.81 1106.69,1193.31 1107.5,1193C 1106.58,1192.63 1105.75,1192.13 1105,1191.5C 1103.94,1193.22 1103.11,1195.05 1102.5,1197C 1100.83,1198.67 1098.83,1199.5 1096.5,1199.5C 1114.27,1173.62 1132.27,1147.95 1150.5,1122.5C 1151.09,1123.77 1151.59,1125.1 1152,1126.5C 1153.35,1125.31 1154.52,1123.98 1155.5,1122.5C 1159.05,1122.86 1162.38,1122.86 1165.5,1122.5C 1165.33,1119.15 1165.5,1115.82 1166,1112.5C 1170.72,1109.28 1174.55,1105.28 1177.5,1100.5C 1177.04,1097.49 1175.54,1096.49 1173,1097.5C 1172.67,1095.5 1171.83,1093.83 1170.5,1092.5C 1178.81,1079.54 1187.48,1066.87 1196.5,1054.5C 1198.12,1054.64 1199.29,1053.97 1200,1052.5C 1201.01,1053.34 1202.18,1053.67 1203.5,1053.5C 1203.33,1052.18 1203.66,1051.01 1204.5,1050C 1206.26,1049.8 1207.92,1049.3 1209.5,1048.5C 1212.47,1044.03 1216.47,1041.03 1221.5,1039.5C 1221.5,1038.17 1221.5,1036.83 1221.5,1035.5C 1227.07,1035.47 1229.07,1032.8 1227.5,1027.5C 1228.3,1024.87 1229.97,1023.03 1232.5,1022C 1231.58,1021.63 1230.75,1021.13 1230,1020.5C 1229.67,1017.83 1229.33,1015.17 1229,1012.5C 1228.29,1011.62 1227.46,1010.95 1226.5,1010.5C 1236.34,994.813 1246.67,979.48 1257.5,964.5C 1259.47,965.255 1259.8,966.421 1258.5,968C 1259.62,968.249 1260.62,968.749 1261.5,969.5C 1260.17,970.62 1259.67,971.953 1260,973.5C 1262.27,972.31 1264.77,970.977 1267.5,969.5C 1267.42,966.085 1267.42,963.085 1267.5,960.5C 1268.27,959.289 1269.11,959.289 1270,960.5C 1270.85,958.875 1271.85,958.542 1273,959.5C 1273.64,958.354 1274.48,957.354 1275.5,956.5C 1274.61,955.41 1273.61,955.41 1272.5,956.5C 1271.48,955.998 1271.31,955.332 1272,954.5C 1273.07,953.809 1274.23,953.309 1275.5,953C 1278.18,948.752 1281.35,944.252 1285,939.5C 1285.27,937.899 1285.77,936.399 1286.5,935C 1286.17,934.667 1285.83,934.333 1285.5,934C 1286.43,933.612 1287.09,932.945 1287.5,932C 1286.07,930.244 1284.4,928.744 1282.5,927.5C 1289.14,916.87 1296.14,906.537 1303.5,896.5C 1304.5,896.586 1305.33,896.252 1306,895.5C 1307.84,897.922 1309.01,900.255 1309.5,902.5C 1310.74,901.754 1312.07,901.421 1313.5,901.5C 1313.52,899.857 1312.85,898.524 1311.5,897.5C 1312.85,896.315 1314.02,894.981 1315,893.5C 1315.41,893.957 1315.91,894.291 1316.5,894.5C 1317.33,890.204 1317.83,885.871 1318,881.5C 1318.65,880.304 1319.15,880.304 1319.5,881.5C 1317.98,883.156 1318.31,884.323 1320.5,885C 1319.22,886.297 1319.38,887.464 1321,888.5C 1321.33,887.5 1321.67,886.5 1322,885.5C 1324.57,884.194 1326.91,882.527 1329,880.5C 1329.62,879.551 1329.45,878.718 1328.5,878C 1331.94,875.987 1334.94,873.487 1337.5,870.5C 1334.95,867.241 1332.29,864.074 1329.5,861C 1330.6,860.23 1330.6,859.397 1329.5,858.5C 1334.12,851.216 1339.12,844.216 1344.5,837.5C 1358.15,846.502 1371.48,855.835 1384.5,865.5 Z M 1310.5,1003.5 C 1307.92,1007 1305.58,1010.66 1303.5,1014.5C 1291.27,1031.96 1279.27,1049.62 1267.5,1067.5C 1265.78,1069.22 1264.45,1071.22 1263.5,1073.5C 1224.1,1131.27 1184.44,1188.94 1144.5,1246.5C 1142.81,1247.57 1141.15,1247.4 1139.5,1246C 1133.29,1242.39 1127.63,1238.06 1122.5,1233C 1139.05,1208.05 1155.72,1183.22 1172.5,1158.5C 1178.75,1149.68 1184.75,1140.68 1190.5,1131.5C 1204.65,1111.88 1218.31,1091.88 1231.5,1071.5C 1234.86,1067.47 1237.86,1063.13 1240.5,1058.5C 1259.15,1031.2 1277.82,1003.87 1296.5,976.5C 1296.5,976.167 1296.5,975.833 1296.5,975.5C 1317.6,945.487 1338.6,915.32 1359.5,885C 1366.9,887.962 1373.73,892.129 1380,897.5C 1380.26,900.017 1379.59,902.35 1378,904.5C 1355.67,937.655 1333.17,970.655 1310.5,1003.5 Z M 1431.5,932.5 C 1431.5,933.167 1431.83,933.5 1432.5,933.5C 1438.71,937.203 1444.54,941.536 1450,946.5C 1450.32,947.908 1449.98,949.241 1449,950.5C 1391.82,1034.2 1334.66,1117.86 1277.5,1201.5C 1272.02,1208.45 1267.02,1215.78 1262.5,1223.5C 1245.93,1247.61 1229.1,1271.61 1212,1295.5C 1205.31,1291.32 1198.98,1286.65 1193,1281.5C 1193.09,1278.3 1194.09,1275.3 1196,1272.5C 1272.94,1159.23 1350.28,1046.23 1428,933.5C 1429.01,932.663 1430.18,932.33 1431.5,932.5 Z M 1087.5,1315.5 C 1088.33,1309.52 1089,1303.52 1089.5,1297.5C 1091.11,1284.52 1092.61,1271.52 1094,1258.5C 1094.05,1255.14 1095.05,1252.14 1097,1249.5C 1132.76,1273.63 1168.26,1298.13 1203.5,1323C 1205.22,1326.41 1204.22,1328.74 1200.5,1330C 1173.01,1344.58 1145.67,1359.41 1118.5,1374.5C 1106.41,1366.58 1094.75,1358.08 1083.5,1349C 1085.2,1337.92 1086.53,1326.75 1087.5,1315.5 Z"/></g>
<g><path style="opacity:1" fill="#fbfbf6" d="M 1329.5,858.5 C 1330.6,859.397 1330.6,860.23 1329.5,861C 1332.29,864.074 1334.95,867.241 1337.5,870.5C 1334.94,873.487 1331.94,875.987 1328.5,878C 1329.45,878.718 1329.62,879.551 1329,880.5C 1326.91,882.527 1324.57,884.194 1322,885.5C 1321.67,886.5 1321.33,887.5 1321,888.5C 1319.38,887.464 1319.22,886.297 1320.5,885C 1318.31,884.323 1317.98,883.156 1319.5,881.5C 1319.15,880.304 1318.65,880.304 1318,881.5C 1317.83,885.871 1317.33,890.204 1316.5,894.5C 1315.91,894.291 1315.41,893.957 1315,893.5C 1314.02,894.981 1312.85,896.315 1311.5,897.5C 1312.85,898.524 1313.52,899.857 1313.5,901.5C 1312.07,901.421 1310.74,901.754 1309.5,902.5C 1309.01,900.255 1307.84,897.922 1306,895.5C 1305.33,896.252 1304.5,896.586 1303.5,896.5C 1311.81,883.536 1320.48,870.869 1329.5,858.5 Z"/></g>
<g><path style="opacity:1" fill="#fcfcf7" d="M 1384.5,865.5 C 1393.36,870.428 1401.69,876.094 1409.5,882.5C 1409.41,883.496 1409.75,884.329 1410.5,885C 1409.07,885.465 1407.9,886.299 1407,887.5C 1405,887.5 1403,887.5 1401,887.5C 1399.57,882.704 1396.74,881.537 1392.5,884C 1393.65,884.914 1393.49,885.747 1392,886.5C 1391.26,884.779 1390.43,883.113 1389.5,881.5C 1387.9,881.61 1386.24,881.943 1384.5,882.5C 1383.89,888.516 1386.56,890.516 1392.5,888.5C 1393.79,889.098 1395.13,889.598 1396.5,890C 1395.09,892.172 1394.59,894.338 1395,896.5C 1392.32,900.801 1388.49,902.301 1383.5,901C 1384.83,899.16 1384.67,898.66 1383,899.5C 1382.73,897.671 1381.89,896.171 1380.5,895C 1380.83,894.667 1381.17,894.333 1381.5,894C 1380.28,892.37 1378.28,891.37 1375.5,891C 1374.83,890 1374.17,889 1373.5,888C 1375.25,886.246 1375.92,884.079 1375.5,881.5C 1376.83,881.5 1378.17,881.5 1379.5,881.5C 1379.33,877.818 1379.5,874.152 1380,870.5C 1380.67,869.167 1381.33,869.167 1382,870.5C 1382.37,869.584 1382.87,868.75 1383.5,868C 1380.67,866.092 1381,865.259 1384.5,865.5 Z"/></g>
<g><path style="opacity:1" fill="#fdfef8" d="M 1333.5,900.5 C 1333.92,899.876 1334.58,899.543 1335.5,899.5C 1337.28,901.349 1339.28,903.016 1341.5,904.5C 1339.79,906.543 1337.79,908.21 1335.5,909.5C 1334.91,909.291 1334.41,908.957 1334,908.5C 1332.6,909.227 1331.1,909.727 1329.5,910C 1330.2,910.971 1330.2,912.137 1329.5,913.5C 1329.92,914.672 1330.59,915.672 1331.5,916.5C 1330.48,917.354 1329.64,918.354 1329,919.5C 1328.67,919.167 1328.33,918.833 1328,918.5C 1326.13,920.65 1324.97,922.817 1324.5,925C 1321.82,925.617 1321.16,924.784 1322.5,922.5C 1320.83,921.5 1319.5,920.167 1318.5,918.5C 1320.51,916.659 1322.84,915.659 1325.5,915.5C 1325.82,913.278 1325.16,911.444 1323.5,910C 1326.17,909.333 1326.17,908.667 1323.5,908C 1325.62,907.74 1327.28,906.74 1328.5,905C 1328.17,904.667 1327.83,904.333 1327.5,904C 1329.06,903.682 1330.23,902.849 1331,901.5C 1331.67,904.167 1332.33,904.167 1333,901.5C 1332.95,903.313 1333.12,904.979 1333.5,906.5C 1335.19,907.568 1336.85,907.401 1338.5,906C 1335.89,904.893 1334.22,903.06 1333.5,900.5 Z"/></g>
<g><path style="opacity:1" fill="#fdfef8" d="M 1432.5,933.5 C 1431.83,933.5 1431.5,933.167 1431.5,932.5C 1431.08,931.778 1430.42,931.278 1429.5,931C 1430.5,930.667 1431.5,930.333 1432.5,930C 1431.95,928.602 1431.62,927.268 1431.5,926C 1435.85,925.581 1436.19,924.914 1432.5,924C 1437.52,924.45 1442.52,924.616 1447.5,924.5C 1446.05,925.906 1444.72,927.406 1443.5,929C 1447.47,931.389 1448.63,934.555 1447,938.5C 1444.31,936.498 1441.64,934.498 1439,932.5C 1437.06,933.86 1435.4,933.527 1434,931.5C 1433.72,932.416 1433.22,933.082 1432.5,933.5 Z"/></g>
<g><path style="opacity:1" fill="#fbfbf6" d="M 1282.5,927.5 C 1284.4,928.744 1286.07,930.244 1287.5,932C 1287.09,932.945 1286.43,933.612 1285.5,934C 1285.83,934.333 1286.17,934.667 1286.5,935C 1285.77,936.399 1285.27,937.899 1285,939.5C 1281.35,944.252 1278.18,948.752 1275.5,953C 1274.23,953.309 1273.07,953.809 1272,954.5C 1271.31,955.332 1271.48,955.998 1272.5,956.5C 1273.61,955.41 1274.61,955.41 1275.5,956.5C 1274.48,957.354 1273.64,958.354 1273,959.5C 1271.85,958.542 1270.85,958.875 1270,960.5C 1269.11,959.289 1268.27,959.289 1267.5,960.5C 1267.42,963.085 1267.42,966.085 1267.5,969.5C 1264.77,970.977 1262.27,972.31 1260,973.5C 1259.67,971.953 1260.17,970.62 1261.5,969.5C 1260.62,968.749 1259.62,968.249 1258.5,968C 1259.8,966.421 1259.47,965.255 1257.5,964.5C 1265.6,951.957 1273.93,939.624 1282.5,927.5 Z"/></g>
<g><path style="opacity:1" fill="#fafbf6" d="M 542.5,972.5 C 537.29,964.551 533.623,955.884 531.5,946.5C 536.348,945.011 537.681,946.178 535.5,950C 536.166,951.669 536.166,953.169 535.5,954.5C 536.176,958.58 538.342,959.913 542,958.5C 542.95,959.022 543.784,959.689 544.5,960.5C 545.086,960.291 545.586,959.957 546,959.5C 548.167,961 548,962.167 545.5,963C 547.363,964.418 547.863,966.251 547,968.5C 545.885,970.785 544.385,972.118 542.5,972.5 Z"/></g>
<g><path style="opacity:1" fill="#fdfef8" d="M 1296.5,975.5 C 1296.5,975.833 1296.5,976.167 1296.5,976.5C 1294.61,976.297 1293.11,976.963 1292,978.5C 1291.67,977.833 1291.33,977.167 1291,976.5C 1290.47,978.677 1289.47,981.011 1288,983.5C 1287.32,982.216 1287.48,981.049 1288.5,980C 1287.55,979.517 1286.55,979.351 1285.5,979.5C 1285.96,983.111 1285.29,986.444 1283.5,989.5C 1283.71,990.086 1284.04,990.586 1284.5,991C 1283.22,991.684 1282.05,991.517 1281,990.5C 1280.14,992.087 1279.47,993.754 1279,995.5C 1278.67,994.833 1278.33,994.167 1278,993.5C 1277.61,995.955 1276.44,997.955 1274.5,999.5C 1271.96,996.24 1271.12,992.574 1272,988.5C 1273.01,987.663 1274.18,987.33 1275.5,987.5C 1276.89,983.486 1278.39,979.486 1280,975.5C 1281.65,975.307 1283.48,975.14 1285.5,975C 1284.83,974.667 1284.17,974.333 1283.5,974C 1285.21,971.523 1287.21,970.189 1289.5,970C 1286.04,969.066 1285.7,967.566 1288.5,965.5C 1289.47,963.604 1289.8,961.604 1289.5,959.5C 1291.5,959.5 1293.5,959.5 1295.5,959.5C 1295.83,962.004 1297.16,963.838 1299.5,965C 1298.36,965.741 1298.36,966.575 1299.5,967.5C 1298.09,968.243 1296.76,969.077 1295.5,970C 1296.17,970.333 1296.83,970.667 1297.5,971C 1296.17,971.333 1294.83,971.667 1293.5,972C 1294.81,972.985 1295.81,974.152 1296.5,975.5 Z"/></g>
<g><path style="opacity:1" fill="#fdfdf7" d="M 1303.5,1014.5 C 1305.58,1010.66 1307.92,1007 1310.5,1003.5C 1312.56,1001.83 1314.72,1001.16 1317,1001.5C 1318.14,1002.36 1319.47,1003.36 1321,1004.5C 1321.75,1005.64 1321.58,1006.64 1320.5,1007.5C 1319.81,1006.97 1319.31,1006.31 1319,1005.5C 1318.67,1005.83 1318.33,1006.17 1318,1006.5C 1317.67,1011.83 1317.33,1017.17 1317,1022.5C 1316,1023.83 1315,1023.83 1314,1022.5C 1313.43,1025.84 1312.26,1026.18 1310.5,1023.5C 1309.76,1026.32 1308.1,1028.32 1305.5,1029.5C 1304.83,1029.17 1304.17,1028.83 1303.5,1028.5C 1302.4,1024.4 1303.4,1020.4 1306.5,1016.5C 1305.4,1015.82 1304.4,1015.16 1303.5,1014.5 Z"/></g>
<g><path style="opacity:1" fill="#fbfbf6" d="M 1226.5,1010.5 C 1227.46,1010.95 1228.29,1011.62 1229,1012.5C 1229.33,1015.17 1229.67,1017.83 1230,1020.5C 1230.75,1021.13 1231.58,1021.63 1232.5,1022C 1229.97,1023.03 1228.3,1024.87 1227.5,1027.5C 1229.07,1032.8 1227.07,1035.47 1221.5,1035.5C 1221.5,1036.83 1221.5,1038.17 1221.5,1039.5C 1216.47,1041.03 1212.47,1044.03 1209.5,1048.5C 1207.92,1049.3 1206.26,1049.8 1204.5,1050C 1203.66,1051.01 1203.33,1052.18 1203.5,1053.5C 1202.18,1053.67 1201.01,1053.34 1200,1052.5C 1199.29,1053.97 1198.12,1054.64 1196.5,1054.5C 1206.14,1039.54 1216.14,1024.87 1226.5,1010.5 Z"/></g>
<g><path style="opacity:1" fill="#fdfdf8" d="M 1434.5,1019.5 C 1436.37,1020.51 1438.37,1021.34 1440.5,1022C 1439.12,1023.71 1437.46,1025.05 1435.5,1026C 1436.83,1027 1438.17,1028 1439.5,1029C 1433.33,1033.32 1429.66,1038.82 1428.5,1045.5C 1426.01,1045.22 1423.67,1044.72 1421.5,1044C 1423.89,1043.31 1423.89,1042.31 1421.5,1041C 1422.54,1039.08 1423.71,1037.25 1425,1035.5C 1425.15,1038.28 1425.98,1038.78 1427.5,1037C 1425.65,1035.51 1424.82,1033.67 1425,1031.5C 1426.3,1031.03 1427.8,1031.03 1429.5,1031.5C 1429.42,1028.49 1430.76,1026.32 1433.5,1025C 1432.83,1024.67 1432.17,1024.33 1431.5,1024C 1432.67,1023.58 1433.67,1022.91 1434.5,1022C 1433.4,1021.23 1433.4,1020.4 1434.5,1019.5 Z"/></g>
<g><path style="opacity:1" fill="#fdfdf8" d="M 1240.5,1058.5 C 1237.86,1063.13 1234.86,1067.47 1231.5,1071.5C 1229.28,1071.82 1227.44,1071.16 1226,1069.5C 1225.58,1070.67 1224.91,1071.67 1224,1072.5C 1218.62,1071.11 1218.28,1069.11 1223,1066.5C 1223.51,1065 1223.01,1063.84 1221.5,1063C 1224.43,1062.31 1225.76,1060.48 1225.5,1057.5C 1226.98,1057.76 1228.31,1057.43 1229.5,1056.5C 1228.19,1055.74 1227.69,1054.74 1228,1053.5C 1228.67,1054.83 1229.33,1054.83 1230,1053.5C 1230.33,1054.17 1230.67,1054.83 1231,1055.5C 1231.23,1052.91 1231.73,1050.41 1232.5,1048C 1234.11,1047.34 1235.27,1047.84 1236,1049.5C 1236.33,1049.17 1236.67,1048.83 1237,1048.5C 1237.13,1045.49 1237.13,1042.49 1237,1039.5C 1237.33,1039.17 1237.67,1038.83 1238,1038.5C 1238.25,1039.62 1238.75,1040.62 1239.5,1041.5C 1241.05,1040.32 1242.71,1039.32 1244.5,1038.5C 1244.02,1037.52 1243.36,1036.69 1242.5,1036C 1245.83,1034.17 1247.83,1035.34 1248.5,1039.5C 1247.75,1041.33 1246.75,1043 1245.5,1044.5C 1246.9,1045.84 1246.57,1046.68 1244.5,1047C 1245.61,1048.81 1244.94,1049.65 1242.5,1049.5C 1242.65,1048.45 1242.48,1047.45 1242,1046.5C 1241.61,1050.53 1241.11,1054.53 1240.5,1058.5 Z"/></g>
<g><path style="opacity:1" fill="#fcfdf8" d="M 1267.5,1067.5 C 1269.02,1067.51 1270.18,1068.18 1271,1069.5C 1271.69,1068.64 1272.52,1067.98 1273.5,1067.5C 1274.48,1068.98 1275.65,1070.31 1277,1071.5C 1276.97,1076.89 1277.13,1082.22 1277.5,1087.5C 1275.5,1087.5 1273.5,1087.5 1271.5,1087.5C 1271.5,1085.5 1271.5,1083.5 1271.5,1081.5C 1267.17,1082.01 1265.67,1080.35 1267,1076.5C 1266.67,1077.17 1266.33,1077.83 1266,1078.5C 1265.33,1077.17 1264.67,1077.17 1264,1078.5C 1263.51,1076.87 1263.34,1075.2 1263.5,1073.5C 1264.45,1071.22 1265.78,1069.22 1267.5,1067.5 Z"/></g>
<g><path style="opacity:1" fill="#fbfaf6" d="M 1170.5,1092.5 C 1171.83,1093.83 1172.67,1095.5 1173,1097.5C 1175.54,1096.49 1177.04,1097.49 1177.5,1100.5C 1174.55,1105.28 1170.72,1109.28 1166,1112.5C 1165.5,1115.82 1165.33,1119.15 1165.5,1122.5C 1162.38,1122.86 1159.05,1122.86 1155.5,1122.5C 1154.52,1123.98 1153.35,1125.31 1152,1126.5C 1151.59,1125.1 1151.09,1123.77 1150.5,1122.5C 1156.78,1112.22 1163.45,1102.22 1170.5,1092.5 Z"/></g>
<g><path style="opacity:1" fill="#fcfcf7" d="M 1190.5,1131.5 C 1184.75,1140.68 1178.75,1149.68 1172.5,1158.5C 1170.91,1157.85 1169.25,1157.35 1167.5,1157C 1168.71,1156.11 1168.71,1155.27 1167.5,1154.5C 1166.2,1155.09 1165.37,1156.09 1165,1157.5C 1164.2,1155.06 1162.7,1153.22 1160.5,1152C 1161.45,1151.52 1162.45,1151.35 1163.5,1151.5C 1163.5,1150.17 1163.5,1148.83 1163.5,1147.5C 1164.82,1147.67 1165.99,1147.34 1167,1146.5C 1167.14,1143.96 1167.81,1141.62 1169,1139.5C 1169.31,1140.31 1169.81,1140.97 1170.5,1141.5C 1171.43,1140.31 1171.76,1138.98 1171.5,1137.5C 1172.83,1137.5 1174.17,1137.5 1175.5,1137.5C 1175.65,1136.45 1175.48,1135.45 1175,1134.5C 1174.35,1135.7 1173.85,1135.7 1173.5,1134.5C 1176.39,1130.63 1180.72,1128.13 1186.5,1127C 1185.38,1126.75 1184.38,1126.25 1183.5,1125.5C 1184.71,1124.28 1184.71,1123.11 1183.5,1122C 1186.79,1120.64 1188.29,1118.14 1188,1114.5C 1189.94,1115.86 1191.6,1115.53 1193,1113.5C 1193.45,1115.52 1194.28,1117.35 1195.5,1119C 1194.21,1120.41 1193.05,1121.91 1192,1123.5C 1191.33,1122.83 1190.67,1122.17 1190,1121.5C 1189.25,1124.92 1189.42,1128.26 1190.5,1131.5 Z"/></g>
<g><path style="opacity:1" fill="#fbfcf7" d="M 525.5,1162.5 C 526.172,1163.27 527.005,1163.93 528,1164.5C 529.705,1163.24 531.372,1162.9 533,1163.5C 532.689,1164.93 532.855,1166.27 533.5,1167.5C 532.975,1168.19 532.308,1168.69 531.5,1169C 532.308,1169.31 532.975,1169.81 533.5,1170.5C 531.395,1171.64 529.228,1172.64 527,1173.5C 524.046,1173.41 523.879,1172.91 526.5,1172C 524.926,1171.66 523.592,1170.83 522.5,1169.5C 521.852,1171.15 520.852,1172.48 519.5,1173.5C 519.577,1171.46 518.91,1169.46 517.5,1167.5C 519.629,1165.05 522.296,1163.38 525.5,1162.5 Z"/></g>
<g><path style="opacity:1" fill="#fdfef8" d="M 1349.5,1164.5 C 1349.5,1165.17 1349.17,1165.5 1348.5,1165.5C 1346.8,1165.34 1345.13,1165.51 1343.5,1166C 1341.11,1167.31 1341.11,1168.31 1343.5,1169C 1340.67,1169.17 1339.17,1170.67 1339,1173.5C 1336.56,1176.01 1334.72,1179.34 1333.5,1183.5C 1330.74,1183.62 1328.74,1182.45 1327.5,1180C 1328.07,1178.35 1329.4,1176.68 1331.5,1175C 1330.44,1173.81 1329.1,1173.31 1327.5,1173.5C 1327.23,1171.57 1327.73,1169.9 1329,1168.5C 1329.41,1168.96 1329.91,1169.29 1330.5,1169.5C 1331.89,1168.14 1333.56,1167.3 1335.5,1167C 1335.17,1166.67 1334.83,1166.33 1334.5,1166C 1336.17,1165.67 1337.83,1165.33 1339.5,1165C 1338.63,1163.27 1338.79,1161.44 1340,1159.5C 1340.27,1161.1 1340.77,1162.6 1341.5,1164C 1344.12,1164.47 1346.79,1164.63 1349.5,1164.5 Z"/></g>
<g><path style="opacity:1" fill="#fdfdf8" d="M 1094.5,1203.5 C 1094.73,1201.94 1095.4,1200.6 1096.5,1199.5C 1098.83,1199.5 1100.83,1198.67 1102.5,1197C 1103.11,1195.05 1103.94,1193.22 1105,1191.5C 1105.75,1192.13 1106.58,1192.63 1107.5,1193C 1106.69,1193.31 1106.03,1193.81 1105.5,1194.5C 1106.77,1195.56 1107.94,1196.56 1109,1197.5C 1109.66,1199.11 1109.16,1200.27 1107.5,1201C 1107.83,1201.33 1108.17,1201.67 1108.5,1202C 1107.21,1203.41 1106.05,1204.91 1105,1206.5C 1104.67,1206.17 1104.33,1205.83 1104,1205.5C 1103.1,1206.7 1101.93,1207.53 1100.5,1208C 1101.7,1208.65 1101.7,1209.15 1100.5,1209.5C 1099.25,1207.52 1097.75,1207.19 1096,1208.5C 1095.65,1206.75 1095.15,1205.09 1094.5,1203.5 Z"/></g>
<g><path style="opacity:1" fill="#fbfbf7" d="M 1277.5,1201.5 C 1278.22,1201.92 1278.72,1202.58 1279,1203.5C 1279.97,1201.12 1280.64,1201.46 1281,1204.5C 1283.05,1202.12 1284.55,1202.62 1285.5,1206C 1285.3,1208.32 1284.8,1210.49 1284,1212.5C 1282.64,1211.62 1281.14,1211.29 1279.5,1211.5C 1280.17,1213.83 1280.83,1216.17 1281.5,1218.5C 1279.55,1218.23 1278.05,1218.89 1277,1220.5C 1276.67,1219.83 1276.33,1219.17 1276,1218.5C 1274.94,1220.22 1274.11,1222.05 1273.5,1224C 1274.34,1225.67 1273.84,1225.83 1272,1224.5C 1270.96,1228.29 1269.13,1228.96 1266.5,1226.5C 1266.31,1228.07 1266.31,1229.57 1266.5,1231C 1263.55,1235.13 1262.55,1235.13 1263.5,1231C 1262.69,1230.69 1262.03,1230.19 1261.5,1229.5C 1262.35,1227.59 1262.68,1225.59 1262.5,1223.5C 1267.02,1215.78 1272.02,1208.45 1277.5,1201.5 Z"/></g>
<g><path style="opacity:1" fill="#fdfdf8" d="M 1299.5,1237.5 C 1298.89,1239.43 1297.89,1241.1 1296.5,1242.5C 1295.06,1243.36 1293.73,1243.36 1292.5,1242.5C 1291.83,1244.17 1291.17,1245.83 1290.5,1247.5C 1287.88,1250.3 1285.38,1253.3 1283,1256.5C 1282.67,1256.17 1282.33,1255.83 1282,1255.5C 1281.67,1256.5 1281.33,1257.5 1281,1258.5C 1280.78,1255.06 1279.78,1254.72 1278,1257.5C 1277.53,1256.07 1276.7,1254.9 1275.5,1254C 1275.95,1252.39 1277.29,1251.39 1279.5,1251C 1278.83,1250.33 1278.17,1249.67 1277.5,1249C 1279.45,1246.82 1281.11,1244.48 1282.5,1242C 1281.83,1241.67 1281.17,1241.33 1280.5,1241C 1281.57,1239.72 1282.91,1239.38 1284.5,1240C 1283.3,1239.35 1283.3,1238.85 1284.5,1238.5C 1285.45,1239.33 1286.45,1239.49 1287.5,1239C 1287.59,1236.87 1287.59,1234.7 1287.5,1232.5C 1288.5,1230.83 1289.83,1229.5 1291.5,1228.5C 1291.29,1227.91 1290.96,1227.41 1290.5,1227C 1291.83,1225.37 1292.5,1223.87 1292.5,1222.5C 1293.09,1222.71 1293.59,1223.04 1294,1223.5C 1297.83,1220.64 1301,1221.31 1303.5,1225.5C 1301.16,1227.23 1298.82,1229.07 1296.5,1231C 1299.54,1231.36 1299.88,1232.03 1297.5,1233C 1298.64,1233.74 1298.64,1234.57 1297.5,1235.5C 1298.24,1236.18 1298.91,1236.85 1299.5,1237.5 Z"/></g>
<g><path style="opacity:1" fill="#f9faf6" d="M 851.5,1236.5 C 852.26,1237.89 852.926,1239.39 853.5,1241C 853.245,1242.33 852.578,1243.33 851.5,1244C 852.784,1244.68 853.951,1244.52 855,1243.5C 855.781,1244.94 855.614,1246.28 854.5,1247.5C 852.671,1249.16 851.337,1251.16 850.5,1253.5C 849.914,1253.29 849.414,1252.96 849,1252.5C 848.576,1254.61 847.409,1255.45 845.5,1255C 848.277,1252.83 848.11,1252.33 845,1253.5C 844.623,1252.06 843.79,1251.06 842.5,1250.5C 845.534,1245.81 848.534,1241.14 851.5,1236.5 Z"/></g>
<g><path style="opacity:1" fill="#fafaf6" d="M 688.5,1276.5 C 696.334,1280.42 704.334,1283.76 712.5,1286.5C 710.742,1286.88 709.075,1287.54 707.5,1288.5C 705.833,1287.17 704.167,1285.83 702.5,1284.5C 702.167,1284.83 701.833,1285.17 701.5,1285.5C 705.288,1288 705.121,1289.66 701,1290.5C 699.124,1288.88 697.79,1289.21 697,1291.5C 695.333,1290.5 693.667,1289.5 692,1288.5C 691.667,1289.17 691.333,1289.83 691,1290.5C 689.513,1289.75 689.346,1288.91 690.5,1288C 689.376,1287.75 688.376,1287.25 687.5,1286.5C 687.338,1283.21 687.671,1279.88 688.5,1276.5 Z"/></g>
<g><path style="opacity:1" fill="#fcfdf7" d="M 1089.5,1297.5 C 1089,1303.52 1088.33,1309.52 1087.5,1315.5C 1084.84,1316.6 1083.01,1317.94 1082,1319.5C 1080.18,1318.4 1078.68,1316.9 1077.5,1315C 1077.91,1314.05 1078.57,1313.39 1079.5,1313C 1076.95,1311.56 1074.45,1311.06 1072,1311.5C 1071.36,1310.39 1070.86,1309.22 1070.5,1308C 1071.04,1304.81 1071.71,1301.65 1072.5,1298.5C 1074.35,1299.24 1075.02,1300.24 1074.5,1301.5C 1074.83,1300.67 1075.17,1299.83 1075.5,1299C 1075.3,1295.71 1074.47,1295.21 1073,1297.5C 1072.36,1293.51 1071.86,1289.51 1071.5,1285.5C 1071.5,1284.83 1071.5,1284.17 1071.5,1283.5C 1076.04,1280.16 1078.21,1281.49 1078,1287.5C 1078.89,1286.11 1079.39,1286.28 1079.5,1288C 1078.38,1289.39 1077.88,1290.89 1078,1292.5C 1080.19,1291.7 1082.69,1291.7 1085.5,1292.5C 1086.51,1294.5 1087.84,1296.17 1089.5,1297.5 Z"/></g>
<g><path style="opacity:1" fill="#fdfdf8" d="M 1253.5,1305.5 C 1253.07,1306.71 1252.4,1307.71 1251.5,1308.5C 1250.53,1307.69 1249.7,1306.69 1249,1305.5C 1246.75,1309 1244.25,1312.34 1241.5,1315.5C 1241.11,1312.65 1239.45,1310.15 1236.5,1308C 1238.19,1306.27 1239.36,1306.77 1240,1309.5C 1240.87,1307.11 1240.03,1305.61 1237.5,1305C 1238.83,1304 1240.17,1303 1241.5,1302C 1240.83,1301.67 1240.17,1301.33 1239.5,1301C 1241.06,1300.02 1242.73,1299.19 1244.5,1298.5C 1243.57,1297.23 1243.41,1295.9 1244,1294.5C 1245.02,1293.37 1245.68,1293.7 1246,1295.5C 1247.19,1294.44 1247.69,1293.1 1247.5,1291.5C 1250.24,1291.37 1252.24,1292.54 1253.5,1295C 1252.43,1296.42 1252.43,1297.75 1253.5,1299C 1252.17,1299.67 1250.83,1300.33 1249.5,1301C 1252.45,1301.11 1253.78,1302.61 1253.5,1305.5 Z"/></g>
<g><path style="opacity:1" fill="#fcfdf8" d="M 1203.5,1351.5 C 1203.17,1351.5 1202.83,1351.5 1202.5,1351.5C 1200.74,1351.36 1199.07,1351.69 1197.5,1352.5C 1195.25,1349.17 1193.75,1349.17 1193,1352.5C 1192.73,1350.9 1192.23,1349.4 1191.5,1348C 1192.67,1347.5 1193.5,1346.67 1194,1345.5C 1194.33,1346.5 1194.67,1347.5 1195,1348.5C 1195.17,1347.83 1195.33,1347.17 1195.5,1346.5C 1194.48,1344.54 1193.15,1343.04 1191.5,1342C 1191.67,1341.5 1191.83,1341 1192,1340.5C 1194.87,1342.89 1196.37,1342.56 1196.5,1339.5C 1198.17,1339.5 1199.83,1339.5 1201.5,1339.5C 1201.97,1341.2 1201.97,1342.7 1201.5,1344C 1203.55,1344.69 1205.22,1345.85 1206.5,1347.5C 1205.17,1348.64 1204.17,1349.98 1203.5,1351.5 Z"/></g>
<g><path style="opacity:1" fill="#fcfcf7" d="M 715.5,1451.5 C 712.027,1449.36 709.694,1446.36 708.5,1442.5C 709.801,1441.04 711.301,1439.7 713,1438.5C 714.928,1439.56 716.595,1440.89 718,1442.5C 718.333,1441.83 718.667,1441.17 719,1440.5C 720.62,1442.24 722.12,1444.07 723.5,1446C 722.366,1447.02 722.699,1447.68 724.5,1448C 723.44,1449.3 722.274,1450.46 721,1451.5C 719.003,1450.34 717.169,1450.34 715.5,1451.5 Z"/></g>
</svg>
