<?xml version="1.0" encoding="UTF-8"?>
<!DOCTYPE svg PUBLIC "-//W3C//DTD SVG 1.1//EN" "http://www.w3.org/Graphics/SVG/1.1/DTD/svg11.dtd">
<svg xmlns="http://www.w3.org/2000/svg" version="1.1" width="2048px" height="2048px" style="shape-rendering:geometricPrecision; text-rendering:geometricPrecision; image-rendering:optimizeQuality; fill-rule:evenodd; clip-rule:evenodd" xmlns:xlink="http://www.w3.org/1999/xlink">
<g><path style="opacity:1" fill="#020202" d="M 1466.5,448.5 C 1473.87,448.93 1481.21,449.764 1488.5,451C 1529.45,459.59 1570.45,467.923 1611.5,476C 1651.38,483.288 1672.72,507.121 1675.5,547.5C 1675.46,552.88 1674.96,558.214 1674,563.5C 1619.41,841.121 1565.08,1118.79 1511,1396.5C 1509.39,1399.77 1507.39,1402.77 1505,1405.5C 1452.79,1467.37 1400.96,1529.54 1349.5,1592C 1368.52,1592.24 1387.52,1592.91 1406.5,1594C 1419.31,1600.11 1422.81,1609.61 1417,1622.5C 1414.64,1625.87 1411.47,1628.04 1407.5,1629C 1077.17,1629.67 746.833,1629.67 416.5,1629C 407.278,1627.11 402.278,1621.44 401.5,1612C 402.176,1603.3 406.51,1597.3 414.5,1594C 529.166,1593.5 643.833,1593.33 758.5,1593.5C 758.5,1571.83 758.5,1550.17 758.5,1528.5C 684.556,1523.6 614.222,1505.1 547.5,1473C 539.309,1466.76 536.476,1458.6 539,1448.5C 549.4,1410.3 560.4,1372.3 572,1334.5C 578.09,1326.91 585.923,1324.08 595.5,1326C 652.94,1353.15 713.274,1370.15 776.5,1377C 800.17,1378.95 823.836,1378.95 847.5,1377C 870.527,1374.92 891.86,1367.92 911.5,1356C 934.183,1337.8 941.349,1314.63 933,1286.5C 924.75,1267.48 911.584,1252.98 893.5,1243C 880.193,1235.85 866.527,1229.51 852.5,1224C 817.885,1212.13 783.219,1200.46 748.5,1189C 712.361,1176.93 677.694,1161.6 644.5,1143C 556.017,1088.48 523.85,1010.31 548,908.5C 559.29,872.408 578.79,841.575 606.5,816C 650.28,778.445 700.614,753.611 757.5,741.5C 757.578,714.184 757.745,686.851 758,659.5C 758.353,650.963 762.186,644.463 769.5,640C 804.959,638.837 840.459,638.003 876,637.5C 883.143,638.244 890.309,638.744 897.5,639C 904.935,641.681 909.768,646.848 912,654.5C 912.5,682.165 912.667,709.831 912.5,737.5C 968.003,743.542 1021.34,757.709 1072.5,780C 1079.99,786.148 1082.49,793.982 1080,803.5C 1068.8,841.113 1056.8,878.446 1044,915.5C 1037.81,923.002 1029.98,925.502 1020.5,923C 981.904,906.351 941.904,894.351 900.5,887C 863.598,880.279 826.931,881.279 790.5,890C 774.159,894.083 759.992,901.917 748,913.5C 732.509,934.496 731.509,956.163 745,978.5C 754.07,988.577 764.57,996.744 776.5,1003C 790.172,1009.78 804.172,1015.78 818.5,1021C 857.425,1034.53 896.425,1047.86 935.5,1061C 975.085,1074.4 1012.09,1092.73 1046.5,1116C 1104.05,1158.52 1132.72,1215.85 1132.5,1288C 1131.28,1362.78 1100.95,1422.45 1041.5,1467C 1002.33,1493.91 959.328,1512.08 912.5,1521.5C 912.172,1545.41 912.506,1569.24 913.5,1593C 1046.83,1593.83 1180.17,1593.67 1313.5,1592.5C 1287.37,1510.93 1261.53,1429.26 1236,1347.5C 1235.33,1343.83 1235.33,1340.17 1236,1336.5C 1291.59,1057.89 1346.92,779.226 1402,500.5C 1412.66,469.665 1434.16,452.332 1466.5,448.5 Z M 1465.5,484.5 C 1471.9,484.746 1478.24,485.58 1484.5,487C 1529.29,495.824 1573.95,505.157 1618.5,515C 1632.23,520.78 1639.56,531.113 1640.5,546C 1636.77,565.833 1633.1,585.667 1629.5,605.5C 1561.28,592.489 1493.28,578.655 1425.5,564C 1429.26,544.439 1433.43,524.939 1438,505.5C 1443.62,493.699 1452.79,486.699 1465.5,484.5 Z M 1418.5,600.5 C 1486.17,613.833 1553.83,627.167 1621.5,640.5C 1616.37,667.47 1611.37,694.47 1606.5,721.5C 1538.83,708.166 1471.16,694.833 1403.5,681.5C 1408.37,654.48 1413.37,627.48 1418.5,600.5 Z M 802.5,681.5 C 824.5,681.5 846.5,681.5 868.5,681.5C 868.333,708.502 868.5,735.502 869,762.5C 871.687,771.186 877.521,776.353 886.5,778C 937.009,781.233 985.675,792.233 1032.5,811C 1025.27,831.759 1018.27,852.592 1011.5,873.5C 945.914,846.957 877.914,836.791 807.5,843C 777.653,846.276 750.653,856.61 726.5,874C 693.342,903.792 683.842,939.959 698,982.5C 705.745,1000.58 717.579,1015.41 733.5,1027C 756.026,1041.52 780.026,1053.19 805.5,1062C 856.61,1078.81 907.277,1096.81 957.5,1116C 986.299,1128.22 1012.63,1144.22 1036.5,1164C 1071.1,1197.55 1088.1,1238.55 1087.5,1287C 1088.33,1340.54 1069,1385.21 1029.5,1421C 1000.41,1445.38 967.407,1462.72 930.5,1473C 913.192,1477.26 895.858,1481.26 878.5,1485C 873.295,1488.53 870.129,1493.36 869,1499.5C 868.5,1526.83 868.333,1554.16 868.5,1581.5C 846.258,1581.83 824.091,1581.49 802,1580.5C 801.667,1554.5 801.333,1528.5 801,1502.5C 799.264,1495.76 795.097,1491.26 788.5,1489C 718.437,1485.98 651.104,1470.98 586.5,1444C 586.043,1443.59 585.709,1443.09 585.5,1442.5C 592.302,1420.96 598.635,1399.29 604.5,1377.5C 661.164,1399.83 719.831,1414 780.5,1420C 815.126,1422.86 849.459,1420.86 883.5,1414C 914.613,1407.04 940.447,1391.54 961,1367.5C 987.282,1325.96 986.949,1284.63 960,1243.5C 940.86,1220.67 917.36,1203.84 889.5,1193C 877.5,1188.33 865.5,1183.67 853.5,1179C 816.644,1167.27 779.977,1154.94 743.5,1142C 718.085,1132.29 693.419,1120.96 669.5,1108C 595.57,1062.59 570.07,997.753 593,913.5C 605.525,879.313 626.692,851.813 656.5,831C 697.191,803.873 741.857,786.539 790.5,779C 796.84,776.152 800.674,771.318 802,764.5C 802.5,736.835 802.667,709.169 802.5,681.5 Z M 1395.5,716.5 C 1405.23,717.78 1414.9,719.447 1424.5,721.5C 1385.56,918.043 1346.56,1114.54 1307.5,1311C 1297.12,1314.02 1286.78,1316.19 1276.5,1317.5C 1316.81,1117.29 1356.47,916.961 1395.5,716.5 Z M 1459.5,729.5 C 1484.9,733.779 1510.23,738.446 1535.5,743.5C 1497.3,939.855 1458.96,1136.19 1420.5,1332.5C 1405.44,1336.8 1390.61,1341.8 1376,1347.5C 1364.55,1338.06 1353.72,1327.89 1343.5,1317C 1381.85,1121.09 1420.52,925.255 1459.5,729.5 Z M 1571.5,751.5 C 1580.19,752.804 1588.85,754.304 1597.5,756C 1598.52,756.519 1599.18,757.353 1599.5,758.5C 1560.19,958.533 1520.69,1158.53 1481,1358.5C 1472.18,1351.85 1463.68,1344.85 1455.5,1337.5C 1494.55,1142.24 1533.22,946.904 1571.5,751.5 Z M 1317.5,1345.5 C 1318.55,1345.35 1319.55,1345.52 1320.5,1346C 1323.83,1348.67 1327.17,1351.33 1330.5,1354C 1339.52,1362.02 1348.19,1370.36 1356.5,1379C 1363.18,1385.23 1370.84,1386.89 1379.5,1384C 1397.14,1378.06 1414.81,1372.23 1432.5,1366.5C 1443.88,1375.88 1455.55,1384.88 1467.5,1393.5C 1444.48,1421.35 1421.64,1449.35 1399,1477.5C 1392.63,1485.58 1385.79,1493.25 1378.5,1500.5C 1359.62,1495.89 1340.62,1491.72 1321.5,1488C 1319.94,1487.68 1318.77,1486.85 1318,1485.5C 1304.09,1442.7 1290.26,1399.87 1276.5,1357C 1276.64,1356.23 1276.98,1355.56 1277.5,1355C 1291.01,1352 1304.34,1348.84 1317.5,1345.5 Z M 1330.5,1525.5 C 1338.67,1526.4 1346.67,1528.07 1354.5,1530.5C 1349.39,1537.06 1344.06,1543.39 1338.5,1549.5C 1335.24,1541.73 1332.58,1533.73 1330.5,1525.5 Z"/></g>
</svg>
