<?xml version="1.0" encoding="UTF-8"?>
<!DOCTYPE svg PUBLIC "-//W3C//DTD SVG 1.1//EN" "http://www.w3.org/Graphics/SVG/1.1/DTD/svg11.dtd">
<svg xmlns="http://www.w3.org/2000/svg" version="1.1" width="2048px" height="2048px" style="shape-rendering:geometricPrecision; text-rendering:geometricPrecision; image-rendering:optimizeQuality; fill-rule:evenodd; clip-rule:evenodd" xmlns:xlink="http://www.w3.org/1999/xlink">
<g><path style="opacity:1" fill="#fbfbfb" d="M 1207.5,369.5 C 1210.52,369.335 1213.52,369.502 1216.5,370C 1271.81,402.644 1316.64,446.144 1351,500.5C 1391.05,564.328 1413.38,633.994 1418,709.5C 1419.65,731.857 1419.82,754.19 1418.5,776.5C 1423.9,778.47 1429.23,777.97 1434.5,775C 1441.89,770.277 1447.05,763.777 1450,755.5C 1453.43,746.79 1455.76,737.79 1457,728.5C 1458.67,712.18 1459,695.847 1458,679.5C 1462.22,672.202 1468.05,670.369 1475.5,674C 1495.35,700.848 1511.18,730.015 1523,761.5C 1554.86,845.905 1558.86,931.572 1535,1018.5C 1513.49,1089.89 1471.83,1146.22 1410,1187.5C 1394.21,1225.24 1373.54,1259.91 1348,1291.5C 1337.67,1304.17 1327.33,1316.83 1317,1329.5C 1292.37,1357.13 1267.37,1384.47 1242,1411.5C 1150.24,1503.06 1055.07,1590.56 956.5,1674C 951.307,1678.97 945.64,1679.64 939.5,1676C 833.455,1586.64 731.622,1492.14 634,1392.5C 601.84,1358.35 571.173,1323.02 542,1286.5C 525.838,1264.85 511.172,1242.19 498,1218.5C 456.738,1138.17 453.738,1056.51 489,973.5C 533.995,884.715 606.161,834.548 705.5,823C 792.253,817.567 864.753,846.733 923,910.5C 931.487,920.809 939.487,931.476 947,942.5C 958.438,924.055 972.438,907.722 989,893.5C 985.749,858.08 991.415,824.08 1006,791.5C 1018.33,767.5 1030.67,743.5 1043,719.5C 1059.89,684.47 1063.06,648.303 1052.5,611C 1055.08,600.688 1061.41,597.355 1071.5,601C 1099.27,614.098 1118.77,634.932 1130,663.5C 1135.22,676.399 1138.89,689.732 1141,703.5C 1191.42,627.894 1215.75,544.561 1214,453.5C 1211.89,428.975 1207.73,404.808 1201.5,381C 1201.56,376.045 1203.56,372.212 1207.5,369.5 Z M 1344.5,888.5 C 1344.67,889.492 1344.34,890.158 1343.5,890.5C 1318.62,867.181 1289.95,849.681 1257.5,838C 1244.23,833.574 1230.89,829.574 1217.5,826C 1241.21,802.755 1259.05,775.588 1271,744.5C 1295.61,773.81 1316.27,805.81 1333,840.5C 1339.35,855.903 1343.18,871.903 1344.5,888.5 Z M 716.5,843.5 C 779.983,842.269 835.983,861.769 884.5,902C 906.203,921.353 923.703,943.853 937,969.5C 942.807,974.333 948.807,974.666 955,970.5C 1005.83,883.483 1082,841.316 1183.5,844C 1277.65,853.789 1345.49,900.955 1387,985.5C 1407.85,1033.79 1413.18,1083.79 1403,1135.5C 1392.73,1179.36 1374.4,1219.36 1348,1255.5C 1323.67,1288.45 1297.67,1320.12 1270,1350.5C 1167.85,1458.17 1060.02,1559.17 946.5,1653.5C 843.577,1566.83 744.744,1475.16 650,1378.5C 621.057,1347.25 593.057,1315.25 566,1282.5C 543.835,1254.3 524.835,1223.96 509,1191.5C 470.545,1101.58 479.545,1016.91 536,937.5C 582.287,879.936 642.454,848.603 716.5,843.5 Z M 1429.5,1052.5 C 1428.83,1053.83 1428.17,1055.17 1427.5,1056.5C 1424.09,1020.51 1413.42,986.848 1395.5,955.5C 1399.59,948.997 1403.42,942.33 1407,935.5C 1422.51,972.902 1430.01,1011.9 1429.5,1052.5 Z"/></g>
<g><path style="opacity:1" fill="#ea2929" d="M 1247.5,416.5 C 1249.56,418.286 1250.9,420.619 1251.5,423.5C 1254.91,424.099 1257.91,425.432 1260.5,427.5C 1261.44,430.241 1263.27,432.241 1266,433.5C 1266.45,435.519 1267.28,437.352 1268.5,439C 1271.81,440.038 1274.81,441.538 1277.5,443.5C 1283.03,453.033 1290.36,461.033 1299.5,467.5C 1303.22,470.607 1306.22,474.273 1308.5,478.5C 1308.34,479.873 1308.51,481.207 1309,482.5C 1315.4,489.632 1321.07,497.299 1326,505.5C 1327.11,506.305 1328.28,506.972 1329.5,507.5C 1329.34,508.873 1329.51,510.207 1330,511.5C 1335.25,519.668 1340.25,528.001 1345,536.5C 1345.76,538.063 1346.93,539.063 1348.5,539.5C 1351.67,544.516 1354.34,549.849 1356.5,555.5C 1359.33,563.169 1362.17,570.836 1365,578.5C 1365.95,580.093 1367.12,581.426 1368.5,582.5C 1371.64,593.429 1375.31,604.095 1379.5,614.5C 1379.34,617.187 1379.5,619.854 1380,622.5C 1382.33,631.499 1384.5,640.499 1386.5,649.5C 1392.15,690.623 1395.15,731.956 1395.5,773.5C 1395.18,778.363 1395.51,783.03 1396.5,787.5C 1397.49,789.456 1398.49,791.456 1399.5,793.5C 1399.5,795.5 1399.5,797.5 1399.5,799.5C 1406.74,801.143 1414.08,802.143 1421.5,802.5C 1428.41,802.685 1435.07,801.519 1441.5,799C 1447.57,794.196 1453.41,789.029 1459,783.5C 1461.16,781.183 1462.66,778.516 1463.5,775.5C 1466.39,772.744 1468.56,769.411 1470,765.5C 1472.02,760.287 1473.52,754.954 1474.5,749.5C 1475.12,749.389 1475.62,749.056 1476,748.5C 1477.7,741.914 1479.04,735.247 1480,728.5C 1480.74,727.359 1481.57,727.359 1482.5,728.5C 1488.6,737.702 1492.77,747.702 1495,758.5C 1497.24,762.642 1499.24,766.975 1501,771.5C 1502.64,774.385 1504.48,777.051 1506.5,779.5C 1507.69,791.612 1511.02,802.945 1516.5,813.5C 1517.43,814.568 1517.77,815.901 1517.5,817.5C 1517.34,820.518 1517.5,823.518 1518,826.5C 1521.39,840.523 1524.22,854.523 1526.5,868.5C 1526.5,868.833 1526.5,869.167 1526.5,869.5C 1527.05,900.543 1526.21,931.543 1524,962.5C 1523.36,972.05 1521.03,981.05 1517,989.5C 1516.1,998.525 1513.77,1007.19 1510,1015.5C 1509.67,1018.83 1509.33,1022.17 1509,1025.5C 1506.53,1031.76 1504.36,1038.09 1502.5,1044.5C 1502.74,1045.79 1502.4,1046.79 1501.5,1047.5C 1498.34,1049.91 1496.67,1053.24 1496.5,1057.5C 1495.54,1057.95 1494.71,1058.62 1494,1059.5C 1491.05,1066.37 1487.71,1073.03 1484,1079.5C 1479.18,1082.44 1476.68,1086.77 1476.5,1092.5C 1469.99,1096.29 1465.99,1101.96 1464.5,1109.5C 1459.04,1113.34 1454.2,1118.01 1450,1123.5C 1449.51,1124.79 1449.34,1126.13 1449.5,1127.5C 1446.2,1129.78 1442.87,1132.12 1439.5,1134.5C 1437.33,1135.99 1436,1137.99 1435.5,1140.5C 1434.83,1141.83 1433.83,1142.83 1432.5,1143.5C 1431.5,1143.5 1430.5,1143.5 1429.5,1143.5C 1433.96,1132.46 1437.62,1121.12 1440.5,1109.5C 1440.7,1106.37 1441.37,1103.37 1442.5,1100.5C 1443.12,1100.39 1443.62,1100.06 1444,1099.5C 1446.78,1086.98 1448.28,1074.32 1448.5,1061.5C 1450.02,1039.61 1449.52,1017.61 1447,995.5C 1444.3,984.624 1441.97,973.624 1440,962.5C 1439.1,960.569 1437.93,958.903 1436.5,957.5C 1435.92,954.33 1435.25,951.163 1434.5,948C 1434.64,946.774 1434.98,945.607 1435.5,944.5C 1433.66,942.162 1431.66,939.996 1429.5,938C 1427.18,930.043 1424.68,922.21 1422,914.5C 1420.53,911.704 1418.69,909.204 1416.5,907C 1415.21,906.51 1413.87,906.343 1412.5,906.5C 1412.39,905.883 1412.06,905.383 1411.5,905C 1406.77,904.004 1402.27,904.504 1398,906.5C 1397.52,907.448 1397.35,908.448 1397.5,909.5C 1394.38,915.072 1391.21,920.739 1388,926.5C 1387.19,928.436 1386.69,930.436 1386.5,932.5C 1382.71,933.047 1380.71,931.38 1380.5,927.5C 1379.68,926.614 1378.68,926.281 1377.5,926.5C 1373.92,920.07 1370.09,913.737 1366,907.5C 1365.67,899.5 1365.33,891.5 1365,883.5C 1364.47,879.962 1363.63,876.628 1362.5,873.5C 1361.67,868.846 1360.84,864.18 1360,859.5C 1359.56,856.602 1358.4,854.269 1356.5,852.5C 1356.5,852.167 1356.5,851.833 1356.5,851.5C 1355.58,844.905 1353.75,838.571 1351,832.5C 1349.95,829.813 1348.45,827.48 1346.5,825.5C 1343.18,816.517 1339.01,807.85 1334,799.5C 1331.5,796.498 1329.5,793.165 1328,789.5C 1326.69,787.808 1325.19,786.475 1323.5,785.5C 1318.83,778.5 1314.17,771.5 1309.5,764.5C 1307.6,756.674 1303.26,750.674 1296.5,746.5C 1295.44,743.484 1294.27,740.484 1293,737.5C 1289.92,733.676 1287.09,729.676 1284.5,725.5C 1281,724.94 1279.34,722.94 1279.5,719.5C 1276.68,718.03 1273.68,717.03 1270.5,716.5C 1269.69,715.007 1268.35,714.34 1266.5,714.5C 1263.9,714.467 1261.9,715.467 1260.5,717.5C 1258.98,717.511 1257.82,718.177 1257,719.5C 1254.78,724.879 1253.61,730.546 1253.5,736.5C 1252.02,738.094 1250.52,739.76 1249,741.5C 1243.41,760.336 1233.74,776.669 1220,790.5C 1218.47,795.193 1215.64,798.859 1211.5,801.5C 1210.57,802.689 1210.24,804.022 1210.5,805.5C 1204.1,809.728 1198.43,814.895 1193.5,821C 1167.98,819.311 1142.64,820.644 1117.5,825C 1113.75,825.302 1110.42,826.469 1107.5,828.5C 1102.48,828.752 1097.48,829.252 1092.5,830C 1084.78,833.527 1077.12,837.027 1069.5,840.5C 1056.74,844.272 1044.41,849.105 1032.5,855C 1027.35,858.743 1022.02,862.243 1016.5,865.5C 1015.67,868.672 1013.67,870.338 1010.5,870.5C 1010.33,865.156 1010.5,859.823 1011,854.5C 1014.78,839.028 1018.61,823.695 1022.5,808.5C 1035.91,783.354 1049.07,758.02 1062,732.5C 1065.21,725.375 1067.71,718.042 1069.5,710.5C 1070.77,708.22 1071.77,705.72 1072.5,703C 1072.84,701.97 1073.5,701.47 1074.5,701.5C 1076.1,699.52 1077.27,697.187 1078,694.5C 1078.57,688.703 1079.73,683.036 1081.5,677.5C 1082.24,670.831 1082.91,664.165 1083.5,657.5C 1084.42,655.151 1085.42,655.317 1086.5,658C 1086.17,658.333 1085.83,658.667 1085.5,659C 1086.82,658.852 1087.99,659.018 1089,659.5C 1088.22,657.485 1087.05,655.485 1085.5,653.5C 1086.33,652.585 1087.33,651.919 1088.5,651.5C 1089.7,651.846 1089.7,652.346 1088.5,653C 1090.24,653.651 1091.9,653.485 1093.5,652.5C 1093.69,654.07 1093.69,655.57 1093.5,657C 1094.83,659 1096.17,661 1097.5,663C 1095.5,664.153 1095.17,665.653 1096.5,667.5C 1097.9,664.901 1099.9,663.401 1102.5,663C 1101.98,663.561 1101.64,664.228 1101.5,665C 1102.7,666.52 1104.2,667.687 1106,668.5C 1106.52,671.874 1107.85,674.874 1110,677.5C 1111.17,682.177 1112.34,686.844 1113.5,691.5C 1113.17,692.167 1112.83,692.833 1112.5,693.5C 1115.2,694.611 1115.2,696.611 1112.5,699.5C 1112.85,700.696 1113.35,700.696 1114,699.5C 1114.67,700.833 1115.33,702.167 1116,703.5C 1117.29,713.492 1118.79,723.159 1120.5,732.5C 1120.75,734.674 1121.75,736.341 1123.5,737.5C 1124.24,739.426 1125.24,741.259 1126.5,743C 1130.17,743.667 1133.83,743.667 1137.5,743C 1141,740.167 1144.5,737.333 1148,734.5C 1149.66,730.697 1151.49,727.03 1153.5,723.5C 1157.11,720.915 1159.45,717.581 1160.5,713.5C 1164.6,710.968 1166.93,707.301 1167.5,702.5C 1169.45,701.718 1170.95,700.384 1172,698.5C 1181.19,682.116 1189.86,665.45 1198,648.5C 1198.5,646.527 1198.66,644.527 1198.5,642.5C 1203.57,632.135 1208.74,621.801 1214,611.5C 1215.59,602.954 1217.92,594.621 1221,586.5C 1221.5,583.518 1221.66,580.518 1221.5,577.5C 1222.31,576.571 1223.15,575.571 1224,574.5C 1228.63,554.761 1231.8,534.761 1233.5,514.5C 1233.5,513.833 1233.5,513.167 1233.5,512.5C 1235.13,506.762 1235.97,500.762 1236,494.5C 1236.5,479.17 1236.67,463.837 1236.5,448.5C 1236.67,441.492 1236.5,434.492 1236,427.5C 1234.63,424.806 1233.46,422.139 1232.5,419.5C 1231.76,415.881 1231.42,412.215 1231.5,408.5C 1236.83,411.154 1242.16,413.821 1247.5,416.5 Z"/></g>
<g><path style="opacity:1" fill="#bf3b3a" d="M 1247.5,416.5 C 1242.16,413.821 1236.83,411.154 1231.5,408.5C 1231.42,412.215 1231.76,415.881 1232.5,419.5C 1232.5,421.167 1232.5,422.833 1232.5,424.5C 1231.13,418.148 1229.8,411.648 1228.5,405C 1228.83,404.167 1229.17,403.333 1229.5,402.5C 1235.93,406.703 1241.93,411.37 1247.5,416.5 Z"/></g>
<g><path style="opacity:1" fill="#c73635" d="M 1247.5,416.5 C 1252.15,419.821 1256.49,423.487 1260.5,427.5C 1257.91,425.432 1254.91,424.099 1251.5,423.5C 1250.9,420.619 1249.56,418.286 1247.5,416.5 Z"/></g>
<g><path style="opacity:1" fill="#d23232" d="M 1232.5,419.5 C 1233.46,422.139 1234.63,424.806 1236,427.5C 1236.5,434.492 1236.67,441.492 1236.5,448.5C 1235.83,446.833 1235.17,445.167 1234.5,443.5C 1233.51,437.22 1232.84,430.886 1232.5,424.5C 1232.5,422.833 1232.5,421.167 1232.5,419.5 Z"/></g>
<g><path style="opacity:1" fill="#c43534" d="M 1260.5,427.5 C 1266.8,432.129 1272.46,437.462 1277.5,443.5C 1274.81,441.538 1271.81,440.038 1268.5,439C 1267.28,437.352 1266.45,435.519 1266,433.5C 1263.27,432.241 1261.44,430.241 1260.5,427.5 Z"/></g>
<g><path style="opacity:1" fill="#c73736" d="M 1277.5,443.5 C 1285.93,450.595 1293.27,458.595 1299.5,467.5C 1290.36,461.033 1283.03,453.033 1277.5,443.5 Z"/></g>
<g><path style="opacity:1" fill="#bb3938" d="M 1234.5,443.5 C 1235.17,445.167 1235.83,446.833 1236.5,448.5C 1236.67,463.837 1236.5,479.17 1236,494.5C 1235.97,500.762 1235.13,506.762 1233.5,512.5C 1235.62,489.526 1235.95,466.526 1234.5,443.5 Z"/></g>
<g><path style="opacity:1" fill="#c73836" d="M 1308.5,478.5 C 1316.65,487.322 1323.65,496.989 1329.5,507.5C 1328.28,506.972 1327.11,506.305 1326,505.5C 1321.07,497.299 1315.4,489.632 1309,482.5C 1308.51,481.207 1308.34,479.873 1308.5,478.5 Z"/></g>
<g><path style="opacity:1" fill="#c43838" d="M 1329.5,507.5 C 1336.84,517.498 1343.17,528.165 1348.5,539.5C 1346.93,539.063 1345.76,538.063 1345,536.5C 1340.25,528.001 1335.25,519.668 1330,511.5C 1329.51,510.207 1329.34,508.873 1329.5,507.5 Z"/></g>
<g><path style="opacity:1" fill="#c23a39" d="M 1356.5,555.5 C 1361.65,563.923 1365.65,572.923 1368.5,582.5C 1367.12,581.426 1365.95,580.093 1365,578.5C 1362.17,570.836 1359.33,563.169 1356.5,555.5 Z"/></g>
<g><path style="opacity:1" fill="#c13736" d="M 1233.5,514.5 C 1231.8,534.761 1228.63,554.761 1224,574.5C 1223.15,575.571 1222.31,576.571 1221.5,577.5C 1226.3,556.524 1230.3,535.524 1233.5,514.5 Z"/></g>
<g><path style="opacity:1" fill="#b43736" d="M 1368.5,582.5 C 1373.34,592.673 1377,603.339 1379.5,614.5C 1375.31,604.095 1371.64,593.429 1368.5,582.5 Z"/></g>
<g><path style="opacity:1" fill="#cd3333" d="M 1221.5,577.5 C 1221.66,580.518 1221.5,583.518 1221,586.5C 1217.92,594.621 1215.59,602.954 1214,611.5C 1208.74,621.801 1203.57,632.135 1198.5,642.5C 1207.18,621.115 1214.85,599.448 1221.5,577.5 Z"/></g>
<g><path style="opacity:1" fill="#c63937" d="M 1379.5,614.5 C 1383.42,626.16 1386.42,638.16 1388.5,650.5C 1387.83,650.167 1387.17,649.833 1386.5,649.5C 1384.5,640.499 1382.33,631.499 1380,622.5C 1379.5,619.854 1379.34,617.187 1379.5,614.5 Z"/></g>
<g><path style="opacity:1" fill="#e42e2d" d="M 1087.5,637.5 C 1088.5,637.414 1089.33,637.748 1090,638.5C 1092.41,641.397 1094.58,644.397 1096.5,647.5C 1096.34,648.873 1096.51,650.207 1097,651.5C 1100.67,656.162 1103.83,661.162 1106.5,666.5C 1106.96,667.298 1107.62,667.631 1108.5,667.5C 1113.02,682.26 1116.85,697.26 1120,712.5C 1120.5,719.158 1120.67,725.825 1120.5,732.5C 1118.79,723.159 1117.29,713.492 1116,703.5C 1115.33,702.167 1114.67,700.833 1114,699.5C 1113.35,700.696 1112.85,700.696 1112.5,699.5C 1115.2,696.611 1115.2,694.611 1112.5,693.5C 1112.83,692.833 1113.17,692.167 1113.5,691.5C 1112.34,686.844 1111.17,682.177 1110,677.5C 1107.85,674.874 1106.52,671.874 1106,668.5C 1104.2,667.687 1102.7,666.52 1101.5,665C 1101.64,664.228 1101.98,663.561 1102.5,663C 1099.9,663.401 1097.9,664.901 1096.5,667.5C 1095.17,665.653 1095.5,664.153 1097.5,663C 1096.17,661 1094.83,659 1093.5,657C 1093.69,655.57 1093.69,654.07 1093.5,652.5C 1091.9,653.485 1090.24,653.651 1088.5,653C 1089.7,652.346 1089.7,651.846 1088.5,651.5C 1087.33,651.919 1086.33,652.585 1085.5,653.5C 1087.05,655.485 1088.22,657.485 1089,659.5C 1087.99,659.018 1086.82,658.852 1085.5,659C 1085.83,658.667 1086.17,658.333 1086.5,658C 1085.42,655.317 1084.42,655.151 1083.5,657.5C 1082.91,664.165 1082.24,670.831 1081.5,677.5C 1079.73,683.036 1078.57,688.703 1078,694.5C 1077.27,697.187 1076.1,699.52 1074.5,701.5C 1075.09,696.05 1076.26,690.717 1078,685.5C 1078.71,678.844 1079.21,672.178 1079.5,665.5C 1080.49,655.347 1080.83,645.014 1080.5,634.5C 1083.04,635.043 1085.37,636.043 1087.5,637.5 Z"/></g>
<g><path style="opacity:1" fill="#b63839" d="M 1087.5,637.5 C 1085.37,636.043 1083.04,635.043 1080.5,634.5C 1080.83,645.014 1080.49,655.347 1079.5,665.5C 1079.47,653.477 1079.31,641.477 1079,629.5C 1082.33,631.667 1085.17,634.334 1087.5,637.5 Z"/></g>
<g><path style="opacity:1" fill="#c23937" d="M 1096.5,647.5 C 1098.45,648.716 1099.95,650.382 1101,652.5C 1104.04,657.243 1106.54,662.243 1108.5,667.5C 1107.62,667.631 1106.96,667.298 1106.5,666.5C 1103.83,661.162 1100.67,656.162 1097,651.5C 1096.51,650.207 1096.34,648.873 1096.5,647.5 Z"/></g>
<g><path style="opacity:1" fill="#c33535" d="M 1198.5,642.5 C 1198.66,644.527 1198.5,646.527 1198,648.5C 1189.86,665.45 1181.19,682.116 1172,698.5C 1170.95,700.384 1169.45,701.718 1167.5,702.5C 1178.89,683.057 1189.22,663.057 1198.5,642.5 Z"/></g>
<g><path style="opacity:1" fill="#bc3535" d="M 1079.5,665.5 C 1079.21,672.178 1078.71,678.844 1078,685.5C 1076.26,690.717 1075.09,696.05 1074.5,701.5C 1073.5,701.47 1072.84,701.97 1072.5,703C 1071.77,705.72 1070.77,708.22 1069.5,710.5C 1073.88,695.612 1077.21,680.612 1079.5,665.5 Z"/></g>
<g><path style="opacity:1" fill="#c43435" d="M 1167.5,702.5 C 1166.93,707.301 1164.6,710.968 1160.5,713.5C 1162.09,709.317 1164.42,705.65 1167.5,702.5 Z"/></g>
<g><path style="opacity:1" fill="#bd3938" d="M 1108.5,667.5 C 1113.26,677.29 1116.76,687.624 1119,698.5C 1120.65,711.51 1122.15,724.51 1123.5,737.5C 1121.75,736.341 1120.75,734.674 1120.5,732.5C 1120.67,725.825 1120.5,719.158 1120,712.5C 1116.85,697.26 1113.02,682.26 1108.5,667.5 Z"/></g>
<g><path style="opacity:1" fill="#b63232" d="M 1270.5,716.5 C 1267.1,716.342 1263.76,716.676 1260.5,717.5C 1261.9,715.467 1263.9,714.467 1266.5,714.5C 1268.35,714.34 1269.69,715.007 1270.5,716.5 Z"/></g>
<g><path style="opacity:1" fill="#ba3536" d="M 1160.5,713.5 C 1159.45,717.581 1157.11,720.915 1153.5,723.5C 1155.34,719.808 1157.68,716.475 1160.5,713.5 Z"/></g>
<g><path style="opacity:1" fill="#c13736" d="M 1260.5,717.5 C 1257.4,723.596 1255.06,729.929 1253.5,736.5C 1253.61,730.546 1254.78,724.879 1257,719.5C 1257.82,718.177 1258.98,717.511 1260.5,717.5 Z"/></g>
<g><path style="opacity:1" fill="#d23232" d="M 1270.5,716.5 C 1273.68,717.03 1276.68,718.03 1279.5,719.5C 1279.34,722.94 1281,724.94 1284.5,725.5C 1287.09,729.676 1289.92,733.676 1293,737.5C 1294.27,740.484 1295.44,743.484 1296.5,746.5C 1288.24,736.23 1279.57,726.23 1270.5,716.5 Z"/></g>
<g><path style="opacity:1" fill="#ba3837" d="M 1388.5,650.5 C 1397.6,695.653 1400.26,741.32 1396.5,787.5C 1395.51,783.03 1395.18,778.363 1395.5,773.5C 1396.66,755.671 1396.83,737.671 1396,719.5C 1393.87,696.438 1391.37,673.438 1388.5,650.5 Z"/></g>
<g><path style="opacity:1" fill="#de312f" d="M 1386.5,649.5 C 1387.17,649.833 1387.83,650.167 1388.5,650.5C 1391.37,673.438 1393.87,696.438 1396,719.5C 1396.83,737.671 1396.66,755.671 1395.5,773.5C 1395.15,731.956 1392.15,690.623 1386.5,649.5 Z"/></g>
<g><path style="opacity:1" fill="#c03637" d="M 1153.5,723.5 C 1151.49,727.03 1149.66,730.697 1148,734.5C 1144.5,737.333 1141,740.167 1137.5,743C 1133.83,743.667 1130.17,743.667 1126.5,743C 1125.24,741.259 1124.24,739.426 1123.5,737.5C 1127.63,742.264 1132.63,743.431 1138.5,741C 1143.74,735.269 1148.74,729.436 1153.5,723.5 Z"/></g>
<g><path style="opacity:1" fill="#c53736" d="M 1296.5,746.5 C 1303.26,750.674 1307.6,756.674 1309.5,764.5C 1305.18,758.538 1300.85,752.538 1296.5,746.5 Z"/></g>
<g><path style="opacity:1" fill="#bb3534" d="M 1474.5,749.5 C 1473.52,754.954 1472.02,760.287 1470,765.5C 1468.56,769.411 1466.39,772.744 1463.5,775.5C 1467.74,767.026 1471.41,758.36 1474.5,749.5 Z"/></g>
<g><path style="opacity:1" fill="#c73735" d="M 1506.5,779.5 C 1504.48,777.051 1502.64,774.385 1501,771.5C 1499.24,766.975 1497.24,762.642 1495,758.5C 1492.77,747.702 1488.6,737.702 1482.5,728.5C 1481.57,727.359 1480.74,727.359 1480,728.5C 1479.04,735.247 1477.7,741.914 1476,748.5C 1475.62,749.056 1475.12,749.389 1474.5,749.5C 1476.57,739.263 1478.07,728.93 1479,718.5C 1490.34,737.845 1499.51,758.179 1506.5,779.5 Z"/></g>
<g><path style="opacity:1" fill="#c13737" d="M 1069.5,710.5 C 1067.71,718.042 1065.21,725.375 1062,732.5C 1049.07,758.02 1035.91,783.354 1022.5,808.5C 1024.04,803.743 1025.88,799.076 1028,794.5C 1043.24,767.024 1057.07,739.024 1069.5,710.5 Z"/></g>
<g><path style="opacity:1" fill="#c83633" d="M 1506.5,779.5 C 1510.81,790.449 1514.15,801.782 1516.5,813.5C 1511.02,802.945 1507.69,791.612 1506.5,779.5 Z"/></g>
<g><path style="opacity:1" fill="#c63534" d="M 1253.5,736.5 C 1244.46,762.927 1230.13,785.927 1210.5,805.5C 1210.24,804.022 1210.57,802.689 1211.5,801.5C 1215.64,798.859 1218.47,795.193 1220,790.5C 1233.74,776.669 1243.41,760.336 1249,741.5C 1250.52,739.76 1252.02,738.094 1253.5,736.5 Z"/></g>
<g><path style="opacity:1" fill="#ca3434" d="M 1463.5,775.5 C 1462.66,778.516 1461.16,781.183 1459,783.5C 1453.41,789.029 1447.57,794.196 1441.5,799C 1435.07,801.519 1428.41,802.685 1421.5,802.5C 1414.08,802.143 1406.74,801.143 1399.5,799.5C 1399.5,797.5 1399.5,795.5 1399.5,793.5C 1417.15,803.559 1434.15,802.392 1450.5,790C 1455.44,785.568 1459.77,780.735 1463.5,775.5 Z"/></g>
<g><path style="opacity:1" fill="#bb3837" d="M 1323.5,785.5 C 1325.19,786.475 1326.69,787.808 1328,789.5C 1329.5,793.165 1331.5,796.498 1334,799.5C 1339.01,807.85 1343.18,816.517 1346.5,825.5C 1339.35,811.876 1331.69,798.542 1323.5,785.5 Z"/></g>
<g><path style="opacity:1" fill="#bd3637" d="M 1210.5,805.5 C 1205,811.163 1199.67,816.997 1194.5,823C 1165.25,821.023 1136.25,822.856 1107.5,828.5C 1110.42,826.469 1113.75,825.302 1117.5,825C 1142.64,820.644 1167.98,819.311 1193.5,821C 1198.43,814.895 1204.1,809.728 1210.5,805.5 Z"/></g>
<g><path style="opacity:1" fill="#be3333" d="M 1107.5,828.5 C 1094.86,832.268 1082.19,836.268 1069.5,840.5C 1077.12,837.027 1084.78,833.527 1092.5,830C 1097.48,829.252 1102.48,828.752 1107.5,828.5 Z"/></g>
<g><path style="opacity:1" fill="#be3a38" d="M 1517.5,817.5 C 1522.32,834.052 1525.32,851.052 1526.5,868.5C 1524.22,854.523 1521.39,840.523 1518,826.5C 1517.5,823.518 1517.34,820.518 1517.5,817.5 Z"/></g>
<g><path style="opacity:1" fill="#b73838" d="M 1346.5,825.5 C 1348.45,827.48 1349.95,829.813 1351,832.5C 1353.75,838.571 1355.58,844.905 1356.5,851.5C 1353.21,842.901 1349.88,834.234 1346.5,825.5 Z"/></g>
<g><path style="opacity:1" fill="#b63736" d="M 1356.5,852.5 C 1358.4,854.269 1359.56,856.602 1360,859.5C 1360.84,864.18 1361.67,868.846 1362.5,873.5C 1362.5,875.5 1362.5,877.5 1362.5,879.5C 1360.78,870.559 1358.78,861.559 1356.5,852.5 Z"/></g>
<g><path style="opacity:1" fill="#c53536" d="M 1022.5,808.5 C 1018.61,823.695 1014.78,839.028 1011,854.5C 1010.5,859.823 1010.33,865.156 1010.5,870.5C 1013.67,870.338 1015.67,868.672 1016.5,865.5C 1022.02,862.243 1027.35,858.743 1032.5,855C 1044.41,849.105 1056.74,844.272 1069.5,840.5C 1048,849.247 1028,860.58 1009.5,874.5C 1008.77,851.448 1013.1,829.448 1022.5,808.5 Z"/></g>
<g><path style="opacity:1" fill="#585858" d="M 1344.5,888.5 C 1345.78,889.386 1345.78,890.386 1344.5,891.5C 1343.89,891.376 1343.56,891.043 1343.5,890.5C 1344.34,890.158 1344.67,889.492 1344.5,888.5 Z"/></g>
<g><path style="opacity:1" fill="#a8302e" d="M 1527.5,880.5 C 1528.41,889.493 1529.08,898.66 1529.5,908C 1529.5,910.69 1529.16,913.19 1528.5,915.5C 1527.94,903.841 1527.61,892.174 1527.5,880.5 Z"/></g>
<g><path style="opacity:1" fill="#b93736" d="M 1362.5,879.5 C 1363.3,880.952 1363.8,882.618 1364,884.5C 1364.33,892.833 1364.67,901.167 1365,909.5C 1366.44,911.391 1367.61,913.391 1368.5,915.5C 1366.16,913.996 1364.33,911.996 1363,909.5C 1362.5,899.506 1362.33,889.506 1362.5,879.5 Z"/></g>
<g><path style="opacity:1" fill="#bf3334" d="M 1412.5,906.5 C 1406.82,904.497 1401.82,905.497 1397.5,909.5C 1397.35,908.448 1397.52,907.448 1398,906.5C 1402.27,904.504 1406.77,904.004 1411.5,905C 1412.06,905.383 1412.39,905.883 1412.5,906.5 Z"/></g>
<g><path style="opacity:1" fill="#d53331" d="M 1362.5,873.5 C 1363.63,876.628 1364.47,879.962 1365,883.5C 1365.33,891.5 1365.67,899.5 1366,907.5C 1370.09,913.737 1373.92,920.07 1377.5,926.5C 1374.15,923.149 1371.15,919.482 1368.5,915.5C 1367.61,913.391 1366.44,911.391 1365,909.5C 1364.67,901.167 1364.33,892.833 1364,884.5C 1363.8,882.618 1363.3,880.952 1362.5,879.5C 1362.5,877.5 1362.5,875.5 1362.5,873.5 Z"/></g>
<g><path style="opacity:1" fill="#b23836" d="M 1528.5,920.5 C 1528.75,930.379 1528.08,940.046 1526.5,949.5C 1526.56,939.641 1527.22,929.974 1528.5,920.5 Z"/></g>
<g><path style="opacity:1" fill="#bf3839" d="M 1397.5,909.5 C 1393.91,918.505 1389.91,927.339 1385.5,936C 1384,936.507 1382.84,936.007 1382,934.5C 1380.22,931.941 1378.72,929.274 1377.5,926.5C 1378.68,926.281 1379.68,926.614 1380.5,927.5C 1380.71,931.38 1382.71,933.047 1386.5,932.5C 1386.69,930.436 1387.19,928.436 1388,926.5C 1391.21,920.739 1394.38,915.072 1397.5,909.5 Z"/></g>
<g><path style="opacity:1" fill="#ce3534" d="M 1412.5,906.5 C 1413.87,906.343 1415.21,906.51 1416.5,907C 1418.69,909.204 1420.53,911.704 1422,914.5C 1424.68,922.21 1427.18,930.043 1429.5,938C 1431.66,939.996 1433.66,942.162 1435.5,944.5C 1434.98,945.607 1434.64,946.774 1434.5,948C 1435.25,951.163 1435.92,954.33 1436.5,957.5C 1437.79,961.384 1438.46,965.384 1438.5,969.5C 1432.73,949.279 1425.23,929.612 1416,910.5C 1414.62,909.295 1413.46,907.962 1412.5,906.5 Z"/></g>
<g><path style="opacity:1" fill="#b83635" d="M 1438.5,969.5 C 1443.36,984.988 1446.53,1000.99 1448,1017.5C 1448.5,1032.16 1448.67,1046.83 1448.5,1061.5C 1448.28,1074.32 1446.78,1086.98 1444,1099.5C 1443.62,1100.06 1443.12,1100.39 1442.5,1100.5C 1450.1,1056.57 1448.77,1012.9 1438.5,969.5 Z"/></g>
<g><path style="opacity:1" fill="#df3130" d="M 1436.5,957.5 C 1437.93,958.903 1439.1,960.569 1440,962.5C 1441.97,973.624 1444.3,984.624 1447,995.5C 1449.52,1017.61 1450.02,1039.61 1448.5,1061.5C 1448.67,1046.83 1448.5,1032.16 1448,1017.5C 1446.53,1000.99 1443.36,984.988 1438.5,969.5C 1438.46,965.384 1437.79,961.384 1436.5,957.5 Z"/></g>
<g><path style="opacity:1" fill="#cb3533" d="M 1526.5,869.5 C 1527.48,872.962 1527.81,876.629 1527.5,880.5C 1527.61,892.174 1527.94,903.841 1528.5,915.5C 1528.5,917.167 1528.5,918.833 1528.5,920.5C 1527.22,929.974 1526.56,939.641 1526.5,949.5C 1523.78,982.621 1515.78,1014.29 1502.5,1044.5C 1504.36,1038.09 1506.53,1031.76 1509,1025.5C 1509.33,1022.17 1509.67,1018.83 1510,1015.5C 1513.77,1007.19 1516.1,998.525 1517,989.5C 1521.03,981.05 1523.36,972.05 1524,962.5C 1526.21,931.543 1527.05,900.543 1526.5,869.5 Z"/></g>
<g><path style="opacity:1" fill="#b63433" d="M 1501.5,1047.5 C 1500.34,1051.15 1498.67,1054.48 1496.5,1057.5C 1496.67,1053.24 1498.34,1049.91 1501.5,1047.5 Z"/></g>
<g><path style="opacity:1" fill="#80807f" d="M 1429.5,1052.5 C 1429.81,1054.92 1429.47,1057.26 1428.5,1059.5C 1427.61,1058.68 1427.28,1057.68 1427.5,1056.5C 1428.17,1055.17 1428.83,1053.83 1429.5,1052.5 Z"/></g>
<g><path style="opacity:1" fill="#c63635" d="M 1496.5,1057.5 C 1491.42,1070.2 1484.76,1081.87 1476.5,1092.5C 1476.68,1086.77 1479.18,1082.44 1484,1079.5C 1487.71,1073.03 1491.05,1066.37 1494,1059.5C 1494.71,1058.62 1495.54,1057.95 1496.5,1057.5 Z"/></g>
<g><path style="opacity:1" fill="#c73332" d="M 1476.5,1092.5 C 1473.27,1098.73 1469.27,1104.39 1464.5,1109.5C 1465.99,1101.96 1469.99,1096.29 1476.5,1092.5 Z"/></g>
<g><path style="opacity:1" fill="#c23534" d="M 1464.5,1109.5 C 1460.25,1116.09 1455.25,1122.09 1449.5,1127.5C 1449.34,1126.13 1449.51,1124.79 1450,1123.5C 1454.2,1118.01 1459.04,1113.34 1464.5,1109.5 Z"/></g>
<g><path style="opacity:1" fill="#b53231" d="M 1449.5,1127.5 C 1445.46,1132.54 1440.79,1136.87 1435.5,1140.5C 1436,1137.99 1437.33,1135.99 1439.5,1134.5C 1442.87,1132.12 1446.2,1129.78 1449.5,1127.5 Z"/></g>
<g><path style="opacity:1" fill="#bc3537" d="M 1440.5,1109.5 C 1437.62,1121.12 1433.96,1132.46 1429.5,1143.5C 1430.5,1143.5 1431.5,1143.5 1432.5,1143.5C 1430.17,1146.67 1427.33,1149.33 1424,1151.5C 1423.83,1150.83 1423.67,1150.17 1423.5,1149.5C 1430.28,1136.61 1435.95,1123.27 1440.5,1109.5 Z"/></g>
</svg>
