<?xml version="1.0" encoding="UTF-8"?>
<!DOCTYPE svg PUBLIC "-//W3C//DTD SVG 1.1//EN" "http://www.w3.org/Graphics/SVG/1.1/DTD/svg11.dtd">
<svg xmlns="http://www.w3.org/2000/svg" version="1.1" width="1024px" height="1024px" style="shape-rendering:geometricPrecision; text-rendering:geometricPrecision; image-rendering:optimizeQuality; fill-rule:evenodd; clip-rule:evenodd" xmlns:xlink="http://www.w3.org/1999/xlink">
<g><path style="opacity:1" fill="#fe4c36" d="M 648.5,150.5 C 651.597,150.571 654.93,150.738 658.5,151C 693.368,164.536 721.868,186.369 744,216.5C 760.971,240.348 772.471,265.348 778.5,291.5C 780.791,302.284 781.124,313.284 779.5,324.5C 779.353,327.253 780.02,329.753 781.5,332C 783.903,332.63 785.737,331.797 787,329.5C 790.379,323.373 793.379,317.039 796,310.5C 798.183,307.83 800.683,307.163 803.5,308.5C 802.448,308.351 801.448,308.517 800.5,309C 803.276,309.066 805.442,310.232 807,312.5C 810.316,318.779 812.649,325.445 814,332.5C 816.448,348.226 817.948,363.893 818.5,379.5C 817.19,391.052 814.856,402.385 811.5,413.5C 805.949,428.264 797.616,441.264 786.5,452.5C 780.454,457.881 774.121,462.881 767.5,467.5C 767.44,466.957 767.107,466.624 766.5,466.5C 753.224,475.093 738.89,481.26 723.5,485C 722.262,485.69 722.262,486.19 723.5,486.5C 719.368,487.863 715.035,488.863 710.5,489.5C 703.001,488.5 695.334,488.5 687.5,489.5C 677.755,488.74 668.089,487.407 658.5,485.5C 657.584,485.543 656.917,485.876 656.5,486.5C 603.388,470.055 570.722,434.722 558.5,380.5C 559.331,369.007 559.831,357.341 560,345.5C 560.793,340.241 561.959,335.075 563.5,330C 563.43,329.235 563.097,328.735 562.5,328.5C 568.087,311.316 576.753,295.982 588.5,282.5C 588.833,282.5 589.167,282.5 589.5,282.5C 601.301,272.215 612.968,261.048 624.5,249C 623.906,248.536 623.239,248.369 622.5,248.5C 648.509,222.796 655.842,192.463 644.5,157.5C 644.081,153.988 645.414,151.654 648.5,150.5 Z"/></g>
<g><path style="opacity:1" fill="#fd2b1b" d="M 778.5,291.5 C 772.471,265.348 760.971,240.348 744,216.5C 721.868,186.369 693.368,164.536 658.5,151C 654.93,150.738 651.597,150.571 648.5,150.5C 651.183,148.719 654.183,148.219 657.5,149C 713.189,171.689 751.689,211.189 773,267.5C 775.468,275.371 777.301,283.371 778.5,291.5 Z"/></g>
<g><path style="opacity:1" fill="#fe1407" d="M 622.5,248.5 C 623.239,248.369 623.906,248.536 624.5,249C 612.968,261.048 601.301,272.215 589.5,282.5C 600.5,271.167 611.5,259.833 622.5,248.5 Z"/></g>
<g><path style="opacity:1" fill="#0f1417" d="M 362.5,272.5 C 364.199,272.34 365.866,272.506 367.5,273C 335.85,276.089 307.016,286.589 281,304.5C 280.536,303.906 280.369,303.239 280.5,302.5C 305.206,285.595 332.539,275.595 362.5,272.5 Z"/></g>
<g><path style="opacity:1" fill="#fd1f12" d="M 803.5,308.5 C 805.371,308.859 806.871,309.859 808,311.5C 813.669,323.173 817.002,335.507 818,348.5C 818.5,358.828 818.666,369.161 818.5,379.5C 817.948,363.893 816.448,348.226 814,332.5C 812.649,325.445 810.316,318.779 807,312.5C 805.442,310.232 803.276,309.066 800.5,309C 801.448,308.517 802.448,308.351 803.5,308.5 Z"/></g>
<g><path style="opacity:1" fill="#fd2819" d="M 562.5,328.5 C 563.097,328.735 563.43,329.235 563.5,330C 561.959,335.075 560.793,340.241 560,345.5C 559.831,357.341 559.331,369.007 558.5,380.5C 556.214,362.826 557.547,345.492 562.5,328.5 Z"/></g>
<g><path style="opacity:1" fill="#0a0f12" d="M 237.5,344.5 C 238.239,344.369 238.906,344.536 239.5,345C 231.264,355.966 224.43,367.8 219,380.5C 218.31,381.738 217.81,381.738 217.5,380.5C 222.633,367.56 229.3,355.56 237.5,344.5 Z"/></g>
<g><path style="opacity:1" fill="#12161a" d="M 216.5,382.5 C 217.043,382.56 217.376,382.893 217.5,383.5C 205.932,411.808 201.932,441.142 205.5,471.5C 205.043,472.298 204.376,472.631 203.5,472.5C 200.002,441.316 204.336,411.316 216.5,382.5 Z"/></g>
<g><path style="opacity:1" fill="#14181b" d="M 804.5,525.5 C 794.795,549.261 781.795,570.928 765.5,590.5C 764.475,590.103 764.308,589.437 765,588.5C 780.513,569.297 793.179,548.297 803,525.5C 803.69,524.262 804.19,524.262 804.5,525.5 Z"/></g>
<g><path style="opacity:1" fill="#0d2930" d="M 362.5,272.5 C 420.41,267.414 470.244,285.081 512,325.5C 533.423,304.035 558.923,289.702 588.5,282.5C 576.753,295.982 568.087,311.316 562.5,328.5C 557.134,331.021 552.134,334.188 547.5,338C 537.766,347.065 528.766,356.731 520.5,367C 514.833,370.333 509.167,370.333 503.5,367C 476.299,333.07 441.299,312.57 398.5,305.5C 399.552,305.649 400.552,305.483 401.5,305C 390.878,303.489 380.211,303.156 369.5,304C 364.627,304.175 361.294,305.008 359.5,306.5C 291.905,321.598 251.405,363.264 238,431.5C 234.669,454.643 236.502,477.31 243.5,499.5C 242.876,499.917 242.543,500.584 242.5,501.5C 247.662,517.501 254.829,532.501 264,546.5C 272.949,559.117 282.283,571.45 292,583.5C 292.383,582.944 292.883,582.611 293.5,582.5C 308.103,599.107 323.103,615.441 338.5,631.5C 337.475,631.897 337.308,632.563 338,633.5C 358.056,653.222 377.723,673.222 397,693.5C 397.383,692.944 397.883,692.611 398.5,692.5C 410.833,705.5 423.5,718.167 436.5,730.5C 435.227,731.077 435.227,731.743 436.5,732.5C 459.378,755.546 482.711,778.046 506.5,800C 510.234,800.491 513.901,800.824 517.5,801C 517.167,800.667 516.833,800.333 516.5,800C 528.333,788.167 540.167,776.333 552,764.5C 553.094,762.922 553.928,761.255 554.5,759.5C 606.772,707.728 658.938,655.728 711,603.5C 730.965,582.21 748.631,559.21 764,534.5C 778.678,509.118 786.178,481.784 786.5,452.5C 797.616,441.264 805.949,428.264 811.5,413.5C 815.342,418.861 817.842,424.861 819,431.5C 822.489,464.224 817.656,495.557 804.5,525.5C 804.19,524.262 803.69,524.262 803,525.5C 793.179,548.297 780.513,569.297 765,588.5C 764.308,589.437 764.475,590.103 765.5,590.5C 748.582,611.421 730.582,631.421 711.5,650.5C 691.7,668.791 672.033,687.957 652.5,708C 652.728,708.399 653.062,708.565 653.5,708.5C 617.498,744.502 581.165,780.168 544.5,815.5C 544.103,814.475 543.437,814.308 542.5,815C 535.72,822.786 528.053,829.453 519.5,835C 511.502,837.352 503.835,836.519 496.5,832.5C 495.893,832.624 495.56,832.957 495.5,833.5C 494.833,833.5 494.5,833.167 494.5,832.5C 451.668,789.168 408.668,746.002 365.5,703C 364.563,702.308 363.897,702.475 363.5,703.5C 360.5,701.167 357.833,698.5 355.5,695.5C 355.611,694.883 355.944,694.383 356.5,694C 321.787,661.296 289.287,626.796 259,590.5C 242.033,569.583 228.366,546.583 218,521.5C 217.31,520.262 216.81,520.262 216.5,521.5C 209.845,505.884 205.511,489.551 203.5,472.5C 204.376,472.631 205.043,472.298 205.5,471.5C 201.932,441.142 205.932,411.808 217.5,383.5C 217.376,382.893 217.043,382.56 216.5,382.5C 216.328,381.508 216.662,380.842 217.5,380.5C 217.81,381.738 218.31,381.738 219,380.5C 224.43,367.8 231.264,355.966 239.5,345C 238.906,344.536 238.239,344.369 237.5,344.5C 249.209,327.79 263.543,313.79 280.5,302.5C 280.369,303.239 280.536,303.906 281,304.5C 307.016,286.589 335.85,276.089 367.5,273C 365.866,272.506 364.199,272.34 362.5,272.5 Z"/></g>
<g><path style="opacity:1" fill="#fe2b1a" d="M 656.5,486.5 C 656.917,485.876 657.584,485.543 658.5,485.5C 668.089,487.407 677.755,488.74 687.5,489.5C 695.334,488.5 703.001,488.5 710.5,489.5C 692.312,492.151 674.312,491.151 656.5,486.5 Z"/></g>
<g><path style="opacity:1" fill="#fd2416" d="M 767.5,467.5 C 754.042,476.56 739.376,482.894 723.5,486.5C 722.262,486.19 722.262,485.69 723.5,485C 738.89,481.26 753.224,475.093 766.5,466.5C 767.107,466.624 767.44,466.957 767.5,467.5 Z"/></g>
<g><path style="opacity:1" fill="#12171a" d="M 398.5,305.5 C 385.48,305.313 372.48,305.646 359.5,306.5C 361.294,305.008 364.627,304.175 369.5,304C 380.211,303.156 390.878,303.489 401.5,305C 400.552,305.483 399.552,305.649 398.5,305.5 Z"/></g>
<g><path style="opacity:1" fill="#121619" d="M 243.5,499.5 C 248.441,515.048 255.274,529.715 264,543.5C 272.897,557.228 282.731,570.228 293.5,582.5C 292.883,582.611 292.383,582.944 292,583.5C 282.283,571.45 272.949,559.117 264,546.5C 254.829,532.501 247.662,517.501 242.5,501.5C 242.543,500.584 242.876,499.917 243.5,499.5 Z"/></g>
<g><path style="opacity:1" fill="#121619" d="M 355.5,695.5 C 335.95,675.449 316.116,655.449 296,635.5C 282.764,620.687 269.764,605.687 257,590.5C 239.992,569.635 226.492,546.635 216.5,521.5C 216.81,520.262 217.31,520.262 218,521.5C 228.366,546.583 242.033,569.583 259,590.5C 289.287,626.796 321.787,661.296 356.5,694C 355.944,694.383 355.611,694.883 355.5,695.5 Z"/></g>
<g><path style="opacity:1" fill="#020609" d="M 711.5,650.5 C 692.5,670.167 673.167,689.5 653.5,708.5C 653.062,708.565 652.728,708.399 652.5,708C 672.033,687.957 691.7,668.791 711.5,650.5 Z"/></g>
<g><path style="opacity:1" fill="#111519" d="M 338.5,631.5 C 358.5,651.833 378.5,672.167 398.5,692.5C 397.883,692.611 397.383,692.944 397,693.5C 377.723,673.222 358.056,653.222 338,633.5C 337.308,632.563 337.475,631.897 338.5,631.5 Z"/></g>
<g><path style="opacity:1" fill="#171f23" d="M 363.5,703.5 C 363.897,702.475 364.563,702.308 365.5,703C 408.668,746.002 451.668,789.168 494.5,832.5C 449.864,790.531 406.197,747.531 363.5,703.5 Z"/></g>
<g><path style="opacity:1" fill="#151c20" d="M 436.5,730.5 C 460.328,753.494 484.328,776.328 508.5,799C 511.783,799.743 514.783,799.076 517.5,797C 529.312,784.021 541.645,771.521 554.5,759.5C 553.928,761.255 553.094,762.922 552,764.5C 540.167,776.333 528.333,788.167 516.5,800C 516.833,800.333 517.167,800.667 517.5,801C 513.901,800.824 510.234,800.491 506.5,800C 482.711,778.046 459.378,755.546 436.5,732.5C 435.227,731.743 435.227,731.077 436.5,730.5 Z"/></g>
<g><path style="opacity:1" fill="#080b0e" d="M 544.5,815.5 C 537.671,822.162 530.671,828.662 523.5,835C 513.881,838.717 504.547,838.217 495.5,833.5C 495.56,832.957 495.893,832.624 496.5,832.5C 503.835,836.519 511.502,837.352 519.5,835C 528.053,829.453 535.72,822.786 542.5,815C 543.437,814.308 544.103,814.475 544.5,815.5 Z"/></g>
</svg>
