<?xml version="1.0" encoding="UTF-8"?>
<!DOCTYPE svg PUBLIC "-//W3C//DTD SVG 1.1//EN" "http://www.w3.org/Graphics/SVG/1.1/DTD/svg11.dtd">
<svg xmlns="http://www.w3.org/2000/svg" version="1.1" width="2048px" height="2048px" style="shape-rendering:geometricPrecision; text-rendering:geometricPrecision; image-rendering:optimizeQuality; fill-rule:evenodd; clip-rule:evenodd" xmlns:xlink="http://www.w3.org/1999/xlink">
<g><path style="opacity:1" fill="#080707" d="M 1207.5,369.5 C 1210.52,369.335 1213.52,369.502 1216.5,370C 1271.81,402.644 1316.64,446.144 1351,500.5C 1391.05,564.328 1413.38,633.994 1418,709.5C 1419.65,731.857 1419.82,754.19 1418.5,776.5C 1423.9,778.47 1429.23,777.97 1434.5,775C 1441.89,770.277 1447.05,763.777 1450,755.5C 1453.43,746.79 1455.76,737.79 1457,728.5C 1458.67,712.18 1459,695.847 1458,679.5C 1462.22,672.202 1468.05,670.369 1475.5,674C 1495.35,700.848 1511.18,730.015 1523,761.5C 1554.86,845.905 1558.86,931.572 1535,1018.5C 1513.49,1089.89 1471.83,1146.22 1410,1187.5C 1394.21,1225.24 1373.54,1259.91 1348,1291.5C 1337.67,1304.17 1327.33,1316.83 1317,1329.5C 1292.37,1357.13 1267.37,1384.47 1242,1411.5C 1150.24,1503.06 1055.07,1590.56 956.5,1674C 951.307,1678.97 945.64,1679.64 939.5,1676C 833.455,1586.64 731.622,1492.14 634,1392.5C 601.84,1358.35 571.173,1323.02 542,1286.5C 525.838,1264.85 511.172,1242.19 498,1218.5C 456.738,1138.17 453.738,1056.51 489,973.5C 533.995,884.715 606.161,834.548 705.5,823C 792.253,817.567 864.753,846.733 923,910.5C 931.487,920.809 939.487,931.476 947,942.5C 958.438,924.055 972.438,907.722 989,893.5C 985.749,858.08 991.415,824.08 1006,791.5C 1018.33,767.5 1030.67,743.5 1043,719.5C 1059.89,684.47 1063.06,648.303 1052.5,611C 1055.08,600.688 1061.41,597.355 1071.5,601C 1099.27,614.098 1118.77,634.932 1130,663.5C 1135.22,676.399 1138.89,689.732 1141,703.5C 1191.42,627.894 1215.75,544.561 1214,453.5C 1211.89,428.975 1207.73,404.808 1201.5,381C 1201.56,376.045 1203.56,372.212 1207.5,369.5 Z M 1270.5,744.5 C 1295.41,773.627 1316.24,805.627 1333,840.5C 1339.84,856.511 1343.5,873.177 1344,890.5C 1318.78,867.296 1289.95,849.796 1257.5,838C 1244.23,833.574 1230.89,829.574 1217.5,826C 1241.32,802.855 1258.99,775.689 1270.5,744.5 Z M 1259.5,1362.5 C 1255.5,1365.83 1251.83,1369.5 1248.5,1373.5C 1238.11,1384.22 1227.78,1394.89 1217.5,1405.5C 1215.5,1406.83 1213.83,1408.5 1212.5,1410.5C 1209.17,1414.5 1205.5,1418.17 1201.5,1421.5C 1198.5,1423.83 1195.83,1426.5 1193.5,1429.5C 1192.5,1429.83 1191.83,1430.5 1191.5,1431.5C 1187.83,1434.5 1184.5,1437.83 1181.5,1441.5C 1172.17,1450.17 1163.17,1459.17 1154.5,1468.5C 1149.89,1471.44 1145.89,1475.1 1142.5,1479.5C 1133.53,1486.8 1125.2,1494.8 1117.5,1503.5C 1113.9,1505.43 1110.9,1508.1 1108.5,1511.5C 1104.81,1514.86 1101.14,1518.2 1097.5,1521.5C 1094.5,1523.83 1091.83,1526.5 1089.5,1529.5C 1043.26,1571.58 996.26,1612.74 948.5,1653C 947.167,1653.67 945.833,1653.67 944.5,1653C 840.011,1564.52 739.845,1471.02 644,1372.5C 611.834,1337.68 581.167,1301.68 552,1264.5C 533.877,1239.94 518.543,1213.6 506,1185.5C 471.611,1099.71 480.277,1018.71 532,942.5C 584.861,873.495 655.028,840.661 742.5,844C 829.432,851.703 894.266,893.203 937,968.5C 943.367,975.079 949.7,975.079 956,968.5C 988.311,910.869 1036.14,872.369 1099.5,853C 1183.33,831.164 1258.67,847.497 1325.5,902C 1395.47,967.299 1420.97,1047.13 1402,1141.5C 1394.35,1173.13 1382.01,1202.8 1365,1230.5C 1344.85,1261.78 1322.52,1291.45 1298,1319.5C 1284.96,1333.7 1272.13,1348.04 1259.5,1362.5 Z M 1429.5,1052.5 C 1428.83,1053.83 1428.17,1055.17 1427.5,1056.5C 1424.09,1020.51 1413.42,986.848 1395.5,955.5C 1399.59,948.997 1403.42,942.33 1407,935.5C 1422.51,972.902 1430.01,1011.9 1429.5,1052.5 Z"/></g>
<g><path style="opacity:1" fill="#47070b" d="M 1232.5,403.5 C 1233.17,403.5 1233.83,403.5 1234.5,403.5C 1235.5,404.833 1236.5,406.167 1237.5,407.5C 1235.25,406.92 1233.58,405.587 1232.5,403.5 Z"/></g>
<g><path style="opacity:1" fill="#c93c3b" d="M 1232.5,403.5 C 1233.58,405.587 1235.25,406.92 1237.5,407.5C 1239.36,408.939 1241.03,410.605 1242.5,412.5C 1238.68,411.419 1235.02,410.086 1231.5,408.5C 1232.02,414.047 1233.02,419.38 1234.5,424.5C 1234.6,432.179 1234.93,439.846 1235.5,447.5C 1233.88,436.664 1232.38,425.664 1231,414.5C 1230.43,412.277 1229.6,410.277 1228.5,408.5C 1228.2,406.396 1228.53,404.396 1229.5,402.5C 1230.42,403.127 1231.42,403.461 1232.5,403.5 Z"/></g>
<g><path style="opacity:1" fill="#350705" d="M 1237.5,407.5 C 1238.87,407.343 1240.21,407.51 1241.5,408C 1242.66,409.992 1244,411.825 1245.5,413.5C 1244.39,413.443 1243.39,413.11 1242.5,412.5C 1241.03,410.605 1239.36,408.939 1237.5,407.5 Z"/></g>
<g><path style="opacity:1" fill="#450709" d="M 1245.5,413.5 C 1246.17,413.5 1246.83,413.5 1247.5,413.5C 1248.5,414.833 1249.5,416.167 1250.5,417.5C 1248.25,416.92 1246.58,415.587 1245.5,413.5 Z"/></g>
<g><path style="opacity:1" fill="#440609" d="M 1250.5,417.5 C 1253.43,418.757 1255.76,420.757 1257.5,423.5C 1254.57,422.243 1252.24,420.243 1250.5,417.5 Z"/></g>
<g><path style="opacity:1" fill="#ea2929" d="M 1242.5,412.5 C 1243.38,417.048 1246.05,420.048 1250.5,421.5C 1255.37,428.867 1261.7,434.7 1269.5,439C 1276.25,446.419 1283.42,453.585 1291,460.5C 1294.22,467.219 1299.05,472.553 1305.5,476.5C 1309.42,480.819 1313.42,485.153 1317.5,489.5C 1317.86,494.218 1320.19,497.551 1324.5,499.5C 1324.34,500.873 1324.51,502.207 1325,503.5C 1335.92,520.34 1346.09,537.674 1355.5,555.5C 1355.96,556.298 1356.62,556.631 1357.5,556.5C 1357.58,559.327 1358.25,561.994 1359.5,564.5C 1363.99,577.474 1368.32,590.474 1372.5,603.5C 1373.5,603.5 1374.5,603.5 1375.5,603.5C 1377.08,610.07 1378.25,616.736 1379,623.5C 1380.03,625.994 1381.2,628.328 1382.5,630.5C 1383.51,633.721 1384.34,637.054 1385,640.5C 1385.38,641.056 1385.88,641.389 1386.5,641.5C 1387.94,651.814 1389.27,662.147 1390.5,672.5C 1394.28,711.416 1395.45,750.416 1394,789.5C 1397.28,791.617 1399.12,794.617 1399.5,798.5C 1402.95,798.446 1405.12,800.113 1406,803.5C 1406.33,802.833 1406.67,802.167 1407,801.5C 1418.67,803.354 1430.17,802.521 1441.5,799C 1442.76,798.583 1443.42,797.75 1443.5,796.5C 1452.89,792.107 1459.56,785.107 1463.5,775.5C 1465.45,774.284 1466.95,772.618 1468,770.5C 1468.27,767.285 1469.61,764.619 1472,762.5C 1473.98,754.085 1476.15,745.751 1478.5,737.5C 1480.31,736.082 1480.97,734.082 1480.5,731.5C 1481.5,731.5 1482.5,731.5 1483.5,731.5C 1486.5,738.194 1489,745.194 1491,752.5C 1493.07,755.588 1494.74,758.921 1496,762.5C 1497.69,763.699 1499.19,765.032 1500.5,766.5C 1500.89,769.839 1501.39,773.173 1502,776.5C 1507.81,785.95 1510.81,796.283 1511,807.5C 1511.62,809.116 1512.62,810.449 1514,811.5C 1514.52,816.897 1515.36,822.231 1516.5,827.5C 1515.74,832.61 1515.4,837.61 1515.5,842.5C 1518.72,848.664 1521.06,855.331 1522.5,862.5C 1522,863.716 1521.67,864.883 1521.5,866C 1523.54,872.518 1525.21,879.018 1526.5,885.5C 1526.79,911.197 1526.12,936.864 1524.5,962.5C 1523.84,966.466 1523.5,970.466 1523.5,974.5C 1521.71,977.597 1520.21,980.93 1519,984.5C 1518.44,990.584 1517.61,996.584 1516.5,1002.5C 1515,1005.05 1513.5,1007.71 1512,1010.5C 1511.31,1016.69 1510.15,1022.69 1508.5,1028.5C 1504.32,1032.66 1501.49,1037.66 1500,1043.5C 1499.5,1045.81 1499.34,1048.14 1499.5,1050.5C 1499.29,1053.24 1498.29,1055.57 1496.5,1057.5C 1493.63,1061.38 1490.8,1065.38 1488,1069.5C 1484.78,1078.28 1480.28,1086.28 1474.5,1093.5C 1473.57,1094.69 1473.24,1096.02 1473.5,1097.5C 1471.54,1099.28 1469.37,1100.95 1467,1102.5C 1465.59,1104.65 1464.76,1106.98 1464.5,1109.5C 1462.01,1111.35 1459.51,1113.35 1457,1115.5C 1455.04,1118.46 1452.71,1121.13 1450,1123.5C 1449.52,1124.45 1449.35,1125.45 1449.5,1126.5C 1449.5,1126.83 1449.5,1127.17 1449.5,1127.5C 1446.73,1129.09 1444.07,1130.92 1441.5,1133C 1440.66,1134.01 1440.33,1135.18 1440.5,1136.5C 1438.14,1138.53 1435.81,1140.53 1433.5,1142.5C 1432.17,1142.5 1430.83,1142.5 1429.5,1142.5C 1432.83,1131.5 1437,1120.84 1442,1110.5C 1448.22,1079.82 1450.22,1048.82 1448,1017.5C 1446.56,1006.52 1445.23,995.516 1444,984.5C 1441.21,976.689 1439.05,968.689 1437.5,960.5C 1436.43,956.371 1435.43,952.204 1434.5,948C 1435.88,944.307 1434.71,941.473 1431,939.5C 1430.67,937.833 1430.33,936.167 1430,934.5C 1428.67,933.833 1427.67,932.833 1427,931.5C 1425.58,925.689 1423.91,920.022 1422,914.5C 1420.53,911.704 1418.69,909.204 1416.5,907C 1415.21,906.51 1413.87,906.343 1412.5,906.5C 1409.92,902.137 1406.25,901.304 1401.5,904C 1395.74,906.639 1392.74,911.139 1392.5,917.5C 1389.68,922.142 1387.68,927.142 1386.5,932.5C 1382.71,933.047 1380.71,931.38 1380.5,927.5C 1379.68,926.614 1378.68,926.281 1377.5,926.5C 1374.79,922.433 1372.45,918.099 1370.5,913.5C 1369.15,911.981 1367.65,910.648 1366,909.5C 1366.19,896.687 1365.02,884.021 1362.5,871.5C 1362.25,870.287 1361.59,869.62 1360.5,869.5C 1360.5,868.167 1360.5,866.833 1360.5,865.5C 1359.28,855.183 1356.28,845.516 1351.5,836.5C 1350.07,835.22 1349.4,833.553 1349.5,831.5C 1349.16,829.146 1348.66,826.813 1348,824.5C 1344.24,819.228 1341.24,813.561 1339,807.5C 1336.39,803.258 1333.56,799.258 1330.5,795.5C 1330.5,794.833 1330.5,794.167 1330.5,793.5C 1330.66,792.127 1330.49,790.793 1330,789.5C 1326,783.538 1322,777.538 1318,771.5C 1316.53,770.733 1315.03,770.067 1313.5,769.5C 1311.46,768.421 1310.12,766.754 1309.5,764.5C 1307.6,756.674 1303.26,750.674 1296.5,746.5C 1295.44,743.484 1294.27,740.484 1293,737.5C 1289.92,733.676 1287.09,729.676 1284.5,725.5C 1280.88,721.923 1277.21,718.423 1273.5,715C 1272.21,714.51 1270.87,714.343 1269.5,714.5C 1262.72,714.456 1257.89,717.456 1255,723.5C 1254.5,727.51 1254,731.51 1253.5,735.5C 1253.5,736.833 1253.5,738.167 1253.5,739.5C 1252.83,740.167 1252.17,740.833 1251.5,741.5C 1250.07,743.148 1249.24,745.148 1249,747.5C 1245.64,749.534 1243.97,752.534 1244,756.5C 1241.23,761.039 1238.73,765.706 1236.5,770.5C 1230.8,776.853 1225.3,783.52 1220,790.5C 1218.47,795.193 1215.64,798.859 1211.5,801.5C 1210.57,802.689 1210.24,804.022 1210.5,805.5C 1204.1,809.728 1198.43,814.895 1193.5,821C 1177.51,820.532 1161.51,820.532 1145.5,821C 1143.94,821.21 1142.61,821.71 1141.5,822.5C 1141.17,822.5 1140.83,822.5 1140.5,822.5C 1131.09,822.91 1121.76,824.076 1112.5,826C 1110.51,826.374 1108.84,827.207 1107.5,828.5C 1102.48,828.752 1097.48,829.252 1092.5,830C 1089.68,831.75 1087.01,833.583 1084.5,835.5C 1083.5,835.5 1082.5,835.5 1081.5,835.5C 1076.47,835.18 1071.8,836.347 1067.5,839C 1061.97,841.928 1056.64,845.094 1051.5,848.5C 1050.39,848.557 1049.39,848.89 1048.5,849.5C 1046.69,849.491 1045.02,849.991 1043.5,851C 1041.25,852.277 1039.25,853.777 1037.5,855.5C 1034.78,856.352 1032.11,857.519 1029.5,859C 1023.66,863.909 1017.32,867.742 1010.5,870.5C 1010.33,864.158 1010.5,857.825 1011,851.5C 1015.18,836.449 1019.51,821.449 1024,806.5C 1035.45,783.938 1047.11,761.605 1059,739.5C 1063.42,729.342 1067.25,719.009 1070.5,708.5C 1072.02,705.417 1073.02,702.084 1073.5,698.5C 1073.5,698.167 1073.5,697.833 1073.5,697.5C 1076.12,693.525 1078.29,689.192 1080,684.5C 1082.21,669.256 1083.04,653.922 1082.5,638.5C 1085.09,638.461 1087.09,639.461 1088.5,641.5C 1091.53,643.86 1094.19,646.527 1096.5,649.5C 1096.27,652.785 1097.6,655.285 1100.5,657C 1100.04,657.414 1099.71,657.914 1099.5,658.5C 1104.08,664.491 1107.75,670.991 1110.5,678C 1111.39,682.151 1112.22,686.318 1113,690.5C 1114.47,691.381 1115.3,692.714 1115.5,694.5C 1117.94,707.214 1119.6,719.881 1120.5,732.5C 1122.7,741.519 1128.36,745.019 1137.5,743C 1144.34,736.496 1150.84,729.662 1157,722.5C 1157.5,720.482 1158,718.482 1158.5,716.5C 1163.94,711.937 1167.61,706.27 1169.5,699.5C 1171.84,697.996 1173.67,695.996 1175,693.5C 1182.33,679.844 1189.33,666.177 1196,652.5C 1196.49,651.207 1196.66,649.873 1196.5,648.5C 1197.72,647.972 1198.89,647.305 1200,646.5C 1205.06,635.616 1208.89,624.283 1211.5,612.5C 1214.09,605.906 1216.59,599.239 1219,592.5C 1219.5,589.854 1219.66,587.187 1219.5,584.5C 1219.5,584.167 1219.5,583.833 1219.5,583.5C 1223.63,578.332 1225.3,572.332 1224.5,565.5C 1225.15,563.565 1225.48,561.565 1225.5,559.5C 1225.5,558.167 1225.5,556.833 1225.5,555.5C 1226.17,554.833 1226.83,554.167 1227.5,553.5C 1228.34,553.158 1228.67,552.492 1228.5,551.5C 1229.62,549.255 1230.79,546.921 1232,544.5C 1237.68,512.432 1240.01,480.099 1239,447.5C 1240.69,448.325 1240.85,449.325 1239.5,450.5C 1240.72,451.614 1242.06,451.781 1243.5,451C 1243,450.5 1242.5,450 1242,449.5C 1241.67,445.5 1241.33,441.5 1241,437.5C 1239.77,440.3 1239.1,443.3 1239,446.5C 1237.47,439.027 1235.97,431.693 1234.5,424.5C 1233.02,419.38 1232.02,414.047 1231.5,408.5C 1235.02,410.086 1238.68,411.419 1242.5,412.5 Z"/></g>
<g><path style="opacity:1" fill="#1a0101" d="M 1234.5,403.5 C 1233.83,403.5 1233.17,403.5 1232.5,403.5C 1231.42,403.461 1230.42,403.127 1229.5,402.5C 1228.53,404.396 1228.2,406.396 1228.5,408.5C 1230.46,418.4 1231.8,428.4 1232.5,438.5C 1230.56,430.752 1228.56,422.919 1226.5,415C 1226.6,410.045 1226.6,404.878 1226.5,399.5C 1230.31,398.774 1232.97,400.107 1234.5,403.5 Z"/></g>
<g><path style="opacity:1" fill="#49070c" d="M 1257.5,423.5 C 1261.1,425.43 1264.1,428.097 1266.5,431.5C 1264.25,430.585 1262.25,429.252 1260.5,427.5C 1259.5,426.167 1258.5,424.833 1257.5,423.5 Z"/></g>
<g><path style="opacity:1" fill="#160100" d="M 1247.5,413.5 C 1252.52,416.674 1257.52,419.84 1262.5,423C 1269.64,429.804 1276.47,436.971 1283,444.5C 1283.33,444.167 1283.67,443.833 1284,443.5C 1286.49,447.391 1289.49,450.725 1293,453.5C 1293.48,454.448 1293.65,455.448 1293.5,456.5C 1294.68,456.281 1295.68,456.614 1296.5,457.5C 1304.53,466.426 1311.19,476.093 1316.5,486.5C 1312.87,482.533 1309.2,478.533 1305.5,474.5C 1302.45,469.08 1298.45,464.413 1293.5,460.5C 1291.57,457.233 1289.24,454.233 1286.5,451.5C 1286.63,450.761 1286.46,450.094 1286,449.5C 1279.91,442.904 1273.41,436.904 1266.5,431.5C 1264.1,428.097 1261.1,425.43 1257.5,423.5C 1255.76,420.757 1253.43,418.757 1250.5,417.5C 1249.5,416.167 1248.5,414.833 1247.5,413.5 Z"/></g>
<g><path style="opacity:1" fill="#3c0302" d="M 1266.5,431.5 C 1273.41,436.904 1279.91,442.904 1286,449.5C 1286.46,450.094 1286.63,450.761 1286.5,451.5C 1282.5,447.833 1278.5,444.167 1274.5,440.5C 1271.83,437.5 1269.17,434.5 1266.5,431.5 Z"/></g>
<g><path style="opacity:1" fill="#db3130" d="M 1242.5,412.5 C 1243.39,413.11 1244.39,413.443 1245.5,413.5C 1246.58,415.587 1248.25,416.92 1250.5,417.5C 1252.24,420.243 1254.57,422.243 1257.5,423.5C 1258.5,424.833 1259.5,426.167 1260.5,427.5C 1260.86,429.371 1261.86,430.871 1263.5,432C 1267.06,435.073 1270.73,437.906 1274.5,440.5C 1280.11,447.778 1286.44,454.444 1293.5,460.5C 1295.67,466.671 1299.67,471.337 1305.5,474.5C 1305.5,475.167 1305.5,475.833 1305.5,476.5C 1299.05,472.553 1294.22,467.219 1291,460.5C 1283.42,453.585 1276.25,446.419 1269.5,439C 1261.7,434.7 1255.37,428.867 1250.5,421.5C 1246.05,420.048 1243.38,417.048 1242.5,412.5 Z"/></g>
<g><path style="opacity:1" fill="#b33938" d="M 1260.5,427.5 C 1262.25,429.252 1264.25,430.585 1266.5,431.5C 1269.17,434.5 1271.83,437.5 1274.5,440.5C 1270.73,437.906 1267.06,435.073 1263.5,432C 1261.86,430.871 1260.86,429.371 1260.5,427.5 Z"/></g>
<g><path style="opacity:1" fill="#b13837" d="M 1274.5,440.5 C 1278.5,444.167 1282.5,447.833 1286.5,451.5C 1289.24,454.233 1291.57,457.233 1293.5,460.5C 1286.44,454.444 1280.11,447.778 1274.5,440.5 Z"/></g>
<g><path style="opacity:1" fill="#e12f2e" d="M 1234.5,424.5 C 1235.97,431.693 1237.47,439.027 1239,446.5C 1239.1,443.3 1239.77,440.3 1241,437.5C 1241.33,441.5 1241.67,445.5 1242,449.5C 1242.5,450 1243,450.5 1243.5,451C 1242.06,451.781 1240.72,451.614 1239.5,450.5C 1240.85,449.325 1240.69,448.325 1239,447.5C 1240.01,480.099 1237.68,512.432 1232,544.5C 1230.79,546.921 1229.62,549.255 1228.5,551.5C 1235.63,517.369 1237.96,483.036 1235.5,448.5C 1235.5,448.167 1235.5,447.833 1235.5,447.5C 1234.93,439.846 1234.6,432.179 1234.5,424.5 Z"/></g>
<g><path style="opacity:1" fill="#bb3837" d="M 1235.5,448.5 C 1237.96,483.036 1235.63,517.369 1228.5,551.5C 1228.67,552.492 1228.34,553.158 1227.5,553.5C 1227.5,552.167 1227.5,550.833 1227.5,549.5C 1227.5,548.167 1227.5,546.833 1227.5,545.5C 1228.92,543.485 1229.59,541.152 1229.5,538.5C 1229.5,537.5 1229.5,536.5 1229.5,535.5C 1231.18,531.455 1231.84,527.122 1231.5,522.5C 1231.5,521.5 1231.5,520.5 1231.5,519.5C 1232.27,518.737 1232.77,517.737 1233,516.5C 1233.62,507.503 1234.12,498.503 1234.5,489.5C 1235.5,476.01 1235.83,462.344 1235.5,448.5 Z"/></g>
<g><path style="opacity:1" fill="#5c0e10" d="M 1228.5,408.5 C 1229.6,410.277 1230.43,412.277 1231,414.5C 1232.38,425.664 1233.88,436.664 1235.5,447.5C 1235.5,447.833 1235.5,448.167 1235.5,448.5C 1235.83,462.344 1235.5,476.01 1234.5,489.5C 1234.67,476.829 1234.5,464.162 1234,451.5C 1233.82,447.975 1233.32,444.641 1232.5,441.5C 1232.5,440.5 1232.5,439.5 1232.5,438.5C 1231.8,428.4 1230.46,418.4 1228.5,408.5 Z"/></g>
<g><path style="opacity:1" fill="#c03737" d="M 1293.5,460.5 C 1298.45,464.413 1302.45,469.08 1305.5,474.5C 1299.67,471.337 1295.67,466.671 1293.5,460.5 Z"/></g>
<g><path style="opacity:1" fill="#b23534" d="M 1305.5,474.5 C 1309.2,478.533 1312.87,482.533 1316.5,486.5C 1317.11,487.391 1317.44,488.391 1317.5,489.5C 1313.42,485.153 1309.42,480.819 1305.5,476.5C 1305.5,475.833 1305.5,475.167 1305.5,474.5 Z"/></g>
<g><path style="opacity:1" fill="#b63633" d="M 1317.5,489.5 C 1319.5,491.833 1321.5,494.167 1323.5,496.5C 1324.11,497.391 1324.44,498.391 1324.5,499.5C 1320.19,497.551 1317.86,494.218 1317.5,489.5 Z"/></g>
<g><path style="opacity:1" fill="#be3737" d="M 1324.5,499.5 C 1332,509.824 1339,520.491 1345.5,531.5C 1347.44,536.09 1349.77,540.423 1352.5,544.5C 1354.17,548.5 1355.83,552.5 1357.5,556.5C 1356.62,556.631 1355.96,556.298 1355.5,555.5C 1346.09,537.674 1335.92,520.34 1325,503.5C 1324.51,502.207 1324.34,500.873 1324.5,499.5 Z"/></g>
<g><path style="opacity:1" fill="#230501" d="M 1345.5,531.5 C 1339,520.491 1332,509.824 1324.5,499.5C 1324.44,498.391 1324.11,497.391 1323.5,496.5C 1324.58,496.461 1325.58,496.127 1326.5,495.5C 1329,502.338 1332.84,508.338 1338,513.5C 1338.49,515.134 1338.66,516.801 1338.5,518.5C 1339.83,518.5 1341.17,518.5 1342.5,518.5C 1343.82,522.744 1344.82,527.078 1345.5,531.5 Z"/></g>
<g><path style="opacity:1" fill="#4c060a" d="M 1234.5,489.5 C 1234.12,498.503 1233.62,507.503 1233,516.5C 1232.77,517.737 1232.27,518.737 1231.5,519.5C 1231.84,509.29 1232.84,499.29 1234.5,489.5 Z"/></g>
<g><path style="opacity:1" fill="#621114" d="M 1231.5,522.5 C 1231.84,527.122 1231.18,531.455 1229.5,535.5C 1229.28,530.9 1229.95,526.567 1231.5,522.5 Z"/></g>
<g><path style="opacity:1" fill="#200300" d="M 1345.5,531.5 C 1347.03,532.067 1348.53,532.733 1350,533.5C 1351.69,536.981 1352.52,540.648 1352.5,544.5C 1349.77,540.423 1347.44,536.09 1345.5,531.5 Z"/></g>
<g><path style="opacity:1" fill="#52080b" d="M 1229.5,538.5 C 1229.59,541.152 1228.92,543.485 1227.5,545.5C 1227.17,542.772 1227.84,540.438 1229.5,538.5 Z"/></g>
<g><path style="opacity:1" fill="#180000" d="M 1232.5,441.5 C 1233.32,444.641 1233.82,447.975 1234,451.5C 1234.5,464.162 1234.67,476.829 1234.5,489.5C 1232.84,499.29 1231.84,509.29 1231.5,519.5C 1231.5,520.5 1231.5,521.5 1231.5,522.5C 1229.95,526.567 1229.28,530.9 1229.5,535.5C 1229.5,536.5 1229.5,537.5 1229.5,538.5C 1227.84,540.438 1227.17,542.772 1227.5,545.5C 1227.5,546.833 1227.5,548.167 1227.5,549.5C 1225.93,551.102 1225.26,553.102 1225.5,555.5C 1225.5,556.833 1225.5,558.167 1225.5,559.5C 1222.12,565.653 1220.12,572.319 1219.5,579.5C 1219.5,580.5 1219.5,581.5 1219.5,582.5C 1217.14,584.919 1216.14,587.919 1216.5,591.5C 1216.01,592.995 1215.34,594.329 1214.5,595.5C 1214.77,592.881 1214.44,590.381 1213.5,588C 1215.35,584.065 1217.01,580.065 1218.5,576C 1218.17,575.667 1217.83,575.333 1217.5,575C 1225.18,551.781 1229.68,527.948 1231,503.5C 1232.13,482.848 1232.63,462.182 1232.5,441.5 Z"/></g>
<g><path style="opacity:1" fill="#5c0c0f" d="M 1227.5,549.5 C 1227.5,550.833 1227.5,552.167 1227.5,553.5C 1226.83,554.167 1226.17,554.833 1225.5,555.5C 1225.26,553.102 1225.93,551.102 1227.5,549.5 Z"/></g>
<g><path style="opacity:1" fill="#270300" d="M 1362.5,564.5 C 1360.83,561.833 1359.17,559.167 1357.5,556.5C 1355.83,552.5 1354.17,548.5 1352.5,544.5C 1353.22,544.082 1353.72,543.416 1354,542.5C 1357.14,549.763 1359.97,557.096 1362.5,564.5 Z"/></g>
<g><path style="opacity:1" fill="#a93232" d="M 1357.5,556.5 C 1359.17,559.167 1360.83,561.833 1362.5,564.5C 1362.63,566.216 1362.96,567.883 1363.5,569.5C 1361.93,568.016 1360.59,566.349 1359.5,564.5C 1358.25,561.994 1357.58,559.327 1357.5,556.5 Z"/></g>
<g><path style="opacity:1" fill="#be3333" d="M 1224.5,565.5 C 1225.3,572.332 1223.63,578.332 1219.5,583.5C 1219.5,583.167 1219.5,582.833 1219.5,582.5C 1219.5,581.5 1219.5,580.5 1219.5,579.5C 1220.96,574.774 1222.62,570.108 1224.5,565.5 Z"/></g>
<g><path style="opacity:1" fill="#47070a" d="M 1225.5,559.5 C 1225.48,561.565 1225.15,563.565 1224.5,565.5C 1222.62,570.108 1220.96,574.774 1219.5,579.5C 1220.12,572.319 1222.12,565.653 1225.5,559.5 Z"/></g>
<g><path style="opacity:1" fill="#200100" d="M 1362.5,564.5 C 1364.66,567.471 1366.82,570.471 1369,573.5C 1370.16,577.782 1370.99,582.116 1371.5,586.5C 1369.14,580.768 1366.47,575.102 1363.5,569.5C 1362.96,567.883 1362.63,566.216 1362.5,564.5 Z"/></g>
<g><path style="opacity:1" fill="#50060b" d="M 1219.5,582.5 C 1219.5,582.833 1219.5,583.167 1219.5,583.5C 1219.5,583.833 1219.5,584.167 1219.5,584.5C 1218.35,586.779 1217.35,589.112 1216.5,591.5C 1216.14,587.919 1217.14,584.919 1219.5,582.5 Z"/></g>
<g><path style="opacity:1" fill="#972b2b" d="M 1363.5,569.5 C 1366.47,575.102 1369.14,580.768 1371.5,586.5C 1372.83,590.822 1374.16,595.155 1375.5,599.5C 1371.83,592.817 1368.66,585.817 1366,578.5C 1364.57,575.647 1363.74,572.647 1363.5,569.5 Z"/></g>
<g><path style="opacity:1" fill="#b52f2f" d="M 1219.5,584.5 C 1219.66,587.187 1219.5,589.854 1219,592.5C 1216.59,599.239 1214.09,605.906 1211.5,612.5C 1210.35,614.636 1209.01,616.636 1207.5,618.5C 1210.23,611.301 1212.57,603.967 1214.5,596.5C 1214.5,596.167 1214.5,595.833 1214.5,595.5C 1215.34,594.329 1216.01,592.995 1216.5,591.5C 1217.35,589.112 1218.35,586.779 1219.5,584.5 Z"/></g>
<g><path style="opacity:1" fill="#51090e" d="M 1375.5,600.5 C 1378.21,605.633 1380.55,610.967 1382.5,616.5C 1382.99,618.806 1383.33,621.139 1383.5,623.5C 1382.83,622.833 1382.17,622.167 1381.5,621.5C 1379.91,614.401 1377.91,607.401 1375.5,600.5 Z"/></g>
<g><path style="opacity:1" fill="#190100" d="M 1371.5,586.5 C 1374.17,592.971 1377.34,599.305 1381,605.5C 1381.94,609.114 1382.44,612.78 1382.5,616.5C 1380.55,610.967 1378.21,605.633 1375.5,600.5C 1375.5,600.167 1375.5,599.833 1375.5,599.5C 1374.16,595.155 1372.83,590.822 1371.5,586.5 Z"/></g>
<g><path style="opacity:1" fill="#1d0200" d="M 1214.5,596.5 C 1212.57,603.967 1210.23,611.301 1207.5,618.5C 1206.95,621.096 1205.95,623.429 1204.5,625.5C 1205.27,616.58 1207.44,607.913 1211,599.5C 1212.04,598.29 1213.21,597.29 1214.5,596.5 Z"/></g>
<g><path style="opacity:1" fill="#d63533" d="M 1359.5,564.5 C 1360.59,566.349 1361.93,568.016 1363.5,569.5C 1363.74,572.647 1364.57,575.647 1366,578.5C 1368.66,585.817 1371.83,592.817 1375.5,599.5C 1375.5,599.833 1375.5,600.167 1375.5,600.5C 1377.91,607.401 1379.91,614.401 1381.5,621.5C 1381.96,624.482 1382.3,627.482 1382.5,630.5C 1381.2,628.328 1380.03,625.994 1379,623.5C 1378.25,616.736 1377.08,610.07 1375.5,603.5C 1374.5,603.5 1373.5,603.5 1372.5,603.5C 1368.32,590.474 1363.99,577.474 1359.5,564.5 Z"/></g>
<g><path style="opacity:1" fill="#2c0702" d="M 1383.5,623.5 C 1384.46,623.953 1385.29,624.619 1386,625.5C 1387.35,632.74 1388.52,640.073 1389.5,647.5C 1388.5,645.5 1387.5,643.5 1386.5,641.5C 1385.72,635.46 1384.72,629.46 1383.5,623.5 Z"/></g>
<g><path style="opacity:1" fill="#420507" d="M 1080.5,629.5 C 1084.1,631.43 1087.1,634.097 1089.5,637.5C 1089.17,637.5 1088.83,637.5 1088.5,637.5C 1088.17,637.5 1087.83,637.5 1087.5,637.5C 1085.17,634.833 1082.83,632.167 1080.5,629.5 Z"/></g>
<g><path style="opacity:1" fill="#1b0201" d="M 1077.5,628.5 C 1079.6,627.892 1081.77,627.558 1084,627.5C 1089.48,633.767 1094.98,640.1 1100.5,646.5C 1101.71,649.45 1102.71,652.45 1103.5,655.5C 1102.83,655.167 1102.17,654.833 1101.5,654.5C 1101.17,653.833 1100.83,653.167 1100.5,652.5C 1097.24,647.238 1093.58,642.238 1089.5,637.5C 1087.1,634.097 1084.1,631.43 1080.5,629.5C 1080.17,629.5 1079.83,629.5 1079.5,629.5C 1079.16,628.662 1078.49,628.328 1077.5,628.5 Z"/></g>
<g><path style="opacity:1" fill="#d53232" d="M 1211.5,612.5 C 1208.89,624.283 1205.06,635.616 1200,646.5C 1198.89,647.305 1197.72,647.972 1196.5,648.5C 1196.5,647.833 1196.5,647.167 1196.5,646.5C 1199.6,641.961 1201.93,636.961 1203.5,631.5C 1203.52,629.435 1203.85,627.435 1204.5,625.5C 1205.95,623.429 1206.95,621.096 1207.5,618.5C 1209.01,616.636 1210.35,614.636 1211.5,612.5 Z"/></g>
<g><path style="opacity:1" fill="#280501" d="M 1204.5,625.5 C 1203.85,627.435 1203.52,629.435 1203.5,631.5C 1200.98,634.534 1198.98,637.868 1197.5,641.5C 1197.34,639.143 1197.5,636.81 1198,634.5C 1200.14,631.371 1202.3,628.371 1204.5,625.5 Z"/></g>
<g><path style="opacity:1" fill="#b53534" d="M 1381.5,621.5 C 1382.17,622.167 1382.83,622.833 1383.5,623.5C 1384.72,629.46 1385.72,635.46 1386.5,641.5C 1385.88,641.389 1385.38,641.056 1385,640.5C 1384.34,637.054 1383.51,633.721 1382.5,630.5C 1382.3,627.482 1381.96,624.482 1381.5,621.5 Z"/></g>
<g><path style="opacity:1" fill="#a42e2e" d="M 1203.5,631.5 C 1201.93,636.961 1199.6,641.961 1196.5,646.5C 1197.04,644.883 1197.37,643.216 1197.5,641.5C 1198.98,637.868 1200.98,634.534 1203.5,631.5 Z"/></g>
<g><path style="opacity:1" fill="#ba3534" d="M 1088.5,637.5 C 1088.83,637.5 1089.17,637.5 1089.5,637.5C 1093.58,642.238 1097.24,647.238 1100.5,652.5C 1099.17,651.5 1097.83,650.5 1096.5,649.5C 1094.19,646.527 1091.53,643.86 1088.5,641.5C 1088.5,640.167 1088.5,638.833 1088.5,637.5 Z"/></g>
<g><path style="opacity:1" fill="#430506" d="M 1077.5,628.5 C 1078.49,628.328 1079.16,628.662 1079.5,629.5C 1079.51,640.975 1079.35,652.642 1079,664.5C 1078.81,667.036 1078.31,669.369 1077.5,671.5C 1078.57,657.174 1078.57,642.841 1077.5,628.5 Z"/></g>
<g><path style="opacity:1" fill="#b03536" d="M 1079.5,629.5 C 1079.83,629.5 1080.17,629.5 1080.5,629.5C 1082.83,632.167 1085.17,634.833 1087.5,637.5C 1085.37,636.043 1083.04,635.043 1080.5,634.5C 1080.67,644.839 1080.5,655.172 1080,665.5C 1079.88,670.434 1079.05,675.1 1077.5,679.5C 1077.5,677.5 1077.5,675.5 1077.5,673.5C 1077.5,672.833 1077.5,672.167 1077.5,671.5C 1078.31,669.369 1078.81,667.036 1079,664.5C 1079.35,652.642 1079.51,640.975 1079.5,629.5 Z"/></g>
<g><path style="opacity:1" fill="#290401" d="M 1389.5,648.5 C 1391.12,649.589 1391.95,651.256 1392,653.5C 1392.59,659.498 1393.09,665.498 1393.5,671.5C 1392.09,668.781 1391.42,665.781 1391.5,662.5C 1391.66,659.813 1391.5,657.146 1391,654.5C 1390.72,653.584 1390.22,652.918 1389.5,652.5C 1389.5,651.167 1389.5,649.833 1389.5,648.5 Z"/></g>
<g><path style="opacity:1" fill="#270501" d="M 1197.5,641.5 C 1197.37,643.216 1197.04,644.883 1196.5,646.5C 1193.35,653.274 1190.02,659.941 1186.5,666.5C 1186.5,664.167 1186.5,661.833 1186.5,659.5C 1187.68,659.719 1188.68,659.386 1189.5,658.5C 1190.36,654.422 1191.53,650.422 1193,646.5C 1193.66,644.014 1195.16,642.347 1197.5,641.5 Z"/></g>
<g><path style="opacity:1" fill="#560b0f" d="M 1389.5,652.5 C 1390.22,652.918 1390.72,653.584 1391,654.5C 1391.5,657.146 1391.66,659.813 1391.5,662.5C 1390.42,659.373 1389.75,656.04 1389.5,652.5 Z"/></g>
<g><path style="opacity:1" fill="#b83736" d="M 1101.5,654.5 C 1102.17,654.833 1102.83,655.167 1103.5,655.5C 1104.83,658.833 1106.17,662.167 1107.5,665.5C 1105.22,663.669 1103.39,661.336 1102,658.5C 1101.51,657.207 1101.34,655.873 1101.5,654.5 Z"/></g>
<g><path style="opacity:1" fill="#300803" d="M 1103.5,655.5 C 1106.73,657.951 1108.39,661.284 1108.5,665.5C 1108.17,665.5 1107.83,665.5 1107.5,665.5C 1106.17,662.167 1104.83,658.833 1103.5,655.5 Z"/></g>
<g><path style="opacity:1" fill="#4f080c" d="M 1108.5,665.5 C 1110.25,667.033 1111.25,669.033 1111.5,671.5C 1109.75,669.967 1108.75,667.967 1108.5,665.5 Z"/></g>
<g><path style="opacity:1" fill="#3f0202" d="M 1186.5,666.5 C 1185.59,669.992 1183.92,672.992 1181.5,675.5C 1182.41,672.008 1184.08,669.008 1186.5,666.5 Z"/></g>
<g><path style="opacity:1" fill="#bd3434" d="M 1196.5,646.5 C 1196.5,647.167 1196.5,647.833 1196.5,648.5C 1196.66,649.873 1196.49,651.207 1196,652.5C 1189.33,666.177 1182.33,679.844 1175,693.5C 1173.67,695.996 1171.84,697.996 1169.5,699.5C 1170.63,697.685 1171.3,695.685 1171.5,693.5C 1174.84,690.165 1177.17,686.165 1178.5,681.5C 1180.01,679.819 1181.01,677.819 1181.5,675.5C 1183.92,672.992 1185.59,669.992 1186.5,666.5C 1190.02,659.941 1193.35,653.274 1196.5,646.5 Z"/></g>
<g><path style="opacity:1" fill="#db3232" d="M 1087.5,637.5 C 1087.83,637.5 1088.17,637.5 1088.5,637.5C 1088.5,638.833 1088.5,640.167 1088.5,641.5C 1087.09,639.461 1085.09,638.461 1082.5,638.5C 1083.04,653.922 1082.21,669.256 1080,684.5C 1078.29,689.192 1076.12,693.525 1073.5,697.5C 1073.5,696.5 1073.5,695.5 1073.5,694.5C 1073.5,694.167 1073.5,693.833 1073.5,693.5C 1075.45,689.133 1076.78,684.466 1077.5,679.5C 1079.05,675.1 1079.88,670.434 1080,665.5C 1080.5,655.172 1080.67,644.839 1080.5,634.5C 1083.04,635.043 1085.37,636.043 1087.5,637.5 Z"/></g>
<g><path style="opacity:1" fill="#390200" d="M 1393.5,671.5 C 1395.39,679.59 1396.39,687.924 1396.5,696.5C 1394.94,688.372 1393.94,680.039 1393.5,671.5 Z"/></g>
<g><path style="opacity:1" fill="#631316" d="M 1077.5,673.5 C 1077.5,675.5 1077.5,677.5 1077.5,679.5C 1076.78,684.466 1075.45,689.133 1073.5,693.5C 1074.22,686.588 1075.55,679.921 1077.5,673.5 Z"/></g>
<g><path style="opacity:1" fill="#430304" d="M 1178.5,681.5 C 1177.17,686.165 1174.84,690.165 1171.5,693.5C 1173.33,689.164 1175.67,685.164 1178.5,681.5 Z"/></g>
<g><path style="opacity:1" fill="#af3231" d="M 1386.5,641.5 C 1387.5,643.5 1388.5,645.5 1389.5,647.5C 1389.5,647.833 1389.5,648.167 1389.5,648.5C 1389.5,649.833 1389.5,651.167 1389.5,652.5C 1389.75,656.04 1390.42,659.373 1391.5,662.5C 1391.42,665.781 1392.09,668.781 1393.5,671.5C 1393.94,680.039 1394.94,688.372 1396.5,696.5C 1397.36,700.434 1397.69,704.434 1397.5,708.5C 1397.5,710.833 1397.5,713.167 1397.5,715.5C 1397.17,715.5 1396.83,715.5 1396.5,715.5C 1394.67,702.225 1393.17,688.891 1392,675.5C 1391.77,674.263 1391.27,673.263 1390.5,672.5C 1389.27,662.147 1387.94,651.814 1386.5,641.5 Z"/></g>
<g><path style="opacity:1" fill="#892425" d="M 1107.5,665.5 C 1107.83,665.5 1108.17,665.5 1108.5,665.5C 1108.75,667.967 1109.75,669.967 1111.5,671.5C 1112.71,674.93 1114.21,678.264 1116,681.5C 1116.61,684.827 1117.11,688.161 1117.5,691.5C 1117.17,691.5 1116.83,691.5 1116.5,691.5C 1115.07,683.644 1112.24,676.31 1108,669.5C 1107.51,668.207 1107.34,666.873 1107.5,665.5 Z"/></g>
<g><path style="opacity:1" fill="#d93231" d="M 1096.5,649.5 C 1097.83,650.5 1099.17,651.5 1100.5,652.5C 1100.83,653.167 1101.17,653.833 1101.5,654.5C 1101.34,655.873 1101.51,657.207 1102,658.5C 1103.39,661.336 1105.22,663.669 1107.5,665.5C 1107.34,666.873 1107.51,668.207 1108,669.5C 1112.24,676.31 1115.07,683.644 1116.5,691.5C 1119.23,705.01 1120.56,718.677 1120.5,732.5C 1119.6,719.881 1117.94,707.214 1115.5,694.5C 1115.3,692.714 1114.47,691.381 1113,690.5C 1112.22,686.318 1111.39,682.151 1110.5,678C 1107.75,670.991 1104.08,664.491 1099.5,658.5C 1099.71,657.914 1100.04,657.414 1100.5,657C 1097.6,655.285 1096.27,652.785 1096.5,649.5 Z"/></g>
<g><path style="opacity:1" fill="#51090d" d="M 1117.5,691.5 C 1119.99,696.069 1121.33,701.069 1121.5,706.5C 1121.5,708.167 1121.5,709.833 1121.5,711.5C 1120.17,704.929 1118.84,698.262 1117.5,691.5 Z"/></g>
<g><path style="opacity:1" fill="#5f0e12" d="M 1073.5,694.5 C 1073.5,695.5 1073.5,696.5 1073.5,697.5C 1073.5,697.833 1073.5,698.167 1073.5,698.5C 1072.83,699.167 1072.17,699.833 1071.5,700.5C 1071.26,698.102 1071.93,696.102 1073.5,694.5 Z"/></g>
<g><path style="opacity:1" fill="#460305" d="M 1171.5,693.5 C 1171.3,695.685 1170.63,697.685 1169.5,699.5C 1167.5,701.833 1165.5,704.167 1163.5,706.5C 1165.42,701.657 1168.08,697.323 1171.5,693.5 Z"/></g>
<g><path style="opacity:1" fill="#aa2f30" d="M 1073.5,698.5 C 1073.02,702.084 1072.02,705.417 1070.5,708.5C 1070.5,707.167 1070.5,705.833 1070.5,704.5C 1070.23,702.901 1070.57,701.568 1071.5,700.5C 1072.17,699.833 1072.83,699.167 1073.5,698.5 Z"/></g>
<g><path style="opacity:1" fill="#c13334" d="M 1169.5,699.5 C 1167.61,706.27 1163.94,711.937 1158.5,716.5C 1158.5,715.833 1158.5,715.167 1158.5,714.5C 1160.66,712.178 1162.33,709.511 1163.5,706.5C 1165.5,704.167 1167.5,701.833 1169.5,699.5 Z"/></g>
<g><path style="opacity:1" fill="#601114" d="M 1070.5,704.5 C 1070.5,705.833 1070.5,707.167 1070.5,708.5C 1069.31,710.072 1068.31,711.739 1067.5,713.5C 1067.13,709.956 1068.13,706.956 1070.5,704.5 Z"/></g>
<g><path style="opacity:1" fill="#3f0201" d="M 1163.5,706.5 C 1162.33,709.511 1160.66,712.178 1158.5,714.5C 1159.17,711.151 1160.84,708.484 1163.5,706.5 Z"/></g>
<g><path style="opacity:1" fill="#210100" d="M 1066.5,714.5 C 1065.02,718.802 1063.52,723.135 1062,727.5C 1060.97,730.239 1059.47,732.572 1057.5,734.5C 1057.19,732.076 1057.53,729.743 1058.5,727.5C 1061.25,724.426 1062.92,720.759 1063.5,716.5C 1064.52,715.807 1065.52,715.141 1066.5,714.5 Z"/></g>
<g><path style="opacity:1" fill="#4a0508" d="M 1158.5,714.5 C 1158.5,715.167 1158.5,715.833 1158.5,716.5C 1152.88,724.124 1146.88,731.457 1140.5,738.5C 1146.12,730.212 1152.12,722.212 1158.5,714.5 Z"/></g>
<g><path style="opacity:1" fill="#1a0100" d="M 1121.5,706.5 C 1122.97,707.347 1123.8,708.68 1124,710.5C 1124.33,716.167 1124.67,721.833 1125,727.5C 1125.37,728.416 1125.87,729.25 1126.5,730C 1125.11,732.652 1125.45,735.486 1127.5,738.5C 1126.83,738.5 1126.17,738.5 1125.5,738.5C 1124.03,737.653 1123.2,736.32 1123,734.5C 1122.69,726.808 1122.19,719.142 1121.5,711.5C 1121.5,709.833 1121.5,708.167 1121.5,706.5 Z"/></g>
<g><path style="opacity:1" fill="#b13132" d="M 1269.5,714.5 C 1272.85,716.834 1275.51,719.834 1277.5,723.5C 1275.83,722.167 1274.17,720.833 1272.5,719.5C 1270.97,717.32 1268.8,716.32 1266,716.5C 1263.99,716.307 1262.49,716.974 1261.5,718.5C 1260.83,719.833 1259.83,720.833 1258.5,721.5C 1256.69,724.145 1255.69,727.145 1255.5,730.5C 1255.5,731.167 1255.5,731.833 1255.5,732.5C 1254.83,733.5 1254.17,734.5 1253.5,735.5C 1254,731.51 1254.5,727.51 1255,723.5C 1257.89,717.456 1262.72,714.456 1269.5,714.5 Z"/></g>
<g><path style="opacity:1" fill="#330400" d="M 1272.5,719.5 C 1268.9,718.656 1265.23,718.323 1261.5,718.5C 1262.49,716.974 1263.99,716.307 1266,716.5C 1268.8,716.32 1270.97,717.32 1272.5,719.5 Z"/></g>
<g><path style="opacity:1" fill="#d53231" d="M 1269.5,714.5 C 1270.87,714.343 1272.21,714.51 1273.5,715C 1277.21,718.423 1280.88,721.923 1284.5,725.5C 1287.09,729.676 1289.92,733.676 1293,737.5C 1294.27,740.484 1295.44,743.484 1296.5,746.5C 1295.5,745.833 1294.5,745.167 1293.5,744.5C 1292.92,742.251 1291.59,740.585 1289.5,739.5C 1288.92,737.251 1287.59,735.585 1285.5,734.5C 1284.92,732.251 1283.59,730.585 1281.5,729.5C 1280.58,727.246 1279.25,725.246 1277.5,723.5C 1275.51,719.834 1272.85,716.834 1269.5,714.5 Z"/></g>
<g><path style="opacity:1" fill="#3f0404" d="M 1272.5,719.5 C 1274.17,720.833 1275.83,722.167 1277.5,723.5C 1279.25,725.246 1280.58,727.246 1281.5,729.5C 1277.77,726.769 1274.77,723.436 1272.5,719.5 Z"/></g>
<g><path style="opacity:1" fill="#2f0402" d="M 1478.5,718.5 C 1477.8,722.798 1477.47,727.131 1477.5,731.5C 1476.73,735.327 1475.73,738.994 1474.5,742.5C 1475.9,734.924 1476.73,727.258 1477,719.5C 1477.38,718.944 1477.88,718.611 1478.5,718.5 Z"/></g>
<g><path style="opacity:1" fill="#4e070b" d="M 1258.5,721.5 C 1258.47,724.916 1257.47,727.916 1255.5,730.5C 1255.69,727.145 1256.69,724.145 1258.5,721.5 Z"/></g>
<g><path style="opacity:1" fill="#b63333" d="M 1481.5,722.5 C 1485.1,728.034 1488.43,733.701 1491.5,739.5C 1493.12,743.748 1494.46,748.081 1495.5,752.5C 1492.16,744.11 1487.83,736.11 1482.5,728.5C 1481.57,727.359 1480.74,727.359 1480,728.5C 1479.3,731.478 1478.8,734.478 1478.5,737.5C 1476.15,745.751 1473.98,754.085 1472,762.5C 1469.61,764.619 1468.27,767.285 1468,770.5C 1466.95,772.618 1465.45,774.284 1463.5,775.5C 1464.63,773.685 1465.3,771.685 1465.5,769.5C 1470.12,761.164 1473.12,752.164 1474.5,742.5C 1475.73,738.994 1476.73,735.327 1477.5,731.5C 1478.32,729.031 1478.82,726.365 1479,723.5C 1479.67,722.748 1480.5,722.414 1481.5,722.5 Z"/></g>
<g><path style="opacity:1" fill="#3f0303" d="M 1281.5,729.5 C 1283.59,730.585 1284.92,732.251 1285.5,734.5C 1283.41,733.415 1282.08,731.749 1281.5,729.5 Z"/></g>
<g><path style="opacity:1" fill="#8a2b2c" d="M 1478.5,718.5 C 1480.45,719.035 1481.45,720.368 1481.5,722.5C 1480.5,722.414 1479.67,722.748 1479,723.5C 1478.82,726.365 1478.32,729.031 1477.5,731.5C 1477.47,727.131 1477.8,722.798 1478.5,718.5 Z"/></g>
<g><path style="opacity:1" fill="#b53434" d="M 1116.5,691.5 C 1116.83,691.5 1117.17,691.5 1117.5,691.5C 1118.84,698.262 1120.17,704.929 1121.5,711.5C 1122.19,719.142 1122.69,726.808 1123,734.5C 1123.2,736.32 1124.03,737.653 1125.5,738.5C 1127.24,741.012 1129.74,742.012 1133,741.5C 1136.26,742.012 1138.76,741.012 1140.5,738.5C 1146.88,731.457 1152.88,724.124 1158.5,716.5C 1158,718.482 1157.5,720.482 1157,722.5C 1150.84,729.662 1144.34,736.496 1137.5,743C 1128.36,745.019 1122.7,741.519 1120.5,732.5C 1120.56,718.677 1119.23,705.01 1116.5,691.5 Z"/></g>
<g><path style="opacity:1" fill="#4c0509" d="M 1255.5,732.5 C 1255.59,735.152 1254.92,737.485 1253.5,739.5C 1253.5,738.167 1253.5,736.833 1253.5,735.5C 1254.17,734.5 1254.83,733.5 1255.5,732.5 Z"/></g>
<g><path style="opacity:1" fill="#420405" d="M 1285.5,734.5 C 1287.59,735.585 1288.92,737.251 1289.5,739.5C 1287.41,738.415 1286.08,736.749 1285.5,734.5 Z"/></g>
<g><path style="opacity:1" fill="#380201" d="M 1125.5,738.5 C 1126.17,738.5 1126.83,738.5 1127.5,738.5C 1127.61,739.117 1127.94,739.617 1128.5,740C 1132.76,740.917 1136.76,740.417 1140.5,738.5C 1138.76,741.012 1136.26,742.012 1133,741.5C 1129.74,742.012 1127.24,741.012 1125.5,738.5 Z"/></g>
<g><path style="opacity:1" fill="#aa3331" d="M 1396.5,715.5 C 1396.83,715.5 1397.17,715.5 1397.5,715.5C 1399.03,738.025 1398.7,760.525 1396.5,783C 1396.86,785.921 1397.53,788.754 1398.5,791.5C 1396.24,789.241 1395.24,786.408 1395.5,783C 1396.45,760.515 1396.79,738.015 1396.5,715.5 Z"/></g>
<g><path style="opacity:1" fill="#440507" d="M 1253.5,739.5 C 1253.31,742.855 1252.31,745.855 1250.5,748.5C 1250.67,746.139 1251.01,743.806 1251.5,741.5C 1252.17,740.833 1252.83,740.167 1253.5,739.5 Z"/></g>
<g><path style="opacity:1" fill="#470408" d="M 1289.5,739.5 C 1291.59,740.585 1292.92,742.251 1293.5,744.5C 1291.41,743.415 1290.08,741.749 1289.5,739.5 Z"/></g>
<g><path style="opacity:1" fill="#430506" d="M 1293.5,744.5 C 1294.5,745.167 1295.5,745.833 1296.5,746.5C 1297.11,747.391 1297.44,748.391 1297.5,749.5C 1295.41,748.415 1294.08,746.749 1293.5,744.5 Z"/></g>
<g><path style="opacity:1" fill="#df312e" d="M 1495.5,752.5 C 1495.75,756.632 1497.41,759.965 1500.5,762.5C 1500.5,763.833 1500.5,765.167 1500.5,766.5C 1499.19,765.032 1497.69,763.699 1496,762.5C 1494.74,758.921 1493.07,755.588 1491,752.5C 1489,745.194 1486.5,738.194 1483.5,731.5C 1482.5,731.5 1481.5,731.5 1480.5,731.5C 1480.97,734.082 1480.31,736.082 1478.5,737.5C 1478.8,734.478 1479.3,731.478 1480,728.5C 1480.74,727.359 1481.57,727.359 1482.5,728.5C 1487.83,736.11 1492.16,744.11 1495.5,752.5 Z"/></g>
<g><path style="opacity:1" fill="#c53736" d="M 1296.5,746.5 C 1303.26,750.674 1307.6,756.674 1309.5,764.5C 1307.5,762.167 1305.5,759.833 1303.5,757.5C 1301.98,754.467 1299.98,751.8 1297.5,749.5C 1297.44,748.391 1297.11,747.391 1296.5,746.5 Z"/></g>
<g><path style="opacity:1" fill="#de302f" d="M 1390.5,672.5 C 1391.27,673.263 1391.77,674.263 1392,675.5C 1393.17,688.891 1394.67,702.225 1396.5,715.5C 1396.79,738.015 1396.45,760.515 1395.5,783C 1395.24,786.408 1396.24,789.241 1398.5,791.5C 1400.57,793.58 1402.91,795.246 1405.5,796.5C 1405.5,797.167 1405.83,797.5 1406.5,797.5C 1407.97,799.41 1409.97,800.576 1412.5,801C 1417.68,801.816 1422.68,801.65 1427.5,800.5C 1433.09,800.19 1438.43,798.857 1443.5,796.5C 1443.42,797.75 1442.76,798.583 1441.5,799C 1430.17,802.521 1418.67,803.354 1407,801.5C 1406.67,802.167 1406.33,802.833 1406,803.5C 1405.12,800.113 1402.95,798.446 1399.5,798.5C 1399.12,794.617 1397.28,791.617 1394,789.5C 1395.45,750.416 1394.28,711.416 1390.5,672.5 Z"/></g>
<g><path style="opacity:1" fill="#2d0703" d="M 1297.5,749.5 C 1299.98,751.8 1301.98,754.467 1303.5,757.5C 1299.56,756.235 1297.56,753.568 1297.5,749.5 Z"/></g>
<g><path style="opacity:1" fill="#250400" d="M 1054.5,742.5 C 1051.24,750.591 1047.24,758.258 1042.5,765.5C 1042.55,759.736 1044.55,754.736 1048.5,750.5C 1049.47,748.238 1050.13,745.905 1050.5,743.5C 1051.96,743.567 1053.29,743.234 1054.5,742.5 Z"/></g>
<g><path style="opacity:1" fill="#a32f2d" d="M 1495.5,752.5 C 1498.2,755.235 1499.87,758.569 1500.5,762.5C 1497.41,759.965 1495.75,756.632 1495.5,752.5 Z"/></g>
<g><path style="opacity:1" fill="#340603" d="M 1250.5,748.5 C 1250.66,749.873 1250.49,751.207 1250,752.5C 1246.96,757.243 1244.46,762.243 1242.5,767.5C 1241.39,767.557 1240.39,767.89 1239.5,768.5C 1242.66,761.504 1246.33,754.838 1250.5,748.5 Z"/></g>
<g><path style="opacity:1" fill="#962a29" d="M 1500.5,762.5 C 1502.73,766.522 1504.4,770.856 1505.5,775.5C 1503.58,772.661 1501.91,769.661 1500.5,766.5C 1500.5,765.167 1500.5,763.833 1500.5,762.5 Z"/></g>
<g><path style="opacity:1" fill="#1e0100" d="M 1491.5,739.5 C 1495.39,746.937 1499.55,754.271 1504,761.5C 1506.23,770.04 1509.23,778.374 1513,786.5C 1513.5,789.817 1513.67,793.15 1513.5,796.5C 1512.83,795.833 1512.17,795.167 1511.5,794.5C 1511.5,794.167 1511.5,793.833 1511.5,793.5C 1510.27,787.485 1508.27,781.818 1505.5,776.5C 1505.5,776.167 1505.5,775.833 1505.5,775.5C 1504.4,770.856 1502.73,766.522 1500.5,762.5C 1499.87,758.569 1498.2,755.235 1495.5,752.5C 1494.46,748.081 1493.12,743.748 1491.5,739.5 Z"/></g>
<g><path style="opacity:1" fill="#400303" d="M 1042.5,765.5 C 1041.92,768.331 1040.59,770.664 1038.5,772.5C 1039,769.674 1040.33,767.34 1042.5,765.5 Z"/></g>
<g><path style="opacity:1" fill="#2b0500" d="M 1038.5,772.5 C 1037.67,775.485 1036.34,778.151 1034.5,780.5C 1035.09,777.873 1035.42,775.206 1035.5,772.5C 1036.5,772.5 1037.5,772.5 1038.5,772.5 Z"/></g>
<g><path style="opacity:1" fill="#270200" d="M 1397.5,708.5 C 1398.32,712.312 1398.82,716.312 1399,720.5C 1399.33,743.167 1399.67,765.833 1400,788.5C 1401.24,791.576 1403.08,794.243 1405.5,796.5C 1402.91,795.246 1400.57,793.58 1398.5,791.5C 1397.53,788.754 1396.86,785.921 1396.5,783C 1398.7,760.525 1399.03,738.025 1397.5,715.5C 1397.5,713.167 1397.5,710.833 1397.5,708.5 Z"/></g>
<g><path style="opacity:1" fill="#4a0305" d="M 1465.5,769.5 C 1465.3,771.685 1464.63,773.685 1463.5,775.5C 1462.83,775.833 1462.17,776.167 1461.5,776.5C 1462.08,773.669 1463.41,771.336 1465.5,769.5 Z"/></g>
<g><path style="opacity:1" fill="#d83332" d="M 1313.5,769.5 C 1315.03,770.067 1316.53,770.733 1318,771.5C 1322,777.538 1326,783.538 1330,789.5C 1330.49,790.793 1330.66,792.127 1330.5,793.5C 1328.86,790.196 1326.53,787.529 1323.5,785.5C 1323.17,784.5 1322.5,783.833 1321.5,783.5C 1318.83,778.833 1316.17,774.167 1313.5,769.5 Z"/></g>
<g><path style="opacity:1" fill="#982c2b" d="M 1505.5,776.5 C 1508.27,781.818 1510.27,787.485 1511.5,793.5C 1508.73,788.182 1506.73,782.515 1505.5,776.5 Z"/></g>
<g><path style="opacity:1" fill="#500709" d="M 1461.5,776.5 C 1460.47,779.891 1458.47,782.557 1455.5,784.5C 1457.02,781.467 1459.02,778.8 1461.5,776.5 Z"/></g>
<g><path style="opacity:1" fill="#260501" d="M 1242.5,767.5 C 1241.75,771.921 1239.42,775.254 1235.5,777.5C 1234.13,782.614 1231.13,786.28 1226.5,788.5C 1230.84,781.825 1235.17,775.158 1239.5,768.5C 1240.39,767.89 1241.39,767.557 1242.5,767.5 Z"/></g>
<g><path style="opacity:1" fill="#c63434" d="M 1251.5,741.5 C 1251.01,743.806 1250.67,746.139 1250.5,748.5C 1246.33,754.838 1242.66,761.504 1239.5,768.5C 1235.17,775.158 1230.84,781.825 1226.5,788.5C 1225.09,788.973 1224.43,789.973 1224.5,791.5C 1220.19,796.473 1215.53,801.14 1210.5,805.5C 1210.24,804.022 1210.57,802.689 1211.5,801.5C 1215.64,798.859 1218.47,795.193 1220,790.5C 1225.3,783.52 1230.8,776.853 1236.5,770.5C 1238.73,765.706 1241.23,761.039 1244,756.5C 1243.97,752.534 1245.64,749.534 1249,747.5C 1249.24,745.148 1250.07,743.148 1251.5,741.5 Z"/></g>
<g><path style="opacity:1" fill="#2d0702" d="M 1321.5,783.5 C 1322.5,783.833 1323.17,784.5 1323.5,785.5C 1324.53,787.517 1325.53,789.517 1326.5,791.5C 1322.46,790.43 1320.79,787.763 1321.5,783.5 Z"/></g>
<g><path style="opacity:1" fill="#bc3a39" d="M 1323.5,785.5 C 1326.53,787.529 1328.86,790.196 1330.5,793.5C 1330.5,794.167 1330.5,794.833 1330.5,795.5C 1329.17,794.167 1327.83,792.833 1326.5,791.5C 1325.53,789.517 1324.53,787.517 1323.5,785.5 Z"/></g>
<g><path style="opacity:1" fill="#c23636" d="M 1463.5,775.5 C 1459.56,785.107 1452.89,792.107 1443.5,796.5C 1438.43,798.857 1433.09,800.19 1427.5,800.5C 1433.31,799.263 1438.64,796.93 1443.5,793.5C 1446.71,792.56 1449.71,791.06 1452.5,789C 1454.14,787.871 1455.14,786.371 1455.5,784.5C 1458.47,782.557 1460.47,779.891 1461.5,776.5C 1462.17,776.167 1462.83,775.833 1463.5,775.5 Z"/></g>
<g><path style="opacity:1" fill="#1c0100" d="M 1033.5,780.5 C 1033.77,782.099 1033.43,783.432 1032.5,784.5C 1029.46,787.914 1027.46,791.914 1026.5,796.5C 1024.68,801.325 1022.68,805.992 1020.5,810.5C 1022.61,799.016 1026.77,788.35 1033,778.5C 1033.46,779.094 1033.63,779.761 1033.5,780.5 Z"/></g>
<g><path style="opacity:1" fill="#b93333" d="M 1070.5,708.5 C 1067.25,719.009 1063.42,729.342 1059,739.5C 1047.11,761.605 1035.45,783.938 1024,806.5C 1019.51,821.449 1015.18,836.449 1011,851.5C 1010.5,857.825 1010.33,864.158 1010.5,870.5C 1017.32,867.742 1023.66,863.909 1029.5,859C 1032.11,857.519 1034.78,856.352 1037.5,855.5C 1037.17,856.167 1036.83,856.833 1036.5,857.5C 1033.3,858.383 1030.63,860.05 1028.5,862.5C 1025.8,862.845 1023.8,864.178 1022.5,866.5C 1019.26,867.738 1016.26,869.404 1013.5,871.5C 1012.17,871.5 1010.83,871.5 1009.5,871.5C 1009.5,865.833 1009.5,860.167 1009.5,854.5C 1009.5,852.833 1009.5,851.167 1009.5,849.5C 1011.07,847.898 1011.74,845.898 1011.5,843.5C 1011.83,840.833 1012.17,838.167 1012.5,835.5C 1014.61,830.757 1016.28,825.757 1017.5,820.5C 1018.49,817.177 1019.49,813.844 1020.5,810.5C 1022.68,805.992 1024.68,801.325 1026.5,796.5C 1029.01,792.818 1031.01,788.818 1032.5,784.5C 1033.43,783.432 1033.77,782.099 1033.5,780.5C 1033.83,780.5 1034.17,780.5 1034.5,780.5C 1036.34,778.151 1037.67,775.485 1038.5,772.5C 1040.59,770.664 1041.92,768.331 1042.5,765.5C 1047.24,758.258 1051.24,750.591 1054.5,742.5C 1055.49,739.919 1056.49,737.252 1057.5,734.5C 1059.47,732.572 1060.97,730.239 1062,727.5C 1063.52,723.135 1065.02,718.802 1066.5,714.5C 1067.17,714.5 1067.5,714.167 1067.5,713.5C 1068.31,711.739 1069.31,710.072 1070.5,708.5 Z"/></g>
<g><path style="opacity:1" fill="#600f13" d="M 1455.5,784.5 C 1455.14,786.371 1454.14,787.871 1452.5,789C 1449.71,791.06 1446.71,792.56 1443.5,793.5C 1447.48,790.531 1451.48,787.531 1455.5,784.5 Z"/></g>
<g><path style="opacity:1" fill="#3d0201" d="M 1032.5,784.5 C 1031.01,788.818 1029.01,792.818 1026.5,796.5C 1027.46,791.914 1029.46,787.914 1032.5,784.5 Z"/></g>
<g><path style="opacity:1" fill="#360603" d="M 1443.5,793.5 C 1438.64,796.93 1433.31,799.263 1427.5,800.5C 1420.23,801.072 1413.23,800.072 1406.5,797.5C 1405.83,797.5 1405.5,797.167 1405.5,796.5C 1414.05,798.415 1422.72,798.915 1431.5,798C 1435.01,795.436 1439.01,793.936 1443.5,793.5 Z"/></g>
<g><path style="opacity:1" fill="#2a0702" d="M 1326.5,791.5 C 1327.83,792.833 1329.17,794.167 1330.5,795.5C 1332.5,799.833 1334.5,804.167 1336.5,808.5C 1335.5,808.5 1334.5,808.5 1333.5,808.5C 1333.5,806.833 1333.5,805.167 1333.5,803.5C 1332.18,803.67 1331.01,803.337 1330,802.5C 1328.67,798.809 1327.5,795.142 1326.5,791.5 Z"/></g>
<g><path style="opacity:1" fill="#b43938" d="M 1406.5,797.5 C 1413.23,800.072 1420.23,801.072 1427.5,800.5C 1422.68,801.65 1417.68,801.816 1412.5,801C 1409.97,800.576 1407.97,799.41 1406.5,797.5 Z"/></g>
<g><path style="opacity:1" fill="#420304" d="M 1513.5,796.5 C 1514.37,799.449 1515.37,802.449 1516.5,805.5C 1517.58,809.085 1518.25,812.751 1518.5,816.5C 1515.91,810.159 1514.25,803.493 1513.5,796.5 Z"/></g>
<g><path style="opacity:1" fill="#460407" d="M 1224.5,791.5 C 1215.93,802.743 1206.26,813.077 1195.5,822.5C 1200.11,816.556 1205.11,810.89 1210.5,805.5C 1215.53,801.14 1220.19,796.473 1224.5,791.5 Z"/></g>
<g><path style="opacity:1" fill="#3c0706" d="M 1336.5,808.5 C 1338.59,810.336 1339.92,812.669 1340.5,815.5C 1337.55,814.191 1336.22,811.857 1336.5,808.5 Z"/></g>
<g><path style="opacity:1" fill="#c23837" d="M 1330.5,795.5 C 1333.56,799.258 1336.39,803.258 1339,807.5C 1341.24,813.561 1344.24,819.228 1348,824.5C 1348.66,826.813 1349.16,829.146 1349.5,831.5C 1348.83,830.833 1348.17,830.167 1347.5,829.5C 1347.25,827.033 1346.25,825.033 1344.5,823.5C 1343.67,820.515 1342.34,817.849 1340.5,815.5C 1339.92,812.669 1338.59,810.336 1336.5,808.5C 1334.5,804.167 1332.5,799.833 1330.5,795.5 Z"/></g>
<g><path style="opacity:1" fill="#1c0200" d="M 1516.5,805.5 C 1522.59,817.938 1525.25,831.271 1524.5,845.5C 1522.72,840.433 1521.72,835.1 1521.5,829.5C 1521.74,827.102 1521.07,825.102 1519.5,823.5C 1519.33,821.139 1518.99,818.806 1518.5,816.5C 1518.25,812.751 1517.58,809.085 1516.5,805.5 Z"/></g>
<g><path style="opacity:1" fill="#ca3839" d="M 1210.5,805.5 C 1205.11,810.89 1200.11,816.556 1195.5,822.5C 1195.17,822.5 1194.83,822.5 1194.5,822.5C 1176.82,821.318 1159.16,821.318 1141.5,822.5C 1142.61,821.71 1143.94,821.21 1145.5,821C 1161.51,820.532 1177.51,820.532 1193.5,821C 1198.43,814.895 1204.1,809.728 1210.5,805.5 Z"/></g>
<g><path style="opacity:1" fill="#1d0100" d="M 1020.5,810.5 C 1019.49,813.844 1018.49,817.177 1017.5,820.5C 1016.21,821.058 1015.38,822.058 1015,823.5C 1013.64,827.405 1012.81,831.405 1012.5,835.5C 1012.17,838.167 1011.83,840.833 1011.5,843.5C 1009.93,845.102 1009.26,847.102 1009.5,849.5C 1009.5,851.167 1009.5,852.833 1009.5,854.5C 1008.09,860.634 1007.59,866.967 1008,873.5C 1010.18,874.225 1012.01,873.559 1013.5,871.5C 1016.26,869.404 1019.26,867.738 1022.5,866.5C 1019.14,871.024 1014.8,874.357 1009.5,876.5C 1008.23,876.43 1007.06,876.097 1006,875.5C 1005.55,853.847 1009.39,833.014 1017.5,813C 1018.13,811.69 1019.13,810.856 1020.5,810.5 Z"/></g>
<g><path style="opacity:1" fill="#962c2c" d="M 1194.5,822.5 C 1194.5,822.833 1194.5,823.167 1194.5,823.5C 1177.82,822.359 1161.15,822.359 1144.5,823.5C 1143.17,823.5 1141.83,823.5 1140.5,823.5C 1140.5,823.167 1140.5,822.833 1140.5,822.5C 1140.83,822.5 1141.17,822.5 1141.5,822.5C 1159.16,821.318 1176.82,821.318 1194.5,822.5 Z"/></g>
<g><path style="opacity:1" fill="#b83434" d="M 1140.5,822.5 C 1140.5,822.833 1140.5,823.167 1140.5,823.5C 1133.22,824.656 1125.88,825.489 1118.5,826C 1117.58,826.278 1116.92,826.778 1116.5,827.5C 1115.83,827.5 1115.17,827.5 1114.5,827.5C 1112.14,827.674 1109.81,828.007 1107.5,828.5C 1108.84,827.207 1110.51,826.374 1112.5,826C 1121.76,824.076 1131.09,822.91 1140.5,822.5 Z"/></g>
<g><path style="opacity:1" fill="#3c0505" d="M 1140.5,823.5 C 1141.83,823.5 1143.17,823.5 1144.5,823.5C 1135.42,825.709 1126.09,827.042 1116.5,827.5C 1116.92,826.778 1117.58,826.278 1118.5,826C 1125.88,825.489 1133.22,824.656 1140.5,823.5 Z"/></g>
<g><path style="opacity:1" fill="#210200" d="M 1194.5,823.5 C 1180.34,824.331 1166.01,824.831 1151.5,825C 1138.21,826.754 1124.88,828.254 1111.5,829.5C 1112.5,828.833 1113.5,828.167 1114.5,827.5C 1115.17,827.5 1115.83,827.5 1116.5,827.5C 1126.09,827.042 1135.42,825.709 1144.5,823.5C 1161.15,822.359 1177.82,822.359 1194.5,823.5 Z"/></g>
<g><path style="opacity:1" fill="#3b0302" d="M 1017.5,820.5 C 1016.28,825.757 1014.61,830.757 1012.5,835.5C 1012.81,831.405 1013.64,827.405 1015,823.5C 1015.38,822.058 1016.21,821.058 1017.5,820.5 Z"/></g>
<g><path style="opacity:1" fill="#4f0408" d="M 1114.5,827.5 C 1113.5,828.167 1112.5,828.833 1111.5,829.5C 1110.17,829.5 1108.83,829.5 1107.5,829.5C 1107.5,829.167 1107.5,828.833 1107.5,828.5C 1109.81,828.007 1112.14,827.674 1114.5,827.5 Z"/></g>
<g><path style="opacity:1" fill="#55090d" d="M 1344.5,823.5 C 1346.25,825.033 1347.25,827.033 1347.5,829.5C 1345.75,827.967 1344.75,825.967 1344.5,823.5 Z"/></g>
<g><path style="opacity:1" fill="#5f0e11" d="M 1519.5,823.5 C 1521.07,825.102 1521.74,827.102 1521.5,829.5C 1519.93,827.898 1519.26,825.898 1519.5,823.5 Z"/></g>
<g><path style="opacity:1" fill="#e42f2d" d="M 1500.5,766.5 C 1501.91,769.661 1503.58,772.661 1505.5,775.5C 1505.5,775.833 1505.5,776.167 1505.5,776.5C 1506.73,782.515 1508.73,788.182 1511.5,793.5C 1511.5,793.833 1511.5,794.167 1511.5,794.5C 1515.25,816.521 1519.92,838.187 1525.5,859.5C 1526.15,868.152 1526.48,876.818 1526.5,885.5C 1525.21,879.018 1523.54,872.518 1521.5,866C 1521.67,864.883 1522,863.716 1522.5,862.5C 1521.06,855.331 1518.72,848.664 1515.5,842.5C 1515.4,837.61 1515.74,832.61 1516.5,827.5C 1515.36,822.231 1514.52,816.897 1514,811.5C 1512.62,810.449 1511.62,809.116 1511,807.5C 1510.81,796.283 1507.81,785.95 1502,776.5C 1501.39,773.173 1500.89,769.839 1500.5,766.5 Z"/></g>
<g><path style="opacity:1" fill="#bd3232" d="M 1107.5,828.5 C 1107.5,828.833 1107.5,829.167 1107.5,829.5C 1103.2,830.43 1098.87,831.263 1094.5,832C 1093.94,832.383 1093.61,832.883 1093.5,833.5C 1093.17,833.5 1092.83,833.5 1092.5,833.5C 1089.67,833.584 1087.01,834.25 1084.5,835.5C 1087.01,833.583 1089.68,831.75 1092.5,830C 1097.48,829.252 1102.48,828.752 1107.5,828.5 Z"/></g>
<g><path style="opacity:1" fill="#be3533" d="M 1511.5,794.5 C 1512.17,795.167 1512.83,795.833 1513.5,796.5C 1514.25,803.493 1515.91,810.159 1518.5,816.5C 1518.99,818.806 1519.33,821.139 1519.5,823.5C 1519.26,825.898 1519.93,827.898 1521.5,829.5C 1521.72,835.1 1522.72,840.433 1524.5,845.5C 1525.13,850.141 1525.46,854.807 1525.5,859.5C 1519.92,838.187 1515.25,816.521 1511.5,794.5 Z"/></g>
<g><path style="opacity:1" fill="#360504" d="M 1107.5,829.5 C 1103.25,831.888 1098.58,833.221 1093.5,833.5C 1093.61,832.883 1093.94,832.383 1094.5,832C 1098.87,831.263 1103.2,830.43 1107.5,829.5 Z"/></g>
<g><path style="opacity:1" fill="#450609" d="M 1347.5,829.5 C 1348.17,830.167 1348.83,830.833 1349.5,831.5C 1349.4,833.553 1350.07,835.22 1351.5,836.5C 1352.46,839.426 1353.13,842.426 1353.5,845.5C 1350.53,840.601 1348.53,835.267 1347.5,829.5 Z"/></g>
<g><path style="opacity:1" fill="#450407" d="M 1092.5,833.5 C 1087.09,835.944 1081.43,837.944 1075.5,839.5C 1077.36,837.986 1079.36,836.653 1081.5,835.5C 1082.5,835.5 1083.5,835.5 1084.5,835.5C 1087.01,834.25 1089.67,833.584 1092.5,833.5 Z"/></g>
<g><path style="opacity:1" fill="#c13333" d="M 1081.5,835.5 C 1079.36,836.653 1077.36,837.986 1075.5,839.5C 1074.13,839.343 1072.79,839.51 1071.5,840C 1069.24,840.876 1067.24,842.043 1065.5,843.5C 1061,844.087 1057,845.754 1053.5,848.5C 1052.83,848.5 1052.17,848.5 1051.5,848.5C 1056.64,845.094 1061.97,841.928 1067.5,839C 1071.8,836.347 1076.47,835.18 1081.5,835.5 Z"/></g>
<g><path style="opacity:1" fill="#330502" d="M 1065.5,843.5 C 1062,846.246 1058,847.913 1053.5,848.5C 1057,845.754 1061,844.087 1065.5,843.5 Z"/></g>
<g><path style="opacity:1" fill="#53070c" d="M 1011.5,843.5 C 1011.74,845.898 1011.07,847.898 1009.5,849.5C 1009.26,847.102 1009.93,845.102 1011.5,843.5 Z"/></g>
<g><path style="opacity:1" fill="#c13b3a" d="M 1351.5,836.5 C 1356.28,845.516 1359.28,855.183 1360.5,865.5C 1359.83,865.5 1359.5,865.167 1359.5,864.5C 1359.28,860.838 1358.28,857.505 1356.5,854.5C 1356.47,851.084 1355.47,848.084 1353.5,845.5C 1353.13,842.426 1352.46,839.426 1351.5,836.5 Z"/></g>
<g><path style="opacity:1" fill="#490508" d="M 1353.5,845.5 C 1355.47,848.084 1356.47,851.084 1356.5,854.5C 1354.69,851.855 1353.69,848.855 1353.5,845.5 Z"/></g>
<g><path style="opacity:1" fill="#bb3939" d="M 1048.5,849.5 C 1045.32,852.258 1041.66,854.258 1037.5,855.5C 1039.25,853.777 1041.25,852.277 1043.5,851C 1045.02,849.991 1046.69,849.491 1048.5,849.5 Z"/></g>
<g><path style="opacity:1" fill="#380605" d="M 1051.5,848.5 C 1052.17,848.5 1052.83,848.5 1053.5,848.5C 1048.52,852.823 1042.85,855.823 1036.5,857.5C 1036.83,856.833 1037.17,856.167 1037.5,855.5C 1041.66,854.258 1045.32,852.258 1048.5,849.5C 1049.39,848.89 1050.39,848.557 1051.5,848.5 Z"/></g>
<g><path style="opacity:1" fill="#58090d" d="M 1356.5,854.5 C 1358.28,857.505 1359.28,860.838 1359.5,864.5C 1357.72,861.495 1356.72,858.162 1356.5,854.5 Z"/></g>
<g><path style="opacity:1" fill="#2d0601" d="M 1036.5,857.5 C 1034.75,860.682 1032.09,862.349 1028.5,862.5C 1030.63,860.05 1033.3,858.383 1036.5,857.5 Z"/></g>
<g><path style="opacity:1" fill="#3b0302" d="M 1028.5,862.5 C 1026.97,864.369 1024.97,865.702 1022.5,866.5C 1023.8,864.178 1025.8,862.845 1028.5,862.5 Z"/></g>
<g><path style="opacity:1" fill="#95292b" d="M 1009.5,854.5 C 1009.5,860.167 1009.5,865.833 1009.5,871.5C 1010.83,871.5 1012.17,871.5 1013.5,871.5C 1012.01,873.559 1010.18,874.225 1008,873.5C 1007.59,866.967 1008.09,860.634 1009.5,854.5 Z"/></g>
<g><path style="opacity:1" fill="#3f0203" d="M 1361.5,877.5 C 1362.34,877.842 1362.67,878.508 1362.5,879.5C 1362.33,889.839 1362.5,900.172 1363,910.5C 1364.04,911.71 1365.21,912.71 1366.5,913.5C 1368.25,915.246 1369.58,917.246 1370.5,919.5C 1369.83,919.167 1369.17,918.833 1368.5,918.5C 1366.54,916.037 1364.37,913.703 1362,911.5C 1361.5,900.172 1361.33,888.838 1361.5,877.5 Z"/></g>
<g><path style="opacity:1" fill="#330301" d="M 1524.5,845.5 C 1530.21,872.929 1531.87,900.596 1529.5,928.5C 1529.83,915.656 1529.5,902.989 1528.5,890.5C 1528.12,879.961 1527.12,869.628 1525.5,859.5C 1525.46,854.807 1525.13,850.141 1524.5,845.5 Z"/></g>
<g><path style="opacity:1" fill="#d43534" d="M 1526.5,885.5 C 1527.5,901.325 1527.83,917.325 1527.5,933.5C 1527.95,943.457 1526.95,953.124 1524.5,962.5C 1526.12,936.864 1526.79,911.197 1526.5,885.5 Z"/></g>
<g><path style="opacity:1" fill="#be3938" d="M 1525.5,859.5 C 1527.12,869.628 1528.12,879.961 1528.5,890.5C 1528.83,905.01 1528.5,919.343 1527.5,933.5C 1527.83,917.325 1527.5,901.325 1526.5,885.5C 1526.48,876.818 1526.15,868.152 1525.5,859.5 Z"/></g>
<g><path style="opacity:1" fill="#d43534" d="M 1360.5,869.5 C 1361.59,869.62 1362.25,870.287 1362.5,871.5C 1365.02,884.021 1366.19,896.687 1366,909.5C 1367.65,910.648 1369.15,911.981 1370.5,913.5C 1372.45,918.099 1374.79,922.433 1377.5,926.5C 1374.94,924.36 1372.61,922.027 1370.5,919.5C 1369.58,917.246 1368.25,915.246 1366.5,913.5C 1366.31,911.804 1365.48,910.471 1364,909.5C 1363.83,899.325 1363.33,889.325 1362.5,879.5C 1362.67,878.508 1362.34,877.842 1361.5,877.5C 1361.17,874.833 1360.83,872.167 1360.5,869.5 Z"/></g>
<g><path style="opacity:1" fill="#d13131" d="M 1412.5,906.5 C 1408.89,905.489 1405.22,905.322 1401.5,906C 1400.29,907.039 1399.29,908.206 1398.5,909.5C 1397.5,909.414 1396.67,909.748 1396,910.5C 1395.1,913.069 1393.93,915.402 1392.5,917.5C 1392.74,911.139 1395.74,906.639 1401.5,904C 1406.25,901.304 1409.92,902.137 1412.5,906.5 Z"/></g>
<g><path style="opacity:1" fill="#9e3231" d="M 1362.5,879.5 C 1363.33,889.325 1363.83,899.325 1364,909.5C 1365.48,910.471 1366.31,911.804 1366.5,913.5C 1365.21,912.71 1364.04,911.71 1363,910.5C 1362.5,900.172 1362.33,889.839 1362.5,879.5 Z"/></g>
<g><path style="opacity:1" fill="#4a0205" d="M 1412.5,906.5 C 1412.83,907.167 1413.17,907.833 1413.5,908.5C 1407.86,905.258 1402.86,905.925 1398.5,910.5C 1398.5,910.167 1398.5,909.833 1398.5,909.5C 1399.29,908.206 1400.29,907.039 1401.5,906C 1405.22,905.322 1408.89,905.489 1412.5,906.5 Z"/></g>
<g><path style="opacity:1" fill="#410606" d="M 1418.5,916.5 C 1422.58,923.337 1425.58,930.67 1427.5,938.5C 1423.42,931.663 1420.42,924.33 1418.5,916.5 Z"/></g>
<g><path style="opacity:1" fill="#3b0505" d="M 1398.5,910.5 C 1395.53,919.441 1391.7,928.107 1387,936.5C 1384.19,938.18 1382.36,937.513 1381.5,934.5C 1382.79,936.248 1384.29,936.581 1386,935.5C 1389.69,926.796 1393.85,918.463 1398.5,910.5 Z"/></g>
<g><path style="opacity:1" fill="#250501" d="M 1368.5,918.5 C 1369.17,918.833 1369.83,919.167 1370.5,919.5C 1372.61,922.027 1374.94,924.36 1377.5,926.5C 1378.83,929.167 1380.17,931.833 1381.5,934.5C 1379.61,933.639 1377.78,932.639 1376,931.5C 1373.72,927.051 1371.22,922.718 1368.5,918.5 Z"/></g>
<g><path style="opacity:1" fill="#c03839" d="M 1398.5,909.5 C 1398.5,909.833 1398.5,910.167 1398.5,910.5C 1393.85,918.463 1389.69,926.796 1386,935.5C 1384.29,936.581 1382.79,936.248 1381.5,934.5C 1380.17,931.833 1378.83,929.167 1377.5,926.5C 1378.68,926.281 1379.68,926.614 1380.5,927.5C 1380.71,931.38 1382.71,933.047 1386.5,932.5C 1387.68,927.142 1389.68,922.142 1392.5,917.5C 1393.93,915.402 1395.1,913.069 1396,910.5C 1396.67,909.748 1397.5,909.414 1398.5,909.5 Z"/></g>
<g><path style="opacity:1" fill="#d23533" d="M 1412.5,906.5 C 1413.87,906.343 1415.21,906.51 1416.5,907C 1418.69,909.204 1420.53,911.704 1422,914.5C 1423.91,920.022 1425.58,925.689 1427,931.5C 1427.67,932.833 1428.67,933.833 1430,934.5C 1430.33,936.167 1430.67,937.833 1431,939.5C 1434.71,941.473 1435.88,944.307 1434.5,948C 1435.43,952.204 1436.43,956.371 1437.5,960.5C 1436.35,958.364 1435.01,956.364 1433.5,954.5C 1433.29,951.759 1432.29,949.426 1430.5,947.5C 1430.07,944.834 1429.57,942.168 1429,939.5C 1428.62,938.944 1428.12,938.611 1427.5,938.5C 1425.58,930.67 1422.58,923.337 1418.5,916.5C 1417.83,913.151 1416.16,910.484 1413.5,908.5C 1413.17,907.833 1412.83,907.167 1412.5,906.5 Z"/></g>
<g><path style="opacity:1" fill="#270502" d="M 1430.5,947.5 C 1432.29,949.426 1433.29,951.759 1433.5,954.5C 1433.5,954.833 1433.5,955.167 1433.5,955.5C 1432.5,955.586 1431.67,955.252 1431,954.5C 1430.5,952.19 1430.34,949.857 1430.5,947.5 Z"/></g>
<g><path style="opacity:1" fill="#550b0e" d="M 1528.5,890.5 C 1529.5,902.989 1529.83,915.656 1529.5,928.5C 1529.58,935.858 1529.25,943.191 1528.5,950.5C 1526.07,966.443 1523.24,982.443 1520,998.5C 1518.96,1002.47 1517.46,1006.13 1515.5,1009.5C 1515.67,1007.14 1516.01,1004.81 1516.5,1002.5C 1517.79,1001.16 1518.63,999.491 1519,997.5C 1520.06,989.709 1521.56,982.042 1523.5,974.5C 1523.5,970.466 1523.84,966.466 1524.5,962.5C 1526.95,953.124 1527.95,943.457 1527.5,933.5C 1528.5,919.343 1528.83,905.01 1528.5,890.5 Z"/></g>
<g><path style="opacity:1" fill="#4b0609" d="M 1433.5,956.5 C 1435.81,960.085 1437.14,964.085 1437.5,968.5C 1435.19,964.915 1433.86,960.915 1433.5,956.5 Z"/></g>
<g><path style="opacity:1" fill="#150000" d="M 1528.5,950.5 C 1528.67,955.179 1528.5,959.845 1528,964.5C 1526.2,976.226 1524.2,987.893 1522,999.5C 1519.81,1004.55 1517.64,1009.55 1515.5,1014.5C 1515.5,1013.17 1515.5,1011.83 1515.5,1010.5C 1515.5,1010.17 1515.5,1009.83 1515.5,1009.5C 1517.46,1006.13 1518.96,1002.47 1520,998.5C 1523.24,982.443 1526.07,966.443 1528.5,950.5 Z"/></g>
<g><path style="opacity:1" fill="#4f070b" d="M 1438.5,974.5 C 1441.81,982.386 1443.48,990.719 1443.5,999.5C 1443.17,999.5 1442.83,999.5 1442.5,999.5C 1441.54,991.075 1440.2,982.742 1438.5,974.5 Z"/></g>
<g><path style="opacity:1" fill="#bc3532" d="M 1523.5,974.5 C 1521.56,982.042 1520.06,989.709 1519,997.5C 1518.63,999.491 1517.79,1001.16 1516.5,1002.5C 1517.61,996.584 1518.44,990.584 1519,984.5C 1520.21,980.93 1521.71,977.597 1523.5,974.5 Z"/></g>
<g><path style="opacity:1" fill="#370200" d="M 1443.5,1000.5 C 1445.01,1005.93 1445.68,1011.6 1445.5,1017.5C 1444.26,1012.04 1443.6,1006.37 1443.5,1000.5 Z"/></g>
<g><path style="opacity:1" fill="#51070d" d="M 1515.5,1010.5 C 1515.5,1011.83 1515.5,1013.17 1515.5,1014.5C 1514.17,1017.5 1512.83,1020.5 1511.5,1023.5C 1512.06,1018.84 1513.39,1014.5 1515.5,1010.5 Z"/></g>
<g><path style="opacity:1" fill="#ca3937" d="M 1516.5,1002.5 C 1516.01,1004.81 1515.67,1007.14 1515.5,1009.5C 1515.5,1009.83 1515.5,1010.17 1515.5,1010.5C 1513.39,1014.5 1512.06,1018.84 1511.5,1023.5C 1510.31,1025.07 1509.31,1026.74 1508.5,1028.5C 1510.15,1022.69 1511.31,1016.69 1512,1010.5C 1513.5,1007.71 1515,1005.05 1516.5,1002.5 Z"/></g>
<g><path style="opacity:1" fill="#4e070b" d="M 1511.5,1023.5 C 1510.32,1028.55 1508.82,1033.55 1507,1038.5C 1506.62,1039.06 1506.12,1039.39 1505.5,1039.5C 1506.7,1035.89 1507.7,1032.22 1508.5,1028.5C 1509.31,1026.74 1510.31,1025.07 1511.5,1023.5 Z"/></g>
<g><path style="opacity:1" fill="#d53534" d="M 1508.5,1028.5 C 1507.7,1032.22 1506.7,1035.89 1505.5,1039.5C 1503.87,1043.38 1501.87,1047.05 1499.5,1050.5C 1499.34,1048.14 1499.5,1045.81 1500,1043.5C 1501.49,1037.66 1504.32,1032.66 1508.5,1028.5 Z"/></g>
<g><path style="opacity:1" fill="#4b0508" d="M 1446.5,1021.5 C 1447.5,1035.66 1447.83,1049.99 1447.5,1064.5C 1446.11,1069.27 1445.44,1074.27 1445.5,1079.5C 1445.38,1084.05 1444.71,1088.38 1443.5,1092.5C 1443.78,1081.79 1444.61,1071.13 1446,1060.5C 1446.5,1047.5 1446.67,1034.5 1446.5,1021.5 Z"/></g>
<g><path style="opacity:1" fill="#3d0504" d="M 1505.5,1039.5 C 1505.48,1041.93 1504.98,1044.26 1504,1046.5C 1501.43,1052.07 1498.6,1057.41 1495.5,1062.5C 1496.04,1060.88 1496.37,1059.22 1496.5,1057.5C 1498.29,1055.57 1499.29,1053.24 1499.5,1050.5C 1501.87,1047.05 1503.87,1043.38 1505.5,1039.5 Z"/></g>
<g><path style="opacity:1" fill="#190100" d="M 1442.5,999.5 C 1442.83,999.5 1443.17,999.5 1443.5,999.5C 1443.5,999.833 1443.5,1000.17 1443.5,1000.5C 1443.6,1006.37 1444.26,1012.04 1445.5,1017.5C 1445.83,1018.83 1446.17,1020.17 1446.5,1021.5C 1446.67,1034.5 1446.5,1047.5 1446,1060.5C 1444.61,1071.13 1443.78,1081.79 1443.5,1092.5C 1443.5,1092.83 1443.5,1093.17 1443.5,1093.5C 1442.88,1093.61 1442.38,1093.94 1442,1094.5C 1441.5,1097.15 1441.34,1099.81 1441.5,1102.5C 1439.74,1108.63 1438.07,1114.79 1436.5,1121C 1432.53,1129.77 1428.2,1138.27 1423.5,1146.5C 1425.8,1142.16 1426.96,1137.49 1427,1132.5C 1428.37,1130.25 1429.87,1128.09 1431.5,1126C 1437.07,1110.35 1440.9,1094.18 1443,1077.5C 1444.03,1058.38 1444.36,1039.38 1444,1020.5C 1442.84,1016.97 1442.01,1013.3 1441.5,1009.5C 1442.42,1006.24 1442.75,1002.91 1442.5,999.5 Z"/></g>
<g><path style="opacity:1" fill="#80807f" d="M 1429.5,1052.5 C 1429.81,1054.92 1429.47,1057.26 1428.5,1059.5C 1427.61,1058.68 1427.28,1057.68 1427.5,1056.5C 1428.17,1055.17 1428.83,1053.83 1429.5,1052.5 Z"/></g>
<g><path style="opacity:1" fill="#942726" d="M 1447.5,1064.5 C 1447.56,1069.73 1446.89,1074.73 1445.5,1079.5C 1445.44,1074.27 1446.11,1069.27 1447.5,1064.5 Z"/></g>
<g><path style="opacity:1" fill="#2f0601" d="M 1488.5,1075.5 C 1487.39,1078.05 1486.56,1080.72 1486,1083.5C 1485.18,1084.82 1484.02,1085.49 1482.5,1085.5C 1484,1081.83 1486,1078.49 1488.5,1075.5 Z"/></g>
<g><path style="opacity:1" fill="#b73533" d="M 1496.5,1057.5 C 1496.37,1059.22 1496.04,1060.88 1495.5,1062.5C 1492.74,1066.6 1490.4,1070.93 1488.5,1075.5C 1486,1078.49 1484,1081.83 1482.5,1085.5C 1480.34,1087.82 1478.67,1090.49 1477.5,1093.5C 1475.81,1094.53 1474.47,1095.86 1473.5,1097.5C 1473.24,1096.02 1473.57,1094.69 1474.5,1093.5C 1480.28,1086.28 1484.78,1078.28 1488,1069.5C 1490.8,1065.38 1493.63,1061.38 1496.5,1057.5 Z"/></g>
<g><path style="opacity:1" fill="#2b0500" d="M 1482.5,1085.5 C 1482.46,1089.2 1480.8,1091.87 1477.5,1093.5C 1478.67,1090.49 1480.34,1087.82 1482.5,1085.5 Z"/></g>
<g><path style="opacity:1" fill="#550a0f" d="M 1443.5,1093.5 C 1443.32,1096.73 1442.66,1099.73 1441.5,1102.5C 1441.34,1099.81 1441.5,1097.15 1442,1094.5C 1442.38,1093.94 1442.88,1093.61 1443.5,1093.5 Z"/></g>
<g><path style="opacity:1" fill="#2a0601" d="M 1477.5,1093.5 C 1476.5,1099.88 1473.16,1104.55 1467.5,1107.5C 1469.49,1104.19 1471.49,1100.86 1473.5,1097.5C 1474.47,1095.86 1475.81,1094.53 1477.5,1093.5 Z"/></g>
<g><path style="opacity:1" fill="#c23333" d="M 1473.5,1097.5 C 1471.49,1100.86 1469.49,1104.19 1467.5,1107.5C 1466.5,1108.17 1465.5,1108.83 1464.5,1109.5C 1464.76,1106.98 1465.59,1104.65 1467,1102.5C 1469.37,1100.95 1471.54,1099.28 1473.5,1097.5 Z"/></g>
<g><path style="opacity:1" fill="#c43635" d="M 1464.5,1109.5 C 1460.59,1116.08 1455.59,1121.75 1449.5,1126.5C 1449.35,1125.45 1449.52,1124.45 1450,1123.5C 1452.71,1121.13 1455.04,1118.46 1457,1115.5C 1459.51,1113.35 1462.01,1111.35 1464.5,1109.5 Z"/></g>
<g><path style="opacity:1" fill="#400607" d="M 1467.5,1107.5 C 1460.15,1118.03 1451.82,1127.86 1442.5,1137C 1440.17,1138.67 1437.83,1140.33 1435.5,1142C 1432.33,1147.69 1427.67,1151.19 1421.5,1152.5C 1421.26,1150.1 1421.93,1148.1 1423.5,1146.5C 1423.34,1148.2 1423.51,1149.87 1424,1151.5C 1427.67,1149 1430.83,1146 1433.5,1142.5C 1435.81,1140.53 1438.14,1138.53 1440.5,1136.5C 1443.83,1133.83 1446.83,1130.83 1449.5,1127.5C 1449.5,1127.17 1449.5,1126.83 1449.5,1126.5C 1455.59,1121.75 1460.59,1116.08 1464.5,1109.5C 1465.5,1108.83 1466.5,1108.17 1467.5,1107.5 Z"/></g>
<g><path style="opacity:1" fill="#ae312f" d="M 1449.5,1127.5 C 1446.83,1130.83 1443.83,1133.83 1440.5,1136.5C 1440.33,1135.18 1440.66,1134.01 1441.5,1133C 1444.07,1130.92 1446.73,1129.09 1449.5,1127.5 Z"/></g>
<g><path style="opacity:1" fill="#bb3535" d="M 1433.5,954.5 C 1435.01,956.364 1436.35,958.364 1437.5,960.5C 1439.05,968.689 1441.21,976.689 1444,984.5C 1445.23,995.516 1446.56,1006.52 1448,1017.5C 1450.22,1048.82 1448.22,1079.82 1442,1110.5C 1437,1120.84 1432.83,1131.5 1429.5,1142.5C 1430.83,1142.5 1432.17,1142.5 1433.5,1142.5C 1430.83,1146 1427.67,1149 1424,1151.5C 1423.51,1149.87 1423.34,1148.2 1423.5,1146.5C 1428.2,1138.27 1432.53,1129.77 1436.5,1121C 1438.07,1114.79 1439.74,1108.63 1441.5,1102.5C 1442.66,1099.73 1443.32,1096.73 1443.5,1093.5C 1443.5,1093.17 1443.5,1092.83 1443.5,1092.5C 1444.71,1088.38 1445.38,1084.05 1445.5,1079.5C 1446.89,1074.73 1447.56,1069.73 1447.5,1064.5C 1447.83,1049.99 1447.5,1035.66 1446.5,1021.5C 1446.17,1020.17 1445.83,1018.83 1445.5,1017.5C 1445.68,1011.6 1445.01,1005.93 1443.5,1000.5C 1443.5,1000.17 1443.5,999.833 1443.5,999.5C 1443.48,990.719 1441.81,982.386 1438.5,974.5C 1438.48,972.435 1438.15,970.435 1437.5,968.5C 1437.14,964.085 1435.81,960.085 1433.5,956.5C 1433.5,956.167 1433.5,955.833 1433.5,955.5C 1433.5,955.167 1433.5,954.833 1433.5,954.5 Z"/></g>
<g><path style="opacity:1" fill="#393939" d="M 1259.5,1362.5 C 1256.83,1367.17 1253.17,1370.83 1248.5,1373.5C 1251.83,1369.5 1255.5,1365.83 1259.5,1362.5 Z"/></g>
<g><path style="opacity:1" fill="#404040" d="M 1217.5,1405.5 C 1216.83,1408.17 1215.17,1409.83 1212.5,1410.5C 1213.83,1408.5 1215.5,1406.83 1217.5,1405.5 Z"/></g>
<g><path style="opacity:1" fill="#3f3f3f" d="M 1201.5,1421.5 C 1199.83,1425.17 1197.17,1427.83 1193.5,1429.5C 1195.83,1426.5 1198.5,1423.83 1201.5,1421.5 Z"/></g>
<g><path style="opacity:1" fill="#383838" d="M 1191.5,1431.5 C 1189.17,1435.83 1185.83,1439.17 1181.5,1441.5C 1184.5,1437.83 1187.83,1434.5 1191.5,1431.5 Z"/></g>
<g><path style="opacity:1" fill="#303030" d="M 1154.5,1468.5 C 1151.11,1472.9 1147.11,1476.56 1142.5,1479.5C 1145.89,1475.1 1149.89,1471.44 1154.5,1468.5 Z"/></g>
<g><path style="opacity:1" fill="#353535" d="M 1117.5,1503.5 C 1115.1,1506.9 1112.1,1509.57 1108.5,1511.5C 1110.9,1508.1 1113.9,1505.43 1117.5,1503.5 Z"/></g>
<g><path style="opacity:1" fill="#303030" d="M 1097.5,1521.5 C 1095.83,1525.17 1093.17,1527.83 1089.5,1529.5C 1091.83,1526.5 1094.5,1523.83 1097.5,1521.5 Z"/></g>
</svg>
