<?xml version="1.0" encoding="UTF-8"?>
<!DOCTYPE svg PUBLIC "-//W3C//DTD SVG 1.1//EN" "http://www.w3.org/Graphics/SVG/1.1/DTD/svg11.dtd">
<svg xmlns="http://www.w3.org/2000/svg" version="1.1" width="2048px" height="2048px" style="shape-rendering:geometricPrecision; text-rendering:geometricPrecision; image-rendering:optimizeQuality; fill-rule:evenodd; clip-rule:evenodd" xmlns:xlink="http://www.w3.org/1999/xlink">
<g><path style="opacity:0.96" fill="#fefffe" d="M 1441.5,512.5 C 1460.87,510.122 1477.04,516.122 1490,530.5C 1579.89,655.061 1670.56,779.061 1762,902.5C 1776.46,923.768 1777.13,945.434 1764,967.5C 1761.07,971.553 1757.57,975.053 1753.5,978C 1713.89,1005.95 1674.55,1034.28 1635.5,1063C 1627.03,1069.57 1617.69,1074.57 1607.5,1078C 1586.29,1082.3 1568.46,1076.47 1554,1060.5C 1546,1049.83 1538,1039.17 1530,1028.5C 1487.77,1059.7 1445.27,1090.53 1402.5,1121C 1420.05,1139.68 1427.22,1161.85 1424,1187.5C 1418.17,1220.32 1400,1243.49 1369.5,1257C 1353.97,1262.77 1338.13,1263.94 1322,1260.5C 1318.42,1299.07 1298.58,1325.24 1262.5,1339C 1249.99,1342.32 1237.32,1343.32 1224.5,1342C 1221.57,1378.55 1203.24,1403.88 1169.5,1418C 1156.45,1422.1 1143.28,1422.93 1130,1420.5C 1129.44,1443.79 1120.6,1463.29 1103.5,1479C 1079.55,1498.77 1052.88,1503.44 1023.5,1493C 1017.07,1490.04 1011.23,1486.2 1006,1481.5C 983.11,1510.91 953.943,1519.74 918.5,1508C 893.256,1496.05 878.256,1476.22 873.5,1448.5C 829.494,1457.91 798.328,1442.25 780,1401.5C 777.228,1393.05 775.728,1384.39 775.5,1375.5C 738.415,1383.37 709.249,1371.7 688,1340.5C 679.937,1326.25 676.271,1310.91 677,1294.5C 638.537,1299.43 610.871,1284.43 594,1249.5C 584.5,1223.71 587.166,1199.38 602,1176.5C 602.982,1175.24 603.315,1173.91 603,1172.5C 573.121,1148.29 542.954,1124.45 512.5,1101C 511.551,1100.38 510.718,1100.55 510,1101.5C 501.821,1114.34 492.321,1126.17 481.5,1137C 460.766,1150.6 439.766,1150.93 418.5,1138C 375.206,1105.35 331.206,1073.69 286.5,1043C 273.122,1029.19 267.956,1012.69 271,993.5C 272.145,986.732 274.478,980.399 278,974.5C 372.776,843.056 466.776,711.056 560,578.5C 575.839,559.588 595.672,553.755 619.5,561C 623.993,563.079 628.326,565.412 632.5,568C 674.5,597.333 716.5,626.667 758.5,656C 776.294,666.904 785.628,682.904 786.5,704C 786.091,712.165 784.591,719.999 782,727.5C 824.58,720.718 866.913,712.384 909,702.5C 931.786,698.076 954.62,693.909 977.5,690C 996.306,679.843 1015.97,671.843 1036.5,666C 1066.3,660.446 1095.64,662.446 1124.5,672C 1152.13,681.877 1180.46,688.877 1209.5,693C 1231.72,695.445 1253.56,693.611 1275,687.5C 1265.03,668.657 1265.03,649.657 1275,630.5C 1277.91,625.871 1281.41,621.704 1285.5,618C 1328.99,586.421 1372.66,555.088 1416.5,524C 1424.17,518.509 1432.5,514.675 1441.5,512.5 Z M 1449.5,556.5 C 1452.16,557.001 1454.32,558.334 1456,560.5C 1546.91,684.656 1637.58,808.989 1728,933.5C 1728.71,935.971 1728.37,938.305 1727,940.5C 1684.25,971.456 1641.42,1002.29 1598.5,1033C 1596.5,1033.67 1594.5,1033.67 1592.5,1033C 1589.7,1031.21 1587.2,1029.04 1585,1026.5C 1493.95,905.116 1403.28,783.449 1313,661.5C 1312.6,660.128 1312.1,658.795 1311.5,657.5C 1313.31,653.859 1315.97,651.026 1319.5,649C 1363.04,618.274 1406.37,587.441 1449.5,556.5 Z M 598.5,603.5 C 600.199,603.34 601.866,603.506 603.5,604C 649.437,635.218 694.937,667.051 740,699.5C 741.88,703.805 741.214,707.805 738,711.5C 645.312,840.875 551.645,969.542 457,1097.5C 455.213,1099.96 452.879,1101.62 450,1102.5C 444.936,1100.05 440.103,1097.22 435.5,1094C 396.446,1065.28 357.113,1036.95 317.5,1009C 316.128,1007.76 315.128,1006.26 314.5,1004.5C 316.481,999.872 318.981,995.539 322,991.5C 413.931,861.961 506.097,732.628 598.5,603.5 Z M 1056.5,705.5 C 1067.27,705.072 1077.94,705.905 1088.5,708C 1114.78,715.536 1141.11,722.87 1167.5,730C 1213.48,741.174 1258.98,739.674 1304,725.5C 1370.53,814.066 1436.7,902.899 1502.5,992C 1460.03,1024.07 1417.03,1055.4 1373.5,1086C 1371.67,1087.83 1369.83,1089.67 1368,1091.5C 1314.5,1046.67 1261,1001.83 1207.5,957C 1228.96,961.918 1250.63,962.584 1272.5,959C 1280.03,957.268 1287.36,954.935 1294.5,952C 1307.98,943.884 1311.15,932.717 1304,918.5C 1297.69,911.398 1289.86,908.898 1280.5,911C 1261.93,919.849 1242.6,921.849 1222.5,917C 1198.99,911.83 1176.66,903.496 1155.5,892C 1121.5,873.006 1088.17,853.006 1055.5,832C 1026.48,830.003 998.815,835.337 972.5,848C 966.825,851.345 962.992,856.178 961,862.5C 940.938,889.568 915.771,910.401 885.5,925C 868.723,932.729 851.723,933.396 834.5,927C 822.428,919.783 818.928,909.616 824,896.5C 856.465,850.402 889.299,804.569 922.5,759C 941.258,746.411 961.924,738.745 984.5,736C 999.147,728.701 1013.81,721.368 1028.5,714C 1037.68,710.215 1047.01,707.382 1056.5,705.5 Z M 869.5,754.5 C 870.552,754.351 871.552,754.517 872.5,755C 843.389,797.111 813.889,838.944 784,880.5C 776.32,902.95 778.653,924.283 791,944.5C 805.622,962.061 824.455,971.561 847.5,973C 876.457,974.761 903.124,967.761 927.5,952C 956.7,933.801 981.033,910.468 1000.5,882C 1012.8,877.472 1025.47,875.139 1038.5,875C 1059.68,891.76 1080.68,908.76 1101.5,926C 1189.62,1001.8 1278.62,1076.46 1368.5,1150C 1379.55,1160.35 1383.05,1172.85 1379,1187.5C 1369.94,1210.09 1353.44,1220.59 1329.5,1219C 1321.77,1216.26 1314.77,1212.26 1308.5,1207C 1259.68,1168.43 1210.68,1130.09 1161.5,1092C 1150.17,1086.18 1140,1087.68 1131,1096.5C 1126.33,1105.83 1126.33,1115.17 1131,1124.5C 1174.93,1159.76 1219.43,1194.26 1264.5,1228C 1281.15,1243.39 1283.65,1260.89 1272,1280.5C 1260.79,1296.87 1245.62,1302.7 1226.5,1298C 1220,1294.59 1213.67,1290.92 1207.5,1287C 1162.01,1251.76 1116.35,1216.76 1070.5,1182C 1061.12,1178.17 1052.12,1178.84 1043.5,1184C 1034.82,1194.44 1034.32,1205.27 1042,1216.5C 1081.83,1247 1121.67,1277.5 1161.5,1308C 1186.28,1325.7 1188.62,1346.04 1168.5,1369C 1154.1,1381.26 1138.77,1382.59 1122.5,1373C 1085.99,1345.24 1049.65,1317.24 1013.5,1289C 1007.51,1286.35 1001.34,1285.85 995,1287.5C 979.923,1247.59 951.09,1228.92 908.5,1231.5C 909.657,1194.62 893.657,1168.45 860.5,1153C 840.965,1145.4 821.298,1144.9 801.5,1151.5C 796.93,1115.53 777.263,1092.36 742.5,1082C 717.528,1076.83 695.195,1082.16 675.5,1098C 661.598,1111.73 647.931,1125.57 634.5,1139.5C 602.188,1114.52 570.188,1089.18 538.5,1063.5C 610,965.167 681.5,866.833 753,768.5C 769.076,770.955 785.243,771.122 801.5,769C 824.581,765.486 847.247,760.652 869.5,754.5 Z M 1621.5,921.5 C 1634.79,919.966 1642.12,925.8 1643.5,939C 1640.78,953.52 1632.45,958.52 1618.5,954C 1609.33,947.133 1607.49,938.633 1613,928.5C 1615.44,925.546 1618.27,923.213 1621.5,921.5 Z M 412.5,985.5 C 423.234,985.106 429.734,990.106 432,1000.5C 432.31,1014.52 425.476,1021.02 411.5,1020C 403.199,1017.19 398.865,1011.36 398.5,1002.5C 399.59,993.755 404.257,988.088 412.5,985.5 Z M 719.5,1122.5 C 740.159,1122 753.325,1131.66 759,1151.5C 760.232,1158.84 759.232,1165.84 756,1172.5C 732.226,1198.28 707.726,1223.44 682.5,1248C 665.803,1257.53 650.97,1255.03 638,1240.5C 627.751,1225.85 628.085,1211.52 639,1197.5C 661.862,1174.97 684.362,1152.14 706.5,1129C 710.657,1126.25 714.99,1124.09 719.5,1122.5 Z M 822.5,1189.5 C 848.078,1188.74 862.745,1201.07 866.5,1226.5C 865.906,1231.45 864.406,1236.12 862,1240.5C 833.557,1271.28 804.057,1301.11 773.5,1330C 755.829,1339.5 740.329,1336.67 727,1321.5C 716.739,1306.19 717.072,1291.19 728,1276.5C 755.832,1249.67 783.332,1222.5 810.5,1195C 814.284,1192.47 818.284,1190.64 822.5,1189.5 Z M 914.5,1272.5 C 942.019,1273.85 954.852,1288.18 953,1315.5C 952.197,1318.24 951.197,1320.91 950,1323.5C 923.807,1350.69 897.307,1377.53 870.5,1404C 854.086,1412.69 839.253,1410.52 826,1397.5C 816.156,1384.43 815.156,1370.77 823,1356.5C 849.197,1328.64 876.363,1301.8 904.5,1276C 907.85,1274.51 911.184,1273.35 914.5,1272.5 Z M 1005.5,1340.5 C 1000.44,1339.04 995.441,1337.37 990.5,1335.5C 991.333,1333.83 992.167,1332.17 993,1330.5C 997.066,1334.08 1001.23,1337.41 1005.5,1340.5 Z M 1032.5,1361.5 C 1050.08,1374.24 1067.24,1387.57 1084,1401.5C 1091.46,1418.51 1088.63,1433.68 1075.5,1447C 1062.79,1457.03 1049.46,1458.03 1035.5,1450C 1044.13,1437.76 1048.13,1424.09 1047.5,1409C 1047.9,1397.65 1045.73,1386.82 1041,1376.5C 1038.14,1371.45 1035.31,1366.45 1032.5,1361.5 Z M 969.5,1377.5 C 993.724,1377.89 1005.56,1390.22 1005,1414.5C 1004.34,1419.48 1002.34,1423.82 999,1427.5C 985.833,1440.67 972.667,1453.83 959.5,1467C 941.18,1474.33 927.346,1469.17 918,1451.5C 914.234,1442.16 914.901,1433.16 920,1424.5C 934.833,1409.67 949.667,1394.83 964.5,1380C 966.315,1379.24 967.981,1378.41 969.5,1377.5 Z"/></g>
<g><path style="opacity:1" fill="#fefffe" d="M 1619.5,891.5 C 1646.63,889.965 1664.46,901.965 1673,927.5C 1677.32,956.697 1665.49,975.864 1637.5,985C 1603.07,988.777 1583.73,973.444 1579.5,939C 1581.89,913.792 1595.22,897.959 1619.5,891.5 Z M 1621.5,921.5 C 1618.27,923.213 1615.44,925.546 1613,928.5C 1607.49,938.633 1609.33,947.133 1618.5,954C 1632.45,958.52 1640.78,953.52 1643.5,939C 1642.12,925.8 1634.79,919.966 1621.5,921.5 Z"/></g>
<g><path style="opacity:1" fill="#fefffe" d="M 406.5,956.5 C 436.037,954.159 454.537,967.159 462,995.5C 464.719,1020.24 454.886,1037.74 432.5,1048C 409.669,1054.61 390.836,1048.78 376,1030.5C 366.784,1013.85 366.118,996.849 374,979.5C 381.69,967.298 392.524,959.631 406.5,956.5 Z M 412.5,985.5 C 404.257,988.088 399.59,993.755 398.5,1002.5C 398.865,1011.36 403.199,1017.19 411.5,1020C 425.476,1021.02 432.31,1014.52 432,1000.5C 429.734,990.106 423.234,985.106 412.5,985.5 Z"/></g>
</svg>
