<?xml version="1.0" encoding="UTF-8"?>
<!DOCTYPE svg PUBLIC "-//W3C//DTD SVG 1.1//EN" "http://www.w3.org/Graphics/SVG/1.1/DTD/svg11.dtd">
<svg xmlns="http://www.w3.org/2000/svg" version="1.1" width="2048px" height="2048px" style="shape-rendering:geometricPrecision; text-rendering:geometricPrecision; image-rendering:optimizeQuality; fill-rule:evenodd; clip-rule:evenodd" xmlns:xlink="http://www.w3.org/1999/xlink">
<g><path style="opacity:1" fill="#020202" d="M 1442.5,513.5 C 1461.15,511.548 1476.65,517.548 1489,531.5C 1578.89,656.061 1669.56,780.061 1761,903.5C 1777.04,927.016 1776.2,949.849 1758.5,972C 1717.17,1002 1675.83,1032 1634.5,1062C 1626.03,1068.57 1616.69,1073.57 1606.5,1077C 1586.07,1080.7 1568.91,1074.87 1555,1059.5C 1546.91,1048.32 1538.58,1037.32 1530,1026.5C 1487.1,1058.37 1443.93,1089.87 1400.5,1121C 1419.14,1140.09 1426.47,1162.93 1422.5,1189.5C 1415.74,1220.77 1397.74,1242.93 1368.5,1256C 1352.84,1261.82 1336.84,1262.98 1320.5,1259.5C 1317.37,1298.12 1297.71,1324.29 1261.5,1338C 1249,1341.36 1236.34,1342.36 1223.5,1341C 1220.57,1377.55 1202.24,1402.88 1168.5,1417C 1154.94,1421.17 1141.61,1422 1128.5,1419.5C 1128.42,1442.83 1119.75,1462.33 1102.5,1478C 1079.22,1497.55 1053.22,1502.21 1024.5,1492C 1017.9,1488.79 1011.73,1484.95 1006,1480.5C 994.639,1494.43 980.472,1504.26 963.5,1510C 927.12,1516.39 899.953,1503.56 882,1471.5C 878.578,1463.48 876.245,1455.15 875,1446.5C 837.628,1456.6 808.294,1445.6 787,1413.5C 780.147,1400.73 776.481,1387.4 776,1373.5C 742.352,1381.95 714.685,1372.62 693,1345.5C 681.946,1329.96 677.113,1312.62 678.5,1293.5C 640.087,1298.7 612.254,1283.7 595,1248.5C 584.823,1221.07 588.657,1195.9 606.5,1173C 575.167,1148.33 543.833,1123.67 512.5,1099C 511.004,1098.49 509.837,1098.99 509,1100.5C 500.362,1115.14 489.528,1127.98 476.5,1139C 457.111,1149.47 438.111,1148.8 419.5,1137C 376.206,1104.35 332.206,1072.69 287.5,1042C 273.141,1027.24 268.308,1009.74 273,989.5C 275.695,981.109 279.695,973.442 285,966.5C 379.324,835.852 473.157,704.852 566.5,573.5C 581.535,559.791 598.868,555.958 618.5,562C 622.993,564.079 627.326,566.412 631.5,569C 675.833,600 720.167,631 764.5,662C 785.278,680.177 790.278,702.01 779.5,727.5C 789.132,727.592 798.799,726.759 808.5,725C 864.965,712.64 921.631,701.307 978.5,691C 997.306,680.843 1016.97,672.843 1037.5,667C 1056.1,662.819 1074.76,662.485 1093.5,666C 1103.57,668.018 1113.57,670.351 1123.5,673C 1151.13,682.877 1179.46,689.877 1208.5,694C 1232.22,696.585 1255.56,694.585 1278.5,688C 1267.9,673.062 1265.74,656.895 1272,639.5C 1276.32,630.182 1282.49,622.349 1290.5,616C 1332.83,585.667 1375.17,555.333 1417.5,525C 1425.17,519.509 1433.5,515.675 1442.5,513.5 Z M 1448.5,555.5 C 1451.94,555.589 1454.77,556.922 1457,559.5C 1547.91,683.656 1638.58,807.989 1729,932.5C 1729.67,934.833 1729.67,937.167 1729,939.5C 1686.53,971.832 1643.36,1003.33 1599.5,1034C 1592.81,1035.57 1587.64,1033.41 1584,1027.5C 1525.38,948.55 1466.38,869.884 1407,791.5C 1374.5,747.82 1342.5,703.82 1311,659.5C 1310.34,655.975 1311.51,653.141 1314.5,651C 1359.09,618.888 1403.76,587.055 1448.5,555.5 Z M 597.5,602.5 C 600.649,602.211 603.649,602.711 606.5,604C 651.771,634.885 696.604,666.385 741,698.5C 743.168,703.5 742.502,708.167 739,712.5C 695.755,771.99 652.755,831.657 610,891.5C 564.178,953.145 518.844,1015.15 474,1077.5C 467.88,1085.95 461.38,1094.12 454.5,1102C 452.305,1103.37 449.971,1103.71 447.5,1103C 442.999,1100.58 438.666,1097.92 434.5,1095C 395.446,1066.28 356.113,1037.95 316.5,1010C 314.078,1008 313.245,1005.5 314,1002.5C 324.74,986.028 335.74,969.694 347,953.5C 430.019,836.119 513.519,719.119 597.5,602.5 Z M 1055.5,704.5 C 1066.94,704.035 1078.27,704.868 1089.5,707C 1115.78,714.536 1142.11,721.87 1168.5,729C 1203.65,737.322 1238.98,738.322 1274.5,732C 1284.92,729.651 1295.25,727.318 1305.5,725C 1372.03,814.026 1438.36,903.192 1504.5,992.5C 1459.5,1025.67 1414.5,1058.83 1369.5,1092C 1368.5,1092.67 1367.5,1092.67 1366.5,1092C 1311.54,1046.71 1256.87,1001.04 1202.5,955C 1210.17,955.933 1217.84,957.266 1225.5,959C 1248.93,962.619 1271.6,959.952 1293.5,951C 1304.9,945.025 1308.74,935.858 1305,923.5C 1300.04,913.937 1292.21,910.103 1281.5,912C 1262.26,920.899 1242.26,922.899 1221.5,918C 1197.99,912.83 1175.66,904.496 1154.5,893C 1120.5,874.006 1087.17,854.006 1054.5,833C 1026.17,831.265 999.172,836.599 973.5,849C 967.825,852.345 963.992,857.178 962,863.5C 941.938,890.568 916.771,911.401 886.5,926C 869.052,933.756 851.386,934.423 833.5,928C 820.993,920.143 817.493,909.31 823,895.5C 855.246,850.676 887.246,805.676 919,760.5C 931.255,750.623 945.088,743.79 960.5,740C 968.174,738.332 975.841,736.665 983.5,735C 998.147,727.701 1012.81,720.368 1027.5,713C 1036.68,709.215 1046.01,706.382 1055.5,704.5 Z M 872.5,752.5 C 875.907,752.125 876.407,753.125 874,755.5C 846.736,795.029 818.736,834.029 790,872.5C 776.951,896.474 777.618,920.141 792,943.5C 806.622,961.061 825.455,970.561 848.5,972C 876.736,973.367 902.736,966.367 926.5,951C 955.7,932.801 980.033,909.468 999.5,881C 1011.91,876.952 1024.58,874.118 1037.5,872.5C 1045.17,878.333 1052.83,884.167 1060.5,890C 1162.91,977.086 1265.91,1063.42 1369.5,1149C 1380.88,1160 1384.38,1173.17 1380,1188.5C 1368.4,1215.72 1348.57,1225.22 1320.5,1217C 1267.17,1175.67 1213.83,1134.33 1160.5,1093C 1149.81,1087.25 1140.31,1088.75 1132,1097.5C 1127.33,1106.17 1127.33,1114.83 1132,1123.5C 1175.93,1158.76 1220.43,1193.26 1265.5,1227C 1282.36,1243.06 1284.86,1261.23 1273,1281.5C 1261.23,1298.47 1245.4,1304.3 1225.5,1299C 1219,1295.59 1212.67,1291.92 1206.5,1288C 1161.01,1252.76 1115.35,1217.76 1069.5,1183C 1051.68,1176.57 1041.01,1182.57 1037.5,1201C 1037.8,1206.43 1039.63,1211.26 1043,1215.5C 1082.83,1246 1122.67,1276.5 1162.5,1307C 1184.24,1321.25 1188.74,1339.75 1176,1362.5C 1161.02,1381.45 1142.86,1385.29 1121.5,1374C 1086.17,1346.67 1050.83,1319.33 1015.5,1292C 1013.33,1290.41 1011,1289.08 1008.5,1288C 1003.38,1287.69 998.378,1287.52 993.5,1287.5C 978.38,1248.06 949.713,1229.72 907.5,1232.5C 908.591,1199.14 894.925,1173.98 866.5,1157C 845.238,1146.62 823.571,1145.46 801.5,1153.5C 796.321,1117.27 776.321,1093.77 741.5,1083C 717.219,1078.15 695.552,1083.49 676.5,1099C 662.265,1113.07 648.265,1127.23 634.5,1141.5C 601.69,1115.86 569.023,1090.02 536.5,1064C 608.411,965.51 680.078,866.844 751.5,768C 767.77,769.996 784.103,769.996 800.5,768C 824.944,764.28 848.944,759.113 872.5,752.5 Z M 1621.5,921.5 C 1634.79,919.966 1642.12,925.8 1643.5,939C 1640.78,953.52 1632.45,958.52 1618.5,954C 1609.33,947.133 1607.49,938.633 1613,928.5C 1615.44,925.546 1618.27,923.213 1621.5,921.5 Z M 412.5,985.5 C 423.223,985.102 429.723,990.102 432,1000.5C 432.31,1014.52 425.476,1021.02 411.5,1020C 403.199,1017.19 398.865,1011.36 398.5,1002.5C 399.59,993.755 404.257,988.088 412.5,985.5 Z M 718.5,1121.5 C 740.075,1120.2 753.909,1129.86 760,1150.5C 761.291,1158.5 760.291,1166.16 757,1173.5C 733.226,1199.28 708.726,1224.44 683.5,1249C 666.129,1258.8 650.629,1256.3 637,1241.5C 626.739,1226.19 627.072,1211.19 638,1196.5C 660.862,1173.97 683.362,1151.14 705.5,1128C 709.657,1125.25 713.99,1123.09 718.5,1121.5 Z M 821.5,1188.5 C 848.564,1186.89 863.898,1199.56 867.5,1226.5C 867.058,1231.82 865.558,1236.82 863,1241.5C 834.557,1272.28 805.057,1302.11 774.5,1331C 756.191,1340.59 740.025,1337.76 726,1322.5C 715.73,1306.53 716.063,1290.86 727,1275.5C 754.832,1248.67 782.332,1221.5 809.5,1194C 813.284,1191.47 817.284,1189.64 821.5,1188.5 Z M 913.5,1271.5 C 937.816,1270.97 951.816,1282.64 955.5,1306.5C 955.163,1312.49 953.663,1318.49 951,1324.5C 924.807,1351.69 898.307,1378.53 871.5,1405C 854.422,1413.9 838.922,1411.73 825,1398.5C 815.059,1384.76 814.059,1370.43 822,1355.5C 848.197,1327.64 875.363,1300.8 903.5,1275C 906.85,1273.51 910.184,1272.35 913.5,1271.5 Z M 991.5,1328.5 C 1003.11,1336.98 1014.77,1345.48 1026.5,1354C 1046,1369.5 1065.5,1385 1085,1400.5C 1093.31,1420.43 1089.14,1437.26 1072.5,1451C 1059.35,1458.49 1046.35,1458.32 1033.5,1450.5C 1044.72,1434.6 1048.88,1416.94 1046,1397.5C 1039.36,1365.36 1020.2,1345.03 988.5,1336.5C 990.076,1334.02 991.076,1331.35 991.5,1328.5 Z M 968.5,1376.5 C 994.727,1376.23 1007.23,1389.23 1006,1415.5C 1005.34,1420.48 1003.34,1424.82 1000,1428.5C 986.833,1441.67 973.667,1454.83 960.5,1468C 941.477,1475.77 926.977,1470.6 917,1452.5C 913.195,1442.5 913.861,1432.83 919,1423.5C 933.833,1408.67 948.667,1393.83 963.5,1379C 965.315,1378.24 966.981,1377.41 968.5,1376.5 Z"/></g>
<g><path style="opacity:1" fill="#020202" d="M 1619.5,891.5 C 1646.63,889.965 1664.46,901.965 1673,927.5C 1677.32,956.697 1665.49,975.864 1637.5,985C 1603.07,988.777 1583.73,973.444 1579.5,939C 1581.89,913.792 1595.22,897.959 1619.5,891.5 Z M 1621.5,921.5 C 1618.27,923.213 1615.44,925.546 1613,928.5C 1607.49,938.633 1609.33,947.133 1618.5,954C 1632.45,958.52 1640.78,953.52 1643.5,939C 1642.12,925.8 1634.79,919.966 1621.5,921.5 Z"/></g>
<g><path style="opacity:1" fill="#020202" d="M 406.5,956.5 C 425.968,954.148 441.801,960.481 454,975.5C 466.206,996.2 465.206,1016.2 451,1035.5C 439.09,1047.78 424.59,1052.61 407.5,1050C 378.198,1042.6 365.365,1023.77 369,993.5C 374.098,973.568 386.598,961.234 406.5,956.5 Z M 412.5,985.5 C 404.257,988.088 399.59,993.755 398.5,1002.5C 398.865,1011.36 403.199,1017.19 411.5,1020C 425.476,1021.02 432.31,1014.52 432,1000.5C 429.723,990.102 423.223,985.102 412.5,985.5 Z"/></g>
</svg>
