<?xml version="1.0" encoding="UTF-8"?>
<!DOCTYPE svg PUBLIC "-//W3C//DTD SVG 1.1//EN" "http://www.w3.org/Graphics/SVG/1.1/DTD/svg11.dtd">
<svg xmlns="http://www.w3.org/2000/svg" version="1.1" width="1024px" height="1024px" style="shape-rendering:geometricPrecision; text-rendering:geometricPrecision; image-rendering:optimizeQuality; fill-rule:evenodd; clip-rule:evenodd" xmlns:xlink="http://www.w3.org/1999/xlink">
<g><path style="opacity:1" fill="#9a2b2d" d="M 664.5,199.5 C 663.508,199.328 662.842,199.662 662.5,200.5C 661.224,199.614 661.224,198.614 662.5,197.5C 663.522,197.855 664.189,198.522 664.5,199.5 Z"/></g>
<g><path style="opacity:1" fill="#c22624" d="M 664.5,199.5 C 666.909,200.701 668.909,202.367 670.5,204.5C 668.742,204.123 667.075,203.456 665.5,202.5C 664.2,205.309 664.2,207.976 665.5,210.5C 666.455,226.465 666.788,242.465 666.5,258.5C 665.833,258.833 665.167,259.167 664.5,259.5C 666.27,239.742 665.603,220.076 662.5,200.5C 662.842,199.662 663.508,199.328 664.5,199.5 Z"/></g>
<g><path style="opacity:1" fill="#df0c0c" d="M 670.5,204.5 C 670.5,205.167 670.5,205.833 670.5,206.5C 668.956,206.297 667.622,205.63 666.5,204.5C 665.534,206.396 665.201,208.396 665.5,210.5C 664.2,207.976 664.2,205.309 665.5,202.5C 667.075,203.456 668.742,204.123 670.5,204.5 Z"/></g>
<g><path style="opacity:1" fill="#ed0707" d="M 670.5,206.5 C 671.391,207.11 672.391,207.443 673.5,207.5C 673.5,209.5 674.5,210.5 676.5,210.5C 681.775,217.444 687.775,223.777 694.5,229.5C 694.5,230.167 694.5,230.833 694.5,231.5C 687.229,224.947 680.062,218.281 673,211.5C 672.333,212.167 671.667,212.833 671,213.5C 670.138,211.913 669.471,210.246 669,208.5C 668.667,225.5 668.333,242.5 668,259.5C 667.251,264.489 666.585,269.489 666,274.5C 665.343,277.908 664.177,280.908 662.5,283.5C 662.958,279.462 663.624,275.462 664.5,271.5C 664.5,270.167 664.5,268.833 664.5,267.5C 666.118,264.829 666.785,261.829 666.5,258.5C 666.788,242.465 666.455,226.465 665.5,210.5C 665.201,208.396 665.534,206.396 666.5,204.5C 667.622,205.63 668.956,206.297 670.5,206.5 Z"/></g>
<g><path style="opacity:1" fill="#bd1e1d" d="M 670.5,204.5 C 671.833,205.167 672.833,206.167 673.5,207.5C 672.391,207.443 671.391,207.11 670.5,206.5C 670.5,205.833 670.5,205.167 670.5,204.5 Z"/></g>
<g><path style="opacity:1" fill="#fd0000" d="M 694.5,231.5 C 696.167,232.833 697.833,234.167 699.5,235.5C 700.08,237.749 701.413,239.415 703.5,240.5C 703.5,241.167 703.5,241.833 703.5,242.5C 703.892,244.179 704.392,245.846 705,247.5C 710.084,254.998 715.251,262.331 720.5,269.5C 722.281,272.091 724.281,274.425 726.5,276.5C 726.952,280.163 727.452,283.83 728,287.5C 730.131,289.117 731.631,291.117 732.5,293.5C 733.167,293.833 733.833,294.167 734.5,294.5C 735.01,298.884 735.843,303.218 737,307.5C 737.383,308.056 737.883,308.389 738.5,308.5C 738.5,308.833 738.5,309.167 738.5,309.5C 738.335,313.182 738.501,316.848 739,320.5C 739.852,321.571 740.685,322.571 741.5,323.5C 743.118,326.171 743.785,329.171 743.5,332.5C 746.006,351.431 747.673,369.764 748.5,387.5C 752.167,387.836 755.5,387.003 758.5,385C 761.474,380.742 764.641,376.575 768,372.5C 773.51,359.804 776.344,346.47 776.5,332.5C 777.5,332.5 778.5,332.5 779.5,332.5C 780.167,332.833 780.833,333.167 781.5,333.5C 781.5,334.833 781.5,336.167 781.5,337.5C 782.903,342.9 785.57,347.566 789.5,351.5C 791.824,360.487 795.49,368.821 800.5,376.5C 800.337,378.857 800.503,381.19 801,383.5C 809.996,409.697 813.663,437.031 812,465.5C 811.626,466.416 811.126,467.25 810.5,468C 811.46,471.73 811.793,475.563 811.5,479.5C 808.005,483.784 806.672,488.784 807.5,494.5C 805.163,496.507 803.829,499.173 803.5,502.5C 802.699,504.042 802.366,505.708 802.5,507.5C 800.896,508.287 800.229,509.62 800.5,511.5C 799.504,511.414 798.671,511.748 798,512.5C 796.39,514.992 795.224,517.659 794.5,520.5C 791.11,524.596 787.277,528.263 783,531.5C 782.517,532.448 782.351,533.448 782.5,534.5C 781.5,534.5 780.5,534.5 779.5,534.5C 779.251,537.744 777.584,539.744 774.5,540.5C 771.927,541.657 769.427,542.991 767,544.5C 766.667,544.167 766.333,543.833 766,543.5C 765.598,544.872 765.098,546.205 764.5,547.5C 761.967,549.191 759.3,550.691 756.5,552C 755.748,552.671 755.414,553.504 755.5,554.5C 751.299,557.685 746.633,560.018 741.5,561.5C 738.306,562.758 734.973,563.424 731.5,563.5C 732.043,560.962 733.043,558.628 734.5,556.5C 734.833,555.5 735.5,554.833 736.5,554.5C 737.885,553.386 739.385,552.386 741,551.5C 749.949,536.82 752.949,520.82 750,503.5C 748.086,497.892 745.919,492.558 743.5,487.5C 743.5,487.167 743.5,486.833 743.5,486.5C 742.895,483.873 742.395,481.207 742,478.5C 741.186,475.823 739.686,473.823 737.5,472.5C 736.241,466.809 733.574,461.975 729.5,458C 727.559,457.257 725.726,457.424 724,458.5C 723.829,463.533 723.329,468.533 722.5,473.5C 721.312,470.442 719.646,467.775 717.5,465.5C 717.5,465.167 717.5,464.833 717.5,464.5C 714.598,459.291 712.765,453.624 712,447.5C 711.241,445.937 710.074,444.937 708.5,444.5C 708.5,443.833 708.5,443.167 708.5,442.5C 707.583,434.843 706.417,427.177 705,419.5C 704.41,409.486 704.576,399.486 705.5,389.5C 702.276,389.203 699.276,389.87 696.5,391.5C 695.614,392.325 695.281,393.325 695.5,394.5C 694.833,394.5 694.5,394.833 694.5,395.5C 691.821,395.525 690.488,396.858 690.5,399.5C 686.9,400.32 684.9,402.653 684.5,406.5C 682.824,407.183 682.157,408.517 682.5,410.5C 681.5,410.5 680.5,410.5 679.5,410.5C 679.824,414.537 678.158,417.203 674.5,418.5C 673.624,418.369 672.957,418.702 672.5,419.5C 671.527,422.779 670.027,425.779 668,428.5C 667.506,430.134 667.34,431.801 667.5,433.5C 666.504,433.414 665.671,433.748 665,434.5C 662.959,440.356 661.293,446.356 660,452.5C 658.065,454.136 657.565,455.969 658.5,458C 656.842,464.684 655.175,464.184 653.5,456.5C 654.229,454.405 653.563,452.572 651.5,451C 647.284,450.441 644.951,452.274 644.5,456.5C 644.023,459.025 642.69,461.025 640.5,462.5C 636.998,467.765 634.164,473.431 632,479.5C 625.088,500.42 624.755,521.42 631,542.5C 631.708,543.381 632.542,544.047 633.5,544.5C 634.222,545.551 635.222,546.218 636.5,546.5C 636.241,548.989 637.241,550.656 639.5,551.5C 639.5,552.167 639.5,552.833 639.5,553.5C 640.389,555.736 641.722,557.736 643.5,559.5C 642.667,559.833 641.833,560.167 641,560.5C 636.423,558.192 631.923,555.692 627.5,553C 625.482,552.495 623.482,551.995 621.5,551.5C 621.5,550.5 621.5,549.5 621.5,548.5C 620.167,548.5 618.833,548.5 617.5,548.5C 617.719,547.325 617.386,546.325 616.5,545.5C 611.213,542.043 606.213,538.377 601.5,534.5C 600.833,534.5 600.167,534.5 599.5,534.5C 599.5,532.5 598.5,531.5 596.5,531.5C 595.573,526.909 592.906,523.909 588.5,522.5C 588.5,522.167 588.5,521.833 588.5,521.5C 588.817,518.454 587.484,516.787 584.5,516.5C 584.5,516.167 584.5,515.833 584.5,515.5C 583.724,511.948 582.391,508.614 580.5,505.5C 579.03,498.559 576.863,491.892 574,485.5C 573.222,478.293 572.055,471.293 570.5,464.5C 570.275,453.939 570.942,443.439 572.5,433C 574.748,422.183 576.748,411.35 578.5,400.5C 578.5,400.167 578.5,399.833 578.5,399.5C 580.159,398.166 581.492,396.499 582.5,394.5C 586.534,383.684 590.867,373.017 595.5,362.5C 599.062,356.924 603.062,351.591 607.5,346.5C 608.167,349.977 608.834,353.311 609.5,356.5C 610.705,360.149 611.705,363.983 612.5,368C 612.684,369.376 613.351,370.209 614.5,370.5C 615.34,372.853 616.674,374.853 618.5,376.5C 618.5,377.833 618.5,379.167 618.5,380.5C 618.5,381.5 618.5,382.5 618.5,383.5C 621.365,383.945 623.865,383.278 626,381.5C 627.851,374.801 630.518,368.467 634,362.5C 634.494,360.866 634.66,359.199 634.5,357.5C 635.404,356.791 635.737,355.791 635.5,354.5C 636.5,354.5 637.5,354.5 638.5,354.5C 643.686,340.789 649.186,327.123 655,313.5C 658.674,303.674 661.174,293.674 662.5,283.5C 664.177,280.908 665.343,277.908 666,274.5C 666.585,269.489 667.251,264.489 668,259.5C 668.333,242.5 668.667,225.5 669,208.5C 669.471,210.246 670.138,211.913 671,213.5C 671.667,212.833 672.333,212.167 673,211.5C 680.062,218.281 687.229,224.947 694.5,231.5 Z"/></g>
<g><path style="opacity:1" fill="#c01818" d="M 673.5,207.5 C 674.833,208.167 675.833,209.167 676.5,210.5C 674.5,210.5 673.5,209.5 673.5,207.5 Z"/></g>
<g><path style="opacity:1" fill="#c31b1b" d="M 676.5,210.5 C 683.225,216.223 689.225,222.556 694.5,229.5C 687.775,223.777 681.775,217.444 676.5,210.5 Z"/></g>
<g><path style="opacity:1" fill="#c31b1a" d="M 694.5,229.5 C 696.914,230.911 698.581,232.911 699.5,235.5C 697.833,234.167 696.167,232.833 694.5,231.5C 694.5,230.833 694.5,230.167 694.5,229.5 Z"/></g>
<g><path style="opacity:1" fill="#c41f1d" d="M 699.5,235.5 C 701.587,236.585 702.92,238.251 703.5,240.5C 701.413,239.415 700.08,237.749 699.5,235.5 Z"/></g>
<g><path style="opacity:1" fill="#c22824" d="M 703.5,240.5 C 705.587,241.585 706.92,243.251 707.5,245.5C 706.167,244.5 704.833,243.5 703.5,242.5C 703.5,241.833 703.5,241.167 703.5,240.5 Z"/></g>
<g><path style="opacity:1" fill="#c02422" d="M 707.5,245.5 C 708.906,245.973 709.573,246.973 709.5,248.5C 708.094,248.027 707.427,247.027 707.5,245.5 Z"/></g>
<g><path style="opacity:1" fill="#ec0707" d="M 703.5,242.5 C 704.833,243.5 706.167,244.5 707.5,245.5C 707.427,247.027 708.094,248.027 709.5,248.5C 709.427,250.027 710.094,251.027 711.5,251.5C 711.427,253.027 712.094,254.027 713.5,254.5C 713.427,256.027 714.094,257.027 715.5,257.5C 715.427,259.027 716.094,260.027 717.5,260.5C 717.977,263.655 718.977,266.655 720.5,269.5C 715.251,262.331 710.084,254.998 705,247.5C 704.392,245.846 703.892,244.179 703.5,242.5 Z"/></g>
<g><path style="opacity:1" fill="#c01e1d" d="M 709.5,248.5 C 710.906,248.973 711.573,249.973 711.5,251.5C 710.094,251.027 709.427,250.027 709.5,248.5 Z"/></g>
<g><path style="opacity:1" fill="#c21d1a" d="M 711.5,251.5 C 712.906,251.973 713.573,252.973 713.5,254.5C 712.094,254.027 711.427,253.027 711.5,251.5 Z"/></g>
<g><path style="opacity:1" fill="#fefffe" d="M 510.5,255.5 C 538.549,277.207 565.883,299.874 592.5,323.5C 581.55,338.391 572.383,354.391 565,371.5C 547.603,356.267 529.77,341.6 511.5,327.5C 406.147,417.354 300.647,507.021 195,596.5C 183.167,582.667 171.333,568.833 159.5,555C 209,512.833 258.5,470.667 308,428.5C 308.5,394.502 308.667,360.502 308.5,326.5C 333.167,326.5 357.833,326.5 382.5,326.5C 382.168,338.851 382.501,351.185 383.5,363.5C 425.878,327.448 468.211,291.448 510.5,255.5 Z"/></g>
<g><path style="opacity:1" fill="#c11d1c" d="M 713.5,254.5 C 714.906,254.973 715.573,255.973 715.5,257.5C 714.094,257.027 713.427,256.027 713.5,254.5 Z"/></g>
<g><path style="opacity:1" fill="#be231e" d="M 715.5,257.5 C 716.906,257.973 717.573,258.973 717.5,260.5C 716.094,260.027 715.427,259.027 715.5,257.5 Z"/></g>
<g><path style="opacity:1" fill="#cc1c18" d="M 717.5,260.5 C 721.293,265.316 724.293,270.65 726.5,276.5C 724.281,274.425 722.281,272.091 720.5,269.5C 718.977,266.655 717.977,263.655 717.5,260.5 Z"/></g>
<g><path style="opacity:1" fill="#d70f0f" d="M 666.5,258.5 C 666.785,261.829 666.118,264.829 664.5,267.5C 664.5,266.167 664.5,264.833 664.5,263.5C 664.5,262.167 664.5,260.833 664.5,259.5C 665.167,259.167 665.833,258.833 666.5,258.5 Z"/></g>
<g><path style="opacity:1" fill="#c11d1c" d="M 664.5,263.5 C 664.5,264.833 664.5,266.167 664.5,267.5C 664.5,268.833 664.5,270.167 664.5,271.5C 663.833,272.5 663.167,273.5 662.5,274.5C 662.808,270.64 663.475,266.974 664.5,263.5 Z"/></g>
<g><path style="opacity:1" fill="#ce1815" d="M 664.5,271.5 C 663.624,275.462 662.958,279.462 662.5,283.5C 661.833,283.833 661.167,284.167 660.5,284.5C 660.788,281.061 661.454,277.728 662.5,274.5C 663.167,273.5 663.833,272.5 664.5,271.5 Z"/></g>
<g><path style="opacity:1" fill="#c6201c" d="M 728.5,280.5 C 730.592,283.088 731.925,286.088 732.5,289.5C 729.835,287.165 728.502,284.165 728.5,280.5 Z"/></g>
<g><path style="opacity:1" fill="#e70b09" d="M 726.5,276.5 C 727.674,277.514 728.34,278.847 728.5,280.5C 728.502,284.165 729.835,287.165 732.5,289.5C 732.5,290.833 732.5,292.167 732.5,293.5C 731.631,291.117 730.131,289.117 728,287.5C 727.452,283.83 726.952,280.163 726.5,276.5 Z"/></g>
<g><path style="opacity:1" fill="#c02320" d="M 659.5,288.5 C 659.59,291.152 658.924,293.485 657.5,295.5C 657.41,292.848 658.076,290.515 659.5,288.5 Z"/></g>
<g><path style="opacity:1" fill="#c51c18" d="M 732.5,289.5 C 733.537,290.93 734.204,292.597 734.5,294.5C 733.833,294.167 733.167,293.833 732.5,293.5C 732.5,292.167 732.5,290.833 732.5,289.5 Z"/></g>
<g><path style="opacity:1" fill="#c12421" d="M 657.5,295.5 C 657.59,298.152 656.924,300.485 655.5,302.5C 655.41,299.848 656.076,297.515 657.5,295.5 Z"/></g>
<g><path style="opacity:1" fill="#d11714" d="M 734.5,294.5 C 736.601,297.797 737.935,301.463 738.5,305.5C 738.5,306.5 738.5,307.5 738.5,308.5C 737.883,308.389 737.383,308.056 737,307.5C 735.843,303.218 735.01,298.884 734.5,294.5 Z"/></g>
<g><path style="opacity:1" fill="#c41f1a" d="M 655.5,302.5 C 655.655,305.716 654.655,308.383 652.5,310.5C 653.129,307.603 654.129,304.936 655.5,302.5 Z"/></g>
<g><path style="opacity:1" fill="#c02421" d="M 738.5,305.5 C 740.277,308.505 741.277,311.838 741.5,315.5C 740.5,313.5 739.5,311.5 738.5,309.5C 738.5,309.167 738.5,308.833 738.5,308.5C 738.5,307.5 738.5,306.5 738.5,305.5 Z"/></g>
<g><path style="opacity:1" fill="#ed0806" d="M 662.5,283.5 C 661.174,293.674 658.674,303.674 655,313.5C 649.186,327.123 643.686,340.789 638.5,354.5C 637.5,354.5 636.5,354.5 635.5,354.5C 635.737,355.791 635.404,356.791 634.5,357.5C 634.5,356.167 634.5,354.833 634.5,353.5C 637.829,349.839 639.829,345.506 640.5,340.5C 643.165,338.165 644.498,335.165 644.5,331.5C 647.917,329.109 649.25,325.775 648.5,321.5C 650.897,318.691 652.23,315.358 652.5,311.5C 652.5,311.167 652.5,310.833 652.5,310.5C 654.655,308.383 655.655,305.716 655.5,302.5C 656.924,300.485 657.59,298.152 657.5,295.5C 658.924,293.485 659.59,291.152 659.5,288.5C 659.232,286.901 659.566,285.568 660.5,284.5C 661.167,284.167 661.833,283.833 662.5,283.5 Z"/></g>
<g><path style="opacity:1" fill="#c61f1b" d="M 652.5,311.5 C 652.23,315.358 650.897,318.691 648.5,321.5C 649.267,317.851 650.6,314.518 652.5,311.5 Z"/></g>
<g><path style="opacity:1" fill="#ed0605" d="M 738.5,309.5 C 739.5,311.5 740.5,313.5 741.5,315.5C 741.5,316.833 741.5,318.167 741.5,319.5C 741.5,320.833 741.5,322.167 741.5,323.5C 740.685,322.571 739.852,321.571 739,320.5C 738.501,316.848 738.335,313.182 738.5,309.5 Z"/></g>
<g><path style="opacity:1" fill="#be2522" d="M 741.5,315.5 C 742.924,317.515 743.59,319.848 743.5,322.5C 742.833,321.5 742.167,320.5 741.5,319.5C 741.5,318.167 741.5,316.833 741.5,315.5 Z"/></g>
<g><path style="opacity:1" fill="#d11916" d="M 648.5,321.5 C 649.25,325.775 647.917,329.109 644.5,331.5C 645.321,327.873 646.654,324.54 648.5,321.5 Z"/></g>
<g><path style="opacity:1" fill="#ae1d1d" d="M 777.5,327.5 C 776.391,327.557 775.391,327.89 774.5,328.5C 774.686,323.69 775.686,323.357 777.5,327.5 Z"/></g>
<g><path style="opacity:1" fill="#ba1d1c" d="M 777.5,327.5 C 778.906,327.973 779.573,328.973 779.5,330.5C 779.167,330.5 778.833,330.5 778.5,330.5C 777.89,329.609 777.557,328.609 777.5,327.5 Z"/></g>
<g><path style="opacity:1" fill="#bb1e1b" d="M 779.5,330.5 C 780.906,330.973 781.573,331.973 781.5,333.5C 780.833,333.167 780.167,332.833 779.5,332.5C 779.5,331.833 779.5,331.167 779.5,330.5 Z"/></g>
<g><path style="opacity:1" fill="#cb1c18" d="M 644.5,331.5 C 644.498,335.165 643.165,338.165 640.5,340.5C 641.075,337.088 642.408,334.088 644.5,331.5 Z"/></g>
<g><path style="opacity:1" fill="#ce1614" d="M 741.5,319.5 C 742.167,320.5 742.833,321.5 743.5,322.5C 745.135,327.344 746.135,332.344 746.5,337.5C 746.5,338.5 746.5,339.5 746.5,340.5C 745.749,337.754 744.749,335.087 743.5,332.5C 743.785,329.171 743.118,326.171 741.5,323.5C 741.5,322.167 741.5,320.833 741.5,319.5 Z"/></g>
<g><path style="opacity:1" fill="#cc1a18" d="M 777.5,327.5 C 777.557,328.609 777.89,329.609 778.5,330.5C 777.504,330.414 776.671,330.748 776,331.5C 775.465,335.038 774.632,338.372 773.5,341.5C 773.586,337.143 773.92,332.81 774.5,328.5C 775.391,327.89 776.391,327.557 777.5,327.5 Z"/></g>
<g><path style="opacity:1" fill="#ca1b18" d="M 781.5,333.5 C 785.174,337.507 787.841,342.173 789.5,347.5C 786.507,344.499 783.841,341.165 781.5,337.5C 781.5,336.167 781.5,334.833 781.5,333.5 Z"/></g>
<g><path style="opacity:1" fill="#be1f1b" d="M 612.5,355.5 C 611.778,355.082 611.278,354.416 611,353.5C 611.118,348.067 610.285,343.067 608.5,338.5C 608.908,337.357 609.575,336.357 610.5,335.5C 611.333,342.161 611.999,348.827 612.5,355.5 Z"/></g>
<g><path style="opacity:1" fill="#c22421" d="M 608.5,338.5 C 608.443,339.609 608.11,340.609 607.5,341.5C 606.5,343.167 605.167,344.5 603.5,345.5C 604.786,342.883 606.453,340.55 608.5,338.5 Z"/></g>
<g><path style="opacity:1" fill="#c32421" d="M 603.5,345.5 C 603.573,347.027 602.906,348.027 601.5,348.5C 601.427,346.973 602.094,345.973 603.5,345.5 Z"/></g>
<g><path style="opacity:1" fill="#cb1e1b" d="M 640.5,340.5 C 639.829,345.506 637.829,349.839 634.5,353.5C 635.716,348.738 637.716,344.405 640.5,340.5 Z"/></g>
<g><path style="opacity:1" fill="#df120e" d="M 608.5,338.5 C 610.285,343.067 611.118,348.067 611,353.5C 611.278,354.416 611.778,355.082 612.5,355.5C 613.422,359.112 614.089,362.779 614.5,366.5C 614.5,367.833 614.5,369.167 614.5,370.5C 613.351,370.209 612.684,369.376 612.5,368C 611.705,363.983 610.705,360.149 609.5,356.5C 610.108,351.056 609.442,346.056 607.5,341.5C 608.11,340.609 608.443,339.609 608.5,338.5 Z"/></g>
<g><path style="opacity:1" fill="#c22724" d="M 601.5,348.5 C 601.5,349.167 601.5,349.833 601.5,350.5C 600.833,350.833 600.167,351.167 599.5,351.5C 599.427,349.973 600.094,348.973 601.5,348.5 Z"/></g>
<g><path style="opacity:1" fill="#f00605" d="M 607.5,341.5 C 609.442,346.056 610.108,351.056 609.5,356.5C 608.834,353.311 608.167,349.977 607.5,346.5C 603.062,351.591 599.062,356.924 595.5,362.5C 596.15,360.565 596.483,358.565 596.5,356.5C 597.167,356.167 597.833,355.833 598.5,355.5C 599.89,354.101 600.89,352.434 601.5,350.5C 601.5,349.833 601.5,349.167 601.5,348.5C 602.906,348.027 603.573,347.027 603.5,345.5C 605.167,344.5 606.5,343.167 607.5,341.5 Z"/></g>
<g><path style="opacity:1" fill="#d91412" d="M 601.5,350.5 C 600.89,352.434 599.89,354.101 598.5,355.5C 598.5,354.833 598.5,354.167 598.5,353.5C 598.328,352.508 598.662,351.842 599.5,351.5C 600.167,351.167 600.833,350.833 601.5,350.5 Z"/></g>
<g><path style="opacity:1" fill="#c81a1a" d="M 791.5,351.5 C 793.951,354.74 795.618,358.407 796.5,362.5C 793.504,359.503 791.837,355.836 791.5,351.5 Z"/></g>
<g><path style="opacity:1" fill="#bf2824" d="M 598.5,353.5 C 598.5,354.167 598.5,354.833 598.5,355.5C 597.833,355.833 597.167,356.167 596.5,356.5C 596.427,354.973 597.094,353.973 598.5,353.5 Z"/></g>
<g><path style="opacity:1" fill="#c91e1c" d="M 634.5,353.5 C 634.5,354.833 634.5,356.167 634.5,357.5C 633.407,359.349 632.074,361.016 630.5,362.5C 631.075,359.088 632.408,356.088 634.5,353.5 Z"/></g>
<g><path style="opacity:1" fill="#ee0706" d="M 781.5,337.5 C 783.841,341.165 786.507,344.499 789.5,347.5C 790.674,348.514 791.34,349.847 791.5,351.5C 791.837,355.836 793.504,359.503 796.5,362.5C 796.77,366.358 798.103,369.691 800.5,372.5C 800.5,373.833 800.5,375.167 800.5,376.5C 795.49,368.821 791.824,360.487 789.5,351.5C 785.57,347.566 782.903,342.9 781.5,337.5 Z"/></g>
<g><path style="opacity:1" fill="#c91e1b" d="M 630.5,362.5 C 629.843,367.824 627.843,372.49 624.5,376.5C 625.988,371.533 627.988,366.866 630.5,362.5 Z"/></g>
<g><path style="opacity:1" fill="#c31f1b" d="M 796.5,362.5 C 798.4,365.518 799.733,368.851 800.5,372.5C 798.103,369.691 796.77,366.358 796.5,362.5 Z"/></g>
<g><path style="opacity:1" fill="#fefffe" d="M 507.5,366.5 C 514.117,366.19 520.45,367.357 526.5,370C 536.625,377.79 546.458,385.956 556,394.5C 554.368,402.239 552.202,409.906 549.5,417.5C 540.644,410.143 531.644,402.977 522.5,396C 513.819,392.293 505.486,392.96 497.5,398C 439.128,448.708 380.461,499.041 321.5,549C 317.214,553.064 314.048,557.897 312,563.5C 310.513,633.122 310.013,702.788 310.5,772.5C 356.172,772.833 401.838,772.5 447.5,771.5C 446.33,724.421 446.33,677.421 447.5,630.5C 490.167,630.5 532.833,630.5 575.5,630.5C 575.603,677.86 575.603,725.193 575.5,772.5C 621.167,772.5 666.833,772.5 712.5,772.5C 712.5,712.833 712.5,653.167 712.5,593.5C 731.006,591.043 748.339,585.21 764.5,576C 765.784,575.316 766.951,575.483 768,576.5C 768.667,645.167 768.667,713.833 768,782.5C 762.246,809.919 745.412,825.086 717.5,828C 579.833,828.667 442.167,828.667 304.5,828C 276.666,824.498 260.166,808.998 255,781.5C 254.333,713.167 254.333,644.833 255,576.5C 335.74,507.548 416.574,438.715 497.5,370C 500.85,368.514 504.184,367.347 507.5,366.5 Z"/></g>
<g><path style="opacity:1" fill="#ed0907" d="M 778.5,330.5 C 778.833,330.5 779.167,330.5 779.5,330.5C 779.5,331.167 779.5,331.833 779.5,332.5C 778.5,332.5 777.5,332.5 776.5,332.5C 776.344,346.47 773.51,359.804 768,372.5C 764.641,376.575 761.474,380.742 758.5,385C 755.5,387.003 752.167,387.836 748.5,387.5C 747.673,369.764 746.006,351.431 743.5,332.5C 744.749,335.087 745.749,337.754 746.5,340.5C 747.665,349.488 748.665,358.488 749.5,367.5C 748.88,373.926 749.547,379.926 751.5,385.5C 751.833,385.5 752.167,385.5 752.5,385.5C 756.089,384.908 758.422,382.908 759.5,379.5C 761.527,378.139 763.194,376.473 764.5,374.5C 767.134,370.605 768.801,366.272 769.5,361.5C 770.924,359.485 771.59,357.152 771.5,354.5C 771.909,350.124 772.575,345.79 773.5,341.5C 774.632,338.372 775.465,335.038 776,331.5C 776.671,330.748 777.504,330.414 778.5,330.5 Z"/></g>
<g><path style="opacity:1" fill="#c3211f" d="M 771.5,354.5 C 771.59,357.152 770.924,359.485 769.5,361.5C 769.41,358.848 770.076,356.515 771.5,354.5 Z"/></g>
<g><path style="opacity:1" fill="#c1211c" d="M 746.5,337.5 C 748.916,347.221 750.25,357.221 750.5,367.5C 750.167,367.5 749.833,367.5 749.5,367.5C 748.665,358.488 747.665,349.488 746.5,340.5C 746.5,339.5 746.5,338.5 746.5,337.5 Z"/></g>
<g><path style="opacity:1" fill="#cb1f1a" d="M 596.5,356.5 C 596.483,358.565 596.15,360.565 595.5,362.5C 592.135,366.925 589.135,371.592 586.5,376.5C 589.272,369.491 592.606,362.825 596.5,356.5 Z"/></g>
<g><path style="opacity:1" fill="#ee0706" d="M 634.5,357.5 C 634.66,359.199 634.494,360.866 634,362.5C 630.518,368.467 627.851,374.801 626,381.5C 623.865,383.278 621.365,383.945 618.5,383.5C 618.5,382.5 618.5,381.5 618.5,380.5C 619.609,380.557 620.609,380.89 621.5,381.5C 622.189,382.774 623.023,382.774 624,381.5C 624.494,379.866 624.66,378.199 624.5,376.5C 627.843,372.49 629.843,367.824 630.5,362.5C 632.074,361.016 633.407,359.349 634.5,357.5 Z"/></g>
<g><path style="opacity:1" fill="#d01716" d="M 769.5,361.5 C 768.801,366.272 767.134,370.605 764.5,374.5C 764.5,373.833 764.5,373.167 764.5,372.5C 765.93,368.646 767.597,364.979 769.5,361.5 Z"/></g>
<g><path style="opacity:1" fill="#d01615" d="M 614.5,366.5 C 616.346,369.54 617.679,372.873 618.5,376.5C 616.674,374.853 615.34,372.853 614.5,370.5C 614.5,369.167 614.5,367.833 614.5,366.5 Z"/></g>
<g><path style="opacity:1" fill="#ee0606" d="M 595.5,362.5 C 590.867,373.017 586.534,383.684 582.5,394.5C 581.492,396.499 580.159,398.166 578.5,399.5C 578.5,398.5 578.5,397.5 578.5,396.5C 578.5,396.167 578.5,395.833 578.5,395.5C 580.213,394.365 580.88,392.698 580.5,390.5C 582.213,389.365 582.88,387.698 582.5,385.5C 585.165,383.165 586.498,380.165 586.5,376.5C 589.135,371.592 592.135,366.925 595.5,362.5 Z"/></g>
<g><path style="opacity:1" fill="#c41e1b" d="M 800.5,372.5 C 802.204,375.939 803.538,379.605 804.5,383.5C 802.794,381.388 801.461,379.055 800.5,376.5C 800.5,375.167 800.5,373.833 800.5,372.5 Z"/></g>
<g><path style="opacity:1" fill="#c32a27" d="M 764.5,372.5 C 764.5,373.167 764.5,373.833 764.5,374.5C 763.194,376.473 761.527,378.139 759.5,379.5C 760.786,376.883 762.453,374.55 764.5,372.5 Z"/></g>
<g><path style="opacity:1" fill="#ca1b17" d="M 586.5,376.5 C 586.498,380.165 585.165,383.165 582.5,385.5C 583.075,382.088 584.408,379.088 586.5,376.5 Z"/></g>
<g><path style="opacity:1" fill="#ce2320" d="M 618.5,376.5 C 619.89,377.899 620.89,379.566 621.5,381.5C 620.609,380.89 619.609,380.557 618.5,380.5C 618.5,379.167 618.5,377.833 618.5,376.5 Z"/></g>
<g><path style="opacity:1" fill="#d42520" d="M 749.5,367.5 C 749.833,367.5 750.167,367.5 750.5,367.5C 751.363,373.455 751.697,379.455 751.5,385.5C 749.547,379.926 748.88,373.926 749.5,367.5 Z"/></g>
<g><path style="opacity:1" fill="#d7211d" d="M 624.5,376.5 C 624.66,378.199 624.494,379.866 624,381.5C 623.023,382.774 622.189,382.774 621.5,381.5C 622.935,380.087 623.935,378.42 624.5,376.5 Z"/></g>
<g><path style="opacity:1" fill="#c81818" d="M 759.5,379.5 C 758.422,382.908 756.089,384.908 752.5,385.5C 754.808,383.529 757.142,381.529 759.5,379.5 Z"/></g>
<g><path style="opacity:1" fill="#c4221e" d="M 582.5,385.5 C 582.88,387.698 582.213,389.365 580.5,390.5C 580.796,388.597 581.463,386.93 582.5,385.5 Z"/></g>
<g><path style="opacity:1" fill="#c21f1c" d="M 805.5,387.5 C 806.924,389.515 807.59,391.848 807.5,394.5C 806.076,392.485 805.41,390.152 805.5,387.5 Z"/></g>
<g><path style="opacity:1" fill="#e70d0a" d="M 708.5,442.5 C 707.833,442.167 707.167,441.833 706.5,441.5C 706.5,441.167 706.5,440.833 706.5,440.5C 706.662,438.473 706.495,436.473 706,434.5C 705.617,433.944 705.117,433.611 704.5,433.5C 703.539,431.735 703.205,429.735 703.5,427.5C 702.713,417.854 702.38,408.188 702.5,398.5C 702.244,396.208 702.577,394.041 703.5,392C 702.906,391.536 702.239,391.369 701.5,391.5C 699.5,392.5 697.5,393.5 695.5,394.5C 695.281,393.325 695.614,392.325 696.5,391.5C 699.276,389.87 702.276,389.203 705.5,389.5C 704.576,399.486 704.41,409.486 705,419.5C 706.417,427.177 707.583,434.843 708.5,442.5 Z"/></g>
<g><path style="opacity:1" fill="#c32824" d="M 580.5,390.5 C 580.88,392.698 580.213,394.365 578.5,395.5C 578.796,393.597 579.463,391.93 580.5,390.5 Z"/></g>
<g><path style="opacity:1" fill="#ca2925" d="M 701.5,391.5 C 699.5,394.167 697.167,396.5 694.5,398.5C 694.5,397.5 694.5,396.5 694.5,395.5C 694.5,394.833 694.833,394.5 695.5,394.5C 697.5,393.5 699.5,392.5 701.5,391.5 Z"/></g>
<g><path style="opacity:1" fill="#c3221f" d="M 578.5,396.5 C 578.5,397.5 578.5,398.5 578.5,399.5C 578.5,399.833 578.5,400.167 578.5,400.5C 577.5,402.5 576.5,404.5 575.5,406.5C 575.723,402.838 576.723,399.505 578.5,396.5 Z"/></g>
<g><path style="opacity:1" fill="#e80e0b" d="M 694.5,395.5 C 694.5,396.5 694.5,397.5 694.5,398.5C 694.5,399.167 694.167,399.5 693.5,399.5C 690.167,400.833 687.833,403.167 686.5,406.5C 686.167,407.167 685.833,407.833 685.5,408.5C 684.662,408.158 684.328,407.492 684.5,406.5C 684.9,402.653 686.9,400.32 690.5,399.5C 690.488,396.858 691.821,395.525 694.5,395.5 Z"/></g>
<g><path style="opacity:1" fill="#c02827" d="M 693.5,399.5 C 691.5,402.167 689.167,404.5 686.5,406.5C 687.833,403.167 690.167,400.833 693.5,399.5 Z"/></g>
<g><path style="opacity:1" fill="#ec0908" d="M 578.5,400.5 C 576.748,411.35 574.748,422.183 572.5,433C 570.942,443.439 570.275,453.939 570.5,464.5C 569.507,456.016 569.174,447.349 569.5,438.5C 570.482,435.038 570.815,431.371 570.5,427.5C 570.5,427.167 570.5,426.833 570.5,426.5C 571.117,426.389 571.617,426.056 572,425.5C 572.497,422.854 572.664,420.187 572.5,417.5C 572.232,415.901 572.566,414.568 573.5,413.5C 574.924,411.485 575.59,409.152 575.5,406.5C 576.5,404.5 577.5,402.5 578.5,400.5 Z"/></g>
<g><path style="opacity:1" fill="#c81c19" d="M 808.5,398.5 C 812.019,409.104 814.019,420.104 814.5,431.5C 813.833,429.167 813.167,426.833 812.5,424.5C 810.839,415.865 809.506,407.198 808.5,398.5 Z"/></g>
<g><path style="opacity:1" fill="#c51f1d" d="M 575.5,406.5 C 575.59,409.152 574.924,411.485 573.5,413.5C 573.41,410.848 574.076,408.515 575.5,406.5 Z"/></g>
<g><path style="opacity:1" fill="#c0201d" d="M 702.5,398.5 C 702.38,408.188 702.713,417.854 703.5,427.5C 702.007,421.908 701.341,416.074 701.5,410C 701.501,405.985 701.835,402.151 702.5,398.5 Z"/></g>
<g><path style="opacity:1" fill="#f00605" d="M 674.5,418.5 C 672.431,423.637 670.098,428.637 667.5,433.5C 667.34,431.801 667.506,430.134 668,428.5C 670.027,425.779 671.527,422.779 672.5,419.5C 672.957,418.702 673.624,418.369 674.5,418.5 Z"/></g>
<g><path style="opacity:1" fill="#ed0908" d="M 800.5,376.5 C 801.461,379.055 802.794,381.388 804.5,383.5C 805.434,384.568 805.768,385.901 805.5,387.5C 805.41,390.152 806.076,392.485 807.5,394.5C 808.434,395.568 808.768,396.901 808.5,398.5C 809.506,407.198 810.839,415.865 812.5,424.5C 813.261,437.152 813.595,449.819 813.5,462.5C 813.55,468.389 812.884,474.056 811.5,479.5C 811.793,475.563 811.46,471.73 810.5,468C 811.126,467.25 811.626,466.416 812,465.5C 813.663,437.031 809.996,409.697 801,383.5C 800.503,381.19 800.337,378.857 800.5,376.5 Z"/></g>
<g><path style="opacity:1" fill="#cb1e1a" d="M 684.5,406.5 C 684.328,407.492 684.662,408.158 685.5,408.5C 676.165,419.503 669.165,431.836 664.5,445.5C 665.09,441.397 666.09,437.397 667.5,433.5C 670.098,428.637 672.431,423.637 674.5,418.5C 678.158,417.203 679.824,414.537 679.5,410.5C 680.5,410.5 681.5,410.5 682.5,410.5C 682.157,408.517 682.824,407.183 684.5,406.5 Z"/></g>
<g><path style="opacity:1" fill="#c91c1a" d="M 572.5,417.5 C 572.664,420.187 572.497,422.854 572,425.5C 571.617,426.056 571.117,426.389 570.5,426.5C 570.676,423.273 571.343,420.273 572.5,417.5 Z"/></g>
<g><path style="opacity:1" fill="#bd2321" d="M 570.5,427.5 C 570.815,431.371 570.482,435.038 569.5,438.5C 569.167,438.5 568.833,438.5 568.5,438.5C 568.808,434.64 569.475,430.974 570.5,427.5 Z"/></g>
<g><path style="opacity:1" fill="#c21f1e" d="M 704.5,433.5 C 705.117,433.611 705.617,433.944 706,434.5C 706.495,436.473 706.662,438.473 706.5,440.5C 705.388,438.401 704.721,436.067 704.5,433.5 Z"/></g>
<g><path style="opacity:1" fill="#e20b0b" d="M 812.5,424.5 C 813.167,426.833 813.833,429.167 814.5,431.5C 814.828,442.014 814.494,452.347 813.5,462.5C 813.595,449.819 813.261,437.152 812.5,424.5 Z"/></g>
<g><path style="opacity:1" fill="#c02120" d="M 706.5,441.5 C 707.167,441.833 707.833,442.167 708.5,442.5C 708.5,443.167 708.5,443.833 708.5,444.5C 708.5,445.167 708.5,445.833 708.5,446.5C 707.463,445.07 706.796,443.403 706.5,441.5 Z"/></g>
<g><path style="opacity:1" fill="#c11f1e" d="M 814.5,431.5 C 815.66,443.326 815.826,455.326 815,467.5C 814.331,475.894 812.497,483.894 809.5,491.5C 810.167,487.5 810.833,483.5 811.5,479.5C 812.884,474.056 813.55,468.389 813.5,462.5C 814.494,452.347 814.828,442.014 814.5,431.5 Z"/></g>
<g><path style="opacity:1" fill="#c12521" d="M 708.5,447.5 C 710.536,449.206 711.536,451.539 711.5,454.5C 709.935,452.491 708.935,450.157 708.5,447.5 Z"/></g>
<g><path style="opacity:1" fill="#bf2621" d="M 664.5,445.5 C 663.401,452.004 662.067,458.337 660.5,464.5C 660.5,462.833 660.5,461.167 660.5,459.5C 661.231,454.562 662.565,449.895 664.5,445.5 Z"/></g>
<g><path style="opacity:1" fill="#d11b18" d="M 568.5,438.5 C 568.833,438.5 569.167,438.5 569.5,438.5C 569.174,447.349 569.507,456.016 570.5,464.5C 570.5,470.167 570.5,475.833 570.5,481.5C 567.482,467.41 566.815,453.076 568.5,438.5 Z"/></g>
<g><path style="opacity:1" fill="#c91e1b" d="M 644.5,456.5 C 645.167,456.5 645.833,456.5 646.5,456.5C 644.417,461 642.084,465.334 639.5,469.5C 639.674,467.139 640.007,464.806 640.5,462.5C 642.69,461.025 644.023,459.025 644.5,456.5 Z"/></g>
<g><path style="opacity:1" fill="#ee0706" d="M 667.5,433.5 C 666.09,437.397 665.09,441.397 664.5,445.5C 662.565,449.895 661.231,454.562 660.5,459.5C 659.883,459.611 659.383,459.944 659,460.5C 658.675,464.616 657.841,468.616 656.5,472.5C 655.712,471.23 654.712,470.23 653.5,469.5C 653.379,466.895 652.379,464.895 650.5,463.5C 650.82,460.102 650.487,456.768 649.5,453.5C 648.893,453.624 648.56,453.957 648.5,454.5C 647.167,454.5 646.5,455.167 646.5,456.5C 645.833,456.5 645.167,456.5 644.5,456.5C 644.951,452.274 647.284,450.441 651.5,451C 653.563,452.572 654.229,454.405 653.5,456.5C 655.175,464.184 656.842,464.684 658.5,458C 657.565,455.969 658.065,454.136 660,452.5C 661.293,446.356 662.959,440.356 665,434.5C 665.671,433.748 666.504,433.414 667.5,433.5 Z"/></g>
<g><path style="opacity:1" fill="#bc2423" d="M 648.5,454.5 C 648.167,455.5 647.5,456.167 646.5,456.5C 646.5,455.167 647.167,454.5 648.5,454.5 Z"/></g>
<g><path style="opacity:1" fill="#e2100d" d="M 708.5,444.5 C 710.074,444.937 711.241,445.937 712,447.5C 712.765,453.624 714.598,459.291 717.5,464.5C 716.167,462.833 714.833,461.167 713.5,459.5C 712.069,458.22 711.402,456.553 711.5,454.5C 711.536,451.539 710.536,449.206 708.5,447.5C 708.5,447.167 708.5,446.833 708.5,446.5C 708.5,445.833 708.5,445.167 708.5,444.5 Z"/></g>
<g><path style="opacity:1" fill="#ec0707" d="M 570.5,464.5 C 572.055,471.293 573.222,478.293 574,485.5C 576.863,491.892 579.03,498.559 580.5,505.5C 579.833,505.167 579.167,504.833 578.5,504.5C 578.134,502.095 577.467,499.762 576.5,497.5C 576.253,496.287 575.586,495.62 574.5,495.5C 574.741,493.102 574.074,491.102 572.5,489.5C 572.706,486.505 572.04,483.838 570.5,481.5C 570.5,475.833 570.5,470.167 570.5,464.5 Z"/></g>
<g><path style="opacity:1" fill="#e10a0a" d="M 660.5,459.5 C 660.5,461.167 660.5,462.833 660.5,464.5C 660.5,465.167 660.5,465.833 660.5,466.5C 659.013,469.546 658.013,472.879 657.5,476.5C 655.4,474.636 654.067,472.303 653.5,469.5C 654.712,470.23 655.712,471.23 656.5,472.5C 657.841,468.616 658.675,464.616 659,460.5C 659.383,459.944 659.883,459.611 660.5,459.5 Z"/></g>
<g><path style="opacity:1" fill="#e80908" d="M 737.5,472.5 C 736.609,471.89 735.609,471.557 734.5,471.5C 734.5,471.167 734.5,470.833 734.5,470.5C 733.62,466.048 731.286,462.714 727.5,460.5C 727.5,459.833 727.167,459.5 726.5,459.5C 724.554,464.396 723.887,469.729 724.5,475.5C 723.178,475.67 722.011,475.337 721,474.5C 719.346,471.707 718.179,468.707 717.5,465.5C 719.646,467.775 721.312,470.442 722.5,473.5C 723.329,468.533 723.829,463.533 724,458.5C 725.726,457.424 727.559,457.257 729.5,458C 733.574,461.975 736.241,466.809 737.5,472.5 Z"/></g>
<g><path style="opacity:1" fill="#c32724" d="M 727.5,460.5 C 731.286,462.714 733.62,466.048 734.5,470.5C 732.179,467.204 729.846,463.871 727.5,460.5 Z"/></g>
<g><path style="opacity:1" fill="#c81b19" d="M 734.5,471.5 C 735.609,471.557 736.609,471.89 737.5,472.5C 738.15,474.435 738.483,476.435 738.5,478.5C 736.929,476.365 735.596,474.032 734.5,471.5 Z"/></g>
<g><path style="opacity:1" fill="#bf231f" d="M 650.5,463.5 C 652.379,464.895 653.379,466.895 653.5,469.5C 654.067,472.303 655.4,474.636 657.5,476.5C 658.013,472.879 659.013,469.546 660.5,466.5C 660.605,470.548 660.272,474.548 659.5,478.5C 658.5,478.5 657.5,478.5 656.5,478.5C 653.333,474.006 651.333,469.006 650.5,463.5 Z"/></g>
<g><path style="opacity:1" fill="#c4211d" d="M 713.5,459.5 C 714.833,461.167 716.167,462.833 717.5,464.5C 717.5,464.833 717.5,465.167 717.5,465.5C 718.179,468.707 719.346,471.707 721,474.5C 722.011,475.337 723.178,475.67 724.5,475.5C 723.887,469.729 724.554,464.396 726.5,459.5C 726.872,465.43 726.205,471.097 724.5,476.5C 723.298,477.405 721.964,477.405 720.5,476.5C 717.893,470.952 715.56,465.285 713.5,459.5 Z"/></g>
<g><path style="opacity:1" fill="#c22422" d="M 638.5,471.5 C 637.679,475.127 636.346,478.46 634.5,481.5C 634.809,477.577 636.142,474.243 638.5,471.5 Z"/></g>
<g><path style="opacity:1" fill="#ab2824" d="M 720.5,476.5 C 721.964,477.405 723.298,477.405 724.5,476.5C 723.269,480.439 721.936,480.439 720.5,476.5 Z"/></g>
<g><path style="opacity:1" fill="#e80b08" d="M 737.5,472.5 C 739.686,473.823 741.186,475.823 742,478.5C 742.395,481.207 742.895,483.873 743.5,486.5C 742.833,486.167 742.167,485.833 741.5,485.5C 741.598,483.447 740.931,481.78 739.5,480.5C 738.662,480.158 738.328,479.492 738.5,478.5C 738.483,476.435 738.15,474.435 737.5,472.5 Z"/></g>
<g><path style="opacity:1" fill="#9e2d29" d="M 656.5,478.5 C 657.5,478.5 658.5,478.5 659.5,478.5C 658.74,480.985 657.74,480.985 656.5,478.5 Z"/></g>
<g><path style="opacity:1" fill="#ed0807" d="M 640.5,462.5 C 640.007,464.806 639.674,467.139 639.5,469.5C 639.672,470.492 639.338,471.158 638.5,471.5C 636.142,474.243 634.809,477.577 634.5,481.5C 633.883,481.611 633.383,481.944 633,482.5C 628.807,497.157 627.307,512.157 628.5,527.5C 628.345,530.716 629.345,533.383 631.5,535.5C 631.756,538.598 632.422,541.598 633.5,544.5C 632.542,544.047 631.708,543.381 631,542.5C 624.755,521.42 625.088,500.42 632,479.5C 634.164,473.431 636.998,467.765 640.5,462.5 Z"/></g>
<g><path style="opacity:1" fill="#e01311" d="M 811.5,479.5 C 810.833,483.5 810.167,487.5 809.5,491.5C 809.598,493.553 808.931,495.22 807.5,496.5C 807.5,495.833 807.5,495.167 807.5,494.5C 806.672,488.784 808.005,483.784 811.5,479.5 Z"/></g>
<g><path style="opacity:1" fill="#bd221e" d="M 739.5,480.5 C 740.931,481.78 741.598,483.447 741.5,485.5C 740.069,484.22 739.402,482.553 739.5,480.5 Z"/></g>
<g><path style="opacity:1" fill="#c12825" d="M 570.5,481.5 C 572.04,483.838 572.706,486.505 572.5,489.5C 571.232,487.095 570.565,484.428 570.5,481.5 Z"/></g>
<g><path style="opacity:1" fill="#c52320" d="M 634.5,481.5 C 629.701,497.548 628.367,513.882 630.5,530.5C 629.833,529.5 629.167,528.5 628.5,527.5C 627.307,512.157 628.807,497.157 633,482.5C 633.383,481.944 633.883,481.611 634.5,481.5 Z"/></g>
<g><path style="opacity:1" fill="#c91a18" d="M 741.5,485.5 C 742.167,485.833 742.833,486.167 743.5,486.5C 743.5,486.833 743.5,487.167 743.5,487.5C 743.5,488.167 743.5,488.833 743.5,489.5C 743.167,489.5 742.833,489.5 742.5,489.5C 741.766,488.292 741.433,486.959 741.5,485.5 Z"/></g>
<g><path style="opacity:1" fill="#c02928" d="M 572.5,489.5 C 574.074,491.102 574.741,493.102 574.5,495.5C 573.262,493.786 572.595,491.786 572.5,489.5 Z"/></g>
<g><path style="opacity:1" fill="#bf2724" d="M 742.5,489.5 C 742.833,489.5 743.167,489.5 743.5,489.5C 744.451,490.919 744.784,492.585 744.5,494.5C 743.463,493.07 742.796,491.403 742.5,489.5 Z"/></g>
<g><path style="opacity:1" fill="#c6201e" d="M 574.5,495.5 C 575.586,495.62 576.253,496.287 576.5,497.5C 577.467,499.762 578.134,502.095 578.5,504.5C 576.408,501.912 575.075,498.912 574.5,495.5 Z"/></g>
<g><path style="opacity:1" fill="#e30b0d" d="M 807.5,494.5 C 807.5,495.167 807.5,495.833 807.5,496.5C 806.167,498.5 804.833,500.5 803.5,502.5C 803.829,499.173 805.163,496.507 807.5,494.5 Z"/></g>
<g><path style="opacity:1" fill="#c22523" d="M 744.5,494.5 C 746.265,497.123 746.932,500.123 746.5,503.5C 745.343,500.727 744.676,497.727 744.5,494.5 Z"/></g>
<g><path style="opacity:1" fill="#c31d1d" d="M 807.5,496.5 C 806.624,500.582 804.957,504.249 802.5,507.5C 802.366,505.708 802.699,504.042 803.5,502.5C 804.833,500.5 806.167,498.5 807.5,496.5 Z"/></g>
<g><path style="opacity:1" fill="#c12125" d="M 802.5,507.5 C 802.34,509.153 801.674,510.486 800.5,511.5C 800.229,509.62 800.896,508.287 802.5,507.5 Z"/></g>
<g><path style="opacity:1" fill="#cc1a18" d="M 578.5,504.5 C 579.167,504.833 579.833,505.167 580.5,505.5C 582.391,508.614 583.724,511.948 584.5,515.5C 581.742,512.322 579.742,508.655 578.5,504.5 Z"/></g>
<g><path style="opacity:1" fill="#ea0a0a" d="M 743.5,487.5 C 745.919,492.558 748.086,497.892 750,503.5C 752.949,520.82 749.949,536.82 741,551.5C 739.385,552.386 737.885,553.386 736.5,554.5C 736.5,553.833 736.5,553.167 736.5,552.5C 737.906,552.027 738.573,551.027 738.5,549.5C 739.906,549.027 740.573,548.027 740.5,546.5C 740.66,544.847 741.326,543.514 742.5,542.5C 744.834,540.824 745.834,538.491 745.5,535.5C 745.325,533.379 745.659,531.379 746.5,529.5C 747.268,528.737 747.768,527.737 748,526.5C 748.667,519.5 748.667,512.5 748,505.5C 747.722,504.584 747.222,503.918 746.5,503.5C 746.932,500.123 746.265,497.123 744.5,494.5C 744.784,492.585 744.451,490.919 743.5,489.5C 743.5,488.833 743.5,488.167 743.5,487.5 Z"/></g>
<g><path style="opacity:1" fill="#ca201f" d="M 800.5,511.5 C 799.241,515.025 797.241,518.025 794.5,520.5C 795.224,517.659 796.39,514.992 798,512.5C 798.671,511.748 799.504,511.414 800.5,511.5 Z"/></g>
<g><path style="opacity:1" fill="#d21a17" d="M 584.5,516.5 C 587.484,516.787 588.817,518.454 588.5,521.5C 586.937,520.055 585.604,518.389 584.5,516.5 Z"/></g>
<g><path style="opacity:1" fill="#c01e1e" d="M 746.5,503.5 C 747.222,503.918 747.722,504.584 748,505.5C 748.667,512.5 748.667,519.5 748,526.5C 747.768,527.737 747.268,528.737 746.5,529.5C 747.795,520.838 747.795,512.171 746.5,503.5 Z"/></g>
<g><path style="opacity:1" fill="#fefffe" d="M 820.5,519.5 C 835.232,530.721 849.565,542.554 863.5,555C 851.706,569.13 839.539,582.963 827,596.5C 813.459,584.623 799.625,573.123 785.5,562C 799.986,550.027 811.653,535.86 820.5,519.5 Z"/></g>
<g><path style="opacity:1" fill="#d0201b" d="M 588.5,522.5 C 592.906,523.909 595.573,526.909 596.5,531.5C 593.139,529.105 590.472,526.105 588.5,522.5 Z"/></g>
<g><path style="opacity:1" fill="#c9201e" d="M 794.5,520.5 C 789.656,529.019 783.322,536.352 775.5,542.5C 775.672,541.508 775.338,540.842 774.5,540.5C 777.584,539.744 779.251,537.744 779.5,534.5C 780.5,534.5 781.5,534.5 782.5,534.5C 782.351,533.448 782.517,532.448 783,531.5C 787.277,528.263 791.11,524.596 794.5,520.5 Z"/></g>
<g><path style="opacity:1" fill="#d51514" d="M 628.5,527.5 C 629.167,528.5 629.833,529.5 630.5,530.5C 631.301,532.042 631.634,533.708 631.5,535.5C 629.345,533.383 628.345,530.716 628.5,527.5 Z"/></g>
<g><path style="opacity:1" fill="#c91717" d="M 596.5,531.5 C 598.5,531.5 599.5,532.5 599.5,534.5C 598.167,533.833 597.167,532.833 596.5,531.5 Z"/></g>
<g><path style="opacity:1" fill="#c91c19" d="M 599.5,534.5 C 600.167,534.5 600.833,534.5 601.5,534.5C 604.833,538.167 608.167,541.833 611.5,545.5C 606.895,542.564 602.895,538.898 599.5,534.5 Z"/></g>
<g><path style="opacity:1" fill="#c81f1b" d="M 631.5,535.5 C 633.403,538.979 635.07,542.646 636.5,546.5C 635.222,546.218 634.222,545.551 633.5,544.5C 632.422,541.598 631.756,538.598 631.5,535.5 Z"/></g>
<g><path style="opacity:1" fill="#c71f1b" d="M 745.5,535.5 C 745.834,538.491 744.834,540.824 742.5,542.5C 742.935,539.843 743.935,537.509 745.5,535.5 Z"/></g>
<g><path style="opacity:1" fill="#ef0705" d="M 601.5,534.5 C 606.213,538.377 611.213,542.043 616.5,545.5C 617.386,546.325 617.719,547.325 617.5,548.5C 618.833,548.5 620.167,548.5 621.5,548.5C 621.5,549.5 621.5,550.5 621.5,551.5C 620.833,551.5 620.167,551.5 619.5,551.5C 619.027,550.094 618.027,549.427 616.5,549.5C 615.415,547.413 613.749,546.08 611.5,545.5C 608.167,541.833 604.833,538.167 601.5,534.5 Z"/></g>
<g><path style="opacity:1" fill="#c32524" d="M 772.5,544.5 C 770.557,547.471 767.891,549.471 764.5,550.5C 766.344,547.313 769.011,545.313 772.5,544.5 Z"/></g>
<g><path style="opacity:1" fill="#c5221d" d="M 611.5,545.5 C 613.749,546.08 615.415,547.413 616.5,549.5C 614.251,548.92 612.585,547.587 611.5,545.5 Z"/></g>
<g><path style="opacity:1" fill="#bf2823" d="M 740.5,546.5 C 740.573,548.027 739.906,549.027 738.5,549.5C 738.427,547.973 739.094,546.973 740.5,546.5 Z"/></g>
<g><path style="opacity:1" fill="#eb0d0a" d="M 774.5,540.5 C 775.338,540.842 775.672,541.508 775.5,542.5C 774.71,543.401 773.71,544.068 772.5,544.5C 769.011,545.313 766.344,547.313 764.5,550.5C 762.973,550.427 761.973,551.094 761.5,552.5C 759.821,552.285 758.821,552.952 758.5,554.5C 757.5,554.5 756.5,554.5 755.5,554.5C 755.414,553.504 755.748,552.671 756.5,552C 759.3,550.691 761.967,549.191 764.5,547.5C 765.098,546.205 765.598,544.872 766,543.5C 766.333,543.833 766.667,544.167 767,544.5C 769.427,542.991 771.927,541.657 774.5,540.5 Z"/></g>
<g><path style="opacity:1" fill="#c21f1e" d="M 616.5,549.5 C 618.027,549.427 619.027,550.094 619.5,551.5C 617.973,551.573 616.973,550.906 616.5,549.5 Z"/></g>
<g><path style="opacity:1" fill="#c91d1a" d="M 636.5,546.5 C 637.89,547.899 638.89,549.566 639.5,551.5C 637.241,550.656 636.241,548.989 636.5,546.5 Z"/></g>
<g><path style="opacity:1" fill="#c22422" d="M 738.5,549.5 C 738.573,551.027 737.906,552.027 736.5,552.5C 736.427,550.973 737.094,549.973 738.5,549.5 Z"/></g>
<g><path style="opacity:1" fill="#bc2b26" d="M 764.5,550.5 C 764.027,551.906 763.027,552.573 761.5,552.5C 761.973,551.094 762.973,550.427 764.5,550.5 Z"/></g>
<g><path style="opacity:1" fill="#c51f1d" d="M 619.5,551.5 C 620.167,551.5 620.833,551.5 621.5,551.5C 621.833,552.167 622.167,552.833 622.5,553.5C 620.973,553.573 619.973,552.906 619.5,551.5 Z"/></g>
<g><path style="opacity:1" fill="#c4221f" d="M 639.5,551.5 C 642.833,554.167 645.833,557.167 648.5,560.5C 645.233,558.573 642.233,556.239 639.5,553.5C 639.5,552.833 639.5,552.167 639.5,551.5 Z"/></g>
<g><path style="opacity:1" fill="#c7251e" d="M 761.5,552.5 C 761.027,553.906 760.027,554.573 758.5,554.5C 758.821,552.952 759.821,552.285 761.5,552.5 Z"/></g>
<g><path style="opacity:1" fill="#cf1c18" d="M 622.5,553.5 C 626.2,553.536 628.867,555.203 630.5,558.5C 627.489,557.331 624.822,555.664 622.5,553.5 Z"/></g>
<g><path style="opacity:1" fill="#cb1b1b" d="M 755.5,554.5 C 756.5,554.5 757.5,554.5 758.5,554.5C 752.649,558.594 746.315,561.927 739.5,564.5C 739.782,563.222 740.449,562.222 741.5,561.5C 746.633,560.018 751.299,557.685 755.5,554.5 Z"/></g>
<g><path style="opacity:1" fill="#cd1d1a" d="M 630.5,558.5 C 632.483,558.157 633.817,558.824 634.5,560.5C 632.847,560.34 631.514,559.674 630.5,558.5 Z"/></g>
<g><path style="opacity:1" fill="#eb0b09" d="M 621.5,551.5 C 623.482,551.995 625.482,552.495 627.5,553C 631.923,555.692 636.423,558.192 641,560.5C 641.833,560.167 642.667,559.833 643.5,559.5C 641.722,557.736 640.389,555.736 639.5,553.5C 642.233,556.239 645.233,558.573 648.5,560.5C 649.174,562.024 650.174,563.358 651.5,564.5C 650.833,564.833 650.167,565.167 649.5,565.5C 645.888,564.188 642.221,563.188 638.5,562.5C 636.847,562.34 635.514,561.674 634.5,560.5C 633.817,558.824 632.483,558.157 630.5,558.5C 628.867,555.203 626.2,553.536 622.5,553.5C 622.167,552.833 621.833,552.167 621.5,551.5 Z"/></g>
<g><path style="opacity:1" fill="#c51f1c" d="M 736.5,552.5 C 736.5,553.167 736.5,553.833 736.5,554.5C 735.5,554.833 734.833,555.5 734.5,556.5C 731.474,559.195 728.474,561.862 725.5,564.5C 724.833,564.5 724.167,564.5 723.5,564.5C 727.807,560.528 732.141,556.528 736.5,552.5 Z"/></g>
<g><path style="opacity:1" fill="#ed0706" d="M 734.5,556.5 C 733.043,558.628 732.043,560.962 731.5,563.5C 734.973,563.424 738.306,562.758 741.5,561.5C 740.449,562.222 739.782,563.222 739.5,564.5C 735.109,565.192 730.776,566.192 726.5,567.5C 725.448,567.649 724.448,567.483 723.5,567C 724.381,566.292 725.047,565.458 725.5,564.5C 728.474,561.862 731.474,559.195 734.5,556.5 Z"/></g>
<g><path style="opacity:1" fill="#ca1d19" d="M 648.5,560.5 C 651.5,562.5 654.5,564.5 657.5,566.5C 657.5,567.833 656.833,568.5 655.5,568.5C 649.466,567.306 643.799,565.306 638.5,562.5C 642.221,563.188 645.888,564.188 649.5,565.5C 650.167,565.167 650.833,564.833 651.5,564.5C 650.174,563.358 649.174,562.024 648.5,560.5 Z"/></g>
<g><path style="opacity:1" fill="#c0231f" d="M 723.5,564.5 C 723.027,565.906 722.027,566.573 720.5,566.5C 720.973,565.094 721.973,564.427 723.5,564.5 Z"/></g>
<g><path style="opacity:1" fill="#dc100e" d="M 723.5,564.5 C 724.167,564.5 724.833,564.5 725.5,564.5C 725.047,565.458 724.381,566.292 723.5,567C 724.448,567.483 725.448,567.649 726.5,567.5C 724.314,568.965 721.981,569.298 719.5,568.5C 719.863,567.817 720.196,567.15 720.5,566.5C 722.027,566.573 723.027,565.906 723.5,564.5 Z"/></g>
<g><path style="opacity:1" fill="#aa2c26" d="M 657.5,566.5 C 659.807,567.653 662.14,568.82 664.5,570C 661.228,570.576 658.228,570.076 655.5,568.5C 656.833,568.5 657.5,567.833 657.5,566.5 Z"/></g>
<g><path style="opacity:1" fill="#c12622" d="M 739.5,564.5 C 733.221,567.479 726.554,569.479 719.5,570.5C 717.901,570.768 716.568,570.434 715.5,569.5C 716.659,567.75 718.326,566.75 720.5,566.5C 720.196,567.15 719.863,567.817 719.5,568.5C 721.981,569.298 724.314,568.965 726.5,567.5C 730.776,566.192 735.109,565.192 739.5,564.5 Z"/></g>
<g><path style="opacity:1" fill="#b32e28" d="M 715.5,569.5 C 716.568,570.434 717.901,570.768 719.5,570.5C 717.372,571.629 715.039,571.796 712.5,571C 713.244,569.961 714.244,569.461 715.5,569.5 Z"/></g>
</svg>
