<?xml version="1.0" encoding="UTF-8"?>
<!DOCTYPE svg PUBLIC "-//W3C//DTD SVG 1.1//EN" "http://www.w3.org/Graphics/SVG/1.1/DTD/svg11.dtd">
<svg xmlns="http://www.w3.org/2000/svg" version="1.1" width="1024px" height="1024px" style="shape-rendering:geometricPrecision; text-rendering:geometricPrecision; image-rendering:optimizeQuality; fill-rule:evenodd; clip-rule:evenodd" xmlns:xlink="http://www.w3.org/1999/xlink">
<g><path style="opacity:1" fill="#fefffe" d="M 495.5,243.5 C 598.933,238.312 681.766,276.645 744,358.5C 798.09,438.815 809.09,524.815 777,616.5C 743.254,697.811 684.754,752.978 601.5,782C 499.195,810.086 408.529,789.086 329.5,719C 255.83,645.302 229.33,557.135 250,454.5C 277.425,355.074 339.925,288.574 437.5,255C 456.652,249.536 475.985,245.703 495.5,243.5 Z M 508.5,287.5 C 586.058,286.372 649.558,315.372 699,374.5C 747.324,438.466 760.324,509.132 738,586.5C 712.747,660.753 663.08,710.753 589,736.5C 493.983,762.25 412.65,739.583 345,668.5C 288.715,599.391 274.715,522.391 303,437.5C 332.386,364.447 384.886,316.947 460.5,295C 476.46,291.283 492.46,288.783 508.5,287.5 Z"/></g>
<g><path style="opacity:1" fill="#fefefe" d="M 511.5,337.5 C 539.189,336.697 556.356,349.697 563,376.5C 565.201,405.282 552.367,423.115 524.5,430C 495.966,431.484 478.466,418.318 472,390.5C 470.501,361.84 483.668,344.173 511.5,337.5 Z"/></g>
<g><path style="opacity:1" fill="#fefefe" d="M 547.5,459.5 C 550.099,459.549 552.266,460.549 554,462.5C 554.5,524.166 554.667,585.832 554.5,647.5C 568.171,647.333 581.837,647.5 595.5,648C 596.308,648.308 596.975,648.808 597.5,649.5C 598.151,656.954 598.484,664.454 598.5,672C 598.636,679.932 598.136,687.766 597,695.5C 571.071,696.164 545.071,696.498 519,696.5C 492.929,696.498 466.929,696.164 441,695.5C 439.367,680.593 439.033,665.593 440,650.5C 440.833,649.667 441.667,648.833 442.5,648C 456.496,647.5 470.496,647.333 484.5,647.5C 484.5,601.167 484.5,554.833 484.5,508.5C 470.496,508.667 456.496,508.5 442.5,508C 442,507.5 441.5,507 441,506.5C 439.865,498.933 439.365,491.266 439.5,483.5C 439.667,476.5 439.833,469.5 440,462.5C 440.5,462 441,461.5 441.5,461C 477.002,460.833 512.336,460.333 547.5,459.5 Z"/></g>
</svg>
