<?xml version="1.0" encoding="UTF-8"?>
<!DOCTYPE svg PUBLIC "-//W3C//DTD SVG 1.1//EN" "http://www.w3.org/Graphics/SVG/1.1/DTD/svg11.dtd">
<svg xmlns="http://www.w3.org/2000/svg" version="1.1" width="1024px" height="1024px" style="shape-rendering:geometricPrecision; text-rendering:geometricPrecision; image-rendering:optimizeQuality; fill-rule:evenodd; clip-rule:evenodd" xmlns:xlink="http://www.w3.org/1999/xlink">
<g><path style="opacity:1" fill="#29292b" d="M 665.5,383.5 C 664.469,385.961 663.802,388.627 663.5,391.5C 662.127,391.343 660.793,391.51 659.5,392C 659.833,392.333 660.167,392.667 660.5,393C 657.315,394.536 655.149,397.036 654,400.5C 653.667,399.833 653.333,399.167 653,398.5C 652.805,400.207 652.805,401.874 653,403.5C 652,403.167 651,402.833 650,402.5C 649.581,403.672 648.915,404.672 648,405.5C 648.148,404.175 647.982,403.008 647.5,402C 645.487,401.691 645.154,402.358 646.5,404C 644.112,404.865 642.612,404.032 642,401.5C 641.517,402.448 641.351,403.448 641.5,404.5C 637.764,404.66 637.764,405.493 641.5,407C 640.5,407.5 639.5,408 638.5,408.5C 638.26,407.163 637.76,405.497 637,403.5C 636,403.833 635,404.167 634,404.5C 634.263,403.049 634.096,401.716 633.5,400.5C 632.575,401.641 631.741,401.641 631,400.5C 630.308,401.025 629.808,401.692 629.5,402.5C 630.247,402.736 631.08,403.07 632,403.5C 632.374,404.416 632.874,405.25 633.5,406C 633.167,406.167 632.833,406.333 632.5,406.5C 629.388,404.661 626.721,402.994 624.5,401.5C 618.262,402.868 615.429,406.535 616,412.5C 613.562,411.134 613.062,411.634 614.5,414C 613.228,418.322 612.228,417.989 611.5,413C 611.833,412.667 612.167,412.333 612.5,412C 609.857,410.564 607.19,410.398 604.5,411.5C 605.381,412.971 606.714,413.804 608.5,414C 607.234,414.309 606.067,414.809 605,415.5C 603.057,415.041 601.724,416.041 601,418.5C 600.333,417.167 599.333,416.167 598,415.5C 597.605,413.821 597.772,412.155 598.5,410.5C 597.621,407.87 596.288,407.37 594.5,409C 595.167,409.333 595.833,409.667 596.5,410C 593.984,415.79 592.818,415.624 593,409.5C 590.304,411.595 587.47,413.095 584.5,414C 586.856,414.155 589.189,414.155 591.5,414C 591.182,416.042 591.015,418.209 591,420.5C 589.853,419.542 588.853,419.875 588,421.5C 586.283,420.545 584.616,419.545 583,418.5C 582.333,421.167 581.667,421.167 581,418.5C 580.333,419.833 579.333,420.833 578,421.5C 577.333,420.167 576.667,420.167 576,421.5C 575.085,420.672 574.419,419.672 574,418.5C 573.712,422.174 572.212,423.007 569.5,421C 571.731,419.723 573.398,417.889 574.5,415.5C 575.167,416.167 575.833,416.833 576.5,417.5C 577.732,416.855 579.065,416.689 580.5,417C 580.547,411.563 580.047,405.729 579,399.5C 578.5,400 578,400.5 577.5,401C 578.484,403.567 578.817,406.4 578.5,409.5C 577.257,409.217 576.09,409.884 575,411.5C 572.201,410.763 572.034,409.93 574.5,409C 573.773,407.601 573.273,406.101 573,404.5C 572.261,406.221 571.427,407.887 570.5,409.5C 569.575,408.359 568.741,408.359 568,409.5C 567.667,408.833 567.333,408.167 567,407.5C 566.316,408.784 566.483,409.951 567.5,411C 566.747,412.487 565.914,412.654 565,411.5C 564.275,413.158 563.108,413.658 561.5,413C 562.517,411.951 562.684,410.784 562,409.5C 560.211,409.623 558.378,409.623 556.5,409.5C 554.525,411.585 553.192,413.585 552.5,415.5C 550.561,413.878 550.228,412.044 551.5,410C 549.866,409.506 548.199,409.34 546.5,409.5C 546.802,412.059 546.468,414.393 545.5,416.5C 546.299,397.482 537.632,385.315 519.5,380C 494.097,377.413 480.097,388.746 477.5,414C 477.6,431.765 486.267,442.765 503.5,447C 510.626,447.892 517.626,447.392 524.5,445.5C 524.848,448.019 526.181,449.853 528.5,451C 527.5,451.333 526.5,451.667 525.5,452C 527.01,454.009 528.677,455.842 530.5,457.5C 529.624,458.251 528.624,458.751 527.5,459C 530.146,459.497 532.813,459.664 535.5,459.5C 535.5,460.5 535.5,461.5 535.5,462.5C 538.91,462.384 540.244,464.05 539.5,467.5C 541.331,468.052 542.997,468.052 544.5,467.5C 544.669,468.397 545.002,469.397 545.5,470.5C 546.086,470.291 546.586,469.957 547,469.5C 548.431,472.037 550.265,474.204 552.5,476C 551.692,476.308 551.025,476.808 550.5,477.5C 552.087,479.085 552.92,480.752 553,482.5C 553.308,481.692 553.808,481.025 554.5,480.5C 557.256,481.633 559.089,480.633 560,477.5C 562.543,478.876 562.709,480.043 560.5,481C 561.047,481.925 561.713,482.758 562.5,483.5C 562.109,482.282 562.776,481.448 564.5,481C 564.377,478.789 564.377,476.622 564.5,474.5C 565.333,475.5 566.167,476.5 567,477.5C 567.772,476.151 568.939,475.318 570.5,475C 566.673,473.42 566.839,471.92 571,470.5C 571.249,471.624 571.749,472.624 572.5,473.5C 573.696,473.154 573.696,472.654 572.5,472C 575.275,471.994 577.275,470.827 578.5,468.5C 578.263,465.937 577.763,465.937 577,468.5C 576.586,468.043 576.086,467.709 575.5,467.5C 574.11,469.203 572.61,469.87 571,469.5C 568.997,467.275 569.497,465.608 572.5,464.5C 573.816,467.028 574.983,467.028 576,464.5C 577.011,465.337 578.178,465.67 579.5,465.5C 579.351,466.552 579.517,467.552 580,468.5C 581.131,467.396 581.965,467.729 582.5,469.5C 581.335,470.584 580.002,471.417 578.5,472C 579.815,473.395 579.481,474.395 577.5,475C 579.526,478.328 581.859,478.828 584.5,476.5C 585.308,476.808 585.975,477.308 586.5,478C 584.754,478.471 583.087,479.138 581.5,480C 581.833,480.333 582.167,480.667 582.5,481C 581.643,481.689 580.977,482.522 580.5,483.5C 582.203,484.89 582.87,486.39 582.5,488C 581.953,488.925 581.287,489.758 580.5,490.5C 578.49,489.498 576.49,488.498 574.5,487.5C 575.123,485.047 575.289,482.714 575,480.5C 574.075,481.047 573.242,481.713 572.5,482.5C 573.641,483.425 573.641,484.259 572.5,485C 571.167,485.333 569.833,485.667 568.5,486C 570.167,487 571.833,488 573.5,489C 573.167,489.333 572.833,489.667 572.5,490C 573.448,490.483 574.448,490.649 575.5,490.5C 574.884,495.682 573.05,496.349 570,492.5C 568.869,493.604 568.035,493.271 567.5,491.5C 568.025,490.808 568.692,490.308 569.5,490C 567.5,488.667 565.5,487.333 563.5,486C 566.279,485.851 566.779,485.017 565,483.5C 563.167,484.667 561.667,486.167 560.5,488C 560.833,488.333 561.167,488.667 561.5,489C 560.216,489.684 559.049,489.517 558,488.5C 557.667,489.167 557.333,489.833 557,490.5C 555.333,489.5 553.667,488.5 552,487.5C 551.316,488.784 551.483,489.951 552.5,491C 551.551,491.617 550.718,491.451 550,490.5C 549.316,491.784 549.483,492.951 550.5,494C 549.809,495.067 549.309,496.234 549,497.5C 548.333,496.167 547.667,496.167 547,497.5C 546.138,495.406 544.972,494.406 543.5,494.5C 543.709,493.914 544.043,493.414 544.5,493C 543.726,490.595 543.226,488.095 543,485.5C 542.5,533.166 542.333,580.832 542.5,628.5C 541.667,578.335 541.167,528.002 541,477.5C 537.843,472.508 533.343,470.675 527.5,472C 504.116,476.31 480.783,480.81 457.5,485.5C 456.752,488.497 456.085,491.497 455.5,494.5C 462.232,495.747 468.899,497.247 475.5,499C 479.082,502.737 480.915,507.237 481,512.5C 481.667,550.833 481.667,589.167 481,627.5C 480.595,637.405 475.428,642.405 465.5,642.5C 464.761,642.631 464.094,642.464 463.5,642C 464.793,641.51 466.127,641.343 467.5,641.5C 467.421,640.07 467.754,638.736 468.5,637.5C 468.192,636.692 467.692,636.025 467,635.5C 466.581,636.672 465.915,637.672 465,638.5C 463.354,636.945 463.021,635.279 464,633.5C 463.333,634.167 462.667,634.833 462,635.5C 460.667,635.5 459.333,635.5 458,635.5C 457.667,634.833 457.333,634.167 457,633.5C 455.899,635.394 454.566,636.061 453,635.5C 452.085,634.672 451.419,633.672 451,632.5C 450.333,636.5 449.667,636.5 449,632.5C 448.667,633.167 448.333,633.833 448,634.5C 446.059,630.446 445.225,630.78 445.5,635.5C 443.876,635.64 442.71,634.973 442,633.5C 441.535,634.931 440.701,636.097 439.5,637C 440.715,639.096 441.549,638.929 442,636.5C 443.556,637.52 444.722,638.853 445.5,640.5C 444.388,642.631 442.888,642.631 441,640.5C 439.085,645.788 438.418,645.788 439,640.5C 438.667,640.167 438.333,639.833 438,639.5C 437.851,642.279 437.017,642.779 435.5,641C 436.167,640 436.833,639 437.5,638C 436.299,637.097 435.465,635.931 435,634.5C 434.781,635.938 434.281,637.271 433.5,638.5C 433.167,638.333 432.833,638.167 432.5,638C 432.5,636.333 432.5,634.667 432.5,633C 431.333,632.5 430.5,631.667 430,630.5C 429.28,632.112 429.446,633.612 430.5,635C 429.335,636.084 428.002,636.917 426.5,637.5C 425.28,636.289 424.113,636.289 423,637.5C 422.727,635.899 422.227,634.399 421.5,633C 422.227,631.601 422.727,630.101 423,628.5C 423.333,629.5 423.667,630.5 424,631.5C 424.306,629.094 425.139,626.927 426.5,625C 425.162,622.276 426.162,621.109 429.5,621.5C 429.338,619.473 429.505,617.473 430,615.5C 432.444,616.694 434.611,616.194 436.5,614C 435.23,613.1 434.23,611.934 433.5,610.5C 432.749,611.376 432.249,612.376 432,613.5C 431.217,611.567 431.717,610.067 433.5,609C 432.216,608.316 431.049,608.483 430,609.5C 428.354,611.055 428.021,612.721 429,614.5C 426.383,612.957 424.883,611.124 424.5,609C 425.126,608.25 425.626,607.416 426,606.5C 427.751,607.174 429.417,607.507 431,607.5C 431.492,606.451 431.326,605.451 430.5,604.5C 426.749,604.566 426.582,603.233 430,600.5C 431.825,601.103 433.659,601.77 435.5,602.5C 434.313,602.554 432.98,602.887 431.5,603.5C 432.351,606.612 433.517,606.946 435,604.5C 435.75,605.126 436.584,605.626 437.5,606C 436.643,606.689 435.977,607.522 435.5,608.5C 435.533,609.989 436.033,611.322 437,612.5C 438.147,610.037 439.314,607.204 440.5,604C 440.333,603.5 440.167,603 440,602.5C 437.342,603.694 436.176,602.694 436.5,599.5C 437.873,599.657 439.207,599.49 440.5,599C 439.299,598.097 438.465,596.931 438,595.5C 437.333,598.167 436.667,598.167 436,595.5C 434.794,598.06 433.294,598.56 431.5,597C 432.022,596.05 432.689,595.216 433.5,594.5C 431.321,593.243 429.321,591.743 427.5,590C 429.135,589.46 430.468,589.96 431.5,591.5C 433.059,590.926 434.559,590.26 436,589.5C 437.017,592.028 438.184,592.028 439.5,589.5C 441.784,590.843 442.617,590.176 442,587.5C 441.586,587.957 441.086,588.291 440.5,588.5C 440.002,587.397 439.669,586.397 439.5,585.5C 438.5,586.167 437.5,586.833 436.5,587.5C 436.704,586.471 436.204,585.471 435,584.5C 433.951,585.517 432.784,585.684 431.5,585C 432.388,583.283 431.721,582.116 429.5,581.5C 427.091,581.915 424.758,582.582 422.5,583.5C 422.709,584.086 423.043,584.586 423.5,585C 422.151,585.772 421.318,586.939 421,588.5C 420.743,586.705 420.077,584.705 419,582.5C 416.7,584.948 415.367,584.281 415,580.5C 413.383,581.536 413.216,582.703 414.5,584C 413.428,585.284 412.095,585.617 410.5,585C 409.54,586.419 408.707,587.919 408,589.5C 407.167,588 406,586.833 404.5,586C 406.991,585.374 406.991,584.541 404.5,583.5C 405.326,582.549 405.492,581.549 405,580.5C 404,580.833 403,581.167 402,581.5C 401.21,578.366 401.543,575.366 403,572.5C 403.667,573.167 404.333,573.833 405,574.5C 408.651,571.982 408.984,569.316 406,566.5C 405.333,567.833 404.667,569.167 404,570.5C 403.25,569.874 402.416,569.374 401.5,569C 404.32,566.506 404.153,565.673 401,566.5C 399.523,565.556 398.523,564.223 398,562.5C 397.784,564.384 397.117,566.051 396,567.5C 393.336,566.919 391.002,565.253 389,562.5C 388.873,563.777 389.373,564.943 390.5,566C 389.372,567.468 388.706,569.135 388.5,571C 389.252,573.154 389.419,575.32 389,577.5C 388.586,577.043 388.086,576.709 387.5,576.5C 385.032,577.803 382.699,579.303 380.5,581C 382.23,582.852 383.396,582.686 384,580.5C 385.301,582.402 385.968,584.402 386,586.5C 383.525,582.708 381.358,583.042 379.5,587.5C 380.326,589.109 381.326,590.776 382.5,592.5C 383.604,590.611 384.937,588.945 386.5,587.5C 387.425,588.641 388.259,588.641 389,587.5C 389.667,588.167 390.333,588.833 391,589.5C 392.133,587.789 393.633,587.289 395.5,588C 394.386,589.57 393.053,590.903 391.5,592C 392.956,592.423 393.456,593.256 393,594.5C 391.301,593.594 389.467,593.261 387.5,593.5C 387.5,594.833 387.5,596.167 387.5,597.5C 389.39,597.297 390.89,597.963 392,599.5C 393.692,597.178 395.526,596.678 397.5,598C 396.377,599.044 395.044,599.71 393.5,600C 393.847,601.569 394.014,603.402 394,605.5C 392.442,604.655 391.442,605.321 391,607.5C 389.736,607.36 388.569,607.36 387.5,607.5C 387.887,608.72 388.72,609.387 390,609.5C 392.601,608.236 394.934,606.569 397,604.5C 398.649,607.877 400.649,608.21 403,605.5C 404.934,607.419 404.767,608.919 402.5,610C 403.167,610.333 403.833,610.667 404.5,611C 402.833,612.333 401.167,613.667 399.5,615C 401.108,615.658 402.275,615.158 403,613.5C 403.75,614.126 404.584,614.626 405.5,615C 403.246,616.054 402.913,617.554 404.5,619.5C 406.607,620.917 408.607,622.417 410.5,624C 409.107,626.178 407.44,627.178 405.5,627C 407.335,627.928 407.668,629.094 406.5,630.5C 408.307,631.799 409.973,631.632 411.5,630C 410.833,629.667 410.167,629.333 409.5,629C 410.337,627.989 410.67,626.822 410.5,625.5C 414.876,624.888 415.543,626.054 412.5,629C 414.947,630.229 415.113,631.729 413,633.5C 410.163,631.947 407.663,632.28 405.5,634.5C 405.977,635.478 406.643,636.311 407.5,637C 406.588,639.488 407.588,641.155 410.5,642C 407.833,643 407.833,644 410.5,645C 409.23,645.9 408.23,647.066 407.5,648.5C 406.575,647.359 405.741,647.359 405,648.5C 404.5,648 404,647.5 403.5,647C 408.945,643.553 408.278,641.719 401.5,641.5C 402.138,643.46 402.138,645.293 401.5,647C 399.671,647.273 398.171,648.107 397,649.5C 395.445,647.854 393.779,647.521 392,648.5C 390.745,647.789 389.579,646.956 388.5,646C 392.095,646.613 392.429,645.446 389.5,642.5C 388.038,643.471 386.705,643.138 385.5,641.5C 384.808,642.025 384.308,642.692 384,643.5C 382.86,640.353 382.193,637.353 382,634.5C 381.189,635.96 380.355,636.293 379.5,635.5C 378.396,633.553 378.396,631.053 379.5,628C 380.577,626.457 381.911,626.457 383.5,628C 381.053,629.229 380.887,630.729 383,632.5C 383.5,631.333 384.333,630.5 385.5,630C 385.5,628.667 385.5,627.333 385.5,626C 384.551,625.383 383.718,625.549 383,626.5C 382.072,624.665 380.906,624.332 379.5,625.5C 377.261,623.476 374.928,623.642 372.5,626C 374.285,627.593 374.452,629.093 373,630.5C 372.751,629.376 372.251,628.376 371.5,627.5C 369.994,626.77 368.66,626.437 367.5,626.5C 369.012,625.751 370.012,624.584 370.5,623C 369.34,620.838 368.174,618.671 367,616.5C 366.131,619.763 364.797,620.096 363,617.5C 362.667,617.833 362.333,618.167 362,618.5C 361.667,617.5 361.333,616.5 361,615.5C 359.737,617.797 357.903,618.63 355.5,618C 356.633,617.76 357.133,617.26 357,616.5C 354.464,615.121 352.131,614.121 350,613.5C 349.689,614.742 350.189,615.742 351.5,616.5C 349.726,617.187 348.059,618.02 346.5,619C 347.167,619.333 347.833,619.667 348.5,620C 347.252,621.959 345.585,623.459 343.5,624.5C 344.364,626.197 345.697,627.363 347.5,628C 345.945,629.646 344.279,629.979 342.5,629C 341.56,631.056 341.56,633.223 342.5,635.5C 308.737,585.511 298.237,530.844 311,471.5C 312.674,464.315 314.84,457.315 317.5,450.5C 318.267,451.172 318.934,452.005 319.5,453C 318.233,454.796 318.233,456.629 319.5,458.5C 322.905,461.089 326.405,463.423 330,465.5C 331.348,463.319 333.182,461.652 335.5,460.5C 334.494,459.604 334.494,458.938 335.5,458.5C 336.833,459.833 338.167,461.167 339.5,462.5C 340.853,461.315 342.02,459.981 343,458.5C 343.9,459.77 345.066,460.77 346.5,461.5C 345.145,462.675 345.312,463.675 347,464.5C 347.667,462.5 348.333,460.5 349,458.5C 349.333,459.833 349.667,461.167 350,462.5C 350.333,461.833 350.667,461.167 351,460.5C 352.682,460.807 354.348,461.14 356,461.5C 358.019,459.812 359.686,457.812 361,455.5C 361.216,457.384 361.883,459.051 363,460.5C 362.009,457.756 362.343,455.089 364,452.5C 365.307,453.772 366.807,454.772 368.5,455.5C 366.718,455.576 365.051,455.909 363.5,456.5C 365.803,458.808 368.303,460.808 371,462.5C 371.991,461.061 373.324,460.061 375,459.5C 376,460.833 377,460.833 378,459.5C 378.915,460.328 379.581,461.328 380,462.5C 380.442,460.321 381.442,459.655 383,460.5C 383.743,458.559 383.576,456.726 382.5,455C 384.934,453.651 385.768,451.818 385,449.5C 387.09,450.791 388.424,450.124 389,447.5C 389.324,449.569 390.158,449.902 391.5,448.5C 395.63,452.602 396.297,452.102 393.5,447C 395.833,445.333 398.167,443.667 400.5,442C 399.332,440.594 399.665,439.428 401.5,438.5C 400.624,437.749 399.624,437.249 398.5,437C 398.802,435.345 400.136,434.012 402.5,433C 399.723,430.827 399.89,430.327 403,431.5C 403.617,430.551 403.451,429.718 402.5,429C 403.5,428.333 404.5,428.333 405.5,429C 404.549,429.718 404.383,430.551 405,431.5C 405.915,430.672 406.581,429.672 407,428.5C 407.451,430.929 408.285,431.096 409.5,429C 408.437,427.812 407.103,427.312 405.5,427.5C 405.281,426.325 405.614,425.325 406.5,424.5C 407.833,424.833 409.167,425.167 410.5,425.5C 411.251,424.624 411.751,423.624 412,422.5C 412.333,422.833 412.667,423.167 413,423.5C 413.822,421.212 414.489,418.878 415,416.5C 415.474,421.627 416.474,421.627 418,416.5C 419.185,418.377 420.185,420.377 421,422.5C 421.5,421.5 422,420.5 422.5,419.5C 421.835,417.899 421.501,416.399 421.5,415C 423.279,415.979 424.945,415.646 426.5,414C 424.054,412.517 424.388,411.351 427.5,410.5C 428.258,411.811 429.258,412.311 430.5,412C 430.167,411.667 429.833,411.333 429.5,411C 430.46,409.581 431.293,408.081 432,406.5C 433.049,407.517 434.216,407.684 435.5,407C 434.327,403.89 434.827,403.723 437,406.5C 437.711,404.633 437.211,403.133 435.5,402C 436.551,400.615 437.884,399.615 439.5,399C 438.016,397.426 436.349,396.093 434.5,395C 435.167,394.667 435.833,394.333 436.5,394C 435.949,392.602 435.616,391.268 435.5,390C 437.78,389.767 439.78,388.934 441.5,387.5C 440.413,386.895 439.246,387.228 438,388.5C 437.952,386.456 438.452,384.456 439.5,382.5C 438.603,382.331 437.603,381.998 436.5,381.5C 439.31,380.854 441.144,379.188 442,376.5C 443.767,377.817 445.101,379.484 446,381.5C 447.353,380.315 448.52,378.981 449.5,377.5C 450.333,378.5 451.167,379.5 452,380.5C 452.779,378.094 451.946,376.427 449.5,375.5C 449.709,374.914 450.043,374.414 450.5,374C 447.466,373.34 444.633,373.84 442,375.5C 441.333,374.833 440.667,374.167 440,373.5C 437.5,373.667 435,373.833 432.5,374C 431.167,373.333 431.167,372.667 432.5,372C 429.833,371.333 429.833,370.667 432.5,370C 431.833,369.667 431.167,369.333 430.5,369C 431.264,366.931 431.764,364.764 432,362.5C 432.333,363.167 432.667,363.833 433,364.5C 433.798,362.741 433.631,361.074 432.5,359.5C 429.966,361.289 427.8,363.289 426,365.5C 425.667,365.167 425.333,364.833 425,364.5C 422.924,367.721 420.757,370.054 418.5,371.5C 417.833,371.333 417.167,371.167 416.5,371C 418.271,370.465 418.604,369.631 417.5,368.5C 416.549,369.326 415.549,369.492 414.5,369C 413.359,366.217 411.525,364.05 409,362.5C 408.138,364.087 407.471,365.754 407,367.5C 406.92,365.752 406.087,364.085 404.5,362.5C 403.522,362.977 402.689,363.643 402,364.5C 401.667,363.833 401.333,363.167 401,362.5C 396.56,363.315 392.727,364.648 389.5,366.5C 387.051,366.02 384.885,365.02 383,363.5C 381.951,365.107 380.451,365.773 378.5,365.5C 378.5,364.5 378.5,363.5 378.5,362.5C 435.421,316.746 499.421,303.246 570.5,322C 608.205,333.498 639.872,353.998 665.5,383.5 Z"/></g>
<g><path style="opacity:1" fill="#2a2a2c" d="M 317.5,450.5 C 329.986,415.688 350.319,386.355 378.5,362.5C 378.5,363.5 378.5,364.5 378.5,365.5C 380.451,365.773 381.951,365.107 383,363.5C 384.885,365.02 387.051,366.02 389.5,366.5C 392.727,364.648 396.56,363.315 401,362.5C 401.333,363.167 401.667,363.833 402,364.5C 402.689,363.643 403.522,362.977 404.5,362.5C 406.087,364.085 406.92,365.752 407,367.5C 407.471,365.754 408.138,364.087 409,362.5C 411.525,364.05 413.359,366.217 414.5,369C 415.549,369.492 416.549,369.326 417.5,368.5C 418.604,369.631 418.271,370.465 416.5,371C 417.167,371.167 417.833,371.333 418.5,371.5C 420.757,370.054 422.924,367.721 425,364.5C 425.333,364.833 425.667,365.167 426,365.5C 427.8,363.289 429.966,361.289 432.5,359.5C 433.631,361.074 433.798,362.741 433,364.5C 432.667,363.833 432.333,363.167 432,362.5C 431.764,364.764 431.264,366.931 430.5,369C 431.167,369.333 431.833,369.667 432.5,370C 429.833,370.667 429.833,371.333 432.5,372C 431.167,372.667 431.167,373.333 432.5,374C 435,373.833 437.5,373.667 440,373.5C 440.667,374.167 441.333,374.833 442,375.5C 444.633,373.84 447.466,373.34 450.5,374C 450.043,374.414 449.709,374.914 449.5,375.5C 451.946,376.427 452.779,378.094 452,380.5C 451.167,379.5 450.333,378.5 449.5,377.5C 448.52,378.981 447.353,380.315 446,381.5C 445.101,379.484 443.767,377.817 442,376.5C 441.144,379.188 439.31,380.854 436.5,381.5C 437.603,381.998 438.603,382.331 439.5,382.5C 438.452,384.456 437.952,386.456 438,388.5C 439.246,387.228 440.413,386.895 441.5,387.5C 439.78,388.934 437.78,389.767 435.5,390C 435.616,391.268 435.949,392.602 436.5,394C 435.833,394.333 435.167,394.667 434.5,395C 436.349,396.093 438.016,397.426 439.5,399C 437.884,399.615 436.551,400.615 435.5,402C 437.211,403.133 437.711,404.633 437,406.5C 434.827,403.723 434.327,403.89 435.5,407C 434.216,407.684 433.049,407.517 432,406.5C 431.293,408.081 430.46,409.581 429.5,411C 429.833,411.333 430.167,411.667 430.5,412C 429.258,412.311 428.258,411.811 427.5,410.5C 424.388,411.351 424.054,412.517 426.5,414C 424.945,415.646 423.279,415.979 421.5,415C 421.501,416.399 421.835,417.899 422.5,419.5C 422,420.5 421.5,421.5 421,422.5C 420.185,420.377 419.185,418.377 418,416.5C 416.474,421.627 415.474,421.627 415,416.5C 414.489,418.878 413.822,421.212 413,423.5C 412.667,423.167 412.333,422.833 412,422.5C 411.751,423.624 411.251,424.624 410.5,425.5C 409.167,425.167 407.833,424.833 406.5,424.5C 405.614,425.325 405.281,426.325 405.5,427.5C 407.103,427.312 408.437,427.812 409.5,429C 408.285,431.096 407.451,430.929 407,428.5C 406.581,429.672 405.915,430.672 405,431.5C 404.383,430.551 404.549,429.718 405.5,429C 404.5,428.333 403.5,428.333 402.5,429C 403.451,429.718 403.617,430.551 403,431.5C 399.89,430.327 399.723,430.827 402.5,433C 400.136,434.012 398.802,435.345 398.5,437C 399.624,437.249 400.624,437.749 401.5,438.5C 399.665,439.428 399.332,440.594 400.5,442C 398.167,443.667 395.833,445.333 393.5,447C 396.297,452.102 395.63,452.602 391.5,448.5C 390.158,449.902 389.324,449.569 389,447.5C 388.424,450.124 387.09,450.791 385,449.5C 385.768,451.818 384.934,453.651 382.5,455C 383.576,456.726 383.743,458.559 383,460.5C 381.442,459.655 380.442,460.321 380,462.5C 379.581,461.328 378.915,460.328 378,459.5C 377,460.833 376,460.833 375,459.5C 373.324,460.061 371.991,461.061 371,462.5C 368.303,460.808 365.803,458.808 363.5,456.5C 365.051,455.909 366.718,455.576 368.5,455.5C 366.807,454.772 365.307,453.772 364,452.5C 362.343,455.089 362.009,457.756 363,460.5C 361.883,459.051 361.216,457.384 361,455.5C 359.686,457.812 358.019,459.812 356,461.5C 354.348,461.14 352.682,460.807 351,460.5C 350.667,461.167 350.333,461.833 350,462.5C 349.667,461.167 349.333,459.833 349,458.5C 348.333,460.5 347.667,462.5 347,464.5C 345.312,463.675 345.145,462.675 346.5,461.5C 345.066,460.77 343.9,459.77 343,458.5C 342.02,459.981 340.853,461.315 339.5,462.5C 338.167,461.167 336.833,459.833 335.5,458.5C 334.494,458.938 334.494,459.604 335.5,460.5C 333.182,461.652 331.348,463.319 330,465.5C 326.405,463.423 322.905,461.089 319.5,458.5C 318.233,456.629 318.233,454.796 319.5,453C 318.934,452.005 318.267,451.172 317.5,450.5 Z"/></g>
<g><path style="opacity:1" fill="#28292b" d="M 665.5,383.5 C 706.847,430.734 723.347,485.734 715,548.5C 705.636,605.147 678.136,650.647 632.5,685C 568.372,728.348 500.372,735.515 428.5,706.5C 430.231,705.793 431.897,704.793 433.5,703.5C 435.883,704.462 436.883,703.462 436.5,700.5C 437.5,700.5 438.5,700.5 439.5,700.5C 439.67,699.178 439.337,698.011 438.5,697C 441.712,695.291 441.878,693.791 439,692.5C 438.691,691.234 438.191,690.067 437.5,689C 438.167,688.667 438.833,688.333 439.5,688C 438.209,684.975 438.876,684.641 441.5,687C 440.289,687.893 440.289,688.726 441.5,689.5C 442.902,689.135 443.902,688.301 444.5,687C 443.496,684.65 442.496,682.316 441.5,680C 442,679.5 442.5,679 443,678.5C 444.167,680.167 445.333,681.833 446.5,683.5C 447.711,682.726 447.711,681.893 446.5,681C 448.249,679.708 450.082,678.542 452,677.5C 453.373,677.404 454.873,677.57 456.5,678C 457.28,676.927 457.113,675.76 456,674.5C 454.507,676.56 452.674,676.893 450.5,675.5C 450.667,675.167 450.833,674.833 451,674.5C 453.246,674.898 455.413,674.231 457.5,672.5C 456.975,671.808 456.308,671.308 455.5,671C 456.646,670.355 457.646,669.522 458.5,668.5C 459.833,669.167 461.167,669.833 462.5,670.5C 463.192,669.975 463.692,669.308 464,668.5C 465,668.833 466,669.167 467,669.5C 467.5,669 468,668.5 468.5,668C 467.027,667.29 466.36,666.124 466.5,664.5C 471.316,662.661 474.149,664.327 475,669.5C 477.368,667.089 480.035,666.089 483,666.5C 483.667,665.5 483.667,664.5 483,663.5C 482.667,663.833 482.333,664.167 482,664.5C 480.175,662.52 479.341,660.187 479.5,657.5C 471.316,657.826 463.316,657.492 455.5,656.5C 492.502,656.667 529.502,656.5 566.5,656C 567.622,652.591 567.789,649.091 567,645.5C 560.391,644.146 553.891,642.312 547.5,640C 543.507,637.181 541.84,633.347 542.5,628.5C 542.333,580.832 542.5,533.166 543,485.5C 543.226,488.095 543.726,490.595 544.5,493C 544.043,493.414 543.709,493.914 543.5,494.5C 544.972,494.406 546.138,495.406 547,497.5C 547.667,496.167 548.333,496.167 549,497.5C 549.309,496.234 549.809,495.067 550.5,494C 549.483,492.951 549.316,491.784 550,490.5C 550.718,491.451 551.551,491.617 552.5,491C 551.483,489.951 551.316,488.784 552,487.5C 553.667,488.5 555.333,489.5 557,490.5C 557.333,489.833 557.667,489.167 558,488.5C 559.049,489.517 560.216,489.684 561.5,489C 561.167,488.667 560.833,488.333 560.5,488C 561.667,486.167 563.167,484.667 565,483.5C 566.779,485.017 566.279,485.851 563.5,486C 565.5,487.333 567.5,488.667 569.5,490C 568.692,490.308 568.025,490.808 567.5,491.5C 568.035,493.271 568.869,493.604 570,492.5C 573.05,496.349 574.884,495.682 575.5,490.5C 574.448,490.649 573.448,490.483 572.5,490C 572.833,489.667 573.167,489.333 573.5,489C 571.833,488 570.167,487 568.5,486C 569.833,485.667 571.167,485.333 572.5,485C 573.641,484.259 573.641,483.425 572.5,482.5C 573.242,481.713 574.075,481.047 575,480.5C 575.289,482.714 575.123,485.047 574.5,487.5C 576.49,488.498 578.49,489.498 580.5,490.5C 581.287,489.758 581.953,488.925 582.5,488C 582.87,486.39 582.203,484.89 580.5,483.5C 580.977,482.522 581.643,481.689 582.5,481C 582.167,480.667 581.833,480.333 581.5,480C 583.087,479.138 584.754,478.471 586.5,478C 585.975,477.308 585.308,476.808 584.5,476.5C 581.859,478.828 579.526,478.328 577.5,475C 579.481,474.395 579.815,473.395 578.5,472C 580.002,471.417 581.335,470.584 582.5,469.5C 581.965,467.729 581.131,467.396 580,468.5C 579.517,467.552 579.351,466.552 579.5,465.5C 578.178,465.67 577.011,465.337 576,464.5C 574.983,467.028 573.816,467.028 572.5,464.5C 569.497,465.608 568.997,467.275 571,469.5C 572.61,469.87 574.11,469.203 575.5,467.5C 576.086,467.709 576.586,468.043 577,468.5C 577.763,465.937 578.263,465.937 578.5,468.5C 577.275,470.827 575.275,471.994 572.5,472C 573.696,472.654 573.696,473.154 572.5,473.5C 571.749,472.624 571.249,471.624 571,470.5C 566.839,471.92 566.673,473.42 570.5,475C 568.939,475.318 567.772,476.151 567,477.5C 566.167,476.5 565.333,475.5 564.5,474.5C 564.377,476.622 564.377,478.789 564.5,481C 562.776,481.448 562.109,482.282 562.5,483.5C 561.713,482.758 561.047,481.925 560.5,481C 562.709,480.043 562.543,478.876 560,477.5C 559.089,480.633 557.256,481.633 554.5,480.5C 553.808,481.025 553.308,481.692 553,482.5C 552.92,480.752 552.087,479.085 550.5,477.5C 551.025,476.808 551.692,476.308 552.5,476C 550.265,474.204 548.431,472.037 547,469.5C 546.586,469.957 546.086,470.291 545.5,470.5C 545.002,469.397 544.669,468.397 544.5,467.5C 542.997,468.052 541.331,468.052 539.5,467.5C 540.244,464.05 538.91,462.384 535.5,462.5C 535.5,461.5 535.5,460.5 535.5,459.5C 532.813,459.664 530.146,459.497 527.5,459C 528.624,458.751 529.624,458.251 530.5,457.5C 528.677,455.842 527.01,454.009 525.5,452C 526.5,451.667 527.5,451.333 528.5,451C 526.181,449.853 524.848,448.019 524.5,445.5C 537.605,440.301 544.605,430.634 545.5,416.5C 546.468,414.393 546.802,412.059 546.5,409.5C 548.199,409.34 549.866,409.506 551.5,410C 550.228,412.044 550.561,413.878 552.5,415.5C 553.192,413.585 554.525,411.585 556.5,409.5C 558.378,409.623 560.211,409.623 562,409.5C 562.684,410.784 562.517,411.951 561.5,413C 563.108,413.658 564.275,413.158 565,411.5C 565.914,412.654 566.747,412.487 567.5,411C 566.483,409.951 566.316,408.784 567,407.5C 567.333,408.167 567.667,408.833 568,409.5C 568.741,408.359 569.575,408.359 570.5,409.5C 571.427,407.887 572.261,406.221 573,404.5C 573.273,406.101 573.773,407.601 574.5,409C 572.034,409.93 572.201,410.763 575,411.5C 576.09,409.884 577.257,409.217 578.5,409.5C 578.817,406.4 578.484,403.567 577.5,401C 578,400.5 578.5,400 579,399.5C 580.047,405.729 580.547,411.563 580.5,417C 579.065,416.689 577.732,416.855 576.5,417.5C 575.833,416.833 575.167,416.167 574.5,415.5C 573.398,417.889 571.731,419.723 569.5,421C 572.212,423.007 573.712,422.174 574,418.5C 574.419,419.672 575.085,420.672 576,421.5C 576.667,420.167 577.333,420.167 578,421.5C 579.333,420.833 580.333,419.833 581,418.5C 581.667,421.167 582.333,421.167 583,418.5C 584.616,419.545 586.283,420.545 588,421.5C 588.853,419.875 589.853,419.542 591,420.5C 591.015,418.209 591.182,416.042 591.5,414C 589.189,414.155 586.856,414.155 584.5,414C 587.47,413.095 590.304,411.595 593,409.5C 592.818,415.624 593.984,415.79 596.5,410C 595.833,409.667 595.167,409.333 594.5,409C 596.288,407.37 597.621,407.87 598.5,410.5C 597.772,412.155 597.605,413.821 598,415.5C 599.333,416.167 600.333,417.167 601,418.5C 601.724,416.041 603.057,415.041 605,415.5C 606.067,414.809 607.234,414.309 608.5,414C 606.714,413.804 605.381,412.971 604.5,411.5C 607.19,410.398 609.857,410.564 612.5,412C 612.167,412.333 611.833,412.667 611.5,413C 612.228,417.989 613.228,418.322 614.5,414C 613.062,411.634 613.562,411.134 616,412.5C 615.429,406.535 618.262,402.868 624.5,401.5C 626.721,402.994 629.388,404.661 632.5,406.5C 632.833,406.333 633.167,406.167 633.5,406C 632.874,405.25 632.374,404.416 632,403.5C 631.08,403.07 630.247,402.736 629.5,402.5C 629.808,401.692 630.308,401.025 631,400.5C 631.741,401.641 632.575,401.641 633.5,400.5C 634.096,401.716 634.263,403.049 634,404.5C 635,404.167 636,403.833 637,403.5C 637.76,405.497 638.26,407.163 638.5,408.5C 639.5,408 640.5,407.5 641.5,407C 637.764,405.493 637.764,404.66 641.5,404.5C 641.351,403.448 641.517,402.448 642,401.5C 642.612,404.032 644.112,404.865 646.5,404C 645.154,402.358 645.487,401.691 647.5,402C 647.982,403.008 648.148,404.175 648,405.5C 648.915,404.672 649.581,403.672 650,402.5C 651,402.833 652,403.167 653,403.5C 652.805,401.874 652.805,400.207 653,398.5C 653.333,399.167 653.667,399.833 654,400.5C 655.149,397.036 657.315,394.536 660.5,393C 660.167,392.667 659.833,392.333 659.5,392C 660.793,391.51 662.127,391.343 663.5,391.5C 663.802,388.627 664.469,385.961 665.5,383.5 Z"/></g>
<g><path style="opacity:1" fill="#2a2a2c" d="M 465.5,642.5 C 462.344,643.434 459.011,644.101 455.5,644.5C 455.5,648.5 455.5,652.5 455.5,656.5C 463.316,657.492 471.316,657.826 479.5,657.5C 479.341,660.187 480.175,662.52 482,664.5C 482.333,664.167 482.667,663.833 483,663.5C 483.667,664.5 483.667,665.5 483,666.5C 480.035,666.089 477.368,667.089 475,669.5C 474.149,664.327 471.316,662.661 466.5,664.5C 466.36,666.124 467.027,667.29 468.5,668C 468,668.5 467.5,669 467,669.5C 466,669.167 465,668.833 464,668.5C 463.692,669.308 463.192,669.975 462.5,670.5C 461.167,669.833 459.833,669.167 458.5,668.5C 457.646,669.522 456.646,670.355 455.5,671C 456.308,671.308 456.975,671.808 457.5,672.5C 455.413,674.231 453.246,674.898 451,674.5C 450.833,674.833 450.667,675.167 450.5,675.5C 452.674,676.893 454.507,676.56 456,674.5C 457.113,675.76 457.28,676.927 456.5,678C 454.873,677.57 453.373,677.404 452,677.5C 450.082,678.542 448.249,679.708 446.5,681C 447.711,681.893 447.711,682.726 446.5,683.5C 445.333,681.833 444.167,680.167 443,678.5C 442.5,679 442,679.5 441.5,680C 442.496,682.316 443.496,684.65 444.5,687C 443.902,688.301 442.902,689.135 441.5,689.5C 440.289,688.726 440.289,687.893 441.5,687C 438.876,684.641 438.209,684.975 439.5,688C 438.833,688.333 438.167,688.667 437.5,689C 438.191,690.067 438.691,691.234 439,692.5C 441.878,693.791 441.712,695.291 438.5,697C 439.337,698.011 439.67,699.178 439.5,700.5C 438.5,700.5 437.5,700.5 436.5,700.5C 436.883,703.462 435.883,704.462 433.5,703.5C 431.897,704.793 430.231,705.793 428.5,706.5C 393.212,690.856 364.545,667.189 342.5,635.5C 341.56,633.223 341.56,631.056 342.5,629C 344.279,629.979 345.945,629.646 347.5,628C 345.697,627.363 344.364,626.197 343.5,624.5C 345.585,623.459 347.252,621.959 348.5,620C 347.833,619.667 347.167,619.333 346.5,619C 348.059,618.02 349.726,617.187 351.5,616.5C 350.189,615.742 349.689,614.742 350,613.5C 352.131,614.121 354.464,615.121 357,616.5C 357.133,617.26 356.633,617.76 355.5,618C 357.903,618.63 359.737,617.797 361,615.5C 361.333,616.5 361.667,617.5 362,618.5C 362.333,618.167 362.667,617.833 363,617.5C 364.797,620.096 366.131,619.763 367,616.5C 368.174,618.671 369.34,620.838 370.5,623C 370.012,624.584 369.012,625.751 367.5,626.5C 368.66,626.437 369.994,626.77 371.5,627.5C 372.251,628.376 372.751,629.376 373,630.5C 374.452,629.093 374.285,627.593 372.5,626C 374.928,623.642 377.261,623.476 379.5,625.5C 380.906,624.332 382.072,624.665 383,626.5C 383.718,625.549 384.551,625.383 385.5,626C 385.5,627.333 385.5,628.667 385.5,630C 384.333,630.5 383.5,631.333 383,632.5C 380.887,630.729 381.053,629.229 383.5,628C 381.911,626.457 380.577,626.457 379.5,628C 378.396,631.053 378.396,633.553 379.5,635.5C 380.355,636.293 381.189,635.96 382,634.5C 382.193,637.353 382.86,640.353 384,643.5C 384.308,642.692 384.808,642.025 385.5,641.5C 386.705,643.138 388.038,643.471 389.5,642.5C 392.429,645.446 392.095,646.613 388.5,646C 389.579,646.956 390.745,647.789 392,648.5C 393.779,647.521 395.445,647.854 397,649.5C 398.171,648.107 399.671,647.273 401.5,647C 402.138,645.293 402.138,643.46 401.5,641.5C 408.278,641.719 408.945,643.553 403.5,647C 404,647.5 404.5,648 405,648.5C 405.741,647.359 406.575,647.359 407.5,648.5C 408.23,647.066 409.23,645.9 410.5,645C 407.833,644 407.833,643 410.5,642C 407.588,641.155 406.588,639.488 407.5,637C 406.643,636.311 405.977,635.478 405.5,634.5C 407.663,632.28 410.163,631.947 413,633.5C 415.113,631.729 414.947,630.229 412.5,629C 415.543,626.054 414.876,624.888 410.5,625.5C 410.67,626.822 410.337,627.989 409.5,629C 410.167,629.333 410.833,629.667 411.5,630C 409.973,631.632 408.307,631.799 406.5,630.5C 407.668,629.094 407.335,627.928 405.5,627C 407.44,627.178 409.107,626.178 410.5,624C 408.607,622.417 406.607,620.917 404.5,619.5C 402.913,617.554 403.246,616.054 405.5,615C 404.584,614.626 403.75,614.126 403,613.5C 402.275,615.158 401.108,615.658 399.5,615C 401.167,613.667 402.833,612.333 404.5,611C 403.833,610.667 403.167,610.333 402.5,610C 404.767,608.919 404.934,607.419 403,605.5C 400.649,608.21 398.649,607.877 397,604.5C 394.934,606.569 392.601,608.236 390,609.5C 388.72,609.387 387.887,608.72 387.5,607.5C 388.569,607.36 389.736,607.36 391,607.5C 391.442,605.321 392.442,604.655 394,605.5C 394.014,603.402 393.847,601.569 393.5,600C 395.044,599.71 396.377,599.044 397.5,598C 395.526,596.678 393.692,597.178 392,599.5C 390.89,597.963 389.39,597.297 387.5,597.5C 387.5,596.167 387.5,594.833 387.5,593.5C 389.467,593.261 391.301,593.594 393,594.5C 393.456,593.256 392.956,592.423 391.5,592C 393.053,590.903 394.386,589.57 395.5,588C 393.633,587.289 392.133,587.789 391,589.5C 390.333,588.833 389.667,588.167 389,587.5C 388.259,588.641 387.425,588.641 386.5,587.5C 384.937,588.945 383.604,590.611 382.5,592.5C 381.326,590.776 380.326,589.109 379.5,587.5C 381.358,583.042 383.525,582.708 386,586.5C 385.968,584.402 385.301,582.402 384,580.5C 383.396,582.686 382.23,582.852 380.5,581C 382.699,579.303 385.032,577.803 387.5,576.5C 388.086,576.709 388.586,577.043 389,577.5C 389.419,575.32 389.252,573.154 388.5,571C 388.706,569.135 389.372,567.468 390.5,566C 389.373,564.943 388.873,563.777 389,562.5C 391.002,565.253 393.336,566.919 396,567.5C 397.117,566.051 397.784,564.384 398,562.5C 398.523,564.223 399.523,565.556 401,566.5C 404.153,565.673 404.32,566.506 401.5,569C 402.416,569.374 403.25,569.874 404,570.5C 404.667,569.167 405.333,567.833 406,566.5C 408.984,569.316 408.651,571.982 405,574.5C 404.333,573.833 403.667,573.167 403,572.5C 401.543,575.366 401.21,578.366 402,581.5C 403,581.167 404,580.833 405,580.5C 405.492,581.549 405.326,582.549 404.5,583.5C 406.991,584.541 406.991,585.374 404.5,586C 406,586.833 407.167,588 408,589.5C 408.707,587.919 409.54,586.419 410.5,585C 412.095,585.617 413.428,585.284 414.5,584C 413.216,582.703 413.383,581.536 415,580.5C 415.367,584.281 416.7,584.948 419,582.5C 420.077,584.705 420.743,586.705 421,588.5C 421.318,586.939 422.151,585.772 423.5,585C 423.043,584.586 422.709,584.086 422.5,583.5C 424.758,582.582 427.091,581.915 429.5,581.5C 431.721,582.116 432.388,583.283 431.5,585C 432.784,585.684 433.951,585.517 435,584.5C 436.204,585.471 436.704,586.471 436.5,587.5C 437.5,586.833 438.5,586.167 439.5,585.5C 439.669,586.397 440.002,587.397 440.5,588.5C 441.086,588.291 441.586,587.957 442,587.5C 442.617,590.176 441.784,590.843 439.5,589.5C 438.184,592.028 437.017,592.028 436,589.5C 434.559,590.26 433.059,590.926 431.5,591.5C 430.468,589.96 429.135,589.46 427.5,590C 429.321,591.743 431.321,593.243 433.5,594.5C 432.689,595.216 432.022,596.05 431.5,597C 433.294,598.56 434.794,598.06 436,595.5C 436.667,598.167 437.333,598.167 438,595.5C 438.465,596.931 439.299,598.097 440.5,599C 439.207,599.49 437.873,599.657 436.5,599.5C 436.176,602.694 437.342,603.694 440,602.5C 440.167,603 440.333,603.5 440.5,604C 439.314,607.204 438.147,610.037 437,612.5C 436.033,611.322 435.533,609.989 435.5,608.5C 435.977,607.522 436.643,606.689 437.5,606C 436.584,605.626 435.75,605.126 435,604.5C 433.517,606.946 432.351,606.612 431.5,603.5C 432.98,602.887 434.313,602.554 435.5,602.5C 433.659,601.77 431.825,601.103 430,600.5C 426.582,603.233 426.749,604.566 430.5,604.5C 431.326,605.451 431.492,606.451 431,607.5C 429.417,607.507 427.751,607.174 426,606.5C 425.626,607.416 425.126,608.25 424.5,609C 424.883,611.124 426.383,612.957 429,614.5C 428.021,612.721 428.354,611.055 430,609.5C 431.049,608.483 432.216,608.316 433.5,609C 431.717,610.067 431.217,611.567 432,613.5C 432.249,612.376 432.749,611.376 433.5,610.5C 434.23,611.934 435.23,613.1 436.5,614C 434.611,616.194 432.444,616.694 430,615.5C 429.505,617.473 429.338,619.473 429.5,621.5C 426.162,621.109 425.162,622.276 426.5,625C 425.139,626.927 424.306,629.094 424,631.5C 423.667,630.5 423.333,629.5 423,628.5C 422.727,630.101 422.227,631.601 421.5,633C 422.227,634.399 422.727,635.899 423,637.5C 424.113,636.289 425.28,636.289 426.5,637.5C 428.002,636.917 429.335,636.084 430.5,635C 429.446,633.612 429.28,632.112 430,630.5C 430.5,631.667 431.333,632.5 432.5,633C 432.5,634.667 432.5,636.333 432.5,638C 432.833,638.167 433.167,638.333 433.5,638.5C 434.281,637.271 434.781,635.938 435,634.5C 435.465,635.931 436.299,637.097 437.5,638C 436.833,639 436.167,640 435.5,641C 437.017,642.779 437.851,642.279 438,639.5C 438.333,639.833 438.667,640.167 439,640.5C 438.418,645.788 439.085,645.788 441,640.5C 442.888,642.631 444.388,642.631 445.5,640.5C 444.722,638.853 443.556,637.52 442,636.5C 441.549,638.929 440.715,639.096 439.5,637C 440.701,636.097 441.535,634.931 442,633.5C 442.71,634.973 443.876,635.64 445.5,635.5C 445.225,630.78 446.059,630.446 448,634.5C 448.333,633.833 448.667,633.167 449,632.5C 449.667,636.5 450.333,636.5 451,632.5C 451.419,633.672 452.085,634.672 453,635.5C 454.566,636.061 455.899,635.394 457,633.5C 457.333,634.167 457.667,634.833 458,635.5C 459.333,635.5 460.667,635.5 462,635.5C 462.667,634.833 463.333,634.167 464,633.5C 463.021,635.279 463.354,636.945 465,638.5C 465.915,637.672 466.581,636.672 467,635.5C 467.692,636.025 468.192,636.692 468.5,637.5C 467.754,638.736 467.421,640.07 467.5,641.5C 466.127,641.343 464.793,641.51 463.5,642C 464.094,642.464 464.761,642.631 465.5,642.5 Z"/></g>
</svg>
