<?xml version="1.0" encoding="UTF-8"?>
<!DOCTYPE svg PUBLIC "-//W3C//DTD SVG 1.1//EN" "http://www.w3.org/Graphics/SVG/1.1/DTD/svg11.dtd">
<svg xmlns="http://www.w3.org/2000/svg" version="1.1" width="2048px" height="2048px" style="shape-rendering:geometricPrecision; text-rendering:geometricPrecision; image-rendering:optimizeQuality; fill-rule:evenodd; clip-rule:evenodd" xmlns:xlink="http://www.w3.org/1999/xlink">
<g><path style="opacity:1" fill="#fcfcf7" d="M 1491.5,632.5 C 1511.84,631.998 1520,641.664 1516,661.5C 1402.9,891.368 1288.57,1120.37 1173,1348.5C 1164.62,1357.23 1155.12,1358.73 1144.5,1353C 1086.9,1297.73 1028.4,1243.56 969,1190.5C 918.167,1230 867.333,1269.5 816.5,1309C 805.081,1314.94 795.581,1312.77 788,1302.5C 787.178,1300.21 786.511,1297.88 786,1295.5C 781.165,1214.8 775.831,1134.13 770,1053.5C 704.414,1013.96 638.581,974.789 572.5,936C 558.077,925.425 557.077,913.758 569.5,901C 573.271,898.781 577.271,897.115 581.5,896C 885.041,808.453 1188.37,720.619 1491.5,632.5 Z M 1336.5,718.5 C 1337.17,718.5 1337.5,718.833 1337.5,719.5C 1155.08,819.464 972.244,918.797 789,1017.5C 735.834,987.143 683.334,955.809 631.5,923.5C 649.384,917.706 667.384,912.206 685.5,907C 902.655,844.629 1119.65,781.795 1336.5,718.5 Z M 1440.5,721.5 C 1441.24,721.369 1441.91,721.536 1442.5,722C 1345.99,916.19 1248.82,1110.02 1151,1303.5C 1076.8,1234.3 1002.3,1165.47 927.5,1097C 1051.61,1005.56 1176.27,914.893 1301.5,825C 1348.02,790.637 1394.35,756.137 1440.5,721.5 Z M 1248.5,812.5 C 1250.38,812.393 1250.71,812.893 1249.5,814C 1125.11,903.059 1001.27,992.893 878,1083.5C 859.776,1126.17 840.776,1168.5 821,1210.5C 816.254,1157.31 812.754,1104.14 810.5,1051C 957.362,972.742 1103.36,893.242 1248.5,812.5 Z M 859.5,1224.5 C 873.289,1192.25 887.623,1160.25 902.5,1128.5C 914.828,1139.5 926.828,1150.83 938.5,1162.5C 912.746,1183.92 886.413,1204.59 859.5,1224.5 Z"/></g>
<g><path style="opacity:1" fill="#babbb7" d="M 1336.5,718.5 C 1336.56,717.957 1336.89,717.624 1337.5,717.5C 1338.77,718.257 1338.77,718.923 1337.5,719.5C 1337.5,718.833 1337.17,718.5 1336.5,718.5 Z"/></g>
</svg>
