<?xml version="1.0" encoding="UTF-8"?>
<!DOCTYPE svg PUBLIC "-//W3C//DTD SVG 1.1//EN" "http://www.w3.org/Graphics/SVG/1.1/DTD/svg11.dtd">
<svg xmlns="http://www.w3.org/2000/svg" version="1.1" width="1024px" height="1024px" style="shape-rendering:geometricPrecision; text-rendering:geometricPrecision; image-rendering:optimizeQuality; fill-rule:evenodd; clip-rule:evenodd" xmlns:xlink="http://www.w3.org/1999/xlink">
<g><path style="opacity:1" fill="#030303" d="M 811.5,245.5 C 828.522,246.02 834.355,254.353 829,270.5C 740.333,413.167 651.667,555.833 563,698.5C 556.614,704.556 549.447,705.723 541.5,702C 513.096,674.718 484.596,647.551 456,620.5C 428.167,641 400.333,661.5 372.5,682C 361.58,686.456 353.747,683.29 349,672.5C 344.531,625.479 339.865,578.479 335,531.5C 292.572,506.7 249.738,482.534 206.5,459C 198.934,453.966 196.767,447.133 200,438.5C 201.833,435.333 204.333,432.833 207.5,431C 409.087,369.635 610.42,307.802 811.5,245.5 Z M 768.5,304.5 C 769.043,304.56 769.376,304.893 769.5,305.5C 695.667,423.833 621.833,542.167 548,660.5C 547.282,661.451 546.449,661.617 545.5,661C 509.656,627.322 473.989,593.488 438.5,559.5C 548.543,474.445 658.543,389.445 768.5,304.5 Z M 706.5,310.5 C 708.842,310.775 708.842,311.608 706.5,313C 694.185,322.491 681.518,331.491 668.5,340C 565.733,396.802 462.567,452.969 359,508.5C 325.24,488.368 291.074,468.868 256.5,450C 406.589,403.58 556.589,357.08 706.5,310.5 Z M 591.5,400.5 C 529.958,449.614 467.624,497.781 404.5,545C 402.044,547.408 400.211,550.241 399,553.5C 391.61,572.613 383.943,591.613 376,610.5C 371.929,580.632 369.096,550.798 367.5,521C 442.38,481.063 517.047,440.896 591.5,400.5 Z M 420.5,587.5 C 424.656,590.757 428.656,594.257 432.5,598C 424.394,603.805 416.561,609.972 409,616.5C 412.122,606.651 415.955,596.984 420.5,587.5 Z"/></g>
<g><path style="opacity:1" fill="#3f3f3f" d="M 592.5,400.5 C 592.517,398.972 593.184,398.472 594.5,399C 593.956,399.717 593.289,400.217 592.5,400.5 Z"/></g>
</svg>
