<?xml version="1.0" encoding="UTF-8"?>
<!DOCTYPE svg PUBLIC "-//W3C//DTD SVG 1.1//EN" "http://www.w3.org/Graphics/SVG/1.1/DTD/svg11.dtd">
<svg xmlns="http://www.w3.org/2000/svg" version="1.1" width="1024px" height="1024px" style="shape-rendering:geometricPrecision; text-rendering:geometricPrecision; image-rendering:optimizeQuality; fill-rule:evenodd; clip-rule:evenodd" xmlns:xlink="http://www.w3.org/1999/xlink">
<g><path style="opacity:1" fill="#202832" d="M 854.5,384.5 C 853.153,385.171 851.986,385.171 851,384.5C 850.275,382.051 849.275,379.717 848,377.5C 845.387,378.815 842.887,380.315 840.5,382C 840.833,382.333 841.167,382.667 841.5,383C 840.718,385.74 840.218,388.574 840,391.5C 837,390.167 834,388.833 831,387.5C 829.869,388.604 829.035,388.271 828.5,386.5C 830.401,385.065 830.734,383.398 829.5,381.5C 830.582,381.251 831.915,381.085 833.5,381C 831.009,380.374 831.009,379.541 833.5,378.5C 831.486,374.967 828.652,371.3 825,367.5C 822.266,368.362 822.099,369.195 824.5,370C 823.183,371.659 821.517,372.826 819.5,373.5C 818.571,374.689 818.238,376.022 818.5,377.5C 823.664,378.687 824.164,380.353 820,382.5C 818.16,381.167 817.66,381.334 818.5,383C 817.87,384.892 816.87,386.559 815.5,388C 816.667,388.5 817.5,389.333 818,390.5C 821.709,386.317 823.376,386.651 823,391.5C 823.333,391.167 823.667,390.833 824,390.5C 824.745,391.99 825.912,392.99 827.5,393.5C 829.915,391.784 832.582,391.284 835.5,392C 834.833,392.333 834.167,392.667 833.5,393C 834.624,393.249 835.624,393.749 836.5,394.5C 836.333,394.833 836.167,395.167 836,395.5C 834.266,396.249 832.433,396.749 830.5,397C 831.5,397.333 832.5,397.667 833.5,398C 832.167,398.667 830.833,399.333 829.5,400C 830.833,400.667 830.833,401.333 829.5,402C 831.017,403.779 831.851,403.279 832,400.5C 832.98,401.981 834.147,403.315 835.5,404.5C 836.711,405.72 836.711,406.887 835.5,408C 836,408.5 836.5,409 837,409.5C 837.219,408.062 837.719,406.729 838.5,405.5C 839.221,407.686 839.887,409.853 840.5,412C 840.766,414.399 840.766,416.899 840.5,419.5C 839.796,417.899 838.629,416.565 837,415.5C 836.383,416.449 836.549,417.282 837.5,418C 834.833,418.667 834.833,419.333 837.5,420C 836.833,420.333 836.167,420.667 835.5,421C 837.604,422.836 837.938,425.002 836.5,427.5C 835.852,425.851 834.852,424.518 833.5,423.5C 830.936,425.019 830.936,426.519 833.5,428C 831.999,429.252 830.332,430.252 828.5,431C 830.807,431.354 831.141,432.354 829.5,434C 830.885,435.597 831.551,437.43 831.5,439.5C 835.514,439.334 839.514,439.501 843.5,440C 842.354,440.645 841.354,441.478 840.5,442.5C 839.914,442.291 839.414,441.957 839,441.5C 838.682,443.061 837.849,444.228 836.5,445C 837.554,446.388 837.72,447.888 837,449.5C 836.333,446.833 835.667,446.833 835,449.5C 834.667,449.167 834.333,448.833 834,448.5C 830.154,451.431 826.321,452.431 822.5,451.5C 820.111,452.18 817.778,453.014 815.5,454C 815.833,454.333 816.167,454.667 816.5,455C 815.733,456.47 815.067,457.97 814.5,459.5C 782.167,459.5 749.833,459.5 717.5,459.5C 666.759,402.648 605.426,387.148 533.5,413C 509.237,423.44 488.904,438.94 472.5,459.5C 370.167,459.5 267.833,459.5 165.5,459.5C 165.5,441.5 165.5,423.5 165.5,405.5C 166.33,415.992 166.83,426.659 167,437.5C 168,438.167 169,438.833 170,439.5C 171.61,441.578 172.61,443.578 173,445.5C 173.333,444.833 173.667,444.167 174,443.5C 175.612,447.466 177.279,447.466 179,443.5C 180.688,444.325 180.855,445.325 179.5,446.5C 181.833,447.954 182.5,449.787 181.5,452C 184.309,454.564 183.976,456.564 180.5,458C 186.917,458.87 193.251,458.536 199.5,457C 199.737,454.712 199.737,452.212 199.5,449.5C 196.491,449.423 194.324,450.756 193,453.5C 192.259,452.359 191.425,452.359 190.5,453.5C 189.266,451.602 189.599,449.935 191.5,448.5C 191.154,447.304 190.654,447.304 190,448.5C 189.506,446.866 189.34,445.199 189.5,443.5C 191.592,443.439 193.092,442.439 194,440.5C 194.805,442.901 195.638,442.734 196.5,440C 197.448,439.517 198.448,439.351 199.5,439.5C 199.5,440.833 199.5,442.167 199.5,443.5C 202.102,441.932 204.769,440.265 207.5,438.5C 206.167,437.833 204.833,437.167 203.5,436.5C 206.167,435.167 206.167,433.833 203.5,432.5C 204,431.5 204.5,430.5 205,429.5C 206.789,431.229 208.956,431.896 211.5,431.5C 211.5,430.167 211.5,428.833 211.5,427.5C 209.042,427.773 207.375,426.773 206.5,424.5C 207.934,423.77 209.1,422.77 210,421.5C 211.466,423.325 213.299,423.825 215.5,423C 214.549,422.282 214.383,421.449 215,420.5C 217.795,421.783 220.628,421.783 223.5,420.5C 220.298,419.953 217.298,418.953 214.5,417.5C 213.833,418.167 213.167,418.833 212.5,419.5C 210.999,418.248 209.332,417.248 207.5,416.5C 208.628,415.738 209.795,415.071 211,414.5C 212.373,414.404 213.873,414.57 215.5,415C 214.5,414.167 213.5,413.333 212.5,412.5C 214.401,411.455 216.067,410.122 217.5,408.5C 216.284,407.904 214.951,407.737 213.5,408C 213.957,407.586 214.291,407.086 214.5,406.5C 213.052,405.646 211.719,404.646 210.5,403.5C 209.833,403.833 209.167,404.167 208.5,404.5C 207.369,402.926 207.202,401.259 208,399.5C 209,402.167 210,402.167 211,399.5C 211.483,400.448 211.649,401.448 211.5,402.5C 212.873,402.343 214.207,402.51 215.5,403C 214.167,403.667 214.167,404.333 215.5,405C 216.448,405.483 217.448,405.649 218.5,405.5C 218.596,401.689 219.262,401.689 220.5,405.5C 222.001,404.248 223.668,403.248 225.5,402.5C 226.727,401.41 227.56,400.076 228,398.5C 229.586,399.376 231.086,400.376 232.5,401.5C 233.5,400.167 234.5,398.833 235.5,397.5C 236.524,398.853 237.857,399.52 239.5,399.5C 239.5,396.833 239.5,394.167 239.5,391.5C 240.822,391.33 241.989,391.663 243,392.5C 243.239,390.239 243.406,388.239 243.5,386.5C 244.086,386.709 244.586,387.043 245,387.5C 245.333,389.5 245.667,391.5 246,393.5C 247.241,392.062 247.741,390.562 247.5,389C 249.061,388.812 249.728,389.645 249.5,391.5C 252.906,390.598 255.239,388.431 256.5,385C 255.112,384.111 255.278,383.611 257,383.5C 257.945,383.905 258.612,384.572 259,385.5C 261.011,382.636 263.178,382.302 265.5,384.5C 262.428,386.944 261.428,389.944 262.5,393.5C 265.403,393.243 268.403,392.743 271.5,392C 269.054,393.483 269.388,394.649 272.5,395.5C 273.429,396.689 273.762,398.022 273.5,399.5C 272.167,399.5 270.833,399.5 269.5,399.5C 269.229,404.913 269.729,410.246 271,415.5C 271.654,414.304 272.154,414.304 272.5,415.5C 271.976,417.453 270.976,419.12 269.5,420.5C 265.02,422.454 260.353,423.454 255.5,423.5C 255.927,426.788 255.26,429.788 253.5,432.5C 255.005,433.842 255.672,435.508 255.5,437.5C 256.833,437.5 258.167,437.5 259.5,437.5C 259.857,441.395 261.857,442.395 265.5,440.5C 266.025,439.808 266.692,439.308 267.5,439C 267.167,438.667 266.833,438.333 266.5,438C 267.708,435.75 269.041,433.583 270.5,431.5C 271.371,433.058 272.371,434.725 273.5,436.5C 276.244,437.303 278.911,438.303 281.5,439.5C 282.442,439.392 283.275,439.059 284,438.5C 290,439.167 296,439.833 302,440.5C 302.5,440 303,439.5 303.5,439C 302.376,438.751 301.376,438.251 300.5,437.5C 301.274,436.289 302.107,436.289 303,437.5C 302.959,434.194 301.126,432.861 297.5,433.5C 297.351,432.448 297.517,431.448 298,430.5C 299,431.833 300,431.833 301,430.5C 301.333,431.167 301.667,431.833 302,432.5C 303.067,431.809 304.234,431.309 305.5,431C 302.878,428.206 302.878,426.373 305.5,425.5C 304.96,424.252 304.293,423.085 303.5,422C 300.356,420.305 297.023,419.138 293.5,418.5C 293.709,417.914 294.043,417.414 294.5,417C 292.058,415.319 290.725,413.319 290.5,411C 293.078,411.828 295.745,412.828 298.5,414C 297.747,415.487 296.914,415.654 296,414.5C 295.219,415.944 295.386,417.277 296.5,418.5C 297.425,417.359 298.259,417.359 299,418.5C 299.44,416.924 300.273,415.59 301.5,414.5C 298.947,412.403 296.614,410.07 294.5,407.5C 294.089,408.262 293.923,409.262 294,410.5C 292.259,408.459 292.092,406.292 293.5,404C 292.033,402.902 291.199,401.402 291,399.5C 290.667,400.167 290.333,400.833 290,401.5C 289.208,399.413 288.041,397.579 286.5,396C 287.167,395.667 287.833,395.333 288.5,395C 286.183,393.218 284.516,391.051 283.5,388.5C 284.552,388.351 285.552,388.517 286.5,389C 285.304,389.654 285.304,390.154 286.5,390.5C 287.192,389.975 287.692,389.308 288,388.5C 290.753,389.779 292.253,388.779 292.5,385.5C 292.333,384.833 292.167,384.167 292,383.5C 291.138,385.087 290.471,386.754 290,388.5C 288.803,386.208 287.137,385.875 285,387.5C 284.5,387.333 284,387.167 283.5,387C 284.863,384.871 284.529,384.371 282.5,385.5C 281.713,384.758 281.047,383.925 280.5,383C 282.443,383.305 284.443,383.305 286.5,383C 288.525,381.806 288.859,380.306 287.5,378.5C 288.5,377.833 289.5,377.167 290.5,376.5C 290.062,375.494 289.396,375.494 288.5,376.5C 287.713,375.758 287.047,374.925 286.5,374C 286.936,371.822 287.436,369.322 288,366.5C 291.937,367.179 295.271,365.845 298,362.5C 298.333,362.833 298.667,363.167 299,363.5C 303.217,360.263 304.717,360.93 303.5,365.5C 304.873,365.657 306.207,365.49 307.5,365C 306.359,364.259 306.359,363.425 307.5,362.5C 306.975,361.808 306.308,361.308 305.5,361C 308.194,358.448 307.527,357.281 303.5,357.5C 304.367,354.521 305.7,351.688 307.5,349C 306.158,345.185 307.491,343.018 311.5,342.5C 311.646,337.563 310.646,336.897 308.5,340.5C 307.614,339.675 307.281,338.675 307.5,337.5C 303.847,337.123 300.347,337.123 297,337.5C 295.188,337.507 293.688,336.84 292.5,335.5C 290.873,336.919 290.373,336.586 291,334.5C 291.925,333.953 292.758,333.287 293.5,332.5C 292.242,333.016 291.242,332.35 290.5,330.5C 288.958,331.747 287.458,331.747 286,330.5C 285.085,331.328 284.419,332.328 284,333.5C 283.333,332.167 282.667,332.167 282,333.5C 279.804,330.038 277.304,330.038 274.5,333.5C 273.571,334.689 273.238,336.022 273.5,337.5C 275.958,337.227 277.625,338.227 278.5,340.5C 277.675,341.386 276.675,341.719 275.5,341.5C 275.5,342.833 275.5,344.167 275.5,345.5C 277.666,345.421 279.666,344.754 281.5,343.5C 282.167,343.833 282.833,344.167 283.5,344.5C 282.335,345.584 281.002,346.417 279.5,347C 280.667,347.5 281.5,348.333 282,349.5C 282.906,346.879 283.406,347.046 283.5,350C 282.636,352.228 281.636,354.395 280.5,356.5C 279.728,353.865 279.562,351.199 280,348.5C 278.491,349.09 276.991,349.756 275.5,350.5C 277.683,354.628 278.016,358.961 276.5,363.5C 275.674,359.486 273.341,357.653 269.5,358C 270.336,359.243 270.003,360.41 268.5,361.5C 267.571,360.311 267.238,358.978 267.5,357.5C 266.167,357.5 264.833,357.5 263.5,357.5C 263.5,358.833 263.5,360.167 263.5,361.5C 261.801,361.66 260.134,361.494 258.5,361C 259.731,359.817 259.731,358.651 258.5,357.5C 257.964,359.969 256.964,362.136 255.5,364C 257.872,365.471 257.872,366.637 255.5,367.5C 252.697,365.575 249.697,365.575 246.5,367.5C 245.996,364.658 244.329,363.325 241.5,363.5C 241.657,364.873 241.49,366.207 241,367.5C 240.174,365.595 239.007,365.261 237.5,366.5C 237.846,367.696 238.346,367.696 239,366.5C 239.483,367.448 239.649,368.448 239.5,369.5C 234.167,369.5 228.833,369.5 223.5,369.5C 223.587,372.598 223.087,372.932 222,370.5C 219.935,371.628 219.268,373.294 220,375.5C 220.718,374.549 221.551,374.383 222.5,375C 223.209,376.875 223.209,379.042 222.5,381.5C 221.251,379.525 219.751,379.191 218,380.5C 215.745,379.958 213.912,378.791 212.5,377C 214.421,376.64 216.088,375.806 217.5,374.5C 216.5,373.833 215.5,373.167 214.5,372.5C 215.681,370.802 215.681,369.135 214.5,367.5C 212.185,368.234 210.352,369.568 209,371.5C 208.667,370.833 208.333,370.167 208,369.5C 206.602,370.051 205.268,370.384 204,370.5C 203.437,369.275 203.77,368.275 205,367.5C 208.474,368.928 208.974,368.428 206.5,366C 207.711,365.107 207.711,364.274 206.5,363.5C 204.275,367.032 202.442,367.032 201,363.5C 200.083,369.798 196.583,373.798 190.5,375.5C 190.167,376.333 189.833,377.167 189.5,378C 191.072,378.76 191.738,380.594 191.5,383.5C 189.897,383.312 188.563,383.812 187.5,385C 189.053,386.097 190.386,387.43 191.5,389C 190.033,390.098 189.199,391.598 189,393.5C 188.667,392.833 188.333,392.167 188,391.5C 186.992,391.982 185.825,392.148 184.5,392C 185.337,393.011 185.67,394.178 185.5,395.5C 184.448,395.351 183.448,395.517 182.5,396C 185.843,398.004 189.176,400.004 192.5,402C 190.653,403.703 188.819,403.536 187,401.5C 185.318,402.865 185.151,404.365 186.5,406C 185.747,407.487 184.914,407.654 184,406.5C 183.833,407 183.667,407.5 183.5,408C 185.842,409.805 186.508,411.972 185.5,414.5C 186.025,415.192 186.692,415.692 187.5,416C 186.213,417.41 185.046,418.91 184,420.5C 183.5,420 183,419.5 182.5,419C 183.731,417.817 183.731,416.651 182.5,415.5C 180.877,416.476 179.543,415.976 178.5,414C 179.833,413.667 181.167,413.333 182.5,413C 176.066,411.173 176.066,409.173 182.5,407C 180.459,405.758 179.293,403.925 179,401.5C 176.442,403.943 175.608,403.443 176.5,400C 174.598,399.801 173.098,398.967 172,397.5C 171.632,398.91 170.799,399.91 169.5,400.5C 167.435,399.346 166.102,397.68 165.5,395.5C 169.489,375.344 181.489,362.844 201.5,358C 208.414,357.814 215.247,357.314 222,356.5C 221.094,349.162 221.428,341.828 223,334.5C 225.007,329.162 228.841,325.996 234.5,325C 258.23,324.03 281.897,324.364 305.5,326C 310.838,328.007 314.004,331.841 315,337.5C 315.5,344.158 315.666,350.825 315.5,357.5C 325.888,357.35 335.888,357.184 345.5,357C 346.31,351.249 346.81,345.416 347,339.5C 348.833,335 352,331.833 356.5,330C 382.5,329.333 408.5,329.333 434.5,330C 439,331.833 442.167,335 444,339.5C 444.19,345.416 444.69,351.249 445.5,357C 453.167,357.667 460.833,357.667 468.5,357C 478.129,334.239 487.629,311.406 497,288.5C 500.887,281.613 506.721,277.447 514.5,276C 571.5,275.333 628.5,275.333 685.5,276C 691.412,277.538 696.245,280.705 700,285.5C 710.171,309.35 720.338,333.184 730.5,357C 760.833,357.333 791.167,357.667 821.5,358C 837.116,361.135 848.116,369.968 854.5,384.5 Z M 673.5,342.5 C 623.833,343.833 574.167,343.833 524.5,342.5C 527.826,334.195 531.159,325.862 534.5,317.5C 577.5,316.167 620.5,316.167 663.5,317.5C 666.841,325.862 670.174,334.195 673.5,342.5 Z M 778.5,396.5 C 797.312,395.811 806.145,404.811 805,423.5C 798.963,438.266 788.463,442.766 773.5,437C 763.823,430.143 760.657,420.976 764,409.5C 767.162,403.164 771.996,398.831 778.5,396.5 Z"/></g>
<g><path style="opacity:1" fill="#3b4146" d="M 524.5,342.5 C 574.167,343.833 623.833,343.833 673.5,342.5C 674.043,342.56 674.376,342.893 674.5,343.5C 624.167,344.833 573.833,344.833 523.5,343.5C 523.624,342.893 523.957,342.56 524.5,342.5 Z"/></g>
<g><path style="opacity:1" fill="#1f2732" d="M 694.5,343.5 C 696.541,343.854 698.374,343.854 700,343.5C 700.448,345.409 699.615,346.576 697.5,347C 698.536,348.617 699.703,348.784 701,347.5C 705.506,348.844 710.006,350.344 714.5,352C 715.764,354.601 717.431,356.934 719.5,359C 718.795,360.422 718.461,361.755 718.5,363C 721.415,364.922 724.415,366.756 727.5,368.5C 725.655,370.536 725.155,372.87 726,375.5C 727.714,376.925 729.047,376.592 730,374.5C 730.333,374.833 730.667,375.167 731,375.5C 731.333,374.5 731.667,373.5 732,372.5C 733.772,375.397 733.772,378.397 732,381.5C 731.517,380.552 731.351,379.552 731.5,378.5C 730.5,378.5 729.5,378.5 728.5,378.5C 728.33,379.822 728.663,380.989 729.5,382C 729,382.5 728.5,383 728,383.5C 726.044,383.216 723.877,383.216 721.5,383.5C 721.565,380.529 720.731,377.862 719,375.5C 718.667,376.167 718.333,376.833 718,377.5C 717.577,376.044 716.744,375.544 715.5,376C 715.018,377.008 714.852,378.175 715,379.5C 714,378.167 713,376.833 712,375.5C 711.751,376.624 711.251,377.624 710.5,378.5C 709.304,378.154 709.304,377.654 710.5,377C 709.845,375.513 708.845,374.347 707.5,373.5C 707.433,375.424 707.1,377.424 706.5,379.5C 705.004,375.665 704.004,375.665 703.5,379.5C 700.03,380.125 697.196,379.125 695,376.5C 695.019,378.107 695.185,379.774 695.5,381.5C 693.571,381.231 691.905,381.731 690.5,383C 693.203,385.02 695.87,386.354 698.5,387C 695.676,387.228 693.343,388.395 691.5,390.5C 695.061,391.761 698.728,392.594 702.5,393C 702.833,393.333 703.167,393.667 703.5,394C 700.721,394.149 700.221,394.983 702,396.5C 702.333,396.167 702.667,395.833 703,395.5C 703.49,396.793 703.657,398.127 703.5,399.5C 701.856,399.286 700.356,399.62 699,400.5C 698.333,401.167 698.333,401.833 699,402.5C 704.626,404.243 704.459,406.243 698.5,408.5C 697.205,407.902 695.872,407.402 694.5,407C 696.455,404.832 697.121,402.498 696.5,400C 694.866,399.506 693.199,399.34 691.5,399.5C 691.36,401.124 692.027,402.29 693.5,403C 691.302,403.373 689.135,403.873 687,404.5C 685.605,404.22 684.438,403.553 683.5,402.5C 684.651,401.269 685.817,401.269 687,402.5C 687.798,400.741 687.631,399.074 686.5,397.5C 685.579,399.756 683.912,400.756 681.5,400.5C 681.349,397.282 680.516,396.949 679,399.5C 678.333,396.833 677.667,396.833 677,399.5C 676.667,398.5 676.333,397.5 676,396.5C 672.908,394.423 670.408,391.756 668.5,388.5C 667.808,389.025 667.308,389.692 667,390.5C 665.148,388.77 665.314,387.604 667.5,387C 666.874,386.25 666.374,385.416 666,384.5C 664.644,385.38 663.144,385.714 661.5,385.5C 661.259,379.418 664.259,376.085 670.5,375.5C 673.036,375.869 674.869,377.203 676,379.5C 677.016,378.366 677.683,378.699 678,380.5C 678.333,380.167 678.667,379.833 679,379.5C 679.667,380.833 680.667,381.833 682,382.5C 685.736,380.365 687.236,377.365 686.5,373.5C 685.41,372.273 684.076,371.44 682.5,371C 684.103,368.461 685.436,365.794 686.5,363C 687.089,361.127 686.422,359.46 684.5,358C 685.347,353.895 686.013,349.728 686.5,345.5C 689.598,345.413 689.932,345.913 687.5,347C 688.967,348.098 689.801,349.598 690,351.5C 691.974,351.374 694.141,351.208 696.5,351C 695.672,350.085 694.672,349.419 693.5,349C 694.458,347.853 694.125,346.853 692.5,346C 693.381,345.292 694.047,344.458 694.5,343.5 Z"/></g>
<g><path style="opacity:1" fill="#1f2731" d="M 165.5,405.5 C 165.5,402.833 165.5,400.167 165.5,397.5C 165.5,396.833 165.5,396.167 165.5,395.5C 166.102,397.68 167.435,399.346 169.5,400.5C 170.799,399.91 171.632,398.91 172,397.5C 173.098,398.967 174.598,399.801 176.5,400C 175.608,403.443 176.442,403.943 179,401.5C 179.293,403.925 180.459,405.758 182.5,407C 176.066,409.173 176.066,411.173 182.5,413C 181.167,413.333 179.833,413.667 178.5,414C 179.543,415.976 180.877,416.476 182.5,415.5C 183.731,416.651 183.731,417.817 182.5,419C 183,419.5 183.5,420 184,420.5C 185.046,418.91 186.213,417.41 187.5,416C 186.692,415.692 186.025,415.192 185.5,414.5C 186.508,411.972 185.842,409.805 183.5,408C 183.667,407.5 183.833,407 184,406.5C 184.914,407.654 185.747,407.487 186.5,406C 185.151,404.365 185.318,402.865 187,401.5C 188.819,403.536 190.653,403.703 192.5,402C 189.176,400.004 185.843,398.004 182.5,396C 183.448,395.517 184.448,395.351 185.5,395.5C 185.67,394.178 185.337,393.011 184.5,392C 185.825,392.148 186.992,391.982 188,391.5C 188.333,392.167 188.667,392.833 189,393.5C 189.199,391.598 190.033,390.098 191.5,389C 190.386,387.43 189.053,386.097 187.5,385C 188.563,383.812 189.897,383.312 191.5,383.5C 191.738,380.594 191.072,378.76 189.5,378C 189.833,377.167 190.167,376.333 190.5,375.5C 196.583,373.798 200.083,369.798 201,363.5C 202.442,367.032 204.275,367.032 206.5,363.5C 207.711,364.274 207.711,365.107 206.5,366C 208.974,368.428 208.474,368.928 205,367.5C 203.77,368.275 203.437,369.275 204,370.5C 205.268,370.384 206.602,370.051 208,369.5C 208.333,370.167 208.667,370.833 209,371.5C 210.352,369.568 212.185,368.234 214.5,367.5C 215.681,369.135 215.681,370.802 214.5,372.5C 215.5,373.167 216.5,373.833 217.5,374.5C 216.088,375.806 214.421,376.64 212.5,377C 213.912,378.791 215.745,379.958 218,380.5C 219.751,379.191 221.251,379.525 222.5,381.5C 223.209,379.042 223.209,376.875 222.5,375C 221.551,374.383 220.718,374.549 220,375.5C 219.268,373.294 219.935,371.628 222,370.5C 223.087,372.932 223.587,372.598 223.5,369.5C 228.833,369.5 234.167,369.5 239.5,369.5C 239.649,368.448 239.483,367.448 239,366.5C 238.346,367.696 237.846,367.696 237.5,366.5C 239.007,365.261 240.174,365.595 241,367.5C 241.49,366.207 241.657,364.873 241.5,363.5C 244.329,363.325 245.996,364.658 246.5,367.5C 249.697,365.575 252.697,365.575 255.5,367.5C 257.872,366.637 257.872,365.471 255.5,364C 256.964,362.136 257.964,359.969 258.5,357.5C 259.731,358.651 259.731,359.817 258.5,361C 260.134,361.494 261.801,361.66 263.5,361.5C 263.5,360.167 263.5,358.833 263.5,357.5C 264.833,357.5 266.167,357.5 267.5,357.5C 267.238,358.978 267.571,360.311 268.5,361.5C 270.003,360.41 270.336,359.243 269.5,358C 273.341,357.653 275.674,359.486 276.5,363.5C 278.016,358.961 277.683,354.628 275.5,350.5C 276.991,349.756 278.491,349.09 280,348.5C 279.562,351.199 279.728,353.865 280.5,356.5C 281.636,354.395 282.636,352.228 283.5,350C 283.406,347.046 282.906,346.879 282,349.5C 281.5,348.333 280.667,347.5 279.5,347C 281.002,346.417 282.335,345.584 283.5,344.5C 282.833,344.167 282.167,343.833 281.5,343.5C 279.666,344.754 277.666,345.421 275.5,345.5C 275.5,344.167 275.5,342.833 275.5,341.5C 276.675,341.719 277.675,341.386 278.5,340.5C 277.625,338.227 275.958,337.227 273.5,337.5C 273.238,336.022 273.571,334.689 274.5,333.5C 277.304,330.038 279.804,330.038 282,333.5C 282.667,332.167 283.333,332.167 284,333.5C 284.419,332.328 285.085,331.328 286,330.5C 287.458,331.747 288.958,331.747 290.5,330.5C 291.242,332.35 292.242,333.016 293.5,332.5C 292.758,333.287 291.925,333.953 291,334.5C 290.373,336.586 290.873,336.919 292.5,335.5C 293.688,336.84 295.188,337.507 297,337.5C 300.347,337.123 303.847,337.123 307.5,337.5C 307.281,338.675 307.614,339.675 308.5,340.5C 310.646,336.897 311.646,337.563 311.5,342.5C 307.491,343.018 306.158,345.185 307.5,349C 305.7,351.688 304.367,354.521 303.5,357.5C 307.527,357.281 308.194,358.448 305.5,361C 306.308,361.308 306.975,361.808 307.5,362.5C 306.359,363.425 306.359,364.259 307.5,365C 306.207,365.49 304.873,365.657 303.5,365.5C 304.717,360.93 303.217,360.263 299,363.5C 298.667,363.167 298.333,362.833 298,362.5C 295.271,365.845 291.937,367.179 288,366.5C 287.436,369.322 286.936,371.822 286.5,374C 287.047,374.925 287.713,375.758 288.5,376.5C 289.396,375.494 290.062,375.494 290.5,376.5C 289.5,377.167 288.5,377.833 287.5,378.5C 288.859,380.306 288.525,381.806 286.5,383C 284.443,383.305 282.443,383.305 280.5,383C 281.047,383.925 281.713,384.758 282.5,385.5C 284.529,384.371 284.863,384.871 283.5,387C 284,387.167 284.5,387.333 285,387.5C 287.137,385.875 288.803,386.208 290,388.5C 290.471,386.754 291.138,385.087 292,383.5C 292.167,384.167 292.333,384.833 292.5,385.5C 292.253,388.779 290.753,389.779 288,388.5C 287.692,389.308 287.192,389.975 286.5,390.5C 285.304,390.154 285.304,389.654 286.5,389C 285.552,388.517 284.552,388.351 283.5,388.5C 284.516,391.051 286.183,393.218 288.5,395C 287.833,395.333 287.167,395.667 286.5,396C 288.041,397.579 289.208,399.413 290,401.5C 290.333,400.833 290.667,400.167 291,399.5C 291.199,401.402 292.033,402.902 293.5,404C 292.092,406.292 292.259,408.459 294,410.5C 293.923,409.262 294.089,408.262 294.5,407.5C 296.614,410.07 298.947,412.403 301.5,414.5C 300.273,415.59 299.44,416.924 299,418.5C 298.259,417.359 297.425,417.359 296.5,418.5C 295.386,417.277 295.219,415.944 296,414.5C 296.914,415.654 297.747,415.487 298.5,414C 295.745,412.828 293.078,411.828 290.5,411C 290.725,413.319 292.058,415.319 294.5,417C 294.043,417.414 293.709,417.914 293.5,418.5C 297.023,419.138 300.356,420.305 303.5,422C 304.293,423.085 304.96,424.252 305.5,425.5C 302.878,426.373 302.878,428.206 305.5,431C 304.234,431.309 303.067,431.809 302,432.5C 301.667,431.833 301.333,431.167 301,430.5C 300,431.833 299,431.833 298,430.5C 297.517,431.448 297.351,432.448 297.5,433.5C 301.126,432.861 302.959,434.194 303,437.5C 302.107,436.289 301.274,436.289 300.5,437.5C 301.376,438.251 302.376,438.751 303.5,439C 303,439.5 302.5,440 302,440.5C 296,439.833 290,439.167 284,438.5C 283.275,439.059 282.442,439.392 281.5,439.5C 278.911,438.303 276.244,437.303 273.5,436.5C 272.371,434.725 271.371,433.058 270.5,431.5C 269.041,433.583 267.708,435.75 266.5,438C 266.833,438.333 267.167,438.667 267.5,439C 266.692,439.308 266.025,439.808 265.5,440.5C 261.857,442.395 259.857,441.395 259.5,437.5C 258.167,437.5 256.833,437.5 255.5,437.5C 255.672,435.508 255.005,433.842 253.5,432.5C 255.26,429.788 255.927,426.788 255.5,423.5C 260.353,423.454 265.02,422.454 269.5,420.5C 270.976,419.12 271.976,417.453 272.5,415.5C 272.154,414.304 271.654,414.304 271,415.5C 269.729,410.246 269.229,404.913 269.5,399.5C 270.833,399.5 272.167,399.5 273.5,399.5C 273.762,398.022 273.429,396.689 272.5,395.5C 269.388,394.649 269.054,393.483 271.5,392C 268.403,392.743 265.403,393.243 262.5,393.5C 261.428,389.944 262.428,386.944 265.5,384.5C 263.178,382.302 261.011,382.636 259,385.5C 258.612,384.572 257.945,383.905 257,383.5C 255.278,383.611 255.112,384.111 256.5,385C 255.239,388.431 252.906,390.598 249.5,391.5C 249.728,389.645 249.061,388.812 247.5,389C 247.741,390.562 247.241,392.062 246,393.5C 245.667,391.5 245.333,389.5 245,387.5C 244.586,387.043 244.086,386.709 243.5,386.5C 243.406,388.239 243.239,390.239 243,392.5C 241.989,391.663 240.822,391.33 239.5,391.5C 239.5,394.167 239.5,396.833 239.5,399.5C 237.857,399.52 236.524,398.853 235.5,397.5C 234.5,398.833 233.5,400.167 232.5,401.5C 231.086,400.376 229.586,399.376 228,398.5C 227.56,400.076 226.727,401.41 225.5,402.5C 223.668,403.248 222.001,404.248 220.5,405.5C 219.262,401.689 218.596,401.689 218.5,405.5C 217.448,405.649 216.448,405.483 215.5,405C 214.167,404.333 214.167,403.667 215.5,403C 214.207,402.51 212.873,402.343 211.5,402.5C 211.649,401.448 211.483,400.448 211,399.5C 210,402.167 209,402.167 208,399.5C 207.202,401.259 207.369,402.926 208.5,404.5C 209.167,404.167 209.833,403.833 210.5,403.5C 211.719,404.646 213.052,405.646 214.5,406.5C 214.291,407.086 213.957,407.586 213.5,408C 214.951,407.737 216.284,407.904 217.5,408.5C 216.067,410.122 214.401,411.455 212.5,412.5C 213.5,413.333 214.5,414.167 215.5,415C 213.873,414.57 212.373,414.404 211,414.5C 209.795,415.071 208.628,415.738 207.5,416.5C 209.332,417.248 210.999,418.248 212.5,419.5C 213.167,418.833 213.833,418.167 214.5,417.5C 217.298,418.953 220.298,419.953 223.5,420.5C 220.628,421.783 217.795,421.783 215,420.5C 214.383,421.449 214.549,422.282 215.5,423C 213.299,423.825 211.466,423.325 210,421.5C 209.1,422.77 207.934,423.77 206.5,424.5C 207.375,426.773 209.042,427.773 211.5,427.5C 211.5,428.833 211.5,430.167 211.5,431.5C 208.956,431.896 206.789,431.229 205,429.5C 204.5,430.5 204,431.5 203.5,432.5C 206.167,433.833 206.167,435.167 203.5,436.5C 204.833,437.167 206.167,437.833 207.5,438.5C 204.769,440.265 202.102,441.932 199.5,443.5C 199.5,442.167 199.5,440.833 199.5,439.5C 198.448,439.351 197.448,439.517 196.5,440C 195.638,442.734 194.805,442.901 194,440.5C 193.092,442.439 191.592,443.439 189.5,443.5C 189.34,445.199 189.506,446.866 190,448.5C 190.654,447.304 191.154,447.304 191.5,448.5C 189.599,449.935 189.266,451.602 190.5,453.5C 191.425,452.359 192.259,452.359 193,453.5C 194.324,450.756 196.491,449.423 199.5,449.5C 199.737,452.212 199.737,454.712 199.5,457C 193.251,458.536 186.917,458.87 180.5,458C 183.976,456.564 184.309,454.564 181.5,452C 182.5,449.787 181.833,447.954 179.5,446.5C 180.855,445.325 180.688,444.325 179,443.5C 177.279,447.466 175.612,447.466 174,443.5C 173.667,444.167 173.333,444.833 173,445.5C 172.61,443.578 171.61,441.578 170,439.5C 169,438.833 168,438.167 167,437.5C 166.83,426.659 166.33,415.992 165.5,405.5 Z"/></g>
<g><path style="opacity:1" fill="#1f2732" d="M 364.5,352.5 C 366.458,356.432 368.292,360.432 370,364.5C 371,363.833 372,363.167 373,362.5C 372.194,367.332 374.194,368.665 379,366.5C 379.359,369.544 380.026,369.878 381,367.5C 381.825,369.701 381.325,371.534 379.5,373C 384.683,375.125 385.683,373.792 382.5,369C 384.547,367.927 386.547,366.761 388.5,365.5C 389.354,366.522 390.354,367.355 391.5,368C 390.549,368.718 390.383,369.551 391,370.5C 394.025,369.209 394.359,369.876 392,372.5C 391.107,371.289 390.274,371.289 389.5,372.5C 391.98,373.415 392.647,374.915 391.5,377C 388.774,377.182 386.107,377.682 383.5,378.5C 386.844,379.757 390.177,379.757 393.5,378.5C 395.664,378.998 397.331,380.164 398.5,382C 395.31,384.569 394.976,387.402 397.5,390.5C 396.86,393.648 395.86,393.981 394.5,391.5C 392.517,393.81 391.517,396.477 391.5,399.5C 389.5,399.5 387.5,399.5 385.5,399.5C 387.145,396.39 386.645,393.724 384,391.5C 383.329,399.231 379.996,400.898 374,396.5C 373.667,397.167 373.333,397.833 373,398.5C 374.322,394.486 372.822,392.986 368.5,394C 371.028,396.075 370.861,396.908 368,396.5C 366.691,398.891 365.691,398.891 365,396.5C 364.333,397.833 363.667,397.833 363,396.5C 362.275,398.158 361.108,398.658 359.5,398C 360.167,397.333 360.833,396.667 361.5,396C 359.564,394.638 358.231,392.805 357.5,390.5C 356.808,391.025 356.308,391.692 356,392.5C 354.644,391.62 353.144,391.286 351.5,391.5C 351.65,388.074 350.484,387.741 348,390.5C 347.517,389.552 347.351,388.552 347.5,387.5C 342.762,386.917 340.928,384.25 342,379.5C 343.617,380.536 343.784,381.703 342.5,383C 344.074,383.699 345.407,383.365 346.5,382C 345.374,379.232 345.374,376.399 346.5,373.5C 349.288,380.105 350.288,380.105 349.5,373.5C 350.833,373.5 352.167,373.5 353.5,373.5C 353.5,374.833 353.5,376.167 353.5,377.5C 355.124,377.64 356.29,376.973 357,375.5C 357.333,376.833 357.667,378.167 358,379.5C 358.741,378.359 359.575,378.359 360.5,379.5C 360.833,378.833 361.167,378.167 361.5,377.5C 359.393,375.513 359.226,373.513 361,371.5C 361.333,372.167 361.667,372.833 362,373.5C 362.71,372.027 363.876,371.36 365.5,371.5C 365.238,372.978 365.571,374.311 366.5,375.5C 367.833,374.167 369.167,374.167 370.5,375.5C 371.48,372.914 371.813,370.247 371.5,367.5C 369.508,367.672 367.842,367.005 366.5,365.5C 365.833,366.167 365.167,366.833 364.5,367.5C 363.167,366.167 361.833,364.833 360.5,363.5C 359.522,363.977 358.689,364.643 358,365.5C 357.355,364.354 356.522,363.354 355.5,362.5C 358.116,361.921 358.116,360.421 355.5,358C 356.5,357.667 357.5,357.333 358.5,357C 357.304,356.346 357.304,355.846 358.5,355.5C 359.167,356.167 359.833,356.833 360.5,357.5C 362.237,356.103 363.571,354.436 364.5,352.5 Z"/></g>
<g><path style="opacity:1" fill="#1f2731" d="M 854.5,384.5 C 856.524,388.577 857.524,392.91 857.5,397.5C 857.5,418.167 857.5,438.833 857.5,459.5C 843.167,459.5 828.833,459.5 814.5,459.5C 815.067,457.97 815.733,456.47 816.5,455C 816.167,454.667 815.833,454.333 815.5,454C 817.778,453.014 820.111,452.18 822.5,451.5C 826.321,452.431 830.154,451.431 834,448.5C 834.333,448.833 834.667,449.167 835,449.5C 835.667,446.833 836.333,446.833 837,449.5C 837.72,447.888 837.554,446.388 836.5,445C 837.849,444.228 838.682,443.061 839,441.5C 839.414,441.957 839.914,442.291 840.5,442.5C 841.354,441.478 842.354,440.645 843.5,440C 839.514,439.501 835.514,439.334 831.5,439.5C 831.551,437.43 830.885,435.597 829.5,434C 831.141,432.354 830.807,431.354 828.5,431C 830.332,430.252 831.999,429.252 833.5,428C 830.936,426.519 830.936,425.019 833.5,423.5C 834.852,424.518 835.852,425.851 836.5,427.5C 837.938,425.002 837.604,422.836 835.5,421C 836.167,420.667 836.833,420.333 837.5,420C 834.833,419.333 834.833,418.667 837.5,418C 836.549,417.282 836.383,416.449 837,415.5C 838.629,416.565 839.796,417.899 840.5,419.5C 840.766,416.899 840.766,414.399 840.5,412C 839.887,409.853 839.221,407.686 838.5,405.5C 837.719,406.729 837.219,408.062 837,409.5C 836.5,409 836,408.5 835.5,408C 836.711,406.887 836.711,405.72 835.5,404.5C 834.147,403.315 832.98,401.981 832,400.5C 831.851,403.279 831.017,403.779 829.5,402C 830.833,401.333 830.833,400.667 829.5,400C 830.833,399.333 832.167,398.667 833.5,398C 832.5,397.667 831.5,397.333 830.5,397C 832.433,396.749 834.266,396.249 836,395.5C 836.167,395.167 836.333,394.833 836.5,394.5C 835.624,393.749 834.624,393.249 833.5,393C 834.167,392.667 834.833,392.333 835.5,392C 832.582,391.284 829.915,391.784 827.5,393.5C 825.912,392.99 824.745,391.99 824,390.5C 823.667,390.833 823.333,391.167 823,391.5C 823.376,386.651 821.709,386.317 818,390.5C 817.5,389.333 816.667,388.5 815.5,388C 816.87,386.559 817.87,384.892 818.5,383C 817.66,381.334 818.16,381.167 820,382.5C 824.164,380.353 823.664,378.687 818.5,377.5C 818.238,376.022 818.571,374.689 819.5,373.5C 821.517,372.826 823.183,371.659 824.5,370C 822.099,369.195 822.266,368.362 825,367.5C 828.652,371.3 831.486,374.967 833.5,378.5C 831.009,379.541 831.009,380.374 833.5,381C 831.915,381.085 830.582,381.251 829.5,381.5C 830.734,383.398 830.401,385.065 828.5,386.5C 829.035,388.271 829.869,388.604 831,387.5C 834,388.833 837,390.167 840,391.5C 840.218,388.574 840.718,385.74 841.5,383C 841.167,382.667 840.833,382.333 840.5,382C 842.887,380.315 845.387,378.815 848,377.5C 849.275,379.717 850.275,382.051 851,384.5C 851.986,385.171 853.153,385.171 854.5,384.5 Z"/></g>
<g><path style="opacity:1" fill="#393f45" d="M 165.5,397.5 C 165.5,400.167 165.5,402.833 165.5,405.5C 165.5,423.5 165.5,441.5 165.5,459.5C 267.833,459.5 370.167,459.5 472.5,459.5C 370.001,460.499 267.335,460.833 164.5,460.5C 164.169,439.327 164.503,418.327 165.5,397.5 Z"/></g>
<g><path style="opacity:1" fill="#3e444b" d="M 857.5,397.5 C 858.497,418.327 858.831,439.327 858.5,460.5C 811.33,460.832 764.33,460.499 717.5,459.5C 749.833,459.5 782.167,459.5 814.5,459.5C 828.833,459.5 843.167,459.5 857.5,459.5C 857.5,438.833 857.5,418.167 857.5,397.5 Z"/></g>
<g><path style="opacity:1" fill="#1f2832" d="M 201.5,485.5 C 206.666,487.141 211.999,487.474 217.5,486.5C 217.351,487.552 217.517,488.552 218,489.5C 218.667,488.167 219.667,487.167 221,486.5C 230.417,487.485 239.917,487.818 249.5,487.5C 250.149,493.588 252.149,494.422 255.5,490C 249.696,489.117 249.362,487.95 254.5,486.5C 256.481,486.437 258.148,487.104 259.5,488.5C 260.949,487.383 262.616,486.716 264.5,486.5C 280.89,486.523 297.557,486.523 314.5,486.5C 314.5,569.833 314.5,653.167 314.5,736.5C 277.996,736.168 241.663,736.502 205.5,737.5C 181.992,733.659 168.658,719.993 165.5,696.5C 165.5,626.167 165.5,555.833 165.5,485.5C 177.5,485.5 189.5,485.5 201.5,485.5 Z"/></g>
<g><path style="opacity:1" fill="#1f2832" d="M 455.5,485.5 C 436.112,525.651 433.278,566.984 447,609.5C 468.243,661.744 506.077,695.244 560.5,710C 626.89,721.988 680.723,701.488 722,648.5C 728.524,639.456 734.024,629.79 738.5,619.5C 739.552,619.351 740.552,619.517 741.5,620C 740.359,620.741 740.359,621.575 741.5,622.5C 740.687,623.814 739.687,624.981 738.5,626C 740.293,627.78 741.96,629.613 743.5,631.5C 746.028,630.483 746.028,629.316 743.5,628C 744.646,627.355 745.646,626.522 746.5,625.5C 747.281,626.729 747.781,628.062 748,629.5C 752.893,625.493 752.393,623.659 746.5,624C 748.679,622.743 750.679,621.243 752.5,619.5C 753.316,621.287 754.316,622.954 755.5,624.5C 755.291,625.086 754.957,625.586 754.5,626C 755.728,626.779 756.728,627.779 757.5,629C 756.02,628.942 755.187,630.109 755,632.5C 753.817,631.269 752.651,631.269 751.5,632.5C 749.984,634.391 748.65,636.391 747.5,638.5C 750.318,639.88 752.985,639.713 755.5,638C 753.963,636.89 753.297,635.39 753.5,633.5C 755.124,633.64 756.29,632.973 757,631.5C 757.308,632.308 757.808,632.975 758.5,633.5C 758.564,632.635 758.897,631.635 759.5,630.5C 760.689,629.571 762.022,629.238 763.5,629.5C 763.672,631.492 763.005,633.158 761.5,634.5C 762.833,635.167 764.167,635.833 765.5,636.5C 764.975,637.192 764.308,637.692 763.5,638C 765.724,640.149 767.224,639.649 768,636.5C 770.036,641.179 769.869,645.846 767.5,650.5C 768.9,652.075 769.733,653.741 770,655.5C 772.257,654.289 774.424,652.956 776.5,651.5C 777.734,649.602 777.401,647.935 775.5,646.5C 777.959,644.95 778.626,642.95 777.5,640.5C 779.396,639.534 781.396,639.201 783.5,639.5C 783.5,641.5 783.5,643.5 783.5,645.5C 782.167,645.5 780.833,645.5 779.5,645.5C 779.325,649.738 779.825,653.738 781,657.5C 778.092,659.025 774.926,660.025 771.5,660.5C 770.478,661.354 769.645,662.354 769,663.5C 766.977,661.987 767.144,660.654 769.5,659.5C 768.975,658.808 768.308,658.308 767.5,658C 763.562,658.69 759.562,659.023 755.5,659C 753.693,658.072 752.026,656.906 750.5,655.5C 749.833,656.167 749.167,656.833 748.5,657.5C 747.833,660.167 747.167,662.833 746.5,665.5C 745.3,666.531 743.966,667.365 742.5,668C 744.301,668.317 744.634,668.984 743.5,670C 745.109,672.382 746.776,674.716 748.5,677C 744.869,678.963 745.202,680.463 749.5,681.5C 749.67,682.822 749.337,683.989 748.5,685C 749.449,685.617 750.282,685.451 751,684.5C 750.852,683.175 751.018,682.008 751.5,681C 750.167,680.667 748.833,680.333 747.5,680C 749.392,679.027 751.392,678.36 753.5,678C 749.551,677.193 749.551,676.693 753.5,676.5C 753.5,675.5 753.5,674.5 753.5,673.5C 754.873,673.343 756.207,673.51 757.5,674C 756.978,674.561 756.645,675.228 756.5,676C 759.705,677.688 760.039,679.688 757.5,682C 760.238,683.174 762.238,685.007 763.5,687.5C 763.5,688.833 763.5,690.167 763.5,691.5C 760.833,691.5 758.167,691.5 755.5,691.5C 755.5,690.5 755.5,689.5 755.5,688.5C 754.167,688.5 752.833,688.5 751.5,688.5C 751.374,690.2 750.707,691.7 749.5,693C 749.905,693.945 750.572,694.612 751.5,695C 749.771,696.789 749.104,698.956 749.5,701.5C 751.467,701.261 753.301,701.594 755,702.5C 756.852,700.77 756.686,699.604 754.5,699C 754.835,697.497 754.835,696.164 754.5,695C 756.167,694.333 757.833,694.333 759.5,695C 761.167,696 762.833,697 764.5,698C 763.657,699.787 763.49,701.62 764,703.5C 763.311,702.643 762.478,701.977 761.5,701.5C 761.511,702.441 761.011,703.108 760,703.5C 759.228,703.355 758.561,703.022 758,702.5C 757.581,703.672 756.915,704.672 756,705.5C 754.477,703.38 752.644,703.047 750.5,704.5C 750.167,706.667 749.833,708.833 749.5,711C 749.581,713.625 750.248,715.959 751.5,718C 750.421,718.956 749.255,719.789 748,720.5C 747,719.167 746,719.167 745,720.5C 740.757,720.001 738.257,717.668 737.5,713.5C 738.833,713.5 740.167,713.5 741.5,713.5C 741.457,710.912 740.457,708.746 738.5,707C 740.605,705.807 742.272,704.14 743.5,702C 743.038,699.873 743.038,697.54 743.5,695C 743.333,693.167 743.167,691.333 743,689.5C 741.159,687.841 739.992,685.841 739.5,683.5C 738.167,683.5 736.833,683.5 735.5,683.5C 733.961,685.605 732.794,688.605 732,692.5C 730.658,691.098 729.824,691.431 729.5,693.5C 729.833,694.167 730.167,694.833 730.5,695.5C 731.989,695.533 733.322,696.033 734.5,697C 733.5,697.833 732.5,698.667 731.5,699.5C 732.5,700.333 733.5,701.167 734.5,702C 733.167,703 733.167,704 734.5,705C 732.219,706.482 732.219,708.149 734.5,710C 733.241,710.982 731.908,711.315 730.5,711C 731.097,709.111 731.431,707.278 731.5,705.5C 730.613,704.921 729.446,704.921 728,705.5C 727.167,705.833 726.333,706.167 725.5,706.5C 725.82,708.578 726.82,710.744 728.5,713C 727.552,713.483 726.552,713.649 725.5,713.5C 725.119,718.088 723.953,718.422 722,714.5C 721.667,715.833 721.333,717.167 721,718.5C 720.333,716.5 719.667,714.5 719,712.5C 717.657,716.361 716.157,716.361 714.5,712.5C 713.522,712.977 712.689,713.643 712,714.5C 711.667,713.833 711.333,713.167 711,712.5C 707.667,712.5 704.333,712.5 701,712.5C 700.333,715.167 699.667,715.167 699,712.5C 698.333,713.833 697.667,713.833 697,712.5C 694.577,713.786 693.077,715.286 692.5,717C 693.328,717.915 694.328,718.581 695.5,719C 694.5,719.333 693.5,719.667 692.5,720C 691.892,722.184 692.559,724.184 694.5,726C 693.929,727.205 693.262,728.372 692.5,729.5C 692.335,726.52 691.669,723.354 690.5,720C 690.833,719.667 691.167,719.333 691.5,719C 690.5,718.333 689.5,718.333 688.5,719C 689.097,720.889 689.431,722.722 689.5,724.5C 689.062,725.506 688.396,725.506 687.5,724.5C 686.719,725.729 686.219,727.062 686,728.5C 684.951,729.517 683.784,729.684 682.5,729C 683.687,727.981 684.687,726.814 685.5,725.5C 684.273,724.41 683.44,723.076 683,721.5C 682.333,722.167 681.667,722.833 681,723.5C 679.388,719.534 677.721,719.534 676,723.5C 675.517,722.552 675.351,721.552 675.5,720.5C 673.073,720.523 670.74,721.023 668.5,722C 668.833,722.333 669.167,722.667 669.5,723C 667.77,724.852 666.604,724.686 666,722.5C 665.517,723.448 665.351,724.448 665.5,725.5C 664.448,725.649 663.448,725.483 662.5,725C 663.517,723.951 663.684,722.784 663,721.5C 662.077,722.759 661.243,724.092 660.5,725.5C 657.539,724.817 657.205,723.984 659.5,723C 658.584,722.626 657.75,722.126 657,721.5C 655.287,723.193 653.287,724.526 651,725.5C 645.708,725.106 645.208,726.773 649.5,730.5C 648.675,731.386 647.675,731.719 646.5,731.5C 646.5,730.5 646.5,729.5 646.5,728.5C 645.5,728.5 644.5,728.5 643.5,728.5C 643.719,727.325 643.386,726.325 642.5,725.5C 641.784,727.482 640.617,729.149 639,730.5C 637.734,728.804 637.9,726.971 639.5,725C 639,724.5 638.5,724 638,723.5C 637.581,724.672 636.915,725.672 636,726.5C 634.817,725.269 633.651,725.269 632.5,726.5C 633.325,727.386 634.325,727.719 635.5,727.5C 635.657,728.873 635.49,730.207 635,731.5C 633.187,730.391 632.354,731.058 632.5,733.5C 629.07,733.893 625.904,733.227 623,731.5C 621.812,732.563 621.312,733.897 621.5,735.5C 623.099,735.232 624.432,735.566 625.5,736.5C 531.167,736.5 436.833,736.5 342.5,736.5C 342.829,722.323 342.496,708.323 341.5,694.5C 341.5,624.833 341.5,555.167 341.5,485.5C 379.5,485.5 417.5,485.5 455.5,485.5 Z"/></g>
<g><path style="opacity:1" fill="#202932" d="M 857.5,485.5 C 858.167,520.332 858.5,555.332 858.5,590.5C 858.644,627.861 858.144,665.195 857,702.5C 851.198,723.656 837.365,735.322 815.5,737.5C 752.336,736.501 689.002,736.168 625.5,736.5C 624.432,735.566 623.099,735.232 621.5,735.5C 621.312,733.897 621.812,732.563 623,731.5C 625.904,733.227 629.07,733.893 632.5,733.5C 632.354,731.058 633.187,730.391 635,731.5C 635.49,730.207 635.657,728.873 635.5,727.5C 634.325,727.719 633.325,727.386 632.5,726.5C 633.651,725.269 634.817,725.269 636,726.5C 636.915,725.672 637.581,724.672 638,723.5C 638.5,724 639,724.5 639.5,725C 637.9,726.971 637.734,728.804 639,730.5C 640.617,729.149 641.784,727.482 642.5,725.5C 643.386,726.325 643.719,727.325 643.5,728.5C 644.5,728.5 645.5,728.5 646.5,728.5C 646.5,729.5 646.5,730.5 646.5,731.5C 647.675,731.719 648.675,731.386 649.5,730.5C 645.208,726.773 645.708,725.106 651,725.5C 653.287,724.526 655.287,723.193 657,721.5C 657.75,722.126 658.584,722.626 659.5,723C 657.205,723.984 657.539,724.817 660.5,725.5C 661.243,724.092 662.077,722.759 663,721.5C 663.684,722.784 663.517,723.951 662.5,725C 663.448,725.483 664.448,725.649 665.5,725.5C 665.351,724.448 665.517,723.448 666,722.5C 666.604,724.686 667.77,724.852 669.5,723C 669.167,722.667 668.833,722.333 668.5,722C 670.74,721.023 673.073,720.523 675.5,720.5C 675.351,721.552 675.517,722.552 676,723.5C 677.721,719.534 679.388,719.534 681,723.5C 681.667,722.833 682.333,722.167 683,721.5C 683.44,723.076 684.273,724.41 685.5,725.5C 684.687,726.814 683.687,727.981 682.5,729C 683.784,729.684 684.951,729.517 686,728.5C 686.219,727.062 686.719,725.729 687.5,724.5C 688.396,725.506 689.062,725.506 689.5,724.5C 689.431,722.722 689.097,720.889 688.5,719C 689.5,718.333 690.5,718.333 691.5,719C 691.167,719.333 690.833,719.667 690.5,720C 691.669,723.354 692.335,726.52 692.5,729.5C 693.262,728.372 693.929,727.205 694.5,726C 692.559,724.184 691.892,722.184 692.5,720C 693.5,719.667 694.5,719.333 695.5,719C 694.328,718.581 693.328,717.915 692.5,717C 693.077,715.286 694.577,713.786 697,712.5C 697.667,713.833 698.333,713.833 699,712.5C 699.667,715.167 700.333,715.167 701,712.5C 704.333,712.5 707.667,712.5 711,712.5C 711.333,713.167 711.667,713.833 712,714.5C 712.689,713.643 713.522,712.977 714.5,712.5C 716.157,716.361 717.657,716.361 719,712.5C 719.667,714.5 720.333,716.5 721,718.5C 721.333,717.167 721.667,715.833 722,714.5C 723.953,718.422 725.119,718.088 725.5,713.5C 726.552,713.649 727.552,713.483 728.5,713C 726.82,710.744 725.82,708.578 725.5,706.5C 726.333,706.167 727.167,705.833 728,705.5C 729.446,704.921 730.613,704.921 731.5,705.5C 731.431,707.278 731.097,709.111 730.5,711C 731.908,711.315 733.241,710.982 734.5,710C 732.219,708.149 732.219,706.482 734.5,705C 733.167,704 733.167,703 734.5,702C 733.5,701.167 732.5,700.333 731.5,699.5C 732.5,698.667 733.5,697.833 734.5,697C 733.322,696.033 731.989,695.533 730.5,695.5C 730.167,694.833 729.833,694.167 729.5,693.5C 729.824,691.431 730.658,691.098 732,692.5C 732.794,688.605 733.961,685.605 735.5,683.5C 736.833,683.5 738.167,683.5 739.5,683.5C 739.992,685.841 741.159,687.841 743,689.5C 743.167,691.333 743.333,693.167 743.5,695C 743.038,697.54 743.038,699.873 743.5,702C 742.272,704.14 740.605,705.807 738.5,707C 740.457,708.746 741.457,710.912 741.5,713.5C 740.167,713.5 738.833,713.5 737.5,713.5C 738.257,717.668 740.757,720.001 745,720.5C 746,719.167 747,719.167 748,720.5C 749.255,719.789 750.421,718.956 751.5,718C 750.248,715.959 749.581,713.625 749.5,711C 749.833,708.833 750.167,706.667 750.5,704.5C 752.644,703.047 754.477,703.38 756,705.5C 756.915,704.672 757.581,703.672 758,702.5C 758.561,703.022 759.228,703.355 760,703.5C 761.011,703.108 761.511,702.441 761.5,701.5C 762.478,701.977 763.311,702.643 764,703.5C 763.49,701.62 763.657,699.787 764.5,698C 762.833,697 761.167,696 759.5,695C 757.833,694.333 756.167,694.333 754.5,695C 754.835,696.164 754.835,697.497 754.5,699C 756.686,699.604 756.852,700.77 755,702.5C 753.301,701.594 751.467,701.261 749.5,701.5C 749.104,698.956 749.771,696.789 751.5,695C 750.572,694.612 749.905,693.945 749.5,693C 750.707,691.7 751.374,690.2 751.5,688.5C 752.833,688.5 754.167,688.5 755.5,688.5C 755.5,689.5 755.5,690.5 755.5,691.5C 758.167,691.5 760.833,691.5 763.5,691.5C 763.5,690.167 763.5,688.833 763.5,687.5C 765.185,686.816 766.185,685.483 766.5,683.5C 765.408,682.169 764.074,681.336 762.5,681C 763.685,679.647 765.019,678.48 766.5,677.5C 765.624,676.749 764.624,676.249 763.5,676C 765.632,675.082 766.299,673.749 765.5,672C 766.742,671.689 767.742,672.189 768.5,673.5C 769.541,671.009 770.374,671.009 771,673.5C 771.308,672.692 771.808,672.025 772.5,671.5C 774.577,673.076 776.077,675.076 777,677.5C 778.349,675.066 780.182,674.232 782.5,675C 783.337,673.989 783.67,672.822 783.5,671.5C 787.499,671.909 791.166,671.075 794.5,669C 795.154,666.344 796.321,663.844 798,661.5C 799.61,663.531 801.443,663.531 803.5,661.5C 805.029,661.529 806.196,662.196 807,663.5C 807.617,662.551 807.451,661.718 806.5,661C 807.167,660.667 807.833,660.333 808.5,660C 807.167,659.333 807.167,658.667 808.5,658C 807.833,657.667 807.167,657.333 806.5,657C 808.034,654.034 809.2,650.867 810,647.5C 811,646.833 812,646.167 813,645.5C 813.903,646.701 815.069,647.535 816.5,648C 811.55,648.531 810.716,650.364 814,653.5C 814.991,652.061 816.324,651.061 818,650.5C 817.743,653.376 818.743,656.043 821,658.5C 822.113,657.289 823.28,657.289 824.5,658.5C 825.739,656.993 825.405,655.826 823.5,655C 826.154,653.593 828.821,653.093 831.5,653.5C 831.291,652.914 830.957,652.414 830.5,652C 832.056,650.401 833.723,648.901 835.5,647.5C 834.311,646.571 832.978,646.238 831.5,646.5C 831.731,643.355 832.231,640.355 833,637.5C 832.667,638.167 832.333,638.833 832,639.5C 829.699,639.301 827.533,638.801 825.5,638C 828.307,635.73 831.307,634.73 834.5,635C 835.451,634.282 835.617,633.449 835,632.5C 832.942,631.891 832.109,630.891 832.5,629.5C 831.813,631.555 830.646,633.221 829,634.5C 827.109,631.608 824.609,629.441 821.5,628C 822.253,626.513 823.086,626.346 824,627.5C 823.737,626.049 823.904,624.716 824.5,623.5C 825.192,624.025 825.692,624.692 826,625.5C 827.066,623.901 828.566,622.901 830.5,622.5C 832.737,622.694 834.903,622.694 837,622.5C 838.197,624.883 839.03,624.55 839.5,621.5C 839.167,620.833 838.833,620.167 838.5,619.5C 836.902,620.485 835.235,620.651 833.5,620C 836.939,618.86 837.106,617.027 834,614.5C 833.751,615.624 833.251,616.624 832.5,617.5C 829.23,614.562 828.897,611.395 831.5,608C 829.035,608.565 826.702,609.732 824.5,611.5C 823.369,613.074 823.202,614.741 824,616.5C 824.333,616.167 824.667,615.833 825,615.5C 825.309,616.766 825.809,617.933 826.5,619C 825.333,619.5 824.5,620.333 824,621.5C 823.647,619.926 822.98,618.259 822,616.5C 820.703,617.784 819.536,617.617 818.5,616C 819.747,614.506 819.747,613.006 818.5,611.5C 816.999,610.248 815.332,609.248 813.5,608.5C 815.709,607.937 817.209,606.604 818,604.5C 819.845,607.184 821.012,606.851 821.5,603.5C 820.696,601.864 819.696,600.364 818.5,599C 818.14,596.29 818.806,593.624 820.5,591C 819.683,589.51 818.85,588.01 818,586.5C 817.581,587.672 816.915,588.672 816,589.5C 814.068,587.432 812.068,585.432 810,583.5C 809.667,584.833 809.333,586.167 809,587.5C 808,585.167 807,582.833 806,580.5C 805.751,581.624 805.251,582.624 804.5,583.5C 803.867,579.752 802.2,576.585 799.5,574C 799.694,572.097 799.694,570.263 799.5,568.5C 795.481,563.862 791.314,563.529 787,567.5C 786.333,564.833 785.667,564.833 785,567.5C 784.71,565.956 784.044,564.623 783,563.5C 782.667,563.833 782.333,564.167 782,564.5C 780.933,563.809 779.766,563.309 778.5,563C 779.448,562.517 780.448,562.351 781.5,562.5C 781.34,560.801 781.506,559.134 782,557.5C 783.77,560.849 786.27,561.849 789.5,560.5C 789.207,556.563 789.54,552.73 790.5,549C 789.929,547.795 789.262,546.628 788.5,545.5C 787.97,546.756 787.97,548.256 788.5,550C 787.929,551.205 787.262,552.372 786.5,553.5C 785.833,551.833 785.167,550.167 784.5,548.5C 784.26,549.837 783.76,551.503 783,553.5C 782.244,550.208 780.411,549.208 777.5,550.5C 778.52,552.432 778.687,554.432 778,556.5C 777.667,555.5 777.333,554.5 777,553.5C 776.259,554.641 775.425,554.641 774.5,553.5C 774.002,554.603 773.669,555.603 773.5,556.5C 772.5,556 771.5,555.5 770.5,555C 770.833,554 771.167,553 771.5,552C 770.322,551.033 768.989,550.533 767.5,550.5C 768.025,549.808 768.692,549.308 769.5,549C 769.306,547.57 769.306,546.07 769.5,544.5C 767.029,542.929 764.363,541.929 761.5,541.5C 760.444,538.388 759.111,535.388 757.5,532.5C 757.709,531.914 758.043,531.414 758.5,531C 755.075,527.148 753.075,527.814 752.5,533C 753.573,534.25 753.573,535.584 752.5,537C 755.39,538.892 755.056,539.725 751.5,539.5C 751.5,541.833 751.5,544.167 751.5,546.5C 749.746,525.216 744.079,504.882 734.5,485.5C 775.665,484.169 816.665,484.169 857.5,485.5 Z"/></g>
<g><path style="opacity:1" fill="#1e2631" d="M 857.5,485.5 C 857.5,490.833 857.5,496.167 857.5,501.5C 855.488,500.986 853.488,500.82 851.5,501C 852.428,501.388 853.095,502.055 853.5,503C 852.233,504.667 850.733,506.167 849,507.5C 848.667,507.167 848.333,506.833 848,506.5C 848.661,508.035 848.994,509.702 849,511.5C 848.311,510.643 847.478,509.977 846.5,509.5C 845.82,513.666 843.82,514.833 840.5,513C 840.833,512.667 841.167,512.333 841.5,512C 840.207,511.51 838.873,511.343 837.5,511.5C 837.5,512.833 837.5,514.167 837.5,515.5C 840.346,514.905 843.346,514.905 846.5,515.5C 846.401,518.63 845.234,521.296 843,523.5C 842.46,521.865 842.96,520.532 844.5,519.5C 844.167,519.167 843.833,518.833 843.5,518.5C 842.28,519.711 841.113,519.711 840,518.5C 839.517,519.448 839.351,520.448 839.5,521.5C 837.064,521.317 834.897,521.984 833,523.5C 831.732,523.384 830.398,523.051 829,522.5C 829.409,524.225 829.242,525.892 828.5,527.5C 827.808,526.975 827.308,526.308 827,525.5C 826.667,525.833 826.333,526.167 826,526.5C 826.035,522.755 825.035,522.088 823,524.5C 822.692,523.692 822.192,523.025 821.5,522.5C 820.28,523.711 819.113,523.711 818,522.5C 816.795,523.071 815.628,523.738 814.5,524.5C 815.59,525.609 815.59,526.609 814.5,527.5C 813.251,525.525 811.751,525.191 810,526.5C 808.888,522.11 810.388,520.776 814.5,522.5C 815.833,521.167 815.833,519.833 814.5,518.5C 812.018,519.269 810.185,518.269 809,515.5C 805.554,517.39 805.721,518.89 809.5,520C 808.437,521.188 807.103,521.688 805.5,521.5C 805.5,520.167 805.5,518.833 805.5,517.5C 804.07,517.579 802.736,517.246 801.5,516.5C 801.331,517.397 800.998,518.397 800.5,519.5C 798.007,517.648 795.341,516.481 792.5,516C 793.167,516.333 793.833,516.667 794.5,517C 792.081,518.93 790.414,518.597 789.5,516C 788.007,514.632 786.507,514.465 785,515.5C 782.772,512.194 779.606,510.694 775.5,511C 773.667,510.5 772.5,509.333 772,507.5C 770.598,509.973 769.098,509.973 767.5,507.5C 769.641,506.147 771.974,504.314 774.5,502C 772.905,502.617 771.572,502.284 770.5,501C 771,500.5 771.5,500 772,499.5C 773,499.833 774,500.167 775,500.5C 780.197,495.622 783.364,496.622 784.5,503.5C 786.523,501.827 788.856,501.16 791.5,501.5C 791.279,497.205 792.612,496.538 795.5,499.5C 796.647,499.182 797.481,498.516 798,497.5C 798.88,499.739 800.38,501.405 802.5,502.5C 803.386,501.675 803.719,500.675 803.5,499.5C 806.205,499.38 806.872,500.38 805.5,502.5C 803.833,503.167 802.167,503.833 800.5,504.5C 801.061,506.426 801.227,508.426 801,510.5C 801.333,509.833 801.667,509.167 802,508.5C 802.833,509.5 803.667,510.5 804.5,511.5C 805.734,509.602 805.401,507.935 803.5,506.5C 804.651,505.269 805.817,505.269 807,506.5C 807.333,505.167 807.667,503.833 808,502.5C 810.381,503.435 812.881,503.768 815.5,503.5C 815.147,501.365 815.98,500.032 818,499.5C 819.587,500.67 821.253,501.67 823,502.5C 823.483,503.448 823.649,504.448 823.5,505.5C 826.43,506.578 829.43,507.078 832.5,507C 831.216,505.703 831.383,504.536 833,503.5C 833.219,504.938 833.719,506.271 834.5,507.5C 835.833,499.5 837.167,499.5 838.5,507.5C 839.802,505.554 840.469,503.721 840.5,502C 839.833,500.667 838.833,499.667 837.5,499C 838.5,498.333 839.5,498.333 840.5,499C 841.11,500.947 841.943,502.781 843,504.5C 843.202,502.744 843.702,501.078 844.5,499.5C 847.338,502.106 849.671,501.606 851.5,498C 849.015,494.998 848.848,491.831 851,488.5C 853.398,488.958 855.064,490.292 856,492.5C 856.495,490.527 856.662,488.527 856.5,486.5C 852.97,485.989 849.804,486.656 847,488.5C 846.261,487.426 845.261,486.759 844,486.5C 829.967,486.297 815.967,486.63 802,487.5C 800.189,486.922 798.355,486.422 796.5,486C 816.831,485.5 837.164,485.333 857.5,485.5 Z"/></g>
<g><path style="opacity:1" fill="#4f555b" d="M 315.5,485.5 C 277.5,485.5 239.5,485.5 201.5,485.5C 189.5,485.5 177.5,485.5 165.5,485.5C 165.5,555.833 165.5,626.167 165.5,696.5C 164.501,626.002 164.167,555.335 164.5,484.5C 215.003,484.168 265.336,484.501 315.5,485.5 Z"/></g>
<g><path style="opacity:1" fill="#1f2731" d="M 763.5,687.5 C 762.238,685.007 760.238,683.174 757.5,682C 760.039,679.688 759.705,677.688 756.5,676C 756.645,675.228 756.978,674.561 757.5,674C 756.207,673.51 754.873,673.343 753.5,673.5C 753.5,674.5 753.5,675.5 753.5,676.5C 749.551,676.693 749.551,677.193 753.5,678C 751.392,678.36 749.392,679.027 747.5,680C 748.833,680.333 750.167,680.667 751.5,681C 751.018,682.008 750.852,683.175 751,684.5C 750.282,685.451 749.449,685.617 748.5,685C 749.337,683.989 749.67,682.822 749.5,681.5C 745.202,680.463 744.869,678.963 748.5,677C 746.776,674.716 745.109,672.382 743.5,670C 744.634,668.984 744.301,668.317 742.5,668C 743.966,667.365 745.3,666.531 746.5,665.5C 747.167,662.833 747.833,660.167 748.5,657.5C 749.167,656.833 749.833,656.167 750.5,655.5C 752.026,656.906 753.693,658.072 755.5,659C 759.562,659.023 763.562,658.69 767.5,658C 768.308,658.308 768.975,658.808 769.5,659.5C 767.144,660.654 766.977,661.987 769,663.5C 769.645,662.354 770.478,661.354 771.5,660.5C 774.926,660.025 778.092,659.025 781,657.5C 779.825,653.738 779.325,649.738 779.5,645.5C 780.833,645.5 782.167,645.5 783.5,645.5C 783.5,643.5 783.5,641.5 783.5,639.5C 781.396,639.201 779.396,639.534 777.5,640.5C 778.626,642.95 777.959,644.95 775.5,646.5C 777.401,647.935 777.734,649.602 776.5,651.5C 774.424,652.956 772.257,654.289 770,655.5C 769.733,653.741 768.9,652.075 767.5,650.5C 769.869,645.846 770.036,641.179 768,636.5C 767.224,639.649 765.724,640.149 763.5,638C 764.308,637.692 764.975,637.192 765.5,636.5C 764.167,635.833 762.833,635.167 761.5,634.5C 763.005,633.158 763.672,631.492 763.5,629.5C 762.022,629.238 760.689,629.571 759.5,630.5C 758.897,631.635 758.564,632.635 758.5,633.5C 757.808,632.975 757.308,632.308 757,631.5C 756.29,632.973 755.124,633.64 753.5,633.5C 753.297,635.39 753.963,636.89 755.5,638C 752.985,639.713 750.318,639.88 747.5,638.5C 748.65,636.391 749.984,634.391 751.5,632.5C 752.651,631.269 753.817,631.269 755,632.5C 755.187,630.109 756.02,628.942 757.5,629C 756.728,627.779 755.728,626.779 754.5,626C 754.957,625.586 755.291,625.086 755.5,624.5C 754.316,622.954 753.316,621.287 752.5,619.5C 750.679,621.243 748.679,622.743 746.5,624C 752.393,623.659 752.893,625.493 748,629.5C 747.781,628.062 747.281,626.729 746.5,625.5C 745.646,626.522 744.646,627.355 743.5,628C 746.028,629.316 746.028,630.483 743.5,631.5C 741.96,629.613 740.293,627.78 738.5,626C 739.687,624.981 740.687,623.814 741.5,622.5C 740.359,621.575 740.359,620.741 741.5,620C 740.552,619.517 739.552,619.351 738.5,619.5C 748.307,596.197 752.64,571.863 751.5,546.5C 751.5,544.167 751.5,541.833 751.5,539.5C 755.056,539.725 755.39,538.892 752.5,537C 753.573,535.584 753.573,534.25 752.5,533C 753.075,527.814 755.075,527.148 758.5,531C 758.043,531.414 757.709,531.914 757.5,532.5C 759.111,535.388 760.444,538.388 761.5,541.5C 764.363,541.929 767.029,542.929 769.5,544.5C 769.306,546.07 769.306,547.57 769.5,549C 768.692,549.308 768.025,549.808 767.5,550.5C 768.989,550.533 770.322,551.033 771.5,552C 771.167,553 770.833,554 770.5,555C 771.5,555.5 772.5,556 773.5,556.5C 773.669,555.603 774.002,554.603 774.5,553.5C 775.425,554.641 776.259,554.641 777,553.5C 777.333,554.5 777.667,555.5 778,556.5C 778.687,554.432 778.52,552.432 777.5,550.5C 780.411,549.208 782.244,550.208 783,553.5C 783.76,551.503 784.26,549.837 784.5,548.5C 785.167,550.167 785.833,551.833 786.5,553.5C 787.262,552.372 787.929,551.205 788.5,550C 787.97,548.256 787.97,546.756 788.5,545.5C 789.262,546.628 789.929,547.795 790.5,549C 789.54,552.73 789.207,556.563 789.5,560.5C 786.27,561.849 783.77,560.849 782,557.5C 781.506,559.134 781.34,560.801 781.5,562.5C 780.448,562.351 779.448,562.517 778.5,563C 779.766,563.309 780.933,563.809 782,564.5C 782.333,564.167 782.667,563.833 783,563.5C 784.044,564.623 784.71,565.956 785,567.5C 785.667,564.833 786.333,564.833 787,567.5C 791.314,563.529 795.481,563.862 799.5,568.5C 799.694,570.263 799.694,572.097 799.5,574C 802.2,576.585 803.867,579.752 804.5,583.5C 805.251,582.624 805.751,581.624 806,580.5C 807,582.833 808,585.167 809,587.5C 809.333,586.167 809.667,584.833 810,583.5C 812.068,585.432 814.068,587.432 816,589.5C 816.915,588.672 817.581,587.672 818,586.5C 818.85,588.01 819.683,589.51 820.5,591C 818.806,593.624 818.14,596.29 818.5,599C 819.696,600.364 820.696,601.864 821.5,603.5C 821.012,606.851 819.845,607.184 818,604.5C 817.209,606.604 815.709,607.937 813.5,608.5C 815.332,609.248 816.999,610.248 818.5,611.5C 819.747,613.006 819.747,614.506 818.5,616C 819.536,617.617 820.703,617.784 822,616.5C 822.98,618.259 823.647,619.926 824,621.5C 824.5,620.333 825.333,619.5 826.5,619C 825.809,617.933 825.309,616.766 825,615.5C 824.667,615.833 824.333,616.167 824,616.5C 823.202,614.741 823.369,613.074 824.5,611.5C 826.702,609.732 829.035,608.565 831.5,608C 828.897,611.395 829.23,614.562 832.5,617.5C 833.251,616.624 833.751,615.624 834,614.5C 837.106,617.027 836.939,618.86 833.5,620C 835.235,620.651 836.902,620.485 838.5,619.5C 838.833,620.167 839.167,620.833 839.5,621.5C 839.03,624.55 838.197,624.883 837,622.5C 834.903,622.694 832.737,622.694 830.5,622.5C 828.566,622.901 827.066,623.901 826,625.5C 825.692,624.692 825.192,624.025 824.5,623.5C 823.904,624.716 823.737,626.049 824,627.5C 823.086,626.346 822.253,626.513 821.5,628C 824.609,629.441 827.109,631.608 829,634.5C 830.646,633.221 831.813,631.555 832.5,629.5C 832.109,630.891 832.942,631.891 835,632.5C 835.617,633.449 835.451,634.282 834.5,635C 831.307,634.73 828.307,635.73 825.5,638C 827.533,638.801 829.699,639.301 832,639.5C 832.333,638.833 832.667,638.167 833,637.5C 832.231,640.355 831.731,643.355 831.5,646.5C 832.978,646.238 834.311,646.571 835.5,647.5C 833.723,648.901 832.056,650.401 830.5,652C 830.957,652.414 831.291,652.914 831.5,653.5C 828.821,653.093 826.154,653.593 823.5,655C 825.405,655.826 825.739,656.993 824.5,658.5C 823.28,657.289 822.113,657.289 821,658.5C 818.743,656.043 817.743,653.376 818,650.5C 816.324,651.061 814.991,652.061 814,653.5C 810.716,650.364 811.55,648.531 816.5,648C 815.069,647.535 813.903,646.701 813,645.5C 812,646.167 811,646.833 810,647.5C 809.2,650.867 808.034,654.034 806.5,657C 807.167,657.333 807.833,657.667 808.5,658C 807.167,658.667 807.167,659.333 808.5,660C 807.833,660.333 807.167,660.667 806.5,661C 807.451,661.718 807.617,662.551 807,663.5C 806.196,662.196 805.029,661.529 803.5,661.5C 801.443,663.531 799.61,663.531 798,661.5C 796.321,663.844 795.154,666.344 794.5,669C 791.166,671.075 787.499,671.909 783.5,671.5C 783.67,672.822 783.337,673.989 782.5,675C 780.182,674.232 778.349,675.066 777,677.5C 776.077,675.076 774.577,673.076 772.5,671.5C 771.808,672.025 771.308,672.692 771,673.5C 770.374,671.009 769.541,671.009 768.5,673.5C 767.742,672.189 766.742,671.689 765.5,672C 766.299,673.749 765.632,675.082 763.5,676C 764.624,676.249 765.624,676.749 766.5,677.5C 765.019,678.48 763.685,679.647 762.5,681C 764.074,681.336 765.408,682.169 766.5,683.5C 766.185,685.483 765.185,686.816 763.5,687.5 Z"/></g>
<g><path style="opacity:1" fill="#202932" d="M 579.5,418.5 C 640.817,415.416 686.984,440.083 718,492.5C 743.352,547.354 737.685,598.687 701,646.5C 660.765,690.684 611.598,705.184 553.5,690C 506.744,673.578 475.911,641.744 461,594.5C 448.602,540.573 461.768,494.073 500.5,455C 523.091,434.704 549.425,422.537 579.5,418.5 Z M 583.5,453.5 C 631.657,451.149 666.823,471.149 689,513.5C 706.7,558.999 698.534,599.166 664.5,634C 630.037,662.631 592.037,668.298 550.5,651C 508.46,628.1 488.96,592.6 492,544.5C 501.803,493.196 532.303,462.863 583.5,453.5 Z M 575.5,501.5 C 585.29,502.753 588.79,508.087 586,517.5C 581.106,520.7 575.939,523.533 570.5,526C 568.612,528.19 566.445,530.023 564,531.5C 559.175,538.322 555.008,545.488 551.5,553C 543.56,556.363 538.56,553.863 536.5,545.5C 542.462,524.541 555.462,509.874 575.5,501.5 Z"/></g>
<g><path style="opacity:1" fill="#202932" d="M 670.5,549.5 C 669.244,549.096 668.077,548.429 667,547.5C 665.189,548.424 665.355,549.257 667.5,550C 666.975,550.692 666.308,551.192 665.5,551.5C 662.226,546.166 661.226,546.666 662.5,553C 662.07,554.434 661.236,555.601 660,556.5C 656.53,554.303 652.697,552.969 648.5,552.5C 646.962,549.21 647.795,548.21 651,549.5C 654.293,547.464 654.127,545.464 650.5,543.5C 649.023,545.82 647.19,547.153 645,547.5C 643.926,546.382 642.76,545.382 641.5,544.5C 643.173,542.477 643.84,540.144 643.5,537.5C 642.167,537.5 640.833,537.5 639.5,537.5C 639.833,534.5 638.5,533.167 635.5,533.5C 635.328,531.508 635.995,529.842 637.5,528.5C 633.044,526.625 629.711,527.791 627.5,532C 629.654,534.819 632.32,536.985 635.5,538.5C 633.704,539.141 632.204,540.141 631,541.5C 630.667,540.833 630.333,540.167 630,539.5C 629.947,542.61 628.614,544.944 626,546.5C 625.03,554.13 625.363,561.797 627,569.5C 626.24,567.503 625.74,565.837 625.5,564.5C 623.461,565.277 622.795,566.443 623.5,568C 622.167,568.667 620.833,568.667 619.5,568C 621.929,567.549 622.096,566.715 620,565.5C 618.992,565.982 617.825,566.148 616.5,566C 615.195,568.964 613.861,568.798 612.5,565.5C 613.304,563.864 614.304,562.364 615.5,561C 614.167,560.333 612.833,559.667 611.5,559C 613.847,557.809 614.68,555.976 614,553.5C 613.692,554.308 613.192,554.975 612.5,555.5C 611.833,554.167 611.167,552.833 610.5,551.5C 608.299,553.056 608.299,554.223 610.5,555C 604.04,556.702 604.04,557.535 610.5,557.5C 611.388,559.946 611.555,562.279 611,564.5C 609.301,563.594 607.467,563.261 605.5,563.5C 605.773,561.042 604.773,559.375 602.5,558.5C 601.92,560.637 600.92,562.47 599.5,564C 600.937,566.23 601.937,568.23 602.5,570C 604.23,571.852 605.396,571.686 606,569.5C 606.772,570.849 607.939,571.682 609.5,572C 608.377,573.044 607.044,573.71 605.5,574C 605.833,574.333 606.167,574.667 606.5,575C 603.701,575.439 602.701,576.772 603.5,579C 599.5,579.667 599.5,580.333 603.5,581C 600.475,583.581 600.808,584.914 604.5,585C 603.542,583.853 603.875,582.853 605.5,582C 604.549,581.282 604.383,580.449 605,579.5C 607.158,580.826 608.992,582.493 610.5,584.5C 611.192,583.975 611.692,583.308 612,582.5C 612.295,585.105 613.129,587.771 614.5,590.5C 616.564,590.687 618.564,591.187 620.5,592C 619.098,593.342 619.431,594.176 621.5,594.5C 623.569,594.176 623.902,593.342 622.5,592C 623.268,589.631 624.435,587.465 626,585.5C 628.26,587.346 630.426,589.346 632.5,591.5C 638.09,591.432 643.59,591.432 649,591.5C 649.311,592.742 648.811,593.742 647.5,594.5C 648.376,595.251 649.376,595.751 650.5,596C 649.376,596.249 648.376,596.749 647.5,597.5C 650.17,600.919 653.17,601.252 656.5,598.5C 655.833,598.167 655.167,597.833 654.5,597.5C 648.436,599.204 647.936,598.204 653,594.5C 653.333,595.167 653.667,595.833 654,596.5C 655.558,594.641 657.391,593.141 659.5,592C 657.862,590.201 656.029,589.035 654,588.5C 653.333,586.5 653.333,584.5 654,582.5C 655.425,581.788 656.925,581.621 658.5,582C 657.5,581 656.5,580 655.5,579C 658.696,576.464 658.696,574.964 655.5,574.5C 655.714,572.856 655.38,571.356 654.5,570C 657.221,569.56 660.054,569.726 663,570.5C 663.492,569.451 663.326,568.451 662.5,567.5C 664.923,564.794 666.09,565.461 666,569.5C 667.011,570.337 668.178,570.67 669.5,570.5C 662.606,602.561 643.273,622.728 611.5,631C 575.413,636.432 547.58,623.932 528,593.5C 510.905,556.819 517.071,524.652 546.5,497C 570.424,479.3 596.424,475.633 624.5,486C 651.679,498.505 667.013,519.671 670.5,549.5 Z M 575.5,501.5 C 555.462,509.874 542.462,524.541 536.5,545.5C 538.56,553.863 543.56,556.363 551.5,553C 555.008,545.488 559.175,538.322 564,531.5C 566.445,530.023 568.612,528.19 570.5,526C 575.939,523.533 581.106,520.7 586,517.5C 588.79,508.087 585.29,502.753 575.5,501.5 Z"/></g>
<g><path style="opacity:1" fill="#1f2731" d="M 670.5,549.5 C 670.76,556.557 670.427,563.557 669.5,570.5C 668.178,570.67 667.011,570.337 666,569.5C 666.09,565.461 664.923,564.794 662.5,567.5C 663.326,568.451 663.492,569.451 663,570.5C 660.054,569.726 657.221,569.56 654.5,570C 655.38,571.356 655.714,572.856 655.5,574.5C 658.696,574.964 658.696,576.464 655.5,579C 656.5,580 657.5,581 658.5,582C 656.925,581.621 655.425,581.788 654,582.5C 653.333,584.5 653.333,586.5 654,588.5C 656.029,589.035 657.862,590.201 659.5,592C 657.391,593.141 655.558,594.641 654,596.5C 653.667,595.833 653.333,595.167 653,594.5C 647.936,598.204 648.436,599.204 654.5,597.5C 655.167,597.833 655.833,598.167 656.5,598.5C 653.17,601.252 650.17,600.919 647.5,597.5C 648.376,596.749 649.376,596.249 650.5,596C 649.376,595.751 648.376,595.251 647.5,594.5C 648.811,593.742 649.311,592.742 649,591.5C 643.59,591.432 638.09,591.432 632.5,591.5C 630.426,589.346 628.26,587.346 626,585.5C 624.435,587.465 623.268,589.631 622.5,592C 623.902,593.342 623.569,594.176 621.5,594.5C 619.431,594.176 619.098,593.342 620.5,592C 618.564,591.187 616.564,590.687 614.5,590.5C 613.129,587.771 612.295,585.105 612,582.5C 611.692,583.308 611.192,583.975 610.5,584.5C 608.992,582.493 607.158,580.826 605,579.5C 604.383,580.449 604.549,581.282 605.5,582C 603.875,582.853 603.542,583.853 604.5,585C 600.808,584.914 600.475,583.581 603.5,581C 599.5,580.333 599.5,579.667 603.5,579C 602.701,576.772 603.701,575.439 606.5,575C 606.167,574.667 605.833,574.333 605.5,574C 607.044,573.71 608.377,573.044 609.5,572C 607.939,571.682 606.772,570.849 606,569.5C 605.396,571.686 604.23,571.852 602.5,570C 601.937,568.23 600.937,566.23 599.5,564C 600.92,562.47 601.92,560.637 602.5,558.5C 604.773,559.375 605.773,561.042 605.5,563.5C 607.467,563.261 609.301,563.594 611,564.5C 611.555,562.279 611.388,559.946 610.5,557.5C 604.04,557.535 604.04,556.702 610.5,555C 608.299,554.223 608.299,553.056 610.5,551.5C 611.167,552.833 611.833,554.167 612.5,555.5C 613.192,554.975 613.692,554.308 614,553.5C 614.68,555.976 613.847,557.809 611.5,559C 612.833,559.667 614.167,560.333 615.5,561C 614.304,562.364 613.304,563.864 612.5,565.5C 613.861,568.798 615.195,568.964 616.5,566C 617.825,566.148 618.992,565.982 620,565.5C 622.096,566.715 621.929,567.549 619.5,568C 620.833,568.667 622.167,568.667 623.5,568C 622.795,566.443 623.461,565.277 625.5,564.5C 625.74,565.837 626.24,567.503 627,569.5C 625.363,561.797 625.03,554.13 626,546.5C 628.614,544.944 629.947,542.61 630,539.5C 630.333,540.167 630.667,540.833 631,541.5C 632.204,540.141 633.704,539.141 635.5,538.5C 632.32,536.985 629.654,534.819 627.5,532C 629.711,527.791 633.044,526.625 637.5,528.5C 635.995,529.842 635.328,531.508 635.5,533.5C 638.5,533.167 639.833,534.5 639.5,537.5C 640.833,537.5 642.167,537.5 643.5,537.5C 643.84,540.144 643.173,542.477 641.5,544.5C 642.76,545.382 643.926,546.382 645,547.5C 647.19,547.153 649.023,545.82 650.5,543.5C 654.127,545.464 654.293,547.464 651,549.5C 647.795,548.21 646.962,549.21 648.5,552.5C 652.697,552.969 656.53,554.303 660,556.5C 661.236,555.601 662.07,554.434 662.5,553C 661.226,546.666 662.226,546.166 665.5,551.5C 666.308,551.192 666.975,550.692 667.5,550C 665.355,549.257 665.189,548.424 667,547.5C 668.077,548.429 669.244,549.096 670.5,549.5 Z"/></g>
<g><path style="opacity:1" fill="#1f2732" d="M 220.5,600.5 C 221.919,599.549 223.585,599.216 225.5,599.5C 225.318,601.675 224.651,603.675 223.5,605.5C 223.833,606.167 224.167,606.833 224.5,607.5C 225.711,606.726 225.711,605.893 224.5,605C 226.676,604.837 228.509,604.004 230,602.5C 230.333,603.167 230.667,603.833 231,604.5C 235.146,603.642 239.48,604.308 244,606.5C 246.889,602.602 248.889,603.268 250,608.5C 250.615,606.884 251.615,605.551 253,604.5C 253.72,602.888 253.554,601.388 252.5,600C 254.18,599.966 255.68,599.799 257,599.5C 257.492,600.549 257.326,601.549 256.5,602.5C 258.006,603.747 259.506,603.747 261,602.5C 261.667,603.167 262.333,603.833 263,604.5C 262.922,607.667 262.422,610.834 261.5,614C 261.936,617.831 262.936,618.164 264.5,615C 265.449,614.383 266.282,614.549 267,615.5C 266.217,617.345 265.884,619.345 266,621.5C 268.821,620.49 271.988,620.49 275.5,621.5C 275.769,623.429 275.269,625.095 274,626.5C 273.383,625.551 273.549,624.718 274.5,624C 269.289,623.339 268.622,624.505 272.5,627.5C 270.671,628.282 269.171,627.616 268,625.5C 268.617,627.095 268.284,628.428 267,629.5C 266.667,629.167 266.333,628.833 266,628.5C 265.044,629.579 264.211,630.745 263.5,632C 265.329,632.273 266.829,633.107 268,634.5C 268.556,632.405 269.056,632.238 269.5,634C 265,636.802 264.667,639.802 268.5,643C 266.476,644.458 266.309,646.291 268,648.5C 269.279,646.063 270.779,645.563 272.5,647C 271.718,649.74 271.218,652.574 271,655.5C 269.933,653.717 268.433,653.217 266.5,654C 267.696,654.654 267.696,655.154 266.5,655.5C 265.281,654.354 263.948,653.354 262.5,652.5C 263.59,651.391 263.59,650.391 262.5,649.5C 260.439,649.457 258.272,648.791 256,647.5C 255.667,647.833 255.333,648.167 255,648.5C 253.777,646.015 252.277,645.848 250.5,648C 251.449,648.617 252.282,648.451 253,647.5C 253.707,649.081 254.54,650.581 255.5,652C 254.322,652.967 252.989,653.467 251.5,653.5C 246.956,650.407 243.123,647.407 240,644.5C 239.727,646.329 238.893,647.829 237.5,649C 240.167,650.333 240.167,651.667 237.5,653C 238.451,653.718 238.617,654.551 238,655.5C 235.843,651.826 235.01,652.493 235.5,657.5C 238.428,657.148 241.262,656.482 244,655.5C 246.182,656.93 248.349,658.43 250.5,660C 249.428,661.284 248.095,661.617 246.5,661C 247.167,661.667 247.833,662.333 248.5,663C 245.708,664.597 242.708,665.597 239.5,666C 240.833,667 240.833,668 239.5,669C 240.471,670.204 241.471,670.704 242.5,670.5C 241.271,671.281 239.938,671.781 238.5,672C 241.043,674.351 240.377,675.517 236.5,675.5C 236.5,676.5 236.5,677.5 236.5,678.5C 234.315,678.888 232.482,679.888 231,681.5C 226.078,679.412 226.578,677.245 232.5,675C 229.574,673.988 228.74,672.155 230,669.5C 228.601,668.773 227.101,668.273 225.5,668C 226.938,667.781 228.271,667.281 229.5,666.5C 228.975,665.808 228.308,665.308 227.5,665C 228.369,663.535 227.869,662.369 226,661.5C 224.238,661.944 224.405,662.444 226.5,663C 225.552,663.483 224.552,663.649 223.5,663.5C 223.773,661.549 223.107,660.049 221.5,659C 222.704,657.647 223.371,655.981 223.5,654C 223.167,652.5 222.833,651 222.5,649.5C 221.158,650.902 220.324,650.569 220,648.5C 219.667,648.833 219.333,649.167 219,649.5C 216.916,646.967 214.916,646.967 213,649.5C 210.833,648 211,646.833 213.5,646C 211.167,645.333 208.833,645.333 206.5,646C 207.274,648.405 207.774,650.905 208,653.5C 209.204,654.859 210.704,655.859 212.5,656.5C 212.333,656.833 212.167,657.167 212,657.5C 207.602,656.139 202.769,655.139 197.5,654.5C 200.606,652.541 200.94,650.374 198.5,648C 200.797,646.84 200.464,645.84 197.5,645C 198.743,643.846 199.743,642.512 200.5,641C 198.711,638.209 197.378,635.209 196.5,632C 196.957,631.586 197.291,631.086 197.5,630.5C 196.092,629.757 194.759,628.923 193.5,628C 194.784,627.316 195.951,627.483 197,628.5C 198.314,627.687 199.481,626.687 200.5,625.5C 201.429,626.689 201.762,628.022 201.5,629.5C 203.5,629.5 205.5,629.5 207.5,629.5C 207.47,633.026 207.804,636.36 208.5,639.5C 209.192,638.975 209.692,638.308 210,637.5C 211.518,637.057 212.685,637.724 213.5,639.5C 214.506,639.062 214.506,638.396 213.5,637.5C 214.665,636.416 215.998,635.583 217.5,635C 216.584,634.626 215.75,634.126 215,633.5C 214.612,634.428 213.945,635.095 213,635.5C 211.726,634.465 210.56,633.298 209.5,632C 210.784,631.316 211.951,631.483 213,632.5C 213.167,632 213.333,631.5 213.5,631C 212.068,628.78 210.068,627.28 207.5,626.5C 208.833,625.833 210.167,625.167 211.5,624.5C 210.009,623.756 208.509,623.09 207,622.5C 206.333,623.833 205.667,623.833 205,622.5C 204.125,624.513 202.791,624.513 201,622.5C 200.333,623.167 199.667,623.833 199,624.5C 197.175,623.897 195.341,623.23 193.5,622.5C 195.353,621.24 197.186,621.24 199,622.5C 201.824,620.902 204.658,620.568 207.5,621.5C 207.5,620.167 207.5,618.833 207.5,617.5C 206.325,617.719 205.325,617.386 204.5,616.5C 207.194,614.594 208.194,612.261 207.5,609.5C 208.091,607.734 208.924,606.067 210,604.5C 212.427,605.781 214.927,606.781 217.5,607.5C 217.192,605.076 217.526,602.743 218.5,600.5C 219.167,601.167 219.833,601.833 220.5,602.5C 221.773,601.743 221.773,601.077 220.5,600.5 Z"/></g>
<g><path style="opacity:1" fill="#464c52" d="M 455.5,485.5 C 417.5,485.5 379.5,485.5 341.5,485.5C 341.5,555.167 341.5,624.833 341.5,694.5C 341.5,708.833 341.5,723.167 341.5,737.5C 340.501,653.335 340.167,569.002 340.5,484.5C 379.004,484.168 417.337,484.501 455.5,485.5 Z"/></g>
<g><path style="opacity:1" fill="#292f36" d="M 201.5,485.5 C 239.5,485.5 277.5,485.5 315.5,485.5C 316.499,569.332 316.833,653.332 316.5,737.5C 279.5,737.5 242.5,737.5 205.5,737.5C 241.663,736.502 277.996,736.168 314.5,736.5C 314.5,653.167 314.5,569.833 314.5,486.5C 297.557,486.523 280.89,486.523 264.5,486.5C 262.616,486.716 260.949,487.383 259.5,488.5C 258.148,487.104 256.481,486.437 254.5,486.5C 249.362,487.95 249.696,489.117 255.5,490C 252.149,494.422 250.149,493.588 249.5,487.5C 239.917,487.818 230.417,487.485 221,486.5C 219.667,487.167 218.667,488.167 218,489.5C 217.517,488.552 217.351,487.552 217.5,486.5C 211.999,487.474 206.666,487.141 201.5,485.5 Z"/></g>
<g><path style="opacity:1" fill="#1a2128" d="M 341.5,694.5 C 342.496,708.323 342.829,722.323 342.5,736.5C 436.833,736.5 531.167,736.5 625.5,736.5C 689.002,736.168 752.336,736.501 815.5,737.5C 657.5,737.5 499.5,737.5 341.5,737.5C 341.5,723.167 341.5,708.833 341.5,694.5 Z"/></g>
<g><path style="opacity:1" fill="#95504d" d="M 310.5,960.5 C 311.833,961.167 311.833,961.167 310.5,960.5 Z"/></g>
<g><path style="opacity:1" fill="#904949" d="M 135.5,961.5 C 136.833,962.167 136.833,962.167 135.5,961.5 Z"/></g>
<g><path style="opacity:1" fill="#924345" d="M 786.5,967.5 C 787.833,968.167 787.833,968.167 786.5,967.5 Z"/></g>
<g><path style="opacity:1" fill="#8b4e4e" d="M 859.5,966.5 C 860.573,967.251 860.74,968.251 860,969.5C 859.517,968.552 859.351,967.552 859.5,966.5 Z"/></g>
<g><path style="opacity:1" fill="#895151" d="M 869.5,975.5 C 870.525,975.897 870.692,976.563 870,977.5C 869.536,976.906 869.369,976.239 869.5,975.5 Z"/></g>
<g><path style="opacity:1" fill="#835856" d="M 542.5,978.5 C 543.525,978.897 543.692,979.563 543,980.5C 542.536,979.906 542.369,979.239 542.5,978.5 Z"/></g>
<g><path style="opacity:1" fill="#944e4e" d="M 100.5,982.5 C 100.897,981.475 101.563,981.308 102.5,982C 101.906,982.464 101.239,982.631 100.5,982.5 Z"/></g>
<g><path style="opacity:1" fill="#8d534e" d="M 225.5,981.5 C 226.833,982.167 226.833,982.167 225.5,981.5 Z"/></g>
<g><path style="opacity:1" fill="#954845" d="M 363.5,981.5 C 364.833,982.167 364.833,982.167 363.5,981.5 Z"/></g>
</svg>
