<?xml version="1.0" encoding="UTF-8"?>
<!DOCTYPE svg PUBLIC "-//W3C//DTD SVG 1.1//EN" "http://www.w3.org/Graphics/SVG/1.1/DTD/svg11.dtd">
<svg xmlns="http://www.w3.org/2000/svg" version="1.1" width="1024px" height="1024px" style="shape-rendering:geometricPrecision; text-rendering:geometricPrecision; image-rendering:optimizeQuality; fill-rule:evenodd; clip-rule:evenodd" xmlns:xlink="http://www.w3.org/1999/xlink">
<g><path style="opacity:1" fill="#fefefe" d="M 486.5,191.5 C 557.692,187.511 612.525,215.178 651,274.5C 681.644,332.095 682.311,390.095 653,448.5C 626.396,493.407 587.563,521.907 536.5,534C 514.545,536.419 492.545,538.419 470.5,540C 430.86,544.437 392.86,554.771 356.5,571C 310.889,594.343 282.722,631.177 272,681.5C 266.397,706.944 264.73,732.611 267,758.5C 270.344,767.843 276.844,773.677 286.5,776C 393.833,776.333 501.167,776.667 608.5,777C 620.463,779.607 624.963,786.774 622,798.5C 618.842,804.327 614.008,807.827 607.5,809C 500.167,809.667 392.833,809.667 285.5,809C 261.304,805.471 244.804,792.304 236,769.5C 228.015,715.066 236.682,663.399 262,614.5C 285.937,574.903 319.77,547.403 363.5,532C 382.538,525.321 401.871,519.654 421.5,515C 354.83,473.817 325.997,413.983 335,335.5C 346.893,270.609 383.393,225.776 444.5,201C 458.331,196.47 472.331,193.304 486.5,191.5 Z M 492.5,225.5 C 551.1,223.541 595.267,247.541 625,297.5C 641.355,330.442 645.022,364.775 636,400.5C 620.657,449.843 588.157,481.676 538.5,496C 489.998,506.791 446.998,496.124 409.5,464C 368.515,421.548 357.015,372.048 375,315.5C 396.742,262.716 435.909,232.716 492.5,225.5 Z"/></g>
<g><path style="opacity:1" fill="#fe5438" d="M 791.5,501.5 C 790.903,501.735 790.57,502.235 790.5,503C 792.874,510.439 794.874,517.272 796.5,523.5C 797.317,525.969 797.817,528.635 798,531.5C 800.949,532.437 803.783,533.437 806.5,534.5C 811.508,537.029 817.175,539.696 823.5,542.5C 824.107,542.376 824.44,542.043 824.5,541.5C 848.358,555.5 863.192,576.167 869,603.5C 872.937,623.739 870.937,643.406 863,662.5C 855.026,680.46 845.026,697.127 833,712.5C 801.833,747.678 767,778.511 728.5,805C 723.886,807.342 719.22,807.676 714.5,806C 705.386,800.788 697.053,794.621 689.5,787.5C 670.47,771.976 651.803,755.976 633.5,739.5C 631.275,735.765 628.442,732.432 625,729.5C 624.601,729.728 624.435,730.062 624.5,730.5C 618.753,725.09 613.753,719.09 609.5,712.5C 601.456,701.721 593.956,691.054 587,680.5C 586.167,678.833 585.333,677.167 584.5,675.5C 585.965,673.055 585.465,671.055 583,669.5C 582.667,670.167 582.333,670.833 582,671.5C 579.754,665.671 577.254,660.671 574.5,656.5C 568.879,642.114 567.046,627.114 569,611.5C 569.191,609.292 569.691,607.292 570.5,605.5C 572.842,599.876 575.175,593.543 577.5,586.5C 577.376,585.893 577.043,585.56 576.5,585.5C 579.708,577.98 583.708,570.98 588.5,564.5C 595.297,557.545 602.63,551.045 610.5,545C 619.958,538.958 630.291,535.291 641.5,534C 640.552,533.517 639.552,533.351 638.5,533.5C 652.593,531.347 666.259,533.014 679.5,538.5C 679.062,538.435 678.728,538.601 678.5,539C 680.044,540.187 681.711,540.52 683.5,540C 688,535.5 692.5,531 697,526.5C 697.692,525.563 697.525,524.897 696.5,524.5C 707.575,511.684 714.908,497.017 718.5,480.5C 719.697,478.123 720.363,474.29 720.5,469C 720,463.5 719.5,458 719,452.5C 718.768,451.263 718.268,450.263 717.5,449.5C 714.091,442.984 716.091,438.984 723.5,437.5C 750.737,446.563 771.571,463.563 786,488.5C 787.937,492.817 789.77,497.15 791.5,501.5 Z"/></g>
<g><path style="opacity:1" fill="#fd3518" d="M 717.5,449.5 C 718.268,450.263 718.768,451.263 719,452.5C 719.5,458 720,463.5 720.5,469C 720.363,474.29 719.697,478.123 718.5,480.5C 718.638,470.146 718.305,459.812 717.5,449.5 Z"/></g>
<g><path style="opacity:1" fill="#fe3317" d="M 791.5,501.5 C 794.422,508.524 796.089,515.857 796.5,523.5C 794.874,517.272 792.874,510.439 790.5,503C 790.57,502.235 790.903,501.735 791.5,501.5 Z"/></g>
<g><path style="opacity:1" fill="#fe361a" d="M 806.5,534.5 C 813.003,535.759 819.003,538.093 824.5,541.5C 824.44,542.043 824.107,542.376 823.5,542.5C 817.175,539.696 811.508,537.029 806.5,534.5 Z"/></g>
<g><path style="opacity:1" fill="#fe3318" d="M 638.5,533.5 C 639.552,533.351 640.552,533.517 641.5,534C 630.291,535.291 619.958,538.958 610.5,545C 602.63,551.045 595.297,557.545 588.5,564.5C 600.722,547.053 617.389,536.72 638.5,533.5 Z"/></g>
<g><path style="opacity:1" fill="#fc2d15" d="M 696.5,524.5 C 697.525,524.897 697.692,525.563 697,526.5C 692.5,531 688,535.5 683.5,540C 681.711,540.52 680.044,540.187 678.5,539C 678.728,538.601 679.062,538.435 679.5,538.5C 680.496,538.414 681.329,538.748 682,539.5C 687.037,534.631 691.87,529.631 696.5,524.5 Z"/></g>
<g><path style="opacity:1" fill="#fe3218" d="M 576.5,585.5 C 577.043,585.56 577.376,585.893 577.5,586.5C 575.175,593.543 572.842,599.876 570.5,605.5C 571.496,598.515 573.496,591.848 576.5,585.5 Z"/></g>
<g><path style="opacity:1" fill="#fe4023" d="M 609.5,712.5 C 593.822,696.457 582.155,677.791 574.5,656.5C 577.254,660.671 579.754,665.671 582,671.5C 582.333,670.833 582.667,670.167 583,669.5C 585.465,671.055 585.965,673.055 584.5,675.5C 585.333,677.167 586.167,678.833 587,680.5C 593.956,691.054 601.456,701.721 609.5,712.5 Z"/></g>
<g><path style="opacity:1" fill="#fd270e" d="M 633.5,739.5 C 630.167,736.833 627.167,733.833 624.5,730.5C 624.435,730.062 624.601,729.728 625,729.5C 628.442,732.432 631.275,735.765 633.5,739.5 Z"/></g>
<g><path style="opacity:1" fill="#fe3a1f" d="M 633.5,739.5 C 651.803,755.976 670.47,771.976 689.5,787.5C 678.778,780.291 668.445,772.458 658.5,764C 649.662,756.328 641.328,748.162 633.5,739.5 Z"/></g>
</svg>
