<?xml version="1.0" encoding="UTF-8"?>
<!DOCTYPE svg PUBLIC "-//W3C//DTD SVG 1.1//EN" "http://www.w3.org/Graphics/SVG/1.1/DTD/svg11.dtd">
<svg xmlns="http://www.w3.org/2000/svg" version="1.1" width="1024px" height="1024px" style="shape-rendering:geometricPrecision; text-rendering:geometricPrecision; image-rendering:optimizeQuality; fill-rule:evenodd; clip-rule:evenodd" xmlns:xlink="http://www.w3.org/1999/xlink">
<g><path style="opacity:1" fill="#12191d" d="M 461.5,196.5 C 462.239,196.369 462.906,196.536 463.5,197C 446.486,201.059 430.486,207.559 415.5,216.5C 414.893,216.376 414.56,216.043 414.5,215.5C 429.128,206.623 444.795,200.29 461.5,196.5 Z"/></g>
<g><path style="opacity:1" fill="#040b10" d="M 391.5,232.5 C 387.231,238.303 382.065,243.969 376,249.5C 375.601,249.272 375.435,248.938 375.5,248.5C 380.5,242.833 385.833,237.5 391.5,232.5 Z"/></g>
<g><path style="opacity:1" fill="#11181c" d="M 355.5,275.5 C 356.239,275.369 356.906,275.536 357.5,276C 348.09,291.662 341.59,308.496 338,326.5C 337.517,325.552 337.351,324.552 337.5,323.5C 340.932,306.539 346.932,290.539 355.5,275.5 Z"/></g>
<g><path style="opacity:1" fill="#121a1e" d="M 642.5,261.5 C 656.742,281.328 666.075,303.328 670.5,327.5C 670.307,331.449 669.807,331.449 669,327.5C 664.398,303.848 655.231,282.181 641.5,262.5C 641.624,261.893 641.957,261.56 642.5,261.5 Z"/></g>
<g><path style="opacity:1" fill="#101a1f" d="M 336.5,327.5 C 337.139,328.097 337.472,328.93 337.5,330C 335.988,344.297 334.654,358.463 333.5,372.5C 332.909,357.362 333.909,342.362 336.5,327.5 Z"/></g>
<g><path style="opacity:1" fill="#1b2124" d="M 671.5,331.5 C 674.361,346.727 675.028,362.06 673.5,377.5C 672.936,363.286 671.936,348.952 670.5,334.5C 670.52,333.274 670.853,332.274 671.5,331.5 Z"/></g>
<g><path style="opacity:1" fill="#fe5438" d="M 791.5,501.5 C 790.903,501.735 790.57,502.235 790.5,503C 792.874,510.439 794.874,517.272 796.5,523.5C 797.317,525.969 797.817,528.635 798,531.5C 800.949,532.437 803.783,533.437 806.5,534.5C 811.508,537.029 817.175,539.696 823.5,542.5C 824.107,542.376 824.44,542.043 824.5,541.5C 848.358,555.5 863.192,576.167 869,603.5C 872.937,623.739 870.937,643.406 863,662.5C 855.026,680.46 845.026,697.127 833,712.5C 801.833,747.678 767,778.511 728.5,805C 723.886,807.342 719.22,807.676 714.5,806C 705.386,800.788 697.053,794.621 689.5,787.5C 670.47,771.976 651.803,755.976 633.5,739.5C 631.275,735.765 628.442,732.432 625,729.5C 624.601,729.728 624.435,730.062 624.5,730.5C 618.753,725.09 613.753,719.09 609.5,712.5C 601.456,701.721 593.956,691.054 587,680.5C 586.167,678.833 585.333,677.167 584.5,675.5C 585.965,673.055 585.465,671.055 583,669.5C 582.667,670.167 582.333,670.833 582,671.5C 579.754,665.671 577.254,660.671 574.5,656.5C 568.879,642.114 567.046,627.114 569,611.5C 569.191,609.292 569.691,607.292 570.5,605.5C 572.842,599.876 575.175,593.543 577.5,586.5C 577.376,585.893 577.043,585.56 576.5,585.5C 579.708,577.98 583.708,570.98 588.5,564.5C 595.297,557.545 602.63,551.045 610.5,545C 619.958,538.958 630.291,535.291 641.5,534C 640.552,533.517 639.552,533.351 638.5,533.5C 652.593,531.347 666.259,533.014 679.5,538.5C 679.062,538.435 678.728,538.601 678.5,539C 680.044,540.187 681.711,540.52 683.5,540C 688,535.5 692.5,531 697,526.5C 697.692,525.563 697.525,524.897 696.5,524.5C 707.575,511.684 714.908,497.017 718.5,480.5C 719.697,478.123 720.363,474.29 720.5,469C 720,463.5 719.5,458 719,452.5C 718.768,451.263 718.268,450.263 717.5,449.5C 714.091,442.984 716.091,438.984 723.5,437.5C 750.737,446.563 771.571,463.563 786,488.5C 787.937,492.817 789.77,497.15 791.5,501.5 Z"/></g>
<g><path style="opacity:1" fill="#fd3518" d="M 717.5,449.5 C 718.268,450.263 718.768,451.263 719,452.5C 719.5,458 720,463.5 720.5,469C 720.363,474.29 719.697,478.123 718.5,480.5C 718.638,470.146 718.305,459.812 717.5,449.5 Z"/></g>
<g><path style="opacity:1" fill="#0d2d34" d="M 642.5,261.5 C 641.957,261.56 641.624,261.893 641.5,262.5C 655.231,282.181 664.398,303.848 669,327.5C 669.807,331.449 670.307,331.449 670.5,327.5C 671.434,328.568 671.768,329.901 671.5,331.5C 670.853,332.274 670.52,333.274 670.5,334.5C 671.936,348.952 672.936,363.286 673.5,377.5C 668.665,431.192 644.665,473.858 601.5,505.5C 601.44,504.957 601.107,504.624 600.5,504.5C 583.954,515.938 565.954,524.438 546.5,530C 547.094,530.464 547.761,530.631 548.5,530.5C 538.557,533.883 528.223,535.883 517.5,536.5C 503.612,535.326 489.612,535.826 475.5,538C 476.793,538.49 478.127,538.657 479.5,538.5C 460.494,541.058 441.494,544.391 422.5,548.5C 408.965,550.16 395.631,553.66 382.5,559C 382.728,559.399 383.062,559.565 383.5,559.5C 321.466,580.198 283.799,622.532 270.5,686.5C 270.631,685.761 270.464,685.094 270,684.5C 264.731,708.278 263.065,732.278 265,756.5C 265.333,757.833 265.667,759.167 266,760.5C 266.69,761.738 267.19,761.738 267.5,760.5C 271.395,768.728 277.728,774.061 286.5,776.5C 285.761,776.369 285.094,776.536 284.5,777C 285.5,777.333 286.5,777.667 287.5,778C 395.334,778.833 503.001,778.666 610.5,777.5C 622.153,781.471 625.653,789.137 621,800.5C 617.687,805.239 613.187,808.072 607.5,809C 500.167,809.667 392.833,809.667 285.5,809C 283.292,808.809 281.292,808.309 279.5,807.5C 280.239,807.631 280.906,807.464 281.5,807C 262.091,803.22 248.258,792.387 240,774.5C 239.31,773.262 238.81,773.262 238.5,774.5C 236.081,769.854 234.414,764.854 233.5,759.5C 234.331,746.673 234.831,733.673 235,720.5C 235.667,722.5 236.333,724.5 237,726.5C 237.75,725.874 238.584,725.374 239.5,725C 239.167,724.667 238.833,724.333 238.5,724C 239.951,724.263 241.284,724.096 242.5,723.5C 241.224,720.966 240.89,718.466 241.5,716C 239.527,715.505 237.527,715.338 235.5,715.5C 236.094,704.415 237.427,693.415 239.5,682.5C 239.48,681.274 239.147,680.274 238.5,679.5C 238.263,678.209 238.596,677.209 239.5,676.5C 239.369,677.239 239.536,677.906 240,678.5C 243.112,663.716 247.612,649.383 253.5,635.5C 253.376,634.893 253.043,634.56 252.5,634.5C 252.328,633.508 252.662,632.842 253.5,632.5C 258.106,624.701 262.939,616.368 268,607.5C 270.783,603.049 273.95,598.883 277.5,595C 276.906,594.536 276.239,594.369 275.5,594.5C 278.195,591.474 280.862,588.474 283.5,585.5C 289.303,581.231 294.969,576.065 300.5,570C 300.272,569.601 299.938,569.435 299.5,569.5C 305.266,564.069 311.599,559.402 318.5,555.5C 330.807,548.68 343.807,542.18 357.5,536C 362.591,533.97 367.758,532.136 373,530.5C 373.772,530.645 374.439,530.978 375,531.5C 376.008,529.741 377.508,528.574 379.5,528C 379.272,527.601 378.938,527.435 378.5,527.5C 392.455,522.464 406.789,518.298 421.5,515C 420.944,514.617 420.611,514.117 420.5,513.5C 413.909,508.275 406.576,503.108 398.5,498C 391.364,491.865 384.531,485.365 378,478.5C 377.601,478.728 377.435,479.062 377.5,479.5C 349.993,449.361 335.327,413.694 333.5,372.5C 334.654,358.463 335.988,344.297 337.5,330C 337.472,328.93 337.139,328.097 336.5,327.5C 336.232,325.901 336.566,324.568 337.5,323.5C 337.351,324.552 337.517,325.552 338,326.5C 341.59,308.496 348.09,291.662 357.5,276C 356.906,275.536 356.239,275.369 355.5,275.5C 361.427,265.913 368.094,256.913 375.5,248.5C 375.435,248.938 375.601,249.272 376,249.5C 382.065,243.969 387.231,238.303 391.5,232.5C 398.594,226.113 406.261,220.447 414.5,215.5C 414.56,216.043 414.893,216.376 415.5,216.5C 430.486,207.559 446.486,201.059 463.5,197C 462.906,196.536 462.239,196.369 461.5,196.5C 529.176,182.125 586.676,200.125 634,250.5C 637.049,254.043 639.882,257.709 642.5,261.5 Z M 524.5,226.5 C 539.897,229.077 554.563,234.077 568.5,241.5C 599.078,257.744 620.411,282.077 632.5,314.5C 636.202,325.367 638.869,336.367 640.5,347.5C 640.5,357.833 640.5,368.167 640.5,378.5C 639.475,381.974 638.808,385.64 638.5,389.5C 635.48,404.226 630.48,418.226 623.5,431.5C 596.436,475.96 556.602,498.96 504,500.5C 456.485,499.495 418.651,480.162 390.5,442.5C 377.699,423.104 370.033,401.771 367.5,378.5C 367.802,375.941 367.468,373.607 366.5,371.5C 366.656,362.825 366.989,354.158 367.5,345.5C 376.58,290.91 406.913,253.41 458.5,233C 466.838,230.333 475.172,228.167 483.5,226.5C 497.167,225.167 510.833,225.167 524.5,226.5 Z"/></g>
<g><path style="opacity:1" fill="#12191d" d="M 367.5,378.5 C 370.033,401.771 377.699,423.104 390.5,442.5C 377.294,425.305 369.294,405.305 366.5,382.5C 366.511,380.955 366.844,379.622 367.5,378.5 Z"/></g>
<g><path style="opacity:1" fill="#12181d" d="M 638.5,389.5 C 637.203,404.236 632.703,418.236 625,431.5C 624.31,432.738 623.81,432.738 623.5,431.5C 630.48,418.226 635.48,404.226 638.5,389.5 Z"/></g>
<g><path style="opacity:1" fill="#111a1e" d="M 640.5,378.5 C 640.5,368.167 640.5,357.833 640.5,347.5C 640.351,346.448 640.517,345.448 641,344.5C 642.974,357.162 642.974,369.829 641,382.5C 640.51,381.207 640.343,379.873 640.5,378.5 Z"/></g>
<g><path style="opacity:1" fill="#111618" d="M 367.5,345.5 C 366.989,354.158 366.656,362.825 366.5,371.5C 365.298,367.888 365.131,360.221 366,348.5C 366.333,346.5 366.667,344.5 367,342.5C 367.483,343.448 367.649,344.448 367.5,345.5 Z"/></g>
<g><path style="opacity:1" fill="#161d22" d="M 568.5,241.5 C 568.56,240.957 568.893,240.624 569.5,240.5C 599.288,256.455 620.455,280.122 633,311.5C 633.74,312.749 633.573,313.749 632.5,314.5C 620.411,282.077 599.078,257.744 568.5,241.5 Z"/></g>
<g><path style="opacity:1" fill="#0e151a" d="M 524.5,226.5 C 510.833,225.167 497.167,225.167 483.5,226.5C 482.761,226.631 482.094,226.464 481.5,226C 496.816,222.798 512.149,222.798 527.5,226C 526.552,226.483 525.552,226.649 524.5,226.5 Z"/></g>
<g><path style="opacity:1" fill="#151b1f" d="M 420.5,513.5 C 403.861,505.207 389.528,493.874 377.5,479.5C 377.435,479.062 377.601,478.728 378,478.5C 384.531,485.365 391.364,491.865 398.5,498C 406.576,503.108 413.909,508.275 420.5,513.5 Z"/></g>
<g><path style="opacity:1" fill="#fe3317" d="M 791.5,501.5 C 794.422,508.524 796.089,515.857 796.5,523.5C 794.874,517.272 792.874,510.439 790.5,503C 790.57,502.235 790.903,501.735 791.5,501.5 Z"/></g>
<g><path style="opacity:1" fill="#151b1f" d="M 601.5,505.5 C 585.28,516.775 567.613,525.109 548.5,530.5C 547.761,530.631 547.094,530.464 546.5,530C 565.954,524.438 583.954,515.938 600.5,504.5C 601.107,504.624 601.44,504.957 601.5,505.5 Z"/></g>
<g><path style="opacity:1" fill="#fe361a" d="M 806.5,534.5 C 813.003,535.759 819.003,538.093 824.5,541.5C 824.44,542.043 824.107,542.376 823.5,542.5C 817.175,539.696 811.508,537.029 806.5,534.5 Z"/></g>
<g><path style="opacity:1" fill="#131a1e" d="M 378.5,527.5 C 378.938,527.435 379.272,527.601 379.5,528C 377.508,528.574 376.008,529.741 375,531.5C 374.439,530.978 373.772,530.645 373,530.5C 367.758,532.136 362.591,533.97 357.5,536C 343.807,542.18 330.807,548.68 318.5,555.5C 336.848,542.924 356.848,533.591 378.5,527.5 Z"/></g>
<g><path style="opacity:1" fill="#fe3318" d="M 638.5,533.5 C 639.552,533.351 640.552,533.517 641.5,534C 630.291,535.291 619.958,538.958 610.5,545C 602.63,551.045 595.297,557.545 588.5,564.5C 600.722,547.053 617.389,536.72 638.5,533.5 Z"/></g>
<g><path style="opacity:1" fill="#fc2d15" d="M 696.5,524.5 C 697.525,524.897 697.692,525.563 697,526.5C 692.5,531 688,535.5 683.5,540C 681.711,540.52 680.044,540.187 678.5,539C 678.728,538.601 679.062,538.435 679.5,538.5C 680.496,538.414 681.329,538.748 682,539.5C 687.037,534.631 691.87,529.631 696.5,524.5 Z"/></g>
<g><path style="opacity:1" fill="#14191c" d="M 517.5,536.5 C 504.84,537.272 492.174,537.938 479.5,538.5C 478.127,538.657 476.793,538.49 475.5,538C 489.612,535.826 503.612,535.326 517.5,536.5 Z"/></g>
<g><path style="opacity:1" fill="#171e22" d="M 422.5,548.5 C 409.441,551.964 396.441,555.631 383.5,559.5C 383.062,559.565 382.728,559.399 382.5,559C 395.631,553.66 408.965,550.16 422.5,548.5 Z"/></g>
<g><path style="opacity:1" fill="#020b11" d="M 299.5,569.5 C 299.938,569.435 300.272,569.601 300.5,570C 294.969,576.065 289.303,581.231 283.5,585.5C 288.5,579.833 293.833,574.5 299.5,569.5 Z"/></g>
<g><path style="opacity:1" fill="#fe3218" d="M 576.5,585.5 C 577.043,585.56 577.376,585.893 577.5,586.5C 575.175,593.543 572.842,599.876 570.5,605.5C 571.496,598.515 573.496,591.848 576.5,585.5 Z"/></g>
<g><path style="opacity:1" fill="#0d1418" d="M 275.5,594.5 C 276.239,594.369 276.906,594.536 277.5,595C 273.95,598.883 270.783,603.049 268,607.5C 262.939,616.368 258.106,624.701 253.5,632.5C 259.306,618.879 266.64,606.212 275.5,594.5 Z"/></g>
<g><path style="opacity:1" fill="#12191d" d="M 252.5,634.5 C 253.043,634.56 253.376,634.893 253.5,635.5C 247.612,649.383 243.112,663.716 240,678.5C 239.536,677.906 239.369,677.239 239.5,676.5C 241.996,661.826 246.33,647.826 252.5,634.5 Z"/></g>
<g><path style="opacity:1" fill="#fe4023" d="M 609.5,712.5 C 593.822,696.457 582.155,677.791 574.5,656.5C 577.254,660.671 579.754,665.671 582,671.5C 582.333,670.833 582.667,670.167 583,669.5C 585.465,671.055 585.965,673.055 584.5,675.5C 585.333,677.167 586.167,678.833 587,680.5C 593.956,691.054 601.456,701.721 609.5,712.5 Z"/></g>
<g><path style="opacity:1" fill="#12191c" d="M 270.5,686.5 C 266.725,708.678 265.225,731.011 266,753.5C 266.44,755.866 266.94,758.199 267.5,760.5C 267.19,761.738 266.69,761.738 266,760.5C 265.667,759.167 265.333,757.833 265,756.5C 263.065,732.278 264.731,708.278 270,684.5C 270.464,685.094 270.631,685.761 270.5,686.5 Z"/></g>
<g><path style="opacity:1" fill="#12262d" d="M 238.5,679.5 C 239.147,680.274 239.48,681.274 239.5,682.5C 237.427,693.415 236.094,704.415 235.5,715.5C 237.527,715.338 239.527,715.505 241.5,716C 240.89,718.466 241.224,720.966 242.5,723.5C 241.284,724.096 239.951,724.263 238.5,724C 238.833,724.333 239.167,724.667 239.5,725C 238.584,725.374 237.75,725.874 237,726.5C 236.333,724.5 235.667,722.5 235,720.5C 234.831,733.673 234.331,746.673 233.5,759.5C 231.594,732.606 233.261,705.94 238.5,679.5 Z"/></g>
<g><path style="opacity:1" fill="#fd270e" d="M 633.5,739.5 C 630.167,736.833 627.167,733.833 624.5,730.5C 624.435,730.062 624.601,729.728 625,729.5C 628.442,732.432 631.275,735.765 633.5,739.5 Z"/></g>
<g><path style="opacity:1" fill="#fe3a1f" d="M 633.5,739.5 C 651.803,755.976 670.47,771.976 689.5,787.5C 678.778,780.291 668.445,772.458 658.5,764C 649.662,756.328 641.328,748.162 633.5,739.5 Z"/></g>
<g><path style="opacity:1" fill="#04131c" d="M 286.5,776.5 C 394.541,776.171 502.541,776.504 610.5,777.5C 503.001,778.666 395.334,778.833 287.5,778C 286.5,777.667 285.5,777.333 284.5,777C 285.094,776.536 285.761,776.369 286.5,776.5 Z"/></g>
<g><path style="opacity:1" fill="#12181c" d="M 279.5,807.5 C 260.179,803.511 246.512,792.511 238.5,774.5C 238.81,773.262 239.31,773.262 240,774.5C 248.258,792.387 262.091,803.22 281.5,807C 280.906,807.464 280.239,807.631 279.5,807.5 Z"/></g>
</svg>
