<?xml version="1.0" encoding="UTF-8"?>
<!DOCTYPE svg PUBLIC "-//W3C//DTD SVG 1.1//EN" "http://www.w3.org/Graphics/SVG/1.1/DTD/svg11.dtd">
<svg xmlns="http://www.w3.org/2000/svg" version="1.1" width="2048px" height="2048px" style="shape-rendering:geometricPrecision; text-rendering:geometricPrecision; image-rendering:optimizeQuality; fill-rule:evenodd; clip-rule:evenodd" xmlns:xlink="http://www.w3.org/1999/xlink">
<g><path style="opacity:1" fill="#000000" d="M 1064.5,381.5 C 1086.33,379.863 1101.83,388.863 1111,408.5C 1112.47,412.723 1113.47,417.057 1114,421.5C 1114.97,495.521 1114.64,569.521 1113,643.5C 1103.98,670.433 1085.48,680.933 1057.5,675C 1042.3,669.135 1032.8,658.302 1029,642.5C 1027.51,567.181 1027.51,491.848 1029,416.5C 1033.46,397.202 1045.3,385.535 1064.5,381.5 Z"/></g>
<g><path style="opacity:1" fill="#000000" d="M 1000.5,483.5 C 1001.83,483.5 1003.17,483.5 1004.5,483.5C 1004.92,521.168 1005.09,558.835 1005,596.5C 854.201,625.652 745.535,709.319 679,847.5C 663.624,882.127 652.791,918.127 646.5,955.5C 608.494,955.833 570.494,955.5 532.5,954.5C 560.15,780.819 648.15,647.652 796.5,555C 859.701,517.323 927.701,493.489 1000.5,483.5 Z"/></g>
<g><path style="opacity:1" fill="#000000" d="M 1137.5,483.5 C 1233.54,495.551 1319.87,530.717 1396.5,589C 1503.46,672.327 1571.96,780.494 1602,913.5C 1605.14,927.36 1607.31,941.36 1608.5,955.5C 1570.83,955.5 1533.17,955.5 1495.5,955.5C 1472.37,829.653 1408.04,731.153 1302.5,660C 1252.03,627.443 1197.03,606.61 1137.5,597.5C 1137.5,559.5 1137.5,521.5 1137.5,483.5 Z"/></g>
<g><path style="opacity:1" fill="#000000" d="M 1048.5,710.5 C 1169.53,706.433 1264.37,753.766 1333,852.5C 1388.74,943.529 1398.07,1039.2 1361,1139.5C 1320.94,1232.9 1252.44,1294.73 1155.5,1325C 1044.62,1352.24 946.286,1328.57 860.5,1254C 777.46,1173.54 745.627,1076.04 765,961.5C 785.846,867.7 837.679,796.867 920.5,749C 960.677,727.462 1003.34,714.628 1048.5,710.5 Z M 1057.5,821.5 C 1131.03,819.146 1190.2,846.813 1235,904.5C 1275.74,964.099 1284.07,1027.77 1260,1095.5C 1223.95,1178 1160.79,1221.34 1070.5,1225.5C 1004.67,1223.17 951.171,1196.5 910,1145.5C 860.298,1074.61 855.298,1000.61 895,923.5C 932.537,863.151 986.704,829.151 1057.5,821.5 Z"/></g>
<g><path style="opacity:1" fill="#000000" d="M 1060.5,905.5 C 1121.6,904.605 1162.76,932.605 1184,989.5C 1197.08,1046.13 1179.92,1090.97 1132.5,1124C 1092.35,1145.61 1052.02,1145.95 1011.5,1125C 964.613,1093.7 946.446,1050.2 957,994.5C 973.07,943.239 1007.57,913.572 1060.5,905.5 Z"/></g>
<g><path style="opacity:1" fill="#000000" d="M 459.5,979.5 C 535.834,979.333 612.167,979.5 688.5,980C 706.599,983.432 718.432,993.932 724,1011.5C 728.441,1032.2 721.941,1048.36 704.5,1060C 699.768,1062.47 694.768,1064.13 689.5,1065C 612.833,1065.67 536.167,1065.67 459.5,1065C 437.715,1059.43 426.048,1045.43 424.5,1023C 425.376,999.718 437.043,985.218 459.5,979.5 Z"/></g>
<g><path style="opacity:1" fill="#000000" d="M 1454.5,979.5 C 1530.5,979.333 1606.5,979.5 1682.5,980C 1700.9,984.064 1712.4,995.23 1717,1013.5C 1719.87,1040.96 1708.03,1058.13 1681.5,1065C 1605.5,1065.67 1529.5,1065.67 1453.5,1065C 1425.67,1057.19 1414.17,1039.02 1419,1010.5C 1425.16,993.492 1437,983.159 1454.5,979.5 Z"/></g>
<g><path style="opacity:1" fill="#000000" d="M 532.5,1089.5 C 570.5,1089.5 608.5,1089.5 646.5,1089.5C 669.814,1217.38 735.481,1316.88 843.5,1388C 893.12,1419.82 947.12,1440.32 1005.5,1449.5C 1005.5,1487.5 1005.5,1525.5 1005.5,1563.5C 861.147,1542.43 742.647,1476.1 650,1364.5C 585.54,1284.05 546.374,1192.38 532.5,1089.5 Z"/></g>
<g><path style="opacity:1" fill="#000000" d="M 1495.5,1089.5 C 1533.5,1089.5 1571.5,1089.5 1609.5,1089.5C 1592.48,1213.54 1540.31,1319.87 1453,1408.5C 1365.55,1495.14 1260.39,1546.47 1137.5,1562.5C 1137.5,1524.83 1137.5,1487.17 1137.5,1449.5C 1257.89,1427.83 1353.39,1367.5 1424,1268.5C 1461.11,1214.25 1484.95,1154.59 1495.5,1089.5 Z"/></g>
<g><path style="opacity:1" fill="#000000" d="M 1065.5,1369.5 C 1085.67,1368.66 1100.51,1377 1110,1394.5C 1112.27,1399.59 1113.61,1404.92 1114,1410.5C 1114.97,1484.19 1114.64,1557.86 1113,1631.5C 1107.01,1652.32 1093.18,1663.32 1071.5,1664.5C 1049.03,1663.52 1034.86,1652.18 1029,1630.5C 1028.33,1555.17 1028.33,1479.83 1029,1404.5C 1033.57,1384.82 1045.73,1373.15 1065.5,1369.5 Z"/></g>
</svg>
