<?xml version="1.0" encoding="UTF-8"?>
<!DOCTYPE svg PUBLIC "-//W3C//DTD SVG 1.1//EN" "http://www.w3.org/Graphics/SVG/1.1/DTD/svg11.dtd">
<svg xmlns="http://www.w3.org/2000/svg" version="1.1" width="1024px" height="1024px" style="shape-rendering:geometricPrecision; text-rendering:geometricPrecision; image-rendering:optimizeQuality; fill-rule:evenodd; clip-rule:evenodd" xmlns:xlink="http://www.w3.org/1999/xlink">
<g><path style="opacity:1" fill="#fb1b10" d="M 413.5,196.5 C 413.565,196.938 413.399,197.272 413,197.5C 411.355,195.338 409.188,194.005 406.5,193.5C 397.259,197.249 388.926,202.415 381.5,209C 380.563,209.692 379.897,209.525 379.5,208.5C 386.961,202.596 394.961,197.43 403.5,193C 407.872,191.581 411.206,192.748 413.5,196.5 Z"/></g>
<g><path style="opacity:1" fill="#f83f32" d="M 627.5,196.5 C 626.668,197.329 627.001,198.162 628.5,199C 679.243,234.941 708.076,284.108 715,346.5C 715.333,362.833 715.667,379.167 716,395.5C 717.458,397.96 719.291,400.127 721.5,402C 726.876,404.403 732.209,406.903 737.5,409.5C 738.107,409.376 738.44,409.043 738.5,408.5C 758.885,420.211 776.551,435.211 791.5,453.5C 790.475,453.897 790.308,454.563 791,455.5C 799.237,464.968 806.237,475.302 812,486.5C 812.464,485.906 812.631,485.239 812.5,484.5C 813.401,485.29 814.068,486.29 814.5,487.5C 813.761,487.369 813.094,487.536 812.5,488C 830.063,519.65 837.063,553.483 833.5,589.5C 833.957,590.298 834.624,590.631 835.5,590.5C 835.315,597.193 831.981,600.026 825.5,599C 823.333,598.167 821.833,596.667 821,594.5C 819.974,591.198 819.14,587.865 818.5,584.5C 819.376,584.631 820.043,584.298 820.5,583.5C 817.064,570.188 812.064,557.521 805.5,545.5C 805.043,544.702 804.376,544.369 803.5,544.5C 799.503,538.508 795.503,532.508 791.5,526.5C 791.141,524.629 790.141,523.129 788.5,522C 788.854,520.374 788.854,518.541 788.5,516.5C 785.439,516.556 783.272,515.222 782,512.5C 781.667,513.167 781.333,513.833 781,514.5C 771.856,504.732 761.356,497.732 749.5,493.5C 748.508,493.672 747.842,493.338 747.5,492.5C 748.738,492.19 748.738,491.69 747.5,491C 740.933,488.2 734.266,485.7 727.5,483.5C 726.584,483.543 725.917,483.876 725.5,484.5C 708.321,480.083 690.988,479.416 673.5,482.5C 664.336,482.872 655.336,485.038 646.5,489C 642.616,490.547 639.616,492.38 637.5,494.5C 626.032,500.629 615.365,507.963 605.5,516.5C 605.103,515.475 604.437,515.308 603.5,516C 598.898,520.094 594.898,524.594 591.5,529.5C 583.745,539.351 576.745,549.685 570.5,560.5C 570.19,559.262 569.69,559.262 569,560.5C 563.507,570.482 560.007,580.815 558.5,591.5C 558.279,594.067 557.612,596.401 556.5,598.5C 556.631,597.761 556.464,597.094 556,596.5C 552.262,613.029 551.595,629.696 554,646.5C 554.483,645.552 554.649,644.552 554.5,643.5C 555.434,644.568 555.768,645.901 555.5,647.5C 555.389,657.752 557.555,667.752 562,677.5C 562.399,677.272 562.565,676.938 562.5,676.5C 563.401,677.29 564.068,678.29 564.5,679.5C 563.761,679.369 563.094,679.536 562.5,680C 574.203,707.706 593.037,729.206 619,744.5C 619.464,743.906 619.631,743.239 619.5,742.5C 620.167,742.5 620.5,742.833 620.5,743.5C 620.937,745.074 621.937,746.241 623.5,747C 631.867,750.898 640.367,754.398 649,757.5C 649.464,756.906 649.631,756.239 649.5,755.5C 656.892,757.442 664.225,759.109 671.5,760.5C 670.448,760.351 669.448,760.517 668.5,761C 673.767,762.054 679.101,762.554 684.5,762.5C 691.318,762.787 696.651,762.121 700.5,760.5C 701.209,759.596 702.209,759.263 703.5,759.5C 707.372,760.56 711.372,760.393 715.5,759C 721.641,757.682 727.307,755.515 732.5,752.5C 737.394,751.698 740.061,754.032 740.5,759.5C 739.812,764.194 737.146,767.194 732.5,768.5C 732.44,767.957 732.107,767.624 731.5,767.5C 718.146,775.119 704.146,781.285 689.5,786C 689.728,786.399 690.062,786.565 690.5,786.5C 690.158,787.338 689.492,787.672 688.5,787.5C 688.083,786.876 687.416,786.543 686.5,786.5C 676.007,789.304 665.34,791.138 654.5,792C 641.66,792.169 628.993,792.669 616.5,793.5C 614.901,793.768 613.568,793.434 612.5,792.5C 613.552,792.649 614.552,792.483 615.5,792C 608.93,791.211 602.43,790.044 596,788.5C 594.93,788.528 594.097,788.861 593.5,789.5C 582.079,786.804 571.079,783.137 560.5,778.5C 561.738,778.19 561.738,777.69 560.5,777C 545.555,770.531 531.555,762.531 518.5,753C 514.248,750.867 510.248,751.034 506.5,753.5C 486.373,769.564 463.706,780.897 438.5,787.5C 438.083,786.876 437.416,786.543 436.5,786.5C 426,789.3 415.334,791.133 404.5,792C 390.661,792.169 376.994,792.669 363.5,793.5C 361.901,793.768 360.568,793.434 359.5,792.5C 360.552,792.649 361.552,792.483 362.5,792C 357.094,791.385 351.761,790.385 346.5,789C 348.5,788.667 350.5,788.333 352.5,788C 351.692,787.692 351.025,787.192 350.5,786.5C 351.729,785.719 353.062,785.219 354.5,785C 351.986,783.748 349.32,783.248 346.5,783.5C 347.085,786.261 346.085,787.927 343.5,788.5C 333.554,786.358 323.887,783.358 314.5,779.5C 313.893,779.624 313.56,779.957 313.5,780.5C 304.021,776.595 295.021,771.928 286.5,766.5C 286.938,766.565 287.272,766.399 287.5,766C 282.532,763.578 281.532,760.078 284.5,755.5C 286.586,754.511 288.253,753.178 289.5,751.5C 292.989,752.658 296.322,753.991 299.5,755.5C 298.262,755.81 298.262,756.31 299.5,757C 306.113,758.82 312.779,760.32 319.5,761.5C 320.298,761.043 320.631,760.376 320.5,759.5C 321.791,759.263 322.791,759.596 323.5,760.5C 322.761,760.369 322.094,760.536 321.5,761C 334.879,763.089 348.212,762.756 361.5,760C 360.552,759.517 359.552,759.351 358.5,759.5C 359.568,758.566 360.901,758.232 362.5,758.5C 385.59,755.964 405.923,746.798 423.5,731C 423.272,730.601 422.938,730.435 422.5,730.5C 422.842,729.662 423.508,729.328 424.5,729.5C 430.242,725.265 435.575,720.432 440.5,715C 440.272,714.601 439.938,714.435 439.5,714.5C 440.786,711.883 442.453,709.55 444.5,707.5C 444.435,707.938 444.601,708.272 445,708.5C 459.685,689.842 467.519,668.842 468.5,645.5C 468.232,643.901 468.566,642.568 469.5,641.5C 471.119,639.186 471.785,634.686 471.5,628C 471.454,622.787 470.954,617.62 470,612.5C 469.517,613.448 469.351,614.448 469.5,615.5C 468.172,607.222 466.505,598.889 464.5,590.5C 465.124,590.083 465.457,589.416 465.5,588.5C 459.806,569.775 450.972,552.775 439,537.5C 438.601,537.728 438.435,538.062 438.5,538.5C 437.662,538.158 437.328,537.492 437.5,536.5C 419.958,513.043 397.291,496.376 369.5,486.5C 368.893,486.624 368.56,486.957 368.5,487.5C 361.143,485.163 353.81,483.163 346.5,481.5C 347.239,481.631 347.906,481.464 348.5,481C 328.838,477.299 309.505,478.632 290.5,485C 291.094,485.464 291.761,485.631 292.5,485.5C 288.332,487.338 283.998,489.005 279.5,490.5C 279.44,489.957 279.107,489.624 278.5,489.5C 270.781,493.067 263.448,497.233 256.5,502C 255.262,502.69 255.262,503.19 256.5,503.5C 239.954,516.046 226.62,531.379 216.5,549.5C 216.19,548.262 215.69,548.262 215,549.5C 207.142,564.116 202.642,579.45 201.5,595.5C 201.5,596.167 201.167,596.5 200.5,596.5C 196.35,599.501 192.517,599.168 189,595.5C 188.601,595.728 188.435,596.062 188.5,596.5C 187.662,596.158 187.328,595.492 187.5,594.5C 188.376,594.631 189.043,594.298 189.5,593.5C 188.851,580.372 188.184,567.372 187.5,554.5C 188.087,548.963 189.087,543.63 190.5,538.5C 190.369,539.239 190.536,539.906 191,540.5C 194.739,521.947 201.239,504.447 210.5,488C 209.906,487.536 209.239,487.369 208.5,487.5C 216.315,473.361 225.648,460.361 236.5,448.5C 242.303,444.231 247.969,439.065 253.5,433C 258.317,428.76 263.317,424.76 268.5,421C 268.272,420.601 267.938,420.435 267.5,420.5C 275.288,414.432 283.621,409.099 292.5,404.5C 292.369,405.239 292.536,405.906 293,406.5C 296.914,404.46 300.748,402.293 304.5,400C 306.354,397.457 307.521,394.624 308,391.5C 307.512,374.668 307.345,358.002 307.5,341.5C 307.232,339.901 307.566,338.568 308.5,337.5C 308.351,338.552 308.517,339.552 309,340.5C 312.015,317.125 318.848,294.958 329.5,274C 328.906,273.536 328.239,273.369 327.5,273.5C 327.932,272.29 328.599,271.29 329.5,270.5C 329.369,271.239 329.536,271.906 330,272.5C 334.245,263.669 339.245,255.336 345,247.5C 345.692,246.563 345.525,245.897 344.5,245.5C 349.034,239.091 354.034,233.091 359.5,227.5C 359.435,227.938 359.601,228.272 360,228.5C 363.833,224.667 367.667,220.833 371.5,217C 371.272,216.601 370.938,216.435 370.5,216.5C 373.474,213.862 376.474,211.195 379.5,208.5C 379.897,209.525 380.563,209.692 381.5,209C 388.926,202.415 397.259,197.249 406.5,193.5C 409.188,194.005 411.355,195.338 413,197.5C 413.399,197.272 413.565,196.938 413.5,196.5C 414.613,197.946 414.78,199.613 414,201.5C 390.633,222.241 376.133,247.908 370.5,278.5C 363.468,313.557 369.301,347.891 388,381.5C 399.406,400.073 414.573,414.74 433.5,425.5C 434.107,425.376 434.44,425.043 434.5,424.5C 441.62,428.727 448.953,432.393 456.5,435.5C 455.262,435.81 455.262,436.31 456.5,437C 462.027,438.842 467.527,440.676 473,442.5C 473.464,441.906 473.631,441.239 473.5,440.5C 490.933,444.842 508.599,446.176 526.5,444.5C 532.791,445.741 539.125,445.241 545.5,443C 544.906,442.536 544.239,442.369 543.5,442.5C 544.209,441.596 545.209,441.263 546.5,441.5C 577.554,436.207 603.72,421.541 625,397.5C 625.692,396.563 625.525,395.897 624.5,395.5C 631.511,386.81 637.511,377.476 642.5,367.5C 642.81,368.738 643.31,368.738 644,367.5C 648.977,356.09 652.477,344.257 654.5,332C 654.486,330.615 654.152,329.449 653.5,328.5C 653.232,326.901 653.566,325.568 654.5,324.5C 656.132,320.634 656.799,314.634 656.5,306.5C 656.694,301.064 656.361,297.731 655.5,296.5C 654.566,295.432 654.232,294.099 654.5,292.5C 655.161,290.866 655.494,289.033 655.5,287C 655.764,282.821 655.097,280.321 653.5,279.5C 652.194,274.277 650.861,268.944 649.5,263.5C 650.124,263.083 650.457,262.416 650.5,261.5C 642.981,237.109 629.481,216.775 610,200.5C 609.212,197.228 609.712,194.228 611.5,191.5C 613.628,190.371 615.961,190.204 618.5,191C 621.564,192.859 624.564,194.692 627.5,196.5 Z M 518.5,477.5 C 520.302,478.458 522.302,479.125 524.5,479.5C 538.261,484.658 547.261,494.324 551.5,508.5C 551.927,511.01 552.593,513.343 553.5,515.5C 553.829,525.848 551.496,535.515 546.5,544.5C 535.591,559.277 520.924,565.277 502.5,562.5C 485.509,558.176 474.843,547.509 470.5,530.5C 470.737,529.209 470.404,528.209 469.5,527.5C 469.36,521.464 469.693,515.464 470.5,509.5C 473.427,500.556 478.427,492.889 485.5,486.5C 495.269,479.306 506.269,476.306 518.5,477.5 Z"/></g>
<g><path style="opacity:1" fill="#fb1008" d="M 370.5,216.5 C 370.938,216.435 371.272,216.601 371.5,217C 367.667,220.833 363.833,224.667 360,228.5C 359.601,228.272 359.435,227.938 359.5,227.5C 362.833,223.5 366.5,219.833 370.5,216.5 Z"/></g>
<g><path style="opacity:1" fill="#fa2215" d="M 611.5,191.5 C 609.712,194.228 609.212,197.228 610,200.5C 629.481,216.775 642.981,237.109 650.5,261.5C 650.457,262.416 650.124,263.083 649.5,263.5C 642.263,238.679 628.763,218.012 609,201.5C 606.701,197.362 607.535,194.028 611.5,191.5 Z"/></g>
<g><path style="opacity:1" fill="#fc1b10" d="M 344.5,245.5 C 345.525,245.897 345.692,246.563 345,247.5C 339.245,255.336 334.245,263.669 330,272.5C 329.536,271.906 329.369,271.239 329.5,270.5C 333.734,261.697 338.734,253.364 344.5,245.5 Z"/></g>
<g><path style="opacity:1" fill="#fd1a0c" d="M 654.5,292.5 C 654.261,288.158 653.927,283.824 653.5,279.5C 655.097,280.321 655.764,282.821 655.5,287C 655.494,289.033 655.161,290.866 654.5,292.5 Z"/></g>
<g><path style="opacity:1" fill="#fc2415" d="M 627.5,196.5 C 672.71,227.275 701.21,269.608 713,323.5C 717.27,346.671 718.603,370.005 717,393.5C 718.031,396.539 719.865,399.039 722.5,401C 727.98,403.241 733.313,405.741 738.5,408.5C 738.44,409.043 738.107,409.376 737.5,409.5C 732.209,406.903 726.876,404.403 721.5,402C 719.291,400.127 717.458,397.96 716,395.5C 715.667,379.167 715.333,362.833 715,346.5C 708.076,284.108 679.243,234.941 628.5,199C 627.001,198.162 626.668,197.329 627.5,196.5 Z"/></g>
<g><path style="opacity:1" fill="#fc2012" d="M 327.5,273.5 C 328.239,273.369 328.906,273.536 329.5,274C 318.848,294.958 312.015,317.125 309,340.5C 308.517,339.552 308.351,338.552 308.5,337.5C 311.201,315.065 317.535,293.731 327.5,273.5 Z"/></g>
<g><path style="opacity:1" fill="#fd1f0f" d="M 654.5,324.5 C 655.068,315.177 655.401,305.844 655.5,296.5C 656.361,297.731 656.694,301.064 656.5,306.5C 656.799,314.634 656.132,320.634 654.5,324.5 Z"/></g>
<g><path style="opacity:1" fill="#fe1e11" d="M 518.5,328.5 C 509.384,330.328 499.884,331.328 490,331.5C 487.967,331.494 486.134,331.161 484.5,330.5C 495.768,328.916 507.102,328.249 518.5,328.5 Z"/></g>
<g><path style="opacity:1" fill="#f94033" d="M 518.5,328.5 C 521.385,328.194 524.052,328.527 526.5,329.5C 524.143,329.337 521.81,329.503 519.5,330C 523.753,330.2 527.92,330.7 532,331.5C 532.464,330.906 532.631,330.239 532.5,329.5C 538.025,330.141 543.358,331.141 548.5,332.5C 548.062,332.435 547.728,332.601 547.5,333C 561.133,336.198 574.3,340.698 587,346.5C 587.464,345.906 587.631,345.239 587.5,344.5C 596.324,348.824 604.491,354.157 612,360.5C 612.667,363.167 612.667,365.833 612,368.5C 605.5,379 597,387.5 586.5,394C 580.858,395.859 575.858,394.693 571.5,390.5C 572.738,390.19 572.738,389.69 571.5,389C 546.2,377.879 519.867,374.213 492.5,378C 493.448,378.483 494.448,378.649 495.5,378.5C 483.655,380.379 471.988,383.379 460.5,387.5C 460.44,386.957 460.107,386.624 459.5,386.5C 454.713,388.393 450.047,390.56 445.5,393C 443.5,393.667 441.5,393.667 439.5,393C 428.327,385.307 418.993,376.473 411.5,366.5C 410.167,364.833 410.167,363.167 411.5,361.5C 411.369,362.239 411.536,362.906 412,363.5C 421.395,354.543 432.229,347.71 444.5,343C 457.139,338.121 470.139,334.455 483.5,332C 482.906,331.536 482.239,331.369 481.5,331.5C 482.209,330.596 483.209,330.263 484.5,330.5C 486.134,331.161 487.967,331.494 490,331.5C 499.884,331.328 509.384,330.328 518.5,328.5 Z"/></g>
<g><path style="opacity:1" fill="#fd0502" d="M 526.5,329.5 C 528.5,329.5 530.5,329.5 532.5,329.5C 532.631,330.239 532.464,330.906 532,331.5C 527.92,330.7 523.753,330.2 519.5,330C 521.81,329.503 524.143,329.337 526.5,329.5 Z"/></g>
<g><path style="opacity:1" fill="#fd2115" d="M 548.5,332.5 C 562.005,334.891 575.005,338.891 587.5,344.5C 587.631,345.239 587.464,345.906 587,346.5C 574.3,340.698 561.133,336.198 547.5,333C 547.728,332.601 548.062,332.435 548.5,332.5 Z"/></g>
<g><path style="opacity:1" fill="#fc2919" d="M 370.5,278.5 C 365.282,315.862 372.116,350.862 391,383.5C 402.429,400.457 416.929,414.124 434.5,424.5C 434.44,425.043 434.107,425.376 433.5,425.5C 414.573,414.74 399.406,400.073 388,381.5C 369.301,347.891 363.468,313.557 370.5,278.5 Z"/></g>
<g><path style="opacity:1" fill="#fd2013" d="M 481.5,331.5 C 482.239,331.369 482.906,331.536 483.5,332C 470.139,334.455 457.139,338.121 444.5,343C 432.229,347.71 421.395,354.543 412,363.5C 411.536,362.906 411.369,362.239 411.5,361.5C 426.658,348.753 443.992,339.919 463.5,335C 469.399,333.253 475.399,332.087 481.5,331.5 Z"/></g>
<g><path style="opacity:1" fill="#fb1c11" d="M 653.5,328.5 C 654.152,329.449 654.486,330.615 654.5,332C 652.477,344.257 648.977,356.09 644,367.5C 643.31,368.738 642.81,368.738 642.5,367.5C 647.876,355 651.542,342 653.5,328.5 Z"/></g>
<g><path style="opacity:1" fill="#fd2b1a" d="M 571.5,390.5 C 547.202,380.076 521.868,376.076 495.5,378.5C 494.448,378.649 493.448,378.483 492.5,378C 519.867,374.213 546.2,377.879 571.5,389C 572.738,389.69 572.738,390.19 571.5,390.5 Z"/></g>
<g><path style="opacity:1" fill="#fc2718" d="M 307.5,341.5 C 307.345,358.002 307.512,374.668 308,391.5C 307.521,394.624 306.354,397.457 304.5,400C 300.748,402.293 296.914,404.46 293,406.5C 292.536,405.906 292.369,405.239 292.5,404.5C 298.532,403.234 303.032,399.901 306,394.5C 306.57,385.658 306.403,376.824 305.5,368C 306.049,359.149 306.716,350.316 307.5,341.5 Z"/></g>
<g><path style="opacity:1" fill="#fb2114" d="M 460.5,387.5 C 455.072,389.713 449.739,392.213 444.5,395C 443.167,395.667 441.833,395.667 440.5,395C 428.315,387.981 418.649,378.481 411.5,366.5C 418.993,376.473 428.327,385.307 439.5,393C 441.5,393.667 443.5,393.667 445.5,393C 450.047,390.56 454.713,388.393 459.5,386.5C 460.107,386.624 460.44,386.957 460.5,387.5 Z"/></g>
<g><path style="opacity:1" fill="#fd1d11" d="M 624.5,395.5 C 625.525,395.897 625.692,396.563 625,397.5C 603.72,421.541 577.554,436.207 546.5,441.5C 577.468,434.358 603.468,419.025 624.5,395.5 Z"/></g>
<g><path style="opacity:1" fill="#fc1e13" d="M 456.5,435.5 C 462.107,437.369 467.774,439.036 473.5,440.5C 473.631,441.239 473.464,441.906 473,442.5C 467.527,440.676 462.027,438.842 456.5,437C 455.262,436.31 455.262,435.81 456.5,435.5 Z"/></g>
<g><path style="opacity:1" fill="#fe1a0f" d="M 543.5,442.5 C 544.239,442.369 544.906,442.536 545.5,443C 539.125,445.241 532.791,445.741 526.5,444.5C 532.167,443.833 537.833,443.167 543.5,442.5 Z"/></g>
<g><path style="opacity:1" fill="#fb140a" d="M 267.5,420.5 C 267.938,420.435 268.272,420.601 268.5,421C 263.317,424.76 258.317,428.76 253.5,433C 247.969,439.065 242.303,444.231 236.5,448.5C 245.613,437.716 255.946,428.382 267.5,420.5 Z"/></g>
<g><path style="opacity:1" fill="#f91f12" d="M 791.5,453.5 C 799.674,463.013 806.674,473.346 812.5,484.5C 812.631,485.239 812.464,485.906 812,486.5C 806.237,475.302 799.237,464.968 791,455.5C 790.308,454.563 790.475,453.897 791.5,453.5 Z"/></g>
<g><path style="opacity:1" fill="#fb1d11" d="M 518.5,477.5 C 506.269,476.306 495.269,479.306 485.5,486.5C 485.062,486.565 484.728,486.399 484.5,486C 495.201,477.319 506.534,474.486 518.5,477.5 Z"/></g>
<g><path style="opacity:1" fill="#fc2818" d="M 346.5,481.5 C 328.223,479.33 310.223,480.664 292.5,485.5C 291.761,485.631 291.094,485.464 290.5,485C 309.505,478.632 328.838,477.299 348.5,481C 347.906,481.464 347.239,481.631 346.5,481.5 Z"/></g>
<g><path style="opacity:1" fill="#fb2114" d="M 673.5,482.5 C 661.017,485.105 649.017,489.105 637.5,494.5C 639.616,492.38 642.616,490.547 646.5,489C 655.336,485.038 664.336,482.872 673.5,482.5 Z"/></g>
<g><path style="opacity:1" fill="#fb2014" d="M 725.5,484.5 C 725.917,483.876 726.584,483.543 727.5,483.5C 734.266,485.7 740.933,488.2 747.5,491C 748.738,491.69 748.738,492.19 747.5,492.5C 740.383,489.277 733.05,486.61 725.5,484.5 Z"/></g>
<g><path style="opacity:1" fill="#fb2d1c" d="M 524.5,479.5 C 524.735,478.903 525.235,478.57 526,478.5C 539.663,483.497 548.496,492.997 552.5,507C 552.43,507.765 552.097,508.265 551.5,508.5C 547.261,494.324 538.261,484.658 524.5,479.5 Z"/></g>
<g><path style="opacity:1" fill="#fb2315" d="M 368.5,487.5 C 368.56,486.957 368.893,486.624 369.5,486.5C 397.291,496.376 419.958,513.043 437.5,536.5C 418.673,514.347 395.673,498.014 368.5,487.5 Z"/></g>
<g><path style="opacity:1" fill="#fb1c11" d="M 279.5,490.5 C 271.577,494.433 263.91,498.766 256.5,503.5C 255.262,503.19 255.262,502.69 256.5,502C 263.448,497.233 270.781,493.067 278.5,489.5C 279.107,489.624 279.44,489.957 279.5,490.5 Z"/></g>
<g><path style="opacity:1" fill="#fc2517" d="M 208.5,487.5 C 209.239,487.369 209.906,487.536 210.5,488C 201.239,504.447 194.739,521.947 191,540.5C 190.536,539.906 190.369,539.239 190.5,538.5C 193.722,520.499 199.722,503.499 208.5,487.5 Z"/></g>
<g><path style="opacity:1" fill="#fc2516" d="M 691.5,565.5 C 690.876,565.083 690.543,564.416 690.5,563.5C 694.717,545.03 695.384,526.53 692.5,508C 679.692,507.616 667.359,509.95 655.5,515C 655,515.5 654.5,516 654,516.5C 653.801,523.885 653.135,531.218 652,538.5C 651.536,537.906 651.369,537.239 651.5,536.5C 652.045,530.442 652.045,524.442 651.5,518.5C 652.128,516.742 653.128,515.242 654.5,514C 666.965,507.958 679.965,505.625 693.5,507C 694.126,507.75 694.626,508.584 695,509.5C 697.341,528.41 696.175,547.077 691.5,565.5 Z"/></g>
<g><path style="opacity:1" fill="#f93f32" d="M 691.5,565.5 C 684.786,594.265 671.786,619.598 652.5,641.5C 652.565,641.062 652.399,640.728 652,640.5C 649.218,642.771 647.051,645.437 645.5,648.5C 644.118,651.394 642.118,653.894 639.5,656C 629.709,664.726 619.375,672.726 608.5,680C 604.989,682.505 601.156,684.339 597,685.5C 596.167,685.333 595.333,685.167 594.5,685C 585.664,674.014 579.997,661.514 577.5,647.5C 577.529,645.971 578.196,644.804 579.5,644C 582.059,642.223 584.726,640.723 587.5,639.5C 597.044,634.204 605.878,627.204 614,618.5C 614.692,617.563 614.525,616.897 613.5,616.5C 613.833,615.5 614.5,614.833 615.5,614.5C 615.435,614.938 615.601,615.272 616,615.5C 624.857,605.625 632.357,594.792 638.5,583C 637.906,582.536 637.239,582.369 636.5,582.5C 636.932,581.29 637.599,580.29 638.5,579.5C 638.721,582.097 639.221,582.097 640,579.5C 645.533,567.703 649.366,555.369 651.5,542.5C 651.48,541.274 651.147,540.274 650.5,539.5C 650.263,538.209 650.596,537.209 651.5,536.5C 651.369,537.239 651.536,537.906 652,538.5C 653.135,531.218 653.801,523.885 654,516.5C 654.5,516 655,515.5 655.5,515C 667.359,509.95 679.692,507.616 692.5,508C 695.384,526.53 694.717,545.03 690.5,563.5C 690.543,564.416 690.876,565.083 691.5,565.5 Z"/></g>
<g><path style="opacity:1" fill="#fd180e" d="M 470.5,509.5 C 469.693,515.464 469.36,521.464 469.5,527.5C 469.631,528.239 469.464,528.906 469,529.5C 467.096,522.399 467.429,515.399 470,508.5C 470.399,508.728 470.565,509.062 470.5,509.5 Z"/></g>
<g><path style="opacity:1" fill="#fc2a1a" d="M 814.5,487.5 C 831.613,519.733 838.613,554.066 835.5,590.5C 834.624,590.631 833.957,590.298 833.5,589.5C 837.063,553.483 830.063,519.65 812.5,488C 813.094,487.536 813.761,487.369 814.5,487.5 Z"/></g>
<g><path style="opacity:1" fill="#f94032" d="M 364.5,512.5 C 363.262,512.81 363.262,513.31 364.5,514C 366.329,514.273 367.829,515.107 369,516.5C 369.028,523.972 369.861,529.972 371.5,534.5C 372.404,535.209 372.737,536.209 372.5,537.5C 371.853,538.274 371.52,539.274 371.5,540.5C 372.816,548.284 374.65,555.951 377,563.5C 377.785,566.436 378.951,568.436 380.5,569.5C 381.801,572.101 383.134,574.768 384.5,577.5C 383.427,578.251 383.26,579.251 384,580.5C 389.666,591.839 396.332,602.506 404,612.5C 404.383,611.944 404.883,611.611 405.5,611.5C 406.167,611.5 406.5,611.833 406.5,612.5C 405.475,612.897 405.308,613.563 406,614.5C 411.833,620.333 417.667,626.167 423.5,632C 429.913,636.623 436.413,641.123 443,645.5C 443.186,648.036 443.686,650.369 444.5,652.5C 442.771,661.277 439.437,669.277 434.5,676.5C 434.565,676.062 434.399,675.728 434,675.5C 432.412,679.255 429.912,682.255 426.5,684.5C 423.812,683.487 421.146,682.487 418.5,681.5C 403.023,671.644 388.857,659.977 376,646.5C 375.601,646.728 375.435,647.062 375.5,647.5C 364.269,636.263 354.935,623.597 347.5,609.5C 348.043,609.44 348.376,609.107 348.5,608.5C 347.902,607.205 347.402,605.872 347,604.5C 341.867,593.759 337.367,583.426 333.5,573.5C 330.754,564.783 328.754,555.783 327.5,546.5C 328.164,544.19 328.497,541.69 328.5,539C 328.158,531.319 327.491,523.819 326.5,516.5C 326.401,512.35 327.735,508.85 330.5,506C 342.4,505.646 353.733,507.813 364.5,512.5 Z"/></g>
<g><path style="opacity:1" fill="#fb3626" d="M 749.5,493.5 C 761.356,497.732 771.856,504.732 781,514.5C 781.333,513.833 781.667,513.167 782,512.5C 783.272,515.222 785.439,516.556 788.5,516.5C 788.854,518.541 788.854,520.374 788.5,522C 790.141,523.129 791.141,524.629 791.5,526.5C 779.393,513.111 765.393,502.111 749.5,493.5 Z"/></g>
<g><path style="opacity:1" fill="#f80e07" d="M 605.5,516.5 C 600.833,520.833 596.167,525.167 591.5,529.5C 594.898,524.594 598.898,520.094 603.5,516C 604.437,515.308 605.103,515.475 605.5,516.5 Z"/></g>
<g><path style="opacity:1" fill="#fc2c1c" d="M 364.5,512.5 C 367.675,512.84 369.841,514.507 371,517.5C 371.499,523.157 371.666,528.824 371.5,534.5C 369.861,529.972 369.028,523.972 369,516.5C 367.829,515.107 366.329,514.273 364.5,514C 363.262,513.31 363.262,512.81 364.5,512.5 Z"/></g>
<g><path style="opacity:1" fill="#fd1d11" d="M 546.5,544.5 C 551.496,535.515 553.829,525.848 553.5,515.5C 555.319,523.81 554.152,532.477 550,541.5C 549.241,543.063 548.074,544.063 546.5,544.5 Z"/></g>
<g><path style="opacity:1" fill="#fd1d0f" d="M 326.5,516.5 C 327.491,523.819 328.158,531.319 328.5,539C 328.497,541.69 328.164,544.19 327.5,546.5C 326.668,536.524 326.334,526.524 326.5,516.5 Z"/></g>
<g><path style="opacity:1" fill="#fb1f12" d="M 470.5,530.5 C 474.843,547.509 485.509,558.176 502.5,562.5C 502.631,563.239 502.464,563.906 502,564.5C 486.198,560.033 475.532,550.033 470,534.5C 469.235,532.934 469.402,531.601 470.5,530.5 Z"/></g>
<g><path style="opacity:1" fill="#fc2012" d="M 650.5,539.5 C 651.147,540.274 651.48,541.274 651.5,542.5C 649.366,555.369 645.533,567.703 640,579.5C 639.221,582.097 638.721,582.097 638.5,579.5C 644.313,566.727 648.313,553.394 650.5,539.5 Z"/></g>
<g><path style="opacity:1" fill="#fb2113" d="M 803.5,544.5 C 804.376,544.369 805.043,544.702 805.5,545.5C 812.064,557.521 817.064,570.188 820.5,583.5C 820.043,584.298 819.376,584.631 818.5,584.5C 815.74,570.315 810.74,556.982 803.5,544.5 Z"/></g>
<g><path style="opacity:1" fill="#fb1f11" d="M 372.5,537.5 C 374.227,548.407 376.893,559.074 380.5,569.5C 378.951,568.436 377.785,566.436 377,563.5C 374.65,555.951 372.816,548.284 371.5,540.5C 371.52,539.274 371.853,538.274 372.5,537.5 Z"/></g>
<g><path style="opacity:1" fill="#fc2215" d="M 187.5,554.5 C 188.184,567.372 188.851,580.372 189.5,593.5C 189.043,594.298 188.376,594.631 187.5,594.5C 186.189,581.164 186.189,567.83 187.5,554.5 Z"/></g>
<g><path style="opacity:1" fill="#fc2718" d="M 570.5,560.5 C 565.659,570.514 561.659,580.848 558.5,591.5C 560.007,580.815 563.507,570.482 569,560.5C 569.69,559.262 570.19,559.262 570.5,560.5 Z"/></g>
<g><path style="opacity:1" fill="#fc2516" d="M 464.5,590.5 C 458.994,571.488 450.328,554.155 438.5,538.5C 438.435,538.062 438.601,537.728 439,537.5C 450.972,552.775 459.806,569.775 465.5,588.5C 465.457,589.416 465.124,590.083 464.5,590.5 Z"/></g>
<g><path style="opacity:1" fill="#fb2919" d="M 347.5,609.5 C 341.459,598.044 336.792,586.044 333.5,573.5C 337.367,583.426 341.867,593.759 347,604.5C 347.402,605.872 347.902,607.205 348.5,608.5C 348.376,609.107 348.043,609.44 347.5,609.5 Z"/></g>
<g><path style="opacity:1" fill="#fb2919" d="M 384.5,577.5 C 389.985,589.81 396.985,601.144 405.5,611.5C 404.883,611.611 404.383,611.944 404,612.5C 396.332,602.506 389.666,591.839 384,580.5C 383.26,579.251 383.427,578.251 384.5,577.5 Z"/></g>
<g><path style="opacity:1" fill="#fc2214" d="M 216.5,549.5 C 209.104,564.021 204.104,579.355 201.5,595.5C 202.642,579.45 207.142,564.116 215,549.5C 215.69,548.262 216.19,548.262 216.5,549.5 Z"/></g>
<g><path style="opacity:1" fill="#fb2013" d="M 636.5,582.5 C 637.239,582.369 637.906,582.536 638.5,583C 632.357,594.792 624.857,605.625 616,615.5C 615.601,615.272 615.435,614.938 615.5,614.5C 623.992,604.86 630.992,594.193 636.5,582.5 Z"/></g>
<g><path style="opacity:1" fill="#fb0c07" d="M 200.5,596.5 C 199.102,598.533 197.102,599.533 194.5,599.5C 191.898,599.533 189.898,598.533 188.5,596.5C 188.435,596.062 188.601,595.728 189,595.5C 192.517,599.168 196.35,599.501 200.5,596.5 Z"/></g>
<g><path style="opacity:1" fill="#fd3621" d="M 556.5,598.5 C 554.744,613.435 554.077,628.435 554.5,643.5C 554.649,644.552 554.483,645.552 554,646.5C 551.595,629.696 552.262,613.029 556,596.5C 556.464,597.094 556.631,597.761 556.5,598.5 Z"/></g>
<g><path style="opacity:1" fill="#fc160b" d="M 469.5,641.5 C 469.5,632.833 469.5,624.167 469.5,615.5C 469.351,614.448 469.517,613.448 470,612.5C 470.954,617.62 471.454,622.787 471.5,628C 471.785,634.686 471.119,639.186 469.5,641.5 Z"/></g>
<g><path style="opacity:1" fill="#fc2416" d="M 613.5,616.5 C 614.525,616.897 614.692,617.563 614,618.5C 605.878,627.204 597.044,634.204 587.5,639.5C 596.761,632.577 605.427,624.91 613.5,616.5 Z"/></g>
<g><path style="opacity:1" fill="#fb2316" d="M 406.5,612.5 C 417.964,625.133 430.797,636.133 445,645.5C 445.556,647.885 445.39,650.218 444.5,652.5C 443.686,650.369 443.186,648.036 443,645.5C 436.413,641.123 429.913,636.623 423.5,632C 417.667,626.167 411.833,620.333 406,614.5C 405.308,613.563 405.475,612.897 406.5,612.5 Z"/></g>
<g><path style="opacity:1" fill="#fa1209" d="M 652.5,641.5 C 650.5,644.167 648.167,646.5 645.5,648.5C 647.051,645.437 649.218,642.771 652,640.5C 652.399,640.728 652.565,641.062 652.5,641.5 Z"/></g>
<g><path style="opacity:1" fill="#fb1f12" d="M 468.5,645.5 C 467.519,668.842 459.685,689.842 445,708.5C 444.601,708.272 444.435,707.938 444.5,707.5C 457.788,688.982 465.788,668.316 468.5,645.5 Z"/></g>
<g><path style="opacity:1" fill="#fb2616" d="M 418.5,681.5 C 402.158,672.814 387.824,661.481 375.5,647.5C 375.435,647.062 375.601,646.728 376,646.5C 388.857,659.977 403.023,671.644 418.5,681.5 Z"/></g>
<g><path style="opacity:1" fill="#fc2214" d="M 555.5,647.5 C 557.05,657.365 559.383,667.032 562.5,676.5C 562.565,676.938 562.399,677.272 562,677.5C 557.555,667.752 555.389,657.752 555.5,647.5 Z"/></g>
<g><path style="opacity:1" fill="#fc1b0f" d="M 434.5,676.5 C 432.911,682.278 429.244,685.111 423.5,685C 421.416,684.303 419.749,683.136 418.5,681.5C 421.146,682.487 423.812,683.487 426.5,684.5C 429.912,682.255 432.412,679.255 434,675.5C 434.399,675.728 434.565,676.062 434.5,676.5 Z"/></g>
<g><path style="opacity:1" fill="#fc2a19" d="M 564.5,679.5 C 575.359,707.025 593.692,728.025 619.5,742.5C 619.631,743.239 619.464,743.906 619,744.5C 593.037,729.206 574.203,707.706 562.5,680C 563.094,679.536 563.761,679.369 564.5,679.5 Z"/></g>
<g><path style="opacity:1" fill="#f90d06" d="M 439.5,714.5 C 439.938,714.435 440.272,714.601 440.5,715C 435.575,720.432 430.242,725.265 424.5,729.5C 429.167,724.167 434.167,719.167 439.5,714.5 Z"/></g>
<g><path style="opacity:1" fill="#fb1e13" d="M 620.5,743.5 C 629.677,748.67 639.343,752.67 649.5,755.5C 649.631,756.239 649.464,756.906 649,757.5C 640.367,754.398 631.867,750.898 623.5,747C 621.937,746.241 620.937,745.074 620.5,743.5 Z"/></g>
<g><path style="opacity:1" fill="#fb1b10" d="M 422.5,730.5 C 422.938,730.435 423.272,730.601 423.5,731C 405.923,746.798 385.59,755.964 362.5,758.5C 384.852,753.988 404.852,744.655 422.5,730.5 Z"/></g>
<g><path style="opacity:1" fill="#fb1f14" d="M 289.5,751.5 C 288.253,753.178 286.586,754.511 284.5,755.5C 281.532,760.078 282.532,763.578 287.5,766C 287.272,766.399 286.938,766.565 286.5,766.5C 280.709,762.911 280.042,758.411 284.5,753C 286.025,751.991 287.692,751.491 289.5,751.5 Z"/></g>
<g><path style="opacity:1" fill="#fd1c10" d="M 732.5,752.5 C 727.307,755.515 721.641,757.682 715.5,759C 711.372,760.393 707.372,760.56 703.5,759.5C 713.363,757.951 723.03,755.617 732.5,752.5 Z"/></g>
<g><path style="opacity:1" fill="#fe2416" d="M 299.5,755.5 C 306.405,757.309 313.405,758.643 320.5,759.5C 320.631,760.376 320.298,761.043 319.5,761.5C 312.779,760.32 306.113,758.82 299.5,757C 298.262,756.31 298.262,755.81 299.5,755.5 Z"/></g>
<g><path style="opacity:1" fill="#fd2215" d="M 358.5,759.5 C 359.552,759.351 360.552,759.517 361.5,760C 348.212,762.756 334.879,763.089 321.5,761C 322.094,760.536 322.761,760.369 323.5,760.5C 335.187,760.666 346.854,760.333 358.5,759.5 Z"/></g>
<g><path style="opacity:1" fill="#fb2717" d="M 560.5,778.5 C 545.043,772.189 530.71,764.022 517.5,754C 513.848,753.501 510.182,753.335 506.5,753.5C 510.248,751.034 514.248,750.867 518.5,753C 531.555,762.531 545.555,770.531 560.5,777C 561.738,777.69 561.738,778.19 560.5,778.5 Z"/></g>
<g><path style="opacity:1" fill="#fd2316" d="M 671.5,760.5 C 681.167,760.5 690.833,760.5 700.5,760.5C 696.651,762.121 691.318,762.787 684.5,762.5C 679.101,762.554 673.767,762.054 668.5,761C 669.448,760.517 670.448,760.351 671.5,760.5 Z"/></g>
<g><path style="opacity:1" fill="#fb3324" d="M 313.5,780.5 C 313.56,779.957 313.893,779.624 314.5,779.5C 323.887,783.358 333.554,786.358 343.5,788.5C 346.085,787.927 347.085,786.261 346.5,783.5C 349.32,783.248 351.986,783.748 354.5,785C 353.062,785.219 351.729,785.719 350.5,786.5C 351.025,787.192 351.692,787.692 352.5,788C 350.5,788.333 348.5,788.667 346.5,789C 351.761,790.385 357.094,791.385 362.5,792C 361.552,792.483 360.552,792.649 359.5,792.5C 343.488,790.997 328.155,786.997 313.5,780.5 Z"/></g>
<g><path style="opacity:1" fill="#fb1f13" d="M 732.5,768.5 C 719.43,776.636 705.43,782.636 690.5,786.5C 690.062,786.565 689.728,786.399 689.5,786C 704.146,781.285 718.146,775.119 731.5,767.5C 732.107,767.624 732.44,767.957 732.5,768.5 Z"/></g>
<g><path style="opacity:1" fill="#fd1e12" d="M 593.5,789.5 C 594.097,788.861 594.93,788.528 596,788.5C 602.43,790.044 608.93,791.211 615.5,792C 614.552,792.483 613.552,792.649 612.5,792.5C 606.056,792.144 599.723,791.144 593.5,789.5 Z"/></g>
<g><path style="opacity:1" fill="#fd2919" d="M 438.5,787.5 C 413.875,793.951 388.875,795.951 363.5,793.5C 376.994,792.669 390.661,792.169 404.5,792C 415.334,791.133 426,789.3 436.5,786.5C 437.416,786.543 438.083,786.876 438.5,787.5 Z"/></g>
<g><path style="opacity:1" fill="#fc2817" d="M 688.5,787.5 C 664.903,794.121 640.903,796.121 616.5,793.5C 628.993,792.669 641.66,792.169 654.5,792C 665.34,791.138 676.007,789.304 686.5,786.5C 687.416,786.543 688.083,786.876 688.5,787.5 Z"/></g>
</svg>
