<?xml version="1.0" encoding="UTF-8"?>
<!DOCTYPE svg PUBLIC "-//W3C//DTD SVG 1.1//EN" "http://www.w3.org/Graphics/SVG/1.1/DTD/svg11.dtd">
<svg xmlns="http://www.w3.org/2000/svg" version="1.1" width="1024px" height="1024px" style="shape-rendering:geometricPrecision; text-rendering:geometricPrecision; image-rendering:optimizeQuality; fill-rule:evenodd; clip-rule:evenodd" xmlns:xlink="http://www.w3.org/1999/xlink">
<g><path style="opacity:1" fill="#1b1b1a" d="M 152.5,344.5 C 152.667,290.499 152.5,236.499 152,182.5C 149.587,186.807 148.087,190.64 147.5,194C 148.54,196.187 149.207,198.187 149.5,200C 147.939,200.318 146.772,201.151 146,202.5C 145.289,200.633 145.789,199.133 147.5,198C 146.137,196.055 145.303,193.888 145,191.5C 144.667,191.833 144.333,192.167 144,192.5C 142.255,191.044 140.422,189.711 138.5,188.5C 138.709,187.914 139.043,187.414 139.5,187C 141.085,186.915 142.418,186.749 143.5,186.5C 141.808,184.641 140.308,182.641 139,180.5C 137.601,181.227 136.101,181.727 134.5,182C 135.5,182.333 136.5,182.667 137.5,183C 135.576,184.267 133.91,184.267 132.5,183C 133.634,181.984 133.301,181.317 131.5,181C 132.167,180.667 132.833,180.333 133.5,180C 128.373,178.474 128.373,177.474 133.5,177C 129.25,176.768 128.583,175.268 131.5,172.5C 131.167,172.167 130.833,171.833 130.5,171.5C 126.942,171.384 123.275,171.218 119.5,171C 122.121,170.061 124.788,169.228 127.5,168.5C 126.423,166.271 125.756,163.937 125.5,161.5C 123.712,161.785 122.045,161.452 120.5,160.5C 118.99,158.302 117.657,155.969 116.5,153.5C 118.278,146.555 122.611,142.055 129.5,140C 193.833,139.333 258.167,139.333 322.5,140C 333.878,144.249 338.378,152.415 336,164.5C 334.167,170.333 330.333,174.167 324.5,176C 267.538,177.48 210.538,177.98 153.5,177.5C 153.832,233.336 153.499,289.002 152.5,344.5 Z"/></g>
<g><path style="opacity:1" fill="#1b1b1b" d="M 905.5,153.5 C 904.347,157.202 903.347,161.035 902.5,165C 902.957,165.414 903.291,165.914 903.5,166.5C 901.668,167.248 900.001,168.248 898.5,169.5C 895.972,168.502 895.972,167.669 898.5,167C 898,166.5 897.5,166 897,165.5C 895.084,165.355 893.251,165.855 891.5,167C 892.308,167.308 892.975,167.808 893.5,168.5C 891.042,169.124 889.376,170.624 888.5,173C 889.623,174.044 890.956,174.71 892.5,175C 890.833,175.333 889.167,175.667 887.5,176C 887.833,176.333 888.167,176.667 888.5,177C 886.913,177.862 885.246,178.529 883.5,179C 884.833,179.667 886.167,180.333 887.5,181C 881.564,182.005 875.897,184.171 870.5,187.5C 869.499,236.814 869.165,289.481 869.5,345.5C 868.501,289.669 868.168,233.669 868.5,177.5C 812.166,177.667 755.832,177.5 699.5,177C 689.725,174.722 684.391,168.555 683.5,158.5C 684.281,148.888 689.281,142.722 698.5,140C 762.833,139.333 827.167,139.333 891.5,140C 898.649,141.983 903.316,146.483 905.5,153.5 Z"/></g>
<g><path style="opacity:1" fill="#191919" d="M 116.5,153.5 C 117.657,155.969 118.99,158.302 120.5,160.5C 122.045,161.452 123.712,161.785 125.5,161.5C 125.756,163.937 126.423,166.271 127.5,168.5C 124.788,169.228 122.121,170.061 119.5,171C 123.275,171.218 126.942,171.384 130.5,171.5C 130.833,171.833 131.167,172.167 131.5,172.5C 128.583,175.268 129.25,176.768 133.5,177C 128.373,177.474 128.373,178.474 133.5,180C 132.833,180.333 132.167,180.667 131.5,181C 133.301,181.317 133.634,181.984 132.5,183C 133.91,184.267 135.576,184.267 137.5,183C 136.5,182.667 135.5,182.333 134.5,182C 136.101,181.727 137.601,181.227 139,180.5C 140.308,182.641 141.808,184.641 143.5,186.5C 142.418,186.749 141.085,186.915 139.5,187C 139.043,187.414 138.709,187.914 138.5,188.5C 140.422,189.711 142.255,191.044 144,192.5C 144.333,192.167 144.667,191.833 145,191.5C 145.303,193.888 146.137,196.055 147.5,198C 145.789,199.133 145.289,200.633 146,202.5C 146.772,201.151 147.939,200.318 149.5,200C 149.207,198.187 148.54,196.187 147.5,194C 148.087,190.64 149.587,186.807 152,182.5C 152.5,236.499 152.667,290.499 152.5,344.5C 148.366,359.392 139.033,363.892 124.5,358C 120.031,354.878 117.198,350.712 116,345.5C 115.174,281.459 115.341,217.459 116.5,153.5 Z"/></g>
<g><path style="opacity:1" fill="#191919" d="M 905.5,153.5 C 906.659,217.126 906.826,280.793 906,344.5C 902.143,358.346 893.31,363.179 879.5,359C 874.085,356.08 870.752,351.58 869.5,345.5C 869.165,289.481 869.499,236.814 870.5,187.5C 875.897,184.171 881.564,182.005 887.5,181C 886.167,180.333 884.833,179.667 883.5,179C 885.246,178.529 886.913,177.862 888.5,177C 888.167,176.667 887.833,176.333 887.5,176C 889.167,175.667 890.833,175.333 892.5,175C 890.956,174.71 889.623,174.044 888.5,173C 889.376,170.624 891.042,169.124 893.5,168.5C 892.975,167.808 892.308,167.308 891.5,167C 893.251,165.855 895.084,165.355 897,165.5C 897.5,166 898,166.5 898.5,167C 895.972,167.669 895.972,168.502 898.5,169.5C 900.001,168.248 901.668,167.248 903.5,166.5C 903.291,165.914 902.957,165.414 902.5,165C 903.347,161.035 904.347,157.202 905.5,153.5 Z"/></g>
<g><path style="opacity:1" fill="#1a1a19" d="M 300.5,297.5 C 342.168,297.333 383.835,297.5 425.5,298C 427.286,298.785 428.786,299.951 430,301.5C 431.656,344.75 431.989,388.083 431,431.5C 430.215,433.286 429.049,434.786 427.5,436C 385.251,437.655 342.917,437.989 300.5,437C 298.714,436.215 297.214,435.049 296,433.5C 294.344,390.25 294.011,346.917 295,303.5C 296.36,300.977 298.193,298.977 300.5,297.5 Z M 318.5,322.5 C 348.167,322.5 377.833,322.5 407.5,322.5C 407.5,352.5 407.5,382.5 407.5,412.5C 377.833,412.5 348.167,412.5 318.5,412.5C 319.029,382.002 319.029,352.002 318.5,322.5 Z"/></g>
<g><path style="opacity:1" fill="#1b1b1a" d="M 589.5,297.5 C 609.993,298.497 630.66,298.831 651.5,298.5C 651.5,300.833 651.5,303.167 651.5,305.5C 653.288,305.215 654.955,305.548 656.5,306.5C 655.45,308.102 656.117,308.935 658.5,309C 657.833,309.333 657.167,309.667 656.5,310C 657.784,310.684 658.951,310.517 660,309.5C 664.336,312.05 667.836,314.717 670.5,317.5C 672.385,318.028 674.052,317.362 675.5,315.5C 676.167,315.667 676.833,315.833 677.5,316C 676.549,316.718 676.383,317.551 677,318.5C 678.308,316.359 679.808,314.359 681.5,312.5C 683.396,311.534 685.396,311.201 687.5,311.5C 687.643,309.738 687.309,308.071 686.5,306.5C 684.44,304.993 682.773,303.827 681.5,303C 682.289,302.454 683.289,301.787 684.5,301C 684.043,300.586 683.709,300.086 683.5,299.5C 692.816,298.335 702.149,298.168 711.5,299C 709.109,299.691 709.109,300.691 711.5,302C 710.146,303.294 708.812,303.46 707.5,302.5C 706.5,302.833 705.833,303.5 705.5,304.5C 705.694,306.07 705.694,307.57 705.5,309C 706.715,311.096 707.549,310.929 708,308.5C 708.536,310.567 708.036,312.401 706.5,314C 706.833,314.333 707.167,314.667 707.5,315C 704.997,316.549 704.997,318.216 707.5,320C 706.135,321.682 704.635,321.849 703,320.5C 702,321.833 701,323.167 700,324.5C 699.667,324.167 699.333,323.833 699,323.5C 698.667,324.5 698.333,325.5 698,326.5C 697.392,324.934 696.558,323.6 695.5,322.5C 665.686,322.009 636.019,322.509 606.5,324C 607.83,353.137 607.83,382.304 606.5,411.5C 636.159,412.5 665.826,412.833 695.5,412.5C 669.67,413.332 643.67,413.832 617.5,414C 620.569,414.97 621.235,416.803 619.5,419.5C 620.547,421.056 621.214,422.723 621.5,424.5C 623.167,424.5 624.833,424.5 626.5,424.5C 627.601,429.704 628.935,429.704 630.5,424.5C 632.134,424.968 633.3,425.968 634,427.5C 635.183,426.269 636.349,426.269 637.5,427.5C 636.196,429.016 636.696,429.682 639,429.5C 643.055,429.618 645.555,427.784 646.5,424C 647.448,423.517 648.448,423.351 649.5,423.5C 649.351,424.552 649.517,425.552 650,426.5C 651.36,424.113 653.193,422.613 655.5,422C 654.359,422.741 654.359,423.575 655.5,424.5C 653.009,425.541 653.009,426.374 655.5,427C 653.323,428.202 650.989,428.702 648.5,428.5C 649.424,432.836 647.757,435.336 643.5,436C 625.662,436.168 607.995,436.668 590.5,437.5C 586.98,436.817 584.48,434.817 583,431.5C 582.333,389.167 582.333,346.833 583,304.5C 583.989,301.013 586.155,298.68 589.5,297.5 Z"/></g>
<g><path style="opacity:1" fill="#161615" d="M 589.5,297.5 C 630.835,297.333 672.168,297.5 713.5,298C 715.286,298.785 716.786,299.951 718,301.5C 719.489,344.415 719.989,387.415 719.5,430.5C 718.667,393.669 718.167,356.669 718,319.5C 716.951,320.517 715.784,320.684 714.5,320C 716.901,319.195 716.734,318.362 714,317.5C 712.796,318.859 711.296,319.859 709.5,320.5C 710.303,323.054 709.303,324.888 706.5,326C 707.167,326.333 707.833,326.667 708.5,327C 707.5,328 706.5,329 705.5,330C 706.641,330.741 706.641,331.575 705.5,332.5C 707.991,333.541 707.991,334.374 705.5,335C 707.844,336.185 708.677,338.018 708,340.5C 704.987,339.984 702.32,340.984 700,343.5C 699.29,342.027 698.124,341.36 696.5,341.5C 696.334,350.506 696.5,359.506 697,368.5C 699.089,370.503 701.589,371.67 704.5,372C 702.475,373.194 702.141,374.694 703.5,376.5C 702.369,377.604 701.535,377.271 701,375.5C 700.833,376.167 700.667,376.833 700.5,377.5C 702.054,379.944 703.054,382.611 703.5,385.5C 699.403,386.331 696.736,388.664 695.5,392.5C 695.5,369.167 695.5,345.833 695.5,322.5C 696.558,323.6 697.392,324.934 698,326.5C 698.333,325.5 698.667,324.5 699,323.5C 699.333,323.833 699.667,324.167 700,324.5C 701,323.167 702,321.833 703,320.5C 704.635,321.849 706.135,321.682 707.5,320C 704.997,318.216 704.997,316.549 707.5,315C 707.167,314.667 706.833,314.333 706.5,314C 708.036,312.401 708.536,310.567 708,308.5C 707.549,310.929 706.715,311.096 705.5,309C 705.694,307.57 705.694,306.07 705.5,304.5C 705.833,303.5 706.5,302.833 707.5,302.5C 708.812,303.46 710.146,303.294 711.5,302C 709.109,300.691 709.109,299.691 711.5,299C 702.149,298.168 692.816,298.335 683.5,299.5C 683.709,300.086 684.043,300.586 684.5,301C 683.289,301.787 682.289,302.454 681.5,303C 682.773,303.827 684.44,304.993 686.5,306.5C 687.309,308.071 687.643,309.738 687.5,311.5C 685.396,311.201 683.396,311.534 681.5,312.5C 679.808,314.359 678.308,316.359 677,318.5C 676.383,317.551 676.549,316.718 677.5,316C 676.833,315.833 676.167,315.667 675.5,315.5C 674.052,317.362 672.385,318.028 670.5,317.5C 667.836,314.717 664.336,312.05 660,309.5C 658.951,310.517 657.784,310.684 656.5,310C 657.167,309.667 657.833,309.333 658.5,309C 656.117,308.935 655.45,308.102 656.5,306.5C 654.955,305.548 653.288,305.215 651.5,305.5C 651.5,303.167 651.5,300.833 651.5,298.5C 630.66,298.831 609.993,298.497 589.5,297.5 Z"/></g>
<g><path style="opacity:1" fill="#1d1d1c" d="M 510.5,297.5 C 526.735,294.906 532.568,301.573 528,317.5C 527.167,318.333 526.333,319.167 525.5,320C 508.756,325.25 502.256,319.417 506,302.5C 507.025,300.313 508.525,298.646 510.5,297.5 Z"/></g>
<g><path style="opacity:1" fill="#1a1a1a" d="M 476.5,298.5 C 480.846,298.334 485.179,298.501 489.5,299C 491.286,299.785 492.786,300.951 494,302.5C 494.667,315.5 494.667,328.5 494,341.5C 493.215,343.286 492.049,344.786 490.5,346C 485.5,346.333 480.5,346.667 475.5,347C 474.7,351.08 474.2,355.247 474,359.5C 473.535,360.931 472.701,362.097 471.5,363C 465.78,363.788 460.114,363.621 454.5,362.5C 453.667,361.5 452.833,360.5 452,359.5C 451.333,349.167 451.333,338.833 452,328.5C 452.785,326.714 453.951,325.214 455.5,324C 460.489,323.501 465.489,323.334 470.5,323.5C 470.69,317.33 470.857,311.33 471,305.5C 471.447,301.881 473.28,299.547 476.5,298.5 Z"/></g>
<g><path style="opacity:1" fill="#1a1a1a" d="M 543.5,298.5 C 547.846,298.334 552.179,298.501 556.5,299C 558.286,299.785 559.786,300.951 561,302.5C 561.667,313.833 561.667,325.167 561,336.5C 560.167,338.667 558.667,340.167 556.5,341C 546.733,341.947 537.066,341.613 527.5,340C 526.874,339.25 526.374,338.416 526,337.5C 525.333,332.167 525.333,326.833 526,321.5C 529.387,317.961 533.553,316.628 538.5,317.5C 538.334,312.821 538.501,308.155 539,303.5C 540.025,301.313 541.525,299.646 543.5,298.5 Z"/></g>
<g><path style="opacity:1" fill="#1a1a1a" d="M 506.5,336.5 C 511.844,336.334 517.177,336.501 522.5,337C 524.049,338.214 525.215,339.714 526,341.5C 526.667,361.833 526.667,382.167 526,402.5C 524.833,405 523,406.833 520.5,408C 517.183,408.498 513.85,408.665 510.5,408.5C 510.5,413.5 510.5,418.5 510.5,423.5C 526.918,420.767 532.418,427.434 527,443.5C 526.167,444.333 525.333,445.167 524.5,446C 513.5,446.667 502.5,446.667 491.5,446C 490.333,444.833 489.167,443.667 488,442.5C 487.181,425.123 487.348,407.789 488.5,390.5C 483.533,389.671 478.533,389.171 473.5,389C 472.584,388.626 471.75,388.126 471,387.5C 469.722,381.107 469.722,374.774 471,368.5C 471.75,367.874 472.584,367.374 473.5,367C 479.22,366.212 484.886,366.379 490.5,367.5C 491.192,368.025 491.692,368.692 492,369.5C 492.17,375.196 492.67,380.862 493.5,386.5C 496.421,385.593 499.421,385.26 502.5,385.5C 502.333,371.163 502.5,356.829 503,342.5C 503.564,340.113 504.73,338.113 506.5,336.5 Z"/></g>
<g><path style="opacity:1" fill="#191919" d="M 342.5,342.5 C 356.171,342.333 369.837,342.5 383.5,343C 384.333,343.833 385.167,344.667 386,345.5C 386.667,359.833 386.667,374.167 386,388.5C 385.167,389.333 384.333,390.167 383.5,391C 369.833,391.667 356.167,391.667 342.5,391C 341.692,390.692 341.025,390.192 340.5,389.5C 339.35,374.878 339.184,360.212 340,345.5C 341.045,344.627 341.878,343.627 342.5,342.5 Z"/></g>
<g><path style="opacity:1" fill="#191918" d="M 630.5,342.5 C 644.171,342.333 657.837,342.5 671.5,343C 673.764,344.779 675.097,347.113 675.5,350C 674.694,362.801 674.194,375.634 674,388.5C 673.692,389.308 673.192,389.975 672.5,390.5C 658.545,391.649 644.545,391.816 630.5,391C 629.667,390.167 628.833,389.333 628,388.5C 627.333,374.167 627.333,359.833 628,345.5C 629.045,344.627 629.878,343.627 630.5,342.5 Z"/></g>
<g><path style="opacity:1" fill="#1a1a1a" d="M 542.5,346.5 C 547.511,346.334 552.511,346.501 557.5,347C 558.416,347.374 559.25,347.874 560,348.5C 561.57,354.053 561.903,359.719 561,365.5C 560.535,366.931 559.701,368.097 558.5,369C 552.833,369.667 547.167,369.667 541.5,369C 540.667,368.167 539.833,367.333 539,366.5C 538.333,361.167 538.333,355.833 539,350.5C 539.69,348.65 540.856,347.316 542.5,346.5 Z"/></g>
<g><path style="opacity:1" fill="#191919" d="M 719.5,430.5 C 718.457,433.056 716.79,435.223 714.5,437C 673.168,437.5 631.835,437.667 590.5,437.5C 607.995,436.668 625.662,436.168 643.5,436C 647.757,435.336 649.424,432.836 648.5,428.5C 650.989,428.702 653.323,428.202 655.5,427C 653.009,426.374 653.009,425.541 655.5,424.5C 654.359,423.575 654.359,422.741 655.5,422C 653.193,422.613 651.36,424.113 650,426.5C 649.517,425.552 649.351,424.552 649.5,423.5C 648.448,423.351 647.448,423.517 646.5,424C 645.555,427.784 643.055,429.618 639,429.5C 636.696,429.682 636.196,429.016 637.5,427.5C 636.349,426.269 635.183,426.269 634,427.5C 633.3,425.968 632.134,424.968 630.5,424.5C 628.935,429.704 627.601,429.704 626.5,424.5C 624.833,424.5 623.167,424.5 621.5,424.5C 621.214,422.723 620.547,421.056 619.5,419.5C 621.235,416.803 620.569,414.97 617.5,414C 643.67,413.832 669.67,413.332 695.5,412.5C 695.5,405.833 695.5,399.167 695.5,392.5C 696.736,388.664 699.403,386.331 703.5,385.5C 703.054,382.611 702.054,379.944 700.5,377.5C 700.667,376.833 700.833,376.167 701,375.5C 701.535,377.271 702.369,377.604 703.5,376.5C 702.141,374.694 702.475,373.194 704.5,372C 701.589,371.67 699.089,370.503 697,368.5C 696.5,359.506 696.334,350.506 696.5,341.5C 698.124,341.36 699.29,342.027 700,343.5C 702.32,340.984 704.987,339.984 708,340.5C 708.677,338.018 707.844,336.185 705.5,335C 707.991,334.374 707.991,333.541 705.5,332.5C 706.641,331.575 706.641,330.741 705.5,330C 706.5,329 707.5,328 708.5,327C 707.833,326.667 707.167,326.333 706.5,326C 709.303,324.888 710.303,323.054 709.5,320.5C 711.296,319.859 712.796,318.859 714,317.5C 716.734,318.362 716.901,319.195 714.5,320C 715.784,320.684 716.951,320.517 718,319.5C 718.167,356.669 718.667,393.669 719.5,430.5 Z"/></g>
<g><path style="opacity:1" fill="#1a1a1a" d="M 455.5,389.5 C 461.176,389.334 466.843,389.501 472.5,390C 473,390.5 473.5,391 474,391.5C 475.57,397.053 475.903,402.719 475,408.5C 474.535,409.931 473.701,411.097 472.5,412C 467.167,412.667 461.833,412.667 456.5,412C 455.692,411.692 455.025,411.192 454.5,410.5C 453.374,404.218 453.207,397.885 454,391.5C 454.717,390.956 455.217,390.289 455.5,389.5 Z"/></g>
<g><path style="opacity:1" fill="#1a1a1a" d="M 541.5,388.5 C 547.176,388.334 552.843,388.501 558.5,389C 559.333,389.833 560.167,390.667 561,391.5C 565.26,408.906 558.76,415.073 541.5,410C 541,409.5 540.5,409 540,408.5C 538.437,403.282 538.104,397.949 539,392.5C 539.662,391.016 540.496,389.683 541.5,388.5 Z"/></g>
<g><path style="opacity:1" fill="#1b1b1b" d="M 456.5,422.5 C 461.844,422.334 467.177,422.501 472.5,423C 473.333,423.833 474.167,424.667 475,425.5C 476.454,436.397 476.954,447.397 476.5,458.5C 482.509,458.334 488.509,458.501 494.5,459C 496.329,459.273 497.829,460.107 499,461.5C 500.563,466.718 500.896,472.051 500,477.5C 499.535,478.931 498.701,480.097 497.5,481C 484.929,482.627 472.262,482.96 459.5,482C 454.96,480.264 452.626,476.931 452.5,472C 452.383,457.646 452.55,443.146 453,428.5C 453.564,426.113 454.73,424.113 456.5,422.5 Z"/></g>
<g><path style="opacity:1" fill="#1d1d1d" d="M 394.5,457.5 C 400.176,457.334 405.843,457.501 411.5,458C 412,458.5 412.5,459 413,459.5C 418.938,479.229 412.272,485.563 393,478.5C 391.43,472.947 391.097,467.281 392,461.5C 392.662,460.016 393.496,458.683 394.5,457.5 Z"/></g>
<g><path style="opacity:1" fill="#1b1b1b" d="M 541.5,419.5 C 558.67,415.838 565.337,422.671 561.5,440C 561.333,444.833 561.167,449.667 561,454.5C 560.5,455.5 560,456.5 559.5,457.5C 569.149,458.332 578.816,458.832 588.5,459C 589.416,459.374 590.25,459.874 591,460.5C 592.576,466.388 592.909,472.388 592,478.5C 589.435,481.108 586.269,482.442 582.5,482.5C 576.274,481.308 570.108,481.308 564,482.5C 559.862,482.005 555.862,481.005 552,479.5C 549.886,472.807 550.386,466.307 553.5,460C 549.5,459.667 545.5,459.333 541.5,459C 539.133,457.079 537.8,454.579 537.5,451.5C 538.283,441.861 538.783,432.194 539,422.5C 540.045,421.627 540.878,420.627 541.5,419.5 Z"/></g>
<g><path style="opacity:1" fill="#1a1a1a" d="M 618.5,480.5 C 618.217,479.711 617.717,479.044 617,478.5C 611.725,459.774 618.225,453.274 636.5,459C 637,459.5 637.5,460 638,460.5C 638.79,466.552 638.624,472.552 637.5,478.5C 636.975,479.192 636.308,479.692 635.5,480C 629.843,480.499 624.176,480.666 618.5,480.5 Z"/></g>
<g><path style="opacity:1" fill="#1a1a1a" d="M 652.5,499.5 C 652.5,488.167 652.5,476.833 652.5,465.5C 652.799,462.358 654.466,460.191 657.5,459C 675.591,458.027 693.591,458.361 711.5,460C 712.126,460.75 712.626,461.584 713,462.5C 713.667,467.833 713.667,473.167 713,478.5C 712.167,480 711,481.167 709.5,482C 698.172,482.5 686.838,482.667 675.5,482.5C 675.666,488.176 675.499,493.843 675,499.5C 674.535,500.931 673.701,502.097 672.5,503C 666.833,503.667 661.167,503.667 655.5,503C 653.574,502.578 652.574,501.411 652.5,499.5 Z"/></g>
<g><path style="opacity:1" fill="#1b1b1b" d="M 301.5,458.5 C 317.503,458.333 333.503,458.5 349.5,459C 350.931,459.465 352.097,460.299 353,461.5C 354.563,466.718 354.896,472.051 354,477.5C 353.535,478.931 352.701,480.097 351.5,481C 340.578,482.431 329.578,482.931 318.5,482.5C 323.25,499.245 317.25,505.745 300.5,502C 299.069,501.535 297.903,500.701 297,499.5C 295.377,487.93 295.043,476.264 296,464.5C 297.36,461.977 299.193,459.977 301.5,458.5 Z"/></g>
<g><path style="opacity:1" fill="#1f1f1f" d="M 428.5,458.5 C 432.088,459.029 435.588,459.029 439,458.5C 441.151,458.773 443.151,459.439 445,460.5C 446.563,465.718 446.896,471.051 446,476.5C 445.727,478.329 444.893,479.829 443.5,481C 438.167,481.667 432.833,481.667 427.5,481C 426.069,480.535 424.903,479.701 424,478.5C 423.333,473.167 423.333,467.833 424,462.5C 425.25,460.807 426.75,459.473 428.5,458.5 Z"/></g>
<g><path style="opacity:1" fill="#1b1b1b" d="M 515.5,458.5 C 519.846,458.334 524.179,458.501 528.5,459C 530.286,459.785 531.786,460.951 533,462.5C 533.667,475.167 533.667,487.833 533,500.5C 532.167,502.667 530.667,504.167 528.5,505C 523.833,505.667 519.167,505.667 514.5,505C 512.667,504.5 511.5,503.333 511,501.5C 510.333,488.5 510.333,475.5 511,462.5C 512.25,460.807 513.75,459.473 515.5,458.5 Z"/></g>
<g><path style="opacity:1" fill="#1e1e1e" d="M 369.5,458.5 C 373.846,458.334 378.179,458.501 382.5,459C 384.667,459.833 386.167,461.333 387,463.5C 387.667,472.5 387.667,481.5 387,490.5C 386.654,492.848 385.487,494.681 383.5,496C 378.5,496.667 373.5,496.667 368.5,496C 367.069,495.535 365.903,494.701 365,493.5C 363,482.833 363,472.167 365,461.5C 366.409,460.219 367.909,459.219 369.5,458.5 Z"/></g>
<g><path style="opacity:1" fill="#1b1b1a" d="M 618.5,480.5 C 618.987,481.473 619.487,482.473 620,483.5C 620.251,492.52 620.751,501.52 621.5,510.5C 621.261,517.546 620.761,524.546 620,531.5C 619.167,532.333 618.333,533.167 617.5,534C 612.167,534.667 606.833,534.667 601.5,534C 600,533.167 598.833,532 598,530.5C 597.333,514.833 597.333,499.167 598,483.5C 599.167,482.333 600.333,481.167 601.5,480C 607.218,479.26 612.885,479.427 618.5,480.5 Z"/></g>
<g><path style="opacity:1" fill="#1c1c1c" d="M 408.5,484.5 C 411.968,484.536 415.634,484.702 419.5,485C 421.329,485.273 422.829,486.107 424,487.5C 424.667,493.5 424.667,499.5 424,505.5C 423.167,506.333 422.333,507.167 421.5,508C 416.833,508.667 412.167,508.667 407.5,508C 405.671,507.727 404.171,506.893 403,505.5C 402.333,499.5 402.333,493.5 403,487.5C 404.719,486.131 406.552,485.131 408.5,484.5 Z"/></g>
<g><path style="opacity:1" fill="#1c1c1b" d="M 335.5,489.5 C 352.245,484.75 358.745,490.75 355,507.5C 354.535,508.931 353.701,510.097 352.5,511C 346.833,511.667 341.167,511.667 335.5,511C 335,510.5 334.5,510 334,509.5C 333.259,505.226 332.759,500.893 332.5,496.5C 333.054,493.913 334.054,491.58 335.5,489.5 Z"/></g>
<g><path style="opacity:1" fill="#1c1c1c" d="M 538.5,494.5 C 544.758,494.19 550.924,494.524 557,495.5C 563.604,513.221 557.771,520.055 539.5,516C 538.692,515.692 538.025,515.192 537.5,514.5C 535.927,507.678 536.26,501.011 538.5,494.5 Z"/></g>
<g><path style="opacity:1" fill="#1b1b1b" d="M 650.5,498.5 C 650.5,503.167 650.5,507.833 650.5,512.5C 650.489,514.017 649.823,515.184 648.5,516C 642.899,517.274 637.233,517.274 631.5,516C 630.333,515.5 629.5,514.667 629,513.5C 628.333,508.167 628.333,502.833 629,497.5C 629.833,496.667 630.667,495.833 631.5,495C 637.167,494.333 642.833,494.333 648.5,495C 649.823,495.816 650.489,496.983 650.5,498.5 Z"/></g>
<g><path style="opacity:1" fill="#1a1a1a" d="M 696.5,495.5 C 702.509,495.334 708.509,495.501 714.5,496C 715,496.5 715.5,497 716,497.5C 716.667,503.5 716.667,509.5 716,515.5C 715.5,516 715,516.5 714.5,517C 708.833,517.667 703.167,517.667 697.5,517C 696.692,516.692 696.025,516.192 695.5,515.5C 693.927,508.678 694.26,502.011 696.5,495.5 Z"/></g>
<g><path style="opacity:1" fill="#1b1b1b" d="M 487.5,498.5 C 492.844,498.334 498.177,498.501 503.5,499C 504.416,499.374 505.25,499.874 506,500.5C 506.221,505.22 506.721,509.887 507.5,514.5C 505.848,520.521 501.848,522.855 495.5,521.5C 492.094,521.704 488.928,521.038 486,519.5C 484.424,513.612 484.091,507.612 485,501.5C 486.045,500.627 486.878,499.627 487.5,498.5 Z"/></g>
<g><path style="opacity:1" fill="#1c1c1b" d="M 568.5,495.5 C 573.179,495.334 577.845,495.501 582.5,496C 584.329,496.273 585.829,497.107 587,498.5C 587.667,504.167 587.667,509.833 587,515.5C 586.692,516.308 586.192,516.975 585.5,517.5C 568.339,523.824 561.505,518.158 565,500.5C 565.257,498.093 566.424,496.427 568.5,495.5 Z"/></g>
<g><path style="opacity:1" fill="#1a1a1a" d="M 451.5,499.5 C 457.176,499.334 462.843,499.501 468.5,500C 469.333,500.833 470.167,501.667 471,502.5C 471.667,517.833 471.667,533.167 471,548.5C 469.833,550.333 468.333,551.833 466.5,553C 451.167,553.667 435.833,553.667 420.5,553C 417.675,549.599 416.342,545.599 416.5,541C 416.287,536.958 417.62,533.625 420.5,531C 429.827,530.5 439.161,530.334 448.5,530.5C 448.334,521.494 448.5,512.494 449,503.5C 449.662,502.016 450.496,500.683 451.5,499.5 Z"/></g>
<g><path style="opacity:1" fill="#4d4d4d" d="M 652.5,465.5 C 652.5,476.833 652.5,488.167 652.5,499.5C 651.833,503.833 651.167,508.167 650.5,512.5C 650.5,507.833 650.5,503.167 650.5,498.5C 651.167,487.5 651.833,476.5 652.5,465.5 Z"/></g>
<g><path style="opacity:1" fill="#1c1c1b" d="M 369.5,505.5 C 379.506,505.334 389.506,505.5 399.5,506C 402.196,506.69 404.363,508.19 406,510.5C 407.626,522.737 407.959,535.071 407,547.5C 406.215,549.286 405.049,550.786 403.5,552C 398.167,552.667 392.833,552.667 387.5,552C 386.667,551.167 385.833,550.333 385,549.5C 383.58,542.95 383.08,536.284 383.5,529.5C 367.338,532.839 361.172,526.505 365,510.5C 366.025,508.313 367.525,506.646 369.5,505.5 Z"/></g>
<g><path style="opacity:1" fill="#1c1c1c" d="M 635.5,525.5 C 647.601,525.041 659.601,525.541 671.5,527C 672.701,527.903 673.535,529.069 674,530.5C 674.896,535.949 674.563,541.282 673,546.5C 672.097,547.701 670.931,548.535 669.5,549C 657.071,549.959 644.737,549.626 632.5,548C 630.934,546.316 629.934,544.316 629.5,542C 630.239,537.873 630.739,533.706 631,529.5C 631.907,527.391 633.407,526.058 635.5,525.5 Z"/></g>
<g><path style="opacity:1" fill="#1b1b1b" d="M 515.5,526.5 C 528.837,526.333 542.171,526.5 555.5,527C 556.931,527.465 558.097,528.299 559,529.5C 560.626,541.737 560.959,554.071 560,566.5C 559.535,567.931 558.701,569.097 557.5,570C 551.833,570.667 546.167,570.667 540.5,570C 537.504,567.185 536.171,563.685 536.5,559.5C 536.836,556.159 537.169,552.825 537.5,549.5C 530.825,549.666 524.158,549.5 517.5,549C 515.714,548.215 514.214,547.049 513,545.5C 512.333,540.167 512.333,534.833 513,529.5C 514.045,528.627 514.878,527.627 515.5,526.5 Z"/></g>
<g><path style="opacity:1" fill="#191a19" d="M 575.5,527.5 C 581.758,527.19 587.924,527.524 594,528.5C 595.581,534.723 595.915,541.056 595,547.5C 594.5,548 594,548.5 593.5,549C 573.425,554.066 567.425,546.899 575.5,527.5 Z"/></g>
<g><path style="opacity:1" fill="#1c1c1c" d="M 687.5,528.5 C 696.608,528.057 705.608,528.557 714.5,530C 715.126,530.75 715.626,531.584 716,532.5C 716.667,537.833 716.667,543.167 716,548.5C 715.097,549.701 713.931,550.535 712.5,551C 703.833,551.667 695.167,551.667 686.5,551C 685.667,550.167 684.833,549.333 684,548.5C 683.333,543.167 683.333,537.833 684,532.5C 684.69,530.65 685.856,529.316 687.5,528.5 Z"/></g>
<g><path style="opacity:1" fill="#1a1a1a" d="M 299.5,513.5 C 314.383,509.072 321.05,514.405 319.5,529.5C 331.171,529.333 342.838,529.5 354.5,530C 356.768,531.558 357.934,533.724 358,536.5C 359.409,542.354 358.243,547.521 354.5,552C 336.5,552.667 318.5,552.667 300.5,552C 298.622,550.457 297.122,548.624 296,546.5C 295.333,537.167 295.333,527.833 296,518.5C 296.997,516.677 298.164,515.01 299.5,513.5 Z"/></g>
<g><path style="opacity:1" fill="#1d1d1d" d="M 488.5,531.5 C 493.179,531.334 497.845,531.501 502.5,532C 506.889,534.529 508.555,538.363 507.5,543.5C 507.657,547.2 506.991,550.7 505.5,554C 499.947,555.57 494.281,555.903 488.5,555C 487.069,554.535 485.903,553.701 485,552.5C 484.333,546.833 484.333,541.167 485,535.5C 485.69,533.65 486.856,532.316 488.5,531.5 Z"/></g>
<g><path style="opacity:1" fill="#1a1a1a" d="M 580.5,560.5 C 601.836,560.333 623.169,560.5 644.5,561C 645.667,562.167 646.833,563.333 648,564.5C 648.184,585.031 648.684,605.531 649.5,626C 649.089,629.496 647.422,632.163 644.5,634C 623.5,634.667 602.5,634.667 581.5,634C 580.069,633.535 578.903,632.701 578,631.5C 576.356,609.589 576.022,587.589 577,565.5C 577.997,563.677 579.164,562.01 580.5,560.5 Z M 596.5,580.5 C 607.5,580.5 618.5,580.5 629.5,580.5C 629.5,591.833 629.5,603.167 629.5,614.5C 618.5,614.5 607.5,614.5 596.5,614.5C 596.5,603.167 596.5,591.833 596.5,580.5 Z"/></g>
<g><path style="opacity:1" fill="#1d1d1c" d="M 662.5,562.5 C 679.17,562.333 695.837,562.5 712.5,563C 713.667,564.167 714.833,565.333 716,566.5C 716.667,571.167 716.667,575.833 716,580.5C 715.535,581.931 714.701,583.097 713.5,584C 702.937,585.453 692.27,585.953 681.5,585.5C 684.758,601.743 678.425,607.91 662.5,604C 661.069,603.535 659.903,602.701 659,601.5C 657.378,590.264 657.045,578.931 658,567.5C 659.025,565.313 660.525,563.646 662.5,562.5 Z"/></g>
<g><path style="opacity:1" fill="#1b1b1b" d="M 457.5,562.5 C 468.505,562.333 479.505,562.5 490.5,563C 492.939,563.774 494.773,565.274 496,567.5C 496.667,582.167 496.667,596.833 496,611.5C 495.5,612 495,612.5 494.5,613C 488.612,614.576 482.612,614.909 476.5,614C 476,613.5 475.5,613 475,612.5C 473.559,603.942 473.059,595.276 473.5,586.5C 456.361,590.855 449.528,584.522 453,567.5C 454.025,565.313 455.525,563.646 457.5,562.5 Z"/></g>
<g><path style="opacity:1" fill="#1c1c1c" d="M 509.5,564.5 C 514.511,564.334 519.511,564.501 524.5,565C 525.416,565.374 526.25,565.874 527,566.5C 528.506,571.746 528.839,577.079 528,582.5C 527.727,584.329 526.893,585.829 525.5,587C 519.833,587.667 514.167,587.667 508.5,587C 507.667,586.167 506.833,585.333 506,584.5C 505.333,579.167 505.333,573.833 506,568.5C 506.69,566.65 507.856,565.316 509.5,564.5 Z"/></g>
<g><path style="opacity:1" fill="#1a1a1a" d="M 431.5,595.5 C 430.669,610.661 430.169,625.995 430,641.5C 429.667,641.167 429.333,640.833 429,640.5C 427.702,642.265 426.536,644.099 425.5,646C 425.589,649.344 425.755,652.844 426,656.5C 426.654,655.304 427.154,655.304 427.5,656.5C 426.975,657.192 426.308,657.692 425.5,658C 425.665,659.117 425.998,660.284 426.5,661.5C 425.675,662.386 424.675,662.719 423.5,662.5C 423.34,664.199 423.506,665.866 424,667.5C 426.041,666.577 428.208,666.244 430.5,666.5C 430.5,675.167 430.5,683.833 430.5,692.5C 427.175,692.506 424.841,691.006 423.5,688C 422.1,686.562 420.433,685.729 418.5,685.5C 418.579,684.07 418.246,682.736 417.5,681.5C 417.833,681.167 418.167,680.833 418.5,680.5C 419.251,681.376 419.751,682.376 420,683.5C 421.375,681.063 421.875,678.397 421.5,675.5C 419.345,675.628 417.345,675.128 415.5,674C 416.899,673.405 418.232,673.572 419.5,674.5C 420.5,674.167 421.167,673.5 421.5,672.5C 419.711,670.967 417.711,669.967 415.5,669.5C 415.662,667.473 415.495,665.473 415,663.5C 414.676,665.569 413.842,665.902 412.5,664.5C 411.719,665.729 411.219,667.062 411,668.5C 410.581,667.328 409.915,666.328 409,665.5C 408.333,656.167 408.333,646.833 409,637.5C 410.566,636.939 411.899,637.606 413,639.5C 413.667,636.833 414.333,636.833 415,639.5C 416.328,637.978 416.162,636.311 414.5,634.5C 416.993,633.747 418.826,634.747 420,637.5C 420.5,637 421,636.5 421.5,636C 420.283,634.352 419.45,632.519 419,630.5C 418.346,631.696 417.846,631.696 417.5,630.5C 418.5,629.833 419.5,629.167 420.5,628.5C 418.631,627.376 416.631,626.543 414.5,626C 415.648,624.351 416.981,622.851 418.5,621.5C 419.086,621.709 419.586,622.043 420,622.5C 419.773,620.426 419.939,618.426 420.5,616.5C 416.68,617.731 412.847,617.731 409,616.5C 408.667,610.167 408.333,603.833 408,597.5C 405.977,595.987 406.144,594.654 408.5,593.5C 408,592.5 407.5,591.5 407,590.5C 404.931,591.264 402.764,591.764 400.5,592C 399.809,593.067 399.309,594.234 399,595.5C 395.454,592.461 395.287,589.628 398.5,587C 397.333,586.5 396.5,585.667 396,584.5C 393.895,585.876 391.729,587.876 389.5,590.5C 387.631,591.624 385.631,592.457 383.5,593C 382.874,593.75 382.374,594.584 382,595.5C 381.667,595.167 381.333,594.833 381,594.5C 364.736,596.312 348.236,597.145 331.5,597C 338.158,597.5 344.825,597.666 351.5,597.5C 340.674,598.33 329.674,598.83 318.5,599C 319.833,628.333 319.833,657.667 318.5,687C 348.019,688.491 377.686,688.991 407.5,688.5C 408.451,687.081 408.784,685.415 408.5,683.5C 411.358,684.507 413.858,686.173 416,688.5C 417.049,687.483 418.216,687.316 419.5,688C 419.167,688.333 418.833,688.667 418.5,689C 419.586,692.259 420.92,695.426 422.5,698.5C 424.198,697.319 425.865,697.319 427.5,698.5C 426.738,698.911 425.738,699.077 424.5,699C 426.396,700.065 426.563,700.898 425,701.5C 424.055,701.095 423.388,700.428 423,699.5C 421.992,699.982 420.825,700.148 419.5,700C 421.024,702.358 423.024,704.191 425.5,705.5C 428.329,702.844 429.329,703.344 428.5,707C 429.044,707.717 429.711,708.217 430.5,708.5C 429.327,710.504 427.66,712.004 425.5,713C 383.833,713.667 342.167,713.667 300.5,713C 297.619,711.749 295.786,709.583 295,706.5C 294.333,664.167 294.333,621.833 295,579.5C 296.167,577 298,575.167 300.5,574C 342.167,573.333 383.833,573.333 425.5,574C 427.624,575.122 429.457,576.622 431,578.5C 431.499,584.157 431.666,589.824 431.5,595.5 Z M 351.5,597.5 C 370.092,598.368 388.592,598.702 407,598.5C 407.5,628.498 407.667,658.498 407.5,688.5C 377.686,688.991 348.019,688.491 318.5,687C 319.833,657.667 319.833,628.333 318.5,599C 329.674,598.83 340.674,598.33 351.5,597.5 Z"/></g>
<g><path style="opacity:1" fill="#1c1c1c" d="M 553.5,581.5 C 556.197,582.006 558.364,583.339 560,585.5C 560.667,590.833 560.667,596.167 560,601.5C 559.167,602.333 558.333,603.167 557.5,604C 551.833,604.667 546.167,604.667 540.5,604C 540,603.5 539.5,603 539,602.5C 538.333,596.5 538.333,590.5 539,584.5C 539.5,584 540,583.5 540.5,583C 545.019,582.825 549.353,582.325 553.5,581.5 Z"/></g>
<g><path style="opacity:1" fill="#1b1b1b" d="M 697.5,598.5 C 702.844,598.334 708.177,598.501 713.5,599C 714.416,599.374 715.25,599.874 716,600.5C 717.072,603.544 717.572,606.71 717.5,610C 717.714,613.569 717.047,616.902 715.5,620C 699.125,625.923 692.291,620.423 695,603.5C 695.366,601.548 696.199,599.882 697.5,598.5 Z"/></g>
<g><path style="opacity:1" fill="#1b1b1b" d="M 510.5,597.5 C 515.084,598.277 519.75,598.777 524.5,599C 526.259,600.008 527.426,601.508 528,603.5C 528.667,616.167 528.667,628.833 528,641.5C 526.833,644 525,645.833 522.5,647C 517.845,647.499 513.179,647.666 508.5,647.5C 508.666,653.176 508.499,658.843 508,664.5C 506.786,666.049 505.286,667.215 503.5,668C 499.833,668.333 496.167,668.667 492.5,669C 493.701,669.903 494.535,671.069 495,672.5C 495.958,684.596 495.625,696.596 494,708.5C 476.037,715.708 468.537,709.708 471.5,690.5C 455.338,693.839 449.172,687.505 453,671.5C 453.785,669.714 454.951,668.214 456.5,667C 466.833,666.667 477.167,666.333 487.5,666C 487,665.5 486.5,665 486,664.5C 485.333,652.833 485.333,641.167 486,629.5C 486.833,627.333 488.333,625.833 490.5,625C 495.155,624.501 499.821,624.334 504.5,624.5C 504.099,616.415 504.599,608.415 506,600.5C 507.409,599.219 508.909,598.219 510.5,597.5 Z"/></g>
<g><path style="opacity:1" fill="#1c1c1c" d="M 670.5,616.5 C 675.511,616.334 680.511,616.501 685.5,617C 686.931,617.465 688.097,618.299 689,619.5C 694.25,636.244 688.417,642.744 671.5,639C 670.069,638.535 668.903,637.701 668,636.5C 667.697,632.471 667.197,628.471 666.5,624.5C 666.658,621.068 667.992,618.401 670.5,616.5 Z"/></g>
<g><path style="opacity:1" fill="#191919" d="M 344.5,617.5 C 356.838,617.333 369.171,617.5 381.5,618C 383.286,618.785 384.786,619.951 386,621.5C 386.667,635.833 386.667,650.167 386,664.5C 385.167,665.333 384.333,666.167 383.5,667C 369.833,667.667 356.167,667.667 342.5,667C 341.667,666.167 340.833,665.333 340,664.5C 339.333,650.167 339.333,635.833 340,621.5C 340.907,619.391 342.407,618.058 344.5,617.5 Z"/></g>
<g><path style="opacity:1" fill="#1c1c1c" d="M 540.5,624.5 C 546.176,624.334 551.843,624.501 557.5,625C 558,625.5 558.5,626 559,626.5C 564.779,644.387 558.613,650.887 540.5,646C 539.667,645.167 538.833,644.333 538,643.5C 537.333,638.5 537.333,633.5 538,628.5C 538.662,627.016 539.496,625.683 540.5,624.5 Z"/></g>
<g><path style="opacity:1" fill="#1c1c1b" d="M 457.5,624.5 C 473.918,621.767 479.418,628.434 474,644.5C 473.167,645.333 472.333,646.167 471.5,647C 466.5,647.667 461.5,647.667 456.5,647C 455.069,646.535 453.903,645.701 453,644.5C 452.333,639.167 452.333,633.833 453,628.5C 453.907,626.391 455.407,625.058 457.5,624.5 Z"/></g>
<g><path style="opacity:1" fill="#1a1a1a" d="M 698.5,634.5 C 704.176,634.334 709.843,634.501 715.5,635C 716.126,635.75 716.626,636.584 717,637.5C 717.667,649.833 717.667,662.167 717,674.5C 714.545,677.877 711.211,679.543 707,679.5C 698.184,678.769 689.351,678.269 680.5,678C 679.667,677.167 678.833,676.333 678,675.5C 676.537,669.777 676.537,664.11 678,658.5C 678.833,657.667 679.667,656.833 680.5,656C 685.155,655.501 689.821,655.334 694.5,655.5C 694.334,649.824 694.501,644.157 695,638.5C 695.69,636.65 696.856,635.316 698.5,634.5 Z"/></g>
<g><path style="opacity:1" fill="#1a1b1a" d="M 597.5,678.5 C 598.08,674.351 597.414,670.684 595.5,667.5C 594.883,667.611 594.383,667.944 594,668.5C 589.251,667.695 584.418,667.195 579.5,667C 577.462,665.764 576.295,663.931 576,661.5C 575.333,657.5 575.333,653.5 576,649.5C 576.785,647.714 577.951,646.214 579.5,645C 591.5,644.333 603.5,644.333 615.5,645C 617.815,646.109 619.315,647.943 620,650.5C 620.667,659.833 620.667,669.167 620,678.5C 619.426,680.492 618.259,681.992 616.5,683C 611.167,683.667 605.833,683.667 600.5,683C 598.859,681.871 597.859,680.371 597.5,678.5 Z"/></g>
<g><path style="opacity:1" fill="#1c1c1b" d="M 632.5,644.5 C 643.172,644.333 653.839,644.5 664.5,645C 665.416,645.374 666.25,645.874 667,646.5C 668.106,652.974 668.939,659.474 669.5,666C 669.112,672.686 669.112,679.519 669.5,686.5C 669.333,692.5 669.167,698.5 669,704.5C 668.837,706.676 668.004,708.509 666.5,710C 661.282,711.563 655.949,711.896 650.5,711C 648.333,710.167 646.833,708.667 646,706.5C 645.5,693.504 645.333,680.504 645.5,667.5C 641.154,667.666 636.821,667.499 632.5,667C 631.667,666.167 630.833,665.333 630,664.5C 629.333,658.833 629.333,653.167 630,647.5C 631.045,646.627 631.878,645.627 632.5,644.5 Z"/></g>
<g><path style="opacity:1" fill="#1a1a1a" d="M 891.5,878.5 C 883.16,878.666 874.827,878.5 866.5,878C 871.343,876.426 871.677,874.259 867.5,871.5C 868.376,870.749 869.376,870.249 870.5,870C 869.234,869.691 868.067,869.191 867,868.5C 864.805,872.335 862.305,872.502 859.5,869C 862.059,865.596 861.059,863.43 856.5,862.5C 855.5,863 854.5,863.5 853.5,864C 857.328,866.599 856.995,866.932 852.5,865C 849.79,863.54 849.124,861.54 850.5,859C 849.151,858.228 848.318,857.061 848,855.5C 847.573,858.493 846.406,858.993 844.5,857C 844.404,855.627 844.57,854.127 845,852.5C 844.075,853.047 843.242,853.713 842.5,854.5C 843.693,857.473 843.027,857.973 840.5,856C 841.711,855.107 841.711,854.274 840.5,853.5C 837.994,854.892 835.494,856.225 833,857.5C 832.667,857.167 832.333,856.833 832,856.5C 831.517,857.448 831.351,858.448 831.5,859.5C 827.966,859.468 824.799,859.802 822,860.5C 819.544,859.53 817.377,858.863 815.5,858.5C 817.332,857.752 818.999,856.752 820.5,855.5C 821.517,858.028 822.684,858.028 824,855.5C 824.333,853.833 824.667,852.167 825,850.5C 826.974,853.118 828.807,852.952 830.5,850C 828.825,848.291 827.158,846.624 825.5,845C 828.063,844.237 828.063,843.737 825.5,843.5C 824.353,843.818 823.519,844.484 823,845.5C 820.617,844.234 817.95,843.568 815,843.5C 812.5,843.667 810,843.833 807.5,844C 806.366,845.016 806.699,845.683 808.5,846C 805.796,848.209 803.463,847.876 801.5,845C 801.833,844.667 802.167,844.333 802.5,844C 800.209,843.985 798.042,843.818 796,843.5C 795.692,847.367 797.359,848.367 801,846.5C 801.167,847 801.333,847.5 801.5,848C 799.976,849.194 798.81,850.694 798,852.5C 795.135,853.041 793.135,851.707 792,848.5C 791.333,849.833 790.667,849.833 790,848.5C 789.383,847.551 789.549,846.718 790.5,846C 789.5,845.333 788.5,845.333 787.5,846C 788.4,849.68 789.734,853.18 791.5,856.5C 789.187,857.273 786.854,857.94 784.5,858.5C 782.777,855.94 780.61,853.94 778,852.5C 775.656,854.003 773.323,854.669 771,854.5C 770.544,853.256 771.044,852.423 772.5,852C 770.5,851.333 768.5,851.333 766.5,852C 764.984,855.034 765.317,857.867 767.5,860.5C 765.5,861.5 763.5,862.5 761.5,863.5C 758.14,862.088 754.64,861.088 751,860.5C 750.663,858.193 751.496,856.36 753.5,855C 752.386,853.43 751.053,852.097 749.5,851C 750.167,850.333 750.833,849.667 751.5,849C 748.167,848 744.833,847 741.5,846C 743.044,845.71 744.377,845.044 745.5,844C 742.369,844.089 739.369,843.922 736.5,843.5C 735.006,843.709 733.839,844.376 733,845.5C 732,842.833 731,842.833 730,845.5C 727.753,843.845 725.42,843.512 723,844.5C 715.303,842.82 707.47,842.153 699.5,842.5C 755.664,841.501 811.998,841.168 868.5,841.5C 868.737,786.622 868.904,731.622 869,676.5C 872.825,663.503 881.325,658.67 894.5,662C 900.94,664.773 904.774,669.606 906,676.5C 906.667,738.833 906.667,801.167 906,863.5C 904.352,871.647 899.519,876.647 891.5,878.5 Z"/></g>
<g><path style="opacity:1" fill="#1b1b1b" d="M 515.5,663.5 C 534.17,663.333 552.836,663.5 571.5,664C 572.931,664.465 574.097,665.299 575,666.5C 576.63,680.072 576.963,693.739 576,707.5C 575.167,708.333 574.333,709.167 573.5,710C 567.833,710.667 562.167,710.667 556.5,710C 556,709.5 555.5,709 555,708.5C 553.888,701.358 553.054,694.192 552.5,687C 546.144,686.406 539.811,686.573 533.5,687.5C 533.666,693.842 533.5,700.175 533,706.5C 532.535,707.931 531.701,709.097 530.5,710C 524.833,710.667 519.167,710.667 513.5,710C 511.741,708.992 510.574,707.492 510,705.5C 509.333,693.833 509.333,682.167 510,670.5C 510.938,667.402 512.772,665.069 515.5,663.5 Z"/></g>
<g><path style="opacity:1" fill="#181818" d="M 431.5,595.5 C 431.827,633.239 431.493,670.906 430.5,708.5C 429.711,708.217 429.044,707.717 428.5,707C 429.329,703.344 428.329,702.844 425.5,705.5C 423.024,704.191 421.024,702.358 419.5,700C 420.825,700.148 421.992,699.982 423,699.5C 423.388,700.428 424.055,701.095 425,701.5C 426.563,700.898 426.396,700.065 424.5,699C 425.738,699.077 426.738,698.911 427.5,698.5C 425.865,697.319 424.198,697.319 422.5,698.5C 420.92,695.426 419.586,692.259 418.5,689C 418.833,688.667 419.167,688.333 419.5,688C 418.216,687.316 417.049,687.483 416,688.5C 413.858,686.173 411.358,684.507 408.5,683.5C 408.784,685.415 408.451,687.081 407.5,688.5C 407.667,658.498 407.5,628.498 407,598.5C 388.592,598.702 370.092,598.368 351.5,597.5C 344.825,597.666 338.158,597.5 331.5,597C 348.236,597.145 364.736,596.312 381,594.5C 381.333,594.833 381.667,595.167 382,595.5C 382.374,594.584 382.874,593.75 383.5,593C 385.631,592.457 387.631,591.624 389.5,590.5C 391.729,587.876 393.895,585.876 396,584.5C 396.5,585.667 397.333,586.5 398.5,587C 395.287,589.628 395.454,592.461 399,595.5C 399.309,594.234 399.809,593.067 400.5,592C 402.764,591.764 404.931,591.264 407,590.5C 407.5,591.5 408,592.5 408.5,593.5C 406.144,594.654 405.977,595.987 408,597.5C 408.333,603.833 408.667,610.167 409,616.5C 412.847,617.731 416.68,617.731 420.5,616.5C 419.939,618.426 419.773,620.426 420,622.5C 419.586,622.043 419.086,621.709 418.5,621.5C 416.981,622.851 415.648,624.351 414.5,626C 416.631,626.543 418.631,627.376 420.5,628.5C 419.5,629.167 418.5,629.833 417.5,630.5C 417.846,631.696 418.346,631.696 419,630.5C 419.45,632.519 420.283,634.352 421.5,636C 421,636.5 420.5,637 420,637.5C 418.826,634.747 416.993,633.747 414.5,634.5C 416.162,636.311 416.328,637.978 415,639.5C 414.333,636.833 413.667,636.833 413,639.5C 411.899,637.606 410.566,636.939 409,637.5C 408.333,646.833 408.333,656.167 409,665.5C 409.915,666.328 410.581,667.328 411,668.5C 411.219,667.062 411.719,665.729 412.5,664.5C 413.842,665.902 414.676,665.569 415,663.5C 415.495,665.473 415.662,667.473 415.5,669.5C 417.711,669.967 419.711,670.967 421.5,672.5C 421.167,673.5 420.5,674.167 419.5,674.5C 418.232,673.572 416.899,673.405 415.5,674C 417.345,675.128 419.345,675.628 421.5,675.5C 421.875,678.397 421.375,681.063 420,683.5C 419.751,682.376 419.251,681.376 418.5,680.5C 418.167,680.833 417.833,681.167 417.5,681.5C 418.246,682.736 418.579,684.07 418.5,685.5C 420.433,685.729 422.1,686.562 423.5,688C 424.841,691.006 427.175,692.506 430.5,692.5C 430.5,683.833 430.5,675.167 430.5,666.5C 428.208,666.244 426.041,666.577 424,667.5C 423.506,665.866 423.34,664.199 423.5,662.5C 424.675,662.719 425.675,662.386 426.5,661.5C 425.998,660.284 425.665,659.117 425.5,658C 426.308,657.692 426.975,657.192 427.5,656.5C 427.154,655.304 426.654,655.304 426,656.5C 425.755,652.844 425.589,649.344 425.5,646C 426.536,644.099 427.702,642.265 429,640.5C 429.333,640.833 429.667,641.167 430,641.5C 430.169,625.995 430.669,610.661 431.5,595.5 Z"/></g>
<g><path style="opacity:1" fill="#393938" d="M 595.5,667.5 C 597.414,670.684 598.08,674.351 597.5,678.5C 596.77,674.939 596.103,671.273 595.5,667.5 Z"/></g>
<g><path style="opacity:1" fill="#1f1f1f" d="M 590.5,688.5 C 595.844,688.334 601.177,688.501 606.5,689C 608.993,692.174 609.993,695.841 609.5,700C 609.714,703.569 609.047,706.902 607.5,710C 591.03,716.186 584.196,710.686 587,693.5C 587.257,691.093 588.424,689.427 590.5,688.5 Z"/></g>
<g><path style="opacity:1" fill="#1a1a1a" d="M 680.5,688.5 C 685.511,688.334 690.511,688.501 695.5,689C 696.931,689.465 698.097,690.299 699,691.5C 699.667,697.5 699.667,703.5 699,709.5C 698.5,710 698,710.5 697.5,711C 691.833,711.667 686.167,711.667 680.5,711C 679.692,710.692 679.025,710.192 678.5,709.5C 677.376,703.552 677.21,697.552 678,691.5C 679.045,690.627 679.878,689.627 680.5,688.5 Z"/></g>
<g><path style="opacity:1" fill="#1d1d1d" d="M 621.5,690.5 C 625.18,691.572 628.847,691.572 632.5,690.5C 634.697,690.848 636.53,691.848 638,693.5C 638.667,699.5 638.667,705.5 638,711.5C 637.167,712.333 636.333,713.167 635.5,714C 630.833,714.667 626.167,714.667 621.5,714C 619.998,713.417 618.665,712.584 617.5,711.5C 616.379,705.886 616.212,700.22 617,694.5C 617.907,692.391 619.407,691.058 621.5,690.5 Z"/></g>
<g><path style="opacity:1" fill="#191919" d="M 152.5,676.5 C 152.5,716.833 152.5,757.167 152.5,797.5C 151.842,798.398 151.176,799.398 150.5,800.5C 149.604,799.494 148.938,799.494 148.5,800.5C 151.505,802.503 152.172,805.17 150.5,808.5C 147.876,807.924 147.209,806.59 148.5,804.5C 147.675,803.614 146.675,803.281 145.5,803.5C 145.799,801.396 145.466,799.396 144.5,797.5C 143.304,797.846 143.304,798.346 144.5,799C 142.866,799.494 141.199,799.66 139.5,799.5C 139.26,802.579 139.593,805.579 140.5,808.5C 139.5,809.333 138.5,810.167 137.5,811C 138.357,811.689 139.023,812.522 139.5,813.5C 138.075,814.483 136.075,815.15 133.5,815.5C 132.862,817.46 132.862,819.293 133.5,821C 131.956,820.513 130.29,820.013 128.5,819.5C 128.413,822.598 128.913,822.932 130,820.5C 131.431,822.86 131.598,825.027 130.5,827C 133.174,830.74 132.008,832.906 127,833.5C 123.854,833.591 120.687,832.924 117.5,831.5C 117.334,824.492 117.5,817.492 118,810.5C 120.175,809.745 122.341,808.912 124.5,808C 122.699,807.683 122.366,807.016 123.5,806C 127.594,805.443 131.594,804.61 135.5,803.5C 135.383,801.516 136.05,799.85 137.5,798.5C 136.609,797.41 135.609,797.41 134.5,798.5C 133.614,797.675 133.281,796.675 133.5,795.5C 132.167,795.5 130.833,795.5 129.5,795.5C 129.5,794.5 129.5,793.5 129.5,792.5C 132.598,792.587 132.932,792.087 130.5,791C 132.67,789.414 135.004,788.08 137.5,787C 136.241,786.077 134.908,785.243 133.5,784.5C 133.808,783.692 134.308,783.025 135,782.5C 138.27,784.766 141.77,785.433 145.5,784.5C 142.996,783.816 140.329,782.816 137.5,781.5C 137.5,780.167 137.5,778.833 137.5,777.5C 136.448,777.649 135.448,777.483 134.5,777C 136.424,774.343 138.758,772.177 141.5,770.5C 138.599,768.665 137.933,766.331 139.5,763.5C 142.292,763.452 144.125,764.785 145,767.5C 146.157,754.02 145.324,740.686 142.5,727.5C 140.627,728.089 138.96,727.422 137.5,725.5C 137.872,722.061 138.205,718.394 138.5,714.5C 138.681,711.402 138.015,708.569 136.5,706C 137.385,703.843 139.052,703.01 141.5,703.5C 141.16,700.856 141.827,698.523 143.5,696.5C 142.167,695.833 140.833,695.167 139.5,694.5C 140.833,692.5 142.167,690.5 143.5,688.5C 140.373,688.02 137.54,687.02 135,685.5C 134.667,685.833 134.333,686.167 134,686.5C 133.751,685.376 133.251,684.376 132.5,683.5C 131.833,685.5 131.167,687.5 130.5,689.5C 129.575,690.641 128.741,690.641 128,689.5C 127.667,690.5 127.333,691.5 127,692.5C 126.077,691.241 125.243,689.908 124.5,688.5C 122.221,686.874 119.888,686.041 117.5,686C 118.793,685.51 120.127,685.343 121.5,685.5C 120.742,682.513 119.909,679.513 119,676.5C 118.583,675.244 117.75,674.577 116.5,674.5C 122.447,661.016 132.114,657.516 145.5,664C 149.8,667.102 152.133,671.269 152.5,676.5 Z"/></g>
<g><path style="opacity:1" fill="#181818" d="M 116.5,674.5 C 117.75,674.577 118.583,675.244 119,676.5C 119.909,679.513 120.742,682.513 121.5,685.5C 120.127,685.343 118.793,685.51 117.5,686C 119.888,686.041 122.221,686.874 124.5,688.5C 125.243,689.908 126.077,691.241 127,692.5C 127.333,691.5 127.667,690.5 128,689.5C 128.741,690.641 129.575,690.641 130.5,689.5C 131.167,687.5 131.833,685.5 132.5,683.5C 133.251,684.376 133.751,685.376 134,686.5C 134.333,686.167 134.667,685.833 135,685.5C 137.54,687.02 140.373,688.02 143.5,688.5C 142.167,690.5 140.833,692.5 139.5,694.5C 140.833,695.167 142.167,695.833 143.5,696.5C 141.827,698.523 141.16,700.856 141.5,703.5C 139.052,703.01 137.385,703.843 136.5,706C 138.015,708.569 138.681,711.402 138.5,714.5C 138.205,718.394 137.872,722.061 137.5,725.5C 138.96,727.422 140.627,728.089 142.5,727.5C 145.324,740.686 146.157,754.02 145,767.5C 144.125,764.785 142.292,763.452 139.5,763.5C 137.933,766.331 138.599,768.665 141.5,770.5C 138.758,772.177 136.424,774.343 134.5,777C 135.448,777.483 136.448,777.649 137.5,777.5C 137.5,778.833 137.5,780.167 137.5,781.5C 140.329,782.816 142.996,783.816 145.5,784.5C 141.77,785.433 138.27,784.766 135,782.5C 134.308,783.025 133.808,783.692 133.5,784.5C 134.908,785.243 136.241,786.077 137.5,787C 135.004,788.08 132.67,789.414 130.5,791C 132.932,792.087 132.598,792.587 129.5,792.5C 129.5,793.5 129.5,794.5 129.5,795.5C 130.833,795.5 132.167,795.5 133.5,795.5C 133.281,796.675 133.614,797.675 134.5,798.5C 135.609,797.41 136.609,797.41 137.5,798.5C 136.05,799.85 135.383,801.516 135.5,803.5C 131.594,804.61 127.594,805.443 123.5,806C 122.366,807.016 122.699,807.683 124.5,808C 122.341,808.912 120.175,809.745 118,810.5C 117.5,817.492 117.334,824.492 117.5,831.5C 120.687,832.924 123.854,833.591 127,833.5C 132.008,832.906 133.174,830.74 130.5,827C 131.598,825.027 131.431,822.86 130,820.5C 128.913,822.932 128.413,822.598 128.5,819.5C 130.29,820.013 131.956,820.513 133.5,821C 132.862,819.293 132.862,817.46 133.5,815.5C 136.075,815.15 138.075,814.483 139.5,813.5C 139.023,812.522 138.357,811.689 137.5,811C 138.5,810.167 139.5,809.333 140.5,808.5C 139.593,805.579 139.26,802.579 139.5,799.5C 141.199,799.66 142.866,799.494 144.5,799C 143.304,798.346 143.304,797.846 144.5,797.5C 145.466,799.396 145.799,801.396 145.5,803.5C 146.675,803.281 147.675,803.614 148.5,804.5C 147.209,806.59 147.876,807.924 150.5,808.5C 152.172,805.17 151.505,802.503 148.5,800.5C 148.938,799.494 149.604,799.494 150.5,800.5C 151.176,799.398 151.842,798.398 152.5,797.5C 152.5,812.5 152.5,827.5 152.5,842.5C 208.5,842.5 264.5,842.5 320.5,842.5C 323.649,842.415 326.316,843.415 328.5,845.5C 325.868,845.253 323.201,846.086 320.5,848C 319.167,848.667 319.167,849.333 320.5,850C 319.234,850.309 318.067,850.809 317,851.5C 316.097,850.299 314.931,849.465 313.5,849C 314.451,848.282 314.617,847.449 314,846.5C 312.732,846.616 311.398,846.949 310,847.5C 309.544,846.256 310.044,845.423 311.5,845C 308.188,842.759 305.188,843.092 302.5,846C 303.5,846.333 304.5,846.667 305.5,847C 303.294,847.732 301.628,847.065 300.5,845C 301.167,844.667 301.833,844.333 302.5,844C 300.333,843.833 298.167,843.667 296,843.5C 289.873,843.791 283.707,843.791 277.5,843.5C 276.006,843.709 274.839,844.376 274,845.5C 273.667,844.833 273.333,844.167 273,843.5C 269.04,843.898 264.874,843.898 260.5,843.5C 256.833,843.667 253.167,843.833 249.5,844C 253.449,844.807 253.449,845.307 249.5,845.5C 249.812,849.023 248.479,850.356 245.5,849.5C 244.269,850.651 244.269,851.817 245.5,853C 243.693,854.602 241.693,855.936 239.5,857C 237.555,856.872 235.722,857.038 234,857.5C 232.331,855.831 231.498,853.831 231.5,851.5C 234.518,851.2 236.518,849.533 237.5,846.5C 235.929,844.585 233.929,843.585 231.5,843.5C 231.716,845.681 230.883,847.347 229,848.5C 225.553,847.62 222.387,846.12 219.5,844C 209.093,843.074 198.759,843.408 188.5,845C 191.146,845.497 193.813,845.664 196.5,845.5C 196.911,848.553 197.577,851.553 198.5,854.5C 200.045,855.452 201.712,855.785 203.5,855.5C 203.201,853.396 203.534,851.396 204.5,849.5C 205.167,852.833 205.833,856.167 206.5,859.5C 207.167,855.5 207.833,851.5 208.5,847.5C 209.351,852.303 209.684,856.97 209.5,861.5C 208.502,864.028 207.669,864.028 207,861.5C 206.803,863.516 205.803,865.516 204,867.5C 203.25,868.126 202.416,868.626 201.5,869C 202.956,869.423 203.456,870.256 203,871.5C 201.261,871.566 199.428,872.233 197.5,873.5C 195.912,872.99 194.745,871.99 194,870.5C 193.586,870.957 193.086,871.291 192.5,871.5C 191.571,870.311 191.238,868.978 191.5,867.5C 186.489,867.334 181.489,867.501 176.5,868C 175.789,869.255 174.956,870.421 174,871.5C 173.333,870.167 172.667,870.167 172,871.5C 171.667,870.5 171.333,869.5 171,868.5C 165.071,870.292 159.237,872.459 153.5,875C 154.549,875.492 155.549,875.326 156.5,874.5C 159.028,875.498 159.028,876.331 156.5,877C 156.833,877.333 157.167,877.667 157.5,878C 148.506,878.5 139.506,878.666 130.5,878.5C 122.508,876.673 117.675,871.673 116,863.5C 115.174,800.459 115.341,737.459 116.5,674.5 Z"/></g>
<g><path style="opacity:1" fill="#363636" d="M 152.5,676.5 C 153.499,731.331 153.832,786.331 153.5,841.5C 209.336,841.168 265.002,841.501 320.5,842.5C 264.5,842.5 208.5,842.5 152.5,842.5C 152.5,827.5 152.5,812.5 152.5,797.5C 152.5,757.167 152.5,716.833 152.5,676.5 Z"/></g>
<g><path style="opacity:1" fill="#191919" d="M 699.5,842.5 C 707.47,842.153 715.303,842.82 723,844.5C 725.42,843.512 727.753,843.845 730,845.5C 731,842.833 732,842.833 733,845.5C 733.839,844.376 735.006,843.709 736.5,843.5C 739.369,843.922 742.369,844.089 745.5,844C 744.377,845.044 743.044,845.71 741.5,846C 744.833,847 748.167,848 751.5,849C 750.833,849.667 750.167,850.333 749.5,851C 751.053,852.097 752.386,853.43 753.5,855C 751.496,856.36 750.663,858.193 751,860.5C 754.64,861.088 758.14,862.088 761.5,863.5C 763.5,862.5 765.5,861.5 767.5,860.5C 765.317,857.867 764.984,855.034 766.5,852C 768.5,851.333 770.5,851.333 772.5,852C 771.044,852.423 770.544,853.256 771,854.5C 773.323,854.669 775.656,854.003 778,852.5C 780.61,853.94 782.777,855.94 784.5,858.5C 786.854,857.94 789.187,857.273 791.5,856.5C 789.734,853.18 788.4,849.68 787.5,846C 788.5,845.333 789.5,845.333 790.5,846C 789.549,846.718 789.383,847.551 790,848.5C 790.667,849.833 791.333,849.833 792,848.5C 793.135,851.707 795.135,853.041 798,852.5C 798.81,850.694 799.976,849.194 801.5,848C 801.333,847.5 801.167,847 801,846.5C 797.359,848.367 795.692,847.367 796,843.5C 798.042,843.818 800.209,843.985 802.5,844C 802.167,844.333 801.833,844.667 801.5,845C 803.463,847.876 805.796,848.209 808.5,846C 806.699,845.683 806.366,845.016 807.5,844C 810,843.833 812.5,843.667 815,843.5C 817.95,843.568 820.617,844.234 823,845.5C 823.519,844.484 824.353,843.818 825.5,843.5C 828.063,843.737 828.063,844.237 825.5,845C 827.158,846.624 828.825,848.291 830.5,850C 828.807,852.952 826.974,853.118 825,850.5C 824.667,852.167 824.333,853.833 824,855.5C 822.684,858.028 821.517,858.028 820.5,855.5C 818.999,856.752 817.332,857.752 815.5,858.5C 817.377,858.863 819.544,859.53 822,860.5C 824.799,859.802 827.966,859.468 831.5,859.5C 831.351,858.448 831.517,857.448 832,856.5C 832.333,856.833 832.667,857.167 833,857.5C 835.494,856.225 837.994,854.892 840.5,853.5C 841.711,854.274 841.711,855.107 840.5,856C 843.027,857.973 843.693,857.473 842.5,854.5C 843.242,853.713 844.075,853.047 845,852.5C 844.57,854.127 844.404,855.627 844.5,857C 846.406,858.993 847.573,858.493 848,855.5C 848.318,857.061 849.151,858.228 850.5,859C 849.124,861.54 849.79,863.54 852.5,865C 856.995,866.932 857.328,866.599 853.5,864C 854.5,863.5 855.5,863 856.5,862.5C 861.059,863.43 862.059,865.596 859.5,869C 862.305,872.502 864.805,872.335 867,868.5C 868.067,869.191 869.234,869.691 870.5,870C 869.376,870.249 868.376,870.749 867.5,871.5C 871.677,874.259 871.343,876.426 866.5,878C 874.827,878.5 883.16,878.666 891.5,878.5C 827.335,879.665 763.001,879.832 698.5,879C 687.122,874.751 682.622,866.585 685,854.5C 687.315,847.344 692.148,843.344 699.5,842.5 Z"/></g>
<g><path style="opacity:1" fill="#191919" d="M 328.5,845.5 C 338.392,854.61 339.059,864.443 330.5,875C 327.874,877.146 324.874,878.479 321.5,879C 257.665,879.832 193.999,879.665 130.5,878.5C 139.506,878.666 148.506,878.5 157.5,878C 157.167,877.667 156.833,877.333 156.5,877C 159.028,876.331 159.028,875.498 156.5,874.5C 155.549,875.326 154.549,875.492 153.5,875C 159.237,872.459 165.071,870.292 171,868.5C 171.333,869.5 171.667,870.5 172,871.5C 172.667,870.167 173.333,870.167 174,871.5C 174.956,870.421 175.789,869.255 176.5,868C 181.489,867.501 186.489,867.334 191.5,867.5C 191.238,868.978 191.571,870.311 192.5,871.5C 193.086,871.291 193.586,870.957 194,870.5C 194.745,871.99 195.912,872.99 197.5,873.5C 199.428,872.233 201.261,871.566 203,871.5C 203.456,870.256 202.956,869.423 201.5,869C 202.416,868.626 203.25,868.126 204,867.5C 205.803,865.516 206.803,863.516 207,861.5C 207.669,864.028 208.502,864.028 209.5,861.5C 209.684,856.97 209.351,852.303 208.5,847.5C 207.833,851.5 207.167,855.5 206.5,859.5C 205.833,856.167 205.167,852.833 204.5,849.5C 203.534,851.396 203.201,853.396 203.5,855.5C 201.712,855.785 200.045,855.452 198.5,854.5C 197.577,851.553 196.911,848.553 196.5,845.5C 193.813,845.664 191.146,845.497 188.5,845C 198.759,843.408 209.093,843.074 219.5,844C 222.387,846.12 225.553,847.62 229,848.5C 230.883,847.347 231.716,845.681 231.5,843.5C 233.929,843.585 235.929,844.585 237.5,846.5C 236.518,849.533 234.518,851.2 231.5,851.5C 231.498,853.831 232.331,855.831 234,857.5C 235.722,857.038 237.555,856.872 239.5,857C 241.693,855.936 243.693,854.602 245.5,853C 244.269,851.817 244.269,850.651 245.5,849.5C 248.479,850.356 249.812,849.023 249.5,845.5C 253.449,845.307 253.449,844.807 249.5,844C 253.167,843.833 256.833,843.667 260.5,843.5C 264.874,843.898 269.04,843.898 273,843.5C 273.333,844.167 273.667,844.833 274,845.5C 274.839,844.376 276.006,843.709 277.5,843.5C 283.707,843.791 289.873,843.791 296,843.5C 298.167,843.667 300.333,843.833 302.5,844C 301.833,844.333 301.167,844.667 300.5,845C 301.628,847.065 303.294,847.732 305.5,847C 304.5,846.667 303.5,846.333 302.5,846C 305.188,843.092 308.188,842.759 311.5,845C 310.044,845.423 309.544,846.256 310,847.5C 311.398,846.949 312.732,846.616 314,846.5C 314.617,847.449 314.451,848.282 313.5,849C 314.931,849.465 316.097,850.299 317,851.5C 318.067,850.809 319.234,850.309 320.5,850C 319.167,849.333 319.167,848.667 320.5,848C 323.201,846.086 325.868,845.253 328.5,845.5 Z"/></g>
</svg>
