<?xml version="1.0" encoding="UTF-8"?>
<!DOCTYPE svg PUBLIC "-//W3C//DTD SVG 1.1//EN" "http://www.w3.org/Graphics/SVG/1.1/DTD/svg11.dtd">
<svg xmlns="http://www.w3.org/2000/svg" version="1.1" width="1024px" height="1024px" style="shape-rendering:geometricPrecision; text-rendering:geometricPrecision; image-rendering:optimizeQuality; fill-rule:evenodd; clip-rule:evenodd" xmlns:xlink="http://www.w3.org/1999/xlink">
<g><path style="opacity:1" fill="#e7e8ea" d="M 218.5,249.5 C 217.67,258.991 217.17,268.658 217,278.5C 215.873,274.767 215.039,270.934 214.5,267C 215.167,265.667 215.833,264.333 216.5,263C 215.446,260.618 214.779,258.118 214.5,255.5C 210.136,255.372 209.136,256.705 211.5,259.5C 210.16,263.809 208.66,264.142 207,260.5C 206.667,260.833 206.333,261.167 206,261.5C 206.043,264.319 205.71,267.319 205,270.5C 204.086,266.815 203.419,267.148 203,271.5C 202.282,270.549 201.449,270.383 200.5,271C 201.517,272.049 201.684,273.216 201,274.5C 199.231,276.316 198.064,277.982 197.5,279.5C 196.738,278.372 196.071,277.205 195.5,276C 197.031,272.31 197.531,268.477 197,264.5C 196.333,265.833 195.333,266.833 194,267.5C 193.667,264.833 193.333,262.167 193,259.5C 192.5,293.832 192.333,328.165 192.5,362.5C 192.5,364.5 192.5,366.5 192.5,368.5C 191.335,325.002 191.169,281.335 192,237.5C 194.052,228.117 199.885,222.951 209.5,222C 253.167,221.333 296.833,221.333 340.5,222C 349.946,224.057 354.113,229.891 353,239.5C 351.073,244.428 347.573,247.594 342.5,249C 301.168,249.5 259.835,249.667 218.5,249.5 Z"/></g>
<g><path style="opacity:1" fill="#e7e8e9" d="M 681.5,221.5 C 725.501,221.333 769.501,221.5 813.5,222C 823.346,223.846 829.18,229.68 831,239.5C 831.667,282.5 831.667,325.5 831,368.5C 826.815,378.678 819.649,381.511 809.5,377C 806.246,374.658 804.412,371.491 804,367.5C 803.5,328.168 803.333,288.835 803.5,249.5C 762.499,249.667 721.499,249.5 680.5,249C 669.826,244.984 666.993,237.817 672,227.5C 674.551,224.319 677.718,222.319 681.5,221.5 Z"/></g>
<g><path style="opacity:1" fill="#eceeed" d="M 218.5,249.5 C 218.5,287.167 218.5,324.833 218.5,362.5C 217.673,357.349 217.173,352.016 217,346.5C 216.667,346.167 216.333,345.833 216,345.5C 214.976,347.716 214.476,349.716 214.5,351.5C 212.659,346.297 211.326,340.964 210.5,335.5C 209.833,338.167 209.167,340.833 208.5,343.5C 207.062,341.288 205.395,339.288 203.5,337.5C 202.304,337.846 202.304,338.346 203.5,339C 202.167,339.667 200.833,339.667 199.5,339C 199.833,338 200.167,337 200.5,336C 199.234,335.691 198.067,335.191 197,334.5C 198.343,337.799 197.176,339.466 193.5,339.5C 192.971,343.351 193.638,346.851 195.5,350C 193.352,352.075 193.018,354.408 194.5,357C 193.891,358.948 193.224,360.782 192.5,362.5C 192.333,328.165 192.5,293.832 193,259.5C 193.333,262.167 193.667,264.833 194,267.5C 195.333,266.833 196.333,265.833 197,264.5C 197.531,268.477 197.031,272.31 195.5,276C 196.071,277.205 196.738,278.372 197.5,279.5C 198.064,277.982 199.231,276.316 201,274.5C 201.684,273.216 201.517,272.049 200.5,271C 201.449,270.383 202.282,270.549 203,271.5C 203.419,267.148 204.086,266.815 205,270.5C 205.71,267.319 206.043,264.319 206,261.5C 206.333,261.167 206.667,260.833 207,260.5C 208.66,264.142 210.16,263.809 211.5,259.5C 209.136,256.705 210.136,255.372 214.5,255.5C 214.779,258.118 215.446,260.618 216.5,263C 215.833,264.333 215.167,265.667 214.5,267C 215.039,270.934 215.873,274.767 217,278.5C 217.17,268.658 217.67,258.991 218.5,249.5 Z"/></g>
<g><path style="opacity:1" fill="#f3f6f8" d="M 348.5,360.5 C 385.33,359.502 422.33,359.168 459.5,359.5C 459.832,396.67 459.498,433.67 458.5,470.5C 458.667,456.496 458.5,442.496 458,428.5C 456.46,425.275 456.46,421.942 458,418.5C 458.5,399.17 458.667,379.836 458.5,360.5C 421.833,360.5 385.167,360.5 348.5,360.5 Z"/></g>
<g><path style="opacity:1" fill="#eaecec" d="M 218.5,362.5 C 218.351,377.242 211.351,382.075 197.5,377C 194.404,374.971 192.738,372.138 192.5,368.5C 192.5,366.5 192.5,364.5 192.5,362.5C 193.224,360.782 193.891,358.948 194.5,357C 193.018,354.408 193.352,352.075 195.5,350C 193.638,346.851 192.971,343.351 193.5,339.5C 197.176,339.466 198.343,337.799 197,334.5C 198.067,335.191 199.234,335.691 200.5,336C 200.167,337 199.833,338 199.5,339C 200.833,339.667 202.167,339.667 203.5,339C 202.304,338.346 202.304,337.846 203.5,337.5C 205.395,339.288 207.062,341.288 208.5,343.5C 209.167,340.833 209.833,338.167 210.5,335.5C 211.326,340.964 212.659,346.297 214.5,351.5C 214.476,349.716 214.976,347.716 216,345.5C 216.333,345.833 216.667,346.167 217,346.5C 217.173,352.016 217.673,357.349 218.5,362.5 Z"/></g>
<g><path style="opacity:1" fill="#eff1f1" d="M 674.5,360.5 C 674.167,360.5 673.833,360.5 673.5,360.5C 638.498,360.333 603.498,360.5 568.5,361C 567.542,362.147 567.875,363.147 569.5,364C 567.025,366.617 567.525,368.784 571,370.5C 571.333,369.5 571.667,368.5 572,367.5C 573.333,369.5 574.667,371.5 576,373.5C 576.667,372.833 577.333,372.167 578,371.5C 580.178,371.936 582.678,372.436 585.5,373C 582.964,373.186 580.631,373.686 578.5,374.5C 577.668,397.33 577.168,420.33 577,443.5C 576.817,435.588 576.317,427.754 575.5,420C 576.654,408.576 576.82,397.076 576,385.5C 575,385.167 574,384.833 573,384.5C 572.667,385.167 572.333,385.833 572,386.5C 569.578,381.967 567.245,376.967 565,371.5C 564.832,404.003 564.332,436.336 563.5,468.5C 563.83,432.26 563.496,396.094 562.5,360C 600.002,359.169 637.336,359.336 674.5,360.5 Z"/></g>
<g><path style="opacity:1" fill="#ebedef" d="M 473.5,374.5 C 477.833,374.5 482.167,374.5 486.5,374.5C 486.5,378.833 486.5,383.167 486.5,387.5C 482.167,387.5 477.833,387.5 473.5,387.5C 473.5,383.167 473.5,378.833 473.5,374.5 Z"/></g>
<g><path style="opacity:1" fill="#eef1f1" d="M 534.5,374.5 C 538.833,374.5 543.167,374.5 547.5,374.5C 547.5,378.833 547.5,383.167 547.5,387.5C 543.167,387.5 538.833,387.5 534.5,387.5C 534.5,383.167 534.5,378.833 534.5,374.5 Z"/></g>
<g><path style="opacity:1" fill="#eaeced" d="M 534.5,398.5 C 530.486,400.334 526.153,401.001 521.5,400.5C 521.665,396.818 521.499,393.152 521,389.5C 517.943,388.549 514.777,388.216 511.5,388.5C 511.5,392.833 511.5,397.167 511.5,401.5C 506.821,401.666 502.155,401.499 497.5,401C 497.54,396.961 497.873,392.794 498.5,388.5C 502.106,388.789 505.606,388.456 509,387.5C 509.793,383.577 509.626,379.744 508.5,376C 513.155,375.501 517.821,375.334 522.5,375.5C 522.5,379.833 522.5,384.167 522.5,388.5C 526.5,388.5 530.5,388.5 534.5,388.5C 534.5,391.833 534.5,395.167 534.5,398.5 Z"/></g>
<g><path style="opacity:1" fill="#d4d6d9" d="M 534.5,398.5 C 534.5,399.5 534.5,400.5 534.5,401.5C 529.968,401.818 525.634,401.485 521.5,400.5C 526.153,401.001 530.486,400.334 534.5,398.5 Z"/></g>
<g><path style="opacity:1" fill="#c0c3c6" d="M 485.5,401.5 C 482.038,402.482 478.371,402.815 474.5,402.5C 474.5,406.5 474.5,410.5 474.5,414.5C 478.371,414.185 482.038,414.518 485.5,415.5C 481.5,415.5 477.5,415.5 473.5,415.5C 473.5,410.833 473.5,406.167 473.5,401.5C 477.5,401.5 481.5,401.5 485.5,401.5 Z"/></g>
<g><path style="opacity:1" fill="#eff2f4" d="M 485.5,401.5 C 486.833,406.167 486.833,410.833 485.5,415.5C 482.038,414.518 478.371,414.185 474.5,414.5C 474.5,410.5 474.5,406.5 474.5,402.5C 478.371,402.815 482.038,402.482 485.5,401.5 Z"/></g>
<g><path style="opacity:1" fill="#edeef0" d="M 535.5,402.5 C 539.833,402.5 544.167,402.5 548.5,402.5C 548.5,406.833 548.5,411.167 548.5,415.5C 544.167,415.5 539.833,415.5 535.5,415.5C 535.5,411.167 535.5,406.833 535.5,402.5 Z"/></g>
<g><path style="opacity:1" fill="#eaeaea" d="M 497.5,417.5 C 501.5,417.5 505.5,417.5 509.5,417.5C 509.5,422.167 509.5,426.833 509.5,431.5C 505.167,431.5 500.833,431.5 496.5,431.5C 496.226,426.737 496.559,422.07 497.5,417.5 Z"/></g>
<g><path style="opacity:1" fill="#edefef" d="M 524.5,434.5 C 523.458,433.209 522.292,433.209 521,434.5C 520.823,430.644 520.323,426.977 519.5,423.5C 516.609,422.597 513.609,422.264 510.5,422.5C 510.5,418.167 510.5,413.833 510.5,409.5C 514.833,409.5 519.167,409.5 523.5,409.5C 523.5,413.5 523.5,417.5 523.5,421.5C 526.833,421.5 530.167,421.5 533.5,421.5C 533.5,425.833 533.5,430.167 533.5,434.5C 530.5,434.5 527.5,434.5 524.5,434.5 Z"/></g>
<g><path style="opacity:1" fill="#d4d6d8" d="M 519.5,423.5 C 520.323,426.977 520.823,430.644 521,434.5C 522.292,433.209 523.458,433.209 524.5,434.5C 524.5,434.833 524.5,435.167 524.5,435.5C 521.5,435.5 518.5,435.5 515.5,435.5C 516.568,434.566 517.901,434.232 519.5,434.5C 519.5,430.833 519.5,427.167 519.5,423.5 Z"/></g>
<g><path style="opacity:1" fill="#d5d7da" d="M 673.5,360.5 C 673.833,360.5 674.167,360.5 674.5,360.5C 674.5,397.167 674.5,433.833 674.5,470.5C 672.833,470.5 671.167,470.5 669.5,470.5C 670.568,469.566 671.901,469.232 673.5,469.5C 673.5,433.167 673.5,396.833 673.5,360.5 Z"/></g>
<g><path style="opacity:1" fill="#e9eaea" d="M 486.5,440.5 C 485.833,440.5 485.5,440.833 485.5,441.5C 481.5,441.5 477.5,441.5 473.5,441.5C 473.176,437.445 473.509,433.445 474.5,429.5C 478.429,428.567 482.429,428.234 486.5,428.5C 486.5,432.5 486.5,436.5 486.5,440.5 Z"/></g>
<g><path style="opacity:1" fill="#e9ebeb" d="M 536.5,430.5 C 541.149,431.065 545.816,431.565 550.5,432C 549.536,436.066 549.203,440.233 549.5,444.5C 545.167,444.5 540.833,444.5 536.5,444.5C 536.5,439.833 536.5,435.167 536.5,430.5 Z"/></g>
<g><path style="opacity:1" fill="#f0f3f2" d="M 515.5,435.5 C 518.5,435.5 521.5,435.5 524.5,435.5C 524.5,439.5 524.5,443.5 524.5,447.5C 520.167,447.5 515.833,447.5 511.5,447.5C 511.174,443.116 511.508,438.783 512.5,434.5C 513.417,435.127 514.417,435.461 515.5,435.5 Z"/></g>
<g><path style="opacity:1" fill="#e7e9ea" d="M 486.5,440.5 C 490.5,440.5 494.5,440.5 498.5,440.5C 498.5,444.833 498.5,449.167 498.5,453.5C 502.5,453.5 506.5,453.5 510.5,453.5C 510.5,457.5 510.5,461.5 510.5,465.5C 513.833,465.5 517.167,465.5 520.5,465.5C 520.5,470.167 520.5,474.833 520.5,479.5C 516.154,479.666 511.821,479.499 507.5,479C 507.76,474.947 507.427,470.781 506.5,466.5C 504.639,465.493 501.972,465.16 498.5,465.5C 498.815,461.629 498.482,457.962 497.5,454.5C 493.833,454.5 490.167,454.5 486.5,454.5C 486.5,453.833 486.167,453.5 485.5,453.5C 485.5,449.5 485.5,445.5 485.5,441.5C 485.5,440.833 485.833,440.5 486.5,440.5 Z"/></g>
<g><path style="opacity:1" fill="#e7e8e8" d="M 523.5,452.5 C 527.514,452.334 531.514,452.501 535.5,453C 536.464,457.066 536.797,461.233 536.5,465.5C 532.167,465.5 527.833,465.5 523.5,465.5C 523.5,461.167 523.5,456.833 523.5,452.5 Z"/></g>
<g><path style="opacity:1" fill="#eaecec" d="M 348.5,360.5 C 385.167,360.5 421.833,360.5 458.5,360.5C 458.667,379.836 458.5,399.17 458,418.5C 456.46,421.942 456.46,425.275 458,428.5C 458.5,442.496 458.667,456.496 458.5,470.5C 421.833,470.5 385.167,470.5 348.5,470.5C 348.5,433.833 348.5,397.167 348.5,360.5 Z M 363.5,374.5 C 390.5,374.5 417.5,374.5 444.5,374.5C 444.5,401.5 444.5,428.5 444.5,455.5C 417.5,455.5 390.5,455.5 363.5,455.5C 363.5,428.5 363.5,401.5 363.5,374.5 Z M 408.5,427.5 C 402.833,427.5 397.167,427.5 391.5,427.5C 391.5,418.833 391.5,410.167 391.5,401.5C 399.916,401.425 408.083,401.758 416,402.5C 416.5,410.827 416.666,419.16 416.5,427.5C 413.833,427.5 411.167,427.5 408.5,427.5 Z"/></g>
<g><path style="opacity:1" fill="#e5e6e8" d="M 429.5,388.5 C 429.667,405.17 429.5,421.837 429,438.5C 428.667,435.833 428.333,433.167 428,430.5C 427.5,429.333 426.667,428.5 425.5,428C 426.895,425.925 426.562,424.092 424.5,422.5C 426.439,420.878 426.772,419.044 425.5,417C 426.416,416.626 427.25,416.126 428,415.5C 429.145,408.682 427.978,402.349 424.5,396.5C 427.987,395.491 429.32,393.158 428.5,389.5C 420.562,388.805 412.896,389.805 405.5,392.5C 404.808,393.025 404.308,393.692 404,394.5C 401.26,393.718 398.426,393.218 395.5,393C 393.914,390.173 392.248,390.007 390.5,392.5C 389.029,390.187 387.196,389.853 385,391.5C 383.527,391.097 382.194,390.43 381,389.5C 378.3,397.038 379.467,403.871 384.5,410C 383.491,412.172 381.824,413.338 379.5,413.5C 379.423,422.335 379.757,431.002 380.5,439.5C 383.328,437.252 386.328,435.252 389.5,433.5C 391.334,434.754 393.334,435.421 395.5,435.5C 395.261,433.533 395.594,431.699 396.5,430C 394.256,429.95 392.589,429.117 391.5,427.5C 397.167,427.5 402.833,427.5 408.5,427.5C 405.934,430.48 402.6,432.147 398.5,432.5C 397.827,434.689 396.827,436.689 395.5,438.5C 406.326,439.167 416.992,439.833 427.5,440.5C 411,441.826 394.5,441.826 378,440.5C 377.5,423.17 377.333,405.837 377.5,388.5C 394.833,388.5 412.167,388.5 429.5,388.5 Z M 408.5,427.5 C 402.833,427.5 397.167,427.5 391.5,427.5C 391.5,418.833 391.5,410.167 391.5,401.5C 399.916,401.425 408.083,401.758 416,402.5C 416.5,410.827 416.666,419.16 416.5,427.5C 413.833,427.5 411.167,427.5 408.5,427.5 Z"/></g>
<g><path style="opacity:1" fill="#e8e9ea" d="M 429.5,388.5 C 430.662,405.662 430.829,422.995 430,440.5C 429.23,441.598 428.397,441.598 427.5,440.5C 416.992,439.833 406.326,439.167 395.5,438.5C 396.827,436.689 397.827,434.689 398.5,432.5C 402.6,432.147 405.934,430.48 408.5,427.5C 411.167,427.5 413.833,427.5 416.5,427.5C 416.666,419.16 416.5,410.827 416,402.5C 408.083,401.758 399.916,401.425 391.5,401.5C 391.5,410.167 391.5,418.833 391.5,427.5C 392.589,429.117 394.256,429.95 396.5,430C 395.594,431.699 395.261,433.533 395.5,435.5C 393.334,435.421 391.334,434.754 389.5,433.5C 386.328,435.252 383.328,437.252 380.5,439.5C 379.757,431.002 379.423,422.335 379.5,413.5C 381.824,413.338 383.491,412.172 384.5,410C 379.467,403.871 378.3,397.038 381,389.5C 382.194,390.43 383.527,391.097 385,391.5C 387.196,389.853 389.029,390.187 390.5,392.5C 392.248,390.007 393.914,390.173 395.5,393C 398.426,393.218 401.26,393.718 404,394.5C 404.308,393.692 404.808,393.025 405.5,392.5C 412.896,389.805 420.562,388.805 428.5,389.5C 429.32,393.158 427.987,395.491 424.5,396.5C 427.978,402.349 429.145,408.682 428,415.5C 427.25,416.126 426.416,416.626 425.5,417C 426.772,419.044 426.439,420.878 424.5,422.5C 426.562,424.092 426.895,425.925 425.5,428C 426.667,428.5 427.5,429.333 428,430.5C 428.333,433.167 428.667,435.833 429,438.5C 429.5,421.837 429.667,405.17 429.5,388.5 Z M 408.5,427.5 C 402.833,427.5 397.167,427.5 391.5,427.5C 391.5,418.833 391.5,410.167 391.5,401.5C 399.916,401.425 408.083,401.758 416,402.5C 416.5,410.827 416.666,419.16 416.5,427.5C 413.833,427.5 411.167,427.5 408.5,427.5 Z"/></g>
<g><path style="opacity:1" fill="#eaeceb" d="M 673.5,360.5 C 673.5,396.833 673.5,433.167 673.5,469.5C 671.901,469.232 670.568,469.566 669.5,470.5C 633.832,470.667 598.165,470.5 562.5,470C 563.056,469.617 563.389,469.117 563.5,468.5C 564.332,436.336 564.832,404.003 565,371.5C 567.245,376.967 569.578,381.967 572,386.5C 572.333,385.833 572.667,385.167 573,384.5C 574,384.833 575,385.167 576,385.5C 576.82,397.076 576.654,408.576 575.5,420C 576.317,427.754 576.817,435.588 577,443.5C 577.168,420.33 577.668,397.33 578.5,374.5C 580.631,373.686 582.964,373.186 585.5,373C 582.678,372.436 580.178,371.936 578,371.5C 577.333,372.167 576.667,372.833 576,373.5C 574.667,371.5 573.333,369.5 572,367.5C 571.667,368.5 571.333,369.5 571,370.5C 567.525,368.784 567.025,366.617 569.5,364C 567.875,363.147 567.542,362.147 568.5,361C 603.498,360.5 638.498,360.333 673.5,360.5 Z M 578.5,374.5 C 605.5,374.5 632.5,374.5 659.5,374.5C 659.667,401.169 659.5,427.835 659,454.5C 632.241,455.495 605.408,455.828 578.5,455.5C 578.5,428.5 578.5,401.5 578.5,374.5 Z M 606.5,401.5 C 612.833,401.5 619.167,401.5 625.5,401.5C 627.467,401.261 629.301,401.594 631,402.5C 631.5,410.827 631.666,419.16 631.5,427.5C 622.664,427.969 613.997,427.469 605.5,426C 606.482,417.919 606.816,409.752 606.5,401.5 Z"/></g>
<g><path style="opacity:1" fill="#e8eaeb" d="M 592.5,417.5 C 593.222,417.918 593.722,418.584 594,419.5C 594.333,419.167 594.667,418.833 595,418.5C 595.167,419.833 595.333,421.167 595.5,422.5C 594.535,426.102 593.869,429.769 593.5,433.5C 593.54,435.429 593.873,437.262 594.5,439C 610.83,439.5 627.163,439.667 643.5,439.5C 643.5,422.833 643.5,406.167 643.5,389.5C 637.161,388.949 631.161,389.949 625.5,392.5C 625.167,391.833 624.833,391.167 624.5,390.5C 623.796,393.704 623.13,396.871 622.5,400C 623.737,400.232 624.737,400.732 625.5,401.5C 619.167,401.5 612.833,401.5 606.5,401.5C 607.919,400.549 609.585,400.216 611.5,400.5C 611.586,398.323 612.253,396.323 613.5,394.5C 609.447,388.889 604.947,388.222 600,392.5C 598.16,391.167 597.66,391.334 598.5,393C 597.747,394.487 596.914,394.654 596,393.5C 595.629,397.033 594.463,400.033 592.5,402.5C 592.5,397.833 592.5,393.167 592.5,388.5C 609.833,388.5 627.167,388.5 644.5,388.5C 644.5,406.167 644.5,423.833 644.5,441.5C 627.167,441.5 609.833,441.5 592.5,441.5C 592.5,433.5 592.5,425.5 592.5,417.5 Z"/></g>
<g><path style="opacity:1" fill="#eaebeb" d="M 606.5,401.5 C 606.816,409.752 606.482,417.919 605.5,426C 613.997,427.469 622.664,427.969 631.5,427.5C 631.666,419.16 631.5,410.827 631,402.5C 629.301,401.594 627.467,401.261 625.5,401.5C 624.737,400.732 623.737,400.232 622.5,400C 623.13,396.871 623.796,393.704 624.5,390.5C 624.833,391.167 625.167,391.833 625.5,392.5C 631.161,389.949 637.161,388.949 643.5,389.5C 643.5,406.167 643.5,422.833 643.5,439.5C 627.163,439.667 610.83,439.5 594.5,439C 593.873,437.262 593.54,435.429 593.5,433.5C 593.869,429.769 594.535,426.102 595.5,422.5C 595.333,421.167 595.167,419.833 595,418.5C 594.667,418.833 594.333,419.167 594,419.5C 593.722,418.584 593.222,417.918 592.5,417.5C 592.5,412.5 592.5,407.5 592.5,402.5C 594.463,400.033 595.629,397.033 596,393.5C 596.914,394.654 597.747,394.487 598.5,393C 597.66,391.334 598.16,391.167 600,392.5C 604.947,388.222 609.447,388.889 613.5,394.5C 612.253,396.323 611.586,398.323 611.5,400.5C 609.585,400.216 607.919,400.549 606.5,401.5 Z M 606.5,401.5 C 612.833,401.5 619.167,401.5 625.5,401.5C 627.467,401.261 629.301,401.594 631,402.5C 631.5,410.827 631.666,419.16 631.5,427.5C 622.664,427.969 613.997,427.469 605.5,426C 606.482,417.919 606.816,409.752 606.5,401.5 Z"/></g>
<g><path style="opacity:1" fill="#eeeff0" d="M 485.5,453.5 C 486.167,453.5 486.5,453.833 486.5,454.5C 486.5,458.167 486.5,461.833 486.5,465.5C 490.167,465.5 493.833,465.5 497.5,465.5C 497.5,461.833 497.5,458.167 497.5,454.5C 498.482,457.962 498.815,461.629 498.5,465.5C 501.972,465.16 504.639,465.493 506.5,466.5C 503.833,466.5 501.167,466.5 498.5,466.5C 498.5,470.833 498.5,475.167 498.5,479.5C 494.167,479.5 489.833,479.5 485.5,479.5C 485.5,475.167 485.5,470.833 485.5,466.5C 481.5,466.5 477.5,466.5 473.5,466.5C 473.5,462.167 473.5,457.833 473.5,453.5C 477.5,453.5 481.5,453.5 485.5,453.5 Z M 486.5,454.5 C 490.167,454.5 493.833,454.5 497.5,454.5C 497.5,458.167 497.5,461.833 497.5,465.5C 493.833,465.5 490.167,465.5 486.5,465.5C 486.5,461.833 486.5,458.167 486.5,454.5 Z"/></g>
<g><path style="opacity:1" fill="#f0f0f2" d="M 536.5,466.5 C 540.833,466.5 545.167,466.5 549.5,466.5C 549.5,470.833 549.5,475.167 549.5,479.5C 545.167,479.5 540.833,479.5 536.5,479.5C 536.5,475.167 536.5,470.833 536.5,466.5 Z"/></g>
<g><path style="opacity:1" fill="#c3c7c9" d="M 498.5,485.5 C 494.5,485.5 490.5,485.5 486.5,485.5C 486.5,489.5 486.5,493.5 486.5,497.5C 485.515,493.366 485.182,489.032 485.5,484.5C 490.032,484.182 494.366,484.515 498.5,485.5 Z"/></g>
<g><path style="opacity:1" fill="#e7eaec" d="M 365.5,484.5 C 369.833,484.5 374.167,484.5 378.5,484.5C 378.5,488.833 378.5,493.167 378.5,497.5C 374.167,497.5 369.833,497.5 365.5,497.5C 365.5,493.167 365.5,488.833 365.5,484.5 Z"/></g>
<g><path style="opacity:1" fill="#eaecec" d="M 457.5,484.5 C 461.5,484.5 465.5,484.5 469.5,484.5C 469.5,488.833 469.5,493.167 469.5,497.5C 465.5,497.5 461.5,497.5 457.5,497.5C 457.5,493.167 457.5,488.833 457.5,484.5 Z"/></g>
<g><path style="opacity:1" fill="#e9ebec" d="M 526.5,484.5 C 530.833,484.5 535.167,484.5 539.5,484.5C 539.5,488.833 539.5,493.167 539.5,497.5C 535.167,497.5 530.833,497.5 526.5,497.5C 526.5,493.167 526.5,488.833 526.5,484.5 Z"/></g>
<g><path style="opacity:1" fill="#ecedee" d="M 637.5,483.5 C 642.214,483.173 646.88,483.507 651.5,484.5C 650.194,488.365 650.194,492.198 651.5,496C 646.845,496.499 642.179,496.666 637.5,496.5C 637.5,492.167 637.5,487.833 637.5,483.5 Z"/></g>
<g><path style="opacity:1" fill="#eaebed" d="M 498.5,485.5 C 498.5,489.833 498.5,494.167 498.5,498.5C 494.5,498.5 490.5,498.5 486.5,498.5C 486.5,498.167 486.5,497.833 486.5,497.5C 486.5,493.5 486.5,489.5 486.5,485.5C 490.5,485.5 494.5,485.5 498.5,485.5 Z"/></g>
<g><path style="opacity:1" fill="#e8e9eb" d="M 554.5,485.5 C 558.833,485.5 563.167,485.5 567.5,485.5C 567.5,489.833 567.5,494.167 567.5,498.5C 563.167,498.5 558.833,498.5 554.5,498.5C 554.5,494.167 554.5,489.833 554.5,485.5 Z"/></g>
<g><path style="opacity:1" fill="#f0f1f2" d="M 607.5,485.5 C 611.833,485.5 616.167,485.5 620.5,485.5C 620.5,489.833 620.5,494.167 620.5,498.5C 616.167,498.5 611.833,498.5 607.5,498.5C 607.5,494.167 607.5,489.833 607.5,485.5 Z"/></g>
<g><path style="opacity:1" fill="#e9ebed" d="M 437.5,486.5 C 441.833,486.5 446.167,486.5 450.5,486.5C 450.5,491.167 450.5,495.833 450.5,500.5C 446.167,500.5 441.833,500.5 437.5,500.5C 437.5,495.833 437.5,491.167 437.5,486.5 Z"/></g>
<g><path style="opacity:1" fill="#eff0f2" d="M 583.5,484.5 C 587.833,484.5 592.167,484.5 596.5,484.5C 596.5,488.833 596.5,493.167 596.5,497.5C 592.167,497.5 587.833,497.5 583.5,497.5C 583.5,493.167 583.5,488.833 583.5,484.5 Z"/></g>
<g><path style="opacity:1" fill="#e9ebec" d="M 392.5,499.5 C 392.5,494.833 392.5,490.167 392.5,485.5C 396.833,485.5 401.167,485.5 405.5,485.5C 405.5,489.833 405.5,494.167 405.5,498.5C 401.069,498.231 396.735,498.564 392.5,499.5 Z"/></g>
<g><path style="opacity:1" fill="#e6e9ea" d="M 392.5,499.5 C 393.295,503.785 393.628,508.119 393.5,512.5C 388.833,512.5 384.167,512.5 379.5,512.5C 379.5,508.167 379.5,503.833 379.5,499.5C 383.833,499.5 388.167,499.5 392.5,499.5 Z"/></g>
<g><path style="opacity:1" fill="#eaebed" d="M 473.5,499.5 C 477.5,499.5 481.5,499.5 485.5,499.5C 485.5,503.5 485.5,507.5 485.5,511.5C 481.5,511.5 477.5,511.5 473.5,511.5C 473.5,507.5 473.5,503.5 473.5,499.5 Z"/></g>
<g><path style="opacity:1" fill="#e9ebed" d="M 623.5,499.5 C 627.833,499.5 632.167,499.5 636.5,499.5C 636.5,503.833 636.5,508.167 636.5,512.5C 632.167,512.5 627.833,512.5 623.5,512.5C 623.5,508.167 623.5,503.833 623.5,499.5 Z"/></g>
<g><path style="opacity:1" fill="#e3e4e5" d="M 540.5,511.5 C 540.167,511.5 539.833,511.5 539.5,511.5C 538.404,507.587 538.238,503.587 539,499.5C 543.401,498.533 547.901,498.2 552.5,498.5C 552.666,502.846 552.499,507.179 552,511.5C 548.273,511.959 544.439,511.959 540.5,511.5 Z"/></g>
<g><path style="opacity:1" fill="#ebedee" d="M 508.5,498.5 C 512.667,499.803 516.834,499.803 521,498.5C 521.499,503.155 521.666,507.821 521.5,512.5C 517.167,512.5 512.833,512.5 508.5,512.5C 508.5,507.833 508.5,503.167 508.5,498.5 Z"/></g>
<g><path style="opacity:1" fill="#e4e6e8" d="M 568.5,511.5 C 568.5,507.167 568.5,502.833 568.5,498.5C 573.167,498.5 577.833,498.5 582.5,498.5C 582.8,503.099 582.467,507.599 581.5,512C 577.08,512.768 572.747,512.602 568.5,511.5 Z"/></g>
<g><path style="opacity:1" fill="#b4b9bc" d="M 584.5,511.5 C 588.97,510.514 593.637,510.181 598.5,510.5C 598.818,515.032 598.485,519.366 597.5,523.5C 597.5,519.5 597.5,515.5 597.5,511.5C 593.167,511.5 588.833,511.5 584.5,511.5 Z"/></g>
<g><path style="opacity:1" fill="#e9ebed" d="M 437.5,528.5 C 436.532,526.393 436.198,524.059 436.5,521.5C 437.436,517.265 437.769,512.931 437.5,508.5C 441.5,508.5 445.5,508.5 449.5,508.5C 449.586,512.936 449.919,517.102 450.5,521C 450,521.5 449.5,522 449,522.5C 445.27,521.54 441.437,521.207 437.5,521.5C 437.5,523.833 437.5,526.167 437.5,528.5 Z"/></g>
<g><path style="opacity:1" fill="#eceeef" d="M 608.5,511.5 C 612.833,511.5 617.167,511.5 621.5,511.5C 621.31,520.283 620.643,528.95 619.5,537.5C 615.167,537.5 610.833,537.5 606.5,537.5C 607.167,528.833 607.833,520.167 608.5,511.5 Z"/></g>
<g><path style="opacity:1" fill="#e8e9eb" d="M 498.5,512.5 C 498.666,516.846 498.499,521.179 498,525.5C 494.084,525.43 490.25,525.097 486.5,524.5C 486.5,520.5 486.5,516.5 486.5,512.5C 490.5,512.5 494.5,512.5 498.5,512.5 Z"/></g>
<g><path style="opacity:1" fill="#e3e5e7" d="M 539.5,511.5 C 539.833,511.5 540.167,511.5 540.5,511.5C 539.564,515.735 539.231,520.069 539.5,524.5C 539.5,525.167 539.167,525.5 538.5,525.5C 534.5,525.5 530.5,525.5 526.5,525.5C 526.5,521.167 526.5,516.833 526.5,512.5C 530.931,512.769 535.265,512.436 539.5,511.5 Z"/></g>
<g><path style="opacity:1" fill="#c0c3c6" d="M 473.5,499.5 C 477.634,498.515 481.968,498.182 486.5,498.5C 486.5,502.833 486.5,507.167 486.5,511.5C 490.702,511.183 494.702,511.517 498.5,512.5C 494.5,512.5 490.5,512.5 486.5,512.5C 486.5,516.5 486.5,520.5 486.5,524.5C 485.517,520.702 485.183,516.702 485.5,512.5C 481.298,512.817 477.298,512.483 473.5,511.5C 477.5,511.5 481.5,511.5 485.5,511.5C 485.5,507.5 485.5,503.5 485.5,499.5C 481.5,499.5 477.5,499.5 473.5,499.5 Z"/></g>
<g><path style="opacity:1" fill="#edeff0" d="M 379.5,525.5 C 375.167,525.5 370.833,525.5 366.5,525.5C 366.5,521.5 366.5,517.5 366.5,513.5C 370.833,513.5 375.167,513.5 379.5,513.5C 379.5,517.5 379.5,521.5 379.5,525.5 Z"/></g>
<g><path style="opacity:1" fill="#e7e9eb" d="M 456.5,511.5 C 460.97,510.514 465.637,510.181 470.5,510.5C 470.666,514.846 470.499,519.179 470,523.5C 466.045,523.629 461.878,523.629 457.5,523.5C 457.817,519.298 457.483,515.298 456.5,511.5 Z"/></g>
<g><path style="opacity:1" fill="#eef1f2" d="M 662.5,524.5 C 658.167,524.5 653.833,524.5 649.5,524.5C 649.334,520.154 649.501,515.821 650,511.5C 654.087,512.249 658.253,512.249 662.5,511.5C 662.5,515.833 662.5,520.167 662.5,524.5 Z"/></g>
<g><path style="opacity:1" fill="#edeff0" d="M 568.5,511.5 C 568.5,515.833 568.5,520.167 568.5,524.5C 564.167,524.5 559.833,524.5 555.5,524.5C 555.5,520.167 555.5,515.833 555.5,511.5C 559.833,511.5 564.167,511.5 568.5,511.5 Z"/></g>
<g><path style="opacity:1" fill="#eff0f1" d="M 419.5,521.5 C 425.167,521.5 430.833,521.5 436.5,521.5C 436.198,524.059 436.532,526.393 437.5,528.5C 441.298,529.483 445.298,529.817 449.5,529.5C 449.5,534.167 449.5,538.833 449.5,543.5C 445.167,543.5 440.833,543.5 436.5,543.5C 436.5,540.167 436.5,536.833 436.5,533.5C 434.5,533.5 432.5,533.5 430.5,533.5C 429.685,534.429 428.852,535.429 428,536.5C 427.692,535.692 427.192,535.025 426.5,534.5C 423.099,535.441 420.599,537.441 419,540.5C 418.21,534.085 418.376,527.752 419.5,521.5 Z"/></g>
<g><path style="opacity:1" fill="#b4b8ba" d="M 649.5,524.5 C 653.833,524.5 658.167,524.5 662.5,524.5C 658.5,525.167 654.5,525.833 650.5,526.5C 649.833,526.5 649.5,526.167 649.5,525.5C 649.5,525.167 649.5,524.833 649.5,524.5 Z"/></g>
<g><path style="opacity:1" fill="#f1f2f4" d="M 539.5,524.5 C 543.5,524.5 547.5,524.5 551.5,524.5C 551.5,528.833 551.5,533.167 551.5,537.5C 547.167,537.5 542.833,537.5 538.5,537.5C 538.5,533.5 538.5,529.5 538.5,525.5C 539.167,525.5 539.5,525.167 539.5,524.5 Z"/></g>
<g><path style="opacity:1" fill="#eaedf0" d="M 380.5,526.5 C 384.167,526.5 387.833,526.5 391.5,526.5C 391.818,531.032 391.485,535.366 390.5,539.5C 387.038,538.518 383.371,538.185 379.5,538.5C 379.183,534.298 379.517,530.298 380.5,526.5 Z"/></g>
<g><path style="opacity:1" fill="#d6d8dc" d="M 366.5,525.5 C 370.833,525.5 375.167,525.5 379.5,525.5C 380.167,525.5 380.5,525.833 380.5,526.5C 379.517,530.298 379.183,534.298 379.5,538.5C 383.371,538.185 387.038,538.518 390.5,539.5C 386.5,539.5 382.5,539.5 378.5,539.5C 378.5,535.167 378.5,530.833 378.5,526.5C 374.298,526.817 370.298,526.483 366.5,525.5 Z"/></g>
<g><path style="opacity:1" fill="#eceeef" d="M 522.5,537.5 C 522.5,541.167 522.5,544.833 522.5,548.5C 518.029,549.089 514.029,548.423 510.5,546.5C 509.43,539.211 508.764,531.878 508.5,524.5C 512.833,524.5 517.167,524.5 521.5,524.5C 521.182,529.032 521.515,533.366 522.5,537.5 Z"/></g>
<g><path style="opacity:1" fill="#eff1f1" d="M 649.5,525.5 C 649.5,526.167 649.833,526.5 650.5,526.5C 650.5,530.5 650.5,534.5 650.5,538.5C 646.233,538.203 642.066,538.536 638,539.5C 638.568,546.795 639.068,554.129 639.5,561.5C 635.167,561.5 630.833,561.5 626.5,561.5C 625.356,553.618 624.69,545.618 624.5,537.5C 628.833,537.5 633.167,537.5 637.5,537.5C 637.5,533.5 637.5,529.5 637.5,525.5C 641.5,525.5 645.5,525.5 649.5,525.5 Z"/></g>
<g><path style="opacity:1" fill="#ebecee" d="M 419.5,521.5 C 418.376,527.752 418.21,534.085 419,540.5C 420.599,537.441 423.099,535.441 426.5,534.5C 427.192,535.025 427.692,535.692 428,536.5C 428.852,535.429 429.685,534.429 430.5,533.5C 430.5,537.167 430.5,540.833 430.5,544.5C 426.833,544.5 423.167,544.5 419.5,544.5C 419.5,546.5 419.5,548.5 419.5,550.5C 423.167,550.5 426.833,550.5 430.5,550.5C 430.5,555.167 430.5,559.833 430.5,564.5C 425.821,564.666 421.155,564.499 416.5,564C 417.61,561.263 417.777,558.429 417,555.5C 413.679,554.029 410.179,553.363 406.5,553.5C 406.5,549.167 406.5,544.833 406.5,540.5C 410.167,540.5 413.833,540.5 417.5,540.5C 417.5,534.5 417.5,528.5 417.5,522.5C 413.486,522.666 409.486,522.499 405.5,522C 406.833,518.333 406.833,514.667 405.5,511C 407.937,509.625 410.603,509.125 413.5,509.5C 413.5,505.5 413.5,501.5 413.5,497.5C 417.833,497.5 422.167,497.5 426.5,497.5C 426.5,501.833 426.5,506.167 426.5,510.5C 424.167,510.5 421.833,510.5 419.5,510.5C 419.5,514.167 419.5,517.833 419.5,521.5 Z"/></g>
<g><path style="opacity:1" fill="#ecedee" d="M 486.5,532.5 C 490.833,532.5 495.167,532.5 499.5,532.5C 499.5,536.833 499.5,541.167 499.5,545.5C 495.167,545.5 490.833,545.5 486.5,545.5C 486.5,541.167 486.5,536.833 486.5,532.5 Z"/></g>
<g><path style="opacity:1" fill="#ebeced" d="M 455.5,541.5 C 459.409,542.576 463.076,542.576 466.5,541.5C 467.308,541.808 467.975,542.308 468.5,543C 467.536,547.066 467.203,551.233 467.5,555.5C 463.5,555.5 459.5,555.5 455.5,555.5C 455.5,550.833 455.5,546.167 455.5,541.5 Z"/></g>
<g><path style="opacity:1" fill="#c9cbcd" d="M 522.5,537.5 C 523.483,541.298 523.817,545.298 523.5,549.5C 518.833,549.5 514.167,549.5 509.5,549.5C 509.5,549.167 509.5,548.833 509.5,548.5C 509.328,547.508 509.662,546.842 510.5,546.5C 514.029,548.423 518.029,549.089 522.5,548.5C 522.5,544.833 522.5,541.167 522.5,537.5 Z"/></g>
<g><path style="opacity:1" fill="#e9eaed" d="M 584.5,511.5 C 588.833,511.5 593.167,511.5 597.5,511.5C 597.5,515.5 597.5,519.5 597.5,523.5C 594.038,524.482 590.371,524.815 586.5,524.5C 586.5,528.833 586.5,533.167 586.5,537.5C 590.833,537.5 595.167,537.5 599.5,537.5C 599.5,545.5 599.5,553.5 599.5,561.5C 594.833,561.5 590.167,561.5 585.5,561.5C 586.374,553.848 586.541,546.182 586,538.5C 581.934,537.536 577.767,537.203 573.5,537.5C 573.5,533.167 573.5,528.833 573.5,524.5C 577.167,524.5 580.833,524.5 584.5,524.5C 584.5,520.167 584.5,515.833 584.5,511.5 Z"/></g>
<g><path style="opacity:1" fill="#edeef0" d="M 527.5,547.5 C 535.5,547.5 543.5,547.5 551.5,547.5C 551.5,551.833 551.5,556.167 551.5,560.5C 543.16,560.666 534.827,560.5 526.5,560C 527.464,555.934 527.797,551.767 527.5,547.5 Z"/></g>
<g><path style="opacity:1" fill="#e6e7e9" d="M 379.5,549.5 C 383.5,549.5 387.5,549.5 391.5,549.5C 391.5,554.167 391.5,558.833 391.5,563.5C 387.233,563.797 383.066,563.464 379,562.5C 378.232,558.08 378.398,553.747 379.5,549.5 Z"/></g>
<g><path style="opacity:1" fill="#bbbdc1" d="M 438.5,550.5 C 438.5,554.833 438.5,559.167 438.5,563.5C 442.5,563.5 446.5,563.5 450.5,563.5C 446.366,564.485 442.032,564.818 437.5,564.5C 437.181,559.637 437.514,554.97 438.5,550.5 Z"/></g>
<g><path style="opacity:1" fill="#eff0f2" d="M 438.5,550.5 C 442.5,550.5 446.5,550.5 450.5,550.5C 450.5,554.833 450.5,559.167 450.5,563.5C 446.5,563.5 442.5,563.5 438.5,563.5C 438.5,559.167 438.5,554.833 438.5,550.5 Z"/></g>
<g><path style="opacity:1" fill="#eaebed" d="M 509.5,548.5 C 509.5,548.833 509.5,549.167 509.5,549.5C 509.5,553.5 509.5,557.5 509.5,561.5C 505.167,561.5 500.833,561.5 496.5,561.5C 496.5,557.167 496.5,552.833 496.5,548.5C 500.833,548.5 505.167,548.5 509.5,548.5 Z"/></g>
<g><path style="opacity:1" fill="#e5e7e9" d="M 562.5,547.5 C 566.5,547.5 570.5,547.5 574.5,547.5C 574.5,552.167 574.5,556.833 574.5,561.5C 570.167,561.5 565.833,561.5 561.5,561.5C 561.226,556.737 561.559,552.07 562.5,547.5 Z"/></g>
<g><path style="opacity:1" fill="#e9ebec" d="M 606.5,558.5 C 611.167,558.5 615.833,558.5 620.5,558.5C 620.5,562.833 620.5,567.167 620.5,571.5C 621.552,571.351 622.552,571.517 623.5,572C 623.371,575.955 623.371,580.122 623.5,584.5C 618.833,584.5 614.167,584.5 609.5,584.5C 609.5,580.167 609.5,575.833 609.5,571.5C 608.5,571.5 607.5,571.5 606.5,571.5C 606.5,567.167 606.5,562.833 606.5,558.5 Z"/></g>
<g><path style="opacity:1" fill="#e6e7e8" d="M 650.5,558.5 C 655.167,558.5 659.833,558.5 664.5,558.5C 664.666,562.846 664.499,567.179 664,571.5C 660,572.833 656,572.833 652,571.5C 651.535,567.152 651.035,562.819 650.5,558.5 Z"/></g>
<g><path style="opacity:1" fill="#eceeef" d="M 498.5,584.5 C 501.962,585.482 505.629,585.815 509.5,585.5C 509.5,589.5 509.5,593.5 509.5,597.5C 505.5,597.5 501.5,597.5 497.5,597.5C 497.5,593.167 497.5,588.833 497.5,584.5C 493.5,584.5 489.5,584.5 485.5,584.5C 485.5,580.167 485.5,575.833 485.5,571.5C 481.5,571.5 477.5,571.5 473.5,571.5C 473.5,567.167 473.5,562.833 473.5,558.5C 477.833,558.5 482.167,558.5 486.5,558.5C 486.5,562.833 486.5,567.167 486.5,571.5C 490.5,571.5 494.5,571.5 498.5,571.5C 498.5,575.833 498.5,580.167 498.5,584.5 Z"/></g>
<g><path style="opacity:1" fill="#e9eaec" d="M 510.5,584.5 C 510.167,584.5 509.833,584.5 509.5,584.5C 508.564,580.265 508.231,575.931 508.5,571.5C 513.167,571.5 517.833,571.5 522.5,571.5C 522.073,575.824 521.739,580.158 521.5,584.5C 517.833,584.5 514.167,584.5 510.5,584.5 Z"/></g>
<g><path style="opacity:1" fill="#e7e9eb" d="M 650.5,572.5 C 649.518,575.962 649.185,579.629 649.5,583.5C 645.958,583.187 642.625,583.521 639.5,584.5C 637.57,580.627 636.903,576.294 637.5,571.5C 642.032,571.182 646.366,571.515 650.5,572.5 Z"/></g>
<g><path style="opacity:1" fill="#f4f5f7" d="M 348.5,578.5 C 385.33,577.502 422.33,577.168 459.5,577.5C 459.5,582.833 459.5,588.167 459.5,593.5C 458.513,588.695 458.179,583.695 458.5,578.5C 421.833,578.5 385.167,578.5 348.5,578.5 Z"/></g>
<g><path style="opacity:1" fill="#eaecec" d="M 348.5,578.5 C 385.167,578.5 421.833,578.5 458.5,578.5C 458.179,583.695 458.513,588.695 459.5,593.5C 459.5,624.833 459.5,656.167 459.5,687.5C 422.5,687.5 385.5,687.5 348.5,687.5C 348.5,651.167 348.5,614.833 348.5,578.5 Z M 363.5,592.5 C 390.5,592.5 417.5,592.5 444.5,592.5C 444.5,619.167 444.5,645.833 444.5,672.5C 417.5,672.5 390.5,672.5 363.5,672.5C 363.5,645.833 363.5,619.167 363.5,592.5 Z M 416.5,620.5 C 416.5,628.167 416.5,635.833 416.5,643.5C 416.5,644.167 416.5,644.833 416.5,645.5C 408.167,645.5 399.833,645.5 391.5,645.5C 391.5,637.167 391.5,628.833 391.5,620.5C 399.833,620.5 408.167,620.5 416.5,620.5 Z"/></g>
<g><path style="opacity:1" fill="#e0e2e3" d="M 565.5,582.5 C 569.5,582.5 573.5,582.5 577.5,582.5C 577.5,587.167 577.5,591.833 577.5,596.5C 573.031,596.533 568.864,596.199 565,595.5C 564.232,591.08 564.398,586.747 565.5,582.5 Z"/></g>
<g><path style="opacity:1" fill="#eef0f1" d="M 609.5,598.5 C 606.482,598.335 603.482,598.502 600.5,599C 600.07,599.92 599.736,600.753 599.5,601.5C 598.914,601.291 598.414,600.957 598,600.5C 597.819,603.695 597.319,606.695 596.5,609.5C 596.665,605.818 596.499,602.152 596,598.5C 593.959,597.577 591.792,597.244 589.5,597.5C 589.5,593.167 589.5,588.833 589.5,584.5C 593.833,584.5 598.167,584.5 602.5,584.5C 602.5,588.833 602.5,593.167 602.5,597.5C 605.059,597.198 607.393,597.532 609.5,598.5 Z"/></g>
<g><path style="opacity:1" fill="#eceeef" d="M 538.5,571.5 C 542.833,571.5 547.167,571.5 551.5,571.5C 551.5,575.833 551.5,580.167 551.5,584.5C 547.5,584.5 543.5,584.5 539.5,584.5C 539.5,589.167 539.5,593.833 539.5,598.5C 535.167,598.5 530.833,598.5 526.5,598.5C 526.5,594.167 526.5,589.833 526.5,585.5C 530.437,585.793 534.27,585.46 538,584.5C 538.499,580.179 538.666,575.846 538.5,571.5 Z"/></g>
<g><path style="opacity:1" fill="#ced1d4" d="M 498.5,584.5 C 502.167,584.5 505.833,584.5 509.5,584.5C 509.833,584.5 510.167,584.5 510.5,584.5C 510.5,589.167 510.5,593.833 510.5,598.5C 505.968,598.818 501.634,598.485 497.5,597.5C 501.5,597.5 505.5,597.5 509.5,597.5C 509.5,593.5 509.5,589.5 509.5,585.5C 505.629,585.815 501.962,585.482 498.5,584.5 Z"/></g>
<g><path style="opacity:1" fill="#eff3f5" d="M 650.5,572.5 C 650.5,576.5 650.5,580.5 650.5,584.5C 654.833,584.5 659.167,584.5 663.5,584.5C 663.5,588.833 663.5,593.167 663.5,597.5C 659.167,597.5 654.833,597.5 650.5,597.5C 650.666,593.486 650.499,589.486 650,585.5C 646.606,584.544 643.106,584.211 639.5,584.5C 642.625,583.521 645.958,583.187 649.5,583.5C 649.185,579.629 649.518,575.962 650.5,572.5 Z"/></g>
<g><path style="opacity:1" fill="#e9ebec" d="M 620.5,597.5 C 624.5,597.5 628.5,597.5 632.5,597.5C 632.5,600.833 632.5,604.167 632.5,607.5C 628.5,607.5 624.5,607.5 620.5,607.5C 620.5,604.167 620.5,600.833 620.5,597.5 Z"/></g>
<g><path style="opacity:1" fill="#e5e8ea" d="M 473.5,595.5 C 477.833,595.5 482.167,595.5 486.5,595.5C 486.5,599.833 486.5,604.167 486.5,608.5C 482.167,608.5 477.833,608.5 473.5,608.5C 473.5,604.167 473.5,599.833 473.5,595.5 Z"/></g>
<g><path style="opacity:1" fill="#e8eaec" d="M 609.5,598.5 C 609.5,602.5 609.5,606.5 609.5,610.5C 607.167,610.5 604.833,610.5 602.5,610.5C 602.666,614.846 602.499,619.179 602,623.5C 597.934,622.536 593.767,622.203 589.5,622.5C 589.5,618.167 589.5,613.833 589.5,609.5C 591.833,609.5 594.167,609.5 596.5,609.5C 597.319,606.695 597.819,603.695 598,600.5C 598.414,600.957 598.914,601.291 599.5,601.5C 599.736,600.753 600.07,599.92 600.5,599C 603.482,598.502 606.482,598.335 609.5,598.5 Z"/></g>
<g><path style="opacity:1" fill="#e9eced" d="M 577.5,609.5 C 578.486,613.97 578.819,618.637 578.5,623.5C 574.167,623.5 569.833,623.5 565.5,623.5C 565.5,619.167 565.5,614.833 565.5,610.5C 569.702,610.817 573.702,610.483 577.5,609.5 Z"/></g>
<g><path style="opacity:1" fill="#ecedee" d="M 621.5,633.5 C 625.064,634.423 628.731,634.756 632.5,634.5C 632.5,626.167 632.5,617.833 632.5,609.5C 628.295,609.283 624.295,608.617 620.5,607.5C 624.5,607.5 628.5,607.5 632.5,607.5C 632.5,604.167 632.5,600.833 632.5,597.5C 628.5,597.5 624.5,597.5 620.5,597.5C 624.718,596.099 629.052,595.766 633.5,596.5C 633.334,600.514 633.501,604.514 634,608.5C 637.73,609.46 641.563,609.793 645.5,609.5C 645.5,617.833 645.5,626.167 645.5,634.5C 641.833,634.5 638.167,634.5 634.5,634.5C 634.5,638.833 634.5,643.167 634.5,647.5C 630.167,647.5 625.833,647.5 621.5,647.5C 621.5,642.833 621.5,638.167 621.5,633.5 Z"/></g>
<g><path style="opacity:1" fill="#ebeded" d="M 663.5,607.5 C 667.683,607.73 672.016,607.73 676.5,607.5C 676.5,612.167 676.5,616.833 676.5,621.5C 672.167,621.5 667.833,621.5 663.5,621.5C 663.5,616.833 663.5,612.167 663.5,607.5 Z"/></g>
<g><path style="opacity:1" fill="#c9cbcf" d="M 621.5,620.5 C 617.5,620.5 613.5,620.5 609.5,620.5C 609.5,624.5 609.5,628.5 609.5,632.5C 608.515,628.366 608.182,624.032 608.5,619.5C 613.032,619.182 617.366,619.515 621.5,620.5 Z"/></g>
<g><path style="opacity:1" fill="#f1f2f2" d="M 621.5,620.5 C 621.5,624.833 621.5,629.167 621.5,633.5C 617.6,632.57 613.6,632.237 609.5,632.5C 609.5,628.5 609.5,624.5 609.5,620.5C 613.5,620.5 617.5,620.5 621.5,620.5 Z"/></g>
<g><path style="opacity:1" fill="#eaecec" d="M 511.5,622.5 C 515.634,621.515 519.968,621.182 524.5,621.5C 524.5,629.833 524.5,638.167 524.5,646.5C 520.5,646.5 516.5,646.5 512.5,646.5C 512.826,638.316 512.492,630.316 511.5,622.5 Z"/></g>
<g><path style="opacity:1" fill="#e9eaea" d="M 526.5,608.5 C 530.833,608.5 535.167,608.5 539.5,608.5C 539.5,612.833 539.5,617.167 539.5,621.5C 543.106,621.789 546.606,621.456 550,620.5C 550.667,625.167 550.667,629.833 550,634.5C 545.886,633.607 541.886,633.273 538,633.5C 537.501,629.514 537.334,625.514 537.5,621.5C 533.833,621.5 530.167,621.5 526.5,621.5C 526.5,617.167 526.5,612.833 526.5,608.5 Z"/></g>
<g><path style="opacity:1" fill="#eaecec" d="M 416.5,645.5 C 416.5,644.833 416.5,644.167 416.5,643.5C 417.008,638.222 418.341,633.055 420.5,628C 420.369,623.94 419.703,619.774 418.5,615.5C 417.646,616.522 416.646,617.355 415.5,618C 411.789,618.825 408.122,618.659 404.5,617.5C 405.689,611.65 408.189,610.984 412,615.5C 412.5,615 413,614.5 413.5,614C 411.987,611.546 412.654,609.879 415.5,609C 419.815,608.58 423.815,608.08 427.5,607.5C 428.887,619.202 428.721,630.868 427,642.5C 425.286,643.925 423.953,643.592 423,641.5C 422.749,643.433 422.249,645.266 421.5,647C 423.333,646.529 425.166,645.696 427,644.5C 427.923,648.79 428.423,653.123 428.5,657.5C 424.129,656.462 419.795,656.462 415.5,657.5C 415.551,655.43 414.885,653.597 413.5,652C 413.905,651.055 414.572,650.388 415.5,650C 413.892,649.342 412.725,649.842 412,651.5C 411.727,649.899 411.227,648.399 410.5,647C 412.708,646.809 414.708,646.309 416.5,645.5 Z"/></g>
<g><path style="opacity:1" fill="#e9ebec" d="M 496.5,608.5 C 500.833,608.5 505.167,608.5 509.5,608.5C 509.5,612.833 509.5,617.167 509.5,621.5C 505.5,621.5 501.5,621.5 497.5,621.5C 497.5,625.833 497.5,630.167 497.5,634.5C 493.486,634.666 489.486,634.499 485.5,634C 484.709,630.201 484.376,626.035 484.5,621.5C 488.5,621.5 492.5,621.5 496.5,621.5C 496.5,617.167 496.5,612.833 496.5,608.5 Z"/></g>
<g><path style="opacity:1" fill="#e5e7e8" d="M 378.5,606.5 C 378.333,618.838 378.5,631.171 379,643.5C 379.981,640.311 381.314,639.978 383,642.5C 383.46,638.149 385.96,636.149 390.5,636.5C 390.5,632.167 390.5,627.833 390.5,623.5C 388.167,623.5 385.833,623.5 383.5,623.5C 383.819,621.25 383.319,619.25 382,617.5C 381.257,619.645 380.424,619.811 379.5,618C 379.988,616.416 380.988,615.249 382.5,614.5C 382.099,612.566 381.099,611.066 379.5,610C 381.034,609.077 382.701,608.577 384.5,608.5C 388.018,608.924 391.684,608.924 395.5,608.5C 395.691,611.983 396.357,615.316 397.5,618.5C 395.473,618.338 393.473,618.505 391.5,619C 400.01,619.171 408.343,619.671 416.5,620.5C 408.167,620.5 399.833,620.5 391.5,620.5C 391.5,628.833 391.5,637.167 391.5,645.5C 392.842,646.793 394.509,647.626 396.5,648C 395.833,648.333 395.167,648.667 394.5,649C 396.134,649.494 397.801,649.66 399.5,649.5C 401.217,652.316 400.551,654.483 397.5,656C 397.833,656.333 398.167,656.667 398.5,657C 391.508,657.5 384.508,657.666 377.5,657.5C 377.17,640.325 377.503,623.325 378.5,606.5 Z"/></g>
<g><path style="opacity:1" fill="#eff1f1" d="M 590.5,648.5 C 589.833,648.5 589.5,648.167 589.5,647.5C 589.5,643.5 589.5,639.5 589.5,635.5C 593.833,635.5 598.167,635.5 602.5,635.5C 602.5,639.833 602.5,644.167 602.5,648.5C 598.5,648.5 594.5,648.5 590.5,648.5 Z"/></g>
<g><path style="opacity:1" fill="#f0f1f2" d="M 497.5,637.5 C 501.5,637.5 505.5,637.5 509.5,637.5C 509.5,641.833 509.5,646.167 509.5,650.5C 505.5,650.5 501.5,650.5 497.5,650.5C 497.5,646.167 497.5,641.833 497.5,637.5 Z"/></g>
<g><path style="opacity:1" fill="#eff1f3" d="M 651.5,646.5 C 651.5,642.167 651.5,637.833 651.5,633.5C 655.833,633.5 660.167,633.5 664.5,633.5C 664.5,637.833 664.5,642.167 664.5,646.5C 660.167,646.5 655.833,646.5 651.5,646.5 Z"/></g>
<g><path style="opacity:1" fill="#eaedf0" d="M 474.5,638.5 C 478.833,638.5 483.167,638.5 487.5,638.5C 487.5,642.833 487.5,647.167 487.5,651.5C 483.167,651.5 478.833,651.5 474.5,651.5C 474.5,647.167 474.5,642.833 474.5,638.5 Z"/></g>
<g><path style="opacity:1" fill="#eff1f1" d="M 527.5,647.5 C 531.833,647.5 536.167,647.5 540.5,647.5C 540.5,651.833 540.5,656.167 540.5,660.5C 536.167,660.5 531.833,660.5 527.5,660.5C 527.5,656.167 527.5,651.833 527.5,647.5 Z"/></g>
<g><path style="opacity:1" fill="#edf0f1" d="M 609.5,649.5 C 613.833,649.5 618.167,649.5 622.5,649.5C 622.5,653.833 622.5,658.167 622.5,662.5C 618.167,662.5 613.833,662.5 609.5,662.5C 609.5,658.167 609.5,653.833 609.5,649.5 Z"/></g>
<g><path style="opacity:1" fill="#eaebed" d="M 378.5,606.5 C 395.846,606.167 413.179,606.5 430.5,607.5C 430.465,624.321 430.465,641.321 430.5,658.5C 412.659,658.83 394.992,658.497 377.5,657.5C 384.508,657.666 391.508,657.5 398.5,657C 398.167,656.667 397.833,656.333 397.5,656C 400.551,654.483 401.217,652.316 399.5,649.5C 397.801,649.66 396.134,649.494 394.5,649C 395.167,648.667 395.833,648.333 396.5,648C 394.509,647.626 392.842,646.793 391.5,645.5C 399.833,645.5 408.167,645.5 416.5,645.5C 414.708,646.309 412.708,646.809 410.5,647C 411.227,648.399 411.727,649.899 412,651.5C 412.725,649.842 413.892,649.342 415.5,650C 414.572,650.388 413.905,651.055 413.5,652C 414.885,653.597 415.551,655.43 415.5,657.5C 419.795,656.462 424.129,656.462 428.5,657.5C 428.423,653.123 427.923,648.79 427,644.5C 425.166,645.696 423.333,646.529 421.5,647C 422.249,645.266 422.749,643.433 423,641.5C 423.953,643.592 425.286,643.925 427,642.5C 428.721,630.868 428.887,619.202 427.5,607.5C 423.815,608.08 419.815,608.58 415.5,609C 412.654,609.879 411.987,611.546 413.5,614C 413,614.5 412.5,615 412,615.5C 408.189,610.984 405.689,611.65 404.5,617.5C 408.122,618.659 411.789,618.825 415.5,618C 416.646,617.355 417.646,616.522 418.5,615.5C 419.703,619.774 420.369,623.94 420.5,628C 418.341,633.055 417.008,638.222 416.5,643.5C 416.5,635.833 416.5,628.167 416.5,620.5C 408.343,619.671 400.01,619.171 391.5,619C 393.473,618.505 395.473,618.338 397.5,618.5C 396.357,615.316 395.691,611.983 395.5,608.5C 391.684,608.924 388.018,608.924 384.5,608.5C 382.701,608.577 381.034,609.077 379.5,610C 381.099,611.066 382.099,612.566 382.5,614.5C 380.988,615.249 379.988,616.416 379.5,618C 380.424,619.811 381.257,619.645 382,617.5C 383.319,619.25 383.819,621.25 383.5,623.5C 385.833,623.5 388.167,623.5 390.5,623.5C 390.5,627.833 390.5,632.167 390.5,636.5C 385.96,636.149 383.46,638.149 383,642.5C 381.314,639.978 379.981,640.311 379,643.5C 378.5,631.171 378.333,618.838 378.5,606.5 Z"/></g>
<g><path style="opacity:1" fill="#e6e8ea" d="M 651.5,646.5 C 651.5,650.833 651.5,655.167 651.5,659.5C 651.5,659.833 651.5,660.167 651.5,660.5C 647.167,660.5 642.833,660.5 638.5,660.5C 638.334,655.821 638.501,651.155 639,646.5C 643.087,647.249 647.253,647.249 651.5,646.5 Z"/></g>
<g><path style="opacity:1" fill="#e7e9ea" d="M 815.5,643.5 C 824.051,643.225 829.217,647.225 831,655.5C 831.667,698.167 831.667,740.833 831,783.5C 829.167,793.333 823.333,799.167 813.5,801C 770.315,801.137 727.149,801.303 684,801.5C 671.098,799.029 667.098,791.696 672,779.5C 674.342,776.246 677.509,774.412 681.5,774C 722.5,773.667 763.5,773.333 804.5,773C 803.337,733.904 803.17,694.738 804,655.5C 805.348,648.987 809.181,644.987 815.5,643.5 Z"/></g>
<g><path style="opacity:1" fill="#eceeed" d="M 218.5,654.5 C 218.5,694.167 218.5,733.833 218.5,773.5C 217.662,753.907 217.162,733.573 217,712.5C 215.873,715.377 215.206,718.377 215,721.5C 212.91,724.009 211.077,723.675 209.5,720.5C 211.976,717.147 211.476,716.814 208,719.5C 204.928,719.183 204.761,717.683 207.5,715C 208.549,714.508 209.549,714.674 210.5,715.5C 211.833,714.167 211.833,712.833 210.5,711.5C 208.477,713.173 206.144,713.84 203.5,713.5C 204.566,707.194 203.399,706.528 200,711.5C 198.59,710.213 197.09,709.046 195.5,708C 196.654,707.086 196.487,706.253 195,705.5C 194.667,705.833 194.333,706.167 194,706.5C 193.175,702.789 193.341,699.122 194.5,695.5C 195.298,697.078 195.798,698.744 196,700.5C 196.74,697.824 197.073,695.158 197,692.5C 196.333,695.167 195.667,695.167 195,692.5C 194.667,693.167 194.333,693.833 194,694.5C 193.333,692.5 193.333,690.5 194,688.5C 194.667,691.167 195.333,691.167 196,688.5C 196.556,690.595 197.056,690.762 197.5,689C 196.13,682.267 194.797,675.434 193.5,668.5C 194.511,665.654 195.844,662.987 197.5,660.5C 195.266,658.619 193.933,656.285 193.5,653.5C 195.604,653.201 197.604,653.534 199.5,654.5C 200.836,656.24 202.17,657.907 203.5,659.5C 204.086,659.291 204.586,658.957 205,658.5C 206.572,660.563 208.405,661.229 210.5,660.5C 211.931,660.977 213.264,661.643 214.5,662.5C 215.711,663.72 215.711,664.887 214.5,666C 215.211,667.255 216.044,668.421 217,669.5C 217.174,664.316 217.674,659.316 218.5,654.5 Z"/></g>
<g><path style="opacity:1" fill="#ebeeef" d="M 473.5,659.5 C 477.833,659.5 482.167,659.5 486.5,659.5C 486.5,663.833 486.5,668.167 486.5,672.5C 482.167,672.5 477.833,672.5 473.5,672.5C 473.5,668.167 473.5,663.833 473.5,659.5 Z"/></g>
<g><path style="opacity:1" fill="#ebeff0" d="M 651.5,659.5 C 655.833,659.5 660.167,659.5 664.5,659.5C 664.5,663.833 664.5,668.167 664.5,672.5C 660.167,672.5 655.833,672.5 651.5,672.5C 651.5,668.5 651.5,664.5 651.5,660.5C 651.5,660.167 651.5,659.833 651.5,659.5 Z"/></g>
<g><path style="opacity:1" fill="#e6e9ea" d="M 589.5,647.5 C 589.5,648.167 589.833,648.5 590.5,648.5C 590.5,652.833 590.5,657.167 590.5,661.5C 586.5,661.5 582.5,661.5 578.5,661.5C 578.666,665.514 578.499,669.514 578,673.5C 574,672.167 570,672.167 566,673.5C 565.501,668.845 565.334,664.179 565.5,659.5C 569.5,659.5 573.5,659.5 577.5,659.5C 577.5,656.167 577.5,652.833 577.5,649.5C 569.833,649.5 562.167,649.5 554.5,649.5C 554.5,644.833 554.5,640.167 554.5,635.5C 562.507,635.334 570.507,635.5 578.5,636C 579.46,639.73 579.793,643.563 579.5,647.5C 582.833,647.5 586.167,647.5 589.5,647.5 Z"/></g>
<g><path style="opacity:1" fill="#ebedee" d="M 620.5,671.5 C 624.833,671.5 629.167,671.5 633.5,671.5C 633.203,675.767 633.536,679.934 634.5,684C 629.845,684.499 625.179,684.666 620.5,684.5C 620.5,680.167 620.5,675.833 620.5,671.5 Z"/></g>
<g><path style="opacity:1" fill="#e7eaeb" d="M 497.5,659.5 C 501.833,659.5 506.167,659.5 510.5,659.5C 510.5,663.5 510.5,667.5 510.5,671.5C 513.833,671.5 517.167,671.5 520.5,671.5C 520.5,676.167 520.5,680.833 520.5,685.5C 516.154,685.666 511.821,685.499 507.5,685C 506.54,681.27 506.207,677.437 506.5,673.5C 503.545,672.841 500.545,672.508 497.5,672.5C 497.5,668.167 497.5,663.833 497.5,659.5 Z"/></g>
<g><path style="opacity:1" fill="#ebeced" d="M 541.5,671.5 C 545.833,671.5 550.167,671.5 554.5,671.5C 554.5,675.833 554.5,680.167 554.5,684.5C 550.167,684.5 545.833,684.5 541.5,684.5C 541.5,680.167 541.5,675.833 541.5,671.5 Z"/></g>
<g><path style="opacity:1" fill="#e4e7e7" d="M 590.5,670.5 C 594.5,670.5 598.5,670.5 602.5,670.5C 602.666,675.179 602.499,679.845 602,684.5C 597.92,683.7 593.753,683.2 589.5,683C 590.464,678.934 590.797,674.767 590.5,670.5 Z"/></g>
<g><path style="opacity:1" fill="#e9eaea" d="M 218.5,654.5 C 217.674,659.316 217.174,664.316 217,669.5C 216.044,668.421 215.211,667.255 214.5,666C 215.711,664.887 215.711,663.72 214.5,662.5C 213.264,661.643 211.931,660.977 210.5,660.5C 208.405,661.229 206.572,660.563 205,658.5C 204.586,658.957 204.086,659.291 203.5,659.5C 202.17,657.907 200.836,656.24 199.5,654.5C 197.604,653.534 195.604,653.201 193.5,653.5C 193.933,656.285 195.266,658.619 197.5,660.5C 195.844,662.987 194.511,665.654 193.5,668.5C 194.797,675.434 196.13,682.267 197.5,689C 197.056,690.762 196.556,690.595 196,688.5C 195.333,691.167 194.667,691.167 194,688.5C 193.333,690.5 193.333,692.5 194,694.5C 194.333,693.833 194.667,693.167 195,692.5C 195.667,695.167 196.333,695.167 197,692.5C 197.073,695.158 196.74,697.824 196,700.5C 195.798,698.744 195.298,697.078 194.5,695.5C 193.341,699.122 193.175,702.789 194,706.5C 194.333,706.167 194.667,705.833 195,705.5C 196.487,706.253 196.654,707.086 195.5,708C 197.09,709.046 198.59,710.213 200,711.5C 203.399,706.528 204.566,707.194 203.5,713.5C 206.144,713.84 208.477,713.173 210.5,711.5C 211.833,712.833 211.833,714.167 210.5,715.5C 209.549,714.674 208.549,714.508 207.5,715C 204.761,717.683 204.928,719.183 208,719.5C 211.476,716.814 211.976,717.147 209.5,720.5C 211.077,723.675 212.91,724.009 215,721.5C 215.206,718.377 215.873,715.377 217,712.5C 217.162,733.573 217.662,753.907 218.5,773.5C 260.003,773.168 301.337,773.501 342.5,774.5C 301.832,774.333 261.165,774.5 220.5,775C 221,775.5 221.5,776 222,776.5C 223.467,776.581 225.134,776.247 227,775.5C 228.365,775.844 229.532,776.511 230.5,777.5C 240.34,776.191 250.34,775.525 260.5,775.5C 270.562,775.513 280.395,776.18 290,777.5C 291.791,775.487 293.125,775.487 294,777.5C 295.512,775.043 296.846,775.043 298,777.5C 298.689,776.643 299.522,775.977 300.5,775.5C 306.303,775.646 312.136,775.646 318,775.5C 320.663,775.826 323.163,776.659 325.5,778C 324.167,778.667 323.167,779.667 322.5,781C 323.449,781.617 324.282,781.451 325,780.5C 326.184,782.654 327.35,782.32 328.5,779.5C 327.754,778.264 327.421,776.93 327.5,775.5C 331.842,776.071 336.509,777.071 341.5,778.5C 339.125,780.54 336.791,780.873 334.5,779.5C 334.167,780.167 333.833,780.833 333.5,781.5C 334.851,783.412 335.518,785.578 335.5,788C 335.325,789.658 334.658,790.991 333.5,792C 334.167,792.333 334.833,792.667 335.5,793C 334.151,793.772 333.318,794.939 333,796.5C 331.455,795.179 330.289,795.512 329.5,797.5C 330.376,798.251 331.376,798.751 332.5,799C 290.331,799.167 248.331,799.667 206.5,800.5C 198.453,798.62 193.62,793.62 192,785.5C 191.333,741.833 191.333,698.167 192,654.5C 196.679,643.785 204.179,641.285 214.5,647C 216.495,649.157 217.828,651.657 218.5,654.5 Z"/></g>
<g><path style="opacity:1" fill="#e2e4e6" d="M 342.5,774.5 C 349.35,776.024 353.017,780.358 353.5,787.5C 352.83,795.001 348.83,799.501 341.5,801C 296.471,801.818 251.471,801.651 206.5,800.5C 248.331,799.667 290.331,799.167 332.5,799C 331.376,798.751 330.376,798.251 329.5,797.5C 330.289,795.512 331.455,795.179 333,796.5C 333.318,794.939 334.151,793.772 335.5,793C 334.833,792.667 334.167,792.333 333.5,792C 334.658,790.991 335.325,789.658 335.5,788C 335.518,785.578 334.851,783.412 333.5,781.5C 333.833,780.833 334.167,780.167 334.5,779.5C 336.791,780.873 339.125,780.54 341.5,778.5C 336.509,777.071 331.842,776.071 327.5,775.5C 327.421,776.93 327.754,778.264 328.5,779.5C 327.35,782.32 326.184,782.654 325,780.5C 324.282,781.451 323.449,781.617 322.5,781C 323.167,779.667 324.167,778.667 325.5,778C 323.163,776.659 320.663,775.826 318,775.5C 312.136,775.646 306.303,775.646 300.5,775.5C 299.522,775.977 298.689,776.643 298,777.5C 296.846,775.043 295.512,775.043 294,777.5C 293.125,775.487 291.791,775.487 290,777.5C 280.395,776.18 270.562,775.513 260.5,775.5C 250.34,775.525 240.34,776.191 230.5,777.5C 229.532,776.511 228.365,775.844 227,775.5C 225.134,776.247 223.467,776.581 222,776.5C 221.5,776 221,775.5 220.5,775C 261.165,774.5 301.832,774.333 342.5,774.5 Z"/></g>
</svg>
