<?xml version="1.0" encoding="UTF-8"?>
<!DOCTYPE svg PUBLIC "-//W3C//DTD SVG 1.1//EN" "http://www.w3.org/Graphics/SVG/1.1/DTD/svg11.dtd">
<svg xmlns="http://www.w3.org/2000/svg" version="1.1" width="1024px" height="1024px" style="shape-rendering:geometricPrecision; text-rendering:geometricPrecision; image-rendering:optimizeQuality; fill-rule:evenodd; clip-rule:evenodd" xmlns:xlink="http://www.w3.org/1999/xlink">
<g><path style="opacity:1" fill="#fdfdfd" d="M 287.5,268.5 C 305.833,268.5 324.167,268.5 342.5,268.5C 342.5,277.5 342.5,286.5 342.5,295.5C 324.83,295.333 307.164,295.5 289.5,296C 283.836,298.332 280.336,302.499 279,308.5C 278.5,325.83 278.333,343.163 278.5,360.5C 269.833,360.5 261.167,360.5 252.5,360.5C 252.333,341.497 252.5,322.497 253,303.5C 257.335,284.666 268.835,272.999 287.5,268.5 Z"/></g>
<g><path style="opacity:1" fill="#fdfdfd" d="M 664.5,268.5 C 682.17,268.333 699.836,268.5 717.5,269C 737.43,272.263 749.597,283.763 754,303.5C 754.5,322.497 754.667,341.497 754.5,360.5C 745.833,360.5 737.167,360.5 728.5,360.5C 728.667,343.163 728.5,325.83 728,308.5C 726.573,302.075 722.74,297.908 716.5,296C 699.17,295.5 681.837,295.333 664.5,295.5C 664.5,286.5 664.5,277.5 664.5,268.5 Z"/></g>
<g><path style="opacity:1" fill="#d34145" d="M 358.5,347.5 C 372.833,347.5 387.167,347.5 401.5,347.5C 401.5,352.833 401.5,358.167 401.5,363.5C 386.833,363.5 372.167,363.5 357.5,363.5C 357.5,363.167 357.5,362.833 357.5,362.5C 371.833,362.5 386.167,362.5 400.5,362.5C 400.5,357.833 400.5,353.167 400.5,348.5C 385.163,348.333 369.83,348.5 354.5,349C 352.934,349.608 351.6,350.442 350.5,351.5C 349.167,351.5 347.833,351.5 346.5,351.5C 349.956,348.792 353.956,347.459 358.5,347.5 Z"/></g>
<g><path style="opacity:1" fill="#e8353c" d="M 357.5,362.5 C 358.568,361.566 359.901,361.232 361.5,361.5C 374.167,361.5 386.833,361.5 399.5,361.5C 399.5,357.5 399.5,353.5 399.5,349.5C 384.99,349.171 370.657,349.504 356.5,350.5C 354.5,350.833 352.5,351.167 350.5,351.5C 351.6,350.442 352.934,349.608 354.5,349C 369.83,348.5 385.163,348.333 400.5,348.5C 400.5,353.167 400.5,357.833 400.5,362.5C 386.167,362.5 371.833,362.5 357.5,362.5 Z"/></g>
<g><path style="opacity:1" fill="#c63d44" d="M 597.5,348.5 C 610.99,347.504 624.656,347.171 638.5,347.5C 641.553,347.111 644.22,347.777 646.5,349.5C 645.5,349.5 644.5,349.5 643.5,349.5C 628.245,348.517 612.911,348.183 597.5,348.5 Z"/></g>
<g><path style="opacity:1" fill="#f92d36" d="M 356.5,350.5 C 369.827,350.127 379.494,350.46 385.5,351.5C 386.653,358.36 384.32,360.027 378.5,356.5C 376.483,357.174 374.817,358.341 373.5,360C 369.312,360.176 365.312,360.676 361.5,361.5C 359.901,361.232 358.568,361.566 357.5,362.5C 355.135,363.008 352.801,363.675 350.5,364.5C 347.446,363.528 345.113,361.695 343.5,359C 344.167,358.667 344.833,358.333 345.5,358C 344.549,357.282 344.383,356.449 345,355.5C 346.98,354.251 348.813,352.918 350.5,351.5C 352.5,351.167 354.5,350.833 356.5,350.5 Z"/></g>
<g><path style="opacity:1" fill="#d33941" d="M 643.5,350.5 C 643.5,350.167 643.5,349.833 643.5,349.5C 644.5,349.5 645.5,349.5 646.5,349.5C 648.284,349.893 649.95,350.559 651.5,351.5C 651.5,352.167 651.5,352.833 651.5,353.5C 649.579,352.637 647.579,351.971 645.5,351.5C 645.158,350.662 644.492,350.328 643.5,350.5 Z"/></g>
<g><path style="opacity:1" fill="#f73039" d="M 356.5,350.5 C 370.657,349.504 384.99,349.171 399.5,349.5C 399.5,353.5 399.5,357.5 399.5,361.5C 386.833,361.5 374.167,361.5 361.5,361.5C 365.312,360.676 369.312,360.176 373.5,360C 374.817,358.341 376.483,357.174 378.5,356.5C 384.32,360.027 386.653,358.36 385.5,351.5C 379.494,350.46 369.827,350.127 356.5,350.5 Z"/></g>
<g><path style="opacity:1" fill="#a2373b" d="M 358.5,347.5 C 372.99,346.504 387.657,346.171 402.5,346.5C 402.822,352.358 402.489,358.025 401.5,363.5C 401.5,358.167 401.5,352.833 401.5,347.5C 387.167,347.5 372.833,347.5 358.5,347.5 Z"/></g>
<g><path style="opacity:1" fill="#b43a3e" d="M 651.5,351.5 C 655.188,353.188 657.855,355.855 659.5,359.5C 657.116,357.115 654.45,355.115 651.5,353.5C 651.5,352.833 651.5,352.167 651.5,351.5 Z"/></g>
<g><path style="opacity:1" fill="#f82c36" d="M 640.5,350.5 C 641.5,350.5 642.5,350.5 643.5,350.5C 644.492,350.328 645.158,350.662 645.5,351.5C 646.23,352.712 647.23,353.712 648.5,354.5C 646.579,357.205 644.246,359.538 641.5,361.5C 631.833,360.833 622.167,360.167 612.5,359.5C 608.91,361.121 605.577,360.787 602.5,358.5C 601.264,359.246 599.93,359.579 598.5,359.5C 598.5,356.5 598.5,353.5 598.5,350.5C 612.5,350.5 626.5,350.5 640.5,350.5 Z"/></g>
<g><path style="opacity:1" fill="#e53b41" d="M 651.5,353.5 C 654.45,355.115 657.116,357.115 659.5,359.5C 659.5,360.167 659.5,360.833 659.5,361.5C 656.452,359.118 653.785,356.452 651.5,353.5 Z"/></g>
<g><path style="opacity:1" fill="#a13236" d="M 638.5,347.5 C 624.656,347.171 610.99,347.504 597.5,348.5C 596.176,353.234 596.176,358.067 597.5,363C 611.339,363.169 625.006,363.669 638.5,364.5C 624.167,364.5 609.833,364.5 595.5,364.5C 595.192,358.575 595.525,352.741 596.5,347C 610.673,346.173 624.673,346.339 638.5,347.5 Z"/></g>
<g><path style="opacity:1" fill="#f7303a" d="M 640.5,350.5 C 626.5,350.5 612.5,350.5 598.5,350.5C 598.5,353.5 598.5,356.5 598.5,359.5C 599.93,359.579 601.264,359.246 602.5,358.5C 605.577,360.787 608.91,361.121 612.5,359.5C 622.167,360.167 631.833,360.833 641.5,361.5C 644.246,359.538 646.579,357.205 648.5,354.5C 647.23,353.712 646.23,352.712 645.5,351.5C 647.579,351.971 649.579,352.637 651.5,353.5C 653.785,356.452 656.452,359.118 659.5,361.5C 660.167,363.167 660.833,364.833 661.5,366.5C 661.5,367.167 661.5,367.833 661.5,368.5C 660.596,367.791 660.263,366.791 660.5,365.5C 658.109,366.408 655.776,366.574 653.5,366C 652.833,366.667 652.167,367.333 651.5,368C 652.623,369.875 652.623,372.042 651.5,374.5C 650.9,373.1 649.9,372.1 648.5,371.5C 647.89,370.609 647.557,369.609 647.5,368.5C 647.67,367.178 647.337,366.011 646.5,365C 643.911,363.803 641.244,362.803 638.5,362C 624.837,361.5 611.171,361.333 597.5,361.5C 597.5,357.5 597.5,353.5 597.5,349.5C 612.01,349.171 626.343,349.504 640.5,350.5 Z"/></g>
<g><path style="opacity:1" fill="#e4373f" d="M 597.5,348.5 C 612.911,348.183 628.245,348.517 643.5,349.5C 643.5,349.833 643.5,350.167 643.5,350.5C 642.5,350.5 641.5,350.5 640.5,350.5C 626.343,349.504 612.01,349.171 597.5,349.5C 597.5,353.5 597.5,357.5 597.5,361.5C 611.171,361.333 624.837,361.5 638.5,362C 641.244,362.803 643.911,363.803 646.5,365C 647.337,366.011 647.67,367.178 647.5,368.5C 646.395,367.4 645.062,366.733 643.5,366.5C 642.817,364.824 641.483,364.157 639.5,364.5C 639.167,364.5 638.833,364.5 638.5,364.5C 625.006,363.669 611.339,363.169 597.5,363C 596.176,358.067 596.176,353.234 597.5,348.5 Z"/></g>
<g><path style="opacity:1" fill="#bc3f44" d="M 659.5,359.5 C 660.906,359.973 661.573,360.973 661.5,362.5C 660.833,362.167 660.167,361.833 659.5,361.5C 659.5,360.833 659.5,360.167 659.5,359.5 Z"/></g>
<g><path style="opacity:1" fill="#c83b41" d="M 639.5,364.5 C 641.483,364.157 642.817,364.824 643.5,366.5C 641.847,366.34 640.514,365.674 639.5,364.5 Z"/></g>
<g><path style="opacity:1" fill="#cb4043" d="M 346.5,351.5 C 341.645,355.679 337.979,360.679 335.5,366.5C 334.691,368.028 334.024,369.694 333.5,371.5C 333.167,371.5 332.833,371.5 332.5,371.5C 333.713,362.404 338.38,355.737 346.5,351.5 Z"/></g>
<g><path style="opacity:1" fill="#fb3039" d="M 346.5,351.5 C 347.833,351.5 349.167,351.5 350.5,351.5C 348.813,352.918 346.98,354.251 345,355.5C 344.383,356.449 344.549,357.282 345.5,358C 344.833,358.333 344.167,358.667 343.5,359C 345.113,361.695 347.446,363.528 350.5,364.5C 352.801,363.675 355.135,363.008 357.5,362.5C 357.5,362.833 357.5,363.167 357.5,363.5C 354.299,364.379 351.632,366.045 349.5,368.5C 347.318,369.3 345.651,370.8 344.5,373C 345.296,386.684 345.63,400.517 345.5,414.5C 341.833,414.5 338.167,414.5 334.5,414.5C 334.245,398.476 334.578,382.476 335.5,366.5C 337.979,360.679 341.645,355.679 346.5,351.5 Z"/></g>
<g><path style="opacity:1" fill="#c43c42" d="M 643.5,366.5 C 645.062,366.733 646.395,367.4 647.5,368.5C 647.557,369.609 647.89,370.609 648.5,371.5C 648.833,372.833 649.167,374.167 649.5,375.5C 649.167,375.5 648.833,375.5 648.5,375.5C 647.267,372.265 645.601,369.265 643.5,366.5 Z"/></g>
<g><path style="opacity:1" fill="#ec353c" d="M 661.5,366.5 C 662.558,367.6 663.392,368.934 664,370.5C 664.5,385.496 664.667,400.496 664.5,415.5C 659.833,415.5 655.167,415.5 650.5,415.5C 650.829,401.99 650.496,388.656 649.5,375.5C 649.167,374.167 648.833,372.833 648.5,371.5C 649.9,372.1 650.9,373.1 651.5,374.5C 651.5,387.833 651.5,401.167 651.5,414.5C 655.5,414.5 659.5,414.5 663.5,414.5C 663.667,400.829 663.5,387.163 663,373.5C 662.392,371.846 661.892,370.179 661.5,368.5C 661.5,367.833 661.5,367.167 661.5,366.5 Z"/></g>
<g><path style="opacity:1" fill="#f93039" d="M 661.5,368.5 C 661.892,370.179 662.392,371.846 663,373.5C 663.5,387.163 663.667,400.829 663.5,414.5C 659.5,414.5 655.5,414.5 651.5,414.5C 651.5,401.167 651.5,387.833 651.5,374.5C 652.623,372.042 652.623,369.875 651.5,368C 652.167,367.333 652.833,366.667 653.5,366C 655.776,366.574 658.109,366.408 660.5,365.5C 660.263,366.791 660.596,367.791 661.5,368.5 Z"/></g>
<g><path style="opacity:1" fill="#f9f9f9" d="M 368.5,386.5 C 393.169,386.333 417.836,386.5 442.5,387C 443.333,387.833 444.167,388.667 445,389.5C 445.667,414.5 445.667,439.5 445,464.5C 444.692,465.308 444.192,465.975 443.5,466.5C 417.97,467.83 392.47,467.83 367,466.5C 365.352,440.921 365.019,415.254 366,389.5C 366.698,388.309 367.531,387.309 368.5,386.5 Z M 376.5,397.5 C 395.833,397.5 415.167,397.5 434.5,397.5C 434.5,417.167 434.5,436.833 434.5,456.5C 414.833,456.5 395.167,456.5 375.5,456.5C 375.179,436.757 375.513,417.091 376.5,397.5 Z"/></g>
<g><path style="opacity:1" fill="#fafafa" d="M 548.5,386.5 C 573.502,386.333 598.502,386.5 623.5,387C 624,387.5 624.5,388 625,388.5C 625.667,414.167 625.667,439.833 625,465.5C 624.5,466 624,466.5 623.5,467C 598.5,467.667 573.5,467.667 548.5,467C 547.667,466.167 546.833,465.333 546,464.5C 545.333,439.833 545.333,415.167 546,390.5C 546.662,389.016 547.496,387.683 548.5,386.5 Z M 556.5,397.5 C 576.167,397.5 595.833,397.5 615.5,397.5C 615.5,417.167 615.5,436.833 615.5,456.5C 595.833,456.5 576.167,456.5 556.5,456.5C 556.5,436.833 556.5,417.167 556.5,397.5 Z"/></g>
<g><path style="opacity:1" fill="#f9f9f9" d="M 456.5,387.5 C 460.167,387.5 463.833,387.5 467.5,387.5C 467.335,391.182 467.501,394.848 468,398.5C 471.394,399.456 474.894,399.789 478.5,399.5C 478.5,403.167 478.5,406.833 478.5,410.5C 474.833,410.5 471.167,410.5 467.5,410.5C 467.823,414.226 467.489,417.893 466.5,421.5C 463.301,422.799 460.135,422.799 457,421.5C 456.5,410.172 456.333,398.838 456.5,387.5 Z"/></g>
<g><path style="opacity:1" fill="#f9f9f9" d="M 500.5,387.5 C 504.167,387.5 507.833,387.5 511.5,387.5C 511.5,391.167 511.5,394.833 511.5,398.5C 507.833,398.5 504.167,398.5 500.5,398.5C 500.5,394.833 500.5,391.167 500.5,387.5 Z"/></g>
<g><path style="opacity:1" fill="#fafafa" d="M 522.5,387.5 C 526.167,387.5 529.833,387.5 533.5,387.5C 533.5,394.833 533.5,402.167 533.5,409.5C 529.833,409.5 526.167,409.5 522.5,409.5C 522.5,402.167 522.5,394.833 522.5,387.5 Z"/></g>
<g><path style="opacity:1" fill="#be3c40" d="M 659.5,361.5 C 660.167,361.833 660.833,362.167 661.5,362.5C 663.163,364.493 664.33,366.826 665,369.5C 666.789,384.93 666.956,400.597 665.5,416.5C 665.167,416.5 664.833,416.5 664.5,416.5C 664.5,416.167 664.5,415.833 664.5,415.5C 664.667,400.496 664.5,385.496 664,370.5C 663.392,368.934 662.558,367.6 661.5,366.5C 660.833,364.833 660.167,363.167 659.5,361.5 Z"/></g>
<g><path style="opacity:1" fill="#f3343c" d="M 335.5,366.5 C 334.578,382.476 334.245,398.476 334.5,414.5C 338.167,414.5 341.833,414.5 345.5,414.5C 345.63,400.517 345.296,386.684 344.5,373C 345.651,370.8 347.318,369.3 349.5,368.5C 348.89,369.391 348.557,370.391 348.5,371.5C 347.883,371.611 347.383,371.944 347,372.5C 346.5,386.829 346.333,401.163 346.5,415.5C 342.167,415.5 337.833,415.5 333.5,415.5C 333.5,400.833 333.5,386.167 333.5,371.5C 334.024,369.694 334.691,368.028 335.5,366.5 Z"/></g>
<g><path style="opacity:1" fill="#fafafa" d="M 500.5,410.5 C 496.833,410.5 493.167,410.5 489.5,410.5C 490.449,407.128 490.449,403.795 489.5,400.5C 493.107,399.511 496.774,399.177 500.5,399.5C 500.5,403.167 500.5,406.833 500.5,410.5 Z"/></g>
<g><path style="opacity:1" fill="#dd3f44" d="M 649.5,375.5 C 650.496,388.656 650.829,401.99 650.5,415.5C 655.167,415.5 659.833,415.5 664.5,415.5C 664.5,415.833 664.5,416.167 664.5,416.5C 659.5,416.5 654.5,416.5 649.5,416.5C 649.5,402.833 649.5,389.167 649.5,375.5 Z"/></g>
<g><path style="opacity:1" fill="#b23f42" d="M 648.5,375.5 C 648.833,375.5 649.167,375.5 649.5,375.5C 649.5,389.167 649.5,402.833 649.5,416.5C 654.5,416.5 659.5,416.5 664.5,416.5C 664.833,416.5 665.167,416.5 665.5,416.5C 660.025,417.489 654.358,417.822 648.5,417.5C 648.5,403.5 648.5,389.5 648.5,375.5 Z"/></g>
<g><path style="opacity:1" fill="#ba3c41" d="M 357.5,363.5 C 372.167,363.5 386.833,363.5 401.5,363.5C 387.006,364.331 372.339,364.831 357.5,365C 352.374,367.066 349.541,370.9 349,376.5C 348.5,390.163 348.333,403.829 348.5,417.5C 342.833,417.5 337.167,417.5 331.5,417.5C 331.17,401.991 331.504,386.658 332.5,371.5C 332.5,386.5 332.5,401.5 332.5,416.5C 337.5,416.5 342.5,416.5 347.5,416.5C 347.199,401.452 347.532,386.452 348.5,371.5C 348.557,370.391 348.89,369.391 349.5,368.5C 351.632,366.045 354.299,364.379 357.5,363.5 Z"/></g>
<g><path style="opacity:1" fill="#e43a41" d="M 332.5,371.5 C 332.833,371.5 333.167,371.5 333.5,371.5C 333.5,386.167 333.5,400.833 333.5,415.5C 337.833,415.5 342.167,415.5 346.5,415.5C 346.333,401.163 346.5,386.829 347,372.5C 347.383,371.944 347.883,371.611 348.5,371.5C 347.532,386.452 347.199,401.452 347.5,416.5C 342.5,416.5 337.5,416.5 332.5,416.5C 332.5,401.5 332.5,386.5 332.5,371.5 Z"/></g>
<g><path style="opacity:1" fill="#fcfcfc" d="M 386.5,408.5 C 398.833,408.5 411.167,408.5 423.5,408.5C 423.172,419.346 423.506,430.013 424.5,440.5C 424.5,442.5 424.5,444.5 424.5,446.5C 411.833,446.5 399.167,446.5 386.5,446.5C 386.5,433.833 386.5,421.167 386.5,408.5 Z"/></g>
<g><path style="opacity:1" fill="#fdfdfd" d="M 604.5,445.5 C 592.167,445.5 579.833,445.5 567.5,445.5C 567.5,433.167 567.5,420.833 567.5,408.5C 579.655,407.505 591.989,407.171 604.5,407.5C 604.5,420.167 604.5,432.833 604.5,445.5 Z"/></g>
<g><path style="opacity:1" fill="#fafafa" d="M 489.5,410.5 C 489.5,414.167 489.5,417.833 489.5,421.5C 486.167,421.5 482.833,421.5 479.5,421.5C 479.5,417.833 479.5,414.167 479.5,410.5C 482.833,410.5 486.167,410.5 489.5,410.5 Z"/></g>
<g><path style="opacity:1" fill="#f7f7f7" d="M 500.5,410.5 C 504.167,410.5 507.833,410.5 511.5,410.5C 511.5,414.167 511.5,417.833 511.5,421.5C 508.111,421.632 504.777,421.799 501.5,422C 500.54,418.27 500.207,414.437 500.5,410.5 Z"/></g>
<g><path style="opacity:1" fill="#d2d2d2" d="M 567.5,408.5 C 567.5,420.833 567.5,433.167 567.5,445.5C 579.833,445.5 592.167,445.5 604.5,445.5C 592.011,446.495 579.344,446.829 566.5,446.5C 566.171,433.656 566.505,420.989 567.5,408.5 Z"/></g>
<g><path style="opacity:1" fill="#fdfdfc" d="M 468.5,422.5 C 471.833,422.5 475.167,422.5 478.5,422.5C 478.5,425.833 478.5,429.167 478.5,432.5C 478.5,429.167 478.5,425.833 478.5,422.5C 475.167,422.5 471.833,422.5 468.5,422.5 Z"/></g>
<g><path style="opacity:1" fill="#f8f8f8" d="M 489.5,422.5 C 493.167,422.5 496.833,422.5 500.5,422.5C 500.5,426.167 500.5,429.833 500.5,433.5C 497.167,433.5 493.833,433.5 490.5,433.5C 490.058,429.846 489.724,426.179 489.5,422.5 Z"/></g>
<g><path style="opacity:1" fill="#fafafa" d="M 522.5,423.5 C 525.962,422.518 529.629,422.185 533.5,422.5C 533.5,425.833 533.5,429.167 533.5,432.5C 530.167,432.5 526.833,432.5 523.5,432.5C 523.81,429.287 523.477,426.287 522.5,423.5 Z"/></g>
<g><path style="opacity:1" fill="#e9e9e9" d="M 386.5,408.5 C 398.989,407.505 411.656,407.171 424.5,407.5C 424.5,418.5 424.5,429.5 424.5,440.5C 423.506,430.013 423.172,419.346 423.5,408.5C 411.167,408.5 398.833,408.5 386.5,408.5 Z"/></g>
<g><path style="opacity:1" fill="#d1d1d1" d="M 468.5,422.5 C 468.5,425.833 468.5,429.167 468.5,432.5C 471.833,432.5 475.167,432.5 478.5,432.5C 478.5,432.833 478.5,433.167 478.5,433.5C 474.833,433.5 471.167,433.5 467.5,433.5C 467.185,429.629 467.518,425.962 468.5,422.5 Z"/></g>
<g><path style="opacity:1" fill="#d7d7d6" d="M 522.5,423.5 C 523.477,426.287 523.81,429.287 523.5,432.5C 526.833,432.5 530.167,432.5 533.5,432.5C 530.038,433.482 526.371,433.815 522.5,433.5C 522.5,430.167 522.5,426.833 522.5,423.5 Z"/></g>
<g><path style="opacity:1" fill="#f8f8f8" d="M 467.5,433.5 C 467.5,437.167 467.5,440.833 467.5,444.5C 463.833,444.5 460.167,444.5 456.5,444.5C 456.5,440.833 456.5,437.167 456.5,433.5C 460.167,433.5 463.833,433.5 467.5,433.5 Z"/></g>
<g><path style="opacity:1" fill="#f9f9f9" d="M 478.5,433.5 C 482.167,433.5 485.833,433.5 489.5,433.5C 489.5,444.833 489.5,456.167 489.5,467.5C 485.833,467.5 482.167,467.5 478.5,467.5C 479.833,463.833 479.833,460.167 478.5,456.5C 474.833,456.5 471.167,456.5 467.5,456.5C 467.5,452.833 467.5,449.167 467.5,445.5C 478.913,448.424 482.579,444.424 478.5,433.5 Z"/></g>
<g><path style="opacity:1" fill="#f6f7f6" d="M 522.5,433.5 C 522.5,437.167 522.5,440.833 522.5,444.5C 519.15,444.665 515.817,444.498 512.5,444C 511.544,440.606 511.211,437.106 511.5,433.5C 515.167,433.5 518.833,433.5 522.5,433.5 Z"/></g>
<g><path style="opacity:1" fill="#f6f6f6" d="M 511.5,456.5 C 507.833,456.5 504.167,456.5 500.5,456.5C 500.5,452.833 500.5,449.167 500.5,445.5C 504.167,445.5 507.833,445.5 511.5,445.5C 511.5,449.167 511.5,452.833 511.5,456.5 Z"/></g>
<g><path style="opacity:1" fill="#fcfcfc" d="M 523.5,445.5 C 526.833,445.5 530.167,445.5 533.5,445.5C 533.5,447.5 533.5,449.5 533.5,451.5C 532.566,452.568 532.232,453.901 532.5,455.5C 529.5,455.5 526.5,455.5 523.5,455.5C 523.5,452.167 523.5,448.833 523.5,445.5 Z"/></g>
<g><path style="opacity:1" fill="#e6e6e6" d="M 523.5,445.5 C 523.5,448.833 523.5,452.167 523.5,455.5C 526.5,455.5 529.5,455.5 532.5,455.5C 532.232,453.901 532.566,452.568 533.5,451.5C 533.5,453.167 533.5,454.833 533.5,456.5C 529.833,456.5 526.167,456.5 522.5,456.5C 522.185,452.629 522.518,448.962 523.5,445.5 Z"/></g>
<g><path style="opacity:1" fill="#fdfdfd" d="M 467.5,457.5 C 467.5,464.833 467.5,472.167 467.5,479.5C 464.167,479.5 460.833,479.5 457.5,479.5C 457.5,472.167 457.5,464.833 457.5,457.5C 460.833,457.5 464.167,457.5 467.5,457.5 Z"/></g>
<g><path style="opacity:1" fill="#f6f6f6" d="M 511.5,456.5 C 515.167,456.5 518.833,456.5 522.5,456.5C 522.5,460.167 522.5,463.833 522.5,467.5C 518.833,467.5 515.167,467.5 511.5,467.5C 511.5,463.833 511.5,460.167 511.5,456.5 Z"/></g>
<g><path style="opacity:1" fill="#dedede" d="M 467.5,456.5 C 467.5,456.833 467.5,457.167 467.5,457.5C 464.167,457.5 460.833,457.5 457.5,457.5C 457.5,464.833 457.5,472.167 457.5,479.5C 456.508,472.018 456.175,464.352 456.5,456.5C 460.167,456.5 463.833,456.5 467.5,456.5 Z"/></g>
<g><path style="opacity:1" fill="#fafafa" d="M 489.5,468.5 C 493.167,468.5 496.833,468.5 500.5,468.5C 500.5,472.167 500.5,475.833 500.5,479.5C 496.833,479.5 493.167,479.5 489.5,479.5C 489.5,475.833 489.5,472.167 489.5,468.5 Z"/></g>
<g><path style="opacity:1" fill="#fafafa" d="M 533.5,491.5 C 529.833,491.5 526.167,491.5 522.5,491.5C 522.5,495.167 522.5,498.833 522.5,502.5C 518.833,502.5 515.167,502.5 511.5,502.5C 511.5,495.167 511.5,487.833 511.5,480.5C 515.167,480.5 518.833,480.5 522.5,480.5C 522.5,476.5 522.5,472.5 522.5,468.5C 526.167,468.5 529.833,468.5 533.5,468.5C 533.5,476.167 533.5,483.833 533.5,491.5 Z"/></g>
<g><path style="opacity:1" fill="#fafafa" d="M 388.5,491.5 C 381.167,491.5 373.833,491.5 366.5,491.5C 366.5,487.833 366.5,484.167 366.5,480.5C 373.833,480.5 381.167,480.5 388.5,480.5C 388.5,484.167 388.5,487.833 388.5,491.5 Z"/></g>
<g><path style="opacity:1" fill="#f9f9f9" d="M 410.5,491.5 C 410.5,487.833 410.5,484.167 410.5,480.5C 414.167,480.5 417.833,480.5 421.5,480.5C 421.5,484.167 421.5,487.833 421.5,491.5C 417.833,491.5 414.167,491.5 410.5,491.5 Z"/></g>
<g><path style="opacity:1" fill="#f7f7f7" d="M 456.5,491.5 C 448.833,491.5 441.167,491.5 433.5,491.5C 433.5,487.833 433.5,484.167 433.5,480.5C 441.167,480.5 448.833,480.5 456.5,480.5C 456.5,484.167 456.5,487.833 456.5,491.5 Z"/></g>
<g><path style="opacity:1" fill="#fbfbfb" d="M 467.5,491.5 C 467.5,487.833 467.5,484.167 467.5,480.5C 471.167,480.5 474.833,480.5 478.5,480.5C 478.5,484.167 478.5,487.833 478.5,491.5C 474.833,491.5 471.167,491.5 467.5,491.5 Z"/></g>
<g><path style="opacity:1" fill="#fbfbfb" d="M 544.5,491.5 C 544.5,487.833 544.5,484.167 544.5,480.5C 555.5,480.5 566.5,480.5 577.5,480.5C 577.5,484.167 577.5,487.833 577.5,491.5C 573.833,491.5 570.167,491.5 566.5,491.5C 566.5,495.167 566.5,498.833 566.5,502.5C 562.833,502.5 559.167,502.5 555.5,502.5C 555.5,498.833 555.5,495.167 555.5,491.5C 551.833,491.5 548.167,491.5 544.5,491.5 Z"/></g>
<g><path style="opacity:1" fill="#fafafa" d="M 611.5,481.5 C 615.298,480.517 619.298,480.183 623.5,480.5C 623.5,484.167 623.5,487.833 623.5,491.5C 622.167,491.5 620.833,491.5 619.5,491.5C 617.393,490.532 615.059,490.198 612.5,490.5C 612.81,487.287 612.477,484.287 611.5,481.5 Z"/></g>
<g><path style="opacity:1" fill="#e4e4e4" d="M 611.5,481.5 C 612.477,484.287 612.81,487.287 612.5,490.5C 615.059,490.198 617.393,490.532 619.5,491.5C 616.833,491.5 614.167,491.5 611.5,491.5C 611.5,488.167 611.5,484.833 611.5,481.5 Z"/></g>
<g><path style="opacity:1" fill="#d6d6d6" d="M 533.5,492.5 C 533.5,492.167 533.5,491.833 533.5,491.5C 537.167,491.5 540.833,491.5 544.5,491.5C 544.5,493.167 544.5,494.833 544.5,496.5C 543.566,495.432 543.232,494.099 543.5,492.5C 540.167,492.5 536.833,492.5 533.5,492.5 Z"/></g>
<g><path style="opacity:1" fill="#fafafa" d="M 594.5,491.5 C 595.878,492.234 597.378,492.901 599,493.5C 602.409,492.378 605.909,492.211 609.5,493C 610.451,496.057 610.784,499.223 610.5,502.5C 607.223,502.216 604.057,502.549 601,503.5C 600.5,510.826 600.334,518.159 600.5,525.5C 596.833,525.5 593.167,525.5 589.5,525.5C 589.666,518.159 589.5,510.826 589,503.5C 585.606,502.544 582.106,502.211 578.5,502.5C 578.5,498.833 578.5,495.167 578.5,491.5C 583.833,491.5 589.167,491.5 594.5,491.5 Z"/></g>
<g><path style="opacity:1" fill="#ededed" d="M 594.5,491.5 C 600.167,491.5 605.833,491.5 611.5,491.5C 611.815,495.371 611.482,499.038 610.5,502.5C 610.784,499.223 610.451,496.057 609.5,493C 605.909,492.211 602.409,492.378 599,493.5C 597.378,492.901 595.878,492.234 594.5,491.5 Z"/></g>
<g><path style="opacity:1" fill="#f8f8f8" d="M 388.5,491.5 C 395.833,491.5 403.167,491.5 410.5,491.5C 410.5,499.167 410.5,506.833 410.5,514.5C 406.833,514.5 403.167,514.5 399.5,514.5C 399.5,510.833 399.5,507.167 399.5,503.5C 395.833,503.5 392.167,503.5 388.5,503.5C 388.5,499.5 388.5,495.5 388.5,491.5 Z"/></g>
<g><path style="opacity:1" fill="#f2f2f2" d="M 422.5,491.5 C 425.85,491.335 429.183,491.502 432.5,492C 433.456,495.394 433.789,498.894 433.5,502.5C 429.486,502.666 425.486,502.499 421.5,502C 422.327,498.389 422.661,494.889 422.5,491.5 Z"/></g>
<g><path style="opacity:1" fill="#f4f4f4" d="M 489.5,492.5 C 493.167,492.5 496.833,492.5 500.5,492.5C 500.82,495.898 500.487,499.232 499.5,502.5C 496.579,503.407 493.579,503.74 490.5,503.5C 490.448,499.802 490.114,496.135 489.5,492.5 Z"/></g>
<g><path style="opacity:1" fill="#fafafa" d="M 533.5,492.5 C 536.833,492.5 540.167,492.5 543.5,492.5C 543.232,494.099 543.566,495.432 544.5,496.5C 544.5,502.5 544.5,508.5 544.5,514.5C 537.167,514.5 529.833,514.5 522.5,514.5C 522.5,510.833 522.5,507.167 522.5,503.5C 526.167,503.5 529.833,503.5 533.5,503.5C 533.5,499.833 533.5,496.167 533.5,492.5 Z"/></g>
<g><path style="opacity:1" fill="#f4f4f3" d="M 456.5,491.5 C 460.167,491.5 463.833,491.5 467.5,491.5C 467.5,495.167 467.5,498.833 467.5,502.5C 463.833,502.5 460.167,502.5 456.5,502.5C 456.5,498.833 456.5,495.167 456.5,491.5 Z"/></g>
<g><path style="opacity:1" fill="#fbfbfb" d="M 456.5,514.5 C 448.833,514.5 441.167,514.5 433.5,514.5C 433.5,510.833 433.5,507.167 433.5,503.5C 441.167,503.5 448.833,503.5 456.5,503.5C 456.5,507.167 456.5,510.833 456.5,514.5 Z"/></g>
<g><path style="opacity:1" fill="#fbfbfa" d="M 478.5,504.5 C 481.962,503.518 485.629,503.185 489.5,503.5C 489.5,507.167 489.5,510.833 489.5,514.5C 486.167,514.5 482.833,514.5 479.5,514.5C 479.813,510.958 479.479,507.625 478.5,504.5 Z"/></g>
<g><path style="opacity:1" fill="#f8f8f8" d="M 511.5,514.5 C 507.833,514.5 504.167,514.5 500.5,514.5C 500.5,510.833 500.5,507.167 500.5,503.5C 504.167,503.5 507.833,503.5 511.5,503.5C 511.5,507.167 511.5,510.833 511.5,514.5 Z"/></g>
<g><path style="opacity:1" fill="#fbfbfb" d="M 566.5,503.5 C 570.167,503.5 573.833,503.5 577.5,503.5C 577.5,507.167 577.5,510.833 577.5,514.5C 573.833,514.5 570.167,514.5 566.5,514.5C 566.5,510.833 566.5,507.167 566.5,503.5 Z"/></g>
<g><path style="opacity:1" fill="#a23f41" d="M 630.5,507.5 C 629.5,507.5 628.5,507.5 627.5,507.5C 627.5,508.5 627.5,509.5 627.5,510.5C 625.534,504.724 626.534,503.724 630.5,507.5 Z"/></g>
<g><path style="opacity:1" fill="#c24143" d="M 630.5,507.5 C 633.243,509.239 635.243,511.573 636.5,514.5C 634.186,512.523 631.853,510.523 629.5,508.5C 628.505,514.128 628.171,519.794 628.5,525.5C 627.833,526.5 627.167,527.5 626.5,528.5C 627.307,522.536 627.64,516.536 627.5,510.5C 627.5,509.5 627.5,508.5 627.5,507.5C 628.5,507.5 629.5,507.5 630.5,507.5 Z"/></g>
<g><path style="opacity:1" fill="#f6f5f5" d="M 366.5,514.5 C 369.85,514.335 373.183,514.502 376.5,515C 377.456,518.394 377.789,521.894 377.5,525.5C 373.833,525.5 370.167,525.5 366.5,525.5C 366.5,521.833 366.5,518.167 366.5,514.5 Z"/></g>
<g><path style="opacity:1" fill="#f6f6f6" d="M 388.5,514.5 C 391.85,514.335 395.183,514.502 398.5,515C 399.456,518.394 399.789,521.894 399.5,525.5C 395.833,525.5 392.167,525.5 388.5,525.5C 388.5,521.833 388.5,518.167 388.5,514.5 Z"/></g>
<g><path style="opacity:1" fill="#fbfbfb" d="M 421.5,515.5 C 421.5,518.833 421.5,522.167 421.5,525.5C 418.167,525.5 414.833,525.5 411.5,525.5C 411.5,522.167 411.5,518.833 411.5,515.5C 414.833,515.5 418.167,515.5 421.5,515.5 Z"/></g>
<g><path style="opacity:1" fill="#fafafa" d="M 456.5,514.5 C 463.833,514.5 471.167,514.5 478.5,514.5C 478.5,518.5 478.5,522.5 478.5,526.5C 482.167,526.5 485.833,526.5 489.5,526.5C 489.5,530.167 489.5,533.833 489.5,537.5C 493.167,537.5 496.833,537.5 500.5,537.5C 500.5,545.167 500.5,552.833 500.5,560.5C 496.833,560.5 493.167,560.5 489.5,560.5C 489.5,556.5 489.5,552.5 489.5,548.5C 486.15,548.665 482.817,548.498 479.5,548C 478.544,544.606 478.211,541.106 478.5,537.5C 475.375,536.521 472.042,536.187 468.5,536.5C 468.813,532.958 468.479,529.625 467.5,526.5C 464.038,525.518 460.371,525.185 456.5,525.5C 456.5,521.833 456.5,518.167 456.5,514.5 Z"/></g>
<g><path style="opacity:1" fill="#fafbfb" d="M 522.5,515.5 C 522.5,518.833 522.5,522.167 522.5,525.5C 519.167,525.5 515.833,525.5 512.5,525.5C 512.5,522.167 512.5,518.833 512.5,515.5C 515.833,515.5 519.167,515.5 522.5,515.5 Z"/></g>
<g><path style="opacity:1" fill="#f6f6f6" d="M 611.5,514.5 C 613.5,514.5 615.5,514.5 617.5,514.5C 618.185,522.278 616.685,529.612 613,536.5C 608.934,537.464 604.767,537.797 600.5,537.5C 600.5,533.833 600.5,530.167 600.5,526.5C 604.167,526.5 607.833,526.5 611.5,526.5C 611.5,522.5 611.5,518.5 611.5,514.5 Z"/></g>
<g><path style="opacity:1" fill="#f5f5f5" d="M 545.5,515.5 C 548.5,515.5 551.5,515.5 554.5,515.5C 554.5,518.833 554.5,522.167 554.5,525.5C 551.167,525.5 547.833,525.5 544.5,525.5C 544.187,521.958 544.521,518.625 545.5,515.5 Z"/></g>
<g><path style="opacity:1" fill="#bb3c41" d="M 636.5,514.5 C 638.587,515.585 639.92,517.251 640.5,519.5C 639.167,518.5 637.833,517.5 636.5,516.5C 636.5,515.833 636.5,515.167 636.5,514.5 Z"/></g>
<g><path style="opacity:1" fill="#fb2f34" d="M 636.5,516.5 C 637.08,518.749 638.413,520.415 640.5,521.5C 640.34,523.199 640.506,524.866 641,526.5C 645.674,533.545 648.674,541.212 650,549.5C 650.281,556.57 650.448,563.57 650.5,570.5C 649.905,572.857 648.905,575.023 647.5,577C 648.167,577.333 648.833,577.667 649.5,578C 648.556,580.719 648.223,583.552 648.5,586.5C 648.163,590.308 648.663,593.974 650,597.5C 653.038,599.693 656.204,600.027 659.5,598.5C 662.487,596.518 665.487,594.518 668.5,592.5C 669.517,588.819 669.517,584.986 668.5,581C 668.569,579.014 669.235,577.514 670.5,576.5C 670.845,579.198 672.178,581.198 674.5,582.5C 675.535,584.205 675.535,585.872 674.5,587.5C 680.046,593.324 682.379,599.824 681.5,607C 682.211,608.255 683.044,609.421 684,610.5C 684.651,616.827 685.151,623.16 685.5,629.5C 685.486,635.581 684.819,641.581 683.5,647.5C 683.5,648.833 683.5,650.167 683.5,651.5C 682.222,651.782 681.222,652.449 680.5,653.5C 678.081,657.335 675.414,661.002 672.5,664.5C 669.805,664.933 667.638,666.266 666,668.5C 664.644,667.62 663.144,667.286 661.5,667.5C 660.945,661.846 660.445,656.18 660,650.5C 659.389,646.93 657.556,644.263 654.5,642.5C 653.581,638.047 651.915,634.047 649.5,630.5C 645.543,630.823 641.71,630.823 638,630.5C 635.394,625.565 632.394,620.898 629,616.5C 628.055,611.044 627.222,605.711 626.5,600.5C 622.95,597.831 619.95,598.664 617.5,603C 616.062,603.219 614.729,603.719 613.5,604.5C 614.246,605.736 614.579,607.07 614.5,608.5C 612.821,608.892 611.154,609.392 609.5,610C 609.833,610.333 610.167,610.667 610.5,611C 609.604,614.428 608.938,617.928 608.5,621.5C 606.941,625.563 604.108,628.563 600,630.5C 598.378,635.386 596.544,640.053 594.5,644.5C 592.054,652.29 592.054,659.956 594.5,667.5C 594.5,667.833 594.5,668.167 594.5,668.5C 595.575,672.938 593.908,674.938 589.5,674.5C 585.637,668.767 581.303,663.434 576.5,658.5C 574.035,653.823 571.868,649.156 570,644.5C 569.002,639.556 568.502,634.556 568.5,629.5C 569.269,620.35 570.269,611.016 571.5,601.5C 571.833,600.167 572.167,598.833 572.5,597.5C 574.75,594.001 576.75,590.335 578.5,586.5C 579.5,586.5 580.5,586.5 581.5,586.5C 581.507,589.038 581.841,591.538 582.5,594C 582.684,595.376 583.351,596.209 584.5,596.5C 585.584,599.004 586.917,601.337 588.5,603.5C 589.385,607.264 591.552,608.264 595,606.5C 595.499,601.511 595.666,596.511 595.5,591.5C 596.67,586.161 598.67,581.161 601.5,576.5C 602.89,575.101 603.89,573.434 604.5,571.5C 608.896,569.342 611.896,566.009 613.5,561.5C 615.553,560.466 617.22,558.966 618.5,557C 618.167,556.667 617.833,556.333 617.5,556C 619.848,552.821 621.514,549.321 622.5,545.5C 622.5,545.167 622.5,544.833 622.5,544.5C 623.859,543.993 624.859,542.993 625.5,541.5C 629.106,532.531 630.773,523.197 630.5,513.5C 632.947,513.615 634.947,514.615 636.5,516.5 Z"/></g>
<g><path style="opacity:1" fill="#d7d7d7" d="M 410.5,514.5 C 414.371,514.185 418.038,514.518 421.5,515.5C 418.167,515.5 414.833,515.5 411.5,515.5C 411.5,518.833 411.5,522.167 411.5,525.5C 410.518,522.038 410.185,518.371 410.5,514.5 Z"/></g>
<g><path style="opacity:1" fill="#e0353b" d="M 636.5,516.5 C 637.833,517.5 639.167,518.5 640.5,519.5C 640.5,520.167 640.5,520.833 640.5,521.5C 638.413,520.415 637.08,518.749 636.5,516.5 Z"/></g>
<g><path style="opacity:1" fill="#be4245" d="M 640.5,519.5 C 641.906,519.973 642.573,520.973 642.5,522.5C 641.833,522.167 641.167,521.833 640.5,521.5C 640.5,520.833 640.5,520.167 640.5,519.5 Z"/></g>
<g><path style="opacity:1" fill="#cccccc" d="M 511.5,514.5 C 515.167,514.5 518.833,514.5 522.5,514.5C 522.5,514.833 522.5,515.167 522.5,515.5C 519.167,515.5 515.833,515.5 512.5,515.5C 512.5,518.833 512.5,522.167 512.5,525.5C 511.518,522.038 511.185,518.371 511.5,514.5 Z"/></g>
<g><path style="opacity:1" fill="#d3d3d3" d="M 545.5,515.5 C 548.625,514.521 551.958,514.187 555.5,514.5C 555.815,518.371 555.482,522.038 554.5,525.5C 554.5,522.167 554.5,518.833 554.5,515.5C 551.5,515.5 548.5,515.5 545.5,515.5 Z"/></g>
<g><path style="opacity:1" fill="#c14548" d="M 642.5,522.5 C 643.906,522.973 644.573,523.973 644.5,525.5C 643.833,525.167 643.167,524.833 642.5,524.5C 642.5,523.833 642.5,523.167 642.5,522.5 Z"/></g>
<g><path style="opacity:1" fill="#f9f9f9" d="M 377.5,526.5 C 381.106,526.211 384.606,526.544 388,527.5C 387.954,530.8 387.788,534.134 387.5,537.5C 384.167,537.5 380.833,537.5 377.5,537.5C 377.5,533.833 377.5,530.167 377.5,526.5 Z"/></g>
<g><path style="opacity:1" fill="#f9f9f9" d="M 400.5,526.5 C 403.833,526.5 407.167,526.5 410.5,526.5C 410.5,530.167 410.5,533.833 410.5,537.5C 408.5,537.5 406.5,537.5 404.5,537.5C 403.432,536.566 402.099,536.232 400.5,536.5C 400.5,533.167 400.5,529.833 400.5,526.5 Z"/></g>
<g><path style="opacity:1" fill="#f8f8f8" d="M 421.5,537.5 C 421.423,533.785 421.756,530.119 422.5,526.5C 425.833,526.5 429.167,526.5 432.5,526.5C 432.5,530.167 432.5,533.833 432.5,537.5C 428.833,537.5 425.167,537.5 421.5,537.5 Z"/></g>
<g><path style="opacity:1" fill="#f8f8f8" d="M 444.5,537.5 C 444.5,533.833 444.5,530.167 444.5,526.5C 448.182,526.335 451.848,526.501 455.5,527C 456.466,530.435 456.466,533.935 455.5,537.5C 451.833,537.5 448.167,537.5 444.5,537.5 Z"/></g>
<g><path style="opacity:1" fill="#f7f7f7" d="M 511.5,537.5 C 508.15,537.665 504.817,537.498 501.5,537C 500.544,533.606 500.211,530.106 500.5,526.5C 504.167,526.5 507.833,526.5 511.5,526.5C 511.5,530.167 511.5,533.833 511.5,537.5 Z"/></g>
<g><path style="opacity:1" fill="#f6f6f6" d="M 533.5,537.5 C 529.833,537.5 526.167,537.5 522.5,537.5C 522.5,533.833 522.5,530.167 522.5,526.5C 526.167,526.5 529.833,526.5 533.5,526.5C 533.5,530.167 533.5,533.833 533.5,537.5 Z"/></g>
<g><path style="opacity:1" fill="#fafafa" d="M 566.5,537.5 C 562.833,537.5 559.167,537.5 555.5,537.5C 555.5,533.833 555.5,530.167 555.5,526.5C 559.167,526.5 562.833,526.5 566.5,526.5C 566.5,530.167 566.5,533.833 566.5,537.5 Z"/></g>
<g><path style="opacity:1" fill="#fbfbfa" d="M 578.5,526.5 C 581.833,526.5 585.167,526.5 588.5,526.5C 588.927,530.004 588.927,533.671 588.5,537.5C 585.167,537.5 581.833,537.5 578.5,537.5C 578.5,533.833 578.5,530.167 578.5,526.5 Z"/></g>
<g><path style="opacity:1" fill="#ed373a" d="M 636.5,514.5 C 636.5,515.167 636.5,515.833 636.5,516.5C 634.947,514.615 632.947,513.615 630.5,513.5C 630.773,523.197 629.106,532.531 625.5,541.5C 624.859,542.993 623.859,543.993 622.5,544.5C 624.031,540.574 625.364,536.574 626.5,532.5C 627.924,530.485 628.59,528.152 628.5,525.5C 628.171,519.794 628.505,514.128 629.5,508.5C 631.853,510.523 634.186,512.523 636.5,514.5 Z"/></g>
<g><path style="opacity:1" fill="#d24043" d="M 642.5,524.5 C 643.167,524.833 643.833,525.167 644.5,525.5C 646.341,527.849 647.674,530.515 648.5,533.5C 648.5,534.167 648.5,534.833 648.5,535.5C 646.25,532.001 644.25,528.335 642.5,524.5 Z"/></g>
<g><path style="opacity:1" fill="#dedede" d="M 400.5,526.5 C 400.5,529.833 400.5,533.167 400.5,536.5C 402.099,536.232 403.432,536.566 404.5,537.5C 402.833,537.5 401.167,537.5 399.5,537.5C 399.185,533.629 399.518,529.962 400.5,526.5 Z"/></g>
<g><path style="opacity:1" fill="#d73b3e" d="M 628.5,525.5 C 628.59,528.152 627.924,530.485 626.5,532.5C 626.5,531.833 626.5,531.167 626.5,530.5C 626.5,529.833 626.5,529.167 626.5,528.5C 627.167,527.5 627.833,526.5 628.5,525.5 Z"/></g>
<g><path style="opacity:1" fill="#d4d3d4" d="M 467.5,526.5 C 468.479,529.625 468.813,532.958 468.5,536.5C 472.042,536.187 475.375,536.521 478.5,537.5C 474.833,537.5 471.167,537.5 467.5,537.5C 467.5,533.833 467.5,530.167 467.5,526.5 Z"/></g>
<g><path style="opacity:1" fill="#bd3e41" d="M 648.5,533.5 C 650.943,538.5 652.61,543.834 653.5,549.5C 652.5,547.5 651.5,545.5 650.5,543.5C 650.037,540.779 649.371,538.112 648.5,535.5C 648.5,534.833 648.5,534.167 648.5,533.5 Z"/></g>
<g><path style="opacity:1" fill="#fbfbfb" d="M 366.5,537.5 C 369.833,537.5 373.167,537.5 376.5,537.5C 376.5,541.167 376.5,544.833 376.5,548.5C 372.818,548.665 369.152,548.499 365.5,548C 366.456,544.606 366.789,541.106 366.5,537.5 Z"/></g>
<g><path style="opacity:1" fill="#fafafa" d="M 399.5,537.5 C 399.5,541.167 399.5,544.833 399.5,548.5C 395.833,548.5 392.167,548.5 388.5,548.5C 388.5,544.833 388.5,541.167 388.5,537.5C 392.167,537.5 395.833,537.5 399.5,537.5 Z"/></g>
<g><path style="opacity:1" fill="#d9d9d9" d="M 410.5,537.5 C 414.167,537.5 417.833,537.5 421.5,537.5C 421.5,537.833 421.5,538.167 421.5,538.5C 418.167,538.5 414.833,538.5 411.5,538.5C 411.5,541.833 411.5,545.167 411.5,548.5C 414.833,548.5 418.167,548.5 421.5,548.5C 418.038,549.482 414.371,549.815 410.5,549.5C 410.5,545.5 410.5,541.5 410.5,537.5 Z"/></g>
<g><path style="opacity:1" fill="#fefefe" d="M 421.5,538.5 C 421.5,541.833 421.5,545.167 421.5,548.5C 418.167,548.5 414.833,548.5 411.5,548.5C 411.5,545.167 411.5,541.833 411.5,538.5C 414.833,538.5 418.167,538.5 421.5,538.5 Z"/></g>
<g><path style="opacity:1" fill="#f8f8f8" d="M 444.5,537.5 C 444.5,541.5 444.5,545.5 444.5,549.5C 440.935,548.534 437.435,548.534 434,549.5C 433.501,545.514 433.334,541.514 433.5,537.5C 437.167,537.5 440.833,537.5 444.5,537.5 Z"/></g>
<g><path style="opacity:1" fill="#fafafa" d="M 467.5,537.5 C 467.5,541.167 467.5,544.833 467.5,548.5C 463.833,548.5 460.167,548.5 456.5,548.5C 456.5,544.833 456.5,541.167 456.5,537.5C 460.167,537.5 463.833,537.5 467.5,537.5 Z"/></g>
<g><path style="opacity:1" fill="#f9f9f9" d="M 512.5,537.5 C 515.833,537.5 519.167,537.5 522.5,537.5C 522.5,541.5 522.5,545.5 522.5,549.5C 526.167,549.5 529.833,549.5 533.5,549.5C 533.666,556.841 533.5,564.174 533,571.5C 529.667,572.833 526.333,572.833 523,571.5C 522.501,567.848 522.335,564.182 522.5,560.5C 519.437,559.799 516.27,559.132 513,558.5C 512.5,551.508 512.334,544.508 512.5,537.5 Z"/></g>
<g><path style="opacity:1" fill="#f7f7f7" d="M 533.5,537.5 C 540.833,537.5 548.167,537.5 555.5,537.5C 555.5,541.167 555.5,544.833 555.5,548.5C 548.468,548.83 541.468,548.497 534.5,547.5C 533.583,544.242 533.249,540.909 533.5,537.5 Z"/></g>
<g><path style="opacity:1" fill="#f6f6f6" d="M 566.5,537.5 C 570.167,537.5 573.833,537.5 577.5,537.5C 577.5,541.167 577.5,544.833 577.5,548.5C 573.833,548.5 570.167,548.5 566.5,548.5C 566.5,544.833 566.5,541.167 566.5,537.5 Z"/></g>
<g><path style="opacity:1" fill="#c63d3f" d="M 626.5,530.5 C 626.5,531.167 626.5,531.833 626.5,532.5C 625.364,536.574 624.031,540.574 622.5,544.5C 622.5,544.833 622.5,545.167 622.5,545.5C 621.607,547.297 620.274,548.63 618.5,549.5C 621.186,543.09 623.853,536.757 626.5,530.5 Z"/></g>
<g><path style="opacity:1" fill="#fcfcfc" d="M 468.5,549.5 C 471.833,549.5 475.167,549.5 478.5,549.5C 478.815,553.371 478.482,557.038 477.5,560.5C 474.713,559.523 471.713,559.19 468.5,559.5C 468.5,556.167 468.5,552.833 468.5,549.5 Z"/></g>
<g><path style="opacity:1" fill="#fdfdfd" d="M 599.5,557.5 C 592.913,559.461 585.913,560.128 578.5,559.5C 578.5,556.167 578.5,552.833 578.5,549.5C 585.5,549.5 592.5,549.5 599.5,549.5C 599.5,552.167 599.5,554.833 599.5,557.5 Z"/></g>
<g><path style="opacity:1" fill="#e1e1e1" d="M 511.5,537.5 C 511.833,537.5 512.167,537.5 512.5,537.5C 512.334,544.508 512.5,551.508 513,558.5C 516.27,559.132 519.437,559.799 522.5,560.5C 518.833,560.5 515.167,560.5 511.5,560.5C 511.5,552.833 511.5,545.167 511.5,537.5 Z"/></g>
<g><path style="opacity:1" fill="#b6393d" d="M 618.5,549.5 C 618.573,551.027 617.906,552.027 616.5,552.5C 616.427,550.973 617.094,549.973 618.5,549.5 Z"/></g>
<g><path style="opacity:1" fill="#b73839" d="M 616.5,552.5 C 615.758,554.98 614.758,557.313 613.5,559.5C 612.167,560.5 610.833,561.5 609.5,562.5C 611.344,558.808 613.677,555.475 616.5,552.5 Z"/></g>
<g><path style="opacity:1" fill="#f03034" d="M 622.5,545.5 C 621.514,549.321 619.848,552.821 617.5,556C 617.833,556.333 618.167,556.667 618.5,557C 617.22,558.966 615.553,560.466 613.5,561.5C 613.5,560.833 613.5,560.167 613.5,559.5C 614.758,557.313 615.758,554.98 616.5,552.5C 617.906,552.027 618.573,551.027 618.5,549.5C 620.274,548.63 621.607,547.297 622.5,545.5 Z"/></g>
<g><path style="opacity:1" fill="#e14042" d="M 650.5,543.5 C 651.5,545.5 652.5,547.5 653.5,549.5C 653.5,550.167 653.5,550.833 653.5,551.5C 653.822,557.358 653.489,563.025 652.5,568.5C 652.902,560.048 652.235,551.715 650.5,543.5 Z"/></g>
<g><path style="opacity:1" fill="#dadada" d="M 468.5,549.5 C 468.5,552.833 468.5,556.167 468.5,559.5C 471.713,559.19 474.713,559.523 477.5,560.5C 474.167,560.5 470.833,560.5 467.5,560.5C 467.185,556.629 467.518,552.962 468.5,549.5 Z"/></g>
<g><path style="opacity:1" fill="#dbdcdc" d="M 599.5,557.5 C 600.404,558.209 600.737,559.209 600.5,560.5C 592.981,560.825 585.648,560.492 578.5,559.5C 585.913,560.128 592.913,559.461 599.5,557.5 Z"/></g>
<g><path style="opacity:1" fill="#fdfdfd" d="M 467.5,561.5 C 467.5,564.833 467.5,568.167 467.5,571.5C 464.167,571.5 460.833,571.5 457.5,571.5C 457.5,568.167 457.5,564.833 457.5,561.5C 460.833,561.5 464.167,561.5 467.5,561.5 Z"/></g>
<g><path style="opacity:1" fill="#fcfcfc" d="M 511.5,561.5 C 511.813,565.042 511.479,568.375 510.5,571.5C 507.5,571.5 504.5,571.5 501.5,571.5C 501.5,568.167 501.5,564.833 501.5,561.5C 504.833,561.5 508.167,561.5 511.5,561.5 Z"/></g>
<g><path style="opacity:1" fill="#dddddd" d="M 566.5,561.5 C 559.5,561.5 552.5,561.5 545.5,561.5C 545.81,564.713 545.477,567.713 544.5,570.5C 544.5,567.167 544.5,563.833 544.5,560.5C 552.019,560.175 559.352,560.508 566.5,561.5 Z"/></g>
<g><path style="opacity:1" fill="#fcfcfc" d="M 566.5,561.5 C 566.5,565.167 566.5,568.833 566.5,572.5C 569.187,572.336 571.854,572.503 574.5,573C 571.974,576.026 569.64,579.193 567.5,582.5C 563.555,583.491 559.555,583.824 555.5,583.5C 555.665,579.818 555.499,576.152 555,572.5C 552.56,571.344 550.06,571.344 547.5,572.5C 545.962,572.547 544.962,571.88 544.5,570.5C 545.477,567.713 545.81,564.713 545.5,561.5C 552.5,561.5 559.5,561.5 566.5,561.5 Z"/></g>
<g><path style="opacity:1" fill="#dcdcdc" d="M 467.5,560.5 C 467.5,560.833 467.5,561.167 467.5,561.5C 464.167,561.5 460.833,561.5 457.5,561.5C 457.5,564.833 457.5,568.167 457.5,571.5C 460.833,571.5 464.167,571.5 467.5,571.5C 467.5,571.833 467.5,572.167 467.5,572.5C 463.833,572.5 460.167,572.5 456.5,572.5C 456.5,568.5 456.5,564.5 456.5,560.5C 460.167,560.5 463.833,560.5 467.5,560.5 Z"/></g>
<g><path style="opacity:1" fill="#d7d7d7" d="M 500.5,560.5 C 504.167,560.5 507.833,560.5 511.5,560.5C 511.5,560.833 511.5,561.167 511.5,561.5C 508.167,561.5 504.833,561.5 501.5,561.5C 501.5,564.833 501.5,568.167 501.5,571.5C 504.5,571.5 507.5,571.5 510.5,571.5C 507.375,572.479 504.042,572.813 500.5,572.5C 500.5,568.5 500.5,564.5 500.5,560.5 Z"/></g>
<g><path style="opacity:1" fill="#fafafa" d="M 368.5,562.5 C 393.169,562.333 417.836,562.5 442.5,563C 443.333,563.833 444.167,564.667 445,565.5C 445.667,590.5 445.667,615.5 445,640.5C 444.626,641.416 444.126,642.25 443.5,643C 419.254,644.647 394.921,644.98 370.5,644C 368.671,643.727 367.171,642.893 366,641.5C 365.333,616.167 365.333,590.833 366,565.5C 366.698,564.309 367.531,563.309 368.5,562.5 Z M 434.5,574.5 C 434.821,594.243 434.487,613.909 433.5,633.5C 414.497,633.667 395.497,633.5 376.5,633C 375.839,623.241 375.506,613.408 375.5,603.5C 375.506,593.592 375.839,583.759 376.5,574C 396.004,573.171 415.338,573.338 434.5,574.5 Z"/></g>
<g><path style="opacity:1" fill="#bf3e41" d="M 609.5,562.5 C 609.573,564.027 608.906,565.027 607.5,565.5C 607.427,563.973 608.094,562.973 609.5,562.5 Z"/></g>
<g><path style="opacity:1" fill="#ee383d" d="M 613.5,559.5 C 613.5,560.167 613.5,560.833 613.5,561.5C 611.896,566.009 608.896,569.342 604.5,571.5C 604.5,570.833 604.5,570.167 604.5,569.5C 606.262,568.738 607.262,567.404 607.5,565.5C 608.906,565.027 609.573,564.027 609.5,562.5C 610.833,561.5 612.167,560.5 613.5,559.5 Z"/></g>
<g><path style="opacity:1" fill="#f33437" d="M 640.5,521.5 C 641.167,521.833 641.833,522.167 642.5,522.5C 642.5,523.167 642.5,523.833 642.5,524.5C 644.25,528.335 646.25,532.001 648.5,535.5C 649.371,538.112 650.037,540.779 650.5,543.5C 652.235,551.715 652.902,560.048 652.5,568.5C 652.81,571.713 652.477,574.713 651.5,577.5C 650.184,580.408 649.184,583.408 648.5,586.5C 648.223,583.552 648.556,580.719 649.5,578C 648.833,577.667 648.167,577.333 647.5,577C 648.905,575.023 649.905,572.857 650.5,570.5C 650.448,563.57 650.281,556.57 650,549.5C 648.674,541.212 645.674,533.545 641,526.5C 640.506,524.866 640.34,523.199 640.5,521.5 Z"/></g>
<g><path style="opacity:1" fill="#bb3c3f" d="M 607.5,565.5 C 607.262,567.404 606.262,568.738 604.5,569.5C 604.738,567.596 605.738,566.262 607.5,565.5 Z"/></g>
<g><path style="opacity:1" fill="#c74042" d="M 653.5,551.5 C 654.656,558.989 654.822,566.655 654,574.5C 653.689,578.09 652.856,581.423 651.5,584.5C 651.5,582.167 651.5,579.833 651.5,577.5C 652.477,574.713 652.81,571.713 652.5,568.5C 653.489,563.025 653.822,557.358 653.5,551.5 Z"/></g>
<g><path style="opacity:1" fill="#b33b3d" d="M 604.5,569.5 C 604.5,570.167 604.5,570.833 604.5,571.5C 603.833,571.833 603.167,572.167 602.5,572.5C 602.427,570.973 603.094,569.973 604.5,569.5 Z"/></g>
<g><path style="opacity:1" fill="#bc3c3f" d="M 668.5,570.5 C 670.587,571.585 671.92,573.251 672.5,575.5C 670.833,574.5 669.5,573.167 668.5,571.5C 668.5,571.167 668.5,570.833 668.5,570.5 Z"/></g>
<g><path style="opacity:1" fill="#f7f8f7" d="M 467.5,572.5 C 471.167,572.5 474.833,572.5 478.5,572.5C 478.5,580.167 478.5,587.833 478.5,595.5C 482.167,595.5 485.833,595.5 489.5,595.5C 489.5,599.167 489.5,602.833 489.5,606.5C 493.167,606.5 496.833,606.5 500.5,606.5C 500.5,610.5 500.5,614.5 500.5,618.5C 493.5,618.5 486.5,618.5 479.5,618.5C 478.838,614.534 478.505,610.534 478.5,606.5C 474.833,606.5 471.167,606.5 467.5,606.5C 467.5,602.5 467.5,598.5 467.5,594.5C 463.833,594.5 460.167,594.5 456.5,594.5C 456.335,591.15 456.502,587.817 457,584.5C 460.394,583.544 463.894,583.211 467.5,583.5C 467.5,579.833 467.5,576.167 467.5,572.5 Z"/></g>
<g><path style="opacity:1" fill="#f9f9f9" d="M 500.5,572.5 C 500.5,576.167 500.5,579.833 500.5,583.5C 504.167,583.5 507.833,583.5 511.5,583.5C 511.5,579.833 511.5,576.167 511.5,572.5C 515.167,572.5 518.833,572.5 522.5,572.5C 522.5,579.833 522.5,587.167 522.5,594.5C 518.833,594.5 515.167,594.5 511.5,594.5C 511.5,598.5 511.5,602.5 511.5,606.5C 507.833,606.5 504.167,606.5 500.5,606.5C 500.5,602.5 500.5,598.5 500.5,594.5C 497.167,594.5 493.833,594.5 490.5,594.5C 490.683,587.132 490.35,579.799 489.5,572.5C 493.167,572.5 496.833,572.5 500.5,572.5 Z"/></g>
<g><path style="opacity:1" fill="#fcfcfc" d="M 544.5,583.5 C 547.625,584.479 550.958,584.813 554.5,584.5C 554.5,587.833 554.5,591.167 554.5,594.5C 547.5,594.5 540.5,594.5 533.5,594.5C 533.5,587.167 533.5,579.833 533.5,572.5C 537.167,572.5 540.833,572.5 544.5,572.5C 544.5,576.167 544.5,579.833 544.5,583.5 Z"/></g>
<g><path style="opacity:1" fill="#d63b3d" d="M 604.5,571.5 C 603.89,573.434 602.89,575.101 601.5,576.5C 601.5,575.833 601.5,575.167 601.5,574.5C 601.328,573.508 601.662,572.842 602.5,572.5C 603.167,572.167 603.833,571.833 604.5,571.5 Z"/></g>
<g><path style="opacity:1" fill="#e73337" d="M 668.5,571.5 C 669.5,573.167 670.833,574.5 672.5,575.5C 672.427,577.027 673.094,578.027 674.5,578.5C 674.5,579.167 674.5,579.833 674.5,580.5C 674.5,581.167 674.5,581.833 674.5,582.5C 672.178,581.198 670.845,579.198 670.5,576.5C 670.189,575.522 669.522,574.855 668.5,574.5C 667.833,577.642 667.166,580.642 666.5,583.5C 665.911,579.029 666.577,575.029 668.5,571.5 Z"/></g>
<g><path style="opacity:1" fill="#b73d40" d="M 601.5,574.5 C 601.5,575.167 601.5,575.833 601.5,576.5C 600.833,576.833 600.167,577.167 599.5,577.5C 599.427,575.973 600.094,574.973 601.5,574.5 Z"/></g>
<g><path style="opacity:1" fill="#ba3d41" d="M 672.5,575.5 C 673.906,575.973 674.573,576.973 674.5,578.5C 673.094,578.027 672.427,577.027 672.5,575.5 Z"/></g>
<g><path style="opacity:1" fill="#a3393b" d="M 668.5,570.5 C 667.85,570.196 667.183,569.863 666.5,569.5C 665.506,574.456 665.173,579.456 665.5,584.5C 665.167,584.5 664.833,584.5 664.5,584.5C 664.334,578.491 664.501,572.491 665,566.5C 667.071,567.103 668.238,568.436 668.5,570.5 Z"/></g>
<g><path style="opacity:1" fill="#cd4140" d="M 601.5,576.5 C 598.67,581.161 596.67,586.161 595.5,591.5C 595.167,591.5 594.833,591.5 594.5,591.5C 594.999,586.331 596.666,581.664 599.5,577.5C 600.167,577.167 600.833,576.833 601.5,576.5 Z"/></g>
<g><path style="opacity:1" fill="#d43d41" d="M 668.5,570.5 C 668.5,570.833 668.5,571.167 668.5,571.5C 666.577,575.029 665.911,579.029 666.5,583.5C 666.5,584.167 666.167,584.5 665.5,584.5C 665.173,579.456 665.506,574.456 666.5,569.5C 667.183,569.863 667.85,570.196 668.5,570.5 Z"/></g>
<g><path style="opacity:1" fill="#ba4143" d="M 674.5,578.5 C 675.906,578.973 676.573,579.973 676.5,581.5C 675.833,581.167 675.167,580.833 674.5,580.5C 674.5,579.833 674.5,579.167 674.5,578.5 Z"/></g>
<g><path style="opacity:1" fill="#b74647" d="M 583.5,587.5 C 582.837,585.958 582.17,584.291 581.5,582.5C 580.482,583.193 579.482,583.859 578.5,584.5C 583.075,576.4 584.742,577.4 583.5,587.5 Z"/></g>
<g><path style="opacity:1" fill="#e5383b" d="M 651.5,577.5 C 651.5,579.833 651.5,582.167 651.5,584.5C 649.518,587.373 649.185,590.373 650.5,593.5C 650.5,593.833 650.5,594.167 650.5,594.5C 650.511,596.017 651.177,597.184 652.5,598C 654.81,598.497 657.143,598.663 659.5,598.5C 656.204,600.027 653.038,599.693 650,597.5C 648.663,593.974 648.163,590.308 648.5,586.5C 649.184,583.408 650.184,580.408 651.5,577.5 Z"/></g>
<g><path style="opacity:1" fill="#d6d6d6" d="M 544.5,583.5 C 548.167,583.5 551.833,583.5 555.5,583.5C 555.815,587.371 555.482,591.038 554.5,594.5C 554.5,591.167 554.5,587.833 554.5,584.5C 550.958,584.813 547.625,584.479 544.5,583.5 Z"/></g>
<g><path style="opacity:1" fill="#fefefd" d="M 386.5,584.5 C 398.833,584.5 411.167,584.5 423.5,584.5C 423.5,597.167 423.5,609.833 423.5,622.5C 411.167,622.5 398.833,622.5 386.5,622.5C 386.5,609.833 386.5,597.167 386.5,584.5 Z"/></g>
<g><path style="opacity:1" fill="#f23336" d="M 670.5,576.5 C 669.235,577.514 668.569,579.014 668.5,581C 669.517,584.986 669.517,588.819 668.5,592.5C 665.487,594.518 662.487,596.518 659.5,598.5C 663.601,594.796 665.601,590.13 665.5,584.5C 666.167,584.5 666.5,584.167 666.5,583.5C 667.166,580.642 667.833,577.642 668.5,574.5C 669.522,574.855 670.189,575.522 670.5,576.5 Z"/></g>
<g><path style="opacity:1" fill="#c23c3e" d="M 674.5,580.5 C 675.167,580.833 675.833,581.167 676.5,581.5C 687.281,598.866 690.947,617.532 687.5,637.5C 687.825,629.981 687.492,622.648 686.5,615.5C 685.647,603.269 681.647,592.269 674.5,582.5C 674.5,581.833 674.5,581.167 674.5,580.5 Z"/></g>
<g><path style="opacity:1" fill="#bb4043" d="M 578.5,584.5 C 578.5,585.167 578.5,585.833 578.5,586.5C 577.833,586.833 577.167,587.167 576.5,587.5C 576.427,585.973 577.094,584.973 578.5,584.5 Z"/></g>
<g><path style="opacity:1" fill="#e1393d" d="M 583.5,587.5 C 584.301,589.042 584.634,590.708 584.5,592.5C 584.5,593.833 584.5,595.167 584.5,596.5C 583.351,596.209 582.684,595.376 582.5,594C 581.841,591.538 581.507,589.038 581.5,586.5C 580.5,586.5 579.5,586.5 578.5,586.5C 578.5,585.833 578.5,585.167 578.5,584.5C 579.482,583.859 580.482,583.193 581.5,582.5C 582.17,584.291 582.837,585.958 583.5,587.5 Z"/></g>
<g><path style="opacity:1" fill="#bd3e40" d="M 651.5,584.5 C 651.037,587.482 650.704,590.482 650.5,593.5C 649.185,590.373 649.518,587.373 651.5,584.5 Z"/></g>
<g><path style="opacity:1" fill="#d9dada" d="M 434.5,574.5 C 435.166,584.161 435.5,593.994 435.5,604C 435.499,614.19 434.832,624.023 433.5,633.5C 434.487,613.909 434.821,594.243 434.5,574.5 Z"/></g>
<g><path style="opacity:1" fill="#d64543" d="M 578.5,586.5 C 576.75,590.335 574.75,594.001 572.5,597.5C 572.5,596.833 572.5,596.167 572.5,595.5C 573.326,592.515 574.659,589.849 576.5,587.5C 577.167,587.167 577.833,586.833 578.5,586.5 Z"/></g>
<g><path style="opacity:1" fill="#f7f7f7" d="M 555.5,595.5 C 557.199,595.34 558.866,595.506 560.5,596C 557.037,609.974 555.37,609.808 555.5,595.5 Z"/></g>
<g><path style="opacity:1" fill="#c03b3e" d="M 664.5,584.5 C 664.833,584.5 665.167,584.5 665.5,584.5C 665.601,590.13 663.601,594.796 659.5,598.5C 657.143,598.663 654.81,598.497 652.5,598C 651.177,597.184 650.511,596.017 650.5,594.5C 656.374,599.28 660.54,597.946 663,590.5C 663.505,588.482 664.005,586.482 664.5,584.5 Z"/></g>
<g><path style="opacity:1" fill="#bf3f40" d="M 572.5,595.5 C 572.5,596.167 572.5,596.833 572.5,597.5C 572.167,598.833 571.833,600.167 571.5,601.5C 570.5,603.5 569.5,605.5 568.5,607.5C 568.861,603.085 570.194,599.085 572.5,595.5 Z"/></g>
<g><path style="opacity:1" fill="#bd383a" d="M 594.5,591.5 C 594.666,596.179 594.499,600.845 594,605.5C 593.023,606.774 592.189,606.774 591.5,605.5C 592.337,600.804 593.337,596.137 594.5,591.5 Z"/></g>
<g><path style="opacity:1" fill="#f33439" d="M 626.5,600.5 C 626.167,600.5 625.833,600.5 625.5,600.5C 622.122,599.891 620.122,601.224 619.5,604.5C 618.5,604.5 617.5,604.5 616.5,604.5C 616.771,606.38 616.104,607.713 614.5,608.5C 614.579,607.07 614.246,605.736 613.5,604.5C 614.729,603.719 616.062,603.219 617.5,603C 619.95,598.664 622.95,597.831 626.5,600.5 Z"/></g>
<g><path style="opacity:1" fill="#c43b3f" d="M 584.5,592.5 C 586.481,596.461 588.481,600.461 590.5,604.5C 589.833,604.167 589.167,603.833 588.5,603.5C 586.917,601.337 585.584,599.004 584.5,596.5C 584.5,595.167 584.5,593.833 584.5,592.5 Z"/></g>
<g><path style="opacity:1" fill="#cbcbcb" d="M 386.5,584.5 C 398.989,583.505 411.656,583.171 424.5,583.5C 424.829,596.677 424.495,609.677 423.5,622.5C 423.5,609.833 423.5,597.167 423.5,584.5C 411.167,584.5 398.833,584.5 386.5,584.5 Z"/></g>
<g><path style="opacity:1" fill="#ea373b" d="M 594.5,591.5 C 594.833,591.5 595.167,591.5 595.5,591.5C 595.666,596.511 595.499,601.511 595,606.5C 591.552,608.264 589.385,607.264 588.5,603.5C 589.167,603.833 589.833,604.167 590.5,604.5C 591.167,604.5 591.5,604.833 591.5,605.5C 592.189,606.774 593.023,606.774 594,605.5C 594.499,600.845 594.666,596.179 594.5,591.5 Z"/></g>
<g><path style="opacity:1" fill="#d1393b" d="M 625.5,600.5 C 625.5,604.5 625.5,608.5 625.5,612.5C 624.523,609.713 624.19,606.713 624.5,603.5C 624.631,602.761 624.464,602.094 624,601.5C 622.729,602.883 621.229,603.883 619.5,604.5C 620.122,601.224 622.122,599.891 625.5,600.5 Z"/></g>
<g><path style="opacity:1" fill="#e6383b" d="M 625.5,600.5 C 625.833,600.5 626.167,600.5 626.5,600.5C 626.334,604.846 626.501,609.179 627,613.5C 628.489,617.148 629.989,620.815 631.5,624.5C 630.833,624.5 630.167,624.5 629.5,624.5C 629.5,624.167 629.5,623.833 629.5,623.5C 627.386,620.161 626.053,616.495 625.5,612.5C 625.5,608.5 625.5,604.5 625.5,600.5 Z"/></g>
<g><path style="opacity:1" fill="#fafafa" d="M 456.5,607.5 C 460.167,607.5 463.833,607.5 467.5,607.5C 467.5,611.167 467.5,614.833 467.5,618.5C 471.167,618.5 474.833,618.5 478.5,618.5C 478.5,622.167 478.5,625.833 478.5,629.5C 474.833,629.5 471.167,629.5 467.5,629.5C 467.5,633.5 467.5,637.5 467.5,641.5C 463.833,641.5 460.167,641.5 456.5,641.5C 456.5,630.167 456.5,618.833 456.5,607.5 Z"/></g>
<g><path style="opacity:1" fill="#f9f9f9" d="M 519.5,606.5 C 520.496,606.414 521.329,606.748 522,607.5C 522.499,611.152 522.665,614.818 522.5,618.5C 526.167,618.5 529.833,618.5 533.5,618.5C 533.5,626.167 533.5,633.833 533.5,641.5C 529.833,641.5 526.167,641.5 522.5,641.5C 522.5,637.5 522.5,633.5 522.5,629.5C 518.833,629.5 515.167,629.5 511.5,629.5C 511.5,622.167 511.5,614.833 511.5,607.5C 514.385,607.806 517.052,607.473 519.5,606.5 Z"/></g>
<g><path style="opacity:1" fill="#f3f3f3" d="M 534.5,606.5 C 541.366,607.127 548.033,607.293 554.5,607C 555.622,610.409 555.789,613.909 555,617.5C 548.248,618.645 541.414,618.811 534.5,618C 533.2,614.168 533.2,610.334 534.5,606.5 Z"/></g>
<g><path style="opacity:1" fill="#e43a41" d="M 347.5,650.5 C 346.505,638.011 346.171,625.344 346.5,612.5C 342.167,612.5 337.833,612.5 333.5,612.5C 333.5,626.833 333.5,641.167 333.5,655.5C 332.566,654.432 332.232,653.099 332.5,651.5C 332.5,638.167 332.5,624.833 332.5,611.5C 337.5,611.5 342.5,611.5 347.5,611.5C 347.5,624.5 347.5,637.5 347.5,650.5 Z"/></g>
<g><path style="opacity:1" fill="#f13238" d="M 614.5,608.5 C 612.378,612.65 610.712,616.983 609.5,621.5C 609.167,621.5 608.833,621.5 608.5,621.5C 608.938,617.928 609.604,614.428 610.5,611C 610.167,610.667 609.833,610.333 609.5,610C 611.154,609.392 612.821,608.892 614.5,608.5 Z"/></g>
<g><path style="opacity:1" fill="#c03c3f" d="M 619.5,604.5 C 612.7,612.906 609.7,622.573 610.5,633.5C 609.517,629.702 609.183,625.702 609.5,621.5C 610.712,616.983 612.378,612.65 614.5,608.5C 616.104,607.713 616.771,606.38 616.5,604.5C 617.5,604.5 618.5,604.5 619.5,604.5 Z"/></g>
<g><path style="opacity:1" fill="#f23337" d="M 674.5,582.5 C 681.647,592.269 685.647,603.269 686.5,615.5C 686.819,620.363 686.486,625.03 685.5,629.5C 685.151,623.16 684.651,616.827 684,610.5C 683.044,609.421 682.211,608.255 681.5,607C 682.379,599.824 680.046,593.324 674.5,587.5C 675.535,585.872 675.535,584.205 674.5,582.5 Z"/></g>
<g><path style="opacity:1" fill="#f0343d" d="M 347.5,650.5 C 347.989,651.995 348.655,653.329 349.5,654.5C 350.338,654.842 350.672,655.508 350.5,656.5C 351.415,658.754 352.748,660.754 354.5,662.5C 353.07,662.579 351.736,662.246 350.5,661.5C 350.032,657.91 348.532,654.91 346,652.5C 345.721,644.316 345.221,636.149 344.5,628C 345.574,623.695 345.407,619.195 344,614.5C 340.943,613.549 337.777,613.216 334.5,613.5C 334.082,628.883 334.582,644.216 336,659.5C 338.715,662.057 340.882,665.057 342.5,668.5C 345.916,671.212 349.249,673.879 352.5,676.5C 351.5,676.5 350.5,676.5 349.5,676.5C 348.609,675.89 347.609,675.557 346.5,675.5C 346.027,674.094 345.027,673.427 343.5,673.5C 342.73,671.065 341.063,669.731 338.5,669.5C 338.5,669.167 338.5,668.833 338.5,668.5C 338.539,665.911 337.539,663.911 335.5,662.5C 334.434,660.299 333.767,657.965 333.5,655.5C 333.5,641.167 333.5,626.833 333.5,612.5C 337.833,612.5 342.167,612.5 346.5,612.5C 346.171,625.344 346.505,638.011 347.5,650.5 Z"/></g>
<g><path style="opacity:1" fill="#b63c3d" d="M 624.5,603.5 C 624.19,606.713 624.523,609.713 625.5,612.5C 626.053,616.495 627.386,620.161 629.5,623.5C 624.125,617.716 622.458,611.05 624.5,603.5 Z"/></g>
<g><path style="opacity:1" fill="#cf4446" d="M 568.5,607.5 C 568.802,611.79 568.136,615.79 566.5,619.5C 566.5,618.5 566.5,617.5 566.5,616.5C 566.42,613.219 567.087,610.219 568.5,607.5 Z"/></g>
<g><path style="opacity:1" fill="#e73c3f" d="M 686.5,615.5 C 687.492,622.648 687.825,629.981 687.5,637.5C 687.5,637.833 687.5,638.167 687.5,638.5C 686.076,640.515 685.41,642.848 685.5,645.5C 684.833,646.167 684.167,646.833 683.5,647.5C 684.819,641.581 685.486,635.581 685.5,629.5C 686.486,625.03 686.819,620.363 686.5,615.5 Z"/></g>
<g><path style="opacity:1" fill="#fcfcfb" d="M 489.5,630.5 C 493.167,630.5 496.833,630.5 500.5,630.5C 500.5,634.167 500.5,637.833 500.5,641.5C 496.833,641.5 493.167,641.5 489.5,641.5C 489.5,637.833 489.5,634.167 489.5,630.5 Z"/></g>
<g><path style="opacity:1" fill="#f7f7f7" d="M 545.5,629.5 C 548.5,629.5 551.5,629.5 554.5,629.5C 554.234,633.571 554.567,637.571 555.5,641.5C 551.833,642.833 548.167,642.833 544.5,641.5C 545.374,637.356 545.707,633.356 545.5,629.5 Z"/></g>
<g><path style="opacity:1" fill="#f13539" d="M 626.5,600.5 C 627.222,605.711 628.055,611.044 629,616.5C 632.394,620.898 635.394,625.565 638,630.5C 641.71,630.823 645.543,630.823 649.5,630.5C 651.915,634.047 653.581,638.047 654.5,642.5C 653.833,642.167 653.167,641.833 652.5,641.5C 652.116,637.728 650.45,634.728 647.5,632.5C 646.399,631.402 645.066,631.235 643.5,632C 642.88,634.473 642.214,636.973 641.5,639.5C 640.817,639.137 640.15,638.804 639.5,638.5C 637.871,633.242 635.204,628.575 631.5,624.5C 629.989,620.815 628.489,617.148 627,613.5C 626.501,609.179 626.334,604.846 626.5,600.5 Z"/></g>
<g><path style="opacity:1" fill="#b63a3c" d="M 629.5,624.5 C 630.167,624.5 630.833,624.5 631.5,624.5C 635.204,628.575 637.871,633.242 639.5,638.5C 639.5,639.833 639.5,641.167 639.5,642.5C 637.752,635.675 634.419,629.675 629.5,624.5 Z"/></g>
<g><path style="opacity:1" fill="#d23c41" d="M 608.5,621.5 C 608.833,621.5 609.167,621.5 609.5,621.5C 609.183,625.702 609.517,629.702 610.5,633.5C 610.5,633.833 610.5,634.167 610.5,634.5C 610.808,636.924 610.474,639.257 609.5,641.5C 608.818,640.757 608.151,640.091 607.5,639.5C 607.098,636.523 606.098,633.857 604.5,631.5C 604.167,631.5 603.833,631.5 603.5,631.5C 604.878,630.766 606.378,630.099 608,629.5C 608.497,626.854 608.664,624.187 608.5,621.5 Z"/></g>
<g><path style="opacity:1" fill="#f13439" d="M 608.5,621.5 C 608.664,624.187 608.497,626.854 608,629.5C 606.378,630.099 604.878,630.766 603.5,631.5C 599.877,635.075 597.544,639.408 596.5,644.5C 595.833,644.5 595.167,644.5 594.5,644.5C 596.544,640.053 598.378,635.386 600,630.5C 604.108,628.563 606.941,625.563 608.5,621.5 Z"/></g>
<g><path style="opacity:1" fill="#dd3f41" d="M 647.5,632.5 C 646.833,632.5 646.167,632.5 645.5,632.5C 644.833,632.5 644.5,632.833 644.5,633.5C 643.566,636.656 642.899,639.989 642.5,643.5C 641.5,643.5 640.5,643.5 639.5,643.5C 639.5,643.167 639.5,642.833 639.5,642.5C 639.5,641.167 639.5,639.833 639.5,638.5C 640.15,638.804 640.817,639.137 641.5,639.5C 642.214,636.973 642.88,634.473 643.5,632C 645.066,631.235 646.399,631.402 647.5,632.5 Z"/></g>
<g><path style="opacity:1" fill="#cd4043" d="M 645.5,632.5 C 646.167,632.5 646.833,632.5 647.5,632.5C 650.45,634.728 652.116,637.728 652.5,641.5C 650.42,638.358 648.086,635.358 645.5,632.5 Z"/></g>
<g><path style="opacity:1" fill="#c54146" d="M 349.5,654.5 C 348.655,653.329 347.989,651.995 347.5,650.5C 347.5,637.5 347.5,624.5 347.5,611.5C 342.5,611.5 337.5,611.5 332.5,611.5C 332.5,624.833 332.5,638.167 332.5,651.5C 332.167,651.5 331.833,651.5 331.5,651.5C 331.333,637.829 331.5,624.163 332,610.5C 337.853,610.206 343.353,610.206 348.5,610.5C 348.234,625.196 348.567,639.862 349.5,654.5 Z"/></g>
<g><path style="opacity:1" fill="#ba3943" d="M 610.5,634.5 C 611.451,635.919 611.784,637.585 611.5,639.5C 611.5,640.5 611.5,641.5 611.5,642.5C 610.5,642.5 609.5,642.5 608.5,642.5C 607.596,641.791 607.263,640.791 607.5,639.5C 608.151,640.091 608.818,640.757 609.5,641.5C 610.474,639.257 610.808,636.924 610.5,634.5 Z"/></g>
<g><path style="opacity:1" fill="#bb4345" d="M 644.5,633.5 C 644.809,637.705 644.143,641.705 642.5,645.5C 641.5,645.5 640.5,645.5 639.5,645.5C 639.5,644.833 639.5,644.167 639.5,643.5C 640.5,643.5 641.5,643.5 642.5,643.5C 642.899,639.989 643.566,636.656 644.5,633.5 Z"/></g>
<g><path style="opacity:1" fill="#a23f49" d="M 611.5,639.5 C 612.853,641.515 612.353,643.182 610,644.5C 609.283,643.956 608.783,643.289 608.5,642.5C 609.5,642.5 610.5,642.5 611.5,642.5C 611.5,641.5 611.5,640.5 611.5,639.5 Z"/></g>
<g><path style="opacity:1" fill="#b53d3f" d="M 687.5,638.5 C 687.59,641.152 686.924,643.485 685.5,645.5C 685.41,642.848 686.076,640.515 687.5,638.5 Z"/></g>
<g><path style="opacity:1" fill="#e63a3c" d="M 594.5,644.5 C 595.167,644.5 595.833,644.5 596.5,644.5C 594.676,650.988 594.009,657.654 594.5,664.5C 594.5,665.5 594.5,666.5 594.5,667.5C 592.054,659.956 592.054,652.29 594.5,644.5 Z"/></g>
<g><path style="opacity:1" fill="#a14b4d" d="M 639.5,645.5 C 640.5,645.5 641.5,645.5 642.5,645.5C 641.089,649.297 640.089,649.297 639.5,645.5 Z"/></g>
<g><path style="opacity:1" fill="#b93b3c" d="M 603.5,631.5 C 603.833,631.5 604.167,631.5 604.5,631.5C 597.642,641.414 594.642,652.414 595.5,664.5C 595.167,664.5 594.833,664.5 594.5,664.5C 594.009,657.654 594.676,650.988 596.5,644.5C 597.544,639.408 599.877,635.075 603.5,631.5 Z"/></g>
<g><path style="opacity:1" fill="#b73f3e" d="M 652.5,641.5 C 653.167,641.833 653.833,642.167 654.5,642.5C 654.723,646.162 655.723,649.495 657.5,652.5C 657.819,657.363 657.486,662.03 656.5,666.5C 656.714,657.904 655.38,649.571 652.5,641.5 Z"/></g>
<g><path style="opacity:1" fill="#bb3e40" d="M 685.5,645.5 C 685.405,647.786 684.738,649.786 683.5,651.5C 683.5,650.167 683.5,648.833 683.5,647.5C 684.167,646.833 684.833,646.167 685.5,645.5 Z"/></g>
<g><path style="opacity:1" fill="#b83b3d" d="M 566.5,616.5 C 566.5,617.5 566.5,618.5 566.5,619.5C 564.874,641.229 571.874,659.562 587.5,674.5C 574.956,665.1 567.789,652.433 566,636.5C 565.179,629.654 565.346,622.987 566.5,616.5 Z"/></g>
<g><path style="opacity:1" fill="#bf3d3f" d="M 683.5,651.5 C 682.59,654.992 680.924,657.992 678.5,660.5C 679.455,658.254 680.122,655.921 680.5,653.5C 681.222,652.449 682.222,651.782 683.5,651.5 Z"/></g>
<g><path style="opacity:1" fill="#b53b40" d="M 331.5,651.5 C 331.833,651.5 332.167,651.5 332.5,651.5C 332.232,653.099 332.566,654.432 333.5,655.5C 333.767,657.965 334.434,660.299 335.5,662.5C 335.5,663.167 335.5,663.833 335.5,664.5C 332.987,660.622 331.654,656.289 331.5,651.5 Z"/></g>
<g><path style="opacity:1" fill="#cb3c40" d="M 350.5,656.5 C 353.085,659.752 356.418,661.752 360.5,662.5C 373.833,663.167 387.167,663.833 400.5,664.5C 386.163,664.667 371.829,664.5 357.5,664C 356.756,662.961 355.756,662.461 354.5,662.5C 352.748,660.754 351.415,658.754 350.5,656.5 Z"/></g>
<g><path style="opacity:1" fill="#ec373a" d="M 571.5,601.5 C 570.269,611.016 569.269,620.35 568.5,629.5C 568.502,634.556 569.002,639.556 570,644.5C 571.868,649.156 574.035,653.823 576.5,658.5C 581.303,663.434 585.637,668.767 589.5,674.5C 588.833,674.5 588.167,674.5 587.5,674.5C 571.874,659.562 564.874,641.229 566.5,619.5C 568.136,615.79 568.802,611.79 568.5,607.5C 569.5,605.5 570.5,603.5 571.5,601.5 Z"/></g>
<g><path style="opacity:1" fill="#a5373b" d="M 360.5,662.5 C 374.5,662.5 388.5,662.5 402.5,662.5C 402.5,668.5 402.5,674.5 402.5,680.5C 387.324,680.829 372.324,680.496 357.5,679.5C 372.167,679.5 386.833,679.5 401.5,679.5C 401.821,674.305 401.487,669.305 400.5,664.5C 387.167,663.833 373.833,663.167 360.5,662.5 Z"/></g>
<g><path style="opacity:1" fill="#f53335" d="M 654.5,642.5 C 657.556,644.263 659.389,646.93 660,650.5C 660.445,656.18 660.945,661.846 661.5,667.5C 663.144,667.286 664.644,667.62 666,668.5C 667.638,666.266 669.805,664.933 672.5,664.5C 672.5,665.167 672.5,665.833 672.5,666.5C 668.809,669.53 665.142,672.53 661.5,675.5C 660.167,675.5 658.833,675.5 657.5,675.5C 658.748,667.692 658.748,660.025 657.5,652.5C 655.723,649.495 654.723,646.162 654.5,642.5 Z"/></g>
<g><path style="opacity:1" fill="#fcfdfc" d="M 274.5,662.5 C 275.473,663.791 276.473,663.791 277.5,662.5C 278.333,679.49 278.833,696.49 279,713.5C 279.884,720.049 283.384,724.549 289.5,727C 307.164,727.5 324.83,727.667 342.5,727.5C 342.5,736.5 342.5,745.5 342.5,754.5C 324.164,754.667 305.83,754.5 287.5,754C 268.636,749.803 257.136,738.303 253,719.5C 252.5,700.836 252.333,682.17 252.5,663.5C 260.019,663.825 267.352,663.492 274.5,662.5 Z"/></g>
<g><path style="opacity:1" fill="#ed3c3e" d="M 680.5,653.5 C 680.122,655.921 679.455,658.254 678.5,660.5C 676.139,662.194 674.139,664.194 672.5,666.5C 672.5,665.833 672.5,665.167 672.5,664.5C 675.414,661.002 678.081,657.335 680.5,653.5 Z"/></g>
<g><path style="opacity:1" fill="#fdfdfc" d="M 728.5,663.5 C 737.167,663.5 745.833,663.5 754.5,663.5C 754.667,681.836 754.5,700.17 754,718.5C 750.273,737.894 738.773,749.727 719.5,754C 701.17,754.5 682.836,754.667 664.5,754.5C 664.5,745.5 664.5,736.5 664.5,727.5C 682.17,727.667 699.836,727.5 717.5,727C 723.616,724.549 727.116,720.049 728,713.5C 728.5,696.837 728.667,680.17 728.5,663.5 Z"/></g>
<g><path style="opacity:1" fill="#ce3d44" d="M 335.5,662.5 C 337.539,663.911 338.539,665.911 338.5,668.5C 337.026,667.564 336.026,666.23 335.5,664.5C 335.5,663.833 335.5,663.167 335.5,662.5 Z"/></g>
<g><path style="opacity:1" fill="#eb333a" d="M 354.5,662.5 C 355.756,662.461 356.756,662.961 357.5,664C 371.829,664.5 386.163,664.667 400.5,664.5C 400.5,669.167 400.5,673.833 400.5,678.5C 384.991,678.83 369.658,678.496 354.5,677.5C 369.5,677.5 384.5,677.5 399.5,677.5C 399.5,673.5 399.5,669.5 399.5,665.5C 386.469,665.204 373.469,665.537 360.5,666.5C 357.783,666.148 355.783,664.815 354.5,662.5 Z"/></g>
<g><path style="opacity:1" fill="#f82d37" d="M 354.5,662.5 C 355.783,664.815 357.783,666.148 360.5,666.5C 373.469,665.537 386.469,665.204 399.5,665.5C 399.5,669.5 399.5,673.5 399.5,677.5C 384.5,677.5 369.5,677.5 354.5,677.5C 353.833,677.167 353.167,676.833 352.5,676.5C 349.249,673.879 345.916,671.212 342.5,668.5C 340.882,665.057 338.715,662.057 336,659.5C 334.582,644.216 334.082,628.883 334.5,613.5C 337.777,613.216 340.943,613.549 344,614.5C 345.407,619.195 345.574,623.695 344.5,628C 345.221,636.149 345.721,644.316 346,652.5C 348.532,654.91 350.032,657.91 350.5,661.5C 351.736,662.246 353.07,662.579 354.5,662.5 Z"/></g>
<g><path style="opacity:1" fill="#b63a3f" d="M 338.5,669.5 C 341.063,669.731 342.73,671.065 343.5,673.5C 341.251,672.92 339.585,671.587 338.5,669.5 Z"/></g>
<g><path style="opacity:1" fill="#c23e45" d="M 343.5,673.5 C 345.027,673.427 346.027,674.094 346.5,675.5C 344.973,675.573 343.973,674.906 343.5,673.5 Z"/></g>
<g><path style="opacity:1" fill="#ee3539" d="M 594.5,668.5 C 595.906,671.525 597.239,674.692 598.5,678C 598.167,678.5 597.833,679 597.5,679.5C 596.583,678.873 595.583,678.539 594.5,678.5C 593.833,678.5 593.167,678.5 592.5,678.5C 591.5,677.167 590.5,675.833 589.5,674.5C 593.908,674.938 595.575,672.938 594.5,668.5 Z"/></g>
<g><path style="opacity:1" fill="#bf3c40" d="M 587.5,674.5 C 588.167,674.5 588.833,674.5 589.5,674.5C 590.5,675.833 591.5,677.167 592.5,678.5C 590.251,677.92 588.585,676.587 587.5,674.5 Z"/></g>
<g><path style="opacity:1" fill="#af373b" d="M 346.5,675.5 C 347.609,675.557 348.609,675.89 349.5,676.5C 349.5,676.833 349.5,677.167 349.5,677.5C 347.973,677.573 346.973,676.906 346.5,675.5 Z"/></g>
<g><path style="opacity:1" fill="#c83e40" d="M 655.5,670.5 C 655.821,673.577 654.821,675.91 652.5,677.5C 653.264,674.982 654.264,672.649 655.5,670.5 Z"/></g>
<g><path style="opacity:1" fill="#e93b3c" d="M 657.5,652.5 C 658.748,660.025 658.748,667.692 657.5,675.5C 658.833,675.5 660.167,675.5 661.5,675.5C 658.981,678.017 655.981,679.683 652.5,680.5C 652.5,679.5 652.5,678.5 652.5,677.5C 654.821,675.91 655.821,673.577 655.5,670.5C 655.232,668.901 655.566,667.568 656.5,666.5C 657.486,662.03 657.819,657.363 657.5,652.5 Z"/></g>
<g><path style="opacity:1" fill="#c63f41" d="M 678.5,660.5 C 672.271,671.394 663.271,679.06 651.5,683.5C 650.167,683.5 649.5,682.833 649.5,681.5C 650.026,679.77 651.026,678.436 652.5,677.5C 652.5,678.5 652.5,679.5 652.5,680.5C 655.981,679.683 658.981,678.017 661.5,675.5C 665.142,672.53 668.809,669.53 672.5,666.5C 674.139,664.194 676.139,662.194 678.5,660.5 Z"/></g>
<g><path style="opacity:1" fill="#d53f47" d="M 400.5,664.5 C 401.487,669.305 401.821,674.305 401.5,679.5C 386.833,679.5 372.167,679.5 357.5,679.5C 354.579,679.717 351.913,679.051 349.5,677.5C 349.5,677.167 349.5,676.833 349.5,676.5C 350.5,676.5 351.5,676.5 352.5,676.5C 353.167,676.833 353.833,677.167 354.5,677.5C 369.658,678.496 384.991,678.83 400.5,678.5C 400.5,673.833 400.5,669.167 400.5,664.5 Z"/></g>
<g><path style="opacity:1" fill="#af393b" d="M 592.5,678.5 C 593.167,678.5 593.833,678.5 594.5,678.5C 594.833,679.167 595.167,679.833 595.5,680.5C 593.973,680.573 592.973,679.906 592.5,678.5 Z"/></g>
<g><path style="opacity:1" fill="#ca3d40" d="M 594.5,664.5 C 594.833,664.5 595.167,664.5 595.5,664.5C 596.83,670.826 599.497,676.493 603.5,681.5C 603.5,682.833 602.833,683.5 601.5,683.5C 599.181,683.008 597.181,682.008 595.5,680.5C 595.167,679.833 594.833,679.167 594.5,678.5C 595.583,678.539 596.583,678.873 597.5,679.5C 597.833,679 598.167,678.5 598.5,678C 597.239,674.692 595.906,671.525 594.5,668.5C 594.5,668.167 594.5,667.833 594.5,667.5C 594.5,666.5 594.5,665.5 594.5,664.5 Z"/></g>
<g><path style="opacity:1" fill="#a54547" d="M 649.5,681.5 C 649.5,682.833 650.167,683.5 651.5,683.5C 643.613,687.904 642.946,687.238 649.5,681.5 Z"/></g>
<g><path style="opacity:1" fill="#a84749" d="M 603.5,681.5 C 611.27,687.157 610.604,687.824 601.5,683.5C 602.833,683.5 603.5,682.833 603.5,681.5 Z"/></g>
</svg>
