<?xml version="1.0" encoding="UTF-8"?>
<!DOCTYPE svg PUBLIC "-//W3C//DTD SVG 1.1//EN" "http://www.w3.org/Graphics/SVG/1.1/DTD/svg11.dtd">
<svg xmlns="http://www.w3.org/2000/svg" version="1.1" width="1024px" height="1024px" style="shape-rendering:geometricPrecision; text-rendering:geometricPrecision; image-rendering:optimizeQuality; fill-rule:evenodd; clip-rule:evenodd" xmlns:xlink="http://www.w3.org/1999/xlink">
<g><path style="opacity:1" fill="#fdfdfd" d="M 589.5,248.5 C 596.305,249.069 602.305,251.569 607.5,256C 677.908,314.286 748.408,372.453 819,430.5C 823.667,437.833 823.667,445.167 819,452.5C 763.429,503.408 707.262,553.575 650.5,603C 633.465,619.036 616.132,634.703 598.5,650C 585.63,653.815 577.13,649.315 573,636.5C 571.546,605.203 571.046,573.869 571.5,542.5C 484.569,541.635 408.236,569.135 342.5,625C 305.923,659.633 278.423,700.466 260,747.5C 254.958,755.437 247.791,758.604 238.5,757C 232.912,754.414 229.079,750.247 227,744.5C 225.648,651.238 251.981,566.904 306,491.5C 363.499,417.98 438.666,374.147 531.5,360C 544.781,358.139 558.114,356.805 571.5,356C 571.507,325.911 571.674,295.744 572,265.5C 574.47,256.194 580.304,250.527 589.5,248.5 Z M 609.5,306.5 C 664.731,350.887 719.565,395.887 774,441.5C 774.667,442.167 774.667,442.833 774,443.5C 730.797,482.372 687.297,520.872 643.5,559C 632.349,569.318 621.349,579.818 610.5,590.5C 610.971,567.514 610.471,544.514 609,521.5C 607.843,514.667 604.01,510.167 597.5,508C 528.832,503.722 463.165,515.722 400.5,544C 350.339,567.823 308.172,601.657 274,645.5C 293.875,553.183 344.041,482.683 424.5,434C 458.64,415.398 494.973,403.398 533.5,398C 554.432,395.283 575.432,393.283 596.5,392C 603.237,390.264 607.737,386.097 610,379.5C 610.814,355.124 610.647,330.791 609.5,306.5 Z"/></g>
</svg>
