<?xml version="1.0" encoding="UTF-8"?>
<!DOCTYPE svg PUBLIC "-//W3C//DTD SVG 1.1//EN" "http://www.w3.org/Graphics/SVG/1.1/DTD/svg11.dtd">
<svg xmlns="http://www.w3.org/2000/svg" version="1.1" width="1024px" height="1024px" style="shape-rendering:geometricPrecision; text-rendering:geometricPrecision; image-rendering:optimizeQuality; fill-rule:evenodd; clip-rule:evenodd" xmlns:xlink="http://www.w3.org/1999/xlink">
<g><path style="opacity:1" fill="#2b3642" d="M 526.5,184.5 C 526.714,186.144 526.38,187.644 525.5,189C 528.347,191.571 529.013,194.571 527.5,198C 524.721,198.889 522.055,200.056 519.5,201.5C 517.171,200.002 515.337,198.002 514,195.5C 513.667,196.167 513.333,196.833 513,197.5C 510.441,194.877 508.108,195.21 506,198.5C 505.316,199.784 505.483,200.951 506.5,202C 504.798,203.583 503.464,203.083 502.5,200.5C 503.248,198.668 504.248,197.001 505.5,195.5C 504.305,194.033 504.305,192.533 505.5,191C 502.158,189.003 501.824,186.67 504.5,184C 503.944,183.617 503.611,183.117 503.5,182.5C 505.567,170.715 511.733,167.715 522,173.5C 524.066,176.961 525.566,180.627 526.5,184.5 Z"/></g>
<g><path style="opacity:1" fill="#2e3842" d="M 503.5,182.5 C 503.611,183.117 503.944,183.617 504.5,184C 501.824,186.67 502.158,189.003 505.5,191C 504.305,192.533 504.305,194.033 505.5,195.5C 504.248,197.001 503.248,198.668 502.5,200.5C 503.464,203.083 504.798,203.583 506.5,202C 505.483,200.951 505.316,199.784 506,198.5C 508.108,195.21 510.441,194.877 513,197.5C 513.333,196.833 513.667,196.167 514,195.5C 515.337,198.002 517.171,200.002 519.5,201.5C 522.055,200.056 524.721,198.889 527.5,198C 529.013,194.571 528.347,191.571 525.5,189C 526.38,187.644 526.714,186.144 526.5,184.5C 538.864,213.258 548.864,242.925 556.5,273.5C 555.15,274.483 554.15,275.816 553.5,277.5C 552.914,277.291 552.414,276.957 552,276.5C 551.308,281.004 550.141,285.338 548.5,289.5C 546.856,289.714 545.356,289.38 544,288.5C 543.392,290.154 542.892,291.821 542.5,293.5C 535.185,263.928 525.852,234.928 514.5,206.5C 511.299,214.107 508.299,221.774 505.5,229.5C 504.761,229.631 504.094,229.464 503.5,229C 504.833,228.333 504.833,227.667 503.5,227C 502.552,226.517 501.552,226.351 500.5,226.5C 500.307,222.551 499.807,222.551 499,226.5C 498.667,225.833 498.333,225.167 498,224.5C 497.231,227.099 497.398,229.599 498.5,232C 495.876,232.576 495.209,233.91 496.5,236C 495.056,237.763 494.056,239.763 493.5,242C 495.516,242.899 497.183,244.233 498.5,246C 495.855,246.591 495.189,247.925 496.5,250C 495.692,252.761 494.692,255.428 493.5,258C 494.381,258.708 495.047,259.542 495.5,260.5C 495.5,260.833 495.5,261.167 495.5,261.5C 493.549,261.773 492.049,261.107 491,259.5C 490,262.167 489,264.833 488,267.5C 486.904,262.025 487.904,257.025 491,252.5C 490.524,248.557 491.024,244.891 492.5,241.5C 492,240.5 491.5,239.5 491,238.5C 489.648,240.594 489.148,242.927 489.5,245.5C 486.298,246.813 483.131,248.479 480,250.5C 479.601,250.272 479.435,249.938 479.5,249.5C 485.94,226.506 493.94,204.173 503.5,182.5 Z"/></g>
<g><path style="opacity:1" fill="#2f3c44" d="M 505.5,229.5 C 502.134,239.929 498.8,250.262 495.5,260.5C 495.047,259.542 494.381,258.708 493.5,258C 494.692,255.428 495.692,252.761 496.5,250C 495.189,247.925 495.855,246.591 498.5,246C 497.183,244.233 495.516,242.899 493.5,242C 494.056,239.763 495.056,237.763 496.5,236C 495.209,233.91 495.876,232.576 498.5,232C 497.398,229.599 497.231,227.099 498,224.5C 498.333,225.167 498.667,225.833 499,226.5C 499.807,222.551 500.307,222.551 500.5,226.5C 501.552,226.351 502.552,226.517 503.5,227C 504.833,227.667 504.833,228.333 503.5,229C 504.094,229.464 504.761,229.631 505.5,229.5 Z"/></g>
<g><path style="opacity:1" fill="#2e3943" d="M 495.5,261.5 C 492.478,272.266 489.478,282.932 486.5,293.5C 486.279,292.265 485.612,291.265 484.5,290.5C 486.124,289.131 486.624,287.464 486,285.5C 485.667,285.833 485.333,286.167 485,286.5C 484.027,284.36 482.527,282.693 480.5,281.5C 478.522,283.531 478.522,285.197 480.5,286.5C 479.187,288.885 477.52,289.052 475.5,287C 478.179,284.332 479.012,281.165 478,277.5C 477.5,278.5 477,279.5 476.5,280.5C 475.998,281.521 475.332,281.688 474.5,281C 475.174,279.249 475.507,277.583 475.5,276C 474.186,275.015 473.186,273.848 472.5,272.5C 474.388,264.595 476.721,256.928 479.5,249.5C 479.435,249.938 479.601,250.272 480,250.5C 483.131,248.479 486.298,246.813 489.5,245.5C 489.148,242.927 489.648,240.594 491,238.5C 491.5,239.5 492,240.5 492.5,241.5C 491.024,244.891 490.524,248.557 491,252.5C 487.904,257.025 486.904,262.025 488,267.5C 489,264.833 490,262.167 491,259.5C 492.049,261.107 493.549,261.773 495.5,261.5 Z"/></g>
<g><path style="opacity:1" fill="#2e3842" d="M 556.5,273.5 C 561.388,290.604 565.388,307.938 568.5,325.5C 566.883,327.121 565.716,329.121 565,331.5C 564.29,330.027 563.124,329.36 561.5,329.5C 561.762,330.978 561.429,332.311 560.5,333.5C 559.21,331.343 558.376,329.01 558,326.5C 556.301,325.594 554.467,325.261 552.5,325.5C 553.481,330.129 553.648,334.796 553,339.5C 552.667,338.167 552.333,336.833 552,335.5C 551.536,336.094 551.369,336.761 551.5,337.5C 548.523,322.95 545.523,308.284 542.5,293.5C 542.892,291.821 543.392,290.154 544,288.5C 545.356,289.38 546.856,289.714 548.5,289.5C 550.141,285.338 551.308,281.004 552,276.5C 552.414,276.957 552.914,277.291 553.5,277.5C 554.15,275.816 555.15,274.483 556.5,273.5 Z"/></g>
<g><path style="opacity:1" fill="#2b3640" d="M 472.5,272.5 C 473.186,273.848 474.186,275.015 475.5,276C 475.507,277.583 475.174,279.249 474.5,281C 475.332,281.688 475.998,281.521 476.5,280.5C 477,279.5 477.5,278.5 478,277.5C 479.012,281.165 478.179,284.332 475.5,287C 477.52,289.052 479.187,288.885 480.5,286.5C 478.522,285.197 478.522,283.531 480.5,281.5C 482.527,282.693 484.027,284.36 485,286.5C 485.333,286.167 485.667,285.833 486,285.5C 486.624,287.464 486.124,289.131 484.5,290.5C 485.612,291.265 486.279,292.265 486.5,293.5C 483.833,306.169 481.166,318.836 478.5,331.5C 477.732,330.737 477.232,329.737 477,328.5C 476.104,331.14 474.604,333.307 472.5,335C 473.858,336.832 474.192,338.665 473.5,340.5C 473.057,336.191 471.724,335.691 469.5,339C 470.345,340.558 469.679,341.558 467.5,342C 468.86,343.938 468.527,345.604 466.5,347C 464.541,347.931 462.541,348.764 460.5,349.5C 459.808,348.975 459.308,348.308 459,347.5C 458.288,350.438 458.788,353.104 460.5,355.5C 460.631,356.239 460.464,356.906 460,357.5C 459,357.167 458,356.833 457,356.5C 454.099,364.768 454.433,372.768 458,380.5C 459.011,381.337 460.178,381.67 461.5,381.5C 461.66,383.199 461.494,384.866 461,386.5C 460.085,385.672 459.419,384.672 459,383.5C 458.667,383.833 458.333,384.167 458,384.5C 456.337,388.784 456.004,393.117 457,397.5C 455.904,395.111 455.071,392.611 454.5,390C 455.357,389.311 456.023,388.478 456.5,387.5C 455.002,385.146 453.668,382.813 452.5,380.5C 455.954,343.897 462.621,307.897 472.5,272.5 Z"/></g>
<g><path style="opacity:1" fill="#2d3741" d="M 307.5,347.5 C 305.014,348.462 305.014,349.295 307.5,350C 306.664,351.243 306.997,352.41 308.5,353.5C 309.748,352.96 310.915,352.293 312,351.5C 313.167,352.667 314.333,353.833 315.5,355C 314.707,356.085 314.04,357.252 313.5,358.5C 314.274,359.711 315.107,359.711 316,358.5C 315.503,360.198 315.67,361.865 316.5,363.5C 310.579,369.043 309.579,368.543 313.5,362C 312.91,360.491 312.244,358.991 311.5,357.5C 310.637,359.771 310.637,362.105 311.5,364.5C 308.387,364.935 307.721,363.935 309.5,361.5C 309.444,360.263 308.944,359.263 308,358.5C 308.379,360.075 308.212,361.575 307.5,363C 306.234,363.309 305.067,363.809 304,364.5C 303.667,363.5 303.333,362.5 303,361.5C 301.964,363.299 301.797,364.966 302.5,366.5C 298.136,364.229 293.969,361.562 290,358.5C 290.341,363.543 291.174,368.543 292.5,373.5C 291.067,374.833 289.733,376.333 288.5,378C 285.766,377.519 283.433,378.519 281.5,381C 281.905,381.945 282.572,382.612 283.5,383C 280.679,385.979 278.846,385.146 278,380.5C 277.329,381.252 276.496,381.586 275.5,381.5C 271.367,367.303 267.701,352.97 264.5,338.5C 265.602,330.947 269.935,327.78 277.5,329C 288.066,334.44 298.066,340.606 307.5,347.5 Z"/></g>
<g><path style="opacity:1" fill="#2c3741" d="M 478.5,331.5 C 472.844,363.079 469.177,394.746 467.5,426.5C 467.824,422.445 467.491,418.445 466.5,414.5C 465.824,415.602 465.158,416.602 464.5,417.5C 464.517,413.623 463.351,412.957 461,415.5C 460.667,415.167 460.333,414.833 460,414.5C 459.907,411.993 459.074,409.826 457.5,408C 460.523,407.675 462.523,406.175 463.5,403.5C 463.182,402.353 462.516,401.519 461.5,401C 463.394,399.921 463.727,398.587 462.5,397C 463.103,395.175 463.77,393.341 464.5,391.5C 465.192,392.025 465.692,392.692 466,393.5C 467.167,391.667 468.333,389.833 469.5,388C 469.894,386.076 469.227,384.243 467.5,382.5C 467.875,380.541 468.541,378.707 469.5,377C 468.071,371.791 466.404,366.624 464.5,361.5C 465.525,359.424 465.191,357.424 463.5,355.5C 462.473,356.791 461.473,356.791 460.5,355.5C 458.788,353.104 458.288,350.438 459,347.5C 459.308,348.308 459.808,348.975 460.5,349.5C 462.541,348.764 464.541,347.931 466.5,347C 468.527,345.604 468.86,343.938 467.5,342C 469.679,341.558 470.345,340.558 469.5,339C 471.724,335.691 473.057,336.191 473.5,340.5C 474.192,338.665 473.858,336.832 472.5,335C 474.604,333.307 476.104,331.14 477,328.5C 477.232,329.737 477.732,330.737 478.5,331.5 Z"/></g>
<g><path style="opacity:1" fill="#2d3742" d="M 568.5,325.5 C 572.005,344.034 574.672,362.701 576.5,381.5C 575.698,382.952 575.198,384.618 575,386.5C 574.5,386 574,385.5 573.5,385C 574.517,383.951 574.684,382.784 574,381.5C 572.685,383.316 571.185,384.983 569.5,386.5C 567.647,389.353 566.813,392.686 567,396.5C 565.933,397.191 564.766,397.691 563.5,398C 564.167,398.333 564.833,398.667 565.5,399C 561.329,400.282 560.662,402.449 563.5,405.5C 561.364,406.852 561.03,408.518 562.5,410.5C 562.154,411.696 561.654,411.696 561,410.5C 560.51,411.793 560.343,413.127 560.5,414.5C 558.319,388.881 555.319,363.214 551.5,337.5C 551.369,336.761 551.536,336.094 552,335.5C 552.333,336.833 552.667,338.167 553,339.5C 553.648,334.796 553.481,330.129 552.5,325.5C 554.467,325.261 556.301,325.594 558,326.5C 558.376,329.01 559.21,331.343 560.5,333.5C 561.429,332.311 561.762,330.978 561.5,329.5C 563.124,329.36 564.29,330.027 565,331.5C 565.716,329.121 566.883,327.121 568.5,325.5 Z"/></g>
<g><path style="opacity:1" fill="#2d3742" d="M 742.5,360.5 C 742.631,359.761 742.464,359.094 742,358.5C 737.286,362.054 732.453,365.387 727.5,368.5C 723.972,366.595 721.138,363.928 719,360.5C 717.647,361.685 716.48,363.019 715.5,364.5C 714.112,363.409 713.612,362.076 714,360.5C 716.798,360.091 718.964,358.257 720.5,355C 718.43,354.621 716.93,355.455 716,357.5C 715.833,357 715.667,356.5 715.5,356C 717.1,354.877 718.1,353.377 718.5,351.5C 721.997,348.917 725.664,346.584 729.5,344.5C 730.458,344.953 731.292,345.619 732,346.5C 734,343.832 736.167,341.665 738.5,340C 739.784,339.316 740.951,339.483 742,340.5C 742.667,339.167 743.667,338.167 745,337.5C 746.208,341.2 748.041,344.533 750.5,347.5C 751.192,346.975 751.692,346.308 752,345.5C 753.852,347.23 753.686,348.396 751.5,349C 752.938,349.219 754.271,349.719 755.5,350.5C 752.903,355.144 752.903,359.811 755.5,364.5C 755.167,365.167 754.833,365.833 754.5,366.5C 753.289,365.726 753.289,364.893 754.5,364C 753.5,363.667 752.5,363.333 751.5,363C 751.833,362.667 752.167,362.333 752.5,362C 751.643,361.311 750.977,360.478 750.5,359.5C 751.348,357.591 751.682,355.591 751.5,353.5C 745.115,353.698 744.448,352.531 749.5,350C 747.667,348.833 746.167,347.333 745,345.5C 744.308,346.025 743.808,346.692 743.5,347.5C 743.314,350.524 743.647,353.357 744.5,356C 743.901,357.622 743.234,359.122 742.5,360.5 Z"/></g>
<g><path style="opacity:1" fill="#2e3842" d="M 747.5,407.5 C 746.639,405.614 745.639,403.78 744.5,402C 738.883,400.971 738.55,400.138 743.5,399.5C 743.82,396.048 743.82,392.715 743.5,389.5C 741.604,388.534 739.604,388.201 737.5,388.5C 738.036,391.665 737.203,394.331 735,396.5C 734.802,394.618 734.302,392.952 733.5,391.5C 736.703,381.226 739.703,370.892 742.5,360.5C 743.234,359.122 743.901,357.622 744.5,356C 743.647,353.357 743.314,350.524 743.5,347.5C 743.808,346.692 744.308,346.025 745,345.5C 746.167,347.333 747.667,348.833 749.5,350C 744.448,352.531 745.115,353.698 751.5,353.5C 751.682,355.591 751.348,357.591 750.5,359.5C 750.977,360.478 751.643,361.311 752.5,362C 752.167,362.333 751.833,362.667 751.5,363C 752.5,363.333 753.5,363.667 754.5,364C 753.289,364.893 753.289,365.726 754.5,366.5C 754.833,365.833 755.167,365.167 755.5,364.5C 752.903,359.811 752.903,355.144 755.5,350.5C 754.271,349.719 752.938,349.219 751.5,349C 753.686,348.396 753.852,347.23 752,345.5C 751.692,346.308 751.192,346.975 750.5,347.5C 748.041,344.533 746.208,341.2 745,337.5C 743.667,338.167 742.667,339.167 742,340.5C 740.951,339.483 739.784,339.316 738.5,340C 736.167,341.665 734,343.832 732,346.5C 731.292,345.619 730.458,344.953 729.5,344.5C 738.151,338.168 747.485,332.835 757.5,328.5C 764.76,329.917 767.926,334.25 767,341.5C 762.181,364.113 755.681,386.113 747.5,407.5 Z"/></g>
<g><path style="opacity:1" fill="#2e3741" d="M 307.5,347.5 C 332.915,363.911 356.582,382.578 378.5,403.5C 377.883,403.611 377.383,403.944 377,404.5C 375.086,401.926 372.586,400.093 369.5,399C 370.833,398.333 370.833,397.667 369.5,397C 368.234,396.691 367.067,396.191 366,395.5C 365.667,396.833 365.333,398.167 365,399.5C 363.992,399.982 362.825,400.148 361.5,400C 362.833,400.667 362.833,401.333 361.5,402C 362.167,402.333 362.833,402.667 363.5,403C 361.299,403.825 359.466,403.325 358,401.5C 356.902,402.967 355.402,403.801 353.5,404C 355.373,404.953 355.706,406.12 354.5,407.5C 337.717,393.041 320.384,379.374 302.5,366.5C 301.797,364.966 301.964,363.299 303,361.5C 303.333,362.5 303.667,363.5 304,364.5C 305.067,363.809 306.234,363.309 307.5,363C 308.212,361.575 308.379,360.075 308,358.5C 308.944,359.263 309.444,360.263 309.5,361.5C 307.721,363.935 308.387,364.935 311.5,364.5C 310.637,362.105 310.637,359.771 311.5,357.5C 312.244,358.991 312.91,360.491 313.5,362C 309.579,368.543 310.579,369.043 316.5,363.5C 315.67,361.865 315.503,360.198 316,358.5C 315.107,359.711 314.274,359.711 313.5,358.5C 314.04,357.252 314.707,356.085 315.5,355C 314.333,353.833 313.167,352.667 312,351.5C 310.915,352.293 309.748,352.96 308.5,353.5C 306.997,352.41 306.664,351.243 307.5,350C 305.014,349.295 305.014,348.462 307.5,347.5 Z"/></g>
<g><path style="opacity:1" fill="#2d3843" d="M 718.5,351.5 C 718.1,353.377 717.1,354.877 715.5,356C 715.667,356.5 715.833,357 716,357.5C 716.93,355.455 718.43,354.621 720.5,355C 718.964,358.257 716.798,360.091 714,360.5C 713.612,362.076 714.112,363.409 715.5,364.5C 716.48,363.019 717.647,361.685 719,360.5C 721.138,363.928 723.972,366.595 727.5,368.5C 709.616,381.374 692.283,395.041 675.5,409.5C 674.086,407.402 674.752,406.402 677.5,406.5C 677.269,403.215 678.603,400.715 681.5,399C 680.451,398.508 679.451,398.674 678.5,399.5C 677.304,399.154 677.304,398.654 678.5,398C 676.833,397.667 675.167,397.333 673.5,397C 674.833,396.333 674.833,395.667 673.5,395C 674.448,394.517 675.448,394.351 676.5,394.5C 676.008,392.159 674.841,390.159 673,388.5C 670.198,391.146 667.032,393.146 663.5,394.5C 680.949,379.052 699.283,364.719 718.5,351.5 Z"/></g>
<g><path style="opacity:1" fill="#303a44" d="M 292.5,373.5 C 299.963,396.88 308.629,419.88 318.5,442.5C 317.542,442.953 316.708,443.619 316,444.5C 315.667,443.833 315.333,443.167 315,442.5C 312.186,444.471 310.352,447.138 309.5,450.5C 308.522,450.023 307.689,449.357 307,448.5C 307.305,450.443 307.305,452.443 307,454.5C 306.086,453.346 305.253,453.513 304.5,455C 305.337,456.011 305.67,457.178 305.5,458.5C 302.261,452.352 299.261,446.019 296.5,439.5C 297.496,439.414 298.329,439.748 299,440.5C 299.724,438.041 301.057,437.041 303,437.5C 305.758,435.886 307.591,433.552 308.5,430.5C 308.182,429.353 307.516,428.519 306.5,428C 307.308,427.692 307.975,427.192 308.5,426.5C 307.289,425.28 307.289,424.113 308.5,423C 306.981,421.649 305.648,420.149 304.5,418.5C 305.167,417.833 305.833,417.167 306.5,416.5C 305.563,413.323 303.896,410.657 301.5,408.5C 301.5,406.833 301.5,405.167 301.5,403.5C 300.045,401.78 299.212,399.78 299,397.5C 298.667,398.167 298.333,398.833 298,399.5C 297.51,398.207 297.343,396.873 297.5,395.5C 296.178,395.67 295.011,395.337 294,394.5C 293.667,395.833 293.333,397.167 293,398.5C 291.989,397.663 290.822,397.33 289.5,397.5C 289.762,398.978 289.429,400.311 288.5,401.5C 286.671,400.712 285.004,401.212 283.5,403C 284.38,404.356 284.714,405.856 284.5,407.5C 281.129,399.058 278.129,390.391 275.5,381.5C 276.496,381.586 277.329,381.252 278,380.5C 278.846,385.146 280.679,385.979 283.5,383C 282.572,382.612 281.905,381.945 281.5,381C 283.433,378.519 285.766,377.519 288.5,378C 289.733,376.333 291.067,374.833 292.5,373.5 Z"/></g>
<g><path style="opacity:1" fill="#2b3741" d="M 576.5,381.5 C 580.124,416.128 580.791,450.795 578.5,485.5C 577.596,486.209 577.263,487.209 577.5,488.5C 577.48,490.143 578.147,491.476 579.5,492.5C 578.624,493.251 577.624,493.751 576.5,494C 576.833,494.333 577.167,494.667 577.5,495C 576.146,496.294 574.812,496.46 573.5,495.5C 571.742,496.128 570.242,497.128 569,498.5C 567.314,495.912 567.147,493.245 568.5,490.5C 566.09,484.02 565.09,484.187 565.5,491C 565,491.5 564.5,492 564,492.5C 562.951,491.483 561.784,491.316 560.5,492C 561.833,492.667 561.833,493.333 560.5,494C 561.91,494.368 562.91,495.201 563.5,496.5C 560.214,499.173 560.047,501.84 563,504.5C 564.738,502.378 566.572,502.545 568.5,505C 568.043,505.414 567.709,505.914 567.5,506.5C 569.353,507.76 571.186,507.76 573,506.5C 572.322,509.235 570.655,511.568 568,513.5C 566.751,511.008 565.584,511.175 564.5,514C 564.833,514.333 565.167,514.667 565.5,515C 564.207,515.49 562.873,515.657 561.5,515.5C 561.5,516.833 561.5,518.167 561.5,519.5C 562.833,519.5 564.167,519.5 565.5,519.5C 565.5,521.5 565.5,523.5 565.5,525.5C 564.5,525.5 563.5,525.5 562.5,525.5C 562.119,527.942 562.786,528.609 564.5,527.5C 565.172,528.949 565.839,530.282 566.5,531.5C 567.209,532.404 568.209,532.737 569.5,532.5C 569.5,533.5 569.5,534.5 569.5,535.5C 568.448,535.351 567.448,535.517 566.5,536C 567.888,536.889 567.722,537.389 566,537.5C 563.438,535.294 560.938,535.628 558.5,538.5C 557.749,537.624 557.249,536.624 557,535.5C 555.989,536.337 554.822,536.67 553.5,536.5C 552.925,534.924 552.592,533.258 552.5,531.5C 559.84,492.836 562.506,453.836 560.5,414.5C 560.343,413.127 560.51,411.793 561,410.5C 561.654,411.696 562.154,411.696 562.5,410.5C 561.03,408.518 561.364,406.852 563.5,405.5C 560.662,402.449 561.329,400.282 565.5,399C 564.833,398.667 564.167,398.333 563.5,398C 564.766,397.691 565.933,397.191 567,396.5C 566.813,392.686 567.647,389.353 569.5,386.5C 571.185,384.983 572.685,383.316 574,381.5C 574.684,382.784 574.517,383.951 573.5,385C 574,385.5 574.5,386 575,386.5C 575.198,384.618 575.698,382.952 576.5,381.5 Z"/></g>
<g><path style="opacity:1" fill="#2c3641" d="M 460.5,355.5 C 461.473,356.791 462.473,356.791 463.5,355.5C 465.191,357.424 465.525,359.424 464.5,361.5C 466.404,366.624 468.071,371.791 469.5,377C 468.541,378.707 467.875,380.541 467.5,382.5C 469.227,384.243 469.894,386.076 469.5,388C 468.333,389.833 467.167,391.667 466,393.5C 465.692,392.692 465.192,392.025 464.5,391.5C 463.77,393.341 463.103,395.175 462.5,397C 463.727,398.587 463.394,399.921 461.5,401C 462.516,401.519 463.182,402.353 463.5,403.5C 462.523,406.175 460.523,407.675 457.5,408C 459.074,409.826 459.907,411.993 460,414.5C 460.333,414.833 460.667,415.167 461,415.5C 463.351,412.957 464.517,413.623 464.5,417.5C 463.761,417.369 463.094,417.536 462.5,418C 463.517,419.049 463.684,420.216 463,421.5C 462.16,418.536 461.16,418.203 460,420.5C 458.906,424.282 458.74,427.949 459.5,431.5C 457.219,432.357 454.885,432.857 452.5,433C 453.304,430.852 453.304,429.018 452.5,427.5C 451.749,428.376 451.249,429.376 451,430.5C 450.827,424.984 450.327,419.651 449.5,414.5C 449.739,402.954 450.739,391.621 452.5,380.5C 453.668,382.813 455.002,385.146 456.5,387.5C 456.023,388.478 455.357,389.311 454.5,390C 455.071,392.611 455.904,395.111 457,397.5C 456.004,393.117 456.337,388.784 458,384.5C 458.333,384.167 458.667,383.833 459,383.5C 459.419,384.672 460.085,385.672 461,386.5C 461.494,384.866 461.66,383.199 461.5,381.5C 460.178,381.67 459.011,381.337 458,380.5C 454.433,372.768 454.099,364.768 457,356.5C 458,356.833 459,357.167 460,357.5C 460.464,356.906 460.631,356.239 460.5,355.5 Z"/></g>
<g><path style="opacity:1" fill="#293540" d="M 675.5,409.5 C 672.833,411.833 670.167,414.167 667.5,416.5C 663.57,416.953 661.07,415.286 660,411.5C 659.667,411.833 659.333,412.167 659,412.5C 658.544,411.256 659.044,410.423 660.5,410C 658.973,408.632 657.473,408.132 656,408.5C 655.342,406.892 655.842,405.725 657.5,405C 656.027,404.29 655.36,403.124 655.5,401.5C 658.167,399.167 660.833,396.833 663.5,394.5C 667.032,393.146 670.198,391.146 673,388.5C 674.841,390.159 676.008,392.159 676.5,394.5C 675.448,394.351 674.448,394.517 673.5,395C 674.833,395.667 674.833,396.333 673.5,397C 675.167,397.333 676.833,397.667 678.5,398C 677.304,398.654 677.304,399.154 678.5,399.5C 679.451,398.674 680.451,398.508 681.5,399C 678.603,400.715 677.269,403.215 677.5,406.5C 674.752,406.402 674.086,407.402 675.5,409.5 Z"/></g>
<g><path style="opacity:1" fill="#2d3843" d="M 747.5,407.5 C 740.395,429.37 731.395,450.37 720.5,470.5C 721.52,465.447 723.52,460.781 726.5,456.5C 725.91,455.201 724.91,454.368 723.5,454C 723.957,453.586 724.291,453.086 724.5,452.5C 723.167,451.833 721.833,451.167 720.5,450.5C 721.724,448.161 721.724,445.828 720.5,443.5C 719.391,444.59 718.391,444.59 717.5,443.5C 716.95,441.343 716.283,439.343 715.5,437.5C 722.088,422.403 728.088,407.07 733.5,391.5C 734.302,392.952 734.802,394.618 735,396.5C 737.203,394.331 738.036,391.665 737.5,388.5C 739.604,388.201 741.604,388.534 743.5,389.5C 743.82,392.715 743.82,396.048 743.5,399.5C 738.55,400.138 738.883,400.971 744.5,402C 745.639,403.78 746.639,405.614 747.5,407.5 Z"/></g>
<g><path style="opacity:1" fill="#2d3641" d="M 296.5,439.5 C 291.908,429.059 287.908,418.392 284.5,407.5C 284.714,405.856 284.38,404.356 283.5,403C 285.004,401.212 286.671,400.712 288.5,401.5C 289.429,400.311 289.762,398.978 289.5,397.5C 290.822,397.33 291.989,397.663 293,398.5C 293.333,397.167 293.667,395.833 294,394.5C 295.011,395.337 296.178,395.67 297.5,395.5C 297.343,396.873 297.51,398.207 298,399.5C 298.333,398.833 298.667,398.167 299,397.5C 299.212,399.78 300.045,401.78 301.5,403.5C 301.5,405.167 301.5,406.833 301.5,408.5C 303.896,410.657 305.563,413.323 306.5,416.5C 305.833,417.167 305.167,417.833 304.5,418.5C 305.648,420.149 306.981,421.649 308.5,423C 307.289,424.113 307.289,425.28 308.5,426.5C 307.975,427.192 307.308,427.692 306.5,428C 307.516,428.519 308.182,429.353 308.5,430.5C 307.591,433.552 305.758,435.886 303,437.5C 301.057,437.041 299.724,438.041 299,440.5C 298.329,439.748 297.496,439.414 296.5,439.5 Z"/></g>
<g><path style="opacity:1" fill="#2d3640" d="M 378.5,403.5 C 385.193,409.861 391.86,416.194 398.5,422.5C 392.964,423.473 391.298,426.973 393.5,433C 391.65,432.405 389.65,431.905 387.5,431.5C 387.869,433.993 387.203,434.66 385.5,433.5C 384.972,432.279 384.305,431.113 383.5,430C 379.752,429.289 378.085,427.289 378.5,424C 376.782,423.654 375.115,423.154 373.5,422.5C 372.893,422.624 372.56,422.957 372.5,423.5C 366.5,418.167 360.5,412.833 354.5,407.5C 355.706,406.12 355.373,404.953 353.5,404C 355.402,403.801 356.902,402.967 358,401.5C 359.466,403.325 361.299,403.825 363.5,403C 362.833,402.667 362.167,402.333 361.5,402C 362.833,401.333 362.833,400.667 361.5,400C 362.825,400.148 363.992,399.982 365,399.5C 365.333,398.167 365.667,396.833 366,395.5C 367.067,396.191 368.234,396.691 369.5,397C 370.833,397.667 370.833,398.333 369.5,399C 372.586,400.093 375.086,401.926 377,404.5C 377.383,403.944 377.883,403.611 378.5,403.5 Z"/></g>
<g><path style="opacity:1" fill="#2c3640" d="M 449.5,414.5 C 450.327,419.651 450.827,424.984 451,430.5C 451.249,429.376 451.749,428.376 452.5,427.5C 453.304,429.018 453.304,430.852 452.5,433C 454.885,432.857 457.219,432.357 459.5,431.5C 458.74,427.949 458.906,424.282 460,420.5C 461.16,418.203 462.16,418.536 463,421.5C 463.684,420.216 463.517,419.049 462.5,418C 463.094,417.536 463.761,417.369 464.5,417.5C 465.158,416.602 465.824,415.602 466.5,414.5C 467.491,418.445 467.824,422.445 467.5,426.5C 467.51,443.175 467.844,459.841 468.5,476.5C 468.657,477.873 468.49,479.207 468,480.5C 467.082,472.804 466.416,464.804 466,456.5C 462.229,457.224 460.563,459.557 461,463.5C 459.97,461.412 459.137,459.245 458.5,457C 458.15,455.743 457.483,455.409 456.5,456C 456.112,457.525 456.112,459.192 456.5,461C 454.62,460.49 452.787,460.657 451,461.5C 450.817,464.365 450.317,467.031 449.5,469.5C 448.182,451.169 448.182,432.835 449.5,414.5 Z"/></g>
<g><path style="opacity:1" fill="#2b3742" d="M 655.5,401.5 C 655.36,403.124 656.027,404.29 657.5,405C 655.842,405.725 655.342,406.892 656,408.5C 657.473,408.132 658.973,408.632 660.5,410C 659.044,410.423 658.544,411.256 659,412.5C 659.333,412.167 659.667,411.833 660,411.5C 661.07,415.286 663.57,416.953 667.5,416.5C 656.86,426.806 646.193,437.139 635.5,447.5C 634.504,447.414 633.671,447.748 633,448.5C 632.683,446.699 632.016,446.366 631,447.5C 628.667,446.167 626.333,444.833 624,443.5C 623.577,444.956 622.744,445.456 621.5,445C 622.557,442.661 623.89,440.495 625.5,438.5C 623.85,438.599 622.517,437.599 621.5,435.5C 632.5,423.833 643.833,412.5 655.5,401.5 Z"/></g>
<g><path style="opacity:1" fill="#364146" d="M 385.5,433.5 C 385.167,434.167 384.833,434.833 384.5,435.5C 380.167,431.833 376.167,427.833 372.5,423.5C 372.56,422.957 372.893,422.624 373.5,422.5C 375.115,423.154 376.782,423.654 378.5,424C 378.085,427.289 379.752,429.289 383.5,430C 384.305,431.113 384.972,432.279 385.5,433.5 Z"/></g>
<g><path style="opacity:1" fill="#2d3740" d="M 398.5,422.5 C 414.929,439.593 430.262,457.593 444.5,476.5C 443.312,477.684 442.145,477.684 441,476.5C 440.751,473.823 439.751,471.49 438,469.5C 437,469.833 436,470.167 435,470.5C 435.433,467.793 434.599,465.293 432.5,463C 431.101,462.405 429.768,462.572 428.5,463.5C 427.304,463.154 427.304,462.654 428.5,462C 425.809,462.054 423.976,460.887 423,458.5C 422.097,459.701 420.931,460.535 419.5,461C 420.833,461.667 422.167,462.333 423.5,463C 422.299,463.903 421.465,465.069 421,466.5C 419.455,465.179 418.289,465.512 417.5,467.5C 418.137,469.303 419.303,470.636 421,471.5C 422.707,470.862 424.54,470.862 426.5,471.5C 426.066,468.834 427.066,467.667 429.5,468C 428.958,470.242 428.291,472.742 427.5,475.5C 425.549,475.773 424.049,475.107 423,473.5C 422.506,475.134 422.34,476.801 422.5,478.5C 410.606,463.598 397.939,449.265 384.5,435.5C 384.833,434.833 385.167,434.167 385.5,433.5C 387.203,434.66 387.869,433.993 387.5,431.5C 389.65,431.905 391.65,432.405 393.5,433C 391.298,426.973 392.964,423.473 398.5,422.5 Z"/></g>
<g><path style="opacity:1" fill="#2f3a44" d="M 621.5,435.5 C 622.517,437.599 623.85,438.599 625.5,438.5C 623.89,440.495 622.557,442.661 621.5,445C 622.744,445.456 623.577,444.956 624,443.5C 626.333,444.833 628.667,446.167 631,447.5C 632.016,446.366 632.683,446.699 633,448.5C 633.671,447.748 634.504,447.414 635.5,447.5C 628.804,455.192 622.138,462.859 615.5,470.5C 613.061,468.31 613.728,466.81 617.5,466C 615.32,464.239 613.654,462.073 612.5,459.5C 610.598,464.706 609.598,464.373 609.5,458.5C 608.315,457.229 606.315,456.229 603.5,455.5C 609.158,448.509 615.158,441.843 621.5,435.5 Z"/></g>
<g><path style="opacity:1" fill="#2b3741" d="M 715.5,437.5 C 716.283,439.343 716.95,441.343 717.5,443.5C 718.391,444.59 719.391,444.59 720.5,443.5C 721.724,445.828 721.724,448.161 720.5,450.5C 721.833,451.167 723.167,451.833 724.5,452.5C 724.291,453.086 723.957,453.586 723.5,454C 724.91,454.368 725.91,455.201 726.5,456.5C 723.52,460.781 721.52,465.447 720.5,470.5C 719.674,473.485 718.341,476.151 716.5,478.5C 713.937,476.677 711.77,474.01 710,470.5C 709.667,474.167 709.333,477.833 709,481.5C 707.839,476.584 707.173,471.584 707,466.5C 706.667,466.833 706.333,467.167 706,467.5C 705.829,472.533 705.329,477.533 704.5,482.5C 703.833,481.5 703.167,480.5 702.5,479.5C 701.339,483.795 701.172,488.129 702,492.5C 702.333,492.167 702.667,491.833 703,491.5C 704.474,494.487 703.974,497.32 701.5,500C 701.529,502.432 700.362,504.598 698,506.5C 697.667,506.167 697.333,505.833 697,505.5C 696.5,506.5 696,507.5 695.5,508.5C 696.428,509.768 696.595,511.101 696,512.5C 694.333,511.167 692.667,511.167 691,512.5C 688.904,511.285 689.071,510.451 691.5,510C 689.1,508.943 686.767,508.276 684.5,508C 683.473,506.134 682.473,504.3 681.5,502.5C 694.123,481.59 705.457,459.923 715.5,437.5 Z"/></g>
<g><path style="opacity:1" fill="#2c3641" d="M 318.5,442.5 C 322.379,449.591 325.712,456.924 328.5,464.5C 327.406,466.612 326.406,468.779 325.5,471C 326.167,471.333 326.833,471.667 327.5,472C 326.342,473.009 325.675,474.342 325.5,476C 325.961,478.199 326.127,480.366 326,482.5C 322.809,479.788 319.309,478.788 315.5,479.5C 311.403,472.883 308.07,465.883 305.5,458.5C 305.67,457.178 305.337,456.011 304.5,455C 305.253,453.513 306.086,453.346 307,454.5C 307.305,452.443 307.305,450.443 307,448.5C 307.689,449.357 308.522,450.023 309.5,450.5C 310.352,447.138 312.186,444.471 315,442.5C 315.333,443.167 315.667,443.833 316,444.5C 316.708,443.619 317.542,442.953 318.5,442.5 Z"/></g>
<g><path style="opacity:1" fill="#2b3641" d="M 603.5,455.5 C 606.315,456.229 608.315,457.229 609.5,458.5C 609.598,464.373 610.598,464.706 612.5,459.5C 613.654,462.073 615.32,464.239 617.5,466C 613.728,466.81 613.061,468.31 615.5,470.5C 612.848,474.482 609.848,478.149 606.5,481.5C 605.778,481.082 605.278,480.416 605,479.5C 603.286,480.925 601.953,480.592 601,478.5C 599.933,479.191 598.766,479.691 597.5,480C 597.833,480.333 598.167,480.667 598.5,481C 596.959,483.04 595.626,485.207 594.5,487.5C 591.692,486.03 588.692,485.197 585.5,485C 585.986,482.973 585.986,480.807 585.5,478.5C 591.27,470.613 597.27,462.946 603.5,455.5 Z"/></g>
<g><path style="opacity:1" fill="#2e3742" d="M 328.5,464.5 C 336.83,479.159 345.163,493.825 353.5,508.5C 353.08,510.094 352.414,511.594 351.5,513C 352.076,514.714 353.243,515.881 355,516.5C 355.311,518.556 355.811,520.556 356.5,522.5C 356.167,523.167 355.833,523.833 355.5,524.5C 359.391,527.469 360.724,531.302 359.5,536C 360,536.5 360.5,537 361,537.5C 363.054,535.942 364.554,533.942 365.5,531.5C 367.488,532.289 367.821,533.455 366.5,535C 367.469,536.758 368.636,537.258 370,536.5C 370.309,537.766 370.809,538.933 371.5,540C 371.167,540.333 370.833,540.667 370.5,541C 373.929,542.195 375.262,544.362 374.5,547.5C 376.322,550.675 378.822,551.675 382,550.5C 383.833,552.333 385.667,554.167 387.5,556C 386.833,556.333 386.167,556.667 385.5,557C 390.963,558.957 393.963,562.791 394.5,568.5C 393.942,569.79 392.942,570.623 391.5,571C 393.418,572.77 393.918,574.937 393,577.5C 391.605,576.185 390.605,576.519 390,578.5C 389.25,577.874 388.416,577.374 387.5,577C 388.833,576 390.167,575 391.5,574C 390.216,573.316 389.049,573.483 388,574.5C 387.517,573.552 387.351,572.552 387.5,571.5C 386.178,571.33 385.011,571.663 384,572.5C 382.887,571.24 382.72,570.073 383.5,569C 379.305,565.221 377.971,566.054 379.5,571.5C 380.85,572.95 382.516,573.617 384.5,573.5C 384.634,575.292 384.301,576.958 383.5,578.5C 356.181,548.821 333.514,515.821 315.5,479.5C 319.309,478.788 322.809,479.788 326,482.5C 326.127,480.366 325.961,478.199 325.5,476C 325.675,474.342 326.342,473.009 327.5,472C 326.833,471.667 326.167,471.333 325.5,471C 326.406,468.779 327.406,466.612 328.5,464.5 Z"/></g>
<g><path style="opacity:1" fill="#2b3642" d="M 468.5,476.5 C 469.482,479.962 469.815,483.629 469.5,487.5C 468.859,494.696 469.192,501.862 470.5,509C 470.167,509.333 469.833,509.667 469.5,510C 472.439,512.973 472.105,515.473 468.5,517.5C 467.808,516.975 467.308,516.308 467,515.5C 466.579,518.265 465.079,519.432 462.5,519C 460.651,517.907 458.984,516.574 457.5,515C 458.987,511.501 457.987,510.167 454.5,511C 453.809,509.933 453.309,508.766 453,507.5C 451.837,509.285 451.17,511.285 451,513.5C 450,510.833 449,510.833 448,513.5C 447.654,511.152 446.487,509.319 444.5,508C 444.957,507.586 445.291,507.086 445.5,506.5C 444.272,504.679 442.606,503.679 440.5,503.5C 434.532,495.19 428.532,486.857 422.5,478.5C 422.34,476.801 422.506,475.134 423,473.5C 424.049,475.107 425.549,475.773 427.5,475.5C 428.291,472.742 428.958,470.242 429.5,468C 427.066,467.667 426.066,468.834 426.5,471.5C 424.54,470.862 422.707,470.862 421,471.5C 419.303,470.636 418.137,469.303 417.5,467.5C 418.289,465.512 419.455,465.179 421,466.5C 421.465,465.069 422.299,463.903 423.5,463C 422.167,462.333 420.833,461.667 419.5,461C 420.931,460.535 422.097,459.701 423,458.5C 423.976,460.887 425.809,462.054 428.5,462C 427.304,462.654 427.304,463.154 428.5,463.5C 429.768,462.572 431.101,462.405 432.5,463C 434.599,465.293 435.433,467.793 435,470.5C 436,470.167 437,469.833 438,469.5C 439.751,471.49 440.751,473.823 441,476.5C 442.145,477.684 443.312,477.684 444.5,476.5C 446.47,478.647 448.303,480.98 450,483.5C 449.876,478.864 449.71,474.198 449.5,469.5C 450.317,467.031 450.817,464.365 451,461.5C 452.787,460.657 454.62,460.49 456.5,461C 456.112,459.192 456.112,457.525 456.5,456C 457.483,455.409 458.15,455.743 458.5,457C 459.137,459.245 459.97,461.412 461,463.5C 460.563,459.557 462.229,457.224 466,456.5C 466.416,464.804 467.082,472.804 468,480.5C 468.49,479.207 468.657,477.873 468.5,476.5 Z"/></g>
<g><path style="opacity:1" fill="#2c3744" d="M 577.5,488.5 C 578.822,488.67 579.989,488.337 581,487.5C 582.423,490.939 584.756,492.272 588,491.5C 588.374,492.416 588.874,493.25 589.5,494C 587.884,494.615 586.551,495.615 585.5,497C 586.833,498 588.167,499 589.5,500C 588.333,501.167 587.167,502.333 586,503.5C 582.54,502.663 579.707,503.829 577.5,507C 580.5,507.333 582.167,509 582.5,512C 580.699,512.317 580.366,512.984 581.5,514C 579.593,514.132 578.093,513.298 577,511.5C 576.05,512.022 575.216,512.689 574.5,513.5C 573.742,512.189 572.742,511.689 571.5,512C 571.421,513.907 571.754,515.907 572.5,518C 571.833,518.333 571.167,518.667 570.5,519C 571.833,520 571.833,521 570.5,522C 572.036,523.599 572.536,525.433 572,527.5C 571.667,527.167 571.333,526.833 571,526.5C 569.921,528.394 568.587,528.727 567,527.5C 566.938,529.115 566.771,530.448 566.5,531.5C 565.839,530.282 565.172,528.949 564.5,527.5C 562.786,528.609 562.119,527.942 562.5,525.5C 563.5,525.5 564.5,525.5 565.5,525.5C 565.5,523.5 565.5,521.5 565.5,519.5C 564.167,519.5 562.833,519.5 561.5,519.5C 561.5,518.167 561.5,516.833 561.5,515.5C 562.873,515.657 564.207,515.49 565.5,515C 565.167,514.667 564.833,514.333 564.5,514C 565.584,511.175 566.751,511.008 568,513.5C 570.655,511.568 572.322,509.235 573,506.5C 571.186,507.76 569.353,507.76 567.5,506.5C 567.709,505.914 568.043,505.414 568.5,505C 566.572,502.545 564.738,502.378 563,504.5C 560.047,501.84 560.214,499.173 563.5,496.5C 562.91,495.201 561.91,494.368 560.5,494C 561.833,493.333 561.833,492.667 560.5,492C 561.784,491.316 562.951,491.483 564,492.5C 564.5,492 565,491.5 565.5,491C 565.09,484.187 566.09,484.02 568.5,490.5C 567.147,493.245 567.314,495.912 569,498.5C 570.242,497.128 571.742,496.128 573.5,495.5C 574.812,496.46 576.146,496.294 577.5,495C 577.167,494.667 576.833,494.333 576.5,494C 577.624,493.751 578.624,493.251 579.5,492.5C 578.147,491.476 577.48,490.143 577.5,488.5 Z"/></g>
<g><path style="opacity:1" fill="#2e3741" d="M 469.5,487.5 C 471.336,502.342 474.003,517.175 477.5,532C 475.453,540.19 470.453,542.857 462.5,540C 455.281,527.723 447.948,515.556 440.5,503.5C 442.606,503.679 444.272,504.679 445.5,506.5C 445.291,507.086 444.957,507.586 444.5,508C 446.487,509.319 447.654,511.152 448,513.5C 449,510.833 450,510.833 451,513.5C 451.17,511.285 451.837,509.285 453,507.5C 453.309,508.766 453.809,509.933 454.5,511C 457.987,510.167 458.987,511.501 457.5,515C 458.984,516.574 460.651,517.907 462.5,519C 465.079,519.432 466.579,518.265 467,515.5C 467.308,516.308 467.808,516.975 468.5,517.5C 472.105,515.473 472.439,512.973 469.5,510C 469.833,509.667 470.167,509.333 470.5,509C 469.192,501.862 468.859,494.696 469.5,487.5 Z"/></g>
<g><path style="opacity:1" fill="#2e3944" d="M 716.5,478.5 C 706.809,498.826 695.142,517.826 681.5,535.5C 680.811,534.226 679.977,534.226 679,535.5C 675.551,531.54 676.384,528.707 681.5,527C 680.833,526.667 680.167,526.333 679.5,526C 681.032,525.3 682.032,524.134 682.5,522.5C 681.998,521.479 681.332,521.312 680.5,522C 679.54,523.419 678.707,524.919 678,526.5C 676.726,522.515 674.726,521.848 672,524.5C 671.71,522.889 670.877,521.556 669.5,520.5C 673.513,514.463 677.513,508.463 681.5,502.5C 682.473,504.3 683.473,506.134 684.5,508C 686.767,508.276 689.1,508.943 691.5,510C 689.071,510.451 688.904,511.285 691,512.5C 692.667,511.167 694.333,511.167 696,512.5C 696.595,511.101 696.428,509.768 695.5,508.5C 696,507.5 696.5,506.5 697,505.5C 697.333,505.833 697.667,506.167 698,506.5C 700.362,504.598 701.529,502.432 701.5,500C 703.974,497.32 704.474,494.487 703,491.5C 702.667,491.833 702.333,492.167 702,492.5C 701.172,488.129 701.339,483.795 702.5,479.5C 703.167,480.5 703.833,481.5 704.5,482.5C 705.329,477.533 705.829,472.533 706,467.5C 706.333,467.167 706.667,466.833 707,466.5C 707.173,471.584 707.839,476.584 709,481.5C 709.333,477.833 709.667,474.167 710,470.5C 711.77,474.01 713.937,476.677 716.5,478.5 Z"/></g>
<g><path style="opacity:1" fill="#2f3a44" d="M 585.5,478.5 C 585.986,480.807 585.986,482.973 585.5,485C 588.692,485.197 591.692,486.03 594.5,487.5C 595.626,485.207 596.959,483.04 598.5,481C 598.167,480.667 597.833,480.333 597.5,480C 598.766,479.691 599.933,479.191 601,478.5C 601.953,480.592 603.286,480.925 605,479.5C 605.278,480.416 605.778,481.082 606.5,481.5C 592.394,500.197 579.394,519.697 567.5,540C 561.767,542.736 557.1,541.569 553.5,536.5C 554.822,536.67 555.989,536.337 557,535.5C 557.249,536.624 557.749,537.624 558.5,538.5C 560.938,535.628 563.438,535.294 566,537.5C 567.722,537.389 567.888,536.889 566.5,536C 567.448,535.517 568.448,535.351 569.5,535.5C 569.5,534.5 569.5,533.5 569.5,532.5C 568.209,532.737 567.209,532.404 566.5,531.5C 566.771,530.448 566.938,529.115 567,527.5C 568.587,528.727 569.921,528.394 571,526.5C 571.333,526.833 571.667,527.167 572,527.5C 572.536,525.433 572.036,523.599 570.5,522C 571.833,521 571.833,520 570.5,519C 571.167,518.667 571.833,518.333 572.5,518C 571.754,515.907 571.421,513.907 571.5,512C 572.742,511.689 573.742,512.189 574.5,513.5C 575.216,512.689 576.05,512.022 577,511.5C 578.093,513.298 579.593,514.132 581.5,514C 580.366,512.984 580.699,512.317 582.5,512C 582.167,509 580.5,507.333 577.5,507C 579.707,503.829 582.54,502.663 586,503.5C 587.167,502.333 588.333,501.167 589.5,500C 588.167,499 586.833,498 585.5,497C 586.551,495.615 587.884,494.615 589.5,494C 588.874,493.25 588.374,492.416 588,491.5C 584.756,492.272 582.423,490.939 581,487.5C 579.989,488.337 578.822,488.67 577.5,488.5C 577.263,487.209 577.596,486.209 578.5,485.5C 578.435,485.938 578.601,486.272 579,486.5C 581.031,483.645 583.197,480.978 585.5,478.5 Z"/></g>
<g><path style="opacity:1" fill="#2c3742" d="M 669.5,520.5 C 670.877,521.556 671.71,522.889 672,524.5C 674.726,521.848 676.726,522.515 678,526.5C 678.707,524.919 679.54,523.419 680.5,522C 681.332,521.312 681.998,521.479 682.5,522.5C 682.032,524.134 681.032,525.3 679.5,526C 680.167,526.333 680.833,526.667 681.5,527C 676.384,528.707 675.551,531.54 679,535.5C 679.977,534.226 680.811,534.226 681.5,535.5C 674.8,546.229 667.133,556.229 658.5,565.5C 656.44,563.852 654.107,562.352 651.5,561C 653.434,558.729 653.434,556.729 651.5,555C 649.544,555.222 647.71,556.055 646,557.5C 645.005,556.934 644.172,556.267 643.5,555.5C 652.142,543.852 660.809,532.185 669.5,520.5 Z"/></g>
<g><path style="opacity:1" fill="#2e3941" d="M 353.5,508.5 C 367.945,529.697 383.612,550.03 400.5,569.5C 399.178,569.33 398.011,569.663 397,570.5C 396.583,569.244 395.75,568.577 394.5,568.5C 393.963,562.791 390.963,558.957 385.5,557C 386.167,556.667 386.833,556.333 387.5,556C 385.667,554.167 383.833,552.333 382,550.5C 378.822,551.675 376.322,550.675 374.5,547.5C 375.262,544.362 373.929,542.195 370.5,541C 370.833,540.667 371.167,540.333 371.5,540C 370.809,538.933 370.309,537.766 370,536.5C 368.636,537.258 367.469,536.758 366.5,535C 367.821,533.455 367.488,532.289 365.5,531.5C 364.554,533.942 363.054,535.942 361,537.5C 360.5,537 360,536.5 359.5,536C 360.724,531.302 359.391,527.469 355.5,524.5C 355.833,523.833 356.167,523.167 356.5,522.5C 355.811,520.556 355.311,518.556 355,516.5C 353.243,515.881 352.076,514.714 351.5,513C 352.414,511.594 353.08,510.094 353.5,508.5 Z"/></g>
<g><path style="opacity:1" fill="#2b3642" d="M 658.5,565.5 C 655.046,570.126 651.379,574.626 647.5,579C 648.448,579.483 649.448,579.649 650.5,579.5C 648.205,580.792 646.372,580.126 645,577.5C 644.333,579.167 644.333,580.833 645,582.5C 647.155,581.317 649.155,581.65 651,583.5C 653.152,582.115 655.485,581.115 658,580.5C 661.616,581.945 665.45,583.778 669.5,586C 666.179,586.212 663.345,587.379 661,589.5C 659.535,588.67 658.035,588.504 656.5,589C 655.565,591.381 655.232,593.881 655.5,596.5C 653.058,596.881 652.391,596.214 653.5,594.5C 652.483,591.972 651.316,591.972 650,594.5C 646.656,594.039 643.489,593.039 640.5,591.5C 638.405,593.589 636.572,593.589 635,591.5C 632.833,593 633,594.167 635.5,595C 632.5,595.667 629.5,595.667 626.5,595C 627.451,594.282 627.617,593.449 627,592.5C 625.506,593.747 624.006,593.747 622.5,592.5C 624.748,591.676 624.914,590.676 623,589.5C 621.374,589.854 619.541,589.854 617.5,589.5C 617.46,592.881 617.793,596.214 618.5,599.5C 617.022,599.762 615.689,599.429 614.5,598.5C 613.096,596.163 612.096,593.997 611.5,592C 612.943,589.922 612.276,589.089 609.5,589.5C 621.167,578.5 632.5,567.167 643.5,555.5C 644.172,556.267 645.005,556.934 646,557.5C 647.71,556.055 649.544,555.222 651.5,555C 653.434,556.729 653.434,558.729 651.5,561C 654.107,562.352 656.44,563.852 658.5,565.5 Z"/></g>
<g><path style="opacity:1" fill="#2b3641" d="M 394.5,568.5 C 395.75,568.577 396.583,569.244 397,570.5C 398.011,569.663 399.178,569.33 400.5,569.5C 408.55,576.716 416.05,584.382 423,592.5C 423.128,602.006 418.628,605.673 409.5,603.5C 406.44,601.911 403.273,600.245 400,598.5C 399.667,599.167 399.333,599.833 399,600.5C 396.762,598.801 394.262,597.468 391.5,596.5C 392.991,595.756 394.491,595.09 396,594.5C 396.27,593.068 395.604,592.068 394,591.5C 392.662,594.019 390.496,595.353 387.5,595.5C 385.531,594.366 383.698,593.033 382,591.5C 380.235,592.232 379.068,593.565 378.5,595.5C 376.633,592.771 375.633,593.104 375.5,596.5C 373.173,596.753 371.173,596.086 369.5,594.5C 370.391,593.41 371.391,593.41 372.5,594.5C 373.386,593.675 373.719,592.675 373.5,591.5C 372.167,591.5 370.833,591.5 369.5,591.5C 369.795,589.265 369.461,587.265 368.5,585.5C 368.389,584.883 368.056,584.383 367.5,584C 370.421,582.302 373.421,580.802 376.5,579.5C 378.167,579.5 379.833,579.5 381.5,579.5C 382.386,580.776 383.386,580.776 384.5,579.5C 384.376,578.893 384.043,578.56 383.5,578.5C 384.301,576.958 384.634,575.292 384.5,573.5C 382.516,573.617 380.85,572.95 379.5,571.5C 377.971,566.054 379.305,565.221 383.5,569C 382.72,570.073 382.887,571.24 384,572.5C 385.011,571.663 386.178,571.33 387.5,571.5C 387.351,572.552 387.517,573.552 388,574.5C 389.049,573.483 390.216,573.316 391.5,574C 390.167,575 388.833,576 387.5,577C 388.416,577.374 389.25,577.874 390,578.5C 390.605,576.519 391.605,576.185 393,577.5C 393.918,574.937 393.418,572.77 391.5,571C 392.942,570.623 393.942,569.79 394.5,568.5 Z"/></g>
<g><path style="opacity:1" fill="#2c3742" d="M 376.5,579.5 C 373.421,580.802 370.421,582.302 367.5,584C 368.056,584.383 368.389,584.883 368.5,585.5C 366.442,588.213 363.776,590.213 360.5,591.5C 359.719,590.271 359.219,588.938 359,587.5C 358.5,588.667 357.667,589.5 356.5,590C 356.833,590.333 357.167,590.667 357.5,591C 354.653,591.944 352.153,591.444 350,589.5C 349.692,590.308 349.192,590.975 348.5,591.5C 348.167,590.833 347.833,590.167 347.5,589.5C 346.808,590.025 346.308,590.692 346,591.5C 345.612,590.572 344.945,589.905 344,589.5C 341.845,590.579 339.845,591.913 338,593.5C 337.751,592.376 337.251,591.376 336.5,590.5C 335.304,590.846 335.304,591.346 336.5,592C 334.32,592.419 332.154,592.252 330,591.5C 325.731,592.765 322.231,594.098 319.5,595.5C 316.398,595.503 316.065,595.003 318.5,594C 317.478,591.684 315.978,591.184 314,592.5C 312.667,591.833 311.667,590.833 311,589.5C 310.311,590.357 309.478,591.023 308.5,591.5C 307.304,591.154 307.304,590.654 308.5,590C 307.552,589.517 306.552,589.351 305.5,589.5C 306.23,587.955 307.563,587.122 309.5,587C 307.222,584.814 304.556,583.98 301.5,584.5C 306.202,583.772 310.202,581.772 313.5,578.5C 334.679,576.94 355.679,577.273 376.5,579.5 Z"/></g>
<g><path style="opacity:1" fill="#545e66" d="M 383.5,578.5 C 384.043,578.56 384.376,578.893 384.5,579.5C 383.386,580.776 382.386,580.776 381.5,579.5C 382.492,579.672 383.158,579.338 383.5,578.5 Z"/></g>
<g><path style="opacity:1" fill="#2c3740" d="M 650.5,579.5 C 668.777,577.751 687.111,577.085 705.5,577.5C 707.382,578.237 708.048,579.404 707.5,581C 708.5,581.333 709.5,581.667 710.5,582C 709.773,583.399 709.273,584.899 709,586.5C 704.98,584.425 700.813,583.758 696.5,584.5C 695.614,585.325 695.281,586.325 695.5,587.5C 692.881,587.232 690.381,587.565 688,588.5C 686.462,586.671 686.962,585.171 689.5,584C 688.167,583.333 688.167,582.667 689.5,582C 688.24,580.887 687.073,580.72 686,581.5C 682.902,580.698 679.735,580.031 676.5,579.5C 674.813,579.76 673.313,580.427 672,581.5C 671.667,580.833 671.333,580.167 671,579.5C 670.48,581.289 670.813,582.956 672,584.5C 675.996,585.147 679.162,586.147 681.5,587.5C 681.577,590.509 680.244,592.676 677.5,594C 680.833,594.333 684.167,594.667 687.5,595C 685.292,595.191 683.292,595.691 681.5,596.5C 660.042,596.896 638.876,599.562 618,604.5C 609.037,603.027 606.203,598.027 609.5,589.5C 612.276,589.089 612.943,589.922 611.5,592C 612.096,593.997 613.096,596.163 614.5,598.5C 615.689,599.429 617.022,599.762 618.5,599.5C 617.793,596.214 617.46,592.881 617.5,589.5C 619.541,589.854 621.374,589.854 623,589.5C 624.914,590.676 624.748,591.676 622.5,592.5C 624.006,593.747 625.506,593.747 627,592.5C 627.617,593.449 627.451,594.282 626.5,595C 629.5,595.667 632.5,595.667 635.5,595C 633,594.167 632.833,593 635,591.5C 636.572,593.589 638.405,593.589 640.5,591.5C 643.489,593.039 646.656,594.039 650,594.5C 651.316,591.972 652.483,591.972 653.5,594.5C 652.391,596.214 653.058,596.881 655.5,596.5C 655.232,593.881 655.565,591.381 656.5,589C 658.035,588.504 659.535,588.67 661,589.5C 663.345,587.379 666.179,586.212 669.5,586C 665.45,583.778 661.616,581.945 658,580.5C 655.485,581.115 653.152,582.115 651,583.5C 649.155,581.65 647.155,581.317 645,582.5C 644.333,580.833 644.333,579.167 645,577.5C 646.372,580.126 648.205,580.792 650.5,579.5 Z"/></g>
<g><path style="opacity:1" fill="#2e3842" d="M 705.5,577.5 C 728.127,578.62 750.46,581.62 772.5,586.5C 770.038,587.666 767.705,588.999 765.5,590.5C 766.025,591.192 766.692,591.692 767.5,592C 766.167,592.667 764.833,593.333 763.5,594C 765.303,595.262 766.636,596.929 767.5,599C 766.167,599.333 764.833,599.667 763.5,600C 765.167,601 766.833,602 768.5,603C 767.944,603.383 767.611,603.883 767.5,604.5C 739.126,598.796 710.459,596.129 681.5,596.5C 683.292,595.691 685.292,595.191 687.5,595C 684.167,594.667 680.833,594.333 677.5,594C 680.244,592.676 681.577,590.509 681.5,587.5C 679.162,586.147 675.996,585.147 672,584.5C 670.813,582.956 670.48,581.289 671,579.5C 671.333,580.167 671.667,580.833 672,581.5C 673.313,580.427 674.813,579.76 676.5,579.5C 679.735,580.031 682.902,580.698 686,581.5C 687.073,580.72 688.24,580.887 689.5,582C 688.167,582.667 688.167,583.333 689.5,584C 686.962,585.171 686.462,586.671 688,588.5C 690.381,587.565 692.881,587.232 695.5,587.5C 695.281,586.325 695.614,585.325 696.5,584.5C 700.813,583.758 704.98,584.425 709,586.5C 709.273,584.899 709.773,583.399 710.5,582C 709.5,581.667 708.5,581.333 707.5,581C 708.048,579.404 707.382,578.237 705.5,577.5 Z"/></g>
<g><path style="opacity:1" fill="#2e3942" d="M 368.5,585.5 C 369.461,587.265 369.795,589.265 369.5,591.5C 370.833,591.5 372.167,591.5 373.5,591.5C 373.719,592.675 373.386,593.675 372.5,594.5C 371.391,593.41 370.391,593.41 369.5,594.5C 371.173,596.086 373.173,596.753 375.5,596.5C 375.633,593.104 376.633,592.771 378.5,595.5C 379.068,593.565 380.235,592.232 382,591.5C 383.698,593.033 385.531,594.366 387.5,595.5C 390.496,595.353 392.662,594.019 394,591.5C 395.604,592.068 396.27,593.068 396,594.5C 394.491,595.09 392.991,595.756 391.5,596.5C 394.262,597.468 396.762,598.801 399,600.5C 399.333,599.833 399.667,599.167 400,598.5C 403.273,600.245 406.44,601.911 409.5,603.5C 372.775,596.273 335.775,594.606 298.5,598.5C 297.833,598.167 297.167,597.833 296.5,597.5C 296.389,596.883 296.056,596.383 295.5,596C 297.279,596.979 298.945,596.646 300.5,595C 299.167,594.667 297.833,594.333 296.5,594C 299.109,591.787 302.109,590.287 305.5,589.5C 306.552,589.351 307.552,589.517 308.5,590C 307.304,590.654 307.304,591.154 308.5,591.5C 309.478,591.023 310.311,590.357 311,589.5C 311.667,590.833 312.667,591.833 314,592.5C 315.978,591.184 317.478,591.684 318.5,594C 316.065,595.003 316.398,595.503 319.5,595.5C 322.231,594.098 325.731,592.765 330,591.5C 332.154,592.252 334.32,592.419 336.5,592C 335.304,591.346 335.304,590.846 336.5,590.5C 337.251,591.376 337.751,592.376 338,593.5C 339.845,591.913 341.845,590.579 344,589.5C 344.945,589.905 345.612,590.572 346,591.5C 346.308,590.692 346.808,590.025 347.5,589.5C 347.833,590.167 348.167,590.833 348.5,591.5C 349.192,590.975 349.692,590.308 350,589.5C 352.153,591.444 354.653,591.944 357.5,591C 357.167,590.667 356.833,590.333 356.5,590C 357.667,589.5 358.5,588.667 359,587.5C 359.219,588.938 359.719,590.271 360.5,591.5C 363.776,590.213 366.442,588.213 368.5,585.5 Z"/></g>
<g><path style="opacity:1" fill="#2d3742" d="M 313.5,578.5 C 310.202,581.772 306.202,583.772 301.5,584.5C 304.556,583.98 307.222,584.814 309.5,587C 307.563,587.122 306.23,587.955 305.5,589.5C 302.109,590.287 299.109,591.787 296.5,594C 297.833,594.333 299.167,594.667 300.5,595C 298.945,596.646 297.279,596.979 295.5,596C 296.056,596.383 296.389,596.883 296.5,597.5C 293.663,597.271 290.663,597.104 287.5,597C 290.817,595.915 291.151,594.415 288.5,592.5C 286.356,595.634 283.356,597.467 279.5,598C 277.602,599.417 275.936,600.917 274.5,602.5C 270.736,603.12 267.069,604.12 263.5,605.5C 276.218,613.861 289.552,621.194 303.5,627.5C 303.22,630.272 303.887,632.772 305.5,635C 303.699,635.317 303.366,635.984 304.5,637C 302.624,638.375 300.624,639.542 298.5,640.5C 299.506,641.396 299.506,642.062 298.5,642.5C 296.172,641.783 294.005,640.783 292,639.5C 290.989,640.056 290.156,640.722 289.5,641.5C 275.696,635.768 262.696,628.768 250.5,620.5C 253.551,620.454 256.218,621.454 258.5,623.5C 262.319,621.932 265.319,619.432 267.5,616C 266.167,614.667 264.833,613.333 263.5,612C 266.277,609.827 266.11,609.327 263,610.5C 261.745,609.789 260.579,608.956 259.5,608C 261.968,605.284 261.968,602.451 259.5,599.5C 261.412,599.512 263.412,599.179 265.5,598.5C 266.833,597.5 266.833,596.5 265.5,595.5C 262.286,595.616 258.953,595.282 255.5,594.5C 254.469,593.3 253.635,591.966 253,590.5C 249.137,590.506 245.303,591.006 241.5,592C 241.833,593.667 242.167,595.333 242.5,597C 241.718,599.74 241.218,602.574 241,605.5C 238.782,603.908 237.115,601.908 236,599.5C 234.293,600.138 232.46,600.138 230.5,599.5C 230.5,598.5 230.5,597.5 230.5,596.5C 231.219,594.112 232.885,592.612 235.5,592C 260.997,584.584 286.997,580.084 313.5,578.5 Z"/></g>
<g><path style="opacity:1" fill="#2d3742" d="M 250.5,620.5 C 243.435,616.214 236.602,611.547 230,606.5C 227.883,602.934 228.05,599.6 230.5,596.5C 230.5,597.5 230.5,598.5 230.5,599.5C 232.46,600.138 234.293,600.138 236,599.5C 237.115,601.908 238.782,603.908 241,605.5C 241.218,602.574 241.718,599.74 242.5,597C 242.167,595.333 241.833,593.667 241.5,592C 245.303,591.006 249.137,590.506 253,590.5C 253.635,591.966 254.469,593.3 255.5,594.5C 258.953,595.282 262.286,595.616 265.5,595.5C 266.833,596.5 266.833,597.5 265.5,598.5C 263.412,599.179 261.412,599.512 259.5,599.5C 261.968,602.451 261.968,605.284 259.5,608C 260.579,608.956 261.745,609.789 263,610.5C 266.11,609.327 266.277,609.827 263.5,612C 264.833,613.333 266.167,614.667 267.5,616C 265.319,619.432 262.319,621.932 258.5,623.5C 256.218,621.454 253.551,620.454 250.5,620.5 Z"/></g>
<g><path style="opacity:1" fill="#343e46" d="M 296.5,597.5 C 297.167,597.833 297.833,598.167 298.5,598.5C 290.665,600.028 282.665,601.361 274.5,602.5C 275.936,600.917 277.602,599.417 279.5,598C 283.356,597.467 286.356,595.634 288.5,592.5C 291.151,594.415 290.817,595.915 287.5,597C 290.663,597.104 293.663,597.271 296.5,597.5 Z"/></g>
<g><path style="opacity:1" fill="#2f3843" d="M 772.5,586.5 C 780.189,588.172 787.856,590.005 795.5,592C 802.924,596.671 803.924,602.337 798.5,609C 786.108,617.862 773.108,625.695 759.5,632.5C 759.082,631.778 758.416,631.278 757.5,631C 758.167,630.667 758.833,630.333 759.5,630C 758.333,629.5 757.5,628.667 757,627.5C 755.493,628.535 753.993,628.368 752.5,627C 753.567,624.902 754.067,622.735 754,620.5C 752.612,621.554 751.112,621.72 749.5,621C 748.922,619.583 747.922,618.75 746.5,618.5C 753.256,614.93 759.923,611.097 766.5,607C 767.252,606.329 767.586,605.496 767.5,604.5C 767.611,603.883 767.944,603.383 768.5,603C 766.833,602 765.167,601 763.5,600C 764.833,599.667 766.167,599.333 767.5,599C 766.636,596.929 765.303,595.262 763.5,594C 764.833,593.333 766.167,592.667 767.5,592C 766.692,591.692 766.025,591.192 765.5,590.5C 767.705,588.999 770.038,587.666 772.5,586.5 Z"/></g>
<g><path style="opacity:1" fill="#2d3742" d="M 746.5,618.5 C 747.922,618.75 748.922,619.583 749.5,621C 751.112,621.72 752.612,621.554 754,620.5C 754.067,622.735 753.567,624.902 752.5,627C 753.993,628.368 755.493,628.535 757,627.5C 757.5,628.667 758.333,629.5 759.5,630C 758.833,630.333 758.167,630.667 757.5,631C 758.416,631.278 759.082,631.778 759.5,632.5C 752.215,637.147 744.548,641.313 736.5,645C 725.737,649.864 714.737,654.031 703.5,657.5C 701.557,656.922 701.223,655.922 702.5,654.5C 701.672,653.585 700.672,652.919 699.5,652.5C 696.775,655.931 694.609,656.264 693,653.5C 691.662,654.506 690.329,655.506 689,656.5C 685.984,654.712 683.484,652.379 681.5,649.5C 681.556,648.263 682.056,647.263 683,646.5C 684.667,647.833 686.333,647.833 688,646.5C 688.782,649.073 690.282,651.073 692.5,652.5C 692.833,652 693.167,651.5 693.5,651C 692.704,649.908 692.037,648.741 691.5,647.5C 693.6,645.636 694.933,643.303 695.5,640.5C 712.994,634.335 729.994,627.001 746.5,618.5 Z"/></g>
<g><path style="opacity:1" fill="#2e3841" d="M 303.5,627.5 C 331.974,640.324 361.641,649.324 392.5,654.5C 392.649,655.552 392.483,656.552 392,657.5C 390.732,657.384 389.398,657.051 388,656.5C 385.219,656.895 383.053,658.228 381.5,660.5C 381.479,662.602 381.813,664.768 382.5,667C 381.245,669.46 379.245,670.627 376.5,670.5C 346.006,665.002 317.006,655.335 289.5,641.5C 290.156,640.722 290.989,640.056 292,639.5C 294.005,640.783 296.172,641.783 298.5,642.5C 299.506,642.062 299.506,641.396 298.5,640.5C 300.624,639.542 302.624,638.375 304.5,637C 303.366,635.984 303.699,635.317 305.5,635C 303.887,632.772 303.22,630.272 303.5,627.5 Z"/></g>
<g><path style="opacity:1" fill="#2d3741" d="M 404.5,656.5 C 415.834,656.921 427.167,657.421 438.5,658C 444.214,661.477 445.714,666.31 443,672.5C 435.228,678.962 427.394,685.295 419.5,691.5C 418.734,688.688 420.067,686.855 423.5,686C 422.667,684.5 421.5,683.333 420,682.5C 418.98,676.251 417.813,676.584 416.5,683.5C 415.738,682.372 415.071,681.205 414.5,680C 416.283,678.933 416.783,677.433 416,675.5C 414.657,676.214 413.324,675.88 412,674.5C 411.242,672.231 411.409,670.064 412.5,668C 410.203,666.84 410.536,665.84 413.5,665C 409.048,662.791 405.048,660.124 401.5,657C 402.448,656.517 403.448,656.351 404.5,656.5 Z"/></g>
<g><path style="opacity:1" fill="#2d3842" d="M 695.5,640.5 C 694.933,643.303 693.6,645.636 691.5,647.5C 692.037,648.741 692.704,649.908 693.5,651C 693.167,651.5 692.833,652 692.5,652.5C 690.282,651.073 688.782,649.073 688,646.5C 686.333,647.833 684.667,647.833 683,646.5C 682.056,647.263 681.556,648.263 681.5,649.5C 683.484,652.379 685.984,654.712 689,656.5C 690.329,655.506 691.662,654.506 693,653.5C 694.609,656.264 696.775,655.931 699.5,652.5C 700.672,652.919 701.672,653.585 702.5,654.5C 701.223,655.922 701.557,656.922 703.5,657.5C 692.623,662.057 681.289,665.39 669.5,667.5C 666.91,666.463 664.243,666.463 661.5,667.5C 659.519,667.563 657.852,666.896 656.5,665.5C 654.995,668.131 654.329,667.797 654.5,664.5C 653.304,663.117 651.47,662.45 649,662.5C 647.887,664.8 646.387,665.133 644.5,663.5C 642.028,664.992 639.361,665.658 636.5,665.5C 636.906,663.891 636.906,662.557 636.5,661.5C 635.833,662.167 635.167,662.833 634.5,663.5C 633.452,662.617 632.285,661.95 631,661.5C 630.894,662.794 629.894,663.461 628,663.5C 626.463,662.886 625.13,662.886 624,663.5C 622.057,661.285 620.391,661.285 619,663.5C 618.667,662.833 618.333,662.167 618,661.5C 617.573,664.493 616.406,664.993 614.5,663C 615.706,661.982 615.373,661.482 613.5,661.5C 612.833,661.667 612.167,661.833 611.5,662C 613.481,662.605 613.815,663.605 612.5,665C 614.134,665.494 615.801,665.66 617.5,665.5C 617.63,668.237 616.464,670.237 614,671.5C 612.121,669.987 609.954,669.321 607.5,669.5C 606.768,666.863 606.768,664.363 607.5,662C 606.056,661.219 604.723,661.386 603.5,662.5C 604.441,662.489 605.108,662.989 605.5,664C 603.663,667.612 601.329,668.112 598.5,665.5C 598.167,666.167 597.833,666.833 597.5,667.5C 596.255,666.045 596.422,664.711 598,663.5C 599,663.833 600,664.167 601,664.5C 601.5,664 602,663.5 602.5,663C 596.173,658.686 591.506,659.853 588.5,666.5C 589.615,667.598 589.615,668.765 588.5,670C 592.139,675.294 597.139,678.628 603.5,680C 603.348,681.924 603.348,683.758 603.5,685.5C 597.848,681.014 592.348,676.348 587,671.5C 585.28,665.798 586.78,661.298 591.5,658C 627.158,657.89 661.825,652.057 695.5,640.5 Z"/></g>
<g><path style="opacity:1" fill="#2c3742" d="M 636.5,665.5 C 636.565,665.938 636.399,666.272 636,666.5C 635.667,665.833 635.333,665.167 635,664.5C 632.37,665.962 629.87,667.629 627.5,669.5C 626.164,668.577 624.83,668.077 623.5,668C 622.697,669.991 621.697,672.325 620.5,675C 620.728,675.399 621.062,675.565 621.5,675.5C 624.5,678.833 627.5,682.167 630.5,685.5C 630.657,686.873 630.49,688.207 630,689.5C 626.178,690.787 625.678,692.787 628.5,695.5C 629.451,694.674 630.451,694.508 631.5,695C 630.85,696.609 631.35,698.109 633,699.5C 633.669,696.972 634.502,696.972 635.5,699.5C 633.197,700.642 631.03,701.975 629,703.5C 627.018,703.01 625.351,702.01 624,700.5C 623.005,701.066 622.172,701.733 621.5,702.5C 615.5,696.833 609.5,691.167 603.5,685.5C 603.348,683.758 603.348,681.924 603.5,680C 597.139,678.628 592.139,675.294 588.5,670C 589.615,668.765 589.615,667.598 588.5,666.5C 591.506,659.853 596.173,658.686 602.5,663C 602,663.5 601.5,664 601,664.5C 600,664.167 599,663.833 598,663.5C 596.422,664.711 596.255,666.045 597.5,667.5C 597.833,666.833 598.167,666.167 598.5,665.5C 601.329,668.112 603.663,667.612 605.5,664C 605.108,662.989 604.441,662.489 603.5,662.5C 604.723,661.386 606.056,661.219 607.5,662C 606.768,664.363 606.768,666.863 607.5,669.5C 609.954,669.321 612.121,669.987 614,671.5C 616.464,670.237 617.63,668.237 617.5,665.5C 615.801,665.66 614.134,665.494 612.5,665C 613.815,663.605 613.481,662.605 611.5,662C 612.167,661.833 612.833,661.667 613.5,661.5C 615.373,661.482 615.706,661.982 614.5,663C 616.406,664.993 617.573,664.493 618,661.5C 618.333,662.167 618.667,662.833 619,663.5C 620.391,661.285 622.057,661.285 624,663.5C 625.13,662.886 626.463,662.886 628,663.5C 629.894,663.461 630.894,662.794 631,661.5C 632.285,661.95 633.452,662.617 634.5,663.5C 635.167,662.833 635.833,662.167 636.5,661.5C 636.906,662.557 636.906,663.891 636.5,665.5 Z"/></g>
<g><path style="opacity:1" fill="#2b3946" d="M 525.5,684.5 C 524.312,685.364 523.145,686.364 522,687.5C 521.667,687.167 521.333,686.833 521,686.5C 520,688.833 518.333,690.5 516,691.5C 515.667,691.167 515.333,690.833 515,690.5C 513.698,694.324 512.198,694.324 510.5,690.5C 511.855,689.325 511.688,688.325 510,687.5C 509.824,684.118 509.324,680.785 508.5,677.5C 507.481,676.313 506.314,675.313 505,674.5C 504.667,674.833 504.333,675.167 504,675.5C 503.691,674.234 503.191,673.067 502.5,672C 504.032,671.3 505.032,670.134 505.5,668.5C 504.948,666.997 504.948,665.331 505.5,663.5C 507.258,663.123 508.925,662.456 510.5,661.5C 513.05,666.091 516.217,666.091 520,661.5C 523.602,664.768 526.435,668.601 528.5,673C 527.313,675.774 525.98,678.441 524.5,681C 525.337,682.011 525.67,683.178 525.5,684.5 Z"/></g>
<g><path style="opacity:1" fill="#313b44" d="M 669.5,667.5 C 653.876,671.66 637.876,674.326 621.5,675.5C 621.062,675.565 620.728,675.399 620.5,675C 621.697,672.325 622.697,669.991 623.5,668C 624.83,668.077 626.164,668.577 627.5,669.5C 629.87,667.629 632.37,665.962 635,664.5C 635.333,665.167 635.667,665.833 636,666.5C 636.399,666.272 636.565,665.938 636.5,665.5C 639.361,665.658 642.028,664.992 644.5,663.5C 646.387,665.133 647.887,664.8 649,662.5C 651.47,662.45 653.304,663.117 654.5,664.5C 654.329,667.797 654.995,668.131 656.5,665.5C 657.852,666.896 659.519,667.563 661.5,667.5C 664.243,666.463 666.91,666.463 669.5,667.5 Z"/></g>
<g><path style="opacity:1" fill="#2b3641" d="M 505.5,663.5 C 504.948,665.331 504.948,666.997 505.5,668.5C 505.032,670.134 504.032,671.3 502.5,672C 503.191,673.067 503.691,674.234 504,675.5C 504.333,675.167 504.667,674.833 505,674.5C 506.314,675.313 507.481,676.313 508.5,677.5C 509.324,680.785 509.824,684.118 510,687.5C 511.688,688.325 511.855,689.325 510.5,690.5C 512.198,694.324 513.698,694.324 515,690.5C 515.333,690.833 515.667,691.167 516,691.5C 518.333,690.5 520,688.833 521,686.5C 521.333,686.833 521.667,687.167 522,687.5C 523.145,686.364 524.312,685.364 525.5,684.5C 527.379,684.393 527.712,684.893 526.5,686C 528.731,688.47 528.731,690.803 526.5,693C 527.833,693.333 529.167,693.667 530.5,694C 530.5,695 530.5,696 530.5,697C 531.448,697.483 532.448,697.649 533.5,697.5C 533.771,699.38 533.104,700.713 531.5,701.5C 529.186,699.523 526.853,697.523 524.5,695.5C 523.548,697.045 523.215,698.712 523.5,700.5C 522.312,701.048 521.145,701.381 520,701.5C 519.667,699.5 519.333,697.5 519,695.5C 517.853,696.458 516.853,696.125 516,694.5C 514.716,695.572 514.383,696.905 515,698.5C 513.719,698.381 512.552,698.881 511.5,700C 511.381,701.281 511.881,702.448 513,703.5C 514.667,703.5 516.333,703.5 518,703.5C 519.128,705.345 519.628,707.345 519.5,709.5C 516.617,710.31 513.783,710.31 511,709.5C 510.5,709.667 510,709.833 509.5,710C 510.451,710.718 510.617,711.551 510,712.5C 508.644,711.62 507.144,711.286 505.5,711.5C 505.821,706.305 505.487,701.305 504.5,696.5C 502.833,697.833 501.167,699.167 499.5,700.5C 498.842,699.602 498.176,698.602 497.5,697.5C 496.833,699.167 496.167,700.833 495.5,702.5C 492.312,699.987 489.312,700.32 486.5,703.5C 483.737,700.579 483.904,697.913 487,695.5C 489.323,699.973 491.823,700.307 494.5,696.5C 492.955,695.548 491.288,695.215 489.5,695.5C 488.377,693.042 488.377,690.875 489.5,689C 487.803,688.616 486.137,688.782 484.5,689.5C 492.289,681.388 499.289,672.721 505.5,663.5 Z"/></g>
<g><path style="opacity:1" fill="#535c63" d="M 403.5,674.5 C 405.604,674.201 407.604,674.534 409.5,675.5C 409.376,676.107 409.043,676.44 408.5,676.5C 406.833,675.833 405.167,675.167 403.5,674.5 Z"/></g>
<g><path style="opacity:1" fill="#2f3a45" d="M 392.5,654.5 C 396.684,654.851 400.684,655.518 404.5,656.5C 403.448,656.351 402.448,656.517 401.5,657C 405.048,660.124 409.048,662.791 413.5,665C 410.536,665.84 410.203,666.84 412.5,668C 411.409,670.064 411.242,672.231 412,674.5C 413.324,675.88 414.657,676.214 416,675.5C 416.783,677.433 416.283,678.933 414.5,680C 415.071,681.205 415.738,682.372 416.5,683.5C 417.813,676.584 418.98,676.251 420,682.5C 421.5,683.333 422.667,684.5 423.5,686C 420.067,686.855 418.734,688.688 419.5,691.5C 416.833,694.833 413.833,697.833 410.5,700.5C 404.28,693.973 405.613,689.14 414.5,686C 412.888,685.28 411.388,685.446 410,686.5C 409.667,685.5 409.333,684.5 409,683.5C 407.025,686.409 404.525,687.409 401.5,686.5C 399.823,687.187 398.156,687.854 396.5,688.5C 400.194,684.14 404.194,680.14 408.5,676.5C 409.043,676.44 409.376,676.107 409.5,675.5C 407.604,674.534 405.604,674.201 403.5,674.5C 394.207,674.268 385.207,672.935 376.5,670.5C 379.245,670.627 381.245,669.46 382.5,667C 381.813,664.768 381.479,662.602 381.5,660.5C 383.053,658.228 385.219,656.895 388,656.5C 389.398,657.051 390.732,657.384 392,657.5C 392.483,656.552 392.649,655.552 392.5,654.5 Z"/></g>
<g><path style="opacity:1" fill="#2e3842" d="M 559.5,700.5 C 557.704,701.793 556.037,703.293 554.5,705C 555.167,705.667 555.833,706.333 556.5,707C 554.606,708.101 553.939,709.434 554.5,711C 552.231,711.758 550.064,711.591 548,710.5C 547.5,711 547,711.5 546.5,712C 548.141,713.129 549.141,714.629 549.5,716.5C 542.891,712.224 536.891,707.224 531.5,701.5C 533.104,700.713 533.771,699.38 533.5,697.5C 532.448,697.649 531.448,697.483 530.5,697C 530.5,696 530.5,695 530.5,694C 529.167,693.667 527.833,693.333 526.5,693C 528.731,690.803 528.731,688.47 526.5,686C 527.712,684.893 527.379,684.393 525.5,684.5C 525.67,683.178 525.337,682.011 524.5,681C 525.98,678.441 527.313,675.774 528.5,673C 526.435,668.601 523.602,664.768 520,661.5C 516.217,666.091 513.05,666.091 510.5,661.5C 508.925,662.456 507.258,663.123 505.5,663.5C 508.668,657.713 513.335,655.88 519.5,658C 531.009,674.005 544.342,688.172 559.5,700.5 Z"/></g>
<g><path style="opacity:1" fill="#2d3942" d="M 499.5,700.5 C 481.741,717.56 461.408,730.893 438.5,740.5C 438.829,737.968 439.995,736.968 442,737.5C 443.487,736.747 443.654,735.914 442.5,735C 447.5,735.307 447.834,733.64 443.5,730C 444.758,727.815 444.758,725.648 443.5,723.5C 445.764,721.557 448.43,719.39 451.5,717C 449.519,715.369 447.519,715.535 445.5,717.5C 444.893,717.376 444.56,717.043 444.5,716.5C 458.553,708.48 471.886,699.48 484.5,689.5C 486.137,688.782 487.803,688.616 489.5,689C 488.377,690.875 488.377,693.042 489.5,695.5C 491.288,695.215 492.955,695.548 494.5,696.5C 491.823,700.307 489.323,699.973 487,695.5C 483.904,697.913 483.737,700.579 486.5,703.5C 489.312,700.32 492.312,699.987 495.5,702.5C 496.167,700.833 496.833,699.167 497.5,697.5C 498.176,698.602 498.842,699.602 499.5,700.5 Z"/></g>
<g><path style="opacity:1" fill="#2e3841" d="M 630.5,685.5 C 641.713,696.045 651.046,708.045 658.5,721.5C 657.061,722.509 655.728,722.176 654.5,720.5C 655.641,719.575 655.641,718.741 654.5,718C 653.128,717.598 651.795,717.098 650.5,716.5C 649.575,717.641 648.741,717.641 648,716.5C 647.641,719.544 646.974,719.878 646,717.5C 645.667,718.833 645.333,720.167 645,721.5C 643.719,721.381 642.552,721.881 641.5,723C 642.833,723.667 642.833,724.333 641.5,725C 643.891,725.691 643.891,726.691 641.5,728C 642.337,729.011 642.67,730.178 642.5,731.5C 635.894,721.559 628.894,711.892 621.5,702.5C 622.172,701.733 623.005,701.066 624,700.5C 625.351,702.01 627.018,703.01 629,703.5C 631.03,701.975 633.197,700.642 635.5,699.5C 634.502,696.972 633.669,696.972 633,699.5C 631.35,698.109 630.85,696.609 631.5,695C 630.451,694.508 629.451,694.674 628.5,695.5C 625.678,692.787 626.178,690.787 630,689.5C 630.49,688.207 630.657,686.873 630.5,685.5 Z"/></g>
<g><path style="opacity:1" fill="#2c3740" d="M 523.5,700.5 C 523.5,725.5 523.5,750.5 523.5,775.5C 522.508,767.684 522.174,759.684 522.5,751.5C 520.223,750.925 518.223,750.591 516.5,750.5C 518.548,749.544 520.548,748.544 522.5,747.5C 522.167,746.5 521.5,745.833 520.5,745.5C 519.468,747.04 518.135,747.54 516.5,747C 520.609,744.046 521.609,740.546 519.5,736.5C 521.96,729.36 522.127,722.36 520,715.5C 519.667,716.167 519.333,716.833 519,717.5C 514.898,715.867 510.565,714.867 506,714.5C 505.5,736.831 505.333,759.164 505.5,781.5C 504.502,753.338 504.169,725.005 504.5,696.5C 505.487,701.305 505.821,706.305 505.5,711.5C 507.144,711.286 508.644,711.62 510,712.5C 510.617,711.551 510.451,710.718 509.5,710C 510,709.833 510.5,709.667 511,709.5C 513.783,710.31 516.617,710.31 519.5,709.5C 519.628,707.345 519.128,705.345 518,703.5C 516.333,703.5 514.667,703.5 513,703.5C 511.881,702.448 511.381,701.281 511.5,700C 512.552,698.881 513.719,698.381 515,698.5C 514.383,696.905 514.716,695.572 516,694.5C 516.853,696.125 517.853,696.458 519,695.5C 519.333,697.5 519.667,699.5 520,701.5C 521.145,701.381 522.312,701.048 523.5,700.5 Z"/></g>
<g><path style="opacity:1" fill="#2c3742" d="M 410.5,700.5 C 400.613,711.929 391.946,724.262 384.5,737.5C 384.624,738.107 384.957,738.44 385.5,738.5C 389.694,739.793 393.527,739.126 397,736.5C 397.333,737.167 397.667,737.833 398,738.5C 399.333,737.833 400.667,737.167 402,736.5C 403,738.833 404,741.167 405,743.5C 405.49,742.207 405.657,740.873 405.5,739.5C 408.346,739.97 410.679,739.137 412.5,737C 411.551,736.383 410.718,736.549 410,737.5C 409.544,736.256 410.044,735.423 411.5,735C 411.167,734.667 410.833,734.333 410.5,734C 411.766,733.691 412.933,733.191 414,732.5C 414.333,732.833 414.667,733.167 415,733.5C 415.388,732.572 416.055,731.905 417,731.5C 418.944,732.439 420.611,733.773 422,735.5C 423.908,734.921 425.575,734.921 427,735.5C 424.466,737.277 422.8,739.944 422,743.5C 420.983,740.972 419.816,740.972 418.5,743.5C 417.833,742.833 417.167,742.167 416.5,741.5C 413.639,741.876 410.639,742.543 407.5,743.5C 407.286,745.144 407.62,746.644 408.5,748C 404.763,747.269 403.763,748.769 405.5,752.5C 392.744,756.386 379.744,759.386 366.5,761.5C 360.181,761.181 356.848,757.848 356.5,751.5C 365.878,727.829 379.211,706.829 396.5,688.5C 398.156,687.854 399.823,687.187 401.5,686.5C 404.525,687.409 407.025,686.409 409,683.5C 409.333,684.5 409.667,685.5 410,686.5C 411.388,685.446 412.888,685.28 414.5,686C 405.613,689.14 404.28,693.973 410.5,700.5 Z"/></g>
<g><path style="opacity:1" fill="#2c3841" d="M 438.5,740.5 C 427.811,745.286 416.811,749.286 405.5,752.5C 403.763,748.769 404.763,747.269 408.5,748C 407.62,746.644 407.286,745.144 407.5,743.5C 410.639,742.543 413.639,741.876 416.5,741.5C 417.167,742.167 417.833,742.833 418.5,743.5C 419.816,740.972 420.983,740.972 422,743.5C 422.8,739.944 424.466,737.277 427,735.5C 425.575,734.921 423.908,734.921 422,735.5C 420.611,733.773 418.944,732.439 417,731.5C 416.055,731.905 415.388,732.572 415,733.5C 414.667,733.167 414.333,732.833 414,732.5C 412.933,733.191 411.766,733.691 410.5,734C 410.833,734.333 411.167,734.667 411.5,735C 410.044,735.423 409.544,736.256 410,737.5C 410.718,736.549 411.551,736.383 412.5,737C 410.679,739.137 408.346,739.97 405.5,739.5C 405.657,740.873 405.49,742.207 405,743.5C 404,741.167 403,738.833 402,736.5C 400.667,737.167 399.333,737.833 398,738.5C 397.667,737.833 397.333,737.167 397,736.5C 393.527,739.126 389.694,739.793 385.5,738.5C 405.836,733.163 425.503,725.83 444.5,716.5C 444.56,717.043 444.893,717.376 445.5,717.5C 447.519,715.535 449.519,715.369 451.5,717C 448.43,719.39 445.764,721.557 443.5,723.5C 444.758,725.648 444.758,727.815 443.5,730C 447.834,733.64 447.5,735.307 442.5,735C 443.654,735.914 443.487,736.747 442,737.5C 439.995,736.968 438.829,737.968 438.5,740.5 Z"/></g>
<g><path style="opacity:1" fill="#2c3640" d="M 559.5,700.5 C 575.455,711.313 592.455,720.313 610.5,727.5C 609.942,728.79 608.942,729.623 607.5,730C 608.5,730.5 609.5,731 610.5,731.5C 611.141,733.296 612.141,734.796 613.5,736C 612.833,736.333 612.167,736.667 611.5,737C 612.563,738.188 613.897,738.688 615.5,738.5C 615.48,740.143 616.147,741.476 617.5,742.5C 615.994,743.747 614.494,743.747 613,742.5C 612.667,743.167 612.333,743.833 612,744.5C 610.493,743.495 609.327,742.162 608.5,740.5C 607.494,740.938 607.494,741.604 608.5,742.5C 605.914,743.48 603.247,743.813 600.5,743.5C 582.141,736.824 565.141,727.824 549.5,716.5C 549.141,714.629 548.141,713.129 546.5,712C 547,711.5 547.5,711 548,710.5C 550.064,711.591 552.231,711.758 554.5,711C 553.939,709.434 554.606,708.101 556.5,707C 555.833,706.333 555.167,705.667 554.5,705C 556.037,703.293 557.704,701.793 559.5,700.5 Z"/></g>
<g><path style="opacity:1" fill="#2b3641" d="M 523.5,775.5 C 524.342,785.157 520.009,788.99 510.5,787C 507.921,785.924 506.254,784.091 505.5,781.5C 505.333,759.164 505.5,736.831 506,714.5C 510.565,714.867 514.898,715.867 519,717.5C 519.333,716.833 519.667,716.167 520,715.5C 522.127,722.36 521.96,729.36 519.5,736.5C 521.609,740.546 520.609,744.046 516.5,747C 518.135,747.54 519.468,747.04 520.5,745.5C 521.5,745.833 522.167,746.5 522.5,747.5C 520.548,748.544 518.548,749.544 516.5,750.5C 518.223,750.591 520.223,750.925 522.5,751.5C 522.174,759.684 522.508,767.684 523.5,775.5 Z"/></g>
<g><path style="opacity:1" fill="#2e3842" d="M 658.5,721.5 C 663.768,729.7 668.268,738.366 672,747.5C 673.896,753.566 672.062,757.899 666.5,760.5C 668.259,758.344 669.592,755.844 670.5,753C 669.839,750.536 669.339,748.036 669,745.5C 666.62,741.478 664.454,737.811 662.5,734.5C 663.609,733.035 663.109,732.035 661,731.5C 660.1,732.77 658.934,733.77 657.5,734.5C 658.333,736.881 658,739.214 656.5,741.5C 655.808,740.975 655.308,740.308 655,739.5C 653.102,742.13 651.269,742.463 649.5,740.5C 645.301,743.047 644.634,745.713 647.5,748.5C 646.833,749.167 646.167,749.833 645.5,750.5C 647.737,751.132 649.403,752.465 650.5,754.5C 651.842,753.098 652.676,753.431 653,755.5C 653.308,754.692 653.808,754.025 654.5,753.5C 656.896,755.067 659.563,755.9 662.5,756C 661.733,757.47 661.067,758.97 660.5,760.5C 639.685,757.3 619.685,751.633 600.5,743.5C 603.247,743.813 605.914,743.48 608.5,742.5C 607.494,741.604 607.494,740.938 608.5,740.5C 609.327,742.162 610.493,743.495 612,744.5C 612.333,743.833 612.667,743.167 613,742.5C 614.494,743.747 615.994,743.747 617.5,742.5C 616.147,741.476 615.48,740.143 615.5,738.5C 613.897,738.688 612.563,738.188 611.5,737C 612.167,736.667 612.833,736.333 613.5,736C 612.141,734.796 611.141,733.296 610.5,731.5C 609.5,731 608.5,730.5 607.5,730C 608.942,729.623 609.942,728.79 610.5,727.5C 621.834,732.082 633.501,735.249 645.5,737C 644.361,735.22 643.361,733.386 642.5,731.5C 642.67,730.178 642.337,729.011 641.5,728C 643.891,726.691 643.891,725.691 641.5,725C 642.833,724.333 642.833,723.667 641.5,723C 642.552,721.881 643.719,721.381 645,721.5C 645.333,720.167 645.667,718.833 646,717.5C 646.974,719.878 647.641,719.544 648,716.5C 648.741,717.641 649.575,717.641 650.5,716.5C 651.795,717.098 653.128,717.598 654.5,718C 655.641,718.741 655.641,719.575 654.5,720.5C 655.728,722.176 657.061,722.509 658.5,721.5 Z"/></g>
<g><path style="opacity:1" fill="#2e3944" d="M 666.5,760.5 C 664.5,760.5 662.5,760.5 660.5,760.5C 661.067,758.97 661.733,757.47 662.5,756C 659.563,755.9 656.896,755.067 654.5,753.5C 653.808,754.025 653.308,754.692 653,755.5C 652.676,753.431 651.842,753.098 650.5,754.5C 649.403,752.465 647.737,751.132 645.5,750.5C 646.167,749.833 646.833,749.167 647.5,748.5C 644.634,745.713 645.301,743.047 649.5,740.5C 651.269,742.463 653.102,742.13 655,739.5C 655.308,740.308 655.808,740.975 656.5,741.5C 658,739.214 658.333,736.881 657.5,734.5C 658.934,733.77 660.1,732.77 661,731.5C 663.109,732.035 663.609,733.035 662.5,734.5C 664.454,737.811 666.62,741.478 669,745.5C 669.339,748.036 669.839,750.536 670.5,753C 669.592,755.844 668.259,758.344 666.5,760.5 Z"/></g>
</svg>
