<?xml version="1.0" encoding="UTF-8"?>
<!DOCTYPE svg PUBLIC "-//W3C//DTD SVG 1.1//EN" "http://www.w3.org/Graphics/SVG/1.1/DTD/svg11.dtd">
<svg xmlns="http://www.w3.org/2000/svg" version="1.1" width="1024px" height="1024px" style="shape-rendering:geometricPrecision; text-rendering:geometricPrecision; image-rendering:optimizeQuality; fill-rule:evenodd; clip-rule:evenodd" xmlns:xlink="http://www.w3.org/1999/xlink">
<g><path style="opacity:1" fill="#fdfdfc" d="M 405.5,703.5 C 406.043,703.44 406.376,703.107 406.5,702.5C 398.528,701.502 390.528,701.169 382.5,701.5C 326.3,700.054 276.967,681.22 234.5,645C 226.616,638.458 225.95,631.458 232.5,624C 265.801,608.051 300.967,600.218 338,600.5C 348.524,601.135 359.024,601.635 369.5,602C 314.088,551.82 279.921,489.653 267,415.5C 265.834,406.506 265.167,397.506 265,388.5C 267.128,381.187 271.961,378.02 279.5,379C 315.295,391.835 347.295,410.835 375.5,436C 400.244,458.068 422.078,482.568 441,509.5C 435.373,425.224 447.373,343.557 477,264.5C 480.67,255.827 484.836,247.494 489.5,239.5C 491.225,239.843 491.725,240.843 491,242.5C 490.29,243.973 489.124,244.64 487.5,244.5C 489.025,252.332 491.525,252.332 495,244.5C 495.333,244.833 495.667,245.167 496,245.5C 497.074,244.382 498.24,243.382 499.5,242.5C 499.023,241.522 498.357,240.689 497.5,240C 498.308,239.692 498.975,239.192 499.5,238.5C 497.665,236.087 495.332,234.421 492.5,233.5C 495.262,226.811 498.929,220.644 503.5,215C 509.761,211.085 515.261,211.918 520,217.5C 544.768,260.795 561.434,307.128 570,356.5C 578.995,406.076 581.495,455.909 577.5,506C 578.332,506.688 578.998,506.521 579.5,505.5C 610.67,460.492 649.67,423.992 696.5,396C 710.608,387.611 725.608,381.444 741.5,377.5C 748.92,378.59 752.92,382.923 753.5,390.5C 747.693,446.082 728.526,496.416 696,541.5C 680.36,562.817 662.86,582.651 643.5,601C 673.714,598.37 703.714,600.036 733.5,606C 749.994,609.831 765.66,615.831 780.5,624C 784.697,628.861 785.197,634.027 782,639.5C 754.764,666.542 722.264,684.376 684.5,693C 659.811,698.454 634.811,701.121 609.5,701C 632.857,724.195 649.19,751.695 658.5,783.5C 656.259,792.578 650.592,796.078 641.5,794C 598.34,787.168 560.84,769.001 529,739.5C 528.667,760.833 528.333,782.167 528,803.5C 524.754,809.865 519.587,812.032 512.5,810C 511.391,809.362 510.225,808.862 509,808.5C 500.939,812.462 494.939,810.462 491,802.5C 490.667,780.833 490.333,759.167 490,737.5C 455.638,771.096 414.471,790.262 366.5,795C 361.103,793.276 358.436,789.609 358.5,784C 366.865,752.751 382.532,725.917 405.5,703.5 Z M 509.5,249.5 C 510.496,249.414 511.329,249.748 512,250.5C 533.926,298.534 547.593,348.867 553,401.5C 559.265,455.524 557.098,509.191 546.5,562.5C 548.616,572.727 554.616,575.894 564.5,572C 575.625,553.58 587.125,535.413 599,517.5C 628.902,475.258 666.069,441.091 710.5,415C 715.713,412.227 721.046,409.727 726.5,407.5C 726.833,408.333 727.167,409.167 727.5,410C 716.112,467.612 690.612,517.779 651,560.5C 632.526,579.648 612.86,597.315 592,613.5C 588.301,623.436 591.467,629.769 601.5,632.5C 642.199,622.466 683.199,620.966 724.5,628C 733.569,629.746 742.236,632.579 750.5,636.5C 715.968,661.402 677.301,674.902 634.5,677C 614.757,677.972 595.091,677.139 575.5,674.5C 568.086,674.747 564.086,678.58 563.5,686C 563.934,688.634 564.767,691.134 566,693.5C 592.344,713.172 612.844,737.672 627.5,767C 599.162,759.831 573.829,746.831 551.5,728C 538.019,715.86 526.019,702.527 515.5,688C 510.24,684.488 505.24,684.821 500.5,689C 472.846,728.478 435.846,754.978 389.5,768.5C 389.167,768.167 388.833,767.833 388.5,767.5C 403.389,738.109 424.222,713.775 451,694.5C 454.333,689.5 454.333,684.5 451,679.5C 448.487,677.077 445.487,675.744 442,675.5C 394.107,683.474 347.607,678.641 302.5,661C 288.118,654.591 274.785,646.591 262.5,637C 272.723,632.595 283.389,629.595 294.5,628C 333.852,622.05 372.852,623.884 411.5,633.5C 421.223,631.057 424.39,625.057 421,615.5C 385.795,588.632 355.795,556.965 331,520.5C 309.382,486.819 295.549,450.152 289.5,410.5C 289.833,409.833 290.167,409.167 290.5,408.5C 327.004,425.348 358.837,448.681 386,478.5C 411.827,507.329 434.16,538.663 453,572.5C 459.716,576.495 465.716,575.495 471,569.5C 471.808,567.577 472.308,565.577 472.5,563.5C 455.384,468.943 462.551,376.276 494,285.5C 498.904,273.362 504.07,261.362 509.5,249.5 Z"/></g>
<g><path style="opacity:1" fill="#fdfdf8" d="M 492.5,233.5 C 495.332,234.421 497.665,236.087 499.5,238.5C 498.975,239.192 498.308,239.692 497.5,240C 498.357,240.689 499.023,241.522 499.5,242.5C 498.24,243.382 497.074,244.382 496,245.5C 495.667,245.167 495.333,244.833 495,244.5C 491.525,252.332 489.025,252.332 487.5,244.5C 489.124,244.64 490.29,243.973 491,242.5C 491.725,240.843 491.225,239.843 489.5,239.5C 489.992,237.181 490.992,235.181 492.5,233.5 Z"/></g>
<g><path style="opacity:1" fill="#dedede" d="M 382.5,701.5 C 390.528,701.169 398.528,701.502 406.5,702.5C 406.376,703.107 406.043,703.44 405.5,703.5C 397.833,702.833 390.167,702.167 382.5,701.5 Z"/></g>
</svg>
