<?xml version="1.0" encoding="UTF-8"?>
<!DOCTYPE svg PUBLIC "-//W3C//DTD SVG 1.1//EN" "http://www.w3.org/Graphics/SVG/1.1/DTD/svg11.dtd">
<svg xmlns="http://www.w3.org/2000/svg" version="1.1" width="1024px" height="1024px" style="shape-rendering:geometricPrecision; text-rendering:geometricPrecision; image-rendering:optimizeQuality; fill-rule:evenodd; clip-rule:evenodd" xmlns:xlink="http://www.w3.org/1999/xlink">
<g><path style="opacity:1" fill="#222c32" d="M 554.5,185.5 C 553.086,187.044 552.753,188.711 553.5,190.5C 551.659,191.23 549.825,191.897 548,192.5C 544.773,192.047 541.773,191.047 539,189.5C 538.667,190.167 538.333,190.833 538,191.5C 537.228,190.151 536.061,189.318 534.5,189C 534.833,188.667 535.167,188.333 535.5,188C 530.373,187.526 530.373,186.526 535.5,185C 532.414,182.937 529.581,183.103 527,185.5C 524.299,183.078 521.465,182.911 518.5,185C 519.448,185.483 520.448,185.649 521.5,185.5C 521.5,186.833 521.5,188.167 521.5,189.5C 517.089,189.021 512.922,189.688 509,191.5C 507.174,189.926 505.007,189.093 502.5,189C 501.298,185.632 498.965,183.466 495.5,182.5C 494.5,183.167 493.5,183.833 492.5,184.5C 491.808,183.975 491.308,183.308 491,182.5C 488.095,182.898 484.928,183.398 481.5,184C 482.28,185.073 482.113,186.24 481,187.5C 479.496,185.689 478.663,184.022 478.5,182.5C 504.142,175.182 529.475,176.182 554.5,185.5 Z"/></g>
<g><path style="opacity:1" fill="#202a33" d="M 478.5,182.5 C 478.663,184.022 479.496,185.689 481,187.5C 482.113,186.24 482.28,185.073 481.5,184C 484.928,183.398 488.095,182.898 491,182.5C 491.308,183.308 491.808,183.975 492.5,184.5C 493.5,183.833 494.5,183.167 495.5,182.5C 498.965,183.466 501.298,185.632 502.5,189C 505.007,189.093 507.174,189.926 509,191.5C 512.922,189.688 517.089,189.021 521.5,189.5C 521.5,188.167 521.5,186.833 521.5,185.5C 520.448,185.649 519.448,185.483 518.5,185C 521.465,182.911 524.299,183.078 527,185.5C 529.581,183.103 532.414,182.937 535.5,185C 530.373,186.526 530.373,187.526 535.5,188C 535.167,188.333 534.833,188.667 534.5,189C 536.061,189.318 537.228,190.151 538,191.5C 538.333,190.833 538.667,190.167 539,189.5C 541.773,191.047 544.773,192.047 548,192.5C 549.825,191.897 551.659,191.23 553.5,190.5C 552.753,188.711 553.086,187.044 554.5,185.5C 590.165,197.83 615.165,221.497 629.5,256.5C 613.18,257.499 596.847,257.833 580.5,257.5C 587.438,256.803 595.104,256.136 603.5,255.5C 604.025,254.808 604.692,254.308 605.5,254C 601.901,251.384 598.567,248.55 595.5,245.5C 595.939,243.896 596.606,242.396 597.5,241C 597.095,240.055 596.428,239.388 595.5,239C 597.754,238.376 599.421,237.043 600.5,235C 603.119,234.849 605.453,234.015 607.5,232.5C 606.311,231.571 604.978,231.238 603.5,231.5C 604.392,228.576 604.725,225.742 604.5,223C 603.333,222.5 602.5,221.667 602,220.5C 601.667,220.833 601.333,221.167 601,221.5C 600.311,220.643 599.478,219.977 598.5,219.5C 594.467,221.927 590.3,223.927 586,225.5C 585.502,222.183 585.335,218.85 585.5,215.5C 582.412,214.688 579.579,213.355 577,211.5C 575.22,212.594 573.386,213.594 571.5,214.5C 570.1,216.075 569.267,217.741 569,219.5C 566.458,218.098 563.792,217.098 561,216.5C 559.883,217.949 559.216,219.616 559,221.5C 557.624,218.715 555.457,216.715 552.5,215.5C 551.571,214.311 551.238,212.978 551.5,211.5C 549.516,211.383 547.85,212.05 546.5,213.5C 546.167,213.167 545.833,212.833 545.5,212.5C 547.924,210.286 547.257,209.286 543.5,209.5C 543.762,210.978 543.429,212.311 542.5,213.5C 539.681,213.258 536.681,213.258 533.5,213.5C 533.52,215.143 532.853,216.476 531.5,217.5C 532.833,217.833 534.167,218.167 535.5,218.5C 532.914,219.48 530.247,219.813 527.5,219.5C 526.909,212.431 530.243,209.431 537.5,210.5C 534.893,209.682 532.226,209.182 529.5,209C 530.357,208.311 531.023,207.478 531.5,206.5C 530.391,204.615 529.557,202.615 529,200.5C 527.575,201.212 526.075,201.379 524.5,201C 525.711,201.893 525.711,202.726 524.5,203.5C 522.359,202.677 520.193,201.677 518,200.5C 515.205,201.185 512.372,201.685 509.5,202C 511.405,202.826 511.739,203.993 510.5,205.5C 509.063,202.956 507.563,202.956 506,205.5C 505.692,204.692 505.192,204.025 504.5,203.5C 503.571,204.689 503.238,206.022 503.5,207.5C 502.448,207.351 501.448,207.517 500.5,208C 501.696,208.654 501.696,209.154 500.5,209.5C 499.232,208.572 497.899,208.405 496.5,209C 497.711,209.893 497.711,210.726 496.5,211.5C 495.059,210.696 493.559,210.029 492,209.5C 490.989,209.892 490.489,210.559 490.5,211.5C 489.808,210.975 489.308,210.308 489,209.5C 486.641,212.038 485.141,211.371 484.5,207.5C 483.571,208.689 483.238,210.022 483.5,211.5C 482.167,211.5 480.833,211.5 479.5,211.5C 480.263,207.862 478.93,206.362 475.5,207C 475.5,209.667 475.5,212.333 475.5,215C 474.216,215.684 473.049,215.517 472,214.5C 470.495,216.298 470.328,218.132 471.5,220C 470.833,220.667 470.167,221.333 469.5,222C 471.099,223.786 471.933,225.953 472,228.5C 472.923,227.241 473.757,225.908 474.5,224.5C 475.271,227.646 475.437,230.646 475,233.5C 473.534,231.675 471.701,231.175 469.5,232C 471.657,233.085 471.824,234.251 470,235.5C 469.692,234.692 469.192,234.025 468.5,233.5C 467.702,235.078 467.202,236.744 467,238.5C 465.989,239.337 464.822,239.67 463.5,239.5C 463.719,240.675 463.386,241.675 462.5,242.5C 458.341,245.671 453.841,248.005 449,249.5C 448.692,248.692 448.192,248.025 447.5,247.5C 446.131,249.124 444.464,249.624 442.5,249C 444.901,248.195 444.734,247.362 442,246.5C 441.617,247.056 441.117,247.389 440.5,247.5C 439.835,249.369 439.169,251.369 438.5,253.5C 437.766,251.185 436.432,249.352 434.5,248C 434.833,247.667 435.167,247.333 435.5,247C 434.027,246.29 433.36,245.124 433.5,243.5C 434.833,243.5 436.167,243.5 437.5,243.5C 437.34,241.801 437.506,240.134 438,238.5C 438.654,239.696 439.154,239.696 439.5,238.5C 438.167,237.833 436.833,237.167 435.5,236.5C 436.167,235.833 436.833,235.167 437.5,234.5C 436.167,233.167 434.833,231.833 433.5,230.5C 435.04,229.468 435.54,228.135 435,226.5C 433.989,227.337 432.822,227.67 431.5,227.5C 431.83,233.868 431.496,240.202 430.5,246.5C 429.833,244.833 429.167,243.167 428.5,241.5C 427.92,243.637 426.92,245.47 425.5,247C 423.892,247.658 422.725,247.158 422,245.5C 420.601,245.501 419.101,245.835 417.5,246.5C 415.744,244.446 415.41,242.279 416.5,240C 414.473,238.604 414.14,236.938 415.5,235C 413.275,232.997 411.608,233.497 410.5,236.5C 409.643,235.264 408.977,233.931 408.5,232.5C 410.344,230.018 411.677,227.351 412.5,224.5C 429.566,202.955 451.566,188.955 478.5,182.5 Z"/></g>
<g><path style="opacity:1" fill="#1e2b33" d="M 580.5,257.5 C 576.982,258.678 573.982,260.678 571.5,263.5C 570.458,262.209 569.292,262.209 568,263.5C 567.77,259.787 566.603,259.12 564.5,261.5C 563.534,259.604 563.201,257.604 563.5,255.5C 562.178,255.33 561.011,255.663 560,256.5C 559.626,255.584 559.126,254.75 558.5,254C 559.769,251.861 559.769,249.695 558.5,247.5C 557.193,248.816 555.693,249.816 554,250.5C 553.667,251.833 553.333,253.167 553,254.5C 551.957,252.299 551.123,249.966 550.5,247.5C 550.035,249.078 549.701,251.078 549.5,253.5C 549.716,255.384 550.383,257.051 551.5,258.5C 549.844,260.329 547.844,261.663 545.5,262.5C 547.5,263.167 549.5,263.833 551.5,264.5C 548.265,267.072 545.265,266.739 542.5,263.5C 540.397,265.88 539.23,265.213 539,261.5C 537.355,261.693 535.521,261.86 533.5,262C 530.833,263.333 530.833,264.667 533.5,266C 532.284,267.594 530.951,269.094 529.5,270.5C 530.716,271.096 532.049,271.263 533.5,271C 531.333,272.833 529.167,274.667 527,276.5C 527.235,272.421 527.235,268.421 527,264.5C 525.575,265.079 523.908,265.079 522,264.5C 521.383,265.449 521.549,266.282 522.5,267C 522,267.167 521.5,267.333 521,267.5C 519.187,266.309 518.354,264.976 518.5,263.5C 517.52,266.086 517.187,268.753 517.5,271.5C 512.901,271.8 508.401,271.467 504,270.5C 503.333,271.167 502.667,271.833 502,272.5C 500.274,271.424 498.441,271.257 496.5,272C 494.679,274.244 492.346,275.41 489.5,275.5C 490.939,281.526 489.439,282.193 485,277.5C 484.667,277.833 484.333,278.167 484,278.5C 483.389,276.25 482.056,274.583 480,273.5C 478.94,277.42 478.107,281.087 477.5,284.5C 477.818,285.647 478.484,286.481 479.5,287C 478.207,287.49 476.873,287.657 475.5,287.5C 475.577,284.988 474.577,282.988 472.5,281.5C 470.377,282.694 468.043,283.36 465.5,283.5C 460.577,282.726 455.744,281.726 451,280.5C 450.049,280.884 449.216,281.217 448.5,281.5C 447.833,280.833 447.167,280.167 446.5,279.5C 448.737,277.353 450.737,275.02 452.5,272.5C 453.1,271.1 454.1,270.1 455.5,269.5C 456.183,271.176 457.517,271.843 459.5,271.5C 459.238,270.022 459.571,268.689 460.5,267.5C 462.291,269.021 463.624,270.854 464.5,273C 466.913,273.484 469.246,273.15 471.5,272C 472.013,269.282 472.013,266.449 471.5,263.5C 474.187,263.664 476.854,263.497 479.5,263C 478.299,262.097 477.465,260.931 477,259.5C 475.636,260.258 474.469,259.758 473.5,258C 475.125,257.147 475.458,256.147 474.5,255C 477.08,252.456 477.08,249.956 474.5,247.5C 473.808,248.025 473.308,248.692 473,249.5C 469.533,248.202 466.033,246.869 462.5,245.5C 460.929,247.971 459.929,250.637 459.5,253.5C 460.873,253.343 462.207,253.51 463.5,254C 461.159,255.4 458.826,255.9 456.5,255.5C 455.614,254.675 455.281,253.675 455.5,252.5C 453.5,252.167 451.5,251.833 449.5,251.5C 448.833,256.833 448.167,256.833 447.5,251.5C 445.801,251.34 444.134,251.506 442.5,252C 443.056,252.383 443.389,252.883 443.5,253.5C 441.769,252.015 440.769,250.015 440.5,247.5C 441.117,247.389 441.617,247.056 442,246.5C 444.734,247.362 444.901,248.195 442.5,249C 444.464,249.624 446.131,249.124 447.5,247.5C 448.192,248.025 448.692,248.692 449,249.5C 453.841,248.005 458.341,245.671 462.5,242.5C 463.386,241.675 463.719,240.675 463.5,239.5C 464.822,239.67 465.989,239.337 467,238.5C 467.202,236.744 467.702,235.078 468.5,233.5C 469.192,234.025 469.692,234.692 470,235.5C 471.824,234.251 471.657,233.085 469.5,232C 471.701,231.175 473.534,231.675 475,233.5C 475.437,230.646 475.271,227.646 474.5,224.5C 473.757,225.908 472.923,227.241 472,228.5C 471.933,225.953 471.099,223.786 469.5,222C 470.167,221.333 470.833,220.667 471.5,220C 470.328,218.132 470.495,216.298 472,214.5C 473.049,215.517 474.216,215.684 475.5,215C 475.5,212.333 475.5,209.667 475.5,207C 478.93,206.362 480.263,207.862 479.5,211.5C 480.833,211.5 482.167,211.5 483.5,211.5C 483.238,210.022 483.571,208.689 484.5,207.5C 485.141,211.371 486.641,212.038 489,209.5C 489.308,210.308 489.808,210.975 490.5,211.5C 490.489,210.559 490.989,209.892 492,209.5C 493.559,210.029 495.059,210.696 496.5,211.5C 497.711,210.726 497.711,209.893 496.5,209C 497.899,208.405 499.232,208.572 500.5,209.5C 501.696,209.154 501.696,208.654 500.5,208C 501.448,207.517 502.448,207.351 503.5,207.5C 503.238,206.022 503.571,204.689 504.5,203.5C 505.192,204.025 505.692,204.692 506,205.5C 507.563,202.956 509.063,202.956 510.5,205.5C 511.739,203.993 511.405,202.826 509.5,202C 512.372,201.685 515.205,201.185 518,200.5C 520.193,201.677 522.359,202.677 524.5,203.5C 525.711,202.726 525.711,201.893 524.5,201C 526.075,201.379 527.575,201.212 529,200.5C 529.557,202.615 530.391,204.615 531.5,206.5C 531.023,207.478 530.357,208.311 529.5,209C 532.226,209.182 534.893,209.682 537.5,210.5C 530.243,209.431 526.909,212.431 527.5,219.5C 530.247,219.813 532.914,219.48 535.5,218.5C 534.167,218.167 532.833,217.833 531.5,217.5C 532.853,216.476 533.52,215.143 533.5,213.5C 536.681,213.258 539.681,213.258 542.5,213.5C 543.429,212.311 543.762,210.978 543.5,209.5C 547.257,209.286 547.924,210.286 545.5,212.5C 545.833,212.833 546.167,213.167 546.5,213.5C 547.85,212.05 549.516,211.383 551.5,211.5C 551.238,212.978 551.571,214.311 552.5,215.5C 555.457,216.715 557.624,218.715 559,221.5C 559.216,219.616 559.883,217.949 561,216.5C 563.792,217.098 566.458,218.098 569,219.5C 569.267,217.741 570.1,216.075 571.5,214.5C 573.386,213.594 575.22,212.594 577,211.5C 579.579,213.355 582.412,214.688 585.5,215.5C 585.335,218.85 585.502,222.183 586,225.5C 590.3,223.927 594.467,221.927 598.5,219.5C 599.478,219.977 600.311,220.643 601,221.5C 601.333,221.167 601.667,220.833 602,220.5C 602.5,221.667 603.333,222.5 604.5,223C 604.725,225.742 604.392,228.576 603.5,231.5C 604.978,231.238 606.311,231.571 607.5,232.5C 605.453,234.015 603.119,234.849 600.5,235C 599.421,237.043 597.754,238.376 595.5,239C 596.428,239.388 597.095,240.055 597.5,241C 596.606,242.396 595.939,243.896 595.5,245.5C 598.567,248.55 601.901,251.384 605.5,254C 604.692,254.308 604.025,254.808 603.5,255.5C 595.104,256.136 587.438,256.803 580.5,257.5 Z"/></g>
<g><path style="opacity:1" fill="#212c32" d="M 412.5,224.5 C 411.677,227.351 410.344,230.018 408.5,232.5C 408.977,233.931 409.643,235.264 410.5,236.5C 411.608,233.497 413.275,232.997 415.5,235C 414.14,236.938 414.473,238.604 416.5,240C 415.41,242.279 415.744,244.446 417.5,246.5C 419.101,245.835 420.601,245.501 422,245.5C 422.725,247.158 423.892,247.658 425.5,247C 426.92,245.47 427.92,243.637 428.5,241.5C 429.167,243.167 429.833,244.833 430.5,246.5C 431.496,240.202 431.83,233.868 431.5,227.5C 432.822,227.67 433.989,227.337 435,226.5C 435.54,228.135 435.04,229.468 433.5,230.5C 434.833,231.833 436.167,233.167 437.5,234.5C 436.833,235.167 436.167,235.833 435.5,236.5C 436.833,237.167 438.167,237.833 439.5,238.5C 439.154,239.696 438.654,239.696 438,238.5C 437.506,240.134 437.34,241.801 437.5,243.5C 436.167,243.5 434.833,243.5 433.5,243.5C 433.36,245.124 434.027,246.29 435.5,247C 435.167,247.333 434.833,247.667 434.5,248C 436.432,249.352 437.766,251.185 438.5,253.5C 439.169,251.369 439.835,249.369 440.5,247.5C 440.769,250.015 441.769,252.015 443.5,253.5C 445.176,254.183 445.843,255.517 445.5,257.5C 448.901,257.722 451.401,259.388 453,262.5C 454.333,261.167 455.667,261.167 457,262.5C 456.561,264.759 456.061,267.092 455.5,269.5C 454.1,270.1 453.1,271.1 452.5,272.5C 453.4,265.115 450.4,260.282 443.5,258C 426.823,257.833 410.157,257.333 393.5,256.5C 398.271,244.769 404.605,234.103 412.5,224.5 Z"/></g>
<g><path style="opacity:1" fill="#212a33" d="M 455.5,269.5 C 456.061,267.092 456.561,264.759 457,262.5C 455.667,261.167 454.333,261.167 453,262.5C 451.401,259.388 448.901,257.722 445.5,257.5C 445.843,255.517 445.176,254.183 443.5,253.5C 443.389,252.883 443.056,252.383 442.5,252C 444.134,251.506 445.801,251.34 447.5,251.5C 448.167,256.833 448.833,256.833 449.5,251.5C 451.5,251.833 453.5,252.167 455.5,252.5C 455.281,253.675 455.614,254.675 456.5,255.5C 458.826,255.9 461.159,255.4 463.5,254C 462.207,253.51 460.873,253.343 459.5,253.5C 459.929,250.637 460.929,247.971 462.5,245.5C 466.033,246.869 469.533,248.202 473,249.5C 473.308,248.692 473.808,248.025 474.5,247.5C 477.08,249.956 477.08,252.456 474.5,255C 475.458,256.147 475.125,257.147 473.5,258C 474.469,259.758 475.636,260.258 477,259.5C 477.465,260.931 478.299,262.097 479.5,263C 476.854,263.497 474.187,263.664 471.5,263.5C 472.013,266.449 472.013,269.282 471.5,272C 469.246,273.15 466.913,273.484 464.5,273C 463.624,270.854 462.291,269.021 460.5,267.5C 459.571,268.689 459.238,270.022 459.5,271.5C 457.517,271.843 456.183,271.176 455.5,269.5 Z"/></g>
<g><path style="opacity:1" fill="#202a33" d="M 571.5,263.5 C 570.701,266.43 570.368,269.43 570.5,272.5C 569.671,273.332 568.838,272.999 568,271.5C 567.535,272.931 566.701,274.097 565.5,275C 566.5,275.333 567.5,275.667 568.5,276C 567.477,278.449 566.977,280.949 567,283.5C 569.518,284.061 572.018,284.394 574.5,284.5C 573.975,285.192 573.308,285.692 572.5,286C 572.833,286.333 573.167,286.667 573.5,287C 572.033,288.098 571.199,289.598 571,291.5C 568.766,290.295 567.099,290.961 566,293.5C 564.274,291.772 562.941,289.772 562,287.5C 561.535,288.931 560.701,290.097 559.5,291C 555.742,291.934 553.075,294.1 551.5,297.5C 552.453,299.455 553.787,301.122 555.5,302.5C 558.43,303.453 560.763,305.12 562.5,307.5C 557.545,315.022 558.878,321.189 566.5,326C 589.5,326.333 612.5,326.667 635.5,327C 636.022,327.561 636.355,328.228 636.5,329C 636.671,335.263 636.337,341.43 635.5,347.5C 615.419,348.023 595.419,348.856 575.5,350C 568.921,356.3 568.921,362.633 575.5,369C 576.745,369.791 578.078,370.291 579.5,370.5C 579.597,374.642 577.597,376.976 573.5,377.5C 574.894,378.687 574.727,379.354 573,379.5C 572.05,378.978 571.216,378.311 570.5,377.5C 568.807,379.279 566.807,379.779 564.5,379C 565.167,378.667 565.833,378.333 566.5,378C 563.992,377.346 561.826,376.179 560,374.5C 558.686,375.313 557.519,376.313 556.5,377.5C 555.914,377.291 555.414,376.957 555,376.5C 553.981,377.687 552.814,378.687 551.5,379.5C 550.5,378.167 549.5,378.167 548.5,379.5C 547.571,378.311 547.238,376.978 547.5,375.5C 545.43,375.551 543.597,374.885 542,373.5C 540.527,373.903 539.194,374.57 538,375.5C 535.723,373.279 534.223,370.613 533.5,367.5C 531.712,367.215 530.045,367.548 528.5,368.5C 529.681,370.198 529.681,371.865 528.5,373.5C 527.672,372.585 526.672,371.919 525.5,371.5C 523.664,372.933 521.664,373.433 519.5,373C 518.027,372.29 517.36,371.124 517.5,369.5C 514.404,368.907 512.071,369.907 510.5,372.5C 509.548,370.955 509.215,369.288 509.5,367.5C 507.856,367.286 506.356,367.62 505,368.5C 504.122,371.257 503.122,373.924 502,376.5C 501.801,370.134 500.468,369.467 498,374.5C 497.667,373.5 497.333,372.5 497,371.5C 496.667,371.833 496.333,372.167 496,372.5C 495.772,375.324 494.605,377.657 492.5,379.5C 492.264,378.753 491.93,377.92 491.5,377C 490.056,376.219 488.723,376.386 487.5,377.5C 488.833,378.5 488.833,379.5 487.5,380.5C 486.271,381.281 484.938,381.781 483.5,382C 480.952,384.506 478.285,386.839 475.5,389C 477.044,389.29 478.377,389.956 479.5,391C 474.167,391.667 468.833,391.667 463.5,391C 464,390.5 464.5,390 465,389.5C 466.667,389.833 468.333,390.167 470,390.5C 470.75,389.874 471.584,389.374 472.5,389C 471.122,387.287 469.455,385.953 467.5,385C 467.833,384.667 468.167,384.333 468.5,384C 465.876,383.424 465.209,382.09 466.5,380C 466,379.833 465.5,379.667 465,379.5C 462.647,381.86 460.647,384.527 459,387.5C 458.085,386.672 457.419,385.672 457,384.5C 456.626,385.416 456.126,386.25 455.5,387C 453.671,387.273 452.171,388.107 451,389.5C 450.667,389.167 450.333,388.833 450,388.5C 449.751,389.624 449.251,390.624 448.5,391.5C 447.784,389.518 446.617,387.851 445,386.5C 444.261,388.221 443.427,389.887 442.5,391.5C 441.833,390.167 441.167,388.833 440.5,387.5C 438.286,389.924 437.286,389.257 437.5,385.5C 443.152,385.607 444.152,383.44 440.5,379C 444.224,378.579 447.224,379.912 449.5,383C 450.5,383.667 451.5,383.667 452.5,383C 452.494,380.659 452.494,377.826 452.5,374.5C 455.377,370.404 458.544,366.738 462,363.5C 463.667,363.833 465.333,364.167 467,364.5C 467.54,366.135 467.04,367.468 465.5,368.5C 467.489,369.615 469.322,369.282 471,367.5C 472.987,368.154 474.32,369.487 475,371.5C 476.097,369.947 477.43,368.614 479,367.5C 480.488,368.196 481.988,367.862 483.5,366.5C 480.924,365.718 478.924,364.218 477.5,362C 478.793,361.51 480.127,361.343 481.5,361.5C 481.047,358.348 482.047,355.848 484.5,354C 484,353.5 483.5,353 483,352.5C 477.767,354.526 474.267,352.859 472.5,347.5C 471.449,348.885 470.116,349.885 468.5,350.5C 467.747,348.007 468.747,346.174 471.5,345C 469.512,344.82 467.512,344.986 465.5,345.5C 465.5,346.833 465.5,348.167 465.5,349.5C 461.743,349.714 461.076,348.714 463.5,346.5C 461.373,343.535 460.206,343.869 460,347.5C 459.014,346.829 457.847,346.829 456.5,347.5C 455.671,346.668 454.838,347.001 454,348.5C 452.796,347.529 452.296,346.529 452.5,345.5C 451.852,347.149 450.852,348.482 449.5,349.5C 445.573,347.278 441.406,345.612 437,344.5C 435.475,344.112 433.808,344.112 432,344.5C 431.692,343.692 431.192,343.025 430.5,342.5C 429.289,343.39 427.955,343.39 426.5,342.5C 425.353,342.818 424.519,343.484 424,344.5C 422.833,342.833 421.667,341.167 420.5,339.5C 418.286,341.924 417.286,341.257 417.5,337.5C 414.921,337.917 412.754,337.25 411,335.5C 409.926,336.618 408.76,337.618 407.5,338.5C 408.641,339.425 408.641,340.259 407.5,341C 411.122,344.308 415.456,346.308 420.5,347C 409.505,347.5 398.505,347.667 387.5,347.5C 387.5,340.5 387.5,333.5 387.5,326.5C 410.836,326.667 434.169,326.5 457.5,326C 463.062,322.539 465.062,317.706 463.5,311.5C 463.435,311.062 463.601,310.728 464,310.5C 466.673,313.412 468.84,313.079 470.5,309.5C 471.298,311.078 471.798,312.744 472,314.5C 473.156,313.007 473.99,313.174 474.5,315C 473.645,316.451 473.478,317.951 474,319.5C 472.915,317.343 471.749,317.176 470.5,319C 471.779,320.646 473.445,321.813 475.5,322.5C 474.506,325.399 475.506,326.066 478.5,324.5C 480.792,325.79 482.792,327.457 484.5,329.5C 485.842,327.995 487.508,327.328 489.5,327.5C 489.942,322.306 490.942,322.306 492.5,327.5C 494.083,325.01 495.083,322.343 495.5,319.5C 498.044,319.896 500.211,319.229 502,317.5C 504.359,320.038 505.859,319.371 506.5,315.5C 508.714,317.924 509.714,317.257 509.5,313.5C 512.167,313.5 514.833,313.5 517.5,313.5C 517.82,310.102 517.487,306.768 516.5,303.5C 513.681,303.258 510.681,303.258 507.5,303.5C 506.587,308.74 505.587,308.74 504.5,303.5C 503.167,306.167 501.833,306.167 500.5,303.5C 499.833,305.5 499.167,307.5 498.5,309.5C 497.833,308.833 497.167,308.167 496.5,307.5C 494.802,315.433 493.136,315.433 491.5,307.5C 488.753,307.813 486.086,307.48 483.5,306.5C 482.284,304.76 480.618,303.76 478.5,303.5C 475.554,304.306 472.888,305.639 470.5,307.5C 469.571,306.311 469.238,304.978 469.5,303.5C 466.166,303.786 463,303.786 460,303.5C 459.035,303.93 458.535,304.596 458.5,305.5C 457.209,305.737 456.209,305.404 455.5,304.5C 443.198,303.881 430.198,303.047 416.5,302C 415.286,300.021 413.619,298.521 411.5,297.5C 412.641,296.575 412.641,295.741 411.5,295C 411.004,295.942 409.67,296.609 407.5,297C 407.847,295.431 408.014,293.598 408,291.5C 405.67,294.182 405.17,293.849 406.5,290.5C 405.926,288.941 405.26,287.441 404.5,286C 404.833,285.667 405.167,285.333 405.5,285C 404.328,284.581 403.328,283.915 402.5,283C 411.442,281.253 420.442,281.086 429.5,282.5C 431.185,284.017 432.685,285.684 434,287.5C 434.535,285.729 435.369,285.396 436.5,286.5C 434.978,288.156 435.311,289.323 437.5,290C 435.007,291.583 435.174,293.083 438,294.5C 439.865,292.327 442.031,291.993 444.5,293.5C 445.354,292.478 446.354,291.645 447.5,291C 447.167,290.667 446.833,290.333 446.5,290C 447.766,289.691 448.933,289.191 450,288.5C 450.44,286.924 451.273,285.59 452.5,284.5C 450.668,283.943 449.335,282.943 448.5,281.5C 449.216,281.217 450.049,280.884 451,280.5C 455.744,281.726 460.577,282.726 465.5,283.5C 468.043,283.36 470.377,282.694 472.5,281.5C 474.577,282.988 475.577,284.988 475.5,287.5C 476.873,287.657 478.207,287.49 479.5,287C 478.484,286.481 477.818,285.647 477.5,284.5C 478.107,281.087 478.94,277.42 480,273.5C 482.056,274.583 483.389,276.25 484,278.5C 484.333,278.167 484.667,277.833 485,277.5C 489.439,282.193 490.939,281.526 489.5,275.5C 492.346,275.41 494.679,274.244 496.5,272C 498.441,271.257 500.274,271.424 502,272.5C 502.667,271.833 503.333,271.167 504,270.5C 508.401,271.467 512.901,271.8 517.5,271.5C 517.187,268.753 517.52,266.086 518.5,263.5C 518.354,264.976 519.187,266.309 521,267.5C 521.5,267.333 522,267.167 522.5,267C 521.549,266.282 521.383,265.449 522,264.5C 523.908,265.079 525.575,265.079 527,264.5C 527.235,268.421 527.235,272.421 527,276.5C 529.167,274.667 531.333,272.833 533.5,271C 532.049,271.263 530.716,271.096 529.5,270.5C 530.951,269.094 532.284,267.594 533.5,266C 530.833,264.667 530.833,263.333 533.5,262C 535.521,261.86 537.355,261.693 539,261.5C 539.23,265.213 540.397,265.88 542.5,263.5C 545.265,266.739 548.265,267.072 551.5,264.5C 549.5,263.833 547.5,263.167 545.5,262.5C 547.844,261.663 549.844,260.329 551.5,258.5C 550.383,257.051 549.716,255.384 549.5,253.5C 549.701,251.078 550.035,249.078 550.5,247.5C 551.123,249.966 551.957,252.299 553,254.5C 553.333,253.167 553.667,251.833 554,250.5C 555.693,249.816 557.193,248.816 558.5,247.5C 559.769,249.695 559.769,251.861 558.5,254C 559.126,254.75 559.626,255.584 560,256.5C 561.011,255.663 562.178,255.33 563.5,255.5C 563.201,257.604 563.534,259.604 564.5,261.5C 566.603,259.12 567.77,259.787 568,263.5C 569.292,262.209 570.458,262.209 571.5,263.5 Z"/></g>
<g><path style="opacity:1" fill="#1f2b32" d="M 446.5,279.5 C 447.167,280.167 447.833,280.833 448.5,281.5C 449.335,282.943 450.668,283.943 452.5,284.5C 451.273,285.59 450.44,286.924 450,288.5C 448.933,289.191 447.766,289.691 446.5,290C 446.833,290.333 447.167,290.667 447.5,291C 446.354,291.645 445.354,292.478 444.5,293.5C 442.031,291.993 439.865,292.327 438,294.5C 435.174,293.083 435.007,291.583 437.5,290C 435.311,289.323 434.978,288.156 436.5,286.5C 435.369,285.396 434.535,285.729 434,287.5C 432.685,285.684 431.185,284.017 429.5,282.5C 420.442,281.086 411.442,281.253 402.5,283C 403.328,283.915 404.328,284.581 405.5,285C 405.167,285.333 404.833,285.667 404.5,286C 405.26,287.441 405.926,288.941 406.5,290.5C 405.17,293.849 405.67,294.182 408,291.5C 408.014,293.598 407.847,295.431 407.5,297C 409.67,296.609 411.004,295.942 411.5,295C 412.641,295.741 412.641,296.575 411.5,297.5C 413.619,298.521 415.286,300.021 416.5,302C 430.198,303.047 443.198,303.881 455.5,304.5C 432.833,304.5 410.167,304.5 387.5,304.5C 387.5,296.167 387.5,287.833 387.5,279.5C 407.052,279.577 426.718,279.577 446.5,279.5 Z"/></g>
<g><path style="opacity:1" fill="#1e2a32" d="M 570.5,272.5 C 572.475,276.669 575.809,279.169 580.5,280C 598.554,280.625 616.554,280.625 634.5,280C 635.482,288.081 635.816,296.248 635.5,304.5C 612.831,304.333 590.164,304.5 567.5,305C 565.548,305.366 563.882,306.199 562.5,307.5C 560.763,305.12 558.43,303.453 555.5,302.5C 553.787,301.122 552.453,299.455 551.5,297.5C 553.075,294.1 555.742,291.934 559.5,291C 560.701,290.097 561.535,288.931 562,287.5C 562.941,289.772 564.274,291.772 566,293.5C 567.099,290.961 568.766,290.295 571,291.5C 571.199,289.598 572.033,288.098 573.5,287C 573.167,286.667 572.833,286.333 572.5,286C 573.308,285.692 573.975,285.192 574.5,284.5C 572.018,284.394 569.518,284.061 567,283.5C 566.977,280.949 567.477,278.449 568.5,276C 567.5,275.667 566.5,275.333 565.5,275C 566.701,274.097 567.535,272.931 568,271.5C 568.838,272.999 569.671,273.332 570.5,272.5 Z"/></g>
<g><path style="opacity:1" fill="#202b31" d="M 463.5,311.5 C 461.863,309.525 460.196,307.525 458.5,305.5C 458.535,304.596 459.035,303.93 460,303.5C 463,303.786 466.166,303.786 469.5,303.5C 469.238,304.978 469.571,306.311 470.5,307.5C 472.888,305.639 475.554,304.306 478.5,303.5C 480.618,303.76 482.284,304.76 483.5,306.5C 486.086,307.48 488.753,307.813 491.5,307.5C 493.136,315.433 494.802,315.433 496.5,307.5C 497.167,308.167 497.833,308.833 498.5,309.5C 499.167,307.5 499.833,305.5 500.5,303.5C 501.833,306.167 503.167,306.167 504.5,303.5C 505.587,308.74 506.587,308.74 507.5,303.5C 510.681,303.258 513.681,303.258 516.5,303.5C 517.487,306.768 517.82,310.102 517.5,313.5C 514.833,313.5 512.167,313.5 509.5,313.5C 509.714,317.257 508.714,317.924 506.5,315.5C 505.859,319.371 504.359,320.038 502,317.5C 500.211,319.229 498.044,319.896 495.5,319.5C 495.083,322.343 494.083,325.01 492.5,327.5C 490.942,322.306 489.942,322.306 489.5,327.5C 487.508,327.328 485.842,327.995 484.5,329.5C 482.792,327.457 480.792,325.79 478.5,324.5C 475.506,326.066 474.506,325.399 475.5,322.5C 473.445,321.813 471.779,320.646 470.5,319C 471.749,317.176 472.915,317.343 474,319.5C 473.478,317.951 473.645,316.451 474.5,315C 473.99,313.174 473.156,313.007 472,314.5C 471.798,312.744 471.298,311.078 470.5,309.5C 468.84,313.079 466.673,313.412 464,310.5C 463.601,310.728 463.435,311.062 463.5,311.5 Z"/></g>
<g><path style="opacity:1" fill="#232d34" d="M 456.5,347.5 C 456.413,350.598 456.913,350.932 458,348.5C 458.163,350.676 458.996,352.509 460.5,354C 457.878,356.935 455.878,360.268 454.5,364C 454.892,365.011 455.559,365.511 456.5,365.5C 454.869,367.297 452.869,368.464 450.5,369C 454.131,369.206 454.465,370.373 451.5,372.5C 450.158,371.098 449.324,371.431 449,373.5C 448.333,372.167 447.667,372.167 447,373.5C 446.768,372.263 446.268,371.263 445.5,370.5C 452.38,366.538 454.213,360.871 451,353.5C 449.457,351.622 447.624,350.122 445.5,349C 425.996,348.832 406.662,348.332 387.5,347.5C 398.505,347.667 409.505,347.5 420.5,347C 415.456,346.308 411.122,344.308 407.5,341C 408.641,340.259 408.641,339.425 407.5,338.5C 408.76,337.618 409.926,336.618 411,335.5C 412.754,337.25 414.921,337.917 417.5,337.5C 417.286,341.257 418.286,341.924 420.5,339.5C 421.667,341.167 422.833,342.833 424,344.5C 424.519,343.484 425.353,342.818 426.5,342.5C 427.955,343.39 429.289,343.39 430.5,342.5C 431.192,343.025 431.692,343.692 432,344.5C 433.808,344.112 435.475,344.112 437,344.5C 441.406,345.612 445.573,347.278 449.5,349.5C 450.852,348.482 451.852,347.149 452.5,345.5C 452.296,346.529 452.796,347.529 454,348.5C 454.838,347.001 455.671,346.668 456.5,347.5 Z"/></g>
<g><path style="opacity:1" fill="#1f2b33" d="M 579.5,370.5 C 598.341,370.17 617.007,370.503 635.5,371.5C 617.497,371.333 599.497,371.5 581.5,372C 586.708,372.868 591.874,373.701 597,374.5C 604.333,373.167 611.667,373.167 619,374.5C 621.47,372.513 624.303,372.013 627.5,373C 624.964,375.717 625.297,378.217 628.5,380.5C 629.251,379.624 629.751,378.624 630,377.5C 630.75,378.126 631.584,378.626 632.5,379C 632.167,379.333 631.833,379.667 631.5,380C 633.121,382.166 633.955,384.666 634,387.5C 634.499,391.486 634.666,395.486 634.5,399.5C 615.833,399.5 597.167,399.5 578.5,399.5C 578.863,397.089 577.863,395.589 575.5,395C 576.308,394.692 576.975,394.192 577.5,393.5C 577.154,392.304 576.654,392.304 576,393.5C 575.71,391.956 575.044,390.623 574,389.5C 573.667,392.167 573.333,394.833 573,397.5C 572.758,395.862 571.925,394.362 570.5,393C 571.451,392.282 571.617,391.449 571,390.5C 569.68,390.201 568.18,390.034 566.5,390C 568.787,387.952 568.954,385.785 567,383.5C 565.368,386.423 565.201,389.423 566.5,392.5C 568.167,390.833 569.167,391.167 569.5,393.5C 569.292,396.185 568.125,396.851 566,395.5C 565.667,396.167 565.333,396.833 565,397.5C 563.39,396.893 561.39,396.226 559,395.5C 556.491,396.093 553.991,396.259 551.5,396C 550.167,395.333 550.167,394.667 551.5,394C 553.676,393.837 555.509,393.004 557,391.5C 558.418,393.363 560.251,393.863 562.5,393C 563.337,391.989 563.67,390.822 563.5,389.5C 561.549,389.773 560.049,389.107 559,387.5C 556.894,389.291 554.394,389.958 551.5,389.5C 550.756,387.014 549.256,385.014 547,383.5C 544.851,385.724 545.351,387.224 548.5,388C 547.874,388.75 547.374,389.584 547,390.5C 540.847,390.077 534.68,389.744 528.5,389.5C 526.047,392.088 523.881,391.754 522,388.5C 521.19,383.954 519.857,383.62 518,387.5C 516.799,384.965 514.799,383.632 512,383.5C 509.941,384.618 507.774,385.285 505.5,385.5C 505.672,387.492 505.005,389.158 503.5,390.5C 498.008,392.562 492.341,393.895 486.5,394.5C 485.833,394.167 485.167,393.833 484.5,393.5C 483.304,393.846 483.304,394.346 484.5,395C 483,395.5 481.5,396 480,396.5C 477.738,395.618 475.571,394.618 473.5,393.5C 469.075,394.97 464.575,395.97 460,396.5C 459.107,395.289 458.274,395.289 457.5,396.5C 458.025,397.192 458.692,397.692 459.5,398C 458.584,398.278 457.918,398.778 457.5,399.5C 434.5,399.5 411.5,399.5 388.5,399.5C 388.334,392.492 388.5,385.492 389,378.5C 390.156,379.993 390.99,379.826 391.5,378C 388.508,373.616 389.842,371.616 395.5,372C 392.854,371.503 390.187,371.336 387.5,371.5C 406.659,370.503 425.993,370.17 445.5,370.5C 446.268,371.263 446.768,372.263 447,373.5C 447.667,372.167 448.333,372.167 449,373.5C 449.324,371.431 450.158,371.098 451.5,372.5C 454.465,370.373 454.131,369.206 450.5,369C 452.869,368.464 454.869,367.297 456.5,365.5C 455.559,365.511 454.892,365.011 454.5,364C 455.878,360.268 457.878,356.935 460.5,354C 458.996,352.509 458.163,350.676 458,348.5C 456.913,350.932 456.413,350.598 456.5,347.5C 457.847,346.829 459.014,346.829 460,347.5C 460.206,343.869 461.373,343.535 463.5,346.5C 461.076,348.714 461.743,349.714 465.5,349.5C 465.5,348.167 465.5,346.833 465.5,345.5C 467.512,344.986 469.512,344.82 471.5,345C 468.747,346.174 467.747,348.007 468.5,350.5C 470.116,349.885 471.449,348.885 472.5,347.5C 474.267,352.859 477.767,354.526 483,352.5C 483.5,353 484,353.5 484.5,354C 482.047,355.848 481.047,358.348 481.5,361.5C 480.127,361.343 478.793,361.51 477.5,362C 478.924,364.218 480.924,365.718 483.5,366.5C 481.988,367.862 480.488,368.196 479,367.5C 477.43,368.614 476.097,369.947 475,371.5C 474.32,369.487 472.987,368.154 471,367.5C 469.322,369.282 467.489,369.615 465.5,368.5C 467.04,367.468 467.54,366.135 467,364.5C 465.333,364.167 463.667,363.833 462,363.5C 458.544,366.738 455.377,370.404 452.5,374.5C 452.494,377.826 452.494,380.659 452.5,383C 451.5,383.667 450.5,383.667 449.5,383C 447.224,379.912 444.224,378.579 440.5,379C 444.152,383.44 443.152,385.607 437.5,385.5C 437.286,389.257 438.286,389.924 440.5,387.5C 441.167,388.833 441.833,390.167 442.5,391.5C 443.427,389.887 444.261,388.221 445,386.5C 446.617,387.851 447.784,389.518 448.5,391.5C 449.251,390.624 449.751,389.624 450,388.5C 450.333,388.833 450.667,389.167 451,389.5C 452.171,388.107 453.671,387.273 455.5,387C 456.126,386.25 456.626,385.416 457,384.5C 457.419,385.672 458.085,386.672 459,387.5C 460.647,384.527 462.647,381.86 465,379.5C 465.5,379.667 466,379.833 466.5,380C 465.209,382.09 465.876,383.424 468.5,384C 468.167,384.333 467.833,384.667 467.5,385C 469.455,385.953 471.122,387.287 472.5,389C 471.584,389.374 470.75,389.874 470,390.5C 468.333,390.167 466.667,389.833 465,389.5C 464.5,390 464,390.5 463.5,391C 468.833,391.667 474.167,391.667 479.5,391C 478.377,389.956 477.044,389.29 475.5,389C 478.285,386.839 480.952,384.506 483.5,382C 484.938,381.781 486.271,381.281 487.5,380.5C 488.833,379.5 488.833,378.5 487.5,377.5C 488.723,376.386 490.056,376.219 491.5,377C 491.93,377.92 492.264,378.753 492.5,379.5C 494.605,377.657 495.772,375.324 496,372.5C 496.333,372.167 496.667,371.833 497,371.5C 497.333,372.5 497.667,373.5 498,374.5C 500.468,369.467 501.801,370.134 502,376.5C 503.122,373.924 504.122,371.257 505,368.5C 506.356,367.62 507.856,367.286 509.5,367.5C 509.215,369.288 509.548,370.955 510.5,372.5C 512.071,369.907 514.404,368.907 517.5,369.5C 517.36,371.124 518.027,372.29 519.5,373C 521.664,373.433 523.664,372.933 525.5,371.5C 526.672,371.919 527.672,372.585 528.5,373.5C 529.681,371.865 529.681,370.198 528.5,368.5C 530.045,367.548 531.712,367.215 533.5,367.5C 534.223,370.613 535.723,373.279 538,375.5C 539.194,374.57 540.527,373.903 542,373.5C 543.597,374.885 545.43,375.551 547.5,375.5C 547.238,376.978 547.571,378.311 548.5,379.5C 549.5,378.167 550.5,378.167 551.5,379.5C 552.814,378.687 553.981,377.687 555,376.5C 555.414,376.957 555.914,377.291 556.5,377.5C 557.519,376.313 558.686,375.313 560,374.5C 561.826,376.179 563.992,377.346 566.5,378C 565.833,378.333 565.167,378.667 564.5,379C 566.807,379.779 568.807,379.279 570.5,377.5C 571.216,378.311 572.05,378.978 573,379.5C 574.727,379.354 574.894,378.687 573.5,377.5C 577.597,376.976 579.597,374.642 579.5,370.5 Z"/></g>
<g><path style="opacity:1" fill="#2d373c" d="M 387.5,371.5 C 390.187,371.336 392.854,371.503 395.5,372C 389.842,371.616 388.508,373.616 391.5,378C 390.99,379.826 390.156,379.993 389,378.5C 388.5,385.492 388.334,392.492 388.5,399.5C 411.5,399.5 434.5,399.5 457.5,399.5C 498.112,399.32 538.446,399.32 578.5,399.5C 597.167,399.5 615.833,399.5 634.5,399.5C 634.666,395.486 634.499,391.486 634,387.5C 633.955,384.666 633.121,382.166 631.5,380C 631.833,379.667 632.167,379.333 632.5,379C 631.584,378.626 630.75,378.126 630,377.5C 629.751,378.624 629.251,379.624 628.5,380.5C 625.297,378.217 624.964,375.717 627.5,373C 624.303,372.013 621.47,372.513 619,374.5C 611.667,373.167 604.333,373.167 597,374.5C 591.874,373.701 586.708,372.868 581.5,372C 599.497,371.5 617.497,371.333 635.5,371.5C 636.829,381.235 636.829,391.069 635.5,401C 552.611,401.692 469.944,401.525 387.5,400.5C 387.5,390.833 387.5,381.167 387.5,371.5 Z"/></g>
<g><path style="opacity:1" fill="#202b34" d="M 578.5,399.5 C 538.446,399.32 498.112,399.32 457.5,399.5C 457.918,398.778 458.584,398.278 459.5,398C 458.692,397.692 458.025,397.192 457.5,396.5C 458.274,395.289 459.107,395.289 460,396.5C 464.575,395.97 469.075,394.97 473.5,393.5C 475.571,394.618 477.738,395.618 480,396.5C 481.5,396 483,395.5 484.5,395C 483.304,394.346 483.304,393.846 484.5,393.5C 485.167,393.833 485.833,394.167 486.5,394.5C 492.341,393.895 498.008,392.562 503.5,390.5C 505.005,389.158 505.672,387.492 505.5,385.5C 507.774,385.285 509.941,384.618 512,383.5C 514.799,383.632 516.799,384.965 518,387.5C 519.857,383.62 521.19,383.954 522,388.5C 523.881,391.754 526.047,392.088 528.5,389.5C 534.68,389.744 540.847,390.077 547,390.5C 547.374,389.584 547.874,388.75 548.5,388C 545.351,387.224 544.851,385.724 547,383.5C 549.256,385.014 550.756,387.014 551.5,389.5C 554.394,389.958 556.894,389.291 559,387.5C 560.049,389.107 561.549,389.773 563.5,389.5C 563.67,390.822 563.337,391.989 562.5,393C 560.251,393.863 558.418,393.363 557,391.5C 555.509,393.004 553.676,393.837 551.5,394C 550.167,394.667 550.167,395.333 551.5,396C 553.991,396.259 556.491,396.093 559,395.5C 561.39,396.226 563.39,396.893 565,397.5C 565.333,396.833 565.667,396.167 566,395.5C 568.125,396.851 569.292,396.185 569.5,393.5C 569.167,391.167 568.167,390.833 566.5,392.5C 565.201,389.423 565.368,386.423 567,383.5C 568.954,385.785 568.787,387.952 566.5,390C 568.18,390.034 569.68,390.201 571,390.5C 571.617,391.449 571.451,392.282 570.5,393C 571.925,394.362 572.758,395.862 573,397.5C 573.333,394.833 573.667,392.167 574,389.5C 575.044,390.623 575.71,391.956 576,393.5C 576.654,392.304 577.154,392.304 577.5,393.5C 576.975,394.192 576.308,394.692 575.5,395C 577.863,395.589 578.863,397.089 578.5,399.5 Z"/></g>
<g><path style="opacity:1" fill="#212b34" d="M 634.5,425.5 C 635.833,439.985 636.499,454.818 636.5,470C 636.333,484.833 636.167,499.667 636,514.5C 635.238,524.41 633.405,534.076 630.5,543.5C 629.211,542.499 627.878,542.666 626.5,544C 625.726,546.405 625.226,548.905 625,551.5C 623.865,551.727 622.698,552.06 621.5,552.5C 622.04,553.748 622.707,554.915 623.5,556C 621.431,556.324 621.098,557.158 622.5,558.5C 621.985,560.225 621.318,561.892 620.5,563.5C 619.326,561.776 618.326,560.109 617.5,558.5C 613.916,559.893 610.249,560.726 606.5,561C 610.347,563.705 610.347,566.371 606.5,569C 607.833,569.667 608.833,570.667 609.5,572C 608.004,572.507 606.837,572.007 606,570.5C 605.833,570.833 605.667,571.167 605.5,571.5C 606.605,572.892 607.939,574.059 609.5,575C 608.572,575.388 607.905,576.055 607.5,577C 608.615,578.235 608.615,579.402 607.5,580.5C 605.713,581.316 604.046,582.316 602.5,583.5C 601.964,581.031 600.964,578.864 599.5,577C 600.428,576.612 601.095,575.945 601.5,575C 600.209,572.629 599.209,570.129 598.5,567.5C 596.326,564.919 594.16,564.919 592,567.5C 591.578,564.764 591.578,562.098 592,559.5C 587.547,556.348 582.714,554.015 577.5,552.5C 578.833,551.833 580.167,551.167 581.5,550.5C 578.68,547.757 575.347,546.09 571.5,545.5C 571.762,546.978 571.429,548.311 570.5,549.5C 569.833,546.833 569.167,544.167 568.5,541.5C 567.772,544.212 566.939,546.879 566,549.5C 565.667,547.5 565.333,545.5 565,543.5C 562.903,544.991 560.57,545.991 558,546.5C 557.751,545.376 557.251,544.376 556.5,543.5C 555.851,545.624 555.017,547.624 554,549.5C 553.692,548.692 553.192,548.025 552.5,547.5C 551.833,550.167 551.167,552.833 550.5,555.5C 549.833,554.833 549.167,554.167 548.5,553.5C 547.833,555.5 547.167,557.5 546.5,559.5C 544.981,554.436 543.814,554.77 543,560.5C 541.989,561.337 540.822,561.67 539.5,561.5C 540.172,564.908 539.172,567.575 536.5,569.5C 535.571,570.689 535.238,572.022 535.5,573.5C 539.335,574.004 539.335,575.004 535.5,576.5C 536.5,577.5 537.5,578.5 538.5,579.5C 539.324,577.252 540.324,577.086 541.5,579C 540.833,579.667 540.167,580.333 539.5,581C 542.23,581.728 544.897,581.562 547.5,580.5C 548.795,581.098 550.128,581.598 551.5,582C 550.675,583.688 549.675,583.855 548.5,582.5C 547.167,584.167 547.167,585.833 548.5,587.5C 549.192,586.975 549.692,586.308 550,585.5C 551,587.5 552,589.5 553,591.5C 553.219,590.062 553.719,588.729 554.5,587.5C 555.243,588.908 556.077,590.241 557,591.5C 558.364,590.742 559.531,591.242 560.5,593C 562.9,593.186 565.234,593.686 567.5,594.5C 564.912,595.71 562.412,597.044 560,598.5C 560.07,601.992 559.237,604.992 557.5,607.5C 557.5,604.833 557.5,602.167 557.5,599.5C 556.127,599.657 554.793,599.49 553.5,599C 554.167,598.667 554.833,598.333 555.5,598C 550.447,596.668 546.114,597.835 542.5,601.5C 541.094,600.049 539.594,598.716 538,597.5C 538.289,594.723 538.789,592.223 539.5,590C 536.096,589.3 533.096,590.133 530.5,592.5C 523.604,589.295 518.937,583.962 516.5,576.5C 514.671,577.282 513.171,576.616 512,574.5C 511.517,573.552 511.351,572.552 511.5,571.5C 509.738,571.357 508.071,571.691 506.5,572.5C 505.019,570.186 503.352,568.019 501.5,566C 501.667,565.5 501.833,565 502,564.5C 503.049,565.517 504.216,565.684 505.5,565C 504.809,563.933 504.309,562.766 504,561.5C 502.853,562.458 501.853,562.125 501,560.5C 500.289,558.633 500.789,557.133 502.5,556C 501.1,552.117 498.766,551.617 495.5,554.5C 495.833,555.167 496.167,555.833 496.5,556.5C 491.95,557.8 487.45,557.8 483,556.5C 480.96,558.041 478.793,559.374 476.5,560.5C 477.206,562.479 477.206,564.146 476.5,565.5C 473.266,563.428 472.933,561.095 475.5,558.5C 473.167,557.046 472.5,555.213 473.5,553C 472.172,550.833 470.506,549 468.5,547.5C 466.367,550.338 465.034,553.505 464.5,557C 465.672,557.419 466.672,558.085 467.5,559C 465.324,559.163 463.491,559.996 462,561.5C 461.5,560.333 460.667,559.5 459.5,559C 460.451,558.282 460.617,557.449 460,556.5C 458.185,558.405 456.185,560.072 454,561.5C 452.333,560.167 450.667,558.833 449,557.5C 446.776,559.054 444.276,560.054 441.5,560.5C 441.306,562.07 441.306,563.57 441.5,565C 439.892,565.658 438.725,565.158 438,563.5C 437.667,561.833 437.333,560.167 437,558.5C 434.624,557.624 433.124,555.958 432.5,553.5C 431.792,556.366 431.125,559.2 430.5,562C 430.833,562.333 431.167,562.667 431.5,563C 430.328,563.419 429.328,564.085 428.5,565C 428.694,566.43 428.694,567.93 428.5,569.5C 426.444,567.981 424.11,567.147 421.5,567C 422.451,566.282 422.617,565.449 422,564.5C 420.316,562.649 418.483,560.982 416.5,559.5C 414.15,561.687 412.15,564.187 410.5,567C 410.833,567.333 411.167,567.667 411.5,568C 409.382,569.049 407.716,570.549 406.5,572.5C 392.573,551.031 385.906,527.364 386.5,501.5C 387.477,487.684 387.81,474.351 387.5,461.5C 388.88,461.038 389.547,460.038 389.5,458.5C 388.76,453.048 388.427,447.714 388.5,442.5C 389.5,442.5 390.5,442.5 391.5,442.5C 392.167,446.167 392.833,449.833 393.5,453.5C 394.5,453.5 395.5,453.5 396.5,453.5C 396.657,454.873 396.49,456.207 396,457.5C 394.519,454.936 393.019,454.936 391.5,457.5C 391.887,460.817 393.053,464.151 395,467.5C 399.097,465.073 402.597,461.906 405.5,458C 406.833,458.333 408.167,458.667 409.5,459C 412.488,456.539 413.821,453.372 413.5,449.5C 417.78,448.437 422.113,447.437 426.5,446.5C 428.5,444.5 430.5,442.5 432.5,440.5C 433.325,439.614 434.325,439.281 435.5,439.5C 435.351,440.552 435.517,441.552 436,442.5C 436.333,442.167 436.667,441.833 437,441.5C 438.049,443.107 439.549,443.773 441.5,443.5C 441.343,442.127 441.51,440.793 442,439.5C 445.032,440.092 447.698,441.426 450,443.5C 451.828,441.193 453.494,441.526 455,444.5C 455.692,443.975 456.192,443.308 456.5,442.5C 455.484,439.866 455.484,437.2 456.5,434.5C 453.903,434.357 451.569,433.523 449.5,432C 453.969,432.481 458.136,432.315 462,431.5C 462.245,433.663 463.245,435.33 465,436.5C 468.178,435.574 471.511,435.24 475,435.5C 477.407,437.452 480.073,437.452 483,435.5C 483.219,436.938 483.719,438.271 484.5,439.5C 483.892,437.316 484.559,435.316 486.5,433.5C 487.434,438.173 488.934,438.506 491,434.5C 491.414,434.957 491.914,435.291 492.5,435.5C 494.5,433.833 496.5,432.167 498.5,430.5C 500.833,430.667 503.167,430.833 505.5,431C 505.381,429.719 505.881,428.552 507,427.5C 507.55,432.07 508.717,432.403 510.5,428.5C 512.62,429.872 513.62,429.205 513.5,426.5C 523.19,426.168 532.856,426.502 542.5,427.5C 543.145,428.646 543.978,429.646 545,430.5C 545.423,429.044 546.256,428.544 547.5,429C 546.167,429.667 546.167,430.333 547.5,431C 545.5,431.333 543.5,431.667 541.5,432C 544.298,433.196 546.298,435.196 547.5,438C 544.833,438.667 544.833,439.333 547.5,440C 545.606,441.101 544.939,442.434 545.5,444C 543.098,445.283 540.598,446.45 538,447.5C 536.244,446.195 534.577,445.528 533,445.5C 530.942,446.109 530.109,447.109 530.5,448.5C 529.549,447.674 528.549,447.508 527.5,448C 528.563,449.188 529.897,449.688 531.5,449.5C 531.231,451.429 531.731,453.095 533,454.5C 536.744,453.374 540.577,453.207 544.5,454C 541.167,455 537.833,456 534.5,457C 537.028,459.057 540.028,460.057 543.5,460C 541.054,460.881 538.721,462.047 536.5,463.5C 535.165,465.647 535.331,467.647 537,469.5C 537.949,465.622 539.115,465.622 540.5,469.5C 541.308,467.577 541.808,465.577 542,463.5C 542.543,465.631 543.376,467.631 544.5,469.5C 545.893,468.137 547.559,467.304 549.5,467C 550.833,466 550.833,465 549.5,464C 553.236,462.493 553.236,461.66 549.5,461.5C 549.338,459.473 549.505,457.473 550,455.5C 551.667,455.5 553.333,455.5 555,455.5C 555.72,457.112 555.554,458.612 554.5,460C 555.328,460.915 556.328,461.581 557.5,462C 555.068,463.087 555.402,463.587 558.5,463.5C 558.519,461.94 558.852,460.44 559.5,459C 558.576,457.189 557.743,457.355 557,459.5C 556.51,458.207 556.343,456.873 556.5,455.5C 557.5,455.5 558.5,455.5 559.5,455.5C 559.249,451.846 557.249,449.679 553.5,449C 555.767,447.919 555.934,446.419 554,444.5C 552.795,443.929 551.628,443.262 550.5,442.5C 551.64,440.527 552.973,438.693 554.5,437C 554.167,436.667 553.833,436.333 553.5,436C 554.966,435.365 556.3,434.531 557.5,433.5C 560.155,435.02 560.822,434.52 559.5,432C 560.34,430.829 561.173,429.662 562,428.5C 563.68,429.603 565.18,429.27 566.5,427.5C 567.478,427.977 568.311,428.643 569,429.5C 569.236,427.881 570.069,426.881 571.5,426.5C 574.578,427.23 577.578,428.397 580.5,430C 579.167,430.667 579.167,431.333 580.5,432C 577.456,432.359 577.122,433.026 579.5,434C 578.549,434.718 578.383,435.551 579,436.5C 580.726,435.424 582.559,435.257 584.5,436C 583.953,438.367 582.953,440.533 581.5,442.5C 583.482,443.216 585.149,444.383 586.5,446C 586.167,446.333 585.833,446.667 585.5,447C 587.457,446.59 589.123,445.424 590.5,443.5C 591.338,446.416 591.338,449.082 590.5,451.5C 593.162,457.776 598.162,461.776 605.5,463.5C 606.151,465.826 606.818,468.159 607.5,470.5C 607.291,471.994 606.624,473.161 605.5,474C 608.167,476 608.167,478 605.5,480C 607.09,481.046 608.59,482.213 610,483.5C 610.333,483.167 610.667,482.833 611,482.5C 611.483,483.448 611.649,484.448 611.5,485.5C 615.58,485.897 619.246,484.897 622.5,482.5C 623.66,484.073 624.66,485.739 625.5,487.5C 624.042,490.837 622.708,494.171 621.5,497.5C 624.105,501.388 624.105,505.221 621.5,509C 621.667,509.5 621.833,510 622,510.5C 622.667,509.167 623.333,509.167 624,510.5C 624.691,508.109 625.691,508.109 627,510.5C 628.666,509.66 628.833,510.16 627.5,512C 628,512.5 628.5,513 629,513.5C 629.34,508.996 629.507,504.663 629.5,500.5C 626.833,499.167 626.833,497.833 629.5,496.5C 628.96,495.252 628.293,494.085 627.5,493C 629.095,493.617 630.428,493.284 631.5,492C 630.5,491.667 629.5,491.333 628.5,491C 629.428,490.612 630.095,489.945 630.5,489C 628.685,487.3 627.685,485.134 627.5,482.5C 626.692,478.873 626.358,475.373 626.5,472C 628.521,469.957 628.854,467.957 627.5,466C 628.466,463.901 629.8,462.068 631.5,460.5C 630.076,458.572 628.242,457.238 626,456.5C 622.35,459.597 618.35,462.264 614,464.5C 610.604,463.312 609.771,461.145 611.5,458C 610.072,455.865 608.738,453.698 607.5,451.5C 608.833,450.38 609.333,449.047 609,447.5C 607.374,447.854 605.541,447.854 603.5,447.5C 603.657,446.127 603.49,444.793 603,443.5C 602.667,444.167 602.333,444.833 602,445.5C 601.667,444.167 601.333,442.833 601,441.5C 599.989,442.337 598.822,442.67 597.5,442.5C 597.33,441.178 597.663,440.011 598.5,439C 595.438,437.795 592.438,436.628 589.5,435.5C 590.049,433.099 590.882,430.765 592,428.5C 593.667,429.5 595.333,430.5 597,431.5C 599.463,428.804 601.963,428.471 604.5,430.5C 605.519,429.313 606.686,428.313 608,427.5C 614.186,427.776 620.186,427.776 626,427.5C 627.22,429.857 628.053,429.524 628.5,426.5C 630.735,426.795 632.735,426.461 634.5,425.5 Z"/></g>
<g><path style="opacity:1" fill="#202b32" d="M 513.5,426.5 C 513.62,429.205 512.62,429.872 510.5,428.5C 508.717,432.403 507.55,432.07 507,427.5C 505.881,428.552 505.381,429.719 505.5,431C 503.167,430.833 500.833,430.667 498.5,430.5C 496.5,432.167 494.5,433.833 492.5,435.5C 491.914,435.291 491.414,434.957 491,434.5C 488.934,438.506 487.434,438.173 486.5,433.5C 484.559,435.316 483.892,437.316 484.5,439.5C 483.719,438.271 483.219,436.938 483,435.5C 480.073,437.452 477.407,437.452 475,435.5C 471.511,435.24 468.178,435.574 465,436.5C 463.245,435.33 462.245,433.663 462,431.5C 458.136,432.315 453.969,432.481 449.5,432C 451.569,433.523 453.903,434.357 456.5,434.5C 455.484,437.2 455.484,439.866 456.5,442.5C 456.192,443.308 455.692,443.975 455,444.5C 453.494,441.526 451.828,441.193 450,443.5C 447.698,441.426 445.032,440.092 442,439.5C 441.51,440.793 441.343,442.127 441.5,443.5C 439.549,443.773 438.049,443.107 437,441.5C 436.667,441.833 436.333,442.167 436,442.5C 435.517,441.552 435.351,440.552 435.5,439.5C 434.325,439.281 433.325,439.614 432.5,440.5C 430.5,442.5 428.5,444.5 426.5,446.5C 422.113,447.437 417.78,448.437 413.5,449.5C 413.821,453.372 412.488,456.539 409.5,459C 408.167,458.667 406.833,458.333 405.5,458C 402.597,461.906 399.097,465.073 395,467.5C 393.053,464.151 391.887,460.817 391.5,457.5C 393.019,454.936 394.519,454.936 396,457.5C 396.49,456.207 396.657,454.873 396.5,453.5C 395.5,453.5 394.5,453.5 393.5,453.5C 392.833,449.833 392.167,446.167 391.5,442.5C 390.5,442.5 389.5,442.5 388.5,442.5C 388.427,447.714 388.76,453.048 389.5,458.5C 389.547,460.038 388.88,461.038 387.5,461.5C 387.5,461.167 387.5,460.833 387.5,460.5C 387.5,449.167 387.5,437.833 387.5,426.5C 429.5,426.5 471.5,426.5 513.5,426.5 Z"/></g>
<g><path style="opacity:1" fill="#252f35" d="M 634.5,425.5 C 632.735,426.461 630.735,426.795 628.5,426.5C 609.5,426.5 590.5,426.5 571.5,426.5C 570.069,426.881 569.236,427.881 569,429.5C 568.311,428.643 567.478,427.977 566.5,427.5C 565.18,429.27 563.68,429.603 562,428.5C 561.173,429.662 560.34,430.829 559.5,432C 560.822,434.52 560.155,435.02 557.5,433.5C 556.3,434.531 554.966,435.365 553.5,436C 553.833,436.333 554.167,436.667 554.5,437C 552.973,438.693 551.64,440.527 550.5,442.5C 551.628,443.262 552.795,443.929 554,444.5C 555.934,446.419 555.767,447.919 553.5,449C 557.249,449.679 559.249,451.846 559.5,455.5C 558.5,455.5 557.5,455.5 556.5,455.5C 556.343,456.873 556.51,458.207 557,459.5C 557.743,457.355 558.576,457.189 559.5,459C 558.852,460.44 558.519,461.94 558.5,463.5C 555.402,463.587 555.068,463.087 557.5,462C 556.328,461.581 555.328,460.915 554.5,460C 555.554,458.612 555.72,457.112 555,455.5C 553.333,455.5 551.667,455.5 550,455.5C 549.505,457.473 549.338,459.473 549.5,461.5C 553.236,461.66 553.236,462.493 549.5,464C 550.833,465 550.833,466 549.5,467C 547.559,467.304 545.893,468.137 544.5,469.5C 543.376,467.631 542.543,465.631 542,463.5C 541.808,465.577 541.308,467.577 540.5,469.5C 539.115,465.622 537.949,465.622 537,469.5C 535.331,467.647 535.165,465.647 536.5,463.5C 538.721,462.047 541.054,460.881 543.5,460C 540.028,460.057 537.028,459.057 534.5,457C 537.833,456 541.167,455 544.5,454C 540.577,453.207 536.744,453.374 533,454.5C 531.731,453.095 531.231,451.429 531.5,449.5C 529.897,449.688 528.563,449.188 527.5,448C 528.549,447.508 529.549,447.674 530.5,448.5C 530.109,447.109 530.942,446.109 533,445.5C 534.577,445.528 536.244,446.195 538,447.5C 540.598,446.45 543.098,445.283 545.5,444C 544.939,442.434 545.606,441.101 547.5,440C 544.833,439.333 544.833,438.667 547.5,438C 546.298,435.196 544.298,433.196 541.5,432C 543.5,431.667 545.5,431.333 547.5,431C 546.167,430.333 546.167,429.667 547.5,429C 546.256,428.544 545.423,429.044 545,430.5C 543.978,429.646 543.145,428.646 542.5,427.5C 532.856,426.502 523.19,426.168 513.5,426.5C 471.5,426.5 429.5,426.5 387.5,426.5C 387.5,437.833 387.5,449.167 387.5,460.5C 386.505,449.012 386.172,437.345 386.5,425.5C 469.167,425.5 551.833,425.5 634.5,425.5 Z"/></g>
<g><path style="opacity:1" fill="#1f2b33" d="M 571.5,426.5 C 590.5,426.5 609.5,426.5 628.5,426.5C 628.053,429.524 627.22,429.857 626,427.5C 620.186,427.776 614.186,427.776 608,427.5C 606.686,428.313 605.519,429.313 604.5,430.5C 601.963,428.471 599.463,428.804 597,431.5C 595.333,430.5 593.667,429.5 592,428.5C 590.882,430.765 590.049,433.099 589.5,435.5C 592.438,436.628 595.438,437.795 598.5,439C 597.663,440.011 597.33,441.178 597.5,442.5C 598.822,442.67 599.989,442.337 601,441.5C 601.333,442.833 601.667,444.167 602,445.5C 602.333,444.833 602.667,444.167 603,443.5C 603.49,444.793 603.657,446.127 603.5,447.5C 605.541,447.854 607.374,447.854 609,447.5C 609.333,449.047 608.833,450.38 607.5,451.5C 608.738,453.698 610.072,455.865 611.5,458C 609.771,461.145 610.604,463.312 614,464.5C 618.35,462.264 622.35,459.597 626,456.5C 628.242,457.238 630.076,458.572 631.5,460.5C 629.8,462.068 628.466,463.901 627.5,466C 628.854,467.957 628.521,469.957 626.5,472C 626.358,475.373 626.692,478.873 627.5,482.5C 627.685,485.134 628.685,487.3 630.5,489C 630.095,489.945 629.428,490.612 628.5,491C 629.5,491.333 630.5,491.667 631.5,492C 630.428,493.284 629.095,493.617 627.5,493C 628.293,494.085 628.96,495.252 629.5,496.5C 626.833,497.833 626.833,499.167 629.5,500.5C 629.507,504.663 629.34,508.996 629,513.5C 628.5,513 628,512.5 627.5,512C 628.833,510.16 628.666,509.66 627,510.5C 625.691,508.109 624.691,508.109 624,510.5C 623.333,509.167 622.667,509.167 622,510.5C 621.833,510 621.667,509.5 621.5,509C 624.105,505.221 624.105,501.388 621.5,497.5C 622.708,494.171 624.042,490.837 625.5,487.5C 624.66,485.739 623.66,484.073 622.5,482.5C 619.246,484.897 615.58,485.897 611.5,485.5C 611.649,484.448 611.483,483.448 611,482.5C 610.667,482.833 610.333,483.167 610,483.5C 608.59,482.213 607.09,481.046 605.5,480C 608.167,478 608.167,476 605.5,474C 606.624,473.161 607.291,471.994 607.5,470.5C 606.818,468.159 606.151,465.826 605.5,463.5C 598.162,461.776 593.162,457.776 590.5,451.5C 591.338,449.082 591.338,446.416 590.5,443.5C 589.123,445.424 587.457,446.59 585.5,447C 585.833,446.667 586.167,446.333 586.5,446C 585.149,444.383 583.482,443.216 581.5,442.5C 582.953,440.533 583.953,438.367 584.5,436C 582.559,435.257 580.726,435.424 579,436.5C 578.383,435.551 578.549,434.718 579.5,434C 577.122,433.026 577.456,432.359 580.5,432C 579.167,431.333 579.167,430.667 580.5,430C 577.578,428.397 574.578,427.23 571.5,426.5 Z"/></g>
<g><path style="opacity:1" fill="#1e2b33" d="M 374.5,576.5 C 373.264,578.828 371.264,579.994 368.5,580C 369.167,580.333 369.833,580.667 370.5,581C 370.324,582.692 369.824,584.192 369,585.5C 368.667,585.167 368.333,584.833 368,584.5C 365.049,588.4 362.382,588.067 360,583.5C 360.046,585.313 359.88,586.979 359.5,588.5C 360.025,589.192 360.692,589.692 361.5,590C 361.167,590.333 360.833,590.667 360.5,591C 362.107,592.049 362.773,593.549 362.5,595.5C 360.167,595.5 357.833,595.5 355.5,595.5C 355.081,598.026 354.914,600.359 355,602.5C 354.311,601.643 353.478,600.977 352.5,600.5C 347.573,602.35 346.573,605.35 349.5,609.5C 349.376,610.107 349.043,610.44 348.5,610.5C 330.767,583.139 320.267,553.139 317,520.5C 316.333,501.833 316.333,483.167 317,464.5C 320.99,453.52 328.824,448.687 340.5,450C 347.318,451.326 352.152,455.16 355,461.5C 356.295,480.102 356.962,498.768 357,517.5C 359.306,538.249 365.14,557.916 374.5,576.5 Z"/></g>
<g><path style="opacity:1" fill="#1f2c34" d="M 630.5,543.5 C 619.136,577.864 597.136,602.864 564.5,618.5C 561.789,617.689 559.455,617.022 557.5,616.5C 558.398,615.842 559.398,615.176 560.5,614.5C 556.472,613.445 555.472,611.111 557.5,607.5C 559.237,604.992 560.07,601.992 560,598.5C 562.412,597.044 564.912,595.71 567.5,594.5C 565.234,593.686 562.9,593.186 560.5,593C 559.531,591.242 558.364,590.742 557,591.5C 556.077,590.241 555.243,588.908 554.5,587.5C 553.719,588.729 553.219,590.062 553,591.5C 552,589.5 551,587.5 550,585.5C 549.692,586.308 549.192,586.975 548.5,587.5C 547.167,585.833 547.167,584.167 548.5,582.5C 549.675,583.855 550.675,583.688 551.5,582C 550.128,581.598 548.795,581.098 547.5,580.5C 544.897,581.562 542.23,581.728 539.5,581C 540.167,580.333 540.833,579.667 541.5,579C 540.324,577.086 539.324,577.252 538.5,579.5C 537.5,578.5 536.5,577.5 535.5,576.5C 539.335,575.004 539.335,574.004 535.5,573.5C 535.238,572.022 535.571,570.689 536.5,569.5C 539.172,567.575 540.172,564.908 539.5,561.5C 540.822,561.67 541.989,561.337 543,560.5C 543.814,554.77 544.981,554.436 546.5,559.5C 547.167,557.5 547.833,555.5 548.5,553.5C 549.167,554.167 549.833,554.833 550.5,555.5C 551.167,552.833 551.833,550.167 552.5,547.5C 553.192,548.025 553.692,548.692 554,549.5C 555.017,547.624 555.851,545.624 556.5,543.5C 557.251,544.376 557.751,545.376 558,546.5C 560.57,545.991 562.903,544.991 565,543.5C 565.333,545.5 565.667,547.5 566,549.5C 566.939,546.879 567.772,544.212 568.5,541.5C 569.167,544.167 569.833,546.833 570.5,549.5C 571.429,548.311 571.762,546.978 571.5,545.5C 575.347,546.09 578.68,547.757 581.5,550.5C 580.167,551.167 578.833,551.833 577.5,552.5C 582.714,554.015 587.547,556.348 592,559.5C 591.578,562.098 591.578,564.764 592,567.5C 594.16,564.919 596.326,564.919 598.5,567.5C 599.209,570.129 600.209,572.629 601.5,575C 601.095,575.945 600.428,576.612 599.5,577C 600.964,578.864 601.964,581.031 602.5,583.5C 604.046,582.316 605.713,581.316 607.5,580.5C 608.615,579.402 608.615,578.235 607.5,577C 607.905,576.055 608.572,575.388 609.5,575C 607.939,574.059 606.605,572.892 605.5,571.5C 605.667,571.167 605.833,570.833 606,570.5C 606.837,572.007 608.004,572.507 609.5,572C 608.833,570.667 607.833,569.667 606.5,569C 610.347,566.371 610.347,563.705 606.5,561C 610.249,560.726 613.916,559.893 617.5,558.5C 618.326,560.109 619.326,561.776 620.5,563.5C 621.318,561.892 621.985,560.225 622.5,558.5C 621.098,557.158 621.431,556.324 623.5,556C 622.707,554.915 622.04,553.748 621.5,552.5C 622.698,552.06 623.865,551.727 625,551.5C 625.226,548.905 625.726,546.405 626.5,544C 627.878,542.666 629.211,542.499 630.5,543.5 Z"/></g>
<g><path style="opacity:1" fill="#1e2b33" d="M 557.5,607.5 C 555.472,611.111 556.472,613.445 560.5,614.5C 559.398,615.176 558.398,615.842 557.5,616.5C 555.534,615.454 553.534,614.454 551.5,613.5C 549.069,614.806 549.403,615.806 552.5,616.5C 552.333,616.833 552.167,617.167 552,617.5C 550.612,616.446 549.112,616.28 547.5,617C 548.308,617.308 548.975,617.808 549.5,618.5C 545.077,619.934 540.911,621.267 537,622.5C 532.138,621.664 527.305,621.331 522.5,621.5C 521.312,622.84 519.812,623.507 518,623.5C 515.941,622.382 513.774,621.715 511.5,621.5C 511.34,619.801 511.506,618.134 512,616.5C 513.826,617.841 514.993,617.341 515.5,615C 514.924,613.286 513.757,612.119 512,611.5C 511.749,609.567 511.249,607.734 510.5,606C 505.5,605.667 500.5,605.333 495.5,605C 496.759,604.077 498.092,603.243 499.5,602.5C 495.98,599.511 492.813,599.844 490,603.5C 487.091,600.087 483.925,596.754 480.5,593.5C 480.167,594.167 479.833,594.833 479.5,595.5C 480.278,597.147 481.444,598.48 483,599.5C 481.995,604.254 480.495,604.42 478.5,600C 477.552,599.517 476.552,599.351 475.5,599.5C 475.405,603.225 475.238,606.891 475,610.5C 476.406,611.668 477.572,611.335 478.5,609.5C 480.5,610.5 482.5,611.5 484.5,612.5C 483.03,614.482 483.364,616.148 485.5,617.5C 484.726,618.711 483.893,618.711 483,617.5C 481.42,621.327 479.92,621.161 478.5,617C 473.233,617.747 472.567,616.414 476.5,613C 474.196,612.105 471.862,611.271 469.5,610.5C 470.376,609.749 471.376,609.249 472.5,609C 472.167,608.667 471.833,608.333 471.5,608C 468.554,608.57 465.554,608.904 462.5,609C 462.833,608.667 463.167,608.333 463.5,608C 460.998,606.504 459.331,604.337 458.5,601.5C 457.253,603.006 457.253,604.506 458.5,606C 457.929,607.205 457.262,608.372 456.5,609.5C 453.993,609.935 451.659,611.268 449.5,613.5C 431.619,603.62 417.285,589.953 406.5,572.5C 407.716,570.549 409.382,569.049 411.5,568C 411.167,567.667 410.833,567.333 410.5,567C 412.15,564.187 414.15,561.687 416.5,559.5C 418.483,560.982 420.316,562.649 422,564.5C 422.617,565.449 422.451,566.282 421.5,567C 424.11,567.147 426.444,567.981 428.5,569.5C 428.694,567.93 428.694,566.43 428.5,565C 429.328,564.085 430.328,563.419 431.5,563C 431.167,562.667 430.833,562.333 430.5,562C 431.125,559.2 431.792,556.366 432.5,553.5C 433.124,555.958 434.624,557.624 437,558.5C 437.333,560.167 437.667,561.833 438,563.5C 438.725,565.158 439.892,565.658 441.5,565C 441.306,563.57 441.306,562.07 441.5,560.5C 444.276,560.054 446.776,559.054 449,557.5C 450.667,558.833 452.333,560.167 454,561.5C 456.185,560.072 458.185,558.405 460,556.5C 460.617,557.449 460.451,558.282 459.5,559C 460.667,559.5 461.5,560.333 462,561.5C 463.491,559.996 465.324,559.163 467.5,559C 466.672,558.085 465.672,557.419 464.5,557C 465.034,553.505 466.367,550.338 468.5,547.5C 470.506,549 472.172,550.833 473.5,553C 472.5,555.213 473.167,557.046 475.5,558.5C 472.933,561.095 473.266,563.428 476.5,565.5C 477.206,564.146 477.206,562.479 476.5,560.5C 478.793,559.374 480.96,558.041 483,556.5C 487.45,557.8 491.95,557.8 496.5,556.5C 496.167,555.833 495.833,555.167 495.5,554.5C 498.766,551.617 501.1,552.117 502.5,556C 500.789,557.133 500.289,558.633 501,560.5C 501.853,562.125 502.853,562.458 504,561.5C 504.309,562.766 504.809,563.933 505.5,565C 504.216,565.684 503.049,565.517 502,564.5C 501.833,565 501.667,565.5 501.5,566C 503.352,568.019 505.019,570.186 506.5,572.5C 508.071,571.691 509.738,571.357 511.5,571.5C 511.351,572.552 511.517,573.552 512,574.5C 513.171,576.616 514.671,577.282 516.5,576.5C 518.937,583.962 523.604,589.295 530.5,592.5C 533.096,590.133 536.096,589.3 539.5,590C 538.789,592.223 538.289,594.723 538,597.5C 539.594,598.716 541.094,600.049 542.5,601.5C 546.114,597.835 550.447,596.668 555.5,598C 554.833,598.333 554.167,598.667 553.5,599C 554.793,599.49 556.127,599.657 557.5,599.5C 557.5,602.167 557.5,604.833 557.5,607.5 Z"/></g>
<g><path style="opacity:1" fill="#1f2d34" d="M 374.5,576.5 C 384.586,593.592 396.92,608.925 411.5,622.5C 409.598,623.511 407.598,623.678 405.5,623C 409.19,622.576 409.357,621.742 406,620.5C 405.667,620.833 405.333,621.167 405,621.5C 403.292,618.094 400.792,616.428 397.5,616.5C 400.463,612.769 399.463,611.102 394.5,611.5C 394.649,610.448 394.483,609.448 394,608.5C 391.876,607.378 390.043,605.878 388.5,604C 386.349,604.387 384.349,605.053 382.5,606C 383.069,603.097 384.735,601.097 387.5,600C 386.382,598.926 385.382,597.76 384.5,596.5C 382.826,599.254 381.159,599.587 379.5,597.5C 379.704,598.529 379.204,599.529 378,600.5C 373.619,598.753 372.786,599.586 375.5,603C 375.046,605.036 374.213,606.87 373,608.5C 371.315,606.012 369.981,606.345 369,609.5C 366.58,608.512 364.247,608.845 362,610.5C 361.837,612.387 362.671,613.887 364.5,615C 361.676,616.993 359.009,619.16 356.5,621.5C 353.601,618.048 350.934,614.382 348.5,610.5C 349.043,610.44 349.376,610.107 349.5,609.5C 346.573,605.35 347.573,602.35 352.5,600.5C 353.478,600.977 354.311,601.643 355,602.5C 354.914,600.359 355.081,598.026 355.5,595.5C 357.833,595.5 360.167,595.5 362.5,595.5C 362.773,593.549 362.107,592.049 360.5,591C 360.833,590.667 361.167,590.333 361.5,590C 360.692,589.692 360.025,589.192 359.5,588.5C 359.88,586.979 360.046,585.313 360,583.5C 362.382,588.067 365.049,588.4 368,584.5C 368.333,584.833 368.667,585.167 369,585.5C 369.824,584.192 370.324,582.692 370.5,581C 369.833,580.667 369.167,580.333 368.5,580C 371.264,579.994 373.264,578.828 374.5,576.5 Z"/></g>
<g><path style="opacity:1" fill="#202a33" d="M 557.5,616.5 C 559.455,617.022 561.789,617.689 564.5,618.5C 531.314,633.506 497.648,634.339 463.5,621C 458.613,618.726 453.946,616.226 449.5,613.5C 451.659,611.268 453.993,609.935 456.5,609.5C 457.262,608.372 457.929,607.205 458.5,606C 457.253,604.506 457.253,603.006 458.5,601.5C 459.331,604.337 460.998,606.504 463.5,608C 463.167,608.333 462.833,608.667 462.5,609C 465.554,608.904 468.554,608.57 471.5,608C 471.833,608.333 472.167,608.667 472.5,609C 471.376,609.249 470.376,609.749 469.5,610.5C 471.862,611.271 474.196,612.105 476.5,613C 472.567,616.414 473.233,617.747 478.5,617C 479.92,621.161 481.42,621.327 483,617.5C 483.893,618.711 484.726,618.711 485.5,617.5C 483.364,616.148 483.03,614.482 484.5,612.5C 482.5,611.5 480.5,610.5 478.5,609.5C 477.572,611.335 476.406,611.668 475,610.5C 475.238,606.891 475.405,603.225 475.5,599.5C 476.552,599.351 477.552,599.517 478.5,600C 480.495,604.42 481.995,604.254 483,599.5C 481.444,598.48 480.278,597.147 479.5,595.5C 479.833,594.833 480.167,594.167 480.5,593.5C 483.925,596.754 487.091,600.087 490,603.5C 492.813,599.844 495.98,599.511 499.5,602.5C 498.092,603.243 496.759,604.077 495.5,605C 500.5,605.333 505.5,605.667 510.5,606C 511.249,607.734 511.749,609.567 512,611.5C 513.757,612.119 514.924,613.286 515.5,615C 514.993,617.341 513.826,617.841 512,616.5C 511.506,618.134 511.34,619.801 511.5,621.5C 513.774,621.715 515.941,622.382 518,623.5C 519.812,623.507 521.312,622.84 522.5,621.5C 527.305,621.331 532.138,621.664 537,622.5C 540.911,621.267 545.077,619.934 549.5,618.5C 548.975,617.808 548.308,617.308 547.5,617C 549.112,616.28 550.612,616.446 552,617.5C 552.167,617.167 552.333,616.833 552.5,616.5C 549.403,615.806 549.069,614.806 551.5,613.5C 553.534,614.454 555.534,615.454 557.5,616.5 Z"/></g>
<g><path style="opacity:1" fill="#1e2a32" d="M 356.5,621.5 C 359.009,619.16 361.676,616.993 364.5,615C 362.671,613.887 361.837,612.387 362,610.5C 364.247,608.845 366.58,608.512 369,609.5C 369.981,606.345 371.315,606.012 373,608.5C 374.213,606.87 375.046,605.036 375.5,603C 372.786,599.586 373.619,598.753 378,600.5C 379.204,599.529 379.704,598.529 379.5,597.5C 381.159,599.587 382.826,599.254 384.5,596.5C 385.382,597.76 386.382,598.926 387.5,600C 384.735,601.097 383.069,603.097 382.5,606C 384.349,605.053 386.349,604.387 388.5,604C 390.043,605.878 391.876,607.378 394,608.5C 394.483,609.448 394.649,610.448 394.5,611.5C 399.463,611.102 400.463,612.769 397.5,616.5C 400.792,616.428 403.292,618.094 405,621.5C 405.333,621.167 405.667,620.833 406,620.5C 409.357,621.742 409.19,622.576 405.5,623C 407.598,623.678 409.598,623.511 411.5,622.5C 464.366,663.985 521.366,670.485 582.5,642C 628.566,616.088 656.066,576.921 665,524.5C 666.23,504.53 666.897,484.53 667,464.5C 671.705,452.036 680.538,447.536 693.5,451C 700.536,453.369 704.703,458.202 706,465.5C 714.307,535.582 694.14,595.749 645.5,646C 613.982,674.756 576.982,692.256 534.5,698.5C 533.333,730.495 533.167,762.495 534,794.5C 546.773,794.036 559.607,794.536 572.5,796C 598.545,802.261 612.212,818.761 613.5,845.5C 545.5,845.5 477.5,845.5 409.5,845.5C 410.772,818.813 424.439,802.313 450.5,796C 463.462,794.673 476.462,794.173 489.5,794.5C 489.5,762.5 489.5,730.5 489.5,698.5C 434.633,690.581 390.3,664.914 356.5,621.5 Z"/></g>
</svg>
