<?xml version="1.0" encoding="UTF-8"?>
<!DOCTYPE svg PUBLIC "-//W3C//DTD SVG 1.1//EN" "http://www.w3.org/Graphics/SVG/1.1/DTD/svg11.dtd">
<svg xmlns="http://www.w3.org/2000/svg" version="1.1" width="1024px" height="1024px" style="shape-rendering:geometricPrecision; text-rendering:geometricPrecision; image-rendering:optimizeQuality; fill-rule:evenodd; clip-rule:evenodd" xmlns:xlink="http://www.w3.org/1999/xlink">
<g><path style="opacity:1" fill="#fdfcf7" d="M 637.5,206.5 C 635.302,207.165 632.969,207.832 630.5,208.5C 633.318,209.021 635.985,210.521 638.5,213C 637.747,214.487 636.914,214.654 636,213.5C 635.51,214.793 635.343,216.127 635.5,217.5C 637.492,217.328 639.158,217.995 640.5,219.5C 642.169,218.11 643.836,217.777 645.5,218.5C 644.855,219.732 644.689,221.065 645,222.5C 642.909,221.5 641.243,222.167 640,224.5C 639.493,225.996 639.993,227.163 641.5,228C 639.831,228.122 638.165,227.788 636.5,227C 635.833,225 634.5,223.667 632.5,223C 632.833,222.667 633.167,222.333 633.5,222C 632.256,221.544 631.423,222.044 631,223.5C 629.807,221.395 628.14,219.728 626,218.5C 623.959,219.423 621.792,219.756 619.5,219.5C 619.66,217.801 619.494,216.134 619,214.5C 617.957,216.701 617.123,219.034 616.5,221.5C 615.971,218.743 614.971,216.243 613.5,214C 615.929,213.549 616.096,212.715 614,211.5C 611.821,212.84 611.321,212.507 612.5,210.5C 620.508,207.953 628.841,206.62 637.5,206.5 Z"/></g>
<g><path style="opacity:1" fill="#fcfbf6" d="M 657.5,207.5 C 663.392,208.341 669.058,209.675 674.5,211.5C 673.308,212.566 673.641,213.399 675.5,214C 674.584,214.374 673.75,214.874 673,215.5C 673.263,216.951 673.096,218.284 672.5,219.5C 671.158,217.995 669.492,217.328 667.5,217.5C 667.5,218.833 667.5,220.167 667.5,221.5C 664.102,221.82 660.768,221.487 657.5,220.5C 655.047,218.388 652.714,216.221 650.5,214C 654.385,213.541 656.719,211.374 657.5,207.5 Z"/></g>
<g><path style="opacity:1" fill="#fcfcfa" d="M 637.5,206.5 C 644.196,206.391 650.863,206.724 657.5,207.5C 656.719,211.374 654.385,213.541 650.5,214C 652.714,216.221 655.047,218.388 657.5,220.5C 660.768,221.487 664.102,221.82 667.5,221.5C 667.5,220.167 667.5,218.833 667.5,217.5C 669.492,217.328 671.158,217.995 672.5,219.5C 673.096,218.284 673.263,216.951 673,215.5C 673.75,214.874 674.584,214.374 675.5,214C 673.641,213.399 673.308,212.566 674.5,211.5C 682.932,213.384 690.932,216.384 698.5,220.5C 698.631,221.239 698.464,221.906 698,222.5C 697,222.5 696,222.5 695,222.5C 694.261,224.221 693.427,225.887 692.5,227.5C 691.833,226.167 691.167,224.833 690.5,223.5C 689.586,225.664 688.419,227.664 687,229.5C 686.667,229.167 686.333,228.833 686,228.5C 682.547,229.031 679.213,230.031 676,231.5C 675.05,230.978 674.216,230.311 673.5,229.5C 672.167,230.5 670.833,231.5 669.5,232.5C 670.629,234.529 670.129,234.863 668,233.5C 667.16,236.464 666.16,236.797 665,234.5C 663.5,236.667 661.667,238.5 659.5,240C 660.833,240.667 660.833,241.333 659.5,242C 661.119,242.236 662.119,243.069 662.5,244.5C 661.348,243.375 660.348,243.375 659.5,244.5C 658.85,244.196 658.183,243.863 657.5,243.5C 656.479,245.188 655.145,246.521 653.5,247.5C 651.896,248.287 651.229,249.62 651.5,251.5C 652.552,251.351 653.552,251.517 654.5,252C 653.635,253.359 652.635,254.526 651.5,255.5C 647.855,254.409 645.188,255.742 643.5,259.5C 642.45,259.905 642.45,260.571 643.5,261.5C 642.148,262.524 640.815,263.524 639.5,264.5C 638.167,265.5 636.833,266.5 635.5,267.5C 633.361,269.757 631.694,272.424 630.5,275.5C 629.272,276.306 628.272,277.306 627.5,278.5C 625.689,278.572 624.356,279.405 623.5,281C 622.682,283.783 622.682,286.283 623.5,288.5C 622.833,288.167 622.167,287.833 621.5,287.5C 620.516,284.93 619.349,284.93 618,287.5C 617.586,287.043 617.086,286.709 616.5,286.5C 615.548,288.045 615.215,289.712 615.5,291.5C 612.203,291.329 611.869,291.995 614.5,293.5C 612.491,295.01 610.658,296.677 609,298.5C 607.595,297.269 606.429,295.936 605.5,294.5C 603.529,293.177 601.529,291.844 599.5,290.5C 598.914,290.709 598.414,291.043 598,291.5C 585.987,280.654 573.821,269.987 561.5,259.5C 563.536,257.117 565.202,254.45 566.5,251.5C 567.192,252.025 567.692,252.692 568,253.5C 568.782,250.927 570.282,248.927 572.5,247.5C 573.48,244.914 573.813,242.247 573.5,239.5C 571.508,239.672 569.842,239.005 568.5,237.5C 567.833,237.833 567.167,238.167 566.5,238.5C 565.003,236.551 564.003,234.885 563.5,233.5C 567.273,229.773 571.606,226.773 576.5,224.5C 577.301,226.042 577.634,227.708 577.5,229.5C 578.822,229.67 579.989,229.337 581,228.5C 581.454,230.536 582.287,232.37 583.5,234C 583.095,234.945 582.428,235.612 581.5,236C 583.218,236.346 584.885,236.846 586.5,237.5C 587.315,235.724 588.482,235.057 590,235.5C 592.058,236.109 592.891,237.109 592.5,238.5C 594.792,237.691 596.959,237.357 599,237.5C 599.259,240.587 599.759,243.587 600.5,246.5C 600.02,249.079 601.353,250.745 604.5,251.5C 605.941,250.135 607.274,248.635 608.5,247C 607.944,246.617 607.611,246.117 607.5,245.5C 609.441,245.869 611.275,246.536 613,247.5C 614.487,246.747 614.654,245.914 613.5,245C 614.448,244.517 615.448,244.351 616.5,244.5C 616.383,242.516 617.05,240.85 618.5,239.5C 617.667,237.833 616.833,236.167 616,234.5C 615.667,235.167 615.333,235.833 615,236.5C 612.391,234.892 611.058,232.559 611,229.5C 610.667,230.167 610.333,230.833 610,231.5C 609.51,230.207 609.343,228.873 609.5,227.5C 607.876,227.64 606.71,226.973 606,225.5C 602.46,228.651 600.126,227.985 599,223.5C 597.815,225.559 596.648,225.726 595.5,224C 595.905,223.055 596.572,222.388 597.5,222C 595.004,220.669 593.004,218.836 591.5,216.5C 598.174,213.414 605.174,211.414 612.5,210.5C 611.321,212.507 611.821,212.84 614,211.5C 616.096,212.715 615.929,213.549 613.5,214C 614.971,216.243 615.971,218.743 616.5,221.5C 617.123,219.034 617.957,216.701 619,214.5C 619.494,216.134 619.66,217.801 619.5,219.5C 621.792,219.756 623.959,219.423 626,218.5C 628.14,219.728 629.807,221.395 631,223.5C 631.423,222.044 632.256,221.544 633.5,222C 633.167,222.333 632.833,222.667 632.5,223C 634.5,223.667 635.833,225 636.5,227C 638.165,227.788 639.831,228.122 641.5,228C 639.993,227.163 639.493,225.996 640,224.5C 641.243,222.167 642.909,221.5 645,222.5C 644.689,221.065 644.855,219.732 645.5,218.5C 643.836,217.777 642.169,218.11 640.5,219.5C 639.158,217.995 637.492,217.328 635.5,217.5C 635.343,216.127 635.51,214.793 636,213.5C 636.914,214.654 637.747,214.487 638.5,213C 635.985,210.521 633.318,209.021 630.5,208.5C 632.969,207.832 635.302,207.165 637.5,206.5 Z M 644.5,237.5 C 651.411,238.298 652.077,240.631 646.5,244.5C 641.218,243.002 640.552,240.669 644.5,237.5 Z M 623.5,239.5 C 625.471,240.823 627.471,242.156 629.5,243.5C 626.964,248.349 623.964,248.682 620.5,244.5C 621.763,242.971 622.763,241.305 623.5,239.5 Z M 607.5,245.5 C 607.611,246.117 607.944,246.617 608.5,247C 607.274,248.635 605.941,250.135 604.5,251.5C 601.353,250.745 600.02,249.079 600.5,246.5C 601.794,245.71 602.961,244.71 604,243.5C 604.816,244.823 605.983,245.489 607.5,245.5 Z M 635.5,246.5 C 642.781,248.392 643.281,251.392 637,255.5C 635.365,254.274 633.865,252.941 632.5,251.5C 633.763,249.971 634.763,248.305 635.5,246.5 Z M 614.5,250.5 C 616.757,250.962 618.757,251.962 620.5,253.5C 619.162,255.337 617.662,257.003 616,258.5C 614.099,257.464 612.265,256.298 610.5,255C 612.041,253.629 613.375,252.129 614.5,250.5 Z M 593.5,254.5 C 600.671,255.513 601.338,258.179 595.5,262.5C 593.833,261.333 592.167,260.167 590.5,259C 591.883,257.729 592.883,256.229 593.5,254.5 Z M 626.5,257.5 C 633.993,259.185 634.493,262.185 628,266.5C 626.075,265.12 624.241,263.62 622.5,262C 624.041,260.629 625.375,259.129 626.5,257.5 Z M 577.5,260.5 C 579.646,260.696 579.812,261.696 578,263.5C 577.163,265.007 575.996,265.507 574.5,265C 575.883,263.729 576.883,262.229 577.5,260.5 Z M 605.5,260.5 C 612.859,262.522 613.359,265.522 607,269.5C 605.177,268.349 603.344,267.182 601.5,266C 603.464,264.549 604.797,262.716 605.5,260.5 Z M 585.5,264.5 C 587.609,265.391 589.609,266.558 591.5,268C 589.622,269.543 588.122,271.376 587,273.5C 585.167,272.333 583.333,271.167 581.5,270C 582.665,268.008 583.998,266.175 585.5,264.5 Z M 617.5,267.5 C 619.878,268.692 621.878,270.359 623.5,272.5C 622.162,274.337 620.662,276.003 619,277.5C 616.88,276.527 615.047,275.194 613.5,273.5C 615.252,271.754 616.585,269.754 617.5,267.5 Z M 596.5,271.5 C 598.824,272.33 600.824,273.663 602.5,275.5C 601.243,277.679 599.743,279.679 598,281.5C 596.075,280.12 594.241,278.62 592.5,277C 594.464,275.549 595.797,273.716 596.5,271.5 Z M 607.5,279.5 C 610.285,279.933 612.619,281.266 614.5,283.5C 611.708,290.917 608.374,291.25 604.5,284.5C 605.952,283.06 606.952,281.394 607.5,279.5 Z"/></g>
<g><path style="opacity:1" fill="#fdfcf6" d="M 591.5,216.5 C 593.004,218.836 595.004,220.669 597.5,222C 596.572,222.388 595.905,223.055 595.5,224C 596.648,225.726 597.815,225.559 599,223.5C 600.126,227.985 602.46,228.651 606,225.5C 606.71,226.973 607.876,227.64 609.5,227.5C 609.343,228.873 609.51,230.207 610,231.5C 610.333,230.833 610.667,230.167 611,229.5C 611.058,232.559 612.391,234.892 615,236.5C 615.333,235.833 615.667,235.167 616,234.5C 616.833,236.167 617.667,237.833 618.5,239.5C 617.05,240.85 616.383,242.516 616.5,244.5C 615.448,244.351 614.448,244.517 613.5,245C 614.654,245.914 614.487,246.747 613,247.5C 611.275,246.536 609.441,245.869 607.5,245.5C 605.983,245.489 604.816,244.823 604,243.5C 602.961,244.71 601.794,245.71 600.5,246.5C 599.759,243.587 599.259,240.587 599,237.5C 596.959,237.357 594.792,237.691 592.5,238.5C 592.891,237.109 592.058,236.109 590,235.5C 588.482,235.057 587.315,235.724 586.5,237.5C 584.885,236.846 583.218,236.346 581.5,236C 582.428,235.612 583.095,234.945 583.5,234C 582.287,232.37 581.454,230.536 581,228.5C 579.989,229.337 578.822,229.67 577.5,229.5C 577.634,227.708 577.301,226.042 576.5,224.5C 581.307,221.595 586.307,218.928 591.5,216.5 Z"/></g>
<g><path style="opacity:1" fill="#fcfcf7" d="M 698.5,220.5 C 703.543,223.015 708.21,226.015 712.5,229.5C 712.461,230.583 712.127,231.583 711.5,232.5C 713.203,233.89 713.87,235.39 713.5,237C 711.193,237.271 710.026,236.105 710,233.5C 708.167,234.667 706.333,235.833 704.5,237C 705.471,238.204 706.471,238.704 707.5,238.5C 704.564,242.221 700.898,243.221 696.5,241.5C 695.749,242.376 695.249,243.376 695,244.5C 694.667,244.167 694.333,243.833 694,243.5C 692.451,246.003 690.784,246.003 689,243.5C 688.164,245.842 686.83,247.842 685,249.5C 684.692,248.692 684.192,248.025 683.5,247.5C 682.583,248.127 681.583,248.461 680.5,248.5C 680.953,247.542 681.619,246.708 682.5,246C 680.413,245.208 678.579,244.041 677,242.5C 675.955,243.373 675.122,244.373 674.5,245.5C 673.317,246.504 671.984,247.338 670.5,248C 671.604,249.131 671.271,249.965 669.5,250.5C 668.472,248.639 666.972,247.305 665,246.5C 664.667,247.167 664.333,247.833 664,248.5C 663.59,247.099 663.09,245.766 662.5,244.5C 662.119,243.069 661.119,242.236 659.5,242C 660.833,241.333 660.833,240.667 659.5,240C 661.667,238.5 663.5,236.667 665,234.5C 666.16,236.797 667.16,236.464 668,233.5C 670.129,234.863 670.629,234.529 669.5,232.5C 670.833,231.5 672.167,230.5 673.5,229.5C 674.216,230.311 675.05,230.978 676,231.5C 679.213,230.031 682.547,229.031 686,228.5C 686.333,228.833 686.667,229.167 687,229.5C 688.419,227.664 689.586,225.664 690.5,223.5C 691.167,224.833 691.833,226.167 692.5,227.5C 693.427,225.887 694.261,224.221 695,222.5C 696,222.5 697,222.5 698,222.5C 698.464,221.906 698.631,221.239 698.5,220.5 Z M 663.5,239.5 C 665.125,238.675 666.792,239.008 668.5,240.5C 666.603,241.652 664.936,241.319 663.5,239.5 Z M 680.5,248.5 C 677.914,249.21 675.914,248.21 674.5,245.5C 675.122,244.373 675.955,243.373 677,242.5C 678.579,244.041 680.413,245.208 682.5,246C 681.619,246.708 680.953,247.542 680.5,248.5 Z"/></g>
<g><path style="opacity:1" fill="#fafafa" d="M 712.5,229.5 C 718.102,232.771 723.102,236.771 727.5,241.5C 724.35,242.79 721.683,245.29 719.5,249C 715.174,249.322 711.841,251.322 709.5,255C 711.002,255.583 712.335,256.416 713.5,257.5C 712.349,258.731 711.183,258.731 710,257.5C 708.654,259.342 706.821,260.342 704.5,260.5C 703.185,259.524 701.852,258.524 700.5,257.5C 699.289,258.874 698.289,260.374 697.5,262C 699.018,263.351 700.351,264.851 701.5,266.5C 700.055,268.063 698.389,269.396 696.5,270.5C 695.206,269.71 694.039,268.71 693,267.5C 691.315,269.017 689.815,270.684 688.5,272.5C 689.193,273.518 689.859,274.518 690.5,275.5C 689.767,277.294 688.767,278.961 687.5,280.5C 684.007,278.187 681.34,279.187 679.5,283.5C 679.293,285.604 679.126,287.937 679,290.5C 678.047,288.627 676.88,288.294 675.5,289.5C 673.5,290.833 671.833,292.5 670.5,294.5C 669.883,294.389 669.383,294.056 669,293.5C 668.632,296.565 667.465,299.232 665.5,301.5C 664.833,301.833 664.167,302.167 663.5,302.5C 661.983,302.511 660.816,303.177 660,304.5C 655.356,308.094 651.023,312.76 647,318.5C 646.517,317.552 646.351,316.552 646.5,315.5C 647.823,313.529 649.156,311.529 650.5,309.5C 646.167,302.5 642.5,302.833 639.5,310.5C 641.394,311.945 643.06,313.612 644.5,315.5C 644.631,316.239 644.464,316.906 644,317.5C 642.917,319.241 641.75,319.907 640.5,319.5C 638.534,318.559 636.534,317.559 634.5,316.5C 631.873,320.398 629.54,320.064 627.5,315.5C 628.833,314.38 629.333,313.047 629,311.5C 627.229,310.696 625.729,309.529 624.5,308C 623.251,307.26 622.251,307.427 621.5,308.5C 620.903,308.265 620.57,307.765 620.5,307C 621.619,304.711 622.953,302.545 624.5,300.5C 623.197,298.411 623.697,296.744 626,295.5C 627.104,296.394 628.27,297.394 629.5,298.5C 628.859,299.482 628.193,300.482 627.5,301.5C 629.091,303.633 631.091,305.299 633.5,306.5C 634.99,304.874 636.49,303.208 638,301.5C 638.507,300.004 638.007,298.837 636.5,298C 634.922,296.906 633.255,296.072 631.5,295.5C 631.593,293.595 631.926,291.762 632.5,290C 631.5,289 630.5,288 629.5,287C 629.728,286.601 630.062,286.435 630.5,286.5C 632.624,284.941 634.291,282.941 635.5,280.5C 633.994,278.599 632.327,276.932 630.5,275.5C 631.694,272.424 633.361,269.757 635.5,267.5C 635.461,268.583 635.127,269.583 634.5,270.5C 636.229,272.451 638.229,273.618 640.5,274C 642.227,272.611 643.561,270.944 644.5,269C 642.957,267.287 641.291,265.787 639.5,264.5C 640.815,263.524 642.148,262.524 643.5,261.5C 642.45,260.571 642.45,259.905 643.5,259.5C 645.392,260.702 647.226,262.035 649,263.5C 650.833,261.667 652.667,259.833 654.5,258C 653.429,257.148 652.429,256.315 651.5,255.5C 652.635,254.526 653.635,253.359 654.5,252C 653.552,251.517 652.552,251.351 651.5,251.5C 651.229,249.62 651.896,248.287 653.5,247.5C 654.388,249.809 656.054,251.476 658.5,252.5C 659.833,250.833 661.167,249.167 662.5,247.5C 661.66,246.265 660.66,245.265 659.5,244.5C 660.348,243.375 661.348,243.375 662.5,244.5C 663.09,245.766 663.59,247.099 664,248.5C 664.333,247.833 664.667,247.167 665,246.5C 666.972,247.305 668.472,248.639 669.5,250.5C 671.271,249.965 671.604,249.131 670.5,248C 671.984,247.338 673.317,246.504 674.5,245.5C 675.914,248.21 677.914,249.21 680.5,248.5C 681.583,248.461 682.583,248.127 683.5,247.5C 684.192,248.025 684.692,248.692 685,249.5C 686.83,247.842 688.164,245.842 689,243.5C 690.784,246.003 692.451,246.003 694,243.5C 694.333,243.833 694.667,244.167 695,244.5C 695.249,243.376 695.749,242.376 696.5,241.5C 700.898,243.221 704.564,242.221 707.5,238.5C 706.471,238.704 705.471,238.204 704.5,237C 706.333,235.833 708.167,234.667 710,233.5C 710.026,236.105 711.193,237.271 713.5,237C 713.87,235.39 713.203,233.89 711.5,232.5C 712.127,231.583 712.461,230.583 712.5,229.5 Z M 688.5,249.5 C 694.663,251.04 695.496,253.706 691,257.5C 688.876,256.378 687.043,254.878 685.5,253C 686.71,251.961 687.71,250.794 688.5,249.5 Z M 668.5,251.5 C 670.937,251.886 672.937,253.053 674.5,255C 673.12,256.925 671.62,258.759 670,260.5C 668.075,259.12 666.241,257.62 664.5,256C 666.041,254.629 667.375,253.129 668.5,251.5 Z M 679.5,259.5 C 687.192,260.527 688.192,263.527 682.5,268.5C 680.076,267.577 678.076,266.077 676.5,264C 678.141,262.871 679.141,261.371 679.5,259.5 Z M 659.5,261.5 C 661.932,262.75 664.266,264.25 666.5,266C 664.667,267.833 662.833,269.667 661,271.5C 659.442,269.641 657.609,268.141 655.5,267C 656.965,265.226 658.298,263.392 659.5,261.5 Z M 671.5,269.5 C 673.878,270.692 675.878,272.359 677.5,274.5C 674.656,280.965 671.323,281.132 667.5,275C 669.439,273.568 670.772,271.735 671.5,269.5 Z M 650.5,272.5 C 652.932,273.75 655.266,275.25 657.5,277C 655.76,279.035 653.926,280.869 652,282.5C 650.037,281.375 648.204,280.041 646.5,278.5C 647.467,276.21 648.8,274.21 650.5,272.5 Z M 662.5,280.5 C 664.878,281.692 666.878,283.359 668.5,285.5C 667.559,287.772 666.226,289.772 664.5,291.5C 662.032,290.197 659.699,288.697 657.5,287C 659.539,285.074 661.206,282.907 662.5,280.5 Z M 641.5,283.5 C 648.973,286.572 649.306,290.239 642.5,294.5C 640.321,293.243 638.321,291.743 636.5,290C 638.054,287.713 639.721,285.546 641.5,283.5 Z M 652.5,292.5 C 660.863,294.872 661.53,298.539 654.5,303.5C 652.641,301.808 650.641,300.308 648.5,299C 650.085,296.931 651.419,294.764 652.5,292.5 Z M 631.5,295.5 C 633.255,296.072 634.922,296.906 636.5,298C 638.007,298.837 638.507,300.004 638,301.5C 636.49,303.208 634.99,304.874 633.5,306.5C 631.091,305.299 629.091,303.633 627.5,301.5C 628.193,300.482 628.859,299.482 629.5,298.5C 630.401,297.71 631.068,296.71 631.5,295.5 Z M 646.5,315.5 C 645.833,315.5 645.167,315.5 644.5,315.5C 643.06,313.612 641.394,311.945 639.5,310.5C 642.5,302.833 646.167,302.5 650.5,309.5C 649.156,311.529 647.823,313.529 646.5,315.5 Z"/></g>
<g><path style="opacity:1" fill="#fcfcf7" d="M 563.5,233.5 C 564.003,234.885 565.003,236.551 566.5,238.5C 567.167,238.167 567.833,237.833 568.5,237.5C 569.842,239.005 571.508,239.672 573.5,239.5C 573.813,242.247 573.48,244.914 572.5,247.5C 570.282,248.927 568.782,250.927 568,253.5C 567.692,252.692 567.192,252.025 566.5,251.5C 565.202,254.45 563.536,257.117 561.5,259.5C 556.533,255.868 551.867,251.868 547.5,247.5C 552.075,241.893 557.409,237.226 563.5,233.5 Z"/></g>
<g><path style="opacity:1" fill="#fcfbf6" d="M 727.5,241.5 C 731.876,244.874 735.542,248.874 738.5,253.5C 737.603,254.598 736.77,254.598 736,253.5C 735.544,254.744 736.044,255.577 737.5,256C 736.284,257.74 734.618,258.74 732.5,259C 733.668,260.406 733.335,261.572 731.5,262.5C 726.67,263.552 723.67,266.386 722.5,271C 721.069,271.465 719.903,272.299 719,273.5C 718.586,273.043 718.086,272.709 717.5,272.5C 715.586,274.202 714.086,276.202 713,278.5C 712.676,276.431 711.842,276.098 710.5,277.5C 709.828,278.949 709.161,280.282 708.5,281.5C 707.969,279.376 706.635,277.876 704.5,277C 703.423,276.53 702.423,276.697 701.5,277.5C 700.25,277.423 699.417,276.756 699,275.5C 698.667,275.833 698.333,276.167 698,276.5C 698.109,275.231 697.942,274.231 697.5,273.5C 697.443,272.391 697.11,271.391 696.5,270.5C 698.389,269.396 700.055,268.063 701.5,266.5C 704.21,265.086 705.21,263.086 704.5,260.5C 706.821,260.342 708.654,259.342 710,257.5C 711.183,258.731 712.349,258.731 713.5,257.5C 712.335,256.416 711.002,255.583 709.5,255C 711.841,251.322 715.174,249.322 719.5,249C 721.683,245.29 724.35,242.79 727.5,241.5 Z M 710.5,266.5 C 712.479,267.812 714.145,269.479 715.5,271.5C 712.961,275.353 710.628,275.02 708.5,270.5C 709.63,269.378 710.297,268.044 710.5,266.5 Z"/></g>
<g><path style="opacity:1" fill="#fbfbfa" d="M 738.5,253.5 C 742.915,258.26 746.581,263.594 749.5,269.5C 748.527,270.984 747.193,271.484 745.5,271C 747.881,269.753 747.547,269.42 744.5,270C 743.833,271.667 743.167,273.333 742.5,275C 739.52,276.634 736.52,278.3 733.5,280C 734.87,281.441 735.87,283.108 736.5,285C 734.892,285.658 733.725,285.158 733,283.5C 730.773,285.637 727.939,287.803 724.5,290C 725.672,290.419 726.672,291.085 727.5,292C 725.598,293.651 723.598,293.984 721.5,293C 723.891,294.309 723.891,295.309 721.5,296C 722.044,296.717 722.711,297.217 723.5,297.5C 723.167,298.5 722.5,299.167 721.5,299.5C 721.44,298.957 721.107,298.624 720.5,298.5C 719.5,299.167 718.5,299.833 717.5,300.5C 714.95,302.95 712.617,305.617 710.5,308.5C 709.817,308.137 709.15,307.804 708.5,307.5C 707.972,308.721 707.305,309.887 706.5,311C 706.833,311.333 707.167,311.667 707.5,312C 705.973,313.032 704.64,314.199 703.5,315.5C 703.167,315.5 702.833,315.5 702.5,315.5C 702.804,314.85 703.137,314.183 703.5,313.5C 701.517,312.018 699.684,310.351 698,308.5C 691.926,312.586 692.093,316.253 698.5,319.5C 699.684,320.688 699.684,321.855 698.5,323C 699.833,323.667 701.167,324.333 702.5,325C 700.667,326.167 699.167,327.667 698,329.5C 696.714,327.817 695.547,326.151 694.5,324.5C 692.852,323.19 691.186,321.857 689.5,320.5C 682.694,324.761 683.027,328.428 690.5,331.5C 690.423,332.75 689.756,333.583 688.5,334C 690.098,337.123 689.431,337.956 686.5,336.5C 684.208,335.376 682.042,334.043 680,332.5C 678.074,334.131 676.24,335.965 674.5,338C 676.388,340.19 678.555,342.023 681,343.5C 683.068,341.604 684.901,339.604 686.5,337.5C 686.918,338.222 687.584,338.722 688.5,339C 685.092,343.638 682.759,348.472 681.5,353.5C 679.486,358.406 676.819,358.572 673.5,354C 674.833,352.333 676.167,350.667 677.5,349C 675.241,347.285 673.074,345.452 671,343.5C 669.426,344.984 668.093,346.651 667,348.5C 661.715,346.447 661.215,343.614 665.5,340C 663.627,337.791 661.46,335.958 659,334.5C 654.927,339.813 652.427,339.479 651.5,333.5C 653.484,333.516 654.484,332.516 654.5,330.5C 653.731,327.896 652.064,326.062 649.5,325C 651.224,324.552 651.891,323.718 651.5,322.5C 652.814,323.313 653.981,324.313 655,325.5C 655.399,325.272 655.565,324.938 655.5,324.5C 657.933,324.727 659.599,323.727 660.5,321.5C 663.295,319.965 666.295,318.298 669.5,316.5C 670.33,314.865 670.497,313.198 670,311.5C 671.016,310.366 671.683,310.699 672,312.5C 672.645,311.354 673.478,310.354 674.5,309.5C 673.238,307.425 673.405,305.425 675,303.5C 675.419,304.672 676.085,305.672 677,306.5C 678.707,305.862 680.54,305.862 682.5,306.5C 684.392,307.702 686.226,309.035 688,310.5C 689.377,308.246 690.877,306.08 692.5,304C 691.295,302.624 689.962,301.458 688.5,300.5C 689.148,298.914 689.648,297.247 690,295.5C 690.77,296.598 691.603,296.598 692.5,295.5C 693.794,296.29 694.961,297.29 696,298.5C 698.675,296.185 699.841,293.518 699.5,290.5C 700.598,289.603 700.598,288.77 699.5,288C 701.16,286.736 702.827,286.236 704.5,286.5C 706.063,285.055 707.396,283.389 708.5,281.5C 709.161,280.282 709.828,278.949 710.5,277.5C 711.842,276.098 712.676,276.431 713,278.5C 714.086,276.202 715.586,274.202 717.5,272.5C 718.086,272.709 718.586,273.043 719,273.5C 719.903,272.299 721.069,271.465 722.5,271C 723.67,266.386 726.67,263.552 731.5,262.5C 733.335,261.572 733.668,260.406 732.5,259C 734.618,258.74 736.284,257.74 737.5,256C 736.044,255.577 735.544,254.744 736,253.5C 736.77,254.598 737.603,254.598 738.5,253.5 Z M 718.5,278.5 C 721.69,279.208 723.19,281.208 723,284.5C 720.873,282.886 719.373,280.886 718.5,278.5 Z M 713.5,285.5 C 720.054,287.573 720.887,290.907 716,295.5C 713.876,294.378 712.043,292.878 710.5,291C 711.758,289.259 712.758,287.426 713.5,285.5 Z M 708.5,307.5 C 701.656,305.191 700.989,301.858 706.5,297.5C 708.646,298.556 710.312,300.056 711.5,302C 710.259,303.731 709.259,305.564 708.5,307.5 Z M 676.5,310.5 C 679.099,311.761 681.432,313.427 683.5,315.5C 680.5,323.167 676.833,323.5 672.5,316.5C 674.278,314.736 675.611,312.736 676.5,310.5 Z M 667.5,322.5 C 670.075,323.728 672.408,325.395 674.5,327.5C 672.667,329.833 670.833,332.167 669,334.5C 666.982,332.65 665.149,330.65 663.5,328.5C 665.252,326.754 666.585,324.754 667.5,322.5 Z M 686.5,336.5 C 686.5,336.833 686.5,337.167 686.5,337.5C 684.901,339.604 683.068,341.604 681,343.5C 678.555,342.023 676.388,340.19 674.5,338C 676.24,335.965 678.074,334.131 680,332.5C 682.042,334.043 684.208,335.376 686.5,336.5 Z"/></g>
<g><path style="opacity:1" fill="#fcfcf9" d="M 557.5,293.5 C 556.209,294.542 556.209,295.708 557.5,297C 555.654,298.03 553.987,299.196 552.5,300.5C 549.793,302.283 549.127,304.617 550.5,307.5C 550.167,309.5 549.833,311.5 549.5,313.5C 548.209,313.263 547.209,313.596 546.5,314.5C 545.85,316.435 545.517,318.435 545.5,320.5C 544.389,321.66 543.389,322.993 542.5,324.5C 541.833,323.833 541.167,323.167 540.5,322.5C 539.833,324.167 539.167,325.833 538.5,327.5C 537.522,327.023 536.689,326.357 536,325.5C 535.446,327.61 534.612,329.61 533.5,331.5C 533.608,332.442 533.941,333.275 534.5,334C 533.117,335.271 532.117,336.771 531.5,338.5C 524.983,330.651 519.316,322.151 514.5,313C 517.556,295.068 524.056,278.568 534,263.5C 543.5,271.667 553,279.833 562.5,288C 560.261,289.31 558.594,291.143 557.5,293.5 Z"/></g>
<g><path style="opacity:1" fill="#fbfbf6" d="M 749.5,269.5 C 752.308,273.45 754.308,277.783 755.5,282.5C 753.493,281.321 753.16,281.821 754.5,284C 751.619,288.092 748.119,291.592 744,294.5C 743.75,297.877 742.25,300.543 739.5,302.5C 740.744,304.133 740.244,305.133 738,305.5C 737.228,305.355 736.561,305.022 736,304.5C 735.023,306.74 734.523,309.073 734.5,311.5C 733.778,311.082 733.278,310.416 733,309.5C 732.617,310.056 732.117,310.389 731.5,310.5C 731.565,310.062 731.399,309.728 731,309.5C 727.503,311.876 725.67,314.876 725.5,318.5C 725.672,319.492 725.338,320.158 724.5,320.5C 724.217,319.711 723.717,319.044 723,318.5C 720.966,319.743 720.133,321.243 720.5,323C 719.552,323.483 718.552,323.649 717.5,323.5C 717.741,326.999 716.908,327.332 715,324.5C 714.535,325.931 713.701,327.097 712.5,328C 713.985,329.756 713.652,330.923 711.5,331.5C 709.519,330.895 709.185,329.895 710.5,328.5C 712.002,326.825 713.335,324.992 714.5,323C 712.692,320.091 710.359,318.925 707.5,319.5C 704.5,319.833 703.167,318.5 703.5,315.5C 704.64,314.199 705.973,313.032 707.5,312C 707.167,311.667 706.833,311.333 706.5,311C 707.305,309.887 707.972,308.721 708.5,307.5C 709.15,307.804 709.817,308.137 710.5,308.5C 712.617,305.617 714.95,302.95 717.5,300.5C 718.5,299.833 719.5,299.167 720.5,298.5C 721.107,298.624 721.44,298.957 721.5,299.5C 722.309,303.019 724.309,304.352 727.5,303.5C 728.833,302.38 729.333,301.047 729,299.5C 727.667,298.167 726.333,296.833 725,295.5C 724.722,296.416 724.222,297.082 723.5,297.5C 722.711,297.217 722.044,296.717 721.5,296C 723.891,295.309 723.891,294.309 721.5,293C 723.598,293.984 725.598,293.651 727.5,292C 726.672,291.085 725.672,290.419 724.5,290C 727.939,287.803 730.773,285.637 733,283.5C 733.725,285.158 734.892,285.658 736.5,285C 735.87,283.108 734.87,281.441 733.5,280C 736.52,278.3 739.52,276.634 742.5,275C 743.167,273.333 743.833,271.667 744.5,270C 747.547,269.42 747.881,269.753 745.5,271C 747.193,271.484 748.527,270.984 749.5,269.5 Z M 716.5,306.5 C 722.27,309.255 722.77,312.588 718,316.5C 715.833,315.667 714.333,314.167 713.5,312C 714.741,310.269 715.741,308.436 716.5,306.5 Z"/></g>
<g><path style="opacity:1" fill="#fcfcfa" d="M 755.5,282.5 C 760.756,293.121 763.923,304.454 765,316.5C 766.1,330.967 765.267,345.3 762.5,359.5C 761.603,358.402 760.77,358.402 760,359.5C 759.029,354.668 756.195,351.835 751.5,351C 753.56,349.507 753.893,347.674 752.5,345.5C 750.492,347.762 750.159,347.262 751.5,344C 751,343.5 750.5,343 750,342.5C 749.64,344.608 748.973,346.608 748,348.5C 747.717,345.258 746.883,344.924 745.5,347.5C 744.048,344.718 744.381,342.218 746.5,340C 746.167,339.667 745.833,339.333 745.5,339C 747.98,338.085 748.647,336.585 747.5,334.5C 747.977,333.522 748.643,332.689 749.5,332C 748.788,330.575 748.621,329.075 749,327.5C 746.833,329.464 744.499,329.798 742,328.5C 739.56,329.274 738.227,330.94 738,333.5C 737.667,332.167 737.333,330.833 737,329.5C 736.617,330.056 736.117,330.389 735.5,330.5C 733.519,331.105 733.185,332.105 734.5,333.5C 733.54,335.461 732.207,337.127 730.5,338.5C 725.185,341.459 725.185,344.459 730.5,347.5C 731.288,346.23 732.288,345.23 733.5,344.5C 733.205,346.435 733.705,348.435 735,350.5C 736.67,345.408 737.503,345.408 737.5,350.5C 738.93,350.421 740.264,350.754 741.5,351.5C 742.883,348.924 743.717,349.258 744,352.5C 745.388,351.446 746.888,351.28 748.5,352C 747.944,354.237 746.944,356.237 745.5,358C 746.5,358.333 747.5,358.667 748.5,359C 747.446,360.388 747.28,361.888 748,363.5C 748.333,362.833 748.667,362.167 749,361.5C 750.273,363.714 751.273,366.047 752,368.5C 752.333,367.833 752.667,367.167 753,366.5C 753.724,368.959 755.057,369.959 757,369.5C 757.49,370.793 757.657,372.127 757.5,373.5C 756.383,377.734 754.716,381.734 752.5,385.5C 750.228,384.073 748.061,382.406 746,380.5C 746.608,378.316 745.941,376.316 744,374.5C 743.781,375.938 743.281,377.271 742.5,378.5C 741.526,376.257 741.192,373.924 741.5,371.5C 739.692,371.509 738.025,371.009 736.5,370C 738.837,368.202 739.503,366.035 738.5,363.5C 737.808,364.025 737.308,364.692 737,365.5C 735.731,364.095 735.231,362.429 735.5,360.5C 736.552,360.649 737.552,360.483 738.5,360C 736.709,359.585 735.376,358.585 734.5,357C 735.167,356.667 735.833,356.333 736.5,356C 735.234,355.691 734.067,355.191 733,354.5C 732.016,356.795 731.183,356.461 730.5,353.5C 728.955,352.548 727.288,352.215 725.5,352.5C 724.185,351.524 722.852,350.524 721.5,349.5C 720.143,351.186 718.81,352.852 717.5,354.5C 715.896,355.287 715.229,356.62 715.5,358.5C 712.506,358.146 711.506,359.146 712.5,361.5C 710.615,363.053 709.615,365.053 709.5,367.5C 706.833,365.039 707.166,363.206 710.5,362C 709.874,361.25 709.374,360.416 709,359.5C 708.009,360.939 706.676,361.939 705,362.5C 704.316,363.784 704.483,364.951 705.5,366C 704.551,366.617 703.718,366.451 703,365.5C 702.376,367.754 701.043,369.421 699,370.5C 698.51,371.793 698.343,373.127 698.5,374.5C 695.861,372.162 696.194,369.995 699.5,368C 697.667,366.167 695.833,364.333 694,362.5C 692.287,363.878 690.953,365.545 690,367.5C 684.74,365.233 684.24,362.233 688.5,358.5C 686.408,356.395 684.075,354.728 681.5,353.5C 682.759,348.472 685.092,343.638 688.5,339C 687.584,338.722 686.918,338.222 686.5,337.5C 686.5,337.167 686.5,336.833 686.5,336.5C 689.431,337.956 690.098,337.123 688.5,334C 689.756,333.583 690.423,332.75 690.5,331.5C 690.833,331.5 691.167,331.5 691.5,331.5C 692.609,332.29 693.942,332.79 695.5,333C 694.402,333.77 694.402,334.603 695.5,335.5C 698.961,342.002 702.295,342.002 705.5,335.5C 706.072,333.881 706.405,332.215 706.5,330.5C 708.07,332.379 709.736,332.712 711.5,331.5C 713.652,330.923 713.985,329.756 712.5,328C 713.701,327.097 714.535,325.931 715,324.5C 716.908,327.332 717.741,326.999 717.5,323.5C 718.552,323.649 719.552,323.483 720.5,323C 720.133,321.243 720.966,319.743 723,318.5C 723.717,319.044 724.217,319.711 724.5,320.5C 724.295,323.059 725.628,325.059 728.5,326.5C 729.648,324.851 730.981,323.351 732.5,322C 731.167,320.667 729.833,319.333 728.5,318C 727.423,317.53 726.423,317.697 725.5,318.5C 725.67,314.876 727.503,311.876 731,309.5C 731.399,309.728 731.565,310.062 731.5,310.5C 732.221,312.382 733.221,312.715 734.5,311.5C 734.523,309.073 735.023,306.74 736,304.5C 736.561,305.022 737.228,305.355 738,305.5C 740.244,305.133 740.744,304.133 739.5,302.5C 742.25,300.543 743.75,297.877 744,294.5C 748.119,291.592 751.619,288.092 754.5,284C 753.16,281.821 753.493,281.321 755.5,282.5 Z M 734.5,311.5 C 733.221,312.715 732.221,312.382 731.5,310.5C 732.117,310.389 732.617,310.056 733,309.5C 733.278,310.416 733.778,311.082 734.5,311.5 Z M 724.5,320.5 C 725.338,320.158 725.672,319.492 725.5,318.5C 726.423,317.697 727.423,317.53 728.5,318C 729.833,319.333 731.167,320.667 732.5,322C 730.981,323.351 729.648,324.851 728.5,326.5C 725.628,325.059 724.295,323.059 724.5,320.5 Z M 718.5,328.5 C 720.886,329.373 722.886,330.873 724.5,333C 723.12,334.925 721.62,336.759 720,338.5C 718.315,336.983 716.815,335.316 715.5,333.5C 716.952,332.06 717.952,330.394 718.5,328.5 Z M 735.5,330.5 C 735.737,331.791 735.404,332.791 734.5,333.5C 733.185,332.105 733.519,331.105 735.5,330.5 Z M 730.5,338.5 C 731.625,340.129 732.959,341.629 734.5,343C 733.944,343.383 733.611,343.883 733.5,344.5C 732.288,345.23 731.288,346.23 730.5,347.5C 725.185,344.459 725.185,341.459 730.5,338.5 Z M 710.5,339.5 C 712.481,341.144 714.481,342.81 716.5,344.5C 714.808,346.359 713.308,348.359 712,350.5C 710.108,348.946 708.608,347.112 707.5,345C 708.632,343.235 709.632,341.402 710.5,339.5 Z M 691.5,341.5 C 693.63,343.127 695.63,344.96 697.5,347C 695.707,348.78 694.04,350.613 692.5,352.5C 690.321,351.243 688.321,349.743 686.5,348C 687.999,345.672 689.666,343.505 691.5,341.5 Z M 725.5,352.5 C 724.557,360.112 721.89,360.779 717.5,354.5C 718.81,352.852 720.143,351.186 721.5,349.5C 722.852,350.524 724.185,351.524 725.5,352.5 Z M 702.5,351.5 C 708.626,354.378 708.959,357.711 703.5,361.5C 697.395,358.946 697.062,355.612 702.5,351.5 Z M 712.5,361.5 C 718.783,363.755 719.117,366.755 713.5,370.5C 712.148,369.476 710.815,368.476 709.5,367.5C 709.615,365.053 710.615,363.053 712.5,361.5 Z"/></g>
<g><path style="opacity:1" fill="#f5f5f5" d="M 627.5,278.5 C 626.859,279.482 626.193,280.482 625.5,281.5C 627.006,283.401 628.673,285.068 630.5,286.5C 630.062,286.435 629.728,286.601 629.5,287C 630.5,288 631.5,289 632.5,290C 631.926,291.762 631.593,293.595 631.5,295.5C 631.068,296.71 630.401,297.71 629.5,298.5C 628.27,297.394 627.104,296.394 626,295.5C 623.697,296.744 623.197,298.411 624.5,300.5C 622.953,302.545 621.619,304.711 620.5,307C 620.57,307.765 620.903,308.265 621.5,308.5C 619.206,309.212 617.206,308.379 615.5,306C 616.357,305.311 617.023,304.478 617.5,303.5C 615.684,302.185 614.017,300.685 612.5,299C 611.004,298.493 609.837,298.993 609,300.5C 608.097,299.299 606.931,298.465 605.5,298C 604.829,297.014 604.829,295.847 605.5,294.5C 606.429,295.936 607.595,297.269 609,298.5C 610.658,296.677 612.491,295.01 614.5,293.5C 611.869,291.995 612.203,291.329 615.5,291.5C 615.215,289.712 615.548,288.045 616.5,286.5C 617.086,286.709 617.586,287.043 618,287.5C 619.349,284.93 620.516,284.93 621.5,287.5C 619.37,289.127 617.37,290.96 615.5,293C 620.085,299.377 623.752,298.877 626.5,291.5C 625.23,290.712 624.23,289.712 623.5,288.5C 622.682,286.283 622.682,283.783 623.5,281C 624.356,279.405 625.689,278.572 627.5,278.5 Z M 621.5,287.5 C 622.167,287.833 622.833,288.167 623.5,288.5C 624.23,289.712 625.23,290.712 626.5,291.5C 623.752,298.877 620.085,299.377 615.5,293C 617.37,290.96 619.37,289.127 621.5,287.5 Z"/></g>
<g><path style="opacity:1" fill="#fafaf9" d="M 652.5,368.5 C 649.592,370.594 646.758,373.594 644,377.5C 645.007,374.623 644.174,372.29 641.5,370.5C 639.79,368.8 637.79,367.467 635.5,366.5C 632.976,368.19 630.976,370.357 629.5,373C 631.699,374.697 634.032,376.197 636.5,377.5C 637.855,376.812 638.855,375.812 639.5,374.5C 640.552,374.351 641.552,374.517 642.5,375C 641.167,375.667 641.167,376.333 642.5,377C 641.747,378.487 640.914,378.654 640,377.5C 639.187,379.436 638.687,381.436 638.5,383.5C 636.09,384.438 633.756,384.438 631.5,383.5C 629.838,382.015 628.005,380.682 626,379.5C 624.074,381.131 622.24,382.965 620.5,385C 622.501,387.325 624.834,389.158 627.5,390.5C 628.239,390.369 628.906,390.536 629.5,391C 626.112,393.124 625.779,395.624 628.5,398.5C 626.577,399.308 624.577,399.808 622.5,400C 622.833,400.333 623.167,400.667 623.5,401C 621.527,401.495 619.527,401.662 617.5,401.5C 617.918,402.222 618.584,402.722 619.5,403C 618.572,403.388 617.905,404.055 617.5,405C 617.579,407.548 617.579,410.048 617.5,412.5C 616.594,414.914 614.928,415.747 612.5,415C 611.167,414 609.833,413 608.5,412C 610.441,410.184 611.108,408.184 610.5,406C 609.034,405.365 607.7,404.531 606.5,403.5C 604.851,404.648 603.351,405.981 602,407.5C 600.442,405.641 598.609,404.141 596.5,403C 600.258,399.283 599.424,396.45 594,394.5C 592.674,395.799 591.34,397.132 590,398.5C 588.457,396.622 586.624,395.122 584.5,394C 585.872,392.758 586.872,391.258 587.5,389.5C 586.019,388.52 584.685,387.353 583.5,386C 581.068,385.852 579.068,386.518 577.5,388C 575.981,386.649 574.648,385.149 573.5,383.5C 574.833,382.38 575.333,381.047 575,379.5C 573.649,377.981 572.149,376.648 570.5,375.5C 569.409,377.015 568.076,377.848 566.5,378C 562.457,375.972 561.791,373.305 564.5,370C 562.376,368.878 560.543,367.378 559,365.5C 558.163,367.007 556.996,367.507 555.5,367C 554.167,365.667 552.833,364.333 551.5,363C 553.983,360.204 553.317,358.037 549.5,356.5C 548.904,357.716 548.737,359.049 549,360.5C 542.436,353.683 536.603,346.35 531.5,338.5C 532.117,336.771 533.117,335.271 534.5,334C 533.941,333.275 533.608,332.442 533.5,331.5C 534.612,329.61 535.446,327.61 536,325.5C 536.689,326.357 537.522,327.023 538.5,327.5C 539.167,325.833 539.833,324.167 540.5,322.5C 541.167,323.167 541.833,323.833 542.5,324.5C 543.389,322.993 544.389,321.66 545.5,320.5C 546.933,319.167 548.267,317.667 549.5,316C 548.756,314.961 547.756,314.461 546.5,314.5C 547.209,313.596 548.209,313.263 549.5,313.5C 549.833,311.5 550.167,309.5 550.5,307.5C 551.482,308.141 552.482,308.807 553.5,309.5C 554.833,307.833 556.167,306.167 557.5,304.5C 556.395,302.389 554.729,301.055 552.5,300.5C 553.987,299.196 555.654,298.03 557.5,297C 556.209,295.708 556.209,294.542 557.5,293.5C 561.338,299.114 564.171,298.447 566,291.5C 568.308,292.641 570.141,294.308 571.5,296.5C 570.167,298.5 568.833,300.5 567.5,302.5C 568.899,305.099 570.899,306.599 573.5,307C 574.88,305.075 576.38,303.241 578,301.5C 579.685,303.017 581.185,304.684 582.5,306.5C 580.973,308.193 579.64,310.027 578.5,312C 580.373,314.209 582.54,316.042 585,317.5C 586.333,315.5 587.667,313.5 589,311.5C 590.925,312.88 592.759,314.38 594.5,316C 590.181,318.847 589.848,321.847 593.5,325C 594.931,325.465 596.097,326.299 597,327.5C 598,325.833 599,324.167 600,322.5C 602.691,321.793 604.525,322.959 605.5,326C 604.5,327.667 603.5,329.333 602.5,331C 603.987,333.821 606.154,335.987 609,337.5C 610.337,334.827 612.171,332.993 614.5,332C 618.133,334.662 618.133,337.496 614.5,340.5C 616.234,343.2 618.568,345.2 621.5,346.5C 622.815,344.684 624.315,343.017 626,341.5C 627.5,343 629,344.5 630.5,346C 628.787,347.378 627.453,349.045 626.5,351C 629,352.833 631.5,354.667 634,356.5C 635.093,354.651 636.426,352.984 638,351.5C 639.522,353.022 641.022,354.522 642.5,356C 641.899,357.605 640.899,358.938 639.5,360C 641.759,361.715 643.926,363.548 646,365.5C 647.385,364.449 648.385,363.116 649,361.5C 651.124,362.622 652.957,364.122 654.5,366C 653.619,366.708 652.953,367.542 652.5,368.5 Z M 562.5,309.5 C 564.736,310.389 566.736,311.722 568.5,313.5C 567.577,315.924 566.077,317.924 564,319.5C 562.075,318.12 560.241,316.62 558.5,315C 559.965,313.226 561.298,311.392 562.5,309.5 Z M 573.5,318.5 C 576.116,319.48 578.449,320.98 580.5,323C 578.954,325.257 577.288,327.424 575.5,329.5C 573.46,327.823 571.46,326.156 569.5,324.5C 571.252,322.754 572.585,320.754 573.5,318.5 Z M 554.5,321.5 C 560.796,324.093 561.13,327.426 555.5,331.5C 553.684,330.185 552.017,328.685 550.5,327C 551.665,325.008 552.998,323.175 554.5,321.5 Z M 585.5,327.5 C 588.245,328.737 590.578,330.57 592.5,333C 591.023,335.445 589.19,337.612 587,339.5C 584.555,338.023 582.388,336.19 580.5,334C 582.539,332.074 584.206,329.907 585.5,327.5 Z M 564.5,331.5 C 571.623,333.536 572.29,336.87 566.5,341.5C 564.5,340.167 562.833,338.5 561.5,336.5C 562.763,334.971 563.763,333.305 564.5,331.5 Z M 545.5,334.5 C 547.937,334.886 549.937,336.053 551.5,338C 549.959,339.579 548.792,341.413 548,343.5C 544.775,341.078 543.941,338.078 545.5,334.5 Z M 597.5,337.5 C 600.075,338.728 602.408,340.395 604.5,342.5C 603.149,345.196 601.316,347.53 599,349.5C 596.54,348.042 594.373,346.209 592.5,344C 594.539,342.074 596.206,339.907 597.5,337.5 Z M 576.5,340.5 C 584.141,343.461 584.475,347.127 577.5,351.5C 575.5,350.167 573.833,348.5 572.5,346.5C 573.467,344.21 574.8,342.21 576.5,340.5 Z M 556.5,343.5 C 562.568,345.893 563.068,349.226 558,353.5C 556.315,351.983 554.815,350.316 553.5,348.5C 554.763,346.971 555.763,345.305 556.5,343.5 Z M 609.5,346.5 C 612.401,347.792 614.734,349.792 616.5,352.5C 615.221,355.112 613.555,357.445 611.5,359.5C 609.167,357.667 606.833,355.833 604.5,354C 606.389,351.618 608.055,349.118 609.5,346.5 Z M 587.5,350.5 C 595.863,352.872 596.53,356.539 589.5,361.5C 587.091,360.299 585.091,358.633 583.5,356.5C 584.844,354.471 586.177,352.471 587.5,350.5 Z M 566.5,353.5 C 574.617,355.567 575.284,358.9 568.5,363.5C 566.684,362.185 565.017,360.685 563.5,359C 564.758,357.259 565.758,355.426 566.5,353.5 Z M 622.5,356.5 C 625.166,357.842 627.499,359.675 629.5,362C 628.024,364.643 626.024,366.81 623.5,368.5C 621.091,367.299 619.091,365.633 617.5,363.5C 618.931,360.961 620.597,358.628 622.5,356.5 Z M 599.5,359.5 C 602.268,361.087 604.935,362.92 607.5,365C 605.607,367.303 603.607,369.47 601.5,371.5C 599.46,369.823 597.46,368.156 595.5,366.5C 596.889,364.132 598.222,361.799 599.5,359.5 Z M 578.5,363.5 C 580.932,364.75 583.266,366.25 585.5,368C 583.707,369.78 582.04,371.613 580.5,373.5C 578.076,372.577 576.076,371.077 574.5,369C 575.965,367.226 577.298,365.392 578.5,363.5 Z M 641.5,370.5 C 641.267,372.062 640.6,373.395 639.5,374.5C 638.855,375.812 637.855,376.812 636.5,377.5C 634.032,376.197 631.699,374.697 629.5,373C 630.976,370.357 632.976,368.19 635.5,366.5C 637.79,367.467 639.79,368.8 641.5,370.5 Z M 612.5,369.5 C 615.093,370.754 617.427,372.42 619.5,374.5C 617.667,376.833 615.833,379.167 614,381.5C 611.926,379.548 609.759,377.715 607.5,376C 609.054,373.713 610.721,371.546 612.5,369.5 Z M 590.5,372.5 C 597.852,375.21 598.352,378.877 592,383.5C 589.692,382.359 587.859,380.692 586.5,378.5C 587.844,376.471 589.177,374.471 590.5,372.5 Z M 602.5,382.5 C 604.932,383.75 607.266,385.25 609.5,387C 608.215,389.423 606.382,391.256 604,392.5C 602.037,391.375 600.204,390.041 598.5,388.5C 599.467,386.21 600.8,384.21 602.5,382.5 Z M 617.5,401.5 C 610.109,398.748 609.775,395.415 616.5,391.5C 618.337,392.838 620.003,394.338 621.5,396C 620.35,397.981 619.016,399.814 617.5,401.5 Z"/></g>
<g><path style="opacity:1" fill="#f7f7f6" d="M 697.5,273.5 C 697.942,274.231 698.109,275.231 698,276.5C 698.333,276.167 698.667,275.833 699,275.5C 699.417,276.756 700.25,277.423 701.5,277.5C 701.297,279.044 700.63,280.378 699.5,281.5C 701.006,283.401 702.673,285.068 704.5,286.5C 702.827,286.236 701.16,286.736 699.5,288C 700.598,288.77 700.598,289.603 699.5,290.5C 698.102,288.891 696.435,288.058 694.5,288C 693.167,289.667 691.833,291.333 690.5,293C 691.381,293.708 692.047,294.542 692.5,295.5C 691.603,296.598 690.77,296.598 690,295.5C 689.648,297.247 689.148,298.914 688.5,300.5C 687.849,299.909 687.182,299.243 686.5,298.5C 685.185,300.316 683.685,301.983 682,303.5C 681.53,304.577 681.697,305.577 682.5,306.5C 680.54,305.862 678.707,305.862 677,306.5C 676.085,305.672 675.419,304.672 675,303.5C 673.405,305.425 673.238,307.425 674.5,309.5C 673.478,310.354 672.645,311.354 672,312.5C 671.683,310.699 671.016,310.366 670,311.5C 670.497,313.198 670.33,314.865 669.5,316.5C 666.295,318.298 663.295,319.965 660.5,321.5C 663.216,319.036 662.882,316.87 659.5,315C 658.241,314.018 656.908,313.685 655.5,314C 653.595,315.815 651.928,317.815 650.5,320C 652.66,320.996 654.327,322.496 655.5,324.5C 655.565,324.938 655.399,325.272 655,325.5C 653.981,324.313 652.814,323.313 651.5,322.5C 651.891,323.718 651.224,324.552 649.5,325C 652.064,326.062 653.731,327.896 654.5,330.5C 654.484,332.516 653.484,333.516 651.5,333.5C 652.141,332.518 652.807,331.518 653.5,330.5C 651.684,329.185 650.017,327.685 648.5,326C 646.076,325.403 644.243,326.237 643,328.5C 641.225,327.73 639.725,326.563 638.5,325C 640.581,323.4 641.248,321.566 640.5,319.5C 641.75,319.907 642.917,319.241 644,317.5C 644.464,316.906 644.631,316.239 644.5,315.5C 645.167,315.5 645.833,315.5 646.5,315.5C 646.351,316.552 646.517,317.552 647,318.5C 651.023,312.76 655.356,308.094 660,304.5C 660.816,303.177 661.983,302.511 663.5,302.5C 662.952,304.394 661.952,306.06 660.5,307.5C 662.46,309.156 664.46,310.823 666.5,312.5C 673.475,308.127 673.141,304.461 665.5,301.5C 667.465,299.232 668.632,296.565 669,293.5C 669.383,294.056 669.883,294.389 670.5,294.5C 669.402,295.397 669.402,296.23 670.5,297C 672.369,298.602 674.369,299.602 676.5,300C 678.414,298.587 679.747,296.753 680.5,294.5C 678.994,292.599 677.327,290.932 675.5,289.5C 676.88,288.294 678.047,288.627 679,290.5C 679.126,287.937 679.293,285.604 679.5,283.5C 683.062,290.236 686.396,290.069 689.5,283C 688.619,282.292 687.953,281.458 687.5,280.5C 688.767,278.961 689.767,277.294 690.5,275.5C 692.017,275.511 693.184,276.177 694,277.5C 694.66,275.676 695.827,274.343 697.5,273.5 Z"/></g>
<g><path style="opacity:1" fill="#f5f5f3" d="M 702.5,315.5 C 702.833,315.5 703.167,315.5 703.5,315.5C 703.167,318.5 704.5,319.833 707.5,319.5C 706.883,321.229 705.883,322.729 704.5,324C 706.114,326.127 708.114,327.627 710.5,328.5C 709.185,329.895 709.519,330.895 711.5,331.5C 709.736,332.712 708.07,332.379 706.5,330.5C 706.405,332.215 706.072,333.881 705.5,335.5C 704.604,332.931 702.938,330.931 700.5,329.5C 698.781,331.544 697.114,333.544 695.5,335.5C 694.402,334.603 694.402,333.77 695.5,333C 693.942,332.79 692.609,332.29 691.5,331.5C 692.957,329.372 693.957,327.038 694.5,324.5C 695.547,326.151 696.714,327.817 698,329.5C 699.167,327.667 700.667,326.167 702.5,325C 701.167,324.333 699.833,323.667 698.5,323C 699.684,321.855 699.684,320.688 698.5,319.5C 700.194,318.473 701.527,317.139 702.5,315.5 Z"/></g>
<g><path style="opacity:1" fill="#fcfcf7" d="M 762.5,359.5 C 761.209,364.377 759.542,369.044 757.5,373.5C 757.657,372.127 757.49,370.793 757,369.5C 755.057,369.959 753.724,368.959 753,366.5C 752.667,367.167 752.333,367.833 752,368.5C 751.273,366.047 750.273,363.714 749,361.5C 748.667,362.167 748.333,362.833 748,363.5C 747.28,361.888 747.446,360.388 748.5,359C 747.5,358.667 746.5,358.333 745.5,358C 746.944,356.237 747.944,354.237 748.5,352C 746.888,351.28 745.388,351.446 744,352.5C 743.717,349.258 742.883,348.924 741.5,351.5C 740.264,350.754 738.93,350.421 737.5,350.5C 737.503,345.408 736.67,345.408 735,350.5C 733.705,348.435 733.205,346.435 733.5,344.5C 733.611,343.883 733.944,343.383 734.5,343C 732.959,341.629 731.625,340.129 730.5,338.5C 732.207,337.127 733.54,335.461 734.5,333.5C 735.404,332.791 735.737,331.791 735.5,330.5C 736.117,330.389 736.617,330.056 737,329.5C 737.333,330.833 737.667,332.167 738,333.5C 738.227,330.94 739.56,329.274 742,328.5C 744.499,329.798 746.833,329.464 749,327.5C 748.621,329.075 748.788,330.575 749.5,332C 748.643,332.689 747.977,333.522 747.5,334.5C 748.647,336.585 747.98,338.085 745.5,339C 745.833,339.333 746.167,339.667 746.5,340C 744.381,342.218 744.048,344.718 745.5,347.5C 746.883,344.924 747.717,345.258 748,348.5C 748.973,346.608 749.64,344.608 750,342.5C 750.5,343 751,343.5 751.5,344C 750.159,347.262 750.492,347.762 752.5,345.5C 753.893,347.674 753.56,349.507 751.5,351C 756.195,351.835 759.029,354.668 760,359.5C 760.77,358.402 761.603,358.402 762.5,359.5 Z"/></g>
<g><path style="opacity:1" fill="#fbfbf9" d="M 513.5,345.5 C 512.745,347.466 511.579,347.8 510,346.5C 509.833,347 509.667,347.5 509.5,348C 510.542,350.537 511.875,352.871 513.5,355C 509.855,356.46 508.522,358.96 509.5,362.5C 506.279,364.937 504.779,367.937 505,371.5C 499.599,372.627 496.766,375.96 496.5,381.5C 494.642,380.405 492.975,379.071 491.5,377.5C 497.41,364.68 503.577,352.013 510,339.5C 511.431,341.364 512.597,343.364 513.5,345.5 Z"/></g>
<g><path style="opacity:1" fill="#fdfcf6" d="M 513.5,345.5 C 518.549,351.885 523.215,358.552 527.5,365.5C 526.504,367.184 524.838,368.184 522.5,368.5C 521.526,370.743 521.192,373.076 521.5,375.5C 519.571,375.231 517.905,375.731 516.5,377C 517.842,381.168 516.842,382.001 513.5,379.5C 512.5,380.5 511.5,381.5 510.5,382.5C 509.836,385.134 508.836,387.8 507.5,390.5C 503.537,387.871 499.871,384.871 496.5,381.5C 496.766,375.96 499.599,372.627 505,371.5C 504.779,367.937 506.279,364.937 509.5,362.5C 508.522,358.96 509.855,356.46 513.5,355C 511.875,352.871 510.542,350.537 509.5,348C 509.667,347.5 509.833,347 510,346.5C 511.579,347.8 512.745,347.466 513.5,345.5 Z"/></g>
<g><path style="opacity:1" fill="#fbfbf7" d="M 725.5,352.5 C 727.288,352.215 728.955,352.548 730.5,353.5C 731.183,356.461 732.016,356.795 733,354.5C 734.067,355.191 735.234,355.691 736.5,356C 735.833,356.333 735.167,356.667 734.5,357C 735.376,358.585 736.709,359.585 738.5,360C 737.552,360.483 736.552,360.649 735.5,360.5C 735.231,362.429 735.731,364.095 737,365.5C 737.308,364.692 737.808,364.025 738.5,363.5C 739.503,366.035 738.837,368.202 736.5,370C 738.025,371.009 739.692,371.509 741.5,371.5C 741.192,373.924 741.526,376.257 742.5,378.5C 743.281,377.271 743.781,375.938 744,374.5C 745.941,376.316 746.608,378.316 746,380.5C 748.061,382.406 750.228,384.073 752.5,385.5C 748.707,393.959 743.707,401.625 737.5,408.5C 730.147,401.979 722.647,395.646 715,389.5C 715.24,387.533 716.073,385.7 717.5,384C 717.237,382.054 716.237,381.388 714.5,382C 712.372,386.478 709.872,386.645 707,382.5C 707.24,380.533 708.073,378.7 709.5,377C 707.074,371.215 704.24,371.048 701,376.5C 700.005,375.934 699.172,375.267 698.5,374.5C 698.343,373.127 698.51,371.793 699,370.5C 701.043,369.421 702.376,367.754 703,365.5C 703.718,366.451 704.551,366.617 705.5,366C 704.483,364.951 704.316,363.784 705,362.5C 706.676,361.939 708.009,360.939 709,359.5C 709.374,360.416 709.874,361.25 710.5,362C 707.166,363.206 706.833,365.039 709.5,367.5C 710.815,368.476 712.148,369.476 713.5,370.5C 719.117,366.755 718.783,363.755 712.5,361.5C 711.506,359.146 712.506,358.146 715.5,358.5C 715.229,356.62 715.896,355.287 717.5,354.5C 721.89,360.779 724.557,360.112 725.5,352.5 Z M 712.5,361.5 C 718.783,363.755 719.117,366.755 713.5,370.5C 712.148,369.476 710.815,368.476 709.5,367.5C 709.615,365.053 710.615,363.053 712.5,361.5 Z M 722.5,370.5 C 723.756,370.461 724.756,370.961 725.5,372C 724.521,374.137 723.188,375.971 721.5,377.5C 720.5,377.167 719.833,376.5 719.5,375.5C 720.952,374.06 721.952,372.394 722.5,370.5 Z"/></g>
<g><path style="opacity:1" fill="#fdfdfa" d="M 527.5,365.5 C 539.135,378.802 551.468,391.469 564.5,403.5C 564.631,404.239 564.464,404.906 564,405.5C 562.16,404.167 561.66,404.334 562.5,406C 561.747,407.487 560.914,407.654 560,406.5C 557.554,409.178 557.054,412.178 558.5,415.5C 559.192,414.975 559.692,414.308 560,413.5C 561.41,414.787 562.91,415.954 564.5,417C 562.557,420.332 561.39,420.166 561,416.5C 560.691,417.766 560.191,418.933 559.5,420C 560.833,420.667 560.833,421.333 559.5,422C 560.5,422.833 561.5,423.667 562.5,424.5C 562.167,424.833 561.833,425.167 561.5,425.5C 559.184,423.506 556.518,422.506 553.5,422.5C 553.911,419.724 553.078,419.057 551,420.5C 550.055,420.095 549.388,419.428 549,418.5C 548.685,420.586 548.185,422.586 547.5,424.5C 533.848,413.512 520.515,402.179 507.5,390.5C 508.836,387.8 509.836,385.134 510.5,382.5C 511.5,381.5 512.5,380.5 513.5,379.5C 516.842,382.001 517.842,381.168 516.5,377C 517.905,375.731 519.571,375.231 521.5,375.5C 521.192,373.076 521.526,370.743 522.5,368.5C 524.838,368.184 526.504,367.184 527.5,365.5 Z"/></g>
<g><path style="opacity:1" fill="#fbfbfa" d="M 665.5,375.5 C 666.332,376.329 665.999,377.162 664.5,378C 666.997,381.917 670.33,383.584 674.5,383C 676.422,384.42 677.755,386.253 678.5,388.5C 681.077,389.943 683.41,391.61 685.5,393.5C 685.217,394.289 684.717,394.956 684,395.5C 682.488,394.743 681.154,393.743 680,392.5C 679.802,394.382 679.302,396.048 678.5,397.5C 676.877,396.221 675.21,394.887 673.5,393.5C 671.451,394.882 669.785,396.548 668.5,398.5C 665.8,400.234 663.8,402.568 662.5,405.5C 661.315,406.857 660.315,408.357 659.5,410C 659.743,410.902 660.077,411.735 660.5,412.5C 658.654,414.03 657.654,416.03 657.5,418.5C 656.518,417.859 655.518,417.193 654.5,416.5C 653.148,417.524 651.815,418.524 650.5,419.5C 649.404,421.103 648.07,422.603 646.5,424C 646.616,425.268 646.949,426.602 647.5,428C 647,428.5 646.5,429 646,429.5C 645.667,428.167 645.333,426.833 645,425.5C 643.161,427.804 641.994,430.137 641.5,432.5C 633.499,429.171 626.166,424.838 619.5,419.5C 621.062,419.267 622.395,418.6 623.5,417.5C 624.75,417.577 625.583,418.244 626,419.5C 628.228,418.108 629.394,416.108 629.5,413.5C 630.552,413.649 631.552,413.483 632.5,413C 634.824,409.677 637.491,406.677 640.5,404C 640.835,402.836 640.835,401.503 640.5,400C 642.044,399.71 643.377,399.044 644.5,398C 642.822,397.516 642.156,396.683 642.5,395.5C 643.141,394.518 643.807,393.518 644.5,392.5C 644.376,391.893 644.043,391.56 643.5,391.5C 642.75,388.452 640.75,386.785 637.5,386.5C 640.13,385.619 642.797,384.952 645.5,384.5C 646.531,385.355 647.697,386.022 649,386.5C 651.017,384.651 652.85,382.651 654.5,380.5C 655.978,380.762 657.311,380.429 658.5,379.5C 659.641,378.575 659.641,377.741 658.5,377C 660.061,376.682 661.228,375.849 662,374.5C 663.011,375.337 664.178,375.67 665.5,375.5 Z M 660.5,384.5 C 668.158,387.368 668.325,390.702 661,394.5C 658.88,393.527 657.047,392.194 655.5,390.5C 657.19,388.481 658.856,386.481 660.5,384.5 Z M 650.5,396.5 C 652.649,397.748 654.649,399.248 656.5,401C 654.641,402.558 653.141,404.391 652,406.5C 650.027,405.36 648.193,404.027 646.5,402.5C 647.467,400.21 648.8,398.21 650.5,396.5 Z M 640.5,408.5 C 647.581,410.274 648.081,412.94 642,416.5C 640.374,415.711 638.874,414.711 637.5,413.5C 638.26,411.64 639.26,409.973 640.5,408.5 Z M 630.5,419.5 C 639.77,423.16 639.103,424.327 628.5,423C 629.823,422.184 630.489,421.017 630.5,419.5 Z"/></g>
<g><path style="opacity:1" fill="#fbfaf5" d="M 685.5,393.5 C 688.109,394.443 690.109,396.11 691.5,398.5C 690.769,398.942 689.769,399.109 688.5,399C 687.652,400.188 687.652,401.688 688.5,403.5C 685.031,401.151 682.364,402.151 680.5,406.5C 681.243,407.182 681.909,407.849 682.5,408.5C 681.194,408.879 679.861,409.212 678.5,409.5C 679.052,411.003 679.052,412.669 678.5,414.5C 675.271,413.007 672.938,414.007 671.5,417.5C 671.957,418.298 672.624,418.631 673.5,418.5C 673.082,419.222 672.416,419.722 671.5,420C 672.357,420.689 673.023,421.522 673.5,422.5C 669.112,425.769 664.446,428.269 659.5,430C 660.833,430.333 662.167,430.667 663.5,431C 661.699,431.317 661.366,431.984 662.5,433C 661.675,434.688 660.675,434.855 659.5,433.5C 656.57,434.453 654.237,436.12 652.5,438.5C 648.345,437.258 644.678,435.258 641.5,432.5C 641.994,430.137 643.161,427.804 645,425.5C 645.333,426.833 645.667,428.167 646,429.5C 646.5,429 647,428.5 647.5,428C 646.949,426.602 646.616,425.268 646.5,424C 648.07,422.603 649.404,421.103 650.5,419.5C 652.127,423.543 654.627,424.21 658,421.5C 658.74,420.251 658.573,419.251 657.5,418.5C 657.654,416.03 658.654,414.03 660.5,412.5C 661.695,412.678 662.862,413.011 664,413.5C 665.662,412.003 667.162,410.337 668.5,408.5C 666.929,406.585 664.929,405.585 662.5,405.5C 663.8,402.568 665.8,400.234 668.5,398.5C 669.475,400.513 671.142,401.846 673.5,402.5C 675.549,401.118 677.215,399.452 678.5,397.5C 679.302,396.048 679.802,394.382 680,392.5C 681.154,393.743 682.488,394.743 684,395.5C 684.717,394.956 685.217,394.289 685.5,393.5 Z"/></g>
<g><path style="opacity:1" fill="#fdfdf9" d="M 691.5,398.5 C 702.292,406.786 712.959,415.286 723.5,424C 709.919,435.21 694.753,443.71 678,449.5C 669.111,446.49 660.611,442.823 652.5,438.5C 654.237,436.12 656.57,434.453 659.5,433.5C 660.675,434.855 661.675,434.688 662.5,433C 661.366,431.984 661.699,431.317 663.5,431C 662.167,430.667 660.833,430.333 659.5,430C 664.446,428.269 669.112,425.769 673.5,422.5C 673.023,421.522 672.357,420.689 671.5,420C 672.416,419.722 673.082,419.222 673.5,418.5C 675.258,418.123 676.925,417.456 678.5,416.5C 679.773,415.743 679.773,415.077 678.5,414.5C 679.052,412.669 679.052,411.003 678.5,409.5C 679.861,409.212 681.194,408.879 682.5,408.5C 683.858,409.626 685.192,409.626 686.5,408.5C 687.5,407.167 688.5,405.833 689.5,404.5C 689.376,403.893 689.043,403.56 688.5,403.5C 687.652,401.688 687.652,400.188 688.5,399C 689.769,399.109 690.769,398.942 691.5,398.5 Z"/></g>
<g><path style="opacity:1" fill="#f8f8f5" d="M 652.5,368.5 C 653.568,370.74 655.234,372.574 657.5,374C 659.135,374.54 660.468,374.04 661.5,372.5C 662.901,373.521 664.235,374.521 665.5,375.5C 664.178,375.67 663.011,375.337 662,374.5C 661.228,375.849 660.061,376.682 658.5,377C 659.641,377.741 659.641,378.575 658.5,379.5C 657.311,380.429 655.978,380.762 654.5,380.5C 652.519,378.697 650.352,377.03 648,375.5C 645.81,377.388 643.977,379.555 642.5,382C 643.571,382.852 644.571,383.685 645.5,384.5C 642.797,384.952 640.13,385.619 637.5,386.5C 640.75,386.785 642.75,388.452 643.5,391.5C 639.102,387.173 635.769,388.007 633.5,394C 635.321,395.743 637.321,397.243 639.5,398.5C 640.288,397.23 641.288,396.23 642.5,395.5C 642.156,396.683 642.822,397.516 644.5,398C 643.377,399.044 642.044,399.71 640.5,400C 640.835,401.503 640.835,402.836 640.5,404C 637.491,406.677 634.824,409.677 632.5,413C 631.552,413.483 630.552,413.649 629.5,413.5C 629.394,416.108 628.228,418.108 626,419.5C 625.583,418.244 624.75,417.577 623.5,417.5C 624.562,416.425 624.562,415.425 623.5,414.5C 621.657,412.54 619.657,411.873 617.5,412.5C 617.579,410.048 617.579,407.548 617.5,405C 617.905,404.055 618.572,403.388 619.5,403C 618.584,402.722 617.918,402.222 617.5,401.5C 619.527,401.662 621.527,401.495 623.5,401C 623.167,400.667 622.833,400.333 622.5,400C 624.577,399.808 626.577,399.308 628.5,398.5C 625.779,395.624 626.112,393.124 629.5,391C 628.906,390.536 628.239,390.369 627.5,390.5C 628.861,388.15 630.194,385.816 631.5,383.5C 633.756,384.438 636.09,384.438 638.5,383.5C 638.687,381.436 639.187,379.436 640,377.5C 640.914,378.654 641.747,378.487 642.5,377C 641.167,376.333 641.167,375.667 642.5,375C 641.552,374.517 640.552,374.351 639.5,374.5C 640.6,373.395 641.267,372.062 641.5,370.5C 644.174,372.29 645.007,374.623 644,377.5C 646.758,373.594 649.592,370.594 652.5,368.5 Z M 627.5,400.5 C 630.14,400.954 632.473,402.121 634.5,404C 633.174,406.158 631.507,407.992 629.5,409.5C 627.611,408.396 625.945,407.063 624.5,405.5C 625.26,403.64 626.26,401.973 627.5,400.5 Z"/></g>
<g><path style="opacity:1" fill="#fcfcf7" d="M 564.5,403.5 C 569.152,406.821 573.485,410.487 577.5,414.5C 574.086,415.128 572.752,416.961 573.5,420C 571.231,419.626 568.898,419.626 566.5,420C 567.5,420.333 568.5,420.667 569.5,421C 567.598,421.199 566.098,422.033 565,423.5C 564.111,422.112 563.611,422.278 563.5,424C 563.905,424.945 564.572,425.612 565.5,426C 563.821,427.826 562.654,429.992 562,432.5C 561.667,432.167 561.333,431.833 561,431.5C 561.355,432.959 561.189,434.293 560.5,435.5C 555.941,432.061 551.608,428.394 547.5,424.5C 548.185,422.586 548.685,420.586 549,418.5C 549.388,419.428 550.055,420.095 551,420.5C 553.078,419.057 553.911,419.724 553.5,422.5C 556.518,422.506 559.184,423.506 561.5,425.5C 561.833,425.167 562.167,424.833 562.5,424.5C 561.5,423.667 560.5,422.833 559.5,422C 560.833,421.333 560.833,420.667 559.5,420C 560.191,418.933 560.691,417.766 561,416.5C 561.39,420.166 562.557,420.332 564.5,417C 562.91,415.954 561.41,414.787 560,413.5C 559.692,414.308 559.192,414.975 558.5,415.5C 557.054,412.178 557.554,409.178 560,406.5C 560.914,407.654 561.747,407.487 562.5,406C 561.66,404.334 562.16,404.167 564,405.5C 564.464,404.906 564.631,404.239 564.5,403.5 Z"/></g>
<g><path style="opacity:1" fill="#fefdf9" d="M 515.5,583.5 C 514.867,583.12 514.2,582.787 513.5,582.5C 513.61,580.902 513.943,579.235 514.5,577.5C 514.154,576.304 513.654,576.304 513,577.5C 512.667,576.5 512.333,575.5 512,574.5C 510.033,573.342 508.2,573.342 506.5,574.5C 505.396,575.631 505.729,576.465 507.5,577C 506.287,579.326 504.954,579.659 503.5,578C 503.148,574.251 505.148,572.418 509.5,572.5C 509.351,571.448 509.517,570.448 510,569.5C 511.264,569.64 512.431,569.64 513.5,569.5C 512.049,568.094 510.716,566.594 509.5,565C 510.662,564.173 511.829,563.34 513,562.5C 513.5,562.667 514,562.833 514.5,563C 513.044,563.423 512.544,564.256 513,565.5C 514.545,564.179 515.711,564.512 516.5,566.5C 514.539,567.848 514.372,569.181 516,570.5C 517.741,568.459 517.908,566.292 516.5,564C 517.167,563.667 517.833,563.333 518.5,563C 516.353,560.496 516.353,558.162 518.5,556C 517.833,555.667 517.167,555.333 516.5,555C 519.395,551.666 523.062,550.833 527.5,552.5C 527.5,551.5 527.5,550.5 527.5,549.5C 529.144,549.286 530.644,549.62 532,550.5C 532.5,550 533,549.5 533.5,549C 531.781,547.943 529.947,547.11 528,546.5C 526.285,548.907 524.118,549.574 521.5,548.5C 520.808,549.025 520.308,549.692 520,550.5C 519.25,549.874 518.416,549.374 517.5,549C 517.693,547.355 517.86,545.521 518,543.5C 519.017,546.028 520.184,546.028 521.5,543.5C 522.386,544.325 522.719,545.325 522.5,546.5C 523.552,546.649 524.552,546.483 525.5,546C 523.951,541.783 520.951,539.449 516.5,539C 514.733,534.731 511.733,531.564 507.5,529.5C 513.749,521.078 520.582,513.078 528,505.5C 530.144,502.512 530.477,499.512 529,496.5C 519.529,487.519 509.362,479.519 498.5,472.5C 495.23,474.267 492.397,476.6 490,479.5C 486.291,484.94 482.125,489.94 477.5,494.5C 476.527,493.209 475.527,493.209 474.5,494.5C 473.026,493.564 472.026,492.23 471.5,490.5C 468.628,489.217 465.795,489.217 463,490.5C 462.405,491.899 462.572,493.232 463.5,494.5C 460.964,497.051 459.298,496.384 458.5,492.5C 456.902,494.973 455.402,494.973 454,492.5C 453.268,494.923 451.768,496.09 449.5,496C 452.264,494.456 452.097,493.289 449,492.5C 448.667,493.167 448.333,493.833 448,494.5C 444.869,493.794 441.702,493.127 438.5,492.5C 436.766,494.234 434.766,495.568 432.5,496.5C 431.626,498.747 431.292,501.08 431.5,503.5C 430.448,503.649 429.448,503.483 428.5,503C 428.833,502.667 429.167,502.333 429.5,502C 426.833,501 426.833,500 429.5,499C 427.606,497.921 427.273,496.587 428.5,495C 426.364,493.821 424.364,493.321 422.5,493.5C 444.257,462.316 466.257,431.316 488.5,400.5C 526.833,432.333 565.167,464.167 603.5,496C 574.299,525.368 544.965,554.535 515.5,583.5 Z"/></g>
<g><path style="opacity:1" fill="#fdfdfa" d="M 577.5,414.5 C 601.566,433.545 627.899,449.045 656.5,461C 645.424,469.954 634.258,478.787 623,487.5C 602.293,469.955 581.46,452.622 560.5,435.5C 561.189,434.293 561.355,432.959 561,431.5C 561.333,431.833 561.667,432.167 562,432.5C 562.654,429.992 563.821,427.826 565.5,426C 564.572,425.612 563.905,424.945 563.5,424C 563.611,422.278 564.111,422.112 565,423.5C 566.098,422.033 567.598,421.199 569.5,421C 568.5,420.667 567.5,420.333 566.5,420C 568.898,419.626 571.231,419.626 573.5,420C 572.752,416.961 574.086,415.128 577.5,414.5 Z"/></g>
<g><path style="opacity:1" fill="#babbba" d="M 619.5,419.5 C 618.833,418.167 618.833,418.167 619.5,419.5 Z"/></g>
<g><path style="opacity:1" fill="#fcfcf6" d="M 493.5,494.5 C 494.552,494.351 495.552,494.517 496.5,495C 501.341,499.01 506.008,503.177 510.5,507.5C 500.099,518.562 490.099,529.895 480.5,541.5C 475.179,537.511 470.179,533.178 465.5,528.5C 475.234,517.439 484.568,506.105 493.5,494.5 Z"/></g>
<g><path style="opacity:1" fill="#fefdf9" d="M 477.5,494.5 C 468.913,505.32 460.08,515.987 451,526.5C 449,529.167 449,531.833 451,534.5C 460.526,542.913 470.526,550.58 481,557.5C 482.895,557.385 484.562,556.718 486,555.5C 492.654,546.352 499.82,537.685 507.5,529.5C 511.733,531.564 514.733,534.731 516.5,539C 520.951,539.449 523.951,541.783 525.5,546C 524.552,546.483 523.552,546.649 522.5,546.5C 522.719,545.325 522.386,544.325 521.5,543.5C 520.184,546.028 519.017,546.028 518,543.5C 517.86,545.521 517.693,547.355 517.5,549C 518.416,549.374 519.25,549.874 520,550.5C 520.308,549.692 520.808,549.025 521.5,548.5C 524.118,549.574 526.285,548.907 528,546.5C 529.947,547.11 531.781,547.943 533.5,549C 533,549.5 532.5,550 532,550.5C 530.644,549.62 529.144,549.286 527.5,549.5C 527.5,550.5 527.5,551.5 527.5,552.5C 523.062,550.833 519.395,551.666 516.5,555C 517.167,555.333 517.833,555.667 518.5,556C 516.353,558.162 516.353,560.496 518.5,563C 517.833,563.333 517.167,563.667 516.5,564C 517.908,566.292 517.741,568.459 516,570.5C 514.372,569.181 514.539,567.848 516.5,566.5C 515.711,564.512 514.545,564.179 513,565.5C 512.544,564.256 513.044,563.423 514.5,563C 514,562.833 513.5,562.667 513,562.5C 511.829,563.34 510.662,564.173 509.5,565C 510.716,566.594 512.049,568.094 513.5,569.5C 512.431,569.64 511.264,569.64 510,569.5C 509.517,570.448 509.351,571.448 509.5,572.5C 505.148,572.418 503.148,574.251 503.5,578C 504.954,579.659 506.287,579.326 507.5,577C 505.729,576.465 505.396,575.631 506.5,574.5C 508.2,573.342 510.033,573.342 512,574.5C 512.333,575.5 512.667,576.5 513,577.5C 513.654,576.304 514.154,576.304 514.5,577.5C 513.943,579.235 513.61,580.902 513.5,582.5C 514.2,582.787 514.867,583.12 515.5,583.5C 465.535,633.965 415.368,684.299 365,734.5C 343.126,715.623 320.959,697.123 298.5,679C 294.69,676.411 294.523,673.578 298,670.5C 339.51,611.471 381.01,552.471 422.5,493.5C 424.364,493.321 426.364,493.821 428.5,495C 427.273,496.587 427.606,497.921 429.5,499C 426.833,500 426.833,501 429.5,502C 429.167,502.333 428.833,502.667 428.5,503C 429.448,503.483 430.448,503.649 431.5,503.5C 431.292,501.08 431.626,498.747 432.5,496.5C 434.766,495.568 436.766,494.234 438.5,492.5C 441.702,493.127 444.869,493.794 448,494.5C 448.333,493.833 448.667,493.167 449,492.5C 452.097,493.289 452.264,494.456 449.5,496C 451.768,496.09 453.268,494.923 454,492.5C 455.402,494.973 456.902,494.973 458.5,492.5C 459.298,496.384 460.964,497.051 463.5,494.5C 462.572,493.232 462.405,491.899 463,490.5C 465.795,489.217 468.628,489.217 471.5,490.5C 472.026,492.23 473.026,493.564 474.5,494.5C 475.527,493.209 476.527,493.209 477.5,494.5 Z"/></g>
<g><path style="opacity:1" fill="#fdfcf8" d="M 302.5,707.5 C 312.627,715.79 322.627,724.29 332.5,733C 317.036,750.799 301.203,768.299 285,785.5C 275.833,777.667 266.667,769.833 257.5,762C 272.866,744.079 287.866,725.912 302.5,707.5 Z"/></g>
</svg>
