<?xml version="1.0" encoding="UTF-8"?>
<!DOCTYPE svg PUBLIC "-//W3C//DTD SVG 1.1//EN" "http://www.w3.org/Graphics/SVG/1.1/DTD/svg11.dtd">
<svg xmlns="http://www.w3.org/2000/svg" version="1.1" width="1024px" height="1024px" style="shape-rendering:geometricPrecision; text-rendering:geometricPrecision; image-rendering:optimizeQuality; fill-rule:evenodd; clip-rule:evenodd" xmlns:xlink="http://www.w3.org/1999/xlink">
<g><path style="opacity:1" fill="#fefefe" d="M 288.5,296.5 C 436.5,296.333 584.5,296.5 732.5,297C 759.553,301.768 777.053,317.268 785,343.5C 785.995,348.453 786.662,353.453 787,358.5C 787.077,432.362 787.077,506.362 787,580.5C 785.225,605.896 773.058,624.396 750.5,636C 745.067,638.442 739.4,640.108 733.5,641C 633.5,641.333 533.5,641.667 433.5,642C 395.833,675 358.167,708 320.5,741C 319.552,741.483 318.552,741.649 317.5,741.5C 320.5,708.165 323.5,674.832 326.5,641.5C 314.162,641.667 301.829,641.5 289.5,641C 257.842,634.676 240.008,615.509 236,583.5C 235.023,504.81 235.357,426.143 237,347.5C 243.428,319.571 260.595,302.571 288.5,296.5 Z M 375.5,434.5 C 399.332,433.321 413.832,444.321 419,467.5C 420.27,483.371 414.437,495.871 401.5,505C 383.162,514.253 366.662,511.753 352,497.5C 341.485,482.258 340.818,466.591 350,450.5C 356.546,441.981 365.046,436.647 375.5,434.5 Z M 505.5,434.5 C 528.952,433.132 543.452,443.798 549,466.5C 550.555,489.225 540.388,503.725 518.5,510C 495.524,512.272 480.69,502.439 474,480.5C 471.449,455.931 481.949,440.598 505.5,434.5 Z M 634.5,434.5 C 658.902,432.749 673.735,443.749 679,467.5C 680.049,483.234 674.216,495.734 661.5,505C 640.8,515.281 623.3,511.448 609,493.5C 599.041,473.719 602.208,456.552 618.5,442C 623.542,438.643 628.876,436.143 634.5,434.5 Z"/></g>
</svg>
