<?xml version="1.0" encoding="UTF-8"?>
<!DOCTYPE svg PUBLIC "-//W3C//DTD SVG 1.1//EN" "http://www.w3.org/Graphics/SVG/1.1/DTD/svg11.dtd">
<svg xmlns="http://www.w3.org/2000/svg" version="1.1" width="1024px" height="1024px" style="shape-rendering:geometricPrecision; text-rendering:geometricPrecision; image-rendering:optimizeQuality; fill-rule:evenodd; clip-rule:evenodd" xmlns:xlink="http://www.w3.org/1999/xlink">
<g><path style="opacity:1" fill="#27303a" d="M 292.5,285.5 C 323.417,286.012 353.751,290.345 383.5,298.5C 382.903,303.083 384.07,307.083 387,310.5C 388.016,309.366 388.683,309.699 389,311.5C 389.333,311.167 389.667,310.833 390,310.5C 391.067,311.191 392.234,311.691 393.5,312C 393.167,312.333 392.833,312.667 392.5,313C 394.291,313.415 395.624,314.415 396.5,316C 396.36,317.264 396.36,318.431 396.5,319.5C 397.281,318.271 397.781,316.938 398,315.5C 398.759,317.635 400.259,318.968 402.5,319.5C 403.603,317.896 405.103,316.896 407,316.5C 409.775,318.404 412.275,321.07 414.5,324.5C 415.167,323.5 415.833,322.5 416.5,321.5C 417.5,322.167 418.5,322.833 419.5,323.5C 420.89,321.797 422.39,321.13 424,321.5C 426.333,322.833 428.667,324.167 431,325.5C 431.251,323.567 431.751,321.734 432.5,320C 434.198,320.497 435.865,320.33 437.5,319.5C 438.308,319.808 438.975,320.308 439.5,321C 438.5,322.667 437.167,324 435.5,325C 434.551,325.617 433.718,325.451 433,324.5C 433.077,325.738 432.911,326.738 432.5,327.5C 431.833,327.167 431.167,326.833 430.5,326.5C 426.89,328.801 423.223,329.967 419.5,330C 422.547,333.126 426.047,333.959 430,332.5C 431.02,333.891 431.853,335.391 432.5,337C 431.833,337.333 431.167,337.667 430.5,338C 433.669,338.997 436.336,338.33 438.5,336C 437.687,334.686 436.687,333.519 435.5,332.5C 437.108,331.682 438.775,331.015 440.5,330.5C 441.316,332.287 442.316,333.954 443.5,335.5C 443.167,336.833 442.833,338.167 442.5,339.5C 441.833,338.5 441.167,337.5 440.5,336.5C 438.41,341.975 439.743,346.141 444.5,349C 440.629,349.641 439.962,351.141 442.5,353.5C 443.086,353.291 443.586,352.957 444,352.5C 444.833,354.5 445.667,356.5 446.5,358.5C 448.665,357.502 450.832,356.502 453,355.5C 454.226,355.645 455.393,355.978 456.5,356.5C 457.59,355.609 457.59,354.609 456.5,353.5C 457.025,352.808 457.692,352.308 458.5,352C 460.433,351.749 462.266,351.249 464,350.5C 466.168,351.629 466.668,353.129 465.5,355C 468.167,355.667 468.167,356.333 465.5,357C 467.733,360.442 468.067,364.108 466.5,368C 468.329,369.113 469.163,370.613 469,372.5C 467.663,371.235 466.163,370.735 464.5,371C 464.957,371.414 465.291,371.914 465.5,372.5C 464.054,374.618 463.387,376.951 463.5,379.5C 466.238,378.965 468.072,379.965 469,382.5C 469.333,381.833 469.667,381.167 470,380.5C 470.667,381.833 471.333,381.833 472,380.5C 475.417,382.072 475.251,383.239 471.5,384C 474.37,385.08 477.203,386.247 480,387.5C 481.651,386.258 483.485,385.424 485.5,385C 486.574,384.261 487.241,383.261 487.5,382C 486.385,380.765 486.385,379.598 487.5,378.5C 486.117,375.924 485.283,376.258 485,379.5C 484.333,380.833 483.667,380.833 483,379.5C 481.602,377.186 481.435,374.853 482.5,372.5C 481.509,371.335 480.509,370.168 479.5,369C 479.667,368.5 479.833,368 480,367.5C 481.512,369.957 482.846,369.957 484,367.5C 484.333,367.833 484.667,368.167 485,368.5C 486.803,367.687 488.303,366.52 489.5,365C 489.095,364.055 488.428,363.388 487.5,363C 489.891,362.309 489.891,361.309 487.5,360C 491.232,358.371 493.399,355.538 494,351.5C 494.915,352.328 495.581,353.328 496,354.5C 496.278,353.584 496.778,352.918 497.5,352.5C 499.754,353.124 501.421,354.457 502.5,356.5C 501.785,456.55 501.119,556.217 500.5,655.5C 498.55,657.946 496.716,660.946 495,664.5C 492.842,663.174 491.008,661.507 489.5,659.5C 490.485,657.902 490.651,656.235 490,654.5C 489.346,655.696 488.846,655.696 488.5,654.5C 489.313,653.186 490.313,652.019 491.5,651C 488.956,649.437 488.956,647.937 491.5,646.5C 490.833,645.833 490.167,645.167 489.5,644.5C 490.936,642.486 492.27,640.486 493.5,638.5C 492.811,636.647 491.478,635.481 489.5,635C 490.91,634.632 491.91,633.799 492.5,632.5C 492.062,631.494 491.396,631.494 490.5,632.5C 489.646,631.052 488.646,629.719 487.5,628.5C 488.025,627.808 488.692,627.308 489.5,627C 488.271,624.262 486.938,621.595 485.5,619C 485.833,618.667 486.167,618.333 486.5,618C 485.207,617.51 483.873,617.343 482.5,617.5C 482.33,616.178 482.663,615.011 483.5,614C 481.807,612.287 480.474,610.287 479.5,608C 481.781,606.149 481.781,604.482 479.5,603C 481.211,601.867 481.711,600.367 481,598.5C 479.933,600.283 478.433,600.783 476.5,600C 479.498,597.192 478.831,595.859 474.5,596C 476.5,594.378 478.333,592.545 480,590.5C 481.011,591.337 482.178,591.67 483.5,591.5C 483.41,589.304 483.077,587.137 482.5,585C 482.969,583.113 483.969,581.613 485.5,580.5C 484.524,578.877 485.024,577.543 487,576.5C 487.165,581.466 487.998,581.466 489.5,576.5C 488.109,574.064 488.609,573.398 491,574.5C 491.167,574 491.333,573.5 491.5,573C 490.268,570.849 490.268,568.683 491.5,566.5C 491.167,565.833 490.833,565.167 490.5,564.5C 489.227,564.746 488.06,564.746 487,564.5C 486.242,561.767 486.742,559.267 488.5,557C 488.108,555.989 487.441,555.489 486.5,555.5C 487.695,554.033 487.695,552.533 486.5,551C 486.667,550.5 486.833,550 487,549.5C 487.998,552.028 488.831,552.028 489.5,549.5C 488.366,547.462 488.366,545.462 489.5,543.5C 486.942,541.88 486.942,540.38 489.5,539C 488.655,537.442 489.321,536.442 491.5,536C 488.972,534.983 488.972,533.816 491.5,532.5C 489.675,531.429 488.508,532.096 488,534.5C 487.333,533.167 486.667,531.833 486,530.5C 485.667,530.833 485.333,531.167 485,531.5C 482.941,527.658 479.941,526.325 476,527.5C 474.057,526.685 472.057,525.685 470,524.5C 469.667,525.167 469.333,525.833 469,526.5C 467.921,524.606 466.587,524.273 465,525.5C 463.907,523.028 462.24,521.028 460,519.5C 459.667,519.833 459.333,520.167 459,520.5C 458.544,519.256 459.044,518.423 460.5,518C 458.081,516.491 457.081,514.325 457.5,511.5C 456.127,511.657 454.793,511.49 453.5,511C 453.833,510.667 454.167,510.333 454.5,510C 453.349,507.881 451.849,506.047 450,504.5C 449.333,502.833 449.333,501.167 450,499.5C 450.333,500.167 450.667,500.833 451,501.5C 452.566,502.061 453.899,501.394 455,499.5C 455.333,500.833 455.667,502.167 456,503.5C 456.5,503 457,502.5 457.5,502C 456.483,500.951 456.316,499.784 457,498.5C 458.985,499.621 461.152,499.787 463.5,499C 465.645,495.688 468.312,492.854 471.5,490.5C 472.711,489.28 472.711,488.113 471.5,487C 472,486.5 472.5,486 473,485.5C 474,485.5 475,485.5 476,485.5C 477.507,484.495 478.673,483.162 479.5,481.5C 482.372,485.118 485.039,484.785 487.5,480.5C 487.167,479.833 486.833,479.167 486.5,478.5C 488.234,477.326 489.234,475.66 489.5,473.5C 489.291,472.006 488.624,470.839 487.5,470C 488.167,469.667 488.833,469.333 489.5,469C 488.167,468 488.167,467 489.5,466C 488.258,465.689 487.258,466.189 486.5,467.5C 485.369,465.926 485.202,464.259 486,462.5C 486.718,463.451 487.551,463.617 488.5,463C 485.951,459.227 486.284,455.56 489.5,452C 487.527,451.505 485.527,451.338 483.5,451.5C 483.5,450.5 483.5,449.5 483.5,448.5C 482.022,448.762 480.689,448.429 479.5,447.5C 479.667,447.167 479.833,446.833 480,446.5C 481.533,446.944 483.033,447.277 484.5,447.5C 485.382,446.24 486.382,445.074 487.5,444C 486.101,443.405 484.768,443.572 483.5,444.5C 479.871,442.938 479.371,441.271 482,439.5C 483.281,440.647 483.614,440.313 483,438.5C 475.94,434.675 470.94,429.009 468,421.5C 468.048,419.074 467.881,416.741 467.5,414.5C 468.95,413.15 469.617,411.484 469.5,409.5C 471.942,409.881 472.609,409.214 471.5,407.5C 472.167,406.5 472.833,405.5 473.5,404.5C 470.972,403.483 470.972,402.316 473.5,401C 471.701,398.133 469.035,395.466 465.5,393C 467.488,392.82 469.488,392.986 471.5,393.5C 471.502,391.169 470.669,389.169 469,387.5C 468,388.833 467,388.833 466,387.5C 465.667,388.167 465.333,388.833 465,389.5C 461.472,388.057 458.638,386.557 456.5,385C 457.184,383.307 458.184,381.807 459.5,380.5C 458.273,379.41 457.44,378.076 457,376.5C 456.667,377.5 456.333,378.5 456,379.5C 455.667,379.167 455.333,378.833 455,378.5C 452.688,378.955 450.688,379.955 449,381.5C 447.557,378.042 445.057,376.209 441.5,376C 444.167,376.667 444.167,377.333 441.5,378C 444.649,378.776 445.149,380.276 443,382.5C 441.795,381.929 440.628,381.262 439.5,380.5C 440.326,379.549 440.492,378.549 440,377.5C 438.731,378.905 438.231,380.571 438.5,382.5C 441.481,382.544 441.814,382.877 439.5,383.5C 436.932,382.727 434.599,382.727 432.5,383.5C 429.799,383.024 429.299,382.024 431,380.5C 432.751,381.174 434.417,381.507 436,381.5C 436.5,381 437,380.5 437.5,380C 436.773,378.601 436.273,377.101 436,375.5C 435.755,377.663 434.755,379.33 433,380.5C 432.289,378.633 432.789,377.133 434.5,376C 433.092,375.685 431.759,376.018 430.5,377C 431.711,377.893 431.711,378.726 430.5,379.5C 428.185,378.766 426.352,377.432 425,375.5C 423.887,376.76 423.72,377.927 424.5,379C 423.167,379.333 421.833,379.667 420.5,380C 422.929,380.451 423.096,381.285 421,382.5C 420.439,381.978 419.772,381.645 419,381.5C 416.503,382.908 414.003,384.241 411.5,385.5C 410.452,384.617 409.285,383.95 408,383.5C 405.927,383.761 403.927,383.761 402,383.5C 401,385.167 400,386.833 399,388.5C 398.667,387.833 398.333,387.167 398,386.5C 397.293,388.081 396.46,389.581 395.5,391C 396.738,390.923 397.738,391.089 398.5,391.5C 396.807,392.228 395.307,393.228 394,394.5C 392.658,393.098 391.824,393.431 391.5,395.5C 391.392,396.442 391.059,397.275 390.5,398C 391.5,398.333 392.5,398.667 393.5,399C 390.921,400.729 390.921,402.562 393.5,404.5C 392.833,404.833 392.167,405.167 391.5,405.5C 392.491,407.123 391.824,408.123 389.5,408.5C 388.197,407.282 387.197,407.615 386.5,409.5C 385.808,408.975 385.308,408.308 385,407.5C 384.667,407.833 384.333,408.167 384,408.5C 384.983,415.451 382.15,420.284 375.5,423C 377.686,423.604 377.852,424.77 376,426.5C 375.667,426.167 375.333,425.833 375,425.5C 374.228,426.849 373.061,427.682 371.5,428C 373.701,428.777 373.701,429.944 371.5,431.5C 371.167,430.833 370.833,430.167 370.5,429.5C 368.664,430.919 366.664,432.086 364.5,433C 365.833,433.667 365.833,434.333 364.5,435C 365.328,435.915 366.328,436.581 367.5,437C 365.022,439.181 363.022,438.848 361.5,436C 363.301,435.683 363.634,435.016 362.5,434C 361.092,433.685 359.759,434.018 358.5,435C 355.729,437.892 352.729,440.558 349.5,443C 349.616,444.268 349.949,445.602 350.5,447C 348.832,448.687 346.999,448.854 345,447.5C 343.674,447.755 342.674,448.422 342,449.5C 340.667,448.167 339.333,448.167 338,449.5C 337.73,448.068 338.396,447.068 340,446.5C 340.333,446.833 340.667,447.167 341,447.5C 341.667,445.833 341.667,444.167 341,442.5C 339.527,442.868 338.027,442.368 336.5,441C 335.874,440.25 335.374,439.416 335,438.5C 329.671,438.357 324.171,438.524 318.5,439C 317.751,437.266 317.251,435.433 317,433.5C 315.561,431.986 314.061,431.653 312.5,432.5C 311.46,429.867 310.627,427.534 310,425.5C 309.054,427.788 307.887,429.955 306.5,432C 307.167,432.333 307.833,432.667 308.5,433C 307.89,434.947 307.057,436.781 306,438.5C 303.887,436.729 304.053,435.229 306.5,434C 305.809,432.933 305.309,431.766 305,430.5C 303.815,432.844 301.982,433.677 299.5,433C 300.833,432 300.833,431 299.5,430C 300.549,429.508 301.549,429.674 302.5,430.5C 303.452,428.955 303.785,427.288 303.5,425.5C 300.932,424.55 298.432,424.55 296,425.5C 295.228,424.151 294.061,423.318 292.5,423C 292.833,422.667 293.167,422.333 293.5,422C 292.256,421.544 291.423,422.044 291,423.5C 290.5,422.333 289.667,421.5 288.5,421C 289.766,420.691 290.933,420.191 292,419.5C 293.667,419.833 295.333,420.167 297,420.5C 297.667,419.5 297.667,418.5 297,417.5C 295.636,418.258 294.469,417.758 293.5,416C 295.085,415.915 296.418,415.749 297.5,415.5C 296.68,413.889 295.346,413.222 293.5,413.5C 293.318,411.325 292.651,409.325 291.5,407.5C 292.5,405.5 293.5,403.5 294.5,401.5C 295.086,401.709 295.586,402.043 296,402.5C 296.956,401.421 297.789,400.255 298.5,399C 295.966,396.413 295.966,393.747 298.5,391C 296.941,390.02 295.274,389.187 293.5,388.5C 292.333,386.833 291.167,385.167 290,383.5C 288.927,384.28 287.76,384.113 286.5,383C 286.665,381.883 286.998,380.716 287.5,379.5C 285.994,378.253 284.494,378.253 283,379.5C 282.316,378.216 282.483,377.049 283.5,376C 281.668,375.252 280.001,374.252 278.5,373C 279.019,370.974 279.353,368.974 279.5,367C 278.833,365.667 278.167,364.333 277.5,363C 279.138,360.867 279.971,358.367 280,355.5C 280.333,356.167 280.667,356.833 281,357.5C 281.469,355.892 282.135,354.225 283,352.5C 283.667,355.167 284.333,355.167 285,352.5C 285.833,353.5 286.667,354.5 287.5,355.5C 288.068,353.848 289.401,352.182 291.5,350.5C 290.173,348.689 289.173,346.689 288.5,344.5C 285.004,345.478 284.67,344.644 287.5,342C 285.675,340.534 285.175,338.701 286,336.5C 287.028,338.361 288.528,339.695 290.5,340.5C 292.323,338.151 291.656,335.985 288.5,334C 290.7,333.536 293.033,333.036 295.5,332.5C 295.773,330.549 295.107,329.049 293.5,328C 295.158,327.275 295.658,326.108 295,324.5C 293.627,324.404 292.127,324.57 290.5,325C 292.09,323.954 293.59,322.787 295,321.5C 295.333,322.167 295.667,322.833 296,323.5C 296.346,321.782 296.846,320.115 297.5,318.5C 295.518,317.784 293.851,316.617 292.5,315C 292.833,314.667 293.167,314.333 293.5,314C 291.041,312.503 288.541,312.336 286,313.5C 284.902,312.616 284.402,311.616 284.5,310.5C 283.738,311.628 283.071,312.795 282.5,314C 281.833,314.667 281.167,314.667 280.5,314C 281.576,312.274 281.743,310.441 281,308.5C 279.951,309.517 278.784,309.684 277.5,309C 277.833,308.667 278.167,308.333 278.5,308C 277.692,307.692 277.025,307.192 276.5,306.5C 278.078,305.702 279.744,305.202 281.5,305C 278.624,304.562 275.957,303.562 273.5,302C 274.531,298.707 274.031,295.54 272,292.5C 271.722,293.416 271.222,294.082 270.5,294.5C 270.5,291.5 270.5,288.5 270.5,285.5C 277.833,285.5 285.167,285.5 292.5,285.5 Z"/></g>
<g><path style="opacity:1" fill="#27303a" d="M 735.5,285.5 C 741.167,285.5 746.833,285.5 752.5,285.5C 752.5,328.167 752.5,370.833 752.5,413.5C 751.883,413.389 751.383,413.056 751,412.5C 748.04,416.993 746.707,421.993 747,427.5C 746.147,425.065 745.147,422.731 744,420.5C 743.798,422.256 743.298,423.922 742.5,425.5C 741.289,424.726 741.289,423.893 742.5,423C 740.143,423.175 737.977,423.342 736,423.5C 734.684,420.972 733.517,420.972 732.5,423.5C 731.549,422.674 730.549,422.508 729.5,423C 728.252,424.959 726.585,426.459 724.5,427.5C 724.436,426.635 724.103,425.635 723.5,424.5C 722.009,423.756 720.509,423.09 719,422.5C 718.333,420.5 717.667,418.5 717,416.5C 715.89,418.397 715.724,420.23 716.5,422C 715.552,422.483 714.552,422.649 713.5,422.5C 713.768,424.099 713.434,425.432 712.5,426.5C 712.667,405.831 712.5,385.164 712,364.5C 711.586,364.043 711.086,363.709 710.5,363.5C 693.431,364.774 676.431,366.774 659.5,369.5C 657.799,369.034 656.299,369.034 655,369.5C 654.626,368.584 654.126,367.75 653.5,367C 653.694,365.57 653.694,364.07 653.5,362.5C 655.937,361.119 657.27,359.286 657.5,357C 656.149,355.186 655.149,355.519 654.5,358C 653.5,358.333 652.5,358.667 651.5,359C 652.731,360.183 652.731,361.349 651.5,362.5C 650.5,361.167 649.5,361.167 648.5,362.5C 647.154,360.987 645.654,359.653 644,358.5C 642.765,359.615 641.598,359.615 640.5,358.5C 639.538,363.24 638.038,363.573 636,359.5C 634.807,360.978 634.307,362.312 634.5,363.5C 633.808,362.975 633.308,362.308 633,361.5C 632.667,361.833 632.333,362.167 632,362.5C 631.507,359.015 630.007,358.515 627.5,361C 628.167,361.333 628.833,361.667 629.5,362C 626.956,366.235 623.956,366.568 620.5,363C 622.085,362.915 623.418,362.749 624.5,362.5C 622.328,361.795 620.328,360.795 618.5,359.5C 617.284,360.002 616.117,360.335 615,360.5C 614.355,359.354 613.522,358.354 612.5,357.5C 610.031,356.964 607.864,355.964 606,354.5C 604.816,356.654 603.65,356.32 602.5,353.5C 603.912,352.194 605.579,351.36 607.5,351C 605.765,350.349 604.098,350.515 602.5,351.5C 601.859,353.296 600.859,354.796 599.5,356C 601,356.833 602.167,358 603,359.5C 604.84,358.167 605.34,358.334 604.5,360C 602.473,360.498 600.473,360.331 598.5,359.5C 596.813,359.76 595.313,360.427 594,361.5C 593.586,361.043 593.086,360.709 592.5,360.5C 590.484,364.376 589.651,364.376 590,360.5C 588.333,359.5 587,358.167 586,356.5C 580.642,363.449 578.975,362.783 581,354.5C 581.333,355.5 581.667,356.5 582,357.5C 582.9,356.23 584.066,355.23 585.5,354.5C 584.289,353.28 584.289,352.113 585.5,351C 583.575,351.135 581.575,351.302 579.5,351.5C 579.662,353.527 579.495,355.527 579,357.5C 578.944,354.22 578.111,351.22 576.5,348.5C 577.776,347.355 579.109,347.355 580.5,348.5C 581.167,347.5 581.833,346.5 582.5,345.5C 583.396,346.506 584.062,346.506 584.5,345.5C 583.271,344.719 581.938,344.219 580.5,344C 581.34,342.334 580.84,342.167 579,343.5C 578.667,342.833 578.333,342.167 578,341.5C 577.581,342.672 576.915,343.672 576,344.5C 575.107,343.289 574.274,343.289 573.5,344.5C 574.167,345.167 574.833,345.833 575.5,346.5C 574.385,347.598 574.385,348.765 575.5,350C 574.924,351.714 573.757,352.881 572,353.5C 571.544,352.256 572.044,351.423 573.5,351C 572.167,350 570.833,349 569.5,348C 572.15,344.793 571.984,344.293 569,346.5C 569.668,341.986 567.502,339.653 562.5,339.5C 560.52,340.484 558.853,341.817 557.5,343.5C 556.904,342.284 556.737,340.951 557,339.5C 555.625,337.023 553.791,336.189 551.5,337C 552.252,336.329 552.586,335.496 552.5,334.5C 609.16,302.416 670.16,286.083 735.5,285.5 Z"/></g>
<g><path style="opacity:1" fill="#29323b" d="M 383.5,298.5 C 425.244,309.057 463.244,327.057 497.5,352.5C 496.778,352.918 496.278,353.584 496,354.5C 495.581,353.328 494.915,352.328 494,351.5C 493.399,355.538 491.232,358.371 487.5,360C 489.891,361.309 489.891,362.309 487.5,363C 488.428,363.388 489.095,364.055 489.5,365C 488.303,366.52 486.803,367.687 485,368.5C 484.667,368.167 484.333,367.833 484,367.5C 482.846,369.957 481.512,369.957 480,367.5C 479.833,368 479.667,368.5 479.5,369C 480.509,370.168 481.509,371.335 482.5,372.5C 481.435,374.853 481.602,377.186 483,379.5C 483.667,380.833 484.333,380.833 485,379.5C 485.283,376.258 486.117,375.924 487.5,378.5C 486.385,379.598 486.385,380.765 487.5,382C 487.241,383.261 486.574,384.261 485.5,385C 483.485,385.424 481.651,386.258 480,387.5C 477.203,386.247 474.37,385.08 471.5,384C 475.251,383.239 475.417,382.072 472,380.5C 471.333,381.833 470.667,381.833 470,380.5C 469.667,381.167 469.333,381.833 469,382.5C 468.072,379.965 466.238,378.965 463.5,379.5C 463.387,376.951 464.054,374.618 465.5,372.5C 465.291,371.914 464.957,371.414 464.5,371C 466.163,370.735 467.663,371.235 469,372.5C 469.163,370.613 468.329,369.113 466.5,368C 468.067,364.108 467.733,360.442 465.5,357C 468.167,356.333 468.167,355.667 465.5,355C 466.668,353.129 466.168,351.629 464,350.5C 462.266,351.249 460.433,351.749 458.5,352C 457.692,352.308 457.025,352.808 456.5,353.5C 457.59,354.609 457.59,355.609 456.5,356.5C 455.393,355.978 454.226,355.645 453,355.5C 450.832,356.502 448.665,357.502 446.5,358.5C 445.667,356.5 444.833,354.5 444,352.5C 443.586,352.957 443.086,353.291 442.5,353.5C 439.962,351.141 440.629,349.641 444.5,349C 439.743,346.141 438.41,341.975 440.5,336.5C 441.167,337.5 441.833,338.5 442.5,339.5C 442.833,338.167 443.167,336.833 443.5,335.5C 442.316,333.954 441.316,332.287 440.5,330.5C 438.775,331.015 437.108,331.682 435.5,332.5C 436.687,333.519 437.687,334.686 438.5,336C 436.336,338.33 433.669,338.997 430.5,338C 431.167,337.667 431.833,337.333 432.5,337C 431.853,335.391 431.02,333.891 430,332.5C 426.047,333.959 422.547,333.126 419.5,330C 423.223,329.967 426.89,328.801 430.5,326.5C 431.167,326.833 431.833,327.167 432.5,327.5C 432.911,326.738 433.077,325.738 433,324.5C 433.718,325.451 434.551,325.617 435.5,325C 437.167,324 438.5,322.667 439.5,321C 438.975,320.308 438.308,319.808 437.5,319.5C 435.865,320.33 434.198,320.497 432.5,320C 431.751,321.734 431.251,323.567 431,325.5C 428.667,324.167 426.333,322.833 424,321.5C 422.39,321.13 420.89,321.797 419.5,323.5C 418.5,322.833 417.5,322.167 416.5,321.5C 415.833,322.5 415.167,323.5 414.5,324.5C 412.275,321.07 409.775,318.404 407,316.5C 405.103,316.896 403.603,317.896 402.5,319.5C 400.259,318.968 398.759,317.635 398,315.5C 397.781,316.938 397.281,318.271 396.5,319.5C 396.36,318.431 396.36,317.264 396.5,316C 395.624,314.415 394.291,313.415 392.5,313C 392.833,312.667 393.167,312.333 393.5,312C 392.234,311.691 391.067,311.191 390,310.5C 389.667,310.833 389.333,311.167 389,311.5C 388.683,309.699 388.016,309.366 387,310.5C 384.07,307.083 382.903,303.083 383.5,298.5 Z"/></g>
<g><path style="opacity:1" fill="#29323b" d="M 552.5,334.5 C 552.586,335.496 552.252,336.329 551.5,337C 553.791,336.189 555.625,337.023 557,339.5C 556.737,340.951 556.904,342.284 557.5,343.5C 558.853,341.817 560.52,340.484 562.5,339.5C 567.502,339.653 569.668,341.986 569,346.5C 571.984,344.293 572.15,344.793 569.5,348C 570.833,349 572.167,350 573.5,351C 572.044,351.423 571.544,352.256 572,353.5C 573.757,352.881 574.924,351.714 575.5,350C 574.385,348.765 574.385,347.598 575.5,346.5C 574.833,345.833 574.167,345.167 573.5,344.5C 574.274,343.289 575.107,343.289 576,344.5C 576.915,343.672 577.581,342.672 578,341.5C 578.333,342.167 578.667,342.833 579,343.5C 580.84,342.167 581.34,342.334 580.5,344C 581.938,344.219 583.271,344.719 584.5,345.5C 584.062,346.506 583.396,346.506 582.5,345.5C 581.833,346.5 581.167,347.5 580.5,348.5C 579.109,347.355 577.776,347.355 576.5,348.5C 578.111,351.22 578.944,354.22 579,357.5C 579.495,355.527 579.662,353.527 579.5,351.5C 581.575,351.302 583.575,351.135 585.5,351C 584.289,352.113 584.289,353.28 585.5,354.5C 584.066,355.23 582.9,356.23 582,357.5C 581.667,356.5 581.333,355.5 581,354.5C 578.975,362.783 580.642,363.449 586,356.5C 587,358.167 588.333,359.5 590,360.5C 589.651,364.376 590.484,364.376 592.5,360.5C 593.086,360.709 593.586,361.043 594,361.5C 595.313,360.427 596.813,359.76 598.5,359.5C 600.473,360.331 602.473,360.498 604.5,360C 605.34,358.334 604.84,358.167 603,359.5C 602.167,358 601,356.833 599.5,356C 600.859,354.796 601.859,353.296 602.5,351.5C 604.098,350.515 605.765,350.349 607.5,351C 605.579,351.36 603.912,352.194 602.5,353.5C 603.65,356.32 604.816,356.654 606,354.5C 607.864,355.964 610.031,356.964 612.5,357.5C 613.522,358.354 614.355,359.354 615,360.5C 616.117,360.335 617.284,360.002 618.5,359.5C 620.328,360.795 622.328,361.795 624.5,362.5C 623.418,362.749 622.085,362.915 620.5,363C 623.956,366.568 626.956,366.235 629.5,362C 628.833,361.667 628.167,361.333 627.5,361C 630.007,358.515 631.507,359.015 632,362.5C 632.333,362.167 632.667,361.833 633,361.5C 633.308,362.308 633.808,362.975 634.5,363.5C 634.307,362.312 634.807,360.978 636,359.5C 638.038,363.573 639.538,363.24 640.5,358.5C 641.598,359.615 642.765,359.615 644,358.5C 645.654,359.653 647.154,360.987 648.5,362.5C 649.5,361.167 650.5,361.167 651.5,362.5C 652.731,361.349 652.731,360.183 651.5,359C 652.5,358.667 653.5,358.333 654.5,358C 655.149,355.519 656.149,355.186 657.5,357C 657.27,359.286 655.937,361.119 653.5,362.5C 653.694,364.07 653.694,365.57 653.5,367C 654.126,367.75 654.626,368.584 655,369.5C 656.299,369.034 657.799,369.034 659.5,369.5C 625.194,376.437 592.694,388.437 562,405.5C 561.828,427.739 561.328,449.906 560.5,472C 561.094,472.464 561.761,472.631 562.5,472.5C 563.289,472.783 563.956,473.283 564.5,474C 563.853,475.609 563.02,477.109 562,478.5C 560.691,476.109 559.691,476.109 559,478.5C 558.363,476.697 557.197,475.364 555.5,474.5C 556.376,473.749 557.376,473.249 558.5,473C 556.637,471.582 556.137,469.749 557,467.5C 557.333,468.5 557.667,469.5 558,470.5C 558.651,468.765 558.485,467.098 557.5,465.5C 558.95,464.15 559.617,462.484 559.5,460.5C 557.097,460.607 555.264,459.607 554,457.5C 552.161,462.608 551.161,462.608 551,457.5C 550.311,456.643 549.478,455.977 548.5,455.5C 547.204,457.336 546.37,459.336 546,461.5C 545.797,459.063 544.963,456.729 543.5,454.5C 544.872,452.38 544.205,451.38 541.5,451.5C 540.771,455.25 538.771,458.25 535.5,460.5C 534.808,459.975 534.308,459.308 534,458.5C 532.883,459.949 532.216,461.616 532,463.5C 531.626,462.584 531.126,461.75 530.5,461C 531.167,459 531.833,457 532.5,455C 528.484,454.674 527.151,456.34 528.5,460C 526.699,460.317 526.366,460.984 527.5,462C 524.649,466.282 525.649,468.116 530.5,467.5C 529.5,468.167 528.5,468.833 527.5,469.5C 528.025,470.192 528.692,470.692 529.5,471C 526.836,473.158 525.336,475.991 525,479.5C 524.888,476.553 523.388,475.22 520.5,475.5C 520.5,435.833 520.5,396.167 520.5,356.5C 530.434,348.192 541.101,340.858 552.5,334.5 Z"/></g>
<g><path style="opacity:1" fill="#28323b" d="M 500.5,655.5 C 501.317,657.969 501.817,660.635 502,663.5C 502.5,561.167 502.667,458.834 502.5,356.5C 503.666,461.333 503.833,566.333 503,671.5C 433.339,622.868 355.839,600.534 270.5,604.5C 270.5,501.167 270.5,397.833 270.5,294.5C 271.222,294.082 271.722,293.416 272,292.5C 274.031,295.54 274.531,298.707 273.5,302C 275.957,303.562 278.624,304.562 281.5,305C 279.744,305.202 278.078,305.702 276.5,306.5C 277.025,307.192 277.692,307.692 278.5,308C 278.167,308.333 277.833,308.667 277.5,309C 278.784,309.684 279.951,309.517 281,308.5C 281.743,310.441 281.576,312.274 280.5,314C 281.167,314.667 281.833,314.667 282.5,314C 283.071,312.795 283.738,311.628 284.5,310.5C 284.402,311.616 284.902,312.616 286,313.5C 288.541,312.336 291.041,312.503 293.5,314C 293.167,314.333 292.833,314.667 292.5,315C 293.851,316.617 295.518,317.784 297.5,318.5C 296.846,320.115 296.346,321.782 296,323.5C 295.667,322.833 295.333,322.167 295,321.5C 293.59,322.787 292.09,323.954 290.5,325C 292.127,324.57 293.627,324.404 295,324.5C 295.658,326.108 295.158,327.275 293.5,328C 295.107,329.049 295.773,330.549 295.5,332.5C 293.033,333.036 290.7,333.536 288.5,334C 291.656,335.985 292.323,338.151 290.5,340.5C 288.528,339.695 287.028,338.361 286,336.5C 285.175,338.701 285.675,340.534 287.5,342C 284.67,344.644 285.004,345.478 288.5,344.5C 289.173,346.689 290.173,348.689 291.5,350.5C 289.401,352.182 288.068,353.848 287.5,355.5C 286.667,354.5 285.833,353.5 285,352.5C 284.333,355.167 283.667,355.167 283,352.5C 282.135,354.225 281.469,355.892 281,357.5C 280.667,356.833 280.333,356.167 280,355.5C 279.971,358.367 279.138,360.867 277.5,363C 278.167,364.333 278.833,365.667 279.5,367C 279.353,368.974 279.019,370.974 278.5,373C 280.001,374.252 281.668,375.252 283.5,376C 282.483,377.049 282.316,378.216 283,379.5C 284.494,378.253 285.994,378.253 287.5,379.5C 286.998,380.716 286.665,381.883 286.5,383C 287.76,384.113 288.927,384.28 290,383.5C 291.167,385.167 292.333,386.833 293.5,388.5C 295.274,389.187 296.941,390.02 298.5,391C 295.966,393.747 295.966,396.413 298.5,399C 297.789,400.255 296.956,401.421 296,402.5C 295.586,402.043 295.086,401.709 294.5,401.5C 293.5,403.5 292.5,405.5 291.5,407.5C 292.651,409.325 293.318,411.325 293.5,413.5C 295.346,413.222 296.68,413.889 297.5,415.5C 296.418,415.749 295.085,415.915 293.5,416C 294.469,417.758 295.636,418.258 297,417.5C 297.667,418.5 297.667,419.5 297,420.5C 295.333,420.167 293.667,419.833 292,419.5C 290.933,420.191 289.766,420.691 288.5,421C 289.667,421.5 290.5,422.333 291,423.5C 291.423,422.044 292.256,421.544 293.5,422C 293.167,422.333 292.833,422.667 292.5,423C 294.061,423.318 295.228,424.151 296,425.5C 298.432,424.55 300.932,424.55 303.5,425.5C 303.785,427.288 303.452,428.955 302.5,430.5C 301.549,429.674 300.549,429.508 299.5,430C 300.833,431 300.833,432 299.5,433C 301.982,433.677 303.815,432.844 305,430.5C 305.309,431.766 305.809,432.933 306.5,434C 304.053,435.229 303.887,436.729 306,438.5C 307.057,436.781 307.89,434.947 308.5,433C 307.833,432.667 307.167,432.333 306.5,432C 307.887,429.955 309.054,427.788 310,425.5C 310.627,427.534 311.46,429.867 312.5,432.5C 314.061,431.653 315.561,431.986 317,433.5C 317.251,435.433 317.751,437.266 318.5,439C 324.171,438.524 329.671,438.357 335,438.5C 335.374,439.416 335.874,440.25 336.5,441C 338.027,442.368 339.527,442.868 341,442.5C 341.667,444.167 341.667,445.833 341,447.5C 340.667,447.167 340.333,446.833 340,446.5C 338.396,447.068 337.73,448.068 338,449.5C 339.333,448.167 340.667,448.167 342,449.5C 342.674,448.422 343.674,447.755 345,447.5C 346.999,448.854 348.832,448.687 350.5,447C 349.949,445.602 349.616,444.268 349.5,443C 352.729,440.558 355.729,437.892 358.5,435C 359.759,434.018 361.092,433.685 362.5,434C 363.634,435.016 363.301,435.683 361.5,436C 363.022,438.848 365.022,439.181 367.5,437C 366.328,436.581 365.328,435.915 364.5,435C 365.833,434.333 365.833,433.667 364.5,433C 366.664,432.086 368.664,430.919 370.5,429.5C 370.833,430.167 371.167,430.833 371.5,431.5C 373.701,429.944 373.701,428.777 371.5,428C 373.061,427.682 374.228,426.849 375,425.5C 375.333,425.833 375.667,426.167 376,426.5C 377.852,424.77 377.686,423.604 375.5,423C 382.15,420.284 384.983,415.451 384,408.5C 384.333,408.167 384.667,407.833 385,407.5C 385.308,408.308 385.808,408.975 386.5,409.5C 387.197,407.615 388.197,407.282 389.5,408.5C 391.824,408.123 392.491,407.123 391.5,405.5C 392.167,405.167 392.833,404.833 393.5,404.5C 390.921,402.562 390.921,400.729 393.5,399C 392.5,398.667 391.5,398.333 390.5,398C 391.059,397.275 391.392,396.442 391.5,395.5C 391.824,393.431 392.658,393.098 394,394.5C 395.307,393.228 396.807,392.228 398.5,391.5C 397.738,391.089 396.738,390.923 395.5,391C 396.46,389.581 397.293,388.081 398,386.5C 398.333,387.167 398.667,387.833 399,388.5C 400,386.833 401,385.167 402,383.5C 403.927,383.761 405.927,383.761 408,383.5C 409.285,383.95 410.452,384.617 411.5,385.5C 414.003,384.241 416.503,382.908 419,381.5C 419.772,381.645 420.439,381.978 421,382.5C 423.096,381.285 422.929,380.451 420.5,380C 421.833,379.667 423.167,379.333 424.5,379C 423.72,377.927 423.887,376.76 425,375.5C 426.352,377.432 428.185,378.766 430.5,379.5C 431.711,378.726 431.711,377.893 430.5,377C 431.759,376.018 433.092,375.685 434.5,376C 432.789,377.133 432.289,378.633 433,380.5C 434.755,379.33 435.755,377.663 436,375.5C 436.273,377.101 436.773,378.601 437.5,380C 437,380.5 436.5,381 436,381.5C 434.417,381.507 432.751,381.174 431,380.5C 429.299,382.024 429.799,383.024 432.5,383.5C 434.599,382.727 436.932,382.727 439.5,383.5C 441.814,382.877 441.481,382.544 438.5,382.5C 438.231,380.571 438.731,378.905 440,377.5C 440.492,378.549 440.326,379.549 439.5,380.5C 440.628,381.262 441.795,381.929 443,382.5C 445.149,380.276 444.649,378.776 441.5,378C 444.167,377.333 444.167,376.667 441.5,376C 445.057,376.209 447.557,378.042 449,381.5C 450.688,379.955 452.688,378.955 455,378.5C 455.333,378.833 455.667,379.167 456,379.5C 456.333,378.5 456.667,377.5 457,376.5C 457.44,378.076 458.273,379.41 459.5,380.5C 458.184,381.807 457.184,383.307 456.5,385C 458.638,386.557 461.472,388.057 465,389.5C 465.333,388.833 465.667,388.167 466,387.5C 467,388.833 468,388.833 469,387.5C 470.669,389.169 471.502,391.169 471.5,393.5C 469.488,392.986 467.488,392.82 465.5,393C 469.035,395.466 471.701,398.133 473.5,401C 470.972,402.316 470.972,403.483 473.5,404.5C 472.833,405.5 472.167,406.5 471.5,407.5C 472.609,409.214 471.942,409.881 469.5,409.5C 469.617,411.484 468.95,413.15 467.5,414.5C 467.881,416.741 468.048,419.074 468,421.5C 470.94,429.009 475.94,434.675 483,438.5C 483.614,440.313 483.281,440.647 482,439.5C 479.371,441.271 479.871,442.938 483.5,444.5C 484.768,443.572 486.101,443.405 487.5,444C 486.382,445.074 485.382,446.24 484.5,447.5C 483.033,447.277 481.533,446.944 480,446.5C 479.833,446.833 479.667,447.167 479.5,447.5C 480.689,448.429 482.022,448.762 483.5,448.5C 483.5,449.5 483.5,450.5 483.5,451.5C 485.527,451.338 487.527,451.505 489.5,452C 486.284,455.56 485.951,459.227 488.5,463C 487.551,463.617 486.718,463.451 486,462.5C 485.202,464.259 485.369,465.926 486.5,467.5C 487.258,466.189 488.258,465.689 489.5,466C 488.167,467 488.167,468 489.5,469C 488.833,469.333 488.167,469.667 487.5,470C 488.624,470.839 489.291,472.006 489.5,473.5C 489.234,475.66 488.234,477.326 486.5,478.5C 486.833,479.167 487.167,479.833 487.5,480.5C 485.039,484.785 482.372,485.118 479.5,481.5C 478.673,483.162 477.507,484.495 476,485.5C 475,485.5 474,485.5 473,485.5C 472.5,486 472,486.5 471.5,487C 472.711,488.113 472.711,489.28 471.5,490.5C 468.312,492.854 465.645,495.688 463.5,499C 461.152,499.787 458.985,499.621 457,498.5C 456.316,499.784 456.483,500.951 457.5,502C 457,502.5 456.5,503 456,503.5C 455.667,502.167 455.333,500.833 455,499.5C 453.899,501.394 452.566,502.061 451,501.5C 450.667,500.833 450.333,500.167 450,499.5C 449.333,501.167 449.333,502.833 450,504.5C 451.849,506.047 453.349,507.881 454.5,510C 454.167,510.333 453.833,510.667 453.5,511C 454.793,511.49 456.127,511.657 457.5,511.5C 457.081,514.325 458.081,516.491 460.5,518C 459.044,518.423 458.544,519.256 459,520.5C 459.333,520.167 459.667,519.833 460,519.5C 462.24,521.028 463.907,523.028 465,525.5C 466.587,524.273 467.921,524.606 469,526.5C 469.333,525.833 469.667,525.167 470,524.5C 472.057,525.685 474.057,526.685 476,527.5C 479.941,526.325 482.941,527.658 485,531.5C 485.333,531.167 485.667,530.833 486,530.5C 486.667,531.833 487.333,533.167 488,534.5C 488.508,532.096 489.675,531.429 491.5,532.5C 488.972,533.816 488.972,534.983 491.5,536C 489.321,536.442 488.655,537.442 489.5,539C 486.942,540.38 486.942,541.88 489.5,543.5C 488.366,545.462 488.366,547.462 489.5,549.5C 488.831,552.028 487.998,552.028 487,549.5C 486.833,550 486.667,550.5 486.5,551C 487.695,552.533 487.695,554.033 486.5,555.5C 487.441,555.489 488.108,555.989 488.5,557C 486.742,559.267 486.242,561.767 487,564.5C 488.06,564.746 489.227,564.746 490.5,564.5C 490.833,565.167 491.167,565.833 491.5,566.5C 490.268,568.683 490.268,570.849 491.5,573C 491.333,573.5 491.167,574 491,574.5C 488.609,573.398 488.109,574.064 489.5,576.5C 487.998,581.466 487.165,581.466 487,576.5C 485.024,577.543 484.524,578.877 485.5,580.5C 483.969,581.613 482.969,583.113 482.5,585C 483.077,587.137 483.41,589.304 483.5,591.5C 482.178,591.67 481.011,591.337 480,590.5C 478.333,592.545 476.5,594.378 474.5,596C 478.831,595.859 479.498,597.192 476.5,600C 478.433,600.783 479.933,600.283 481,598.5C 481.711,600.367 481.211,601.867 479.5,603C 481.781,604.482 481.781,606.149 479.5,608C 480.474,610.287 481.807,612.287 483.5,614C 482.663,615.011 482.33,616.178 482.5,617.5C 483.873,617.343 485.207,617.51 486.5,618C 486.167,618.333 485.833,618.667 485.5,619C 486.938,621.595 488.271,624.262 489.5,627C 488.692,627.308 488.025,627.808 487.5,628.5C 488.646,629.719 489.646,631.052 490.5,632.5C 491.396,631.494 492.062,631.494 492.5,632.5C 491.91,633.799 490.91,634.632 489.5,635C 491.478,635.481 492.811,636.647 493.5,638.5C 492.27,640.486 490.936,642.486 489.5,644.5C 490.167,645.167 490.833,645.833 491.5,646.5C 488.956,647.937 488.956,649.437 491.5,651C 490.313,652.019 489.313,653.186 488.5,654.5C 488.846,655.696 489.346,655.696 490,654.5C 490.651,656.235 490.485,657.902 489.5,659.5C 491.008,661.507 492.842,663.174 495,664.5C 496.716,660.946 498.55,657.946 500.5,655.5 Z"/></g>
<g><path style="opacity:1" fill="#242e34" d="M 217.5,663.5 C 216.501,564.335 216.167,465.001 216.5,365.5C 215.325,365.719 214.325,365.386 213.5,364.5C 214.103,363.365 214.436,362.365 214.5,361.5C 215.192,362.025 215.692,362.692 216,363.5C 216.497,361.19 216.663,358.857 216.5,356.5C 214.585,356.784 212.919,356.451 211.5,355.5C 213.435,354.85 215.435,354.517 217.5,354.5C 217.5,457.5 217.5,560.5 217.5,663.5 Z"/></g>
<g><path style="opacity:1" fill="#29323b" d="M 826.5,703.5 C 826.26,700.421 826.593,697.421 827.5,694.5C 825.862,693.042 824.195,692.708 822.5,693.5C 822.167,693.167 821.833,692.833 821.5,692.5C 822.5,691.833 823.5,691.167 824.5,690.5C 822.833,689.833 821.167,689.167 819.5,688.5C 820.902,687.158 820.569,686.324 818.5,686C 821.264,684.439 821.931,682.273 820.5,679.5C 819.738,680.628 819.071,681.795 818.5,683C 816.793,683.195 815.126,683.195 813.5,683C 814.749,689.853 812.749,690.686 807.5,685.5C 808.934,684.77 810.1,683.77 811,682.5C 810.773,680.426 810.939,678.426 811.5,676.5C 810.336,676.165 809.003,676.165 807.5,676.5C 806.334,665.515 806.168,654.515 807,643.5C 808.566,644.061 809.899,643.394 811,641.5C 811.317,643.301 811.984,643.634 813,642.5C 813.54,644.135 813.04,645.468 811.5,646.5C 812.262,646.911 813.262,647.077 814.5,647C 812.2,648.113 811.867,649.613 813.5,651.5C 811.836,653.981 811.336,656.647 812,659.5C 812.324,657.431 813.158,657.098 814.5,658.5C 815.76,656.647 815.76,654.814 814.5,653C 815.88,651.676 816.214,650.343 815.5,649C 816,648.5 816.5,648 817,647.5C 817.219,648.938 817.719,650.271 818.5,651.5C 821.028,650.502 821.028,649.669 818.5,649C 819.641,648.259 819.641,647.425 818.5,646.5C 819.098,645.205 819.598,643.872 820,642.5C 821.303,641.888 822.47,641.554 823.5,641.5C 820.285,640.552 819.952,639.219 822.5,637.5C 822.291,636.914 821.957,636.414 821.5,636C 823.019,634.782 824.186,633.282 825,631.5C 825.906,634.121 826.406,633.954 826.5,631C 826.32,628.759 825.487,628.259 824,629.5C 823.598,628.128 823.098,626.795 822.5,625.5C 823.002,624.284 823.335,623.117 823.5,622C 819.625,620.653 819.625,619.486 823.5,618.5C 822.833,618.167 822.167,617.833 821.5,617.5C 823.713,614.308 823.88,611.308 822,608.5C 821.085,609.328 820.419,610.328 820,611.5C 819.272,608.77 819.438,606.103 820.5,603.5C 819.926,601.941 819.26,600.441 818.5,599C 821.028,598.331 821.028,597.498 818.5,596.5C 816.897,599.138 816.397,601.805 817,604.5C 814.119,600.436 812.786,601.103 813,606.5C 812,605.167 811,605.167 810,606.5C 807.887,604.729 808.053,603.229 810.5,602C 809.833,601.333 809.167,600.667 808.5,600C 809.767,598.204 809.767,596.371 808.5,594.5C 809.167,594.167 809.833,593.833 810.5,593.5C 810.167,592.5 809.5,591.833 808.5,591.5C 807.676,594.785 807.176,598.118 807,601.5C 806.333,594.833 806.333,588.167 807,581.5C 808.333,578.833 809.667,578.833 811,581.5C 811.5,581 812,580.5 812.5,580C 811.833,578 811.167,576 810.5,574C 812.513,573.125 812.513,571.791 810.5,570C 811.047,569.075 811.713,568.242 812.5,567.5C 813.281,576.037 813.281,584.204 812.5,592C 815.14,595.05 817.474,595.05 819.5,592C 819.167,591.5 818.833,591 818.5,590.5C 817.232,591.428 815.899,591.595 814.5,591C 814.5,587.667 814.5,584.333 814.5,581C 815.167,579.667 815.833,578.333 816.5,577C 813.491,574.061 813.824,571.728 817.5,570C 815.405,569.444 815.238,568.944 817,568.5C 817.945,568.905 818.612,569.572 819,570.5C 820.333,569.167 821.667,569.167 823,570.5C 823.094,561.588 823.428,552.588 824,543.5C 824.654,544.696 825.154,544.696 825.5,543.5C 824.359,542.575 824.359,541.741 825.5,541C 824,540.167 822.833,539 822,537.5C 821.581,538.672 820.915,539.672 820,540.5C 819.383,539.551 819.549,538.718 820.5,538C 819.5,537.333 818.5,537.333 817.5,538C 818.258,539.364 817.758,540.531 816,541.5C 815.781,540.062 815.281,538.729 814.5,537.5C 812.519,538.105 812.185,539.105 813.5,540.5C 813.192,541.308 812.692,541.975 812,542.5C 811.824,539.118 811.324,535.785 810.5,532.5C 808.675,531.429 807.508,532.096 807,534.5C 806.333,526.833 806.333,519.167 807,511.5C 808.745,509.911 809.912,507.911 810.5,505.5C 812.042,504.253 813.542,504.253 815,505.5C 815.311,504.258 814.811,503.258 813.5,502.5C 814.953,500.279 816.119,497.946 817,495.5C 817.308,496.308 817.808,496.975 818.5,497.5C 820.664,497.002 822.331,495.836 823.5,494C 823.455,491.364 823.288,488.53 823,485.5C 821.865,485.273 820.698,484.94 819.5,484.5C 820.833,483.5 820.833,482.5 819.5,481.5C 820.651,480.269 821.817,480.269 823,481.5C 824.852,479.77 824.686,478.604 822.5,478C 823.167,477.667 823.833,477.333 824.5,477C 824.992,472.93 824.326,468.93 822.5,465C 823.885,463.035 823.718,461.202 822,459.5C 821.781,460.938 821.281,462.271 820.5,463.5C 819.289,462.726 819.289,461.893 820.5,461C 819.833,460.667 819.167,460.333 818.5,460C 819.167,458.667 819.833,457.333 820.5,456C 819.788,454.575 819.621,453.075 820,451.5C 817.749,454.017 816.916,457.017 817.5,460.5C 814.538,460.117 813.538,461.117 814.5,463.5C 815.192,462.975 815.692,462.308 816,461.5C 817.02,462.891 817.853,464.391 818.5,466C 816.494,468.048 815.494,467.548 815.5,464.5C 814.325,464.281 813.325,464.614 812.5,465.5C 814.205,468.199 816.205,470.699 818.5,473C 817.167,474.333 815.833,475.667 814.5,477C 813.101,477.595 811.768,477.428 810.5,476.5C 809.749,477.376 809.249,478.376 809,479.5C 808.586,479.043 808.086,478.709 807.5,478.5C 806.833,471.011 806.167,463.678 805.5,456.5C 804.69,423.578 804.523,389.911 805,355.5C 816.46,354.411 824.127,359.411 828,370.5C 828.667,480.5 828.667,590.5 828,700.5C 827.768,701.737 827.268,702.737 826.5,703.5 Z"/></g>
<g><path style="opacity:1" fill="#495056" d="M 735.5,285.5 C 741.31,284.51 747.31,284.177 753.5,284.5C 753.833,391.335 753.499,498.001 752.5,604.5C 752.5,540.833 752.5,477.167 752.5,413.5C 752.5,370.833 752.5,328.167 752.5,285.5C 746.833,285.5 741.167,285.5 735.5,285.5 Z"/></g>
<g><path style="opacity:1" fill="#424a4f" d="M 789.5,331.5 C 789.167,331.5 788.833,331.5 788.5,331.5C 783.167,331.5 777.833,331.5 772.5,331.5C 772.833,430.668 772.499,529.668 771.5,628.5C 771.5,529.167 771.5,429.833 771.5,330.5C 777.69,330.177 783.69,330.51 789.5,331.5 Z"/></g>
<g><path style="opacity:1" fill="#28323b" d="M 752.5,413.5 C 752.5,477.167 752.5,540.833 752.5,604.5C 668.063,600.52 591.063,622.187 521.5,669.5C 520.501,606.002 520.168,542.336 520.5,478.5C 521.327,483.985 521.827,489.652 522,495.5C 522.667,496.833 523.333,498.167 524,499.5C 524.914,498.346 525.747,498.513 526.5,500C 525.133,503.573 524.133,507.24 523.5,511C 525.464,511.44 527.63,512.274 530,513.5C 530.333,513.167 530.667,512.833 531,512.5C 531.309,513.766 531.809,514.933 532.5,516C 531.167,517.333 531.167,518.667 532.5,520C 530.17,521.075 528.837,522.575 528.5,524.5C 529.506,525.396 529.506,526.062 528.5,526.5C 527.833,525.167 527.167,523.833 526.5,522.5C 525.494,522.938 525.494,523.604 526.5,524.5C 523.972,525.517 523.972,526.684 526.5,528C 525.724,529.77 525.89,531.603 527,533.5C 527.483,532.552 527.649,531.552 527.5,530.5C 529.903,530.393 531.736,531.393 533,533.5C 533.853,531.875 534.853,531.542 536,532.5C 538.399,529.88 540.066,526.88 541,523.5C 541.308,524.308 541.808,524.975 542.5,525.5C 543.833,524.833 545.167,524.167 546.5,523.5C 545.984,524.758 546.65,525.758 548.5,526.5C 547.91,527.799 546.91,528.632 545.5,529C 546.624,529.249 547.624,529.749 548.5,530.5C 548.154,531.696 547.654,531.696 547,530.5C 546.517,531.448 546.351,532.448 546.5,533.5C 551.016,534.949 555.683,535.782 560.5,536C 560.167,536.333 559.833,536.667 559.5,537C 561.779,537.473 563.779,538.473 565.5,540C 564.362,541.734 563.862,543.568 564,545.5C 564.667,544.833 565.333,544.167 566,543.5C 566.911,546.633 568.744,547.633 571.5,546.5C 572.281,547.729 572.781,549.062 573,550.5C 575.601,549.274 576.435,549.94 575.5,552.5C 577.274,553.187 578.941,554.02 580.5,555C 577.898,555.935 575.898,557.602 574.5,560C 575.328,560.915 576.328,561.581 577.5,562C 576.786,563.343 577.12,564.676 578.5,566C 577.256,566.456 576.423,565.956 576,564.5C 572.731,567.903 568.898,569.069 564.5,568C 565.167,568.333 565.833,568.667 566.5,569C 564.744,569.202 563.078,569.702 561.5,570.5C 563.166,571.947 564.999,573.281 567,574.5C 567.5,574.333 568,574.167 568.5,574C 567.833,572.667 566.833,571.667 565.5,571C 567.743,571.319 569.91,571.152 572,570.5C 573.487,571.253 573.654,572.086 572.5,573C 573.167,573.333 573.833,573.667 574.5,574C 573.207,574.49 571.873,574.657 570.5,574.5C 569.959,578.295 571.625,580.295 575.5,580.5C 573.584,584.522 574.251,584.522 577.5,580.5C 577.023,579.522 576.357,578.689 575.5,578C 575.594,576.578 575.928,575.078 576.5,573.5C 578.458,576.665 581.124,579.165 584.5,581C 583.167,582.84 583.334,583.34 585,582.5C 586.698,584.274 588.531,585.941 590.5,587.5C 591.696,587.154 591.696,586.654 590.5,586C 594.25,585.379 597.916,584.546 601.5,583.5C 601.413,580.402 601.913,580.068 603,582.5C 604.388,581.446 605.888,581.28 607.5,582C 605.099,582.805 605.266,583.638 608,584.5C 608.893,583.919 609.893,583.585 611,583.5C 614.474,586.002 618.14,588.002 622,589.5C 622.333,589.167 622.667,588.833 623,588.5C 624.273,590.714 625.273,593.047 626,595.5C 627.688,594.675 627.855,593.675 626.5,592.5C 627.274,591.289 628.107,591.289 629,592.5C 630.091,590.282 631.257,588.116 632.5,586C 631.701,584.251 632.368,582.918 634.5,582C 633.376,581.751 632.376,581.251 631.5,580.5C 630.747,578.247 629.414,576.413 627.5,575C 628.5,574.667 629.5,574.333 630.5,574C 627.696,572.364 625.363,570.197 623.5,567.5C 623.919,566.328 624.585,565.328 625.5,564.5C 623.577,563.692 621.577,563.192 619.5,563C 620.308,562.692 620.975,562.192 621.5,561.5C 619.561,559.878 619.228,558.044 620.5,556C 619.833,555.667 619.167,555.333 618.5,555C 621.258,552.991 621.592,550.991 619.5,549C 620.967,547.902 621.801,546.402 622,544.5C 624.8,545.443 627.634,545.276 630.5,544C 633.476,542.141 636.643,540.641 640,539.5C 642.055,539.152 644.055,539.819 646,541.5C 646.308,540.692 646.808,540.025 647.5,539.5C 650.713,540.087 654.046,540.087 657.5,539.5C 657.244,541.792 657.577,543.959 658.5,546C 657.552,546.483 656.552,546.649 655.5,546.5C 655.955,548.367 656.622,550.2 657.5,552C 656.787,555.021 656.787,558.188 657.5,561.5C 655.645,561.272 654.812,561.939 655,563.5C 655.333,563.167 655.667,562.833 656,562.5C 658.333,563.167 660.667,563.833 663,564.5C 663.98,562.741 664.647,561.074 665,559.5C 665.29,561.044 665.956,562.377 667,563.5C 666.884,557.243 668.55,556.577 672,561.5C 672.626,559.009 673.459,559.009 674.5,561.5C 675.635,560.897 676.635,560.564 677.5,560.5C 676.147,559.315 674.98,557.981 674,556.5C 673.586,556.957 673.086,557.291 672.5,557.5C 671.646,556.478 670.646,555.645 669.5,555C 669.833,554.667 670.167,554.333 670.5,554C 669.5,553.667 668.5,553.333 667.5,553C 667.727,551.865 668.06,550.698 668.5,549.5C 669.192,550.025 669.692,550.692 670,551.5C 671.062,549.792 672.229,549.126 673.5,549.5C 672.243,547.321 670.743,545.321 669,543.5C 668.667,543.833 668.333,544.167 668,544.5C 666.89,542.757 665.39,541.424 663.5,540.5C 664.09,539.201 665.09,538.368 666.5,538C 664.97,535.803 663.136,534.97 661,535.5C 659.16,532.145 659.993,529.478 663.5,527.5C 662.174,527.795 660.841,527.295 659.5,526C 662.841,523.528 662.841,521.528 659.5,520C 660.448,519.517 661.448,519.351 662.5,519.5C 661.844,515.186 659.511,512.186 655.5,510.5C 656.025,509.808 656.692,509.308 657.5,509C 656.455,507.384 655.455,505.717 654.5,504C 655.763,502.295 656.097,500.628 655.5,499C 658.376,495.888 659.876,491.721 660,486.5C 661.067,487.191 662.234,487.691 663.5,488C 662.529,489.204 661.529,489.704 660.5,489.5C 660.977,490.478 661.643,491.311 662.5,492C 662.034,493.299 662.034,494.799 662.5,496.5C 667.067,496.726 667.4,495.226 663.5,492C 664.863,490.055 665.697,487.888 666,485.5C 667.185,487.559 668.352,487.726 669.5,486C 669.233,482.968 668.233,480.301 666.5,478C 668.689,477.323 669.022,476.156 667.5,474.5C 669.017,472.815 670.684,471.315 672.5,470C 671.007,468.844 671.174,468.01 673,467.5C 677.254,470.409 678.087,469.743 675.5,465.5C 675.709,464.914 676.043,464.414 676.5,464C 674.231,463.242 672.064,463.409 670,464.5C 668.041,462.474 667.207,460.308 667.5,458C 664.237,457.131 663.904,455.797 666.5,454C 664.507,450.124 662.174,449.457 659.5,452C 660.458,453.147 660.125,454.147 658.5,455C 661.544,455.359 661.878,456.026 659.5,457C 660.167,457.333 660.833,457.667 661.5,458C 658.957,462.22 656.457,462.387 654,458.5C 653.692,459.308 653.192,459.975 652.5,460.5C 650.578,460.134 648.578,459.968 646.5,460C 646.381,458.719 646.881,457.552 648,456.5C 651.505,458.262 654.339,457.429 656.5,454C 654.782,453.654 653.115,453.154 651.5,452.5C 650.167,453.5 648.833,454.5 647.5,455.5C 647.358,453.179 646.358,450.845 644.5,448.5C 642.625,449.836 641.292,449.336 640.5,447C 637.527,446.617 634.694,447.117 632,448.5C 631.667,448.167 631.333,447.833 631,447.5C 630,448.833 629,450.167 628,451.5C 627.751,450.376 627.251,449.376 626.5,448.5C 625.833,450.5 625.167,452.5 624.5,454.5C 622.729,453.965 622.396,453.131 623.5,452C 622.551,451.383 621.718,451.549 621,452.5C 620.51,451.207 620.343,449.873 620.5,448.5C 642.706,441.659 665.372,436.992 688.5,434.5C 689.048,435.688 689.381,436.855 689.5,438C 687.069,438.252 684.735,437.752 682.5,436.5C 680.224,437.213 677.891,437.713 675.5,438C 676.91,438.368 677.91,439.201 678.5,440.5C 678.154,441.696 677.654,441.696 677,440.5C 676.517,441.448 676.351,442.448 676.5,443.5C 678.592,443.439 680.092,442.439 681,440.5C 681.388,442.715 682.388,444.048 684,444.5C 684.561,443.978 685.228,443.645 686,443.5C 687.921,445.003 690.088,445.669 692.5,445.5C 692.651,448.718 693.484,449.051 695,446.5C 696.438,447.9 697.271,449.567 697.5,451.5C 700.365,451.945 702.865,451.278 705,449.5C 705.915,450.328 706.581,451.328 707,452.5C 707.249,451.376 707.749,450.376 708.5,449.5C 708.911,450.262 709.077,451.262 709,452.5C 710.503,452.165 711.836,452.165 713,452.5C 713.617,453.449 713.451,454.282 712.5,455C 714.701,455.825 716.534,455.325 718,453.5C 719.487,455.272 719.82,457.272 719,459.5C 717.493,458.465 715.993,458.632 714.5,460C 716.569,460.324 716.902,461.158 715.5,462.5C 716.167,463.167 716.833,463.833 717.5,464.5C 716.726,465.711 715.893,465.711 715,464.5C 714.13,465.108 713.63,465.941 713.5,467C 714.289,467.546 715.289,468.213 716.5,469C 715.406,470.78 714.406,472.614 713.5,474.5C 712.522,474.023 711.689,473.357 711,472.5C 710.626,473.416 710.126,474.25 709.5,475C 710.938,475.219 712.271,475.719 713.5,476.5C 712.975,477.192 712.308,477.692 711.5,478C 713.492,478.574 714.992,479.741 716,481.5C 717.418,479.637 719.251,479.137 721.5,480C 720.5,481 719.5,482 718.5,483C 723.341,484.501 727.175,487.334 730,491.5C 730.893,490.289 731.726,490.289 732.5,491.5C 731.009,492.244 729.509,492.91 728,493.5C 727.42,496.547 727.753,496.881 729,494.5C 729.582,497.668 730.582,498.001 732,495.5C 734.071,498.416 735.405,498.082 736,494.5C 737.043,496.701 737.877,499.034 738.5,501.5C 739.393,497.007 741.559,493.34 745,490.5C 745.456,491.744 744.956,492.577 743.5,493C 743.579,495.305 743.746,497.805 744,500.5C 745.011,499.663 746.178,499.33 747.5,499.5C 747.714,497.856 747.38,496.356 746.5,495C 749.135,493.067 748.802,491.067 745.5,489C 749.816,488.739 750.983,486.905 749,483.5C 747.535,484.369 746.369,483.869 745.5,482C 745.944,480.238 746.444,480.405 747,482.5C 747.29,480.956 747.956,479.623 749,478.5C 749.333,478.833 749.667,479.167 750,479.5C 751.434,475.594 751.767,471.594 751,467.5C 748.232,466.792 747.399,465.292 748.5,463C 747.167,462.667 745.833,462.333 744.5,462C 745.696,461.346 745.696,460.846 744.5,460.5C 743.808,461.025 743.308,461.692 743,462.5C 741.204,461.233 739.371,461.233 737.5,462.5C 736.5,462.167 735.833,461.5 735.5,460.5C 736.641,459.575 736.641,458.741 735.5,458C 730.61,459.547 728.277,457.713 728.5,452.5C 725.5,451.167 722.5,451.167 719.5,452.5C 718.343,449.652 718.676,447.152 720.5,445C 719.671,443.184 718.837,441.351 718,439.5C 717.781,440.938 717.281,442.271 716.5,443.5C 716.167,443.333 715.833,443.167 715.5,443C 715.727,440.871 715.394,439.038 714.5,437.5C 713.571,438.689 713.238,440.022 713.5,441.5C 710.269,442.368 706.935,442.368 703.5,441.5C 703.5,440.167 703.5,438.833 703.5,437.5C 701.5,437.5 699.5,437.5 697.5,437.5C 697.5,436.5 697.5,435.5 697.5,434.5C 695.833,434.5 694.167,434.5 692.5,434.5C 698.959,433.187 705.626,432.521 712.5,432.5C 712.5,430.5 712.5,428.5 712.5,426.5C 713.434,425.432 713.768,424.099 713.5,422.5C 714.552,422.649 715.552,422.483 716.5,422C 715.724,420.23 715.89,418.397 717,416.5C 717.667,418.5 718.333,420.5 719,422.5C 720.509,423.09 722.009,423.756 723.5,424.5C 724.103,425.635 724.436,426.635 724.5,427.5C 726.585,426.459 728.252,424.959 729.5,423C 730.549,422.508 731.549,422.674 732.5,423.5C 733.517,420.972 734.684,420.972 736,423.5C 737.977,423.342 740.143,423.175 742.5,423C 741.289,423.893 741.289,424.726 742.5,425.5C 743.298,423.922 743.798,422.256 744,420.5C 745.147,422.731 746.147,425.065 747,427.5C 746.707,421.993 748.04,416.993 751,412.5C 751.383,413.056 751.883,413.389 752.5,413.5 Z"/></g>
<g><path style="opacity:1" fill="#27303a" d="M 688.5,434.5 C 689.833,434.5 691.167,434.5 692.5,434.5C 694.167,434.5 695.833,434.5 697.5,434.5C 697.5,435.5 697.5,436.5 697.5,437.5C 699.5,437.5 701.5,437.5 703.5,437.5C 703.5,438.833 703.5,440.167 703.5,441.5C 706.935,442.368 710.269,442.368 713.5,441.5C 713.238,440.022 713.571,438.689 714.5,437.5C 715.394,439.038 715.727,440.871 715.5,443C 715.833,443.167 716.167,443.333 716.5,443.5C 717.281,442.271 717.781,440.938 718,439.5C 718.837,441.351 719.671,443.184 720.5,445C 718.676,447.152 718.343,449.652 719.5,452.5C 722.5,451.167 725.5,451.167 728.5,452.5C 728.277,457.713 730.61,459.547 735.5,458C 736.641,458.741 736.641,459.575 735.5,460.5C 735.833,461.5 736.5,462.167 737.5,462.5C 739.371,461.233 741.204,461.233 743,462.5C 743.308,461.692 743.808,461.025 744.5,460.5C 745.696,460.846 745.696,461.346 744.5,462C 745.833,462.333 747.167,462.667 748.5,463C 747.399,465.292 748.232,466.792 751,467.5C 751.767,471.594 751.434,475.594 750,479.5C 749.667,479.167 749.333,478.833 749,478.5C 747.956,479.623 747.29,480.956 747,482.5C 746.444,480.405 745.944,480.238 745.5,482C 746.369,483.869 747.535,484.369 749,483.5C 750.983,486.905 749.816,488.739 745.5,489C 748.802,491.067 749.135,493.067 746.5,495C 747.38,496.356 747.714,497.856 747.5,499.5C 746.178,499.33 745.011,499.663 744,500.5C 743.746,497.805 743.579,495.305 743.5,493C 744.956,492.577 745.456,491.744 745,490.5C 741.559,493.34 739.393,497.007 738.5,501.5C 737.877,499.034 737.043,496.701 736,494.5C 735.405,498.082 734.071,498.416 732,495.5C 730.582,498.001 729.582,497.668 729,494.5C 727.753,496.881 727.42,496.547 728,493.5C 729.509,492.91 731.009,492.244 732.5,491.5C 731.726,490.289 730.893,490.289 730,491.5C 727.175,487.334 723.341,484.501 718.5,483C 719.5,482 720.5,481 721.5,480C 719.251,479.137 717.418,479.637 716,481.5C 714.992,479.741 713.492,478.574 711.5,478C 712.308,477.692 712.975,477.192 713.5,476.5C 712.271,475.719 710.938,475.219 709.5,475C 710.126,474.25 710.626,473.416 711,472.5C 711.689,473.357 712.522,474.023 713.5,474.5C 714.406,472.614 715.406,470.78 716.5,469C 715.289,468.213 714.289,467.546 713.5,467C 713.63,465.941 714.13,465.108 715,464.5C 715.893,465.711 716.726,465.711 717.5,464.5C 716.833,463.833 716.167,463.167 715.5,462.5C 716.902,461.158 716.569,460.324 714.5,460C 715.993,458.632 717.493,458.465 719,459.5C 719.82,457.272 719.487,455.272 718,453.5C 716.534,455.325 714.701,455.825 712.5,455C 713.451,454.282 713.617,453.449 713,452.5C 711.836,452.165 710.503,452.165 709,452.5C 709.077,451.262 708.911,450.262 708.5,449.5C 707.749,450.376 707.249,451.376 707,452.5C 706.581,451.328 705.915,450.328 705,449.5C 702.865,451.278 700.365,451.945 697.5,451.5C 697.271,449.567 696.438,447.9 695,446.5C 693.484,449.051 692.651,448.718 692.5,445.5C 690.088,445.669 687.921,445.003 686,443.5C 685.228,443.645 684.561,443.978 684,444.5C 682.388,444.048 681.388,442.715 681,440.5C 680.092,442.439 678.592,443.439 676.5,443.5C 676.351,442.448 676.517,441.448 677,440.5C 677.654,441.696 678.154,441.696 678.5,440.5C 677.91,439.201 676.91,438.368 675.5,438C 677.891,437.713 680.224,437.213 682.5,436.5C 684.735,437.752 687.069,438.252 689.5,438C 689.381,436.855 689.048,435.688 688.5,434.5 Z"/></g>
<g><path style="opacity:1" fill="#28303a" d="M 520.5,478.5 C 520.5,477.5 520.5,476.5 520.5,475.5C 523.388,475.22 524.888,476.553 525,479.5C 525.336,475.991 526.836,473.158 529.5,471C 528.692,470.692 528.025,470.192 527.5,469.5C 528.5,468.833 529.5,468.167 530.5,467.5C 525.649,468.116 524.649,466.282 527.5,462C 526.366,460.984 526.699,460.317 528.5,460C 527.151,456.34 528.484,454.674 532.5,455C 531.833,457 531.167,459 530.5,461C 531.126,461.75 531.626,462.584 532,463.5C 532.216,461.616 532.883,459.949 534,458.5C 534.308,459.308 534.808,459.975 535.5,460.5C 538.771,458.25 540.771,455.25 541.5,451.5C 544.205,451.38 544.872,452.38 543.5,454.5C 544.963,456.729 545.797,459.063 546,461.5C 546.37,459.336 547.204,457.336 548.5,455.5C 549.478,455.977 550.311,456.643 551,457.5C 551.161,462.608 552.161,462.608 554,457.5C 555.264,459.607 557.097,460.607 559.5,460.5C 559.617,462.484 558.95,464.15 557.5,465.5C 558.485,467.098 558.651,468.765 558,470.5C 557.667,469.5 557.333,468.5 557,467.5C 556.137,469.749 556.637,471.582 558.5,473C 557.376,473.249 556.376,473.749 555.5,474.5C 557.197,475.364 558.363,476.697 559,478.5C 559.691,476.109 560.691,476.109 562,478.5C 563.02,477.109 563.853,475.609 564.5,474C 563.956,473.283 563.289,472.783 562.5,472.5C 581.079,462.883 600.413,454.883 620.5,448.5C 620.343,449.873 620.51,451.207 621,452.5C 621.718,451.549 622.551,451.383 623.5,452C 622.396,453.131 622.729,453.965 624.5,454.5C 625.167,452.5 625.833,450.5 626.5,448.5C 627.251,449.376 627.751,450.376 628,451.5C 629,450.167 630,448.833 631,447.5C 631.333,447.833 631.667,448.167 632,448.5C 634.694,447.117 637.527,446.617 640.5,447C 641.292,449.336 642.625,449.836 644.5,448.5C 646.358,450.845 647.358,453.179 647.5,455.5C 648.833,454.5 650.167,453.5 651.5,452.5C 653.115,453.154 654.782,453.654 656.5,454C 654.339,457.429 651.505,458.262 648,456.5C 646.881,457.552 646.381,458.719 646.5,460C 648.578,459.968 650.578,460.134 652.5,460.5C 653.192,459.975 653.692,459.308 654,458.5C 656.457,462.387 658.957,462.22 661.5,458C 660.833,457.667 660.167,457.333 659.5,457C 661.878,456.026 661.544,455.359 658.5,455C 660.125,454.147 660.458,453.147 659.5,452C 662.174,449.457 664.507,450.124 666.5,454C 663.904,455.797 664.237,457.131 667.5,458C 667.207,460.308 668.041,462.474 670,464.5C 672.064,463.409 674.231,463.242 676.5,464C 676.043,464.414 675.709,464.914 675.5,465.5C 678.087,469.743 677.254,470.409 673,467.5C 671.174,468.01 671.007,468.844 672.5,470C 670.684,471.315 669.017,472.815 667.5,474.5C 669.022,476.156 668.689,477.323 666.5,478C 668.233,480.301 669.233,482.968 669.5,486C 668.352,487.726 667.185,487.559 666,485.5C 665.697,487.888 664.863,490.055 663.5,492C 667.4,495.226 667.067,496.726 662.5,496.5C 662.034,494.799 662.034,493.299 662.5,492C 661.643,491.311 660.977,490.478 660.5,489.5C 661.529,489.704 662.529,489.204 663.5,488C 662.234,487.691 661.067,487.191 660,486.5C 659.876,491.721 658.376,495.888 655.5,499C 656.097,500.628 655.763,502.295 654.5,504C 655.455,505.717 656.455,507.384 657.5,509C 656.692,509.308 656.025,509.808 655.5,510.5C 659.511,512.186 661.844,515.186 662.5,519.5C 661.448,519.351 660.448,519.517 659.5,520C 662.841,521.528 662.841,523.528 659.5,526C 660.841,527.295 662.174,527.795 663.5,527.5C 659.993,529.478 659.16,532.145 661,535.5C 663.136,534.97 664.97,535.803 666.5,538C 665.09,538.368 664.09,539.201 663.5,540.5C 665.39,541.424 666.89,542.757 668,544.5C 668.333,544.167 668.667,543.833 669,543.5C 670.743,545.321 672.243,547.321 673.5,549.5C 672.229,549.126 671.062,549.792 670,551.5C 669.692,550.692 669.192,550.025 668.5,549.5C 668.06,550.698 667.727,551.865 667.5,553C 668.5,553.333 669.5,553.667 670.5,554C 670.167,554.333 669.833,554.667 669.5,555C 670.646,555.645 671.646,556.478 672.5,557.5C 673.086,557.291 673.586,556.957 674,556.5C 674.98,557.981 676.147,559.315 677.5,560.5C 676.635,560.564 675.635,560.897 674.5,561.5C 673.459,559.009 672.626,559.009 672,561.5C 668.55,556.577 666.884,557.243 667,563.5C 665.956,562.377 665.29,561.044 665,559.5C 664.647,561.074 663.98,562.741 663,564.5C 660.667,563.833 658.333,563.167 656,562.5C 655.667,562.833 655.333,563.167 655,563.5C 654.812,561.939 655.645,561.272 657.5,561.5C 656.787,558.188 656.787,555.021 657.5,552C 656.622,550.2 655.955,548.367 655.5,546.5C 656.552,546.649 657.552,546.483 658.5,546C 657.577,543.959 657.244,541.792 657.5,539.5C 654.046,540.087 650.713,540.087 647.5,539.5C 646.808,540.025 646.308,540.692 646,541.5C 644.055,539.819 642.055,539.152 640,539.5C 636.643,540.641 633.476,542.141 630.5,544C 627.634,545.276 624.8,545.443 622,544.5C 621.801,546.402 620.967,547.902 619.5,549C 621.592,550.991 621.258,552.991 618.5,555C 619.167,555.333 619.833,555.667 620.5,556C 619.228,558.044 619.561,559.878 621.5,561.5C 620.975,562.192 620.308,562.692 619.5,563C 621.577,563.192 623.577,563.692 625.5,564.5C 624.585,565.328 623.919,566.328 623.5,567.5C 625.363,570.197 627.696,572.364 630.5,574C 629.5,574.333 628.5,574.667 627.5,575C 629.414,576.413 630.747,578.247 631.5,580.5C 632.376,581.251 633.376,581.751 634.5,582C 632.368,582.918 631.701,584.251 632.5,586C 631.257,588.116 630.091,590.282 629,592.5C 628.107,591.289 627.274,591.289 626.5,592.5C 627.855,593.675 627.688,594.675 626,595.5C 625.273,593.047 624.273,590.714 623,588.5C 622.667,588.833 622.333,589.167 622,589.5C 618.14,588.002 614.474,586.002 611,583.5C 609.893,583.585 608.893,583.919 608,584.5C 605.266,583.638 605.099,582.805 607.5,582C 605.888,581.28 604.388,581.446 603,582.5C 601.913,580.068 601.413,580.402 601.5,583.5C 597.916,584.546 594.25,585.379 590.5,586C 591.696,586.654 591.696,587.154 590.5,587.5C 588.531,585.941 586.698,584.274 585,582.5C 583.334,583.34 583.167,582.84 584.5,581C 581.124,579.165 578.458,576.665 576.5,573.5C 575.928,575.078 575.594,576.578 575.5,578C 576.357,578.689 577.023,579.522 577.5,580.5C 574.251,584.522 573.584,584.522 575.5,580.5C 571.625,580.295 569.959,578.295 570.5,574.5C 571.873,574.657 573.207,574.49 574.5,574C 573.833,573.667 573.167,573.333 572.5,573C 573.654,572.086 573.487,571.253 572,570.5C 569.91,571.152 567.743,571.319 565.5,571C 566.833,571.667 567.833,572.667 568.5,574C 568,574.167 567.5,574.333 567,574.5C 564.999,573.281 563.166,571.947 561.5,570.5C 563.078,569.702 564.744,569.202 566.5,569C 565.833,568.667 565.167,568.333 564.5,568C 568.898,569.069 572.731,567.903 576,564.5C 576.423,565.956 577.256,566.456 578.5,566C 577.12,564.676 576.786,563.343 577.5,562C 576.328,561.581 575.328,560.915 574.5,560C 575.898,557.602 577.898,555.935 580.5,555C 578.941,554.02 577.274,553.187 575.5,552.5C 576.435,549.94 575.601,549.274 573,550.5C 572.781,549.062 572.281,547.729 571.5,546.5C 568.744,547.633 566.911,546.633 566,543.5C 565.333,544.167 564.667,544.833 564,545.5C 563.862,543.568 564.362,541.734 565.5,540C 563.779,538.473 561.779,537.473 559.5,537C 559.833,536.667 560.167,536.333 560.5,536C 555.683,535.782 551.016,534.949 546.5,533.5C 546.351,532.448 546.517,531.448 547,530.5C 547.654,531.696 548.154,531.696 548.5,530.5C 547.624,529.749 546.624,529.249 545.5,529C 546.91,528.632 547.91,527.799 548.5,526.5C 546.65,525.758 545.984,524.758 546.5,523.5C 545.167,524.167 543.833,524.833 542.5,525.5C 541.808,524.975 541.308,524.308 541,523.5C 540.066,526.88 538.399,529.88 536,532.5C 534.853,531.542 533.853,531.875 533,533.5C 531.736,531.393 529.903,530.393 527.5,530.5C 527.649,531.552 527.483,532.552 527,533.5C 525.89,531.603 525.724,529.77 526.5,528C 523.972,526.684 523.972,525.517 526.5,524.5C 525.494,523.604 525.494,522.938 526.5,522.5C 527.167,523.833 527.833,525.167 528.5,526.5C 529.506,526.062 529.506,525.396 528.5,524.5C 528.837,522.575 530.17,521.075 532.5,520C 531.167,518.667 531.167,517.333 532.5,516C 531.809,514.933 531.309,513.766 531,512.5C 530.667,512.833 530.333,513.167 530,513.5C 527.63,512.274 525.464,511.44 523.5,511C 524.133,507.24 525.133,503.573 526.5,500C 525.747,498.513 524.914,498.346 524,499.5C 523.333,498.167 522.667,496.833 522,495.5C 521.827,489.652 521.327,483.985 520.5,478.5 Z"/></g>
<g><path style="opacity:1" fill="#282f3a" d="M 292.5,467.5 C 294.456,466.199 296.123,466.699 297.5,469C 296.833,470 296.167,471 295.5,472C 296.672,472.419 297.672,473.085 298.5,474C 300.135,474.54 301.468,474.04 302.5,472.5C 304.378,473.642 306.212,474.642 308,475.5C 311.529,474.432 315.195,474.432 319,475.5C 319.333,474.833 319.667,474.167 320,473.5C 320.085,475.085 320.251,476.418 320.5,477.5C 321.72,476.289 322.887,476.289 324,477.5C 324.5,477 325,476.5 325.5,476C 324.499,473.428 324.999,470.595 327,467.5C 328.195,470.225 328.528,472.891 328,475.5C 329.333,472.833 330.667,472.833 332,475.5C 333.797,472.904 335.131,473.237 336,476.5C 337.985,472.486 340.652,471.819 344,474.5C 344.333,474.167 344.667,473.833 345,473.5C 346.93,475.758 348.43,478.258 349.5,481C 351.379,481.96 353.379,482.46 355.5,482.5C 355.88,484.021 356.046,485.687 356,487.5C 357.194,485.377 357.86,483.043 358,480.5C 359.008,480.982 360.175,481.148 361.5,481C 360.289,481.893 360.289,482.726 361.5,483.5C 362.167,482.5 362.833,481.5 363.5,480.5C 363.833,480.667 364.167,480.833 364.5,481C 363.74,482.441 363.074,483.941 362.5,485.5C 362.833,486.5 363.5,487.167 364.5,487.5C 364.145,485.118 364.811,482.784 366.5,480.5C 367.82,482.817 369.486,484.817 371.5,486.5C 370.619,487.971 369.286,488.804 367.5,489C 371.5,489.667 371.5,490.333 367.5,491C 369.848,491.346 371.681,492.513 373,494.5C 375.231,493.453 377.398,492.619 379.5,492C 378.786,493.343 379.12,494.676 380.5,496C 379,498.167 377.833,498 377,495.5C 373.607,498.722 373.274,502.055 376,505.5C 377.871,504.332 379.371,504.832 380.5,507C 378.519,507.605 378.185,508.605 379.5,510C 378.953,510.925 378.287,511.758 377.5,512.5C 374.342,512.174 371.508,511.174 369,509.5C 368.027,511.392 367.36,513.392 367,515.5C 366.167,514.5 365.333,513.5 364.5,512.5C 362.756,517.378 360.589,517.378 358,512.5C 357.64,514.608 356.973,516.608 356,518.5C 354.035,515.002 351.702,514.669 349,517.5C 347.188,517.507 345.688,516.84 344.5,515.5C 343.459,517.991 342.626,517.991 342,515.5C 341.667,515.833 341.333,516.167 341,516.5C 339.333,515.833 337.667,515.167 336,514.5C 335.544,515.744 336.044,516.577 337.5,517C 335.617,518.78 333.617,518.947 331.5,517.5C 327.468,518.855 323.468,520.189 319.5,521.5C 319.738,525.099 318.738,525.433 316.5,522.5C 314.309,523.872 312.142,524.206 310,523.5C 308.668,525.936 307.501,525.936 306.5,523.5C 306.709,522.914 307.043,522.414 307.5,522C 305.33,520.414 302.996,519.08 300.5,518C 301.833,517.333 301.833,516.667 300.5,516C 299.216,515.316 298.049,515.483 297,516.5C 295.086,515.324 295.252,514.324 297.5,513.5C 296.034,511.343 294.2,511.01 292,512.5C 291.5,512 291,511.5 290.5,511C 291.706,506.636 291.206,506.469 289,510.5C 286.676,509.193 285.343,507.193 285,504.5C 283.798,506.553 283.464,508.553 284,510.5C 283.097,511.701 281.931,512.535 280.5,513C 281.791,516.025 281.124,516.359 278.5,514C 278.833,513.667 279.167,513.333 279.5,513C 278.241,512.077 276.908,511.243 275.5,510.5C 276.641,509.575 276.641,508.741 275.5,508C 276.167,507.667 276.833,507.333 277.5,507C 272.309,504.341 272.642,503.341 278.5,504C 277.833,502.667 277.167,501.333 276.5,500C 277.423,497.959 277.756,495.792 277.5,493.5C 281.106,493.211 284.606,493.544 288,494.5C 288.948,492.43 290.448,490.93 292.5,490C 290.641,489.316 288.974,488.316 287.5,487C 291.325,485.232 291.325,483.232 287.5,481C 288.833,480.667 290.167,480.333 291.5,480C 290.975,479.308 290.308,478.808 289.5,478.5C 288.549,479.326 287.549,479.492 286.5,479C 286.676,477.308 287.176,475.808 288,474.5C 289.487,475.253 289.654,476.086 288.5,477C 289.833,477.667 291.167,477.667 292.5,477C 292.807,474.181 292.807,471.014 292.5,467.5 Z"/></g>
<g><path style="opacity:1" fill="#232c33" d="M 502.5,356.5 C 502.667,458.834 502.5,561.167 502,663.5C 501.817,660.635 501.317,657.969 500.5,655.5C 501.119,556.217 501.785,456.55 502.5,356.5 Z"/></g>
<g><path style="opacity:1" fill="#27313a" d="M 211.5,355.5 C 212.919,356.451 214.585,356.784 216.5,356.5C 216.663,358.857 216.497,361.19 216,363.5C 215.692,362.692 215.192,362.025 214.5,361.5C 214.436,362.365 214.103,363.365 213.5,364.5C 214.325,365.386 215.325,365.719 216.5,365.5C 216.167,465.001 216.501,564.335 217.5,663.5C 217.5,671.5 217.5,679.5 217.5,687.5C 304.335,687.167 391.002,687.501 477.5,688.5C 477.047,689.458 476.381,690.292 475.5,691C 475.833,691.333 476.167,691.667 476.5,692C 473.536,692.84 473.203,693.84 475.5,695C 474.5,695.333 473.5,695.667 472.5,696C 472.833,696.333 473.167,696.667 473.5,697C 471.884,697.615 470.551,698.615 469.5,700C 474.833,701.333 474.833,702.667 469.5,704C 467.812,706.268 465.979,708.435 464,710.5C 462.636,709.742 461.469,710.242 460.5,712C 460.833,712.333 461.167,712.667 461.5,713C 459.866,713.494 458.199,713.66 456.5,713.5C 439.431,712.827 422.265,712.16 405,711.5C 351.016,712.716 296.683,712.716 242,711.5C 230.692,712.136 219.526,712.803 208.5,713.5C 201.885,711.385 197.385,707.052 195,700.5C 194.333,590.167 194.333,479.833 195,369.5C 197.901,361.765 203.401,357.099 211.5,355.5 Z"/></g>
<g><path style="opacity:1" fill="#28303b" d="M 441.5,519.5 C 445.439,521.702 445.439,524.035 441.5,526.5C 442.641,527.425 442.641,528.259 441.5,529C 443.058,531.054 445.058,532.554 447.5,533.5C 447.023,534.478 446.357,535.311 445.5,536C 449.667,538.448 454,540.615 458.5,542.5C 459.088,544.911 460.255,546.911 462,548.5C 462.811,547.04 463.645,546.707 464.5,547.5C 463.959,549.535 463.292,551.535 462.5,553.5C 461.833,552.833 461.167,552.167 460.5,551.5C 459.534,553.396 459.201,555.396 459.5,557.5C 462.526,555.966 464.859,556.8 466.5,560C 465.584,560.374 464.75,560.874 464,561.5C 461.724,558.936 459.724,559.27 458,562.5C 457.692,561.692 457.192,561.025 456.5,560.5C 455.833,561.5 455.167,562.5 454.5,563.5C 452.634,562.437 452.134,563.104 453,565.5C 453.833,566.333 454.667,567.167 455.5,568C 453.624,569.375 451.624,570.542 449.5,571.5C 450.167,572.5 450.833,573.5 451.5,574.5C 448.841,576.004 446.341,577.671 444,579.5C 440.164,577.611 435.997,576.945 431.5,577.5C 431.5,578.833 431.5,580.167 431.5,581.5C 429.549,581.227 428.049,581.893 427,583.5C 426.333,580.833 425.667,580.833 425,583.5C 424.691,582.234 424.191,581.067 423.5,580C 416.568,576.612 409.235,574.779 401.5,574.5C 400.914,574.709 400.414,575.043 400,575.5C 400.272,571.162 399.605,566.828 398,562.5C 396.975,566.101 395.475,566.101 393.5,562.5C 394.603,562.002 395.603,561.669 396.5,561.5C 395.271,560.719 393.938,560.219 392.5,560C 393.624,559.751 394.624,559.251 395.5,558.5C 395.983,554.13 395.983,549.13 395.5,543.5C 395.167,542.167 394.833,540.833 394.5,539.5C 392.776,540.661 391.11,540.495 389.5,539C 390.793,538.51 392.127,538.343 393.5,538.5C 393.762,537.022 393.429,535.689 392.5,534.5C 390.634,535.563 390.134,534.896 391,532.5C 391.667,533.833 392.333,533.833 393,532.5C 393.333,530.833 393.667,529.167 394,527.5C 395.016,528.634 395.683,528.301 396,526.5C 399.013,526.818 402.179,527.651 405.5,529C 404.207,529.49 402.873,529.657 401.5,529.5C 401.318,532.608 399.984,535.108 397.5,537C 398.931,537.465 400.097,538.299 401,539.5C 401.667,536.833 402.333,536.833 403,539.5C 403.49,538.207 403.657,536.873 403.5,535.5C 404.833,535.5 406.167,535.5 407.5,535.5C 407.67,534.178 407.337,533.011 406.5,532C 408.582,531.795 410.749,531.962 413,532.5C 413.411,528.77 414.744,525.436 417,522.5C 417.483,523.448 417.649,524.448 417.5,525.5C 419.981,525.677 421.814,524.677 423,522.5C 426.551,523.233 430.051,524.233 433.5,525.5C 435.5,524.263 437.334,524.597 439,526.5C 439.483,525.552 439.649,524.552 439.5,523.5C 440.552,523.649 441.552,523.483 442.5,523C 441.663,521.989 441.33,520.822 441.5,519.5 Z"/></g>
<g><path style="opacity:1" fill="#29323c" d="M 427.5,527.5 C 429.75,527.181 431.75,527.681 433.5,529C 431.679,531.456 431.012,534.289 431.5,537.5C 433.167,537.5 434.833,537.5 436.5,537.5C 436.351,538.552 436.517,539.552 437,540.5C 437.333,540.167 437.667,539.833 438,539.5C 440.056,540.583 441.389,542.25 442,544.5C 443.011,543.663 444.178,543.33 445.5,543.5C 445.5,544.833 445.5,546.167 445.5,547.5C 444.022,547.238 442.689,547.571 441.5,548.5C 441.12,550.021 440.954,551.687 441,553.5C 440.138,555.594 438.972,556.594 437.5,556.5C 438.761,559.264 440.595,561.597 443,563.5C 443.39,559.834 444.557,559.668 446.5,563C 445.773,564.399 445.273,565.899 445,567.5C 444.311,566.643 443.478,565.977 442.5,565.5C 440.019,568.12 438.185,571.12 437,574.5C 436.64,572.579 435.806,570.912 434.5,569.5C 435.563,567.634 434.896,567.134 432.5,568C 433.246,570.093 433.579,572.093 433.5,574C 433,574.5 432.5,575 432,575.5C 430.796,574.529 430.296,573.529 430.5,572.5C 429.081,574.336 427.914,576.336 427,578.5C 426.07,576.448 424.57,574.948 422.5,574C 424.021,570.983 423.021,569.15 419.5,568.5C 420.025,567.808 420.692,567.308 421.5,567C 418.537,561.761 419.037,560.927 423,564.5C 423.484,562.087 423.15,559.754 422,557.5C 421.692,558.308 421.192,558.975 420.5,559.5C 419.575,558.359 418.741,558.359 418,559.5C 417.92,557.752 417.087,556.085 415.5,554.5C 417.562,552.908 417.895,551.075 416.5,549C 417.061,547.324 418.061,545.991 419.5,545C 417.624,543.983 415.624,543.149 413.5,542.5C 415.998,541.062 418.164,541.396 420,543.5C 420.691,540.734 422.191,540.067 424.5,541.5C 425.311,539.609 426.644,538.276 428.5,537.5C 428.833,536.5 429.167,535.5 429.5,534.5C 428.522,532.223 427.855,529.89 427.5,527.5 Z"/></g>
<g><path style="opacity:1" fill="#424950" d="M 292.5,285.5 C 285.167,285.5 277.833,285.5 270.5,285.5C 270.5,288.5 270.5,291.5 270.5,294.5C 270.5,397.833 270.5,501.167 270.5,604.5C 269.501,498.001 269.167,391.335 269.5,284.5C 277.352,284.175 285.018,284.508 292.5,285.5 Z"/></g>
<g><path style="opacity:1" fill="#262f35" d="M 788.5,331.5 C 788.833,331.5 789.167,331.5 789.5,331.5C 789.864,335.378 789.864,339.378 789.5,343.5C 789.667,450.501 789.5,557.501 789,664.5C 788.5,553.501 788.333,442.501 788.5,331.5 Z"/></g>
<g><path style="opacity:1" fill="#28303a" d="M 826.5,703.5 C 824.309,708.362 820.642,711.362 815.5,712.5C 812.949,711.484 810.782,709.817 809,707.5C 808.259,708.641 807.425,708.641 806.5,707.5C 805.571,706.311 805.238,704.978 805.5,703.5C 804.448,703.649 803.448,703.483 802.5,703C 801.066,700.779 799.066,699.279 796.5,698.5C 797.246,697.264 797.579,695.93 797.5,694.5C 796.07,694.579 794.736,694.246 793.5,693.5C 792.808,694.025 792.308,694.692 792,695.5C 790.667,695.5 789.333,695.5 788,695.5C 785.465,693.914 783.965,692.081 783.5,690C 790.068,689.849 796.401,689.015 802.5,687.5C 803.496,687.586 804.329,687.252 805,686.5C 805.5,609.834 805.667,533.167 805.5,456.5C 806.167,463.678 806.833,471.011 807.5,478.5C 808.086,478.709 808.586,479.043 809,479.5C 809.249,478.376 809.749,477.376 810.5,476.5C 811.768,477.428 813.101,477.595 814.5,477C 815.833,475.667 817.167,474.333 818.5,473C 816.205,470.699 814.205,468.199 812.5,465.5C 813.325,464.614 814.325,464.281 815.5,464.5C 815.494,467.548 816.494,468.048 818.5,466C 817.853,464.391 817.02,462.891 816,461.5C 815.692,462.308 815.192,462.975 814.5,463.5C 813.538,461.117 814.538,460.117 817.5,460.5C 816.916,457.017 817.749,454.017 820,451.5C 819.621,453.075 819.788,454.575 820.5,456C 819.833,457.333 819.167,458.667 818.5,460C 819.167,460.333 819.833,460.667 820.5,461C 819.289,461.893 819.289,462.726 820.5,463.5C 821.281,462.271 821.781,460.938 822,459.5C 823.718,461.202 823.885,463.035 822.5,465C 824.326,468.93 824.992,472.93 824.5,477C 823.833,477.333 823.167,477.667 822.5,478C 824.686,478.604 824.852,479.77 823,481.5C 821.817,480.269 820.651,480.269 819.5,481.5C 820.833,482.5 820.833,483.5 819.5,484.5C 820.698,484.94 821.865,485.273 823,485.5C 823.288,488.53 823.455,491.364 823.5,494C 822.331,495.836 820.664,497.002 818.5,497.5C 817.808,496.975 817.308,496.308 817,495.5C 816.119,497.946 814.953,500.279 813.5,502.5C 814.811,503.258 815.311,504.258 815,505.5C 813.542,504.253 812.042,504.253 810.5,505.5C 809.912,507.911 808.745,509.911 807,511.5C 806.333,519.167 806.333,526.833 807,534.5C 807.508,532.096 808.675,531.429 810.5,532.5C 811.324,535.785 811.824,539.118 812,542.5C 812.692,541.975 813.192,541.308 813.5,540.5C 812.185,539.105 812.519,538.105 814.5,537.5C 815.281,538.729 815.781,540.062 816,541.5C 817.758,540.531 818.258,539.364 817.5,538C 818.5,537.333 819.5,537.333 820.5,538C 819.549,538.718 819.383,539.551 820,540.5C 820.915,539.672 821.581,538.672 822,537.5C 822.833,539 824,540.167 825.5,541C 824.359,541.741 824.359,542.575 825.5,543.5C 825.154,544.696 824.654,544.696 824,543.5C 823.428,552.588 823.094,561.588 823,570.5C 821.667,569.167 820.333,569.167 819,570.5C 818.612,569.572 817.945,568.905 817,568.5C 815.238,568.944 815.405,569.444 817.5,570C 813.824,571.728 813.491,574.061 816.5,577C 815.833,578.333 815.167,579.667 814.5,581C 814.5,584.333 814.5,587.667 814.5,591C 815.899,591.595 817.232,591.428 818.5,590.5C 818.833,591 819.167,591.5 819.5,592C 817.474,595.05 815.14,595.05 812.5,592C 813.281,584.204 813.281,576.037 812.5,567.5C 811.713,568.242 811.047,569.075 810.5,570C 812.513,571.791 812.513,573.125 810.5,574C 811.167,576 811.833,578 812.5,580C 812,580.5 811.5,581 811,581.5C 809.667,578.833 808.333,578.833 807,581.5C 806.333,588.167 806.333,594.833 807,601.5C 807.176,598.118 807.676,594.785 808.5,591.5C 809.5,591.833 810.167,592.5 810.5,593.5C 809.833,593.833 809.167,594.167 808.5,594.5C 809.767,596.371 809.767,598.204 808.5,600C 809.167,600.667 809.833,601.333 810.5,602C 808.053,603.229 807.887,604.729 810,606.5C 811,605.167 812,605.167 813,606.5C 812.786,601.103 814.119,600.436 817,604.5C 816.397,601.805 816.897,599.138 818.5,596.5C 821.028,597.498 821.028,598.331 818.5,599C 819.26,600.441 819.926,601.941 820.5,603.5C 819.438,606.103 819.272,608.77 820,611.5C 820.419,610.328 821.085,609.328 822,608.5C 823.88,611.308 823.713,614.308 821.5,617.5C 822.167,617.833 822.833,618.167 823.5,618.5C 819.625,619.486 819.625,620.653 823.5,622C 823.335,623.117 823.002,624.284 822.5,625.5C 823.098,626.795 823.598,628.128 824,629.5C 825.487,628.259 826.32,628.759 826.5,631C 826.406,633.954 825.906,634.121 825,631.5C 824.186,633.282 823.019,634.782 821.5,636C 821.957,636.414 822.291,636.914 822.5,637.5C 819.952,639.219 820.285,640.552 823.5,641.5C 822.47,641.554 821.303,641.888 820,642.5C 819.598,643.872 819.098,645.205 818.5,646.5C 819.641,647.425 819.641,648.259 818.5,649C 821.028,649.669 821.028,650.502 818.5,651.5C 817.719,650.271 817.219,648.938 817,647.5C 816.5,648 816,648.5 815.5,649C 816.214,650.343 815.88,651.676 814.5,653C 815.76,654.814 815.76,656.647 814.5,658.5C 813.158,657.098 812.324,657.431 812,659.5C 811.336,656.647 811.836,653.981 813.5,651.5C 811.867,649.613 812.2,648.113 814.5,647C 813.262,647.077 812.262,646.911 811.5,646.5C 813.04,645.468 813.54,644.135 813,642.5C 811.984,643.634 811.317,643.301 811,641.5C 809.899,643.394 808.566,644.061 807,643.5C 806.168,654.515 806.334,665.515 807.5,676.5C 809.003,676.165 810.336,676.165 811.5,676.5C 810.939,678.426 810.773,680.426 811,682.5C 810.1,683.77 808.934,684.77 807.5,685.5C 812.749,690.686 814.749,689.853 813.5,683C 815.126,683.195 816.793,683.195 818.5,683C 819.071,681.795 819.738,680.628 820.5,679.5C 821.931,682.273 821.264,684.439 818.5,686C 820.569,686.324 820.902,687.158 819.5,688.5C 821.167,689.167 822.833,689.833 824.5,690.5C 823.5,691.167 822.5,691.833 821.5,692.5C 821.833,692.833 822.167,693.167 822.5,693.5C 824.195,692.708 825.862,693.042 827.5,694.5C 826.593,697.421 826.26,700.421 826.5,703.5 Z"/></g>
<g><path style="opacity:1" fill="#2b343d" d="M 788.5,331.5 C 788.333,442.501 788.5,553.501 789,664.5C 789.5,557.501 789.667,450.501 789.5,343.5C 790.499,451.999 790.833,560.665 790.5,669.5C 723.885,661.438 657.552,661.605 591.5,670C 570.076,673.127 548.743,676.46 527.5,680C 584.807,650.088 645.807,633.088 710.5,629C 730.825,627.271 751.158,627.104 771.5,628.5C 772.499,529.668 772.833,430.668 772.5,331.5C 777.833,331.5 783.167,331.5 788.5,331.5 Z"/></g>
<g><path style="opacity:1" fill="#28303b" d="M 443.5,611.5 C 448.331,612.865 453.164,614.199 458,615.5C 459.597,614.115 461.43,613.449 463.5,613.5C 463.762,614.978 463.429,616.311 462.5,617.5C 461.808,616.975 461.308,616.308 461,615.5C 459.56,616.93 459.226,618.597 460,620.5C 460.741,619.359 461.575,619.359 462.5,620.5C 464.116,619.885 465.449,618.885 466.5,617.5C 467.842,619.005 469.508,619.672 471.5,619.5C 471.672,621.492 471.005,623.158 469.5,624.5C 472.257,625.029 474.757,626.029 477,627.5C 477.151,630.119 477.985,632.453 479.5,634.5C 477.027,636.098 477.027,637.598 479.5,639C 477.356,640.146 475.523,641.646 474,643.5C 471.281,642.523 469.281,643.523 468,646.5C 464.607,646.19 462.107,644.524 460.5,641.5C 458.805,642.292 457.138,641.958 455.5,640.5C 456.242,639.713 457.075,639.047 458,638.5C 459.101,640.394 460.434,641.061 462,640.5C 462.87,639.892 463.37,639.059 463.5,638C 462.503,636.404 461.337,634.904 460,633.5C 459.692,634.308 459.192,634.975 458.5,635.5C 457.673,631.541 457.173,627.541 457,623.5C 456.581,624.672 455.915,625.672 455,626.5C 452.442,621.999 449.442,621.999 446,626.5C 443.155,623.979 440.488,624.313 438,627.5C 437.055,627.095 436.388,626.428 436,625.5C 435.151,628.521 433.651,629.021 431.5,627C 432.167,626.667 432.833,626.333 433.5,626C 431.322,626.503 428.989,627.003 426.5,627.5C 426.467,626.011 425.967,624.678 425,623.5C 424.667,623.833 424.333,624.167 424,624.5C 422.601,623.773 421.101,623.273 419.5,623C 420.167,622.667 420.833,622.333 421.5,622C 420.167,621 420.167,620 421.5,619C 420.5,618.667 419.5,618.333 418.5,618C 420.076,617.56 421.41,616.727 422.5,615.5C 424.701,617.056 424.701,618.223 422.5,619C 423.893,621.683 425.226,621.85 426.5,619.5C 427.425,620.641 428.259,620.641 429,619.5C 429.49,618.207 429.657,616.873 429.5,615.5C 433.893,615.457 434.226,615.957 430.5,617C 431,617.5 431.5,618 432,618.5C 436.202,616.496 440.035,614.163 443.5,611.5 Z"/></g>
<g><path style="opacity:1" fill="#555b60" d="M 520.5,356.5 C 520.5,396.167 520.5,435.833 520.5,475.5C 520.5,476.5 520.5,477.5 520.5,478.5C 520.168,542.336 520.501,606.002 521.5,669.5C 521.44,670.043 521.107,670.376 520.5,670.5C 519.168,565.667 519.168,461.001 520.5,356.5 Z"/></g>
<g><path style="opacity:1" fill="#2d353e" d="M 233.5,330.5 C 233.5,334.167 233.5,337.833 233.5,341.5C 233.333,450.167 233.5,558.834 234,667.5C 234.333,657.5 234.667,647.5 235,637.5C 236.985,634.829 238.485,632.329 239.5,630C 242.269,629.79 244.769,630.623 247,632.5C 247.368,631.09 248.201,630.09 249.5,629.5C 250.5,598.841 250.833,568.174 250.5,537.5C 250.5,468.5 250.5,399.5 250.5,330.5C 251.499,429.665 251.833,528.999 251.5,628.5C 314.761,625.449 376.428,633.949 436.5,654C 443.8,656.371 450.8,659.204 457.5,662.5C 456.537,664.298 457.204,665.632 459.5,666.5C 460.093,668.382 460.76,670.215 461.5,672C 461.167,672.167 460.833,672.333 460.5,672.5C 459.749,671.624 459.249,670.624 459,669.5C 458.667,670.167 458.333,670.833 458,671.5C 455.2,670.872 452.533,669.872 450,668.5C 449.383,669.449 449.549,670.282 450.5,671C 449.552,671.483 448.552,671.649 447.5,671.5C 375.893,661.753 304.227,661.087 232.5,669.5C 232.167,556.332 232.5,443.332 233.5,330.5 Z"/></g>
<g><path style="opacity:1" fill="#242c35" d="M 233.5,341.5 C 234.193,345.565 234.86,349.732 235.5,354C 235.085,436.779 234.752,519.613 234.5,602.5C 234.419,607.582 234.919,612.582 236,617.5C 236.928,614.965 238.762,613.965 241.5,614.5C 241.5,616.167 241.5,617.833 241.5,619.5C 242.675,619.719 243.675,619.386 244.5,618.5C 243.515,616.902 243.349,615.235 244,613.5C 244.333,614.5 244.667,615.5 245,616.5C 246.574,615.016 247.907,613.349 249,611.5C 249.168,586.663 249.668,561.997 250.5,537.5C 250.833,568.174 250.5,598.841 249.5,629.5C 248.201,630.09 247.368,631.09 247,632.5C 244.769,630.623 242.269,629.79 239.5,630C 238.485,632.329 236.985,634.829 235,637.5C 234.667,647.5 234.333,657.5 234,667.5C 233.5,558.834 233.333,450.167 233.5,341.5 Z"/></g>
<g><path style="opacity:1" fill="#273039" d="M 233.5,330.5 C 239.167,330.5 244.833,330.5 250.5,330.5C 250.5,399.5 250.5,468.5 250.5,537.5C 249.668,561.997 249.168,586.663 249,611.5C 247.907,613.349 246.574,615.016 245,616.5C 244.667,615.5 244.333,614.5 244,613.5C 243.349,615.235 243.515,616.902 244.5,618.5C 243.675,619.386 242.675,619.719 241.5,619.5C 241.5,617.833 241.5,616.167 241.5,614.5C 238.762,613.965 236.928,614.965 236,617.5C 234.919,612.582 234.419,607.582 234.5,602.5C 234.752,519.613 235.085,436.779 235.5,354C 234.86,349.732 234.193,345.565 233.5,341.5C 233.5,337.833 233.5,334.167 233.5,330.5 Z"/></g>
<g><path style="opacity:1" fill="#2e343a" d="M 457.5,662.5 C 470.715,667.773 483.715,673.606 496.5,680C 479.966,677.858 463.632,675.024 447.5,671.5C 448.552,671.649 449.552,671.483 450.5,671C 449.549,670.282 449.383,669.449 450,668.5C 452.533,669.872 455.2,670.872 458,671.5C 458.333,670.833 458.667,670.167 459,669.5C 459.249,670.624 459.749,671.624 460.5,672.5C 460.833,672.333 461.167,672.167 461.5,672C 460.76,670.215 460.093,668.382 459.5,666.5C 457.204,665.632 456.537,664.298 457.5,662.5 Z"/></g>
<g><path style="opacity:1" fill="#262e36" d="M 745.5,687.5 C 741.615,688.034 737.782,689.034 734,690.5C 726.868,689.734 719.701,689.401 712.5,689.5C 711.685,691.276 710.518,691.943 709,691.5C 708.333,688.833 707.667,688.833 707,691.5C 706.333,688.833 705.667,688.833 705,691.5C 703.284,690.448 702.284,691.114 702,693.5C 701.333,692.167 700.667,692.167 700,693.5C 698.887,692.24 698.72,691.073 699.5,690C 696.905,689.774 694.405,689.274 692,688.5C 683.301,689.045 674.634,689.045 666,688.5C 665.692,689.308 665.192,689.975 664.5,690.5C 661.833,689.833 659.167,689.167 656.5,688.5C 650.5,689.833 644.5,689.833 638.5,688.5C 636.206,689.706 633.873,690.706 631.5,691.5C 631.5,690.5 631.5,689.5 631.5,688.5C 628.801,688.466 626.301,689.133 624,690.5C 623.692,689.692 623.192,689.025 622.5,688.5C 621.167,689.5 619.833,690.5 618.5,691.5C 617.522,691.023 616.689,690.357 616,689.5C 614.887,690.711 613.72,690.711 612.5,689.5C 611.252,690.04 610.085,690.707 609,691.5C 608.667,691.167 608.333,690.833 608,690.5C 607,693.167 606,693.167 605,690.5C 602.888,692.606 600.888,692.273 599,689.5C 598.667,689.833 598.333,690.167 598,690.5C 596.43,689.642 594.763,688.975 593,688.5C 585.965,688.221 578.798,688.555 571.5,689.5C 571.657,690.873 571.49,692.207 571,693.5C 568.248,692.142 567.748,692.809 569.5,695.5C 568.551,699.443 567.551,699.443 566.5,695.5C 563.407,692.407 561.573,693.073 561,697.5C 559.957,695.299 559.123,692.966 558.5,690.5C 557.702,692.078 557.202,693.744 557,695.5C 555.562,694.1 554.729,692.433 554.5,690.5C 551.833,690.167 549.167,689.833 546.5,689.5C 545.833,689.5 545.5,689.167 545.5,688.5C 611.998,687.501 678.665,687.168 745.5,687.5 Z"/></g>
<g><path style="opacity:1" fill="#27303a" d="M 745.5,687.5 C 764.5,687.5 783.5,687.5 802.5,687.5C 796.401,689.015 790.068,689.849 783.5,690C 783.965,692.081 785.465,693.914 788,695.5C 789.333,695.5 790.667,695.5 792,695.5C 792.308,694.692 792.808,694.025 793.5,693.5C 794.736,694.246 796.07,694.579 797.5,694.5C 797.579,695.93 797.246,697.264 796.5,698.5C 799.066,699.279 801.066,700.779 802.5,703C 803.448,703.483 804.448,703.649 805.5,703.5C 805.238,704.978 805.571,706.311 806.5,707.5C 807.425,708.641 808.259,708.641 809,707.5C 810.782,709.817 812.949,711.484 815.5,712.5C 813.393,713.468 811.059,713.802 808.5,713.5C 808.167,713.5 807.833,713.5 807.5,713.5C 765.098,712.831 722.598,712.164 680,711.5C 641.588,711.57 603.088,712.236 564.5,713.5C 563.325,713.719 562.325,713.386 561.5,712.5C 562.478,709.004 561.644,708.67 559,711.5C 558.405,710.101 558.572,708.768 559.5,707.5C 558.147,706.476 557.48,705.143 557.5,703.5C 555.088,703.244 553.421,704.244 552.5,706.5C 551.614,705.675 551.281,704.675 551.5,703.5C 549.549,703.227 548.049,703.893 547,705.5C 545.366,704.01 545.699,702.676 548,701.5C 548.333,701.833 548.667,702.167 549,702.5C 551.428,698.426 550.761,695.092 547,692.5C 546.517,691.552 546.351,690.552 546.5,689.5C 549.167,689.833 551.833,690.167 554.5,690.5C 554.729,692.433 555.562,694.1 557,695.5C 557.202,693.744 557.702,692.078 558.5,690.5C 559.123,692.966 559.957,695.299 561,697.5C 561.573,693.073 563.407,692.407 566.5,695.5C 567.551,699.443 568.551,699.443 569.5,695.5C 567.748,692.809 568.248,692.142 571,693.5C 571.49,692.207 571.657,690.873 571.5,689.5C 578.798,688.555 585.965,688.221 593,688.5C 594.763,688.975 596.43,689.642 598,690.5C 598.333,690.167 598.667,689.833 599,689.5C 600.888,692.273 602.888,692.606 605,690.5C 606,693.167 607,693.167 608,690.5C 608.333,690.833 608.667,691.167 609,691.5C 610.085,690.707 611.252,690.04 612.5,689.5C 613.72,690.711 614.887,690.711 616,689.5C 616.689,690.357 617.522,691.023 618.5,691.5C 619.833,690.5 621.167,689.5 622.5,688.5C 623.192,689.025 623.692,689.692 624,690.5C 626.301,689.133 628.801,688.466 631.5,688.5C 631.5,689.5 631.5,690.5 631.5,691.5C 633.873,690.706 636.206,689.706 638.5,688.5C 644.5,689.833 650.5,689.833 656.5,688.5C 659.167,689.167 661.833,689.833 664.5,690.5C 665.192,689.975 665.692,689.308 666,688.5C 674.634,689.045 683.301,689.045 692,688.5C 694.405,689.274 696.905,689.774 699.5,690C 698.72,691.073 698.887,692.24 700,693.5C 700.667,692.167 701.333,692.167 702,693.5C 702.284,691.114 703.284,690.448 705,691.5C 705.667,688.833 706.333,688.833 707,691.5C 707.667,688.833 708.333,688.833 709,691.5C 710.518,691.943 711.685,691.276 712.5,689.5C 719.701,689.401 726.868,689.734 734,690.5C 737.782,689.034 741.615,688.034 745.5,687.5 Z"/></g>
<g><path style="opacity:1" fill="#313942" d="M 477.5,688.5 C 486.683,707.422 501.683,714.589 522.5,710C 533.617,706.379 541.283,699.213 545.5,688.5C 545.5,689.167 545.833,689.5 546.5,689.5C 546.351,690.552 546.517,691.552 547,692.5C 550.761,695.092 551.428,698.426 549,702.5C 548.667,702.167 548.333,701.833 548,701.5C 545.699,702.676 545.366,704.01 547,705.5C 548.049,703.893 549.549,703.227 551.5,703.5C 551.281,704.675 551.614,705.675 552.5,706.5C 553.421,704.244 555.088,703.244 557.5,703.5C 557.48,705.143 558.147,706.476 559.5,707.5C 558.572,708.768 558.405,710.101 559,711.5C 561.644,708.67 562.478,709.004 561.5,712.5C 562.325,713.386 563.325,713.719 564.5,713.5C 645.5,713.5 726.5,713.5 807.5,713.5C 807.833,713.5 808.167,713.5 808.5,713.5C 725.999,714.167 643.332,714.833 560.5,715.5C 544.732,733.927 524.732,741.427 500.5,738C 484.882,735.362 472.216,727.862 462.5,715.5C 378.334,714.833 294.334,714.167 210.5,713.5C 292.5,713.5 374.5,713.5 456.5,713.5C 458.199,713.66 459.866,713.494 461.5,713C 461.167,712.667 460.833,712.333 460.5,712C 461.469,710.242 462.636,709.742 464,710.5C 465.979,708.435 467.812,706.268 469.5,704C 474.833,702.667 474.833,701.333 469.5,700C 470.551,698.615 471.884,697.615 473.5,697C 473.167,696.667 472.833,696.333 472.5,696C 473.5,695.667 474.5,695.333 475.5,695C 473.203,693.84 473.536,692.84 476.5,692C 476.167,691.667 475.833,691.333 475.5,691C 476.381,690.292 477.047,689.458 477.5,688.5 Z"/></g>
<g><path style="opacity:1" fill="#252b33" d="M 456.5,713.5 C 374.5,713.5 292.5,713.5 210.5,713.5C 209.833,713.5 209.167,713.5 208.5,713.5C 219.526,712.803 230.692,712.136 242,711.5C 296.683,712.716 351.016,712.716 405,711.5C 422.265,712.16 439.431,712.827 456.5,713.5 Z"/></g>
<g><path style="opacity:1" fill="#252b33" d="M 807.5,713.5 C 726.5,713.5 645.5,713.5 564.5,713.5C 603.088,712.236 641.588,711.57 680,711.5C 722.598,712.164 765.098,712.831 807.5,713.5 Z"/></g>
</svg>
