<?xml version="1.0" encoding="UTF-8"?>
<!DOCTYPE svg PUBLIC "-//W3C//DTD SVG 1.1//EN" "http://www.w3.org/Graphics/SVG/1.1/DTD/svg11.dtd">
<svg xmlns="http://www.w3.org/2000/svg" version="1.1" width="1024px" height="1024px" style="shape-rendering:geometricPrecision; text-rendering:geometricPrecision; image-rendering:optimizeQuality; fill-rule:evenodd; clip-rule:evenodd" xmlns:xlink="http://www.w3.org/1999/xlink">
<g><path style="opacity:1" fill="#fefefe" d="M 267.5,276.5 C 352.846,293.103 432.013,324.769 505,371.5C 505.667,475.833 505.667,580.167 505,684.5C 453.479,653.331 398.312,630.831 339.5,617C 315.54,611.676 291.54,607.009 267.5,603C 268.154,494.273 268.154,385.44 267.5,276.5 Z"/></g>
<g><path style="opacity:1" fill="#fefefe" d="M 753.5,276.5 C 754.499,385.665 754.833,494.999 754.5,604.5C 669.828,614.335 590.994,641.001 518,684.5C 517.333,580.167 517.333,475.833 518,371.5C 590.446,324.851 668.946,293.184 753.5,276.5 Z"/></g>
<g><path style="opacity:1" fill="#fdfdfc" d="M 224.5,330.5 C 234.833,330.5 245.167,330.5 255.5,330.5C 255.5,342.167 255.5,353.833 255.5,365.5C 251.833,365.5 248.167,365.5 244.5,365.5C 244.5,459.5 244.5,553.5 244.5,647.5C 320.494,659.471 396.327,672.138 472,685.5C 483.082,708.879 501.248,717.045 526.5,710C 538.701,705.965 546.701,697.799 550.5,685.5C 551.376,684.749 552.376,684.249 553.5,684C 628.207,671.882 702.874,659.549 777.5,647C 778.499,553.237 778.832,459.404 778.5,365.5C 774.833,365.5 771.167,365.5 767.5,365.5C 767.5,353.833 767.5,342.167 767.5,330.5C 779.229,330.088 790.896,330.588 802.5,332C 807.4,333.902 810.567,337.402 812,342.5C 812.667,450.833 812.667,559.167 812,667.5C 809.844,674.652 805.01,678.485 797.5,679C 722.792,691.118 648.125,703.451 573.5,716C 553.28,740.855 527.28,750.522 495.5,745C 476.601,740.889 461.268,731.223 449.5,716C 374.883,703.453 300.216,691.119 225.5,679C 218.434,678.553 213.601,675.053 211,668.5C 210.333,559.5 210.333,450.5 211,341.5C 213.64,335.343 218.14,331.677 224.5,330.5 Z"/></g>
</svg>
