<?xml version="1.0" encoding="UTF-8"?>
<!DOCTYPE svg PUBLIC "-//W3C//DTD SVG 1.1//EN" "http://www.w3.org/Graphics/SVG/1.1/DTD/svg11.dtd">
<svg xmlns="http://www.w3.org/2000/svg" version="1.1" width="1024px" height="1024px" style="shape-rendering:geometricPrecision; text-rendering:geometricPrecision; image-rendering:optimizeQuality; fill-rule:evenodd; clip-rule:evenodd" xmlns:xlink="http://www.w3.org/1999/xlink">
<g><path style="opacity:1" fill="#000000" d="M 269.5,336.5 C 302.493,336.068 335.493,336.568 368.5,338C 371.667,339.833 374.167,342.333 376,345.5C 377.339,350.736 377.839,356.07 377.5,361.5C 462.501,361.333 547.501,361.5 632.5,362C 654.442,366.275 667.275,379.442 671,401.5C 671.667,482.833 671.667,564.167 671,645.5C 666.582,666.918 653.748,680.085 632.5,685C 499.833,685.667 367.167,685.667 234.5,685C 213.548,680.381 201.048,667.548 197,646.5C 196.333,564.5 196.333,482.5 197,400.5C 200.509,381.645 211.343,369.145 229.5,363C 237.449,361.844 245.449,361.178 253.5,361C 254.305,356.251 254.805,351.418 255,346.5C 257.935,340.292 262.768,336.958 269.5,336.5 Z M 576.5,414.5 C 596.284,414.786 608.45,424.452 613,443.5C 613.809,463.353 604.643,475.853 585.5,481C 566.413,482.717 553.913,474.551 548,456.5C 545.361,434.079 554.861,420.079 576.5,414.5 Z M 367.5,425.5 C 417.619,424.299 451.785,446.965 470,493.5C 481.876,542.881 466.709,581.381 424.5,609C 384.05,628.649 346.384,624.316 311.5,596C 276.518,559.044 270.685,517.878 294,472.5C 311.607,446.061 336.107,430.394 367.5,425.5 Z M 371.5,470.5 C 402.28,470.127 421.447,484.793 429,514.5C 431.145,545.731 417.311,565.898 387.5,575C 362.909,578.118 344.076,569.285 331,548.5C 321.299,528.18 322.965,508.846 336,490.5C 345.503,479.503 357.337,472.836 371.5,470.5 Z"/></g>
<g><path style="opacity:1" fill="#000000" d="M 800.5,396.5 C 814.396,395.02 822.896,401.02 826,414.5C 826.667,486.167 826.667,557.833 826,629.5C 822.527,642.623 814.027,648.123 800.5,646C 765.047,630.107 729.714,613.941 694.5,597.5C 693.333,547.503 693.167,497.503 694,447.5C 729.637,430.597 765.137,413.597 800.5,396.5 Z"/></g>
<g><path style="opacity:1" fill="#000000" d="M 575.5,436.5 C 587.998,435.821 593.165,441.488 591,453.5C 584.406,462.285 577.406,462.619 570,454.5C 566.709,446.818 568.542,440.818 575.5,436.5 Z"/></g>
<g><path style="opacity:1" fill="#000000" d="M 369.5,446.5 C 402.298,445.311 427.131,458.645 444,486.5C 461.177,526.291 453.01,559.791 419.5,587C 382.258,607.817 348.758,602.983 319,572.5C 296.052,540.417 295.718,508.084 318,475.5C 331.648,459.43 348.814,449.763 369.5,446.5 Z M 371.5,470.5 C 357.337,472.836 345.503,479.503 336,490.5C 322.965,508.846 321.299,528.18 331,548.5C 344.076,569.285 362.909,578.118 387.5,575C 417.311,565.898 431.145,545.731 429,514.5C 421.447,484.793 402.28,470.127 371.5,470.5 Z"/></g>
<g><path style="opacity:1" fill="#000000" d="M 355.5,490.5 C 366.867,488.542 373.534,493.209 375.5,504.5C 373.111,516.363 366.111,520.529 354.5,517C 343.833,507.807 344.166,498.974 355.5,490.5 Z"/></g>
</svg>
