<?xml version="1.0" encoding="UTF-8"?>
<!DOCTYPE svg PUBLIC "-//W3C//DTD SVG 1.1//EN" "http://www.w3.org/Graphics/SVG/1.1/DTD/svg11.dtd">
<svg xmlns="http://www.w3.org/2000/svg" version="1.1" width="1024px" height="1024px" style="shape-rendering:geometricPrecision; text-rendering:geometricPrecision; image-rendering:optimizeQuality; fill-rule:evenodd; clip-rule:evenodd" xmlns:xlink="http://www.w3.org/1999/xlink">
<g><path style="opacity:1" fill="#fdfcf8" d="M 377.5,361.5 C 376.517,357.702 376.183,353.702 376.5,349.5C 372.446,349.21 371.946,349.877 375,351.5C 374.991,359.5 374.324,359.5 373,351.5C 372.503,354.146 372.336,356.813 372.5,359.5C 370.833,359.5 369.167,359.5 367.5,359.5C 367.719,358.325 367.386,357.325 366.5,356.5C 364.5,358.5 362.5,360.5 360.5,362.5C 359.281,361.737 358.281,360.737 357.5,359.5C 356.167,362.167 354.833,362.167 353.5,359.5C 351.378,361.451 349.878,363.785 349,366.5C 347.474,361.373 346.474,361.373 346,366.5C 345.193,362.551 344.693,362.551 344.5,366.5C 341.482,366.665 338.482,366.498 335.5,366C 339.166,365.61 339.332,364.443 336,362.5C 333,363.167 330,363.833 327,364.5C 325.984,363.366 325.317,363.699 325,365.5C 323.354,363.945 323.021,362.279 324,360.5C 323.059,362.061 321.892,363.395 320.5,364.5C 316.722,363.631 313.055,363.298 309.5,363.5C 308.402,367.361 307.569,367.361 307,363.5C 306.667,364.5 306.333,365.5 306,366.5C 304.522,363.007 302.522,362.674 300,365.5C 298.933,364.809 297.766,364.309 296.5,364C 297.654,363.086 297.487,362.253 296,361.5C 291.963,364.009 287.796,364.009 283.5,361.5C 282.573,362.906 281.573,364.406 280.5,366C 278.89,367.495 277.224,367.661 275.5,366.5C 273.869,368.297 271.869,369.464 269.5,370C 270.956,370.423 271.456,371.256 271,372.5C 269.434,371.939 268.101,372.606 267,374.5C 265.817,373.269 264.651,373.269 263.5,374.5C 263.64,376.256 263.14,377.922 262,379.5C 260.686,378.687 259.519,377.687 258.5,376.5C 257.459,378.991 256.626,378.991 256,376.5C 255.085,377.328 254.419,378.328 254,379.5C 252.703,378.216 251.536,378.383 250.5,380C 252.332,380.748 253.999,381.748 255.5,383C 253.539,385.758 251.705,388.591 250,391.5C 249.667,389.5 249.333,387.5 249,385.5C 248.781,386.938 248.281,388.271 247.5,389.5C 246.914,389.291 246.414,388.957 246,388.5C 245.316,389.784 245.483,390.951 246.5,392C 243.985,391.784 241.651,391.117 239.5,390C 240.167,390.667 240.833,391.333 241.5,392C 238.833,393 236.167,394 233.5,395C 234.167,395.333 234.833,395.667 235.5,396C 234.167,397 232.833,398 231.5,399C 232.535,400.507 232.368,402.007 231,403.5C 229.927,402.72 228.76,402.887 227.5,404C 230.167,404.667 230.167,405.333 227.5,406C 228.167,406.333 228.833,406.667 229.5,407C 227.187,407.641 225.52,408.974 224.5,411C 224.645,411.772 224.978,412.439 225.5,413C 224.111,419.401 223.611,425.901 224,432.5C 225.981,434.359 226.981,436.692 227,439.5C 227.667,438.167 228.333,436.833 229,435.5C 230.887,437.026 231.887,439.026 232,441.5C 233.547,443.826 235.381,444.993 237.5,445C 234.833,445.667 234.833,446.333 237.5,447C 237.092,449.861 237.925,450.028 240,447.5C 240.483,448.448 240.649,449.448 240.5,450.5C 236.661,450.612 236.661,451.279 240.5,452.5C 241.281,451.271 241.781,449.938 242,448.5C 242.969,451.328 242.303,453.662 240,455.5C 239.581,454.328 238.915,453.328 238,452.5C 235.905,458.322 233.071,458.822 229.5,454C 230.167,453.667 230.833,453.333 231.5,453C 229.854,451.445 229.521,449.779 230.5,448C 228.08,448.372 226.08,449.705 224.5,452C 224.833,453 225.167,454 225.5,455C 223.338,457.522 223.005,460.355 224.5,463.5C 225.324,461.252 226.324,461.086 227.5,463C 226.437,464.188 225.103,464.688 223.5,464.5C 223.215,466.288 223.548,467.955 224.5,469.5C 225.315,467.724 226.482,467.057 228,467.5C 228.456,468.744 227.956,469.577 226.5,470C 227.167,470.333 227.833,470.667 228.5,471C 227.101,471.595 225.768,471.428 224.5,470.5C 223.67,476.138 223.17,481.804 223,487.5C 222.667,484.833 222.333,482.167 222,479.5C 221.5,488.16 221.334,496.827 221.5,505.5C 219.058,505.119 218.391,505.786 219.5,507.5C 218.863,511.7 218.196,515.866 217.5,520C 219.335,520.928 219.668,522.094 218.5,523.5C 219.5,524.333 220.5,525.167 221.5,526C 216.735,529.018 216.402,532.351 220.5,536C 219.299,536.903 218.465,538.069 218,539.5C 217.189,538.04 216.355,537.707 215.5,538.5C 218.582,542.063 219.582,546.063 218.5,550.5C 219.247,550.736 220.08,551.07 221,551.5C 221.777,554.429 221.61,557.263 220.5,560C 221.448,560.483 222.448,560.649 223.5,560.5C 223.214,562.277 222.547,563.944 221.5,565.5C 221.818,566.647 222.484,567.481 223.5,568C 221.5,568.833 219.5,569.667 217.5,570.5C 218.665,571.584 219.998,572.417 221.5,573C 220.692,573.308 220.025,573.808 219.5,574.5C 220.812,585.843 221.479,597.343 221.5,609C 221.394,623.894 221.061,638.561 220.5,653C 221.167,654 221.833,655 222.5,656C 221.376,656.249 220.376,656.749 219.5,657.5C 220,657.833 220.5,658.167 221,658.5C 223.464,657.839 225.964,657.339 228.5,657C 222.18,656.565 222.013,655.731 228,654.5C 229.011,655.337 230.178,655.67 231.5,655.5C 231.5,657.5 231.5,659.5 231.5,661.5C 234.167,662.167 236.833,662.833 239.5,663.5C 239.5,662.167 239.5,660.833 239.5,659.5C 244.833,659.5 250.167,659.5 255.5,659.5C 255.5,660.833 255.5,662.167 255.5,663.5C 261.5,664.167 264.167,661.5 263.5,655.5C 276.833,655.5 290.167,655.5 303.5,655.5C 303.5,657.5 303.5,659.5 303.5,661.5C 307.5,661.5 309.5,659.5 309.5,655.5C 314.833,655.5 320.167,655.5 325.5,655.5C 325.675,667.916 326.675,668.25 328.5,656.5C 329.167,658.833 329.833,661.167 330.5,663.5C 332.726,661.078 335.06,661.078 337.5,663.5C 339.334,662.246 341.334,661.579 343.5,661.5C 343.5,659.5 343.5,657.5 343.5,655.5C 346.898,655.82 350.232,655.487 353.5,654.5C 354.881,652.365 355.881,650.032 356.5,647.5C 358.876,649.627 359.876,652.293 359.5,655.5C 360.833,655.5 362.167,655.5 363.5,655.5C 363.874,651.371 364.874,647.371 366.5,643.5C 367.167,644.167 367.833,644.833 368.5,645.5C 369.878,643.787 371.545,642.453 373.5,641.5C 374.167,641.833 374.833,642.167 375.5,642.5C 373.525,643.749 373.191,645.249 374.5,647C 377.57,647.078 380.57,646.578 383.5,645.5C 383.5,643.5 383.5,641.5 383.5,639.5C 391.528,639.831 399.528,639.498 407.5,638.5C 404.914,637.52 402.247,637.187 399.5,637.5C 399.5,635.5 399.5,633.5 399.5,631.5C 402.707,631.876 405.373,630.876 407.5,628.5C 402.167,627.833 396.833,627.167 391.5,626.5C 399.615,625.819 407.615,624.486 415.5,622.5C 414.438,621.23 413.438,620.063 412.5,619C 413.211,617.745 414.044,616.579 415,615.5C 415.196,617.286 416.029,618.619 417.5,619.5C 419.167,618.167 420.833,618.167 422.5,619.5C 425.298,618.047 428.298,617.047 431.5,616.5C 433.877,614.599 436.043,612.599 438,610.5C 438.333,610.833 438.667,611.167 439,611.5C 439.47,609.226 440.47,607.226 442,605.5C 442.333,606.167 442.667,606.833 443,607.5C 444.438,606.1 445.271,604.433 445.5,602.5C 447.144,602.714 448.644,602.38 450,601.5C 450.004,598.148 451.504,595.815 454.5,594.5C 455.386,593.675 455.719,592.675 455.5,591.5C 453.801,591.66 452.134,591.494 450.5,591C 453.126,589.628 453.792,587.795 452.5,585.5C 453.934,582.953 455.6,580.619 457.5,578.5C 459.433,578.271 461.1,577.438 462.5,576C 462.167,575.667 461.833,575.333 461.5,575C 462.5,574.333 463.5,574.333 464.5,575C 464.004,576.996 463.004,578.663 461.5,580C 462.464,584.058 464.464,584.558 467.5,581.5C 466.189,580.742 465.689,579.742 466,578.5C 467.156,579.993 467.99,579.826 468.5,578C 467.217,576.864 466.217,575.531 465.5,574C 466.882,572.067 468.382,570.234 470,568.5C 474.004,578.032 475.838,577.699 475.5,567.5C 479.251,567.082 481.418,568.749 482,572.5C 483.832,573.858 485.665,574.192 487.5,573.5C 488.854,575.184 490.521,575.684 492.5,575C 491.304,574.346 491.304,573.846 492.5,573.5C 493.59,574.727 494.924,575.56 496.5,576C 495.167,576.667 495.167,577.333 496.5,578C 493.833,578.667 493.833,579.333 496.5,580C 496.229,582.238 495.895,584.738 495.5,587.5C 497.623,597.433 497.956,607.433 496.5,617.5C 495.833,615.5 495.167,613.5 494.5,611.5C 493.52,614.086 493.187,616.753 493.5,619.5C 492.167,619.5 490.833,619.5 489.5,619.5C 489.799,617.396 489.466,615.396 488.5,613.5C 487.059,616.725 487.393,619.725 489.5,622.5C 488.311,623.429 486.978,623.762 485.5,623.5C 484.142,618.331 483.142,612.997 482.5,607.5C 481.833,608.833 481.167,610.167 480.5,611.5C 479.018,607.656 478.185,603.656 478,599.5C 477.833,603.833 477.667,608.167 477.5,612.5C 477.609,617.614 478.276,622.614 479.5,627.5C 479.167,628.167 478.833,628.833 478.5,629.5C 474.5,628.167 471.833,625.5 470.5,621.5C 469.808,622.025 469.308,622.692 469,623.5C 468.209,620.041 467.209,616.707 466,613.5C 465.17,615.828 464.337,618.162 463.5,620.5C 463.79,622.044 464.456,623.377 465.5,624.5C 460.942,625.446 456.942,627.446 453.5,630.5C 456.32,633.243 459.653,634.91 463.5,635.5C 463.238,634.022 463.571,632.689 464.5,631.5C 466.412,633.657 468.079,635.991 469.5,638.5C 478.141,639.498 486.808,639.831 495.5,639.5C 495.5,640.833 495.5,642.167 495.5,643.5C 498.167,644.167 500.833,644.833 503.5,645.5C 503.5,646.833 503.5,648.167 503.5,649.5C 506.167,650.167 508.833,650.833 511.5,651.5C 511.5,649.5 511.5,647.5 511.5,645.5C 516.846,645.131 518.18,642.798 515.5,638.5C 517.341,637.77 519.175,637.103 521,636.5C 521.424,634.024 522.257,631.691 523.5,629.5C 522.831,626.972 521.998,626.972 521,629.5C 519.134,627.133 519.634,625.133 522.5,623.5C 524.888,625.361 527.554,626.694 530.5,627.5C 534.808,625.952 539.142,624.618 543.5,623.5C 543.847,607.554 544.847,607.554 546.5,623.5C 547.167,618.167 547.833,612.833 548.5,607.5C 549.167,610.167 549.833,612.833 550.5,615.5C 551.167,614.167 551.833,612.833 552.5,611.5C 553.431,619.158 554.431,619.324 555.5,612C 555.371,610.019 554.704,608.353 553.5,607C 556.286,604.979 555.953,603.479 552.5,602.5C 553.5,601.833 554.5,601.167 555.5,600.5C 554.092,599.757 552.759,598.923 551.5,598C 554.028,596.983 554.028,595.816 551.5,594.5C 549.5,593.833 547.5,593.167 545.5,592.5C 548.086,591.52 550.753,591.187 553.5,591.5C 553.201,589.396 553.534,587.396 554.5,585.5C 556.5,582.167 558.5,578.833 560.5,575.5C 561.167,576.167 561.833,576.833 562.5,577.5C 566.75,574.797 569.083,576.13 569.5,581.5C 569.284,583.384 568.617,585.051 567.5,586.5C 569.005,587.842 569.672,589.508 569.5,591.5C 572.247,591.813 574.914,591.48 577.5,590.5C 575.295,585.698 574.962,580.698 576.5,575.5C 577.337,577.844 578.671,579.844 580.5,581.5C 581.167,580.833 581.833,580.167 582.5,579.5C 583.167,576.167 583.833,572.833 584.5,569.5C 586.523,567.827 588.856,567.16 591.5,567.5C 593.157,559.692 593.824,551.692 593.5,543.5C 592.167,543.5 590.833,543.5 589.5,543.5C 590.576,546.734 591.243,550.068 591.5,553.5C 590.167,553.5 588.833,553.5 587.5,553.5C 587.5,551.5 587.5,549.5 587.5,547.5C 585.5,547.5 583.5,547.5 581.5,547.5C 581.762,548.978 581.429,550.311 580.5,551.5C 579.158,549.995 577.492,549.328 575.5,549.5C 575.16,546.856 575.827,544.523 577.5,542.5C 576.273,541.41 575.44,540.076 575,538.5C 574.346,539.696 573.846,539.696 573.5,538.5C 574.752,536.999 575.752,535.332 576.5,533.5C 578.058,538.694 579.058,538.694 579.5,533.5C 582.144,533.84 584.477,533.173 586.5,531.5C 587.833,536.833 589.167,536.833 590.5,531.5C 591.833,524.833 591.833,518.167 590.5,511.5C 589.671,516.802 589.171,522.136 589,527.5C 587.714,522.008 587.047,516.341 587,510.5C 585.876,516.022 585.042,521.689 584.5,527.5C 583.505,522.208 583.172,516.875 583.5,511.5C 580.833,511.5 578.167,511.5 575.5,511.5C 575.058,506.306 574.058,506.306 572.5,511.5C 571.833,510.833 571.167,510.167 570.5,509.5C 569.527,513.989 568.193,514.322 566.5,510.5C 566.833,509.833 567.167,509.167 567.5,508.5C 566.271,507.719 564.938,507.219 563.5,507C 565.991,506.374 565.991,505.541 563.5,504.5C 565.807,502.672 565.474,501.006 562.5,499.5C 561.586,501.664 560.419,503.664 559,505.5C 558.374,501.864 557.207,501.864 555.5,505.5C 554.406,502.513 555.406,500.346 558.5,499C 556.167,498.667 553.833,498.333 551.5,498C 553.801,496.884 556.135,496.051 558.5,495.5C 558.662,493.473 558.495,491.473 558,489.5C 557.667,490.5 557.333,491.5 557,492.5C 556.529,490.754 555.862,489.087 555,487.5C 554.667,488.167 554.333,488.833 554,489.5C 553.333,488.167 552.667,486.833 552,485.5C 551.667,485.833 551.333,486.167 551,486.5C 550.333,484.833 550.333,483.167 551,481.5C 551.333,482.167 551.667,482.833 552,483.5C 554.333,482.5 556.667,481.5 559,480.5C 561.719,481.444 564.552,481.777 567.5,481.5C 567.677,488.134 568.177,488.134 569,481.5C 569.333,483.167 569.667,484.833 570,486.5C 570.333,485.5 570.667,484.5 571,483.5C 571.5,484.667 572.333,485.5 573.5,486C 575.833,486.667 578.167,486.667 580.5,486C 574.685,486.266 574.019,484.766 578.5,481.5C 579.5,481.5 580.5,481.5 581.5,481.5C 582.52,482.954 583.687,483.287 585,482.5C 585.45,485.106 586.95,486.439 589.5,486.5C 589.693,482.551 590.193,482.551 591,486.5C 593.719,485.556 596.552,485.223 599.5,485.5C 600.015,491.979 600.681,497.812 601.5,503C 599.725,504.439 597.725,505.439 595.5,506C 596.535,507.507 596.368,509.007 595,510.5C 593.951,509.483 592.784,509.316 591.5,510C 592,510.5 592.5,511 593,511.5C 593.171,516.864 593.671,522.198 594.5,527.5C 595.167,522.833 595.833,518.167 596.5,513.5C 597.167,518.833 597.833,524.167 598.5,529.5C 599.192,528.975 599.692,528.308 600,527.5C 600.218,530.426 600.718,533.26 601.5,536C 601.167,536.333 600.833,536.667 600.5,537C 601.416,537.374 602.25,537.874 603,538.5C 604.311,534.546 606.144,530.879 608.5,527.5C 608.604,529.485 609.937,530.985 612.5,532C 609.833,532.667 609.833,533.333 612.5,534C 612.167,534.333 611.833,534.667 611.5,535C 612.938,535.219 614.271,535.719 615.5,536.5C 613.78,536.896 611.947,537.896 610,539.5C 608.941,539.37 608.108,538.87 607.5,538C 608.451,537.282 608.617,536.449 608,535.5C 606.833,536.667 605.667,537.833 604.5,539C 605.227,540.399 605.727,541.899 606,543.5C 606.864,539.903 608.031,540.07 609.5,544C 609.384,545.268 609.051,546.602 608.5,548C 609.536,549.617 610.703,549.784 612,548.5C 613.035,551.786 614.535,552.12 616.5,549.5C 617.167,550.167 617.833,550.833 618.5,551.5C 619.167,548.833 619.833,546.167 620.5,543.5C 621.167,545.5 621.833,547.5 622.5,549.5C 623.452,547.955 623.785,546.288 623.5,544.5C 625.144,544.714 626.644,544.38 628,543.5C 628.333,544.167 628.667,544.833 629,545.5C 629.309,544.234 629.809,543.067 630.5,542C 627.997,541.871 625.997,540.871 624.5,539C 624.5,537.667 624.5,536.333 624.5,535C 625.167,534.333 625.833,533.667 626.5,533C 627.935,533.311 629.268,533.145 630.5,532.5C 631.333,533.5 632.167,534.5 633,535.5C 633.195,533.793 633.195,532.126 633,530.5C 633.667,531.167 634.333,531.833 635,532.5C 636.57,532.306 638.07,532.306 639.5,532.5C 638.076,530.282 636.076,528.782 633.5,528C 635.901,527.195 635.734,526.362 633,525.5C 632.346,526.696 631.846,526.696 631.5,525.5C 635.375,524.514 635.375,523.347 631.5,522C 632.641,521.259 632.641,520.425 631.5,519.5C 631.808,518.692 632.308,518.025 633,517.5C 633.741,518.641 634.575,518.641 635.5,517.5C 636.861,515.972 638.028,514.305 639,512.5C 639.466,515.686 639.299,518.519 638.5,521C 641.365,521.755 643.698,520.922 645.5,518.5C 642.451,513.927 643.784,511.261 649.5,510.5C 647.83,506.742 646.997,502.742 647,498.5C 646.075,497.953 645.242,497.287 644.5,496.5C 646.045,495.548 647.712,495.215 649.5,495.5C 650.771,488.269 651.604,480.936 652,473.5C 652.333,472.833 652.667,472.167 653,471.5C 653.333,474.167 653.667,476.833 654,479.5C 654.499,474.177 654.666,468.844 654.5,463.5C 655.822,463.67 656.989,463.337 658,462.5C 658.423,463.956 659.256,464.456 660.5,464C 660.167,463.667 659.833,463.333 659.5,463C 660.191,461.933 660.691,460.766 661,459.5C 661.707,461.081 662.54,462.581 663.5,464C 662.626,465.727 662.793,467.56 664,469.5C 664.192,467.423 664.692,465.423 665.5,463.5C 665.833,464.333 666.167,465.167 666.5,466C 667.12,476.388 667.786,486.721 668.5,497C 668.056,498.533 667.723,500.033 667.5,501.5C 668.384,506.116 669.051,510.783 669.5,515.5C 669.585,517.333 670.252,518.666 671.5,519.5C 671.667,561.501 671.5,603.501 671,645.5C 666.582,666.918 653.748,680.085 632.5,685C 499.833,685.667 367.167,685.667 234.5,685C 213.548,680.381 201.048,667.548 197,646.5C 196.333,564.5 196.333,482.5 197,400.5C 201.061,379.44 213.561,366.606 234.5,362C 240.833,361.667 247.167,361.333 253.5,361C 254.305,356.251 254.805,351.418 255,346.5C 258.189,339.898 263.523,336.564 271,336.5C 303.493,336.056 335.993,336.556 368.5,338C 371.667,339.833 374.167,342.333 376,345.5C 377.339,350.736 377.839,356.07 377.5,361.5 Z M 371.5,470.5 C 402.28,470.127 421.447,484.793 429,514.5C 431.145,545.731 417.311,565.898 387.5,575C 362.909,578.118 344.076,569.285 331,548.5C 321.299,528.18 322.965,508.846 336,490.5C 345.503,479.503 357.337,472.836 371.5,470.5 Z"/></g>
<g><path style="opacity:1" fill="#fefdf9" d="M 377.5,361.5 C 385.833,361.5 394.167,361.5 402.5,361.5C 411.324,362.33 420.324,362.83 429.5,363C 424.882,363.986 420.382,364.153 416,363.5C 414.019,363.629 412.353,364.296 411,365.5C 410.692,364.692 410.192,364.025 409.5,363.5C 408.5,364.833 407.5,364.833 406.5,363.5C 405.224,368.682 404.557,368.682 404.5,363.5C 399.5,363.5 394.5,363.5 389.5,363.5C 389.719,364.675 389.386,365.675 388.5,366.5C 388.704,365.471 388.204,364.471 387,363.5C 385.62,366.058 384.12,366.058 382.5,363.5C 382.704,364.529 382.204,365.529 381,366.5C 380.667,366.167 380.333,365.833 380,365.5C 379,368.167 378,368.167 377,365.5C 376.5,366 376,366.5 375.5,367C 376.227,368.399 376.727,369.899 377,371.5C 378.204,370.529 378.704,369.529 378.5,368.5C 379.287,369.242 379.953,370.075 380.5,371C 380.751,373.125 380.751,375.292 380.5,377.5C 380.667,378.167 380.833,378.833 381,379.5C 381.333,378.5 381.667,377.5 382,376.5C 382.977,378.74 383.477,381.073 383.5,383.5C 382.325,383.281 381.325,383.614 380.5,384.5C 381.242,386.35 382.242,387.016 383.5,386.5C 384.089,388.373 383.422,390.04 381.5,391.5C 382.855,392.675 382.688,393.675 381,394.5C 373.865,389.78 372.865,390.78 378,397.5C 380.097,397.306 382.263,397.306 384.5,397.5C 385.1,395.424 385.433,393.424 385.5,391.5C 386.192,392.025 386.692,392.692 387,393.5C 388.185,391.441 389.352,391.274 390.5,393C 389.899,394.605 388.899,395.938 387.5,397C 387.833,397.167 388.167,397.333 388.5,397.5C 390.718,396.073 392.218,394.073 393,391.5C 393.333,392.833 393.667,394.167 394,395.5C 394.196,393.714 395.029,392.381 396.5,391.5C 397.79,393.657 398.624,395.99 399,398.5C 401.744,398.786 404.577,398.453 407.5,397.5C 407.354,395.058 408.187,394.391 410,395.5C 411.309,393.109 412.309,393.109 413,395.5C 414.324,392.756 416.491,391.423 419.5,391.5C 419.5,392.5 419.5,393.5 419.5,394.5C 422.167,394.5 424.833,394.5 427.5,394.5C 427.5,393.5 427.5,392.5 427.5,391.5C 430.956,391.596 434.123,392.596 437,394.5C 437.617,393.551 437.451,392.718 436.5,392C 437.5,391.333 438.5,391.333 439.5,392C 440.887,394.045 442.054,396.212 443,398.5C 443.639,395.888 444.806,393.554 446.5,391.5C 448.235,392.057 449.902,392.39 451.5,392.5C 450.36,394.473 449.027,396.307 447.5,398C 448.5,398.667 449.5,398.667 450.5,398C 449.66,396.334 450.16,396.167 452,397.5C 454.096,396.285 453.929,395.451 451.5,395C 453.441,394.257 455.274,394.424 457,395.5C 458.765,390.354 460.765,390.354 463,395.5C 464.346,392.751 465.68,392.417 467,394.5C 467.317,392.699 467.984,392.366 469,393.5C 470.085,392.707 471.252,392.04 472.5,391.5C 473.315,393.276 474.482,393.943 476,393.5C 476.627,395.586 476.127,395.919 474.5,394.5C 474.167,395 473.833,395.5 473.5,396C 474.478,397.697 475.644,398.864 477,399.5C 477.176,396.118 477.676,392.785 478.5,389.5C 479.192,390.025 479.692,390.692 480,391.5C 482.852,385.023 484.186,385.356 484,392.5C 485.549,390.749 486.382,389.083 486.5,387.5C 487.281,388.729 487.781,390.062 488,391.5C 491.8,389.665 494.467,387.331 496,384.5C 497.889,385.089 499.889,385.423 502,385.5C 505.804,383.021 508.804,383.355 511,386.5C 511.604,384.314 512.77,384.148 514.5,386C 513.289,386.893 513.289,387.726 514.5,388.5C 515.883,385.924 516.717,386.258 517,389.5C 517.424,385.81 518.258,385.643 519.5,389C 519.043,389.414 518.709,389.914 518.5,390.5C 521.428,391.484 524.428,391.817 527.5,391.5C 527.413,388.402 527.913,388.068 529,390.5C 530.316,389.026 531.316,387.359 532,385.5C 532.667,388.167 533.333,388.167 534,385.5C 537.117,386.963 540.283,387.296 543.5,386.5C 542.624,385.749 541.624,385.249 540.5,385C 541.766,384.691 542.933,384.191 544,383.5C 544.626,385.991 545.459,385.991 546.5,383.5C 547.192,384.025 547.692,384.692 548,385.5C 548.187,383.655 549.02,381.989 550.5,380.5C 550.358,382.89 550.858,385.223 552,387.5C 552.118,384.629 552.784,381.962 554,379.5C 555.487,380.253 555.654,381.086 554.5,382C 556.807,382.354 557.141,383.354 555.5,385C 555.63,386.059 556.13,386.892 557,387.5C 557.842,384.311 559.175,381.311 561,378.5C 562.063,379.438 563.23,380.438 564.5,381.5C 563.695,383.472 562.361,384.972 560.5,386C 561.593,387.365 562.926,387.699 564.5,387C 562.122,386.026 562.456,385.359 565.5,385C 566.573,383.406 567.573,381.906 568.5,380.5C 569.5,380.833 570.167,381.5 570.5,382.5C 569.019,383.48 567.685,384.647 566.5,386C 572.568,388.243 578.401,387.743 584,384.5C 585.333,384.5 586.667,384.5 588,384.5C 588.667,387.167 589.333,387.167 590,384.5C 590.333,385.167 590.667,385.833 591,386.5C 593.432,386.523 595.932,386.19 598.5,385.5C 599.192,386.025 599.692,386.692 600,387.5C 600.667,386.167 601.333,384.833 602,383.5C 602.483,384.448 602.649,385.448 602.5,386.5C 604.06,386.519 605.56,386.852 607,387.5C 608.091,385.654 609.424,384.987 611,385.5C 612,388.167 613,388.167 614,385.5C 614.333,385.833 614.667,386.167 615,386.5C 616.194,385.57 617.527,384.903 619,384.5C 621.544,386.775 624.211,388.108 627,388.5C 628.184,386.346 629.35,386.68 630.5,389.5C 633.447,390.321 636.447,390.821 639.5,391C 641.018,396.281 642.185,396.448 643,391.5C 643.333,394.167 643.667,396.833 644,399.5C 644.577,394.379 645.577,394.379 647,399.5C 649.219,401.72 651.719,403.553 654.5,405C 653.833,405.333 653.167,405.667 652.5,406C 654.219,409.51 655.052,413.344 655,417.5C 655.984,415.205 656.817,415.539 657.5,418.5C 656.885,420.116 655.885,421.449 654.5,422.5C 656.467,425.012 656.8,427.679 655.5,430.5C 657.204,431.823 658.537,431.49 659.5,429.5C 659.255,427.078 659.255,424.745 659.5,422.5C 657.822,417.057 657.655,411.39 659,405.5C 660.081,407.767 661.581,407.934 663.5,406C 662.833,405.667 662.167,405.333 661.5,405C 663.224,404.552 663.891,403.718 663.5,402.5C 664.96,404.422 666.627,405.089 668.5,404.5C 669.606,402.716 669.606,400.882 668.5,399C 668.683,397.316 669.35,397.15 670.5,398.5C 671.483,438.803 671.816,479.136 671.5,519.5C 670.252,518.666 669.585,517.333 669.5,515.5C 669.051,510.783 668.384,506.116 667.5,501.5C 667.723,500.033 668.056,498.533 668.5,497C 667.786,486.721 667.12,476.388 666.5,466C 666.167,465.167 665.833,464.333 665.5,463.5C 664.692,465.423 664.192,467.423 664,469.5C 662.793,467.56 662.626,465.727 663.5,464C 662.54,462.581 661.707,461.081 661,459.5C 660.691,460.766 660.191,461.933 659.5,463C 659.833,463.333 660.167,463.667 660.5,464C 659.256,464.456 658.423,463.956 658,462.5C 656.989,463.337 655.822,463.67 654.5,463.5C 654.666,468.844 654.499,474.177 654,479.5C 653.667,476.833 653.333,474.167 653,471.5C 652.667,472.167 652.333,472.833 652,473.5C 651.604,480.936 650.771,488.269 649.5,495.5C 647.712,495.215 646.045,495.548 644.5,496.5C 645.242,497.287 646.075,497.953 647,498.5C 646.997,502.742 647.83,506.742 649.5,510.5C 643.784,511.261 642.451,513.927 645.5,518.5C 643.698,520.922 641.365,521.755 638.5,521C 639.299,518.519 639.466,515.686 639,512.5C 638.028,514.305 636.861,515.972 635.5,517.5C 634.575,518.641 633.741,518.641 633,517.5C 632.308,518.025 631.808,518.692 631.5,519.5C 632.641,520.425 632.641,521.259 631.5,522C 635.375,523.347 635.375,524.514 631.5,525.5C 631.846,526.696 632.346,526.696 633,525.5C 635.734,526.362 635.901,527.195 633.5,528C 636.076,528.782 638.076,530.282 639.5,532.5C 638.07,532.306 636.57,532.306 635,532.5C 634.333,531.833 633.667,531.167 633,530.5C 633.195,532.126 633.195,533.793 633,535.5C 632.167,534.5 631.333,533.5 630.5,532.5C 629.268,533.145 627.935,533.311 626.5,533C 625.833,533.667 625.167,534.333 624.5,535C 624.5,536.333 624.5,537.667 624.5,539C 625.997,540.871 627.997,541.871 630.5,542C 629.809,543.067 629.309,544.234 629,545.5C 628.667,544.833 628.333,544.167 628,543.5C 626.644,544.38 625.144,544.714 623.5,544.5C 623.785,546.288 623.452,547.955 622.5,549.5C 621.833,547.5 621.167,545.5 620.5,543.5C 619.833,546.167 619.167,548.833 618.5,551.5C 617.833,550.833 617.167,550.167 616.5,549.5C 614.535,552.12 613.035,551.786 612,548.5C 610.703,549.784 609.536,549.617 608.5,548C 609.051,546.602 609.384,545.268 609.5,544C 608.031,540.07 606.864,539.903 606,543.5C 605.727,541.899 605.227,540.399 604.5,539C 605.667,537.833 606.833,536.667 608,535.5C 608.617,536.449 608.451,537.282 607.5,538C 608.108,538.87 608.941,539.37 610,539.5C 611.947,537.896 613.78,536.896 615.5,536.5C 614.271,535.719 612.938,535.219 611.5,535C 611.833,534.667 612.167,534.333 612.5,534C 609.833,533.333 609.833,532.667 612.5,532C 609.937,530.985 608.604,529.485 608.5,527.5C 606.144,530.879 604.311,534.546 603,538.5C 602.25,537.874 601.416,537.374 600.5,537C 600.833,536.667 601.167,536.333 601.5,536C 600.718,533.26 600.218,530.426 600,527.5C 599.692,528.308 599.192,528.975 598.5,529.5C 597.833,524.167 597.167,518.833 596.5,513.5C 595.833,518.167 595.167,522.833 594.5,527.5C 593.671,522.198 593.171,516.864 593,511.5C 592.5,511 592,510.5 591.5,510C 592.784,509.316 593.951,509.483 595,510.5C 596.368,509.007 596.535,507.507 595.5,506C 597.725,505.439 599.725,504.439 601.5,503C 600.681,497.812 600.015,491.979 599.5,485.5C 596.552,485.223 593.719,485.556 591,486.5C 590.193,482.551 589.693,482.551 589.5,486.5C 586.95,486.439 585.45,485.106 585,482.5C 583.687,483.287 582.52,482.954 581.5,481.5C 600.917,479.006 611.584,468.006 613.5,448.5C 611.92,427.753 600.754,416.42 580,414.5C 552.83,419.685 542.83,435.685 550,462.5C 555.851,474.166 565.351,480.499 578.5,481.5C 574.019,484.766 574.685,486.266 580.5,486C 578.167,486.667 575.833,486.667 573.5,486C 572.333,485.5 571.5,484.667 571,483.5C 570.667,484.5 570.333,485.5 570,486.5C 569.667,484.833 569.333,483.167 569,481.5C 568.177,488.134 567.677,488.134 567.5,481.5C 564.552,481.777 561.719,481.444 559,480.5C 556.667,481.5 554.333,482.5 552,483.5C 551.667,482.833 551.333,482.167 551,481.5C 550.333,483.167 550.333,484.833 551,486.5C 551.333,486.167 551.667,485.833 552,485.5C 552.667,486.833 553.333,488.167 554,489.5C 554.333,488.833 554.667,488.167 555,487.5C 555.862,489.087 556.529,490.754 557,492.5C 557.333,491.5 557.667,490.5 558,489.5C 558.495,491.473 558.662,493.473 558.5,495.5C 556.135,496.051 553.801,496.884 551.5,498C 553.833,498.333 556.167,498.667 558.5,499C 555.406,500.346 554.406,502.513 555.5,505.5C 557.207,501.864 558.374,501.864 559,505.5C 560.419,503.664 561.586,501.664 562.5,499.5C 565.474,501.006 565.807,502.672 563.5,504.5C 565.991,505.541 565.991,506.374 563.5,507C 564.938,507.219 566.271,507.719 567.5,508.5C 567.167,509.167 566.833,509.833 566.5,510.5C 568.193,514.322 569.527,513.989 570.5,509.5C 571.167,510.167 571.833,510.833 572.5,511.5C 574.058,506.306 575.058,506.306 575.5,511.5C 578.167,511.5 580.833,511.5 583.5,511.5C 583.172,516.875 583.505,522.208 584.5,527.5C 585.042,521.689 585.876,516.022 587,510.5C 587.047,516.341 587.714,522.008 589,527.5C 589.171,522.136 589.671,516.802 590.5,511.5C 591.833,518.167 591.833,524.833 590.5,531.5C 589.167,536.833 587.833,536.833 586.5,531.5C 584.477,533.173 582.144,533.84 579.5,533.5C 579.058,538.694 578.058,538.694 576.5,533.5C 575.752,535.332 574.752,536.999 573.5,538.5C 573.846,539.696 574.346,539.696 575,538.5C 575.44,540.076 576.273,541.41 577.5,542.5C 575.827,544.523 575.16,546.856 575.5,549.5C 577.492,549.328 579.158,549.995 580.5,551.5C 581.429,550.311 581.762,548.978 581.5,547.5C 583.5,547.5 585.5,547.5 587.5,547.5C 587.5,549.5 587.5,551.5 587.5,553.5C 588.833,553.5 590.167,553.5 591.5,553.5C 591.243,550.068 590.576,546.734 589.5,543.5C 590.833,543.5 592.167,543.5 593.5,543.5C 593.824,551.692 593.157,559.692 591.5,567.5C 588.856,567.16 586.523,567.827 584.5,569.5C 583.833,572.833 583.167,576.167 582.5,579.5C 581.833,580.167 581.167,580.833 580.5,581.5C 578.671,579.844 577.337,577.844 576.5,575.5C 574.962,580.698 575.295,585.698 577.5,590.5C 574.914,591.48 572.247,591.813 569.5,591.5C 569.672,589.508 569.005,587.842 567.5,586.5C 568.617,585.051 569.284,583.384 569.5,581.5C 569.083,576.13 566.75,574.797 562.5,577.5C 561.833,576.833 561.167,576.167 560.5,575.5C 558.5,578.833 556.5,582.167 554.5,585.5C 553.534,587.396 553.201,589.396 553.5,591.5C 550.753,591.187 548.086,591.52 545.5,592.5C 547.5,593.167 549.5,593.833 551.5,594.5C 554.028,595.816 554.028,596.983 551.5,598C 552.759,598.923 554.092,599.757 555.5,600.5C 554.5,601.167 553.5,601.833 552.5,602.5C 555.953,603.479 556.286,604.979 553.5,607C 554.704,608.353 555.371,610.019 555.5,612C 554.431,619.324 553.431,619.158 552.5,611.5C 551.833,612.833 551.167,614.167 550.5,615.5C 549.833,612.833 549.167,610.167 548.5,607.5C 547.833,612.833 547.167,618.167 546.5,623.5C 544.847,607.554 543.847,607.554 543.5,623.5C 539.142,624.618 534.808,625.952 530.5,627.5C 527.554,626.694 524.888,625.361 522.5,623.5C 519.634,625.133 519.134,627.133 521,629.5C 521.998,626.972 522.831,626.972 523.5,629.5C 522.257,631.691 521.424,634.024 521,636.5C 519.175,637.103 517.341,637.77 515.5,638.5C 518.18,642.798 516.846,645.131 511.5,645.5C 511.5,647.5 511.5,649.5 511.5,651.5C 508.833,650.833 506.167,650.167 503.5,649.5C 503.5,648.167 503.5,646.833 503.5,645.5C 500.833,644.833 498.167,644.167 495.5,643.5C 495.5,642.167 495.5,640.833 495.5,639.5C 486.808,639.831 478.141,639.498 469.5,638.5C 468.079,635.991 466.412,633.657 464.5,631.5C 463.571,632.689 463.238,634.022 463.5,635.5C 459.653,634.91 456.32,633.243 453.5,630.5C 456.942,627.446 460.942,625.446 465.5,624.5C 464.456,623.377 463.79,622.044 463.5,620.5C 464.337,618.162 465.17,615.828 466,613.5C 467.209,616.707 468.209,620.041 469,623.5C 469.308,622.692 469.808,622.025 470.5,621.5C 471.833,625.5 474.5,628.167 478.5,629.5C 478.833,628.833 479.167,628.167 479.5,627.5C 478.276,622.614 477.609,617.614 477.5,612.5C 477.667,608.167 477.833,603.833 478,599.5C 478.185,603.656 479.018,607.656 480.5,611.5C 481.167,610.167 481.833,608.833 482.5,607.5C 483.142,612.997 484.142,618.331 485.5,623.5C 486.978,623.762 488.311,623.429 489.5,622.5C 487.393,619.725 487.059,616.725 488.5,613.5C 489.466,615.396 489.799,617.396 489.5,619.5C 490.833,619.5 492.167,619.5 493.5,619.5C 493.187,616.753 493.52,614.086 494.5,611.5C 495.167,613.5 495.833,615.5 496.5,617.5C 497.956,607.433 497.623,597.433 495.5,587.5C 495.895,584.738 496.229,582.238 496.5,580C 493.833,579.333 493.833,578.667 496.5,578C 495.167,577.333 495.167,576.667 496.5,576C 494.924,575.56 493.59,574.727 492.5,573.5C 491.304,573.846 491.304,574.346 492.5,575C 490.521,575.684 488.854,575.184 487.5,573.5C 485.665,574.192 483.832,573.858 482,572.5C 481.418,568.749 479.251,567.082 475.5,567.5C 475.838,577.699 474.004,578.032 470,568.5C 468.382,570.234 466.882,572.067 465.5,574C 466.217,575.531 467.217,576.864 468.5,578C 467.99,579.826 467.156,579.993 466,578.5C 465.689,579.742 466.189,580.742 467.5,581.5C 464.464,584.558 462.464,584.058 461.5,580C 463.004,578.663 464.004,576.996 464.5,575C 463.5,574.333 462.5,574.333 461.5,575C 461.833,575.333 462.167,575.667 462.5,576C 461.1,577.438 459.433,578.271 457.5,578.5C 479.989,542.006 480.155,505.34 458,468.5C 428.135,429.436 389.635,417.269 342.5,432C 297.126,452.891 276.626,488.391 281,538.5C 291.185,586.684 320.685,614.184 369.5,621C 403.102,622.645 430.769,610.811 452.5,585.5C 453.792,587.795 453.126,589.628 450.5,591C 452.134,591.494 453.801,591.66 455.5,591.5C 455.719,592.675 455.386,593.675 454.5,594.5C 451.504,595.815 450.004,598.148 450,601.5C 448.644,602.38 447.144,602.714 445.5,602.5C 445.271,604.433 444.438,606.1 443,607.5C 442.667,606.833 442.333,606.167 442,605.5C 440.47,607.226 439.47,609.226 439,611.5C 438.667,611.167 438.333,610.833 438,610.5C 436.043,612.599 433.877,614.599 431.5,616.5C 428.298,617.047 425.298,618.047 422.5,619.5C 420.833,618.167 419.167,618.167 417.5,619.5C 416.029,618.619 415.196,617.286 415,615.5C 414.044,616.579 413.211,617.745 412.5,619C 413.438,620.063 414.438,621.23 415.5,622.5C 407.615,624.486 399.615,625.819 391.5,626.5C 396.833,627.167 402.167,627.833 407.5,628.5C 405.373,630.876 402.707,631.876 399.5,631.5C 399.5,633.5 399.5,635.5 399.5,637.5C 402.247,637.187 404.914,637.52 407.5,638.5C 399.528,639.498 391.528,639.831 383.5,639.5C 383.5,641.5 383.5,643.5 383.5,645.5C 380.57,646.578 377.57,647.078 374.5,647C 373.191,645.249 373.525,643.749 375.5,642.5C 374.833,642.167 374.167,641.833 373.5,641.5C 371.545,642.453 369.878,643.787 368.5,645.5C 367.833,644.833 367.167,644.167 366.5,643.5C 364.874,647.371 363.874,651.371 363.5,655.5C 362.167,655.5 360.833,655.5 359.5,655.5C 359.876,652.293 358.876,649.627 356.5,647.5C 355.881,650.032 354.881,652.365 353.5,654.5C 350.232,655.487 346.898,655.82 343.5,655.5C 343.5,657.5 343.5,659.5 343.5,661.5C 341.334,661.579 339.334,662.246 337.5,663.5C 335.06,661.078 332.726,661.078 330.5,663.5C 329.833,661.167 329.167,658.833 328.5,656.5C 326.675,668.25 325.675,667.916 325.5,655.5C 320.167,655.5 314.833,655.5 309.5,655.5C 309.5,659.5 307.5,661.5 303.5,661.5C 303.5,659.5 303.5,657.5 303.5,655.5C 290.167,655.5 276.833,655.5 263.5,655.5C 264.167,661.5 261.5,664.167 255.5,663.5C 255.5,662.167 255.5,660.833 255.5,659.5C 250.167,659.5 244.833,659.5 239.5,659.5C 239.5,660.833 239.5,662.167 239.5,663.5C 236.833,662.833 234.167,662.167 231.5,661.5C 231.5,659.5 231.5,657.5 231.5,655.5C 230.178,655.67 229.011,655.337 228,654.5C 222.013,655.731 222.18,656.565 228.5,657C 225.964,657.339 223.464,657.839 221,658.5C 220.5,658.167 220,657.833 219.5,657.5C 220.376,656.749 221.376,656.249 222.5,656C 221.833,655 221.167,654 220.5,653C 221.061,638.561 221.394,623.894 221.5,609C 221.479,597.343 220.812,585.843 219.5,574.5C 220.025,573.808 220.692,573.308 221.5,573C 219.998,572.417 218.665,571.584 217.5,570.5C 219.5,569.667 221.5,568.833 223.5,568C 222.484,567.481 221.818,566.647 221.5,565.5C 222.547,563.944 223.214,562.277 223.5,560.5C 222.448,560.649 221.448,560.483 220.5,560C 221.61,557.263 221.777,554.429 221,551.5C 220.08,551.07 219.247,550.736 218.5,550.5C 219.582,546.063 218.582,542.063 215.5,538.5C 216.355,537.707 217.189,538.04 218,539.5C 218.465,538.069 219.299,536.903 220.5,536C 216.402,532.351 216.735,529.018 221.5,526C 220.5,525.167 219.5,524.333 218.5,523.5C 219.668,522.094 219.335,520.928 217.5,520C 218.196,515.866 218.863,511.7 219.5,507.5C 218.391,505.786 219.058,505.119 221.5,505.5C 221.334,496.827 221.5,488.16 222,479.5C 222.333,482.167 222.667,484.833 223,487.5C 223.17,481.804 223.67,476.138 224.5,470.5C 225.768,471.428 227.101,471.595 228.5,471C 227.833,470.667 227.167,470.333 226.5,470C 227.956,469.577 228.456,468.744 228,467.5C 226.482,467.057 225.315,467.724 224.5,469.5C 223.548,467.955 223.215,466.288 223.5,464.5C 225.103,464.688 226.437,464.188 227.5,463C 226.324,461.086 225.324,461.252 224.5,463.5C 223.005,460.355 223.338,457.522 225.5,455C 225.167,454 224.833,453 224.5,452C 226.08,449.705 228.08,448.372 230.5,448C 229.521,449.779 229.854,451.445 231.5,453C 230.833,453.333 230.167,453.667 229.5,454C 233.071,458.822 235.905,458.322 238,452.5C 238.915,453.328 239.581,454.328 240,455.5C 242.303,453.662 242.969,451.328 242,448.5C 241.781,449.938 241.281,451.271 240.5,452.5C 236.661,451.279 236.661,450.612 240.5,450.5C 240.649,449.448 240.483,448.448 240,447.5C 237.925,450.028 237.092,449.861 237.5,447C 234.833,446.333 234.833,445.667 237.5,445C 235.381,444.993 233.547,443.826 232,441.5C 231.887,439.026 230.887,437.026 229,435.5C 228.333,436.833 227.667,438.167 227,439.5C 226.981,436.692 225.981,434.359 224,432.5C 223.611,425.901 224.111,419.401 225.5,413C 224.978,412.439 224.645,411.772 224.5,411C 225.52,408.974 227.187,407.641 229.5,407C 228.833,406.667 228.167,406.333 227.5,406C 230.167,405.333 230.167,404.667 227.5,404C 228.76,402.887 229.927,402.72 231,403.5C 232.368,402.007 232.535,400.507 231.5,399C 232.833,398 234.167,397 235.5,396C 234.833,395.667 234.167,395.333 233.5,395C 236.167,394 238.833,393 241.5,392C 240.833,391.333 240.167,390.667 239.5,390C 241.651,391.117 243.985,391.784 246.5,392C 245.483,390.951 245.316,389.784 246,388.5C 246.414,388.957 246.914,389.291 247.5,389.5C 248.281,388.271 248.781,386.938 249,385.5C 249.333,387.5 249.667,389.5 250,391.5C 251.705,388.591 253.539,385.758 255.5,383C 253.999,381.748 252.332,380.748 250.5,380C 251.536,378.383 252.703,378.216 254,379.5C 254.419,378.328 255.085,377.328 256,376.5C 256.626,378.991 257.459,378.991 258.5,376.5C 259.519,377.687 260.686,378.687 262,379.5C 263.14,377.922 263.64,376.256 263.5,374.5C 264.651,373.269 265.817,373.269 267,374.5C 268.101,372.606 269.434,371.939 271,372.5C 271.456,371.256 270.956,370.423 269.5,370C 271.869,369.464 273.869,368.297 275.5,366.5C 277.224,367.661 278.89,367.495 280.5,366C 281.573,364.406 282.573,362.906 283.5,361.5C 287.796,364.009 291.963,364.009 296,361.5C 297.487,362.253 297.654,363.086 296.5,364C 297.766,364.309 298.933,364.809 300,365.5C 302.522,362.674 304.522,363.007 306,366.5C 306.333,365.5 306.667,364.5 307,363.5C 307.569,367.361 308.402,367.361 309.5,363.5C 313.055,363.298 316.722,363.631 320.5,364.5C 321.892,363.395 323.059,362.061 324,360.5C 323.021,362.279 323.354,363.945 325,365.5C 325.317,363.699 325.984,363.366 327,364.5C 330,363.833 333,363.167 336,362.5C 339.332,364.443 339.166,365.61 335.5,366C 338.482,366.498 341.482,366.665 344.5,366.5C 344.693,362.551 345.193,362.551 346,366.5C 346.474,361.373 347.474,361.373 349,366.5C 349.878,363.785 351.378,361.451 353.5,359.5C 354.833,362.167 356.167,362.167 357.5,359.5C 358.281,360.737 359.281,361.737 360.5,362.5C 362.5,360.5 364.5,358.5 366.5,356.5C 367.386,357.325 367.719,358.325 367.5,359.5C 369.167,359.5 370.833,359.5 372.5,359.5C 372.336,356.813 372.503,354.146 373,351.5C 374.324,359.5 374.991,359.5 375,351.5C 371.946,349.877 372.446,349.21 376.5,349.5C 376.183,353.702 376.517,357.702 377.5,361.5 Z M 581.5,481.5 C 580.5,481.5 579.5,481.5 578.5,481.5C 565.351,480.499 555.851,474.166 550,462.5C 542.83,435.685 552.83,419.685 580,414.5C 600.754,416.42 611.92,427.753 613.5,448.5C 611.584,468.006 600.917,479.006 581.5,481.5 Z M 457.5,578.5 C 455.6,580.619 453.934,582.953 452.5,585.5C 430.769,610.811 403.102,622.645 369.5,621C 320.685,614.184 291.185,586.684 281,538.5C 276.626,488.391 297.126,452.891 342.5,432C 389.635,417.269 428.135,429.436 458,468.5C 480.155,505.34 479.989,542.006 457.5,578.5 Z M 371.5,470.5 C 357.337,472.836 345.503,479.503 336,490.5C 322.965,508.846 321.299,528.18 331,548.5C 344.076,569.285 362.909,578.118 387.5,575C 417.311,565.898 431.145,545.731 429,514.5C 421.447,484.793 402.28,470.127 371.5,470.5 Z"/></g>
<g><path style="opacity:1" fill="#fdfcf9" d="M 402.5,361.5 C 479.167,361.333 555.834,361.5 632.5,362C 653.185,365.852 665.851,378.018 670.5,398.5C 669.35,397.15 668.683,397.316 668.5,399C 669.606,400.882 669.606,402.716 668.5,404.5C 666.627,405.089 664.96,404.422 663.5,402.5C 663.891,403.718 663.224,404.552 661.5,405C 662.167,405.333 662.833,405.667 663.5,406C 661.581,407.934 660.081,407.767 659,405.5C 657.655,411.39 657.822,417.057 659.5,422.5C 659.255,424.745 659.255,427.078 659.5,429.5C 658.537,431.49 657.204,431.823 655.5,430.5C 656.8,427.679 656.467,425.012 654.5,422.5C 655.885,421.449 656.885,420.116 657.5,418.5C 656.817,415.539 655.984,415.205 655,417.5C 655.052,413.344 654.219,409.51 652.5,406C 653.167,405.667 653.833,405.333 654.5,405C 651.719,403.553 649.219,401.72 647,399.5C 645.577,394.379 644.577,394.379 644,399.5C 643.667,396.833 643.333,394.167 643,391.5C 642.185,396.448 641.018,396.281 639.5,391C 636.447,390.821 633.447,390.321 630.5,389.5C 629.35,386.68 628.184,386.346 627,388.5C 624.211,388.108 621.544,386.775 619,384.5C 617.527,384.903 616.194,385.57 615,386.5C 614.667,386.167 614.333,385.833 614,385.5C 613,388.167 612,388.167 611,385.5C 609.424,384.987 608.091,385.654 607,387.5C 605.56,386.852 604.06,386.519 602.5,386.5C 602.649,385.448 602.483,384.448 602,383.5C 601.333,384.833 600.667,386.167 600,387.5C 599.692,386.692 599.192,386.025 598.5,385.5C 595.932,386.19 593.432,386.523 591,386.5C 590.667,385.833 590.333,385.167 590,384.5C 589.333,387.167 588.667,387.167 588,384.5C 586.667,384.5 585.333,384.5 584,384.5C 578.401,387.743 572.568,388.243 566.5,386C 567.685,384.647 569.019,383.48 570.5,382.5C 570.167,381.5 569.5,380.833 568.5,380.5C 567.573,381.906 566.573,383.406 565.5,385C 562.456,385.359 562.122,386.026 564.5,387C 562.926,387.699 561.593,387.365 560.5,386C 562.361,384.972 563.695,383.472 564.5,381.5C 563.23,380.438 562.063,379.438 561,378.5C 559.175,381.311 557.842,384.311 557,387.5C 556.13,386.892 555.63,386.059 555.5,385C 557.141,383.354 556.807,382.354 554.5,382C 555.654,381.086 555.487,380.253 554,379.5C 552.784,381.962 552.118,384.629 552,387.5C 550.858,385.223 550.358,382.89 550.5,380.5C 549.02,381.989 548.187,383.655 548,385.5C 547.692,384.692 547.192,384.025 546.5,383.5C 545.459,385.991 544.626,385.991 544,383.5C 542.933,384.191 541.766,384.691 540.5,385C 541.624,385.249 542.624,385.749 543.5,386.5C 540.283,387.296 537.117,386.963 534,385.5C 533.333,388.167 532.667,388.167 532,385.5C 531.316,387.359 530.316,389.026 529,390.5C 527.913,388.068 527.413,388.402 527.5,391.5C 524.428,391.817 521.428,391.484 518.5,390.5C 518.709,389.914 519.043,389.414 519.5,389C 518.258,385.643 517.424,385.81 517,389.5C 516.717,386.258 515.883,385.924 514.5,388.5C 513.289,387.726 513.289,386.893 514.5,386C 512.77,384.148 511.604,384.314 511,386.5C 508.804,383.355 505.804,383.021 502,385.5C 499.889,385.423 497.889,385.089 496,384.5C 494.467,387.331 491.8,389.665 488,391.5C 487.781,390.062 487.281,388.729 486.5,387.5C 486.382,389.083 485.549,390.749 484,392.5C 484.186,385.356 482.852,385.023 480,391.5C 479.692,390.692 479.192,390.025 478.5,389.5C 477.676,392.785 477.176,396.118 477,399.5C 475.644,398.864 474.478,397.697 473.5,396C 473.833,395.5 474.167,395 474.5,394.5C 476.127,395.919 476.627,395.586 476,393.5C 474.482,393.943 473.315,393.276 472.5,391.5C 471.252,392.04 470.085,392.707 469,393.5C 467.984,392.366 467.317,392.699 467,394.5C 465.68,392.417 464.346,392.751 463,395.5C 460.765,390.354 458.765,390.354 457,395.5C 455.274,394.424 453.441,394.257 451.5,395C 453.929,395.451 454.096,396.285 452,397.5C 450.16,396.167 449.66,396.334 450.5,398C 449.5,398.667 448.5,398.667 447.5,398C 449.027,396.307 450.36,394.473 451.5,392.5C 449.902,392.39 448.235,392.057 446.5,391.5C 444.806,393.554 443.639,395.888 443,398.5C 442.054,396.212 440.887,394.045 439.5,392C 438.5,391.333 437.5,391.333 436.5,392C 437.451,392.718 437.617,393.551 437,394.5C 434.123,392.596 430.956,391.596 427.5,391.5C 427.5,392.5 427.5,393.5 427.5,394.5C 424.833,394.5 422.167,394.5 419.5,394.5C 419.5,393.5 419.5,392.5 419.5,391.5C 416.491,391.423 414.324,392.756 413,395.5C 412.309,393.109 411.309,393.109 410,395.5C 408.187,394.391 407.354,395.058 407.5,397.5C 404.577,398.453 401.744,398.786 399,398.5C 398.624,395.99 397.79,393.657 396.5,391.5C 395.029,392.381 394.196,393.714 394,395.5C 393.667,394.167 393.333,392.833 393,391.5C 392.218,394.073 390.718,396.073 388.5,397.5C 388.167,397.333 387.833,397.167 387.5,397C 388.899,395.938 389.899,394.605 390.5,393C 389.352,391.274 388.185,391.441 387,393.5C 386.692,392.692 386.192,392.025 385.5,391.5C 385.433,393.424 385.1,395.424 384.5,397.5C 382.263,397.306 380.097,397.306 378,397.5C 372.865,390.78 373.865,389.78 381,394.5C 382.688,393.675 382.855,392.675 381.5,391.5C 383.422,390.04 384.089,388.373 383.5,386.5C 382.242,387.016 381.242,386.35 380.5,384.5C 381.325,383.614 382.325,383.281 383.5,383.5C 383.477,381.073 382.977,378.74 382,376.5C 381.667,377.5 381.333,378.5 381,379.5C 380.833,378.833 380.667,378.167 380.5,377.5C 380.751,375.292 380.751,373.125 380.5,371C 379.953,370.075 379.287,369.242 378.5,368.5C 378.704,369.529 378.204,370.529 377,371.5C 376.727,369.899 376.227,368.399 375.5,367C 376,366.5 376.5,366 377,365.5C 378,368.167 379,368.167 380,365.5C 380.333,365.833 380.667,366.167 381,366.5C 382.204,365.529 382.704,364.529 382.5,363.5C 384.12,366.058 385.62,366.058 387,363.5C 388.204,364.471 388.704,365.471 388.5,366.5C 389.386,365.675 389.719,364.675 389.5,363.5C 394.5,363.5 399.5,363.5 404.5,363.5C 404.557,368.682 405.224,368.682 406.5,363.5C 407.5,364.833 408.5,364.833 409.5,363.5C 410.192,364.025 410.692,364.692 411,365.5C 412.353,364.296 414.019,363.629 416,363.5C 420.382,364.153 424.882,363.986 429.5,363C 420.324,362.83 411.324,362.33 402.5,361.5 Z"/></g>
<g><path style="opacity:1" fill="#fefdfa" d="M 824.5,408.5 C 825.15,410.435 825.483,412.435 825.5,414.5C 825.833,440.509 825.5,466.509 824.5,492.5C 824.453,484.564 824.453,476.231 824.5,467.5C 823.811,465.556 823.311,463.556 823,461.5C 822.239,470.299 821.739,470.466 821.5,462C 821.581,459.375 822.248,457.041 823.5,455C 822.874,454.25 822.374,453.416 822,452.5C 820.465,457.369 819.465,462.369 819,467.5C 818.487,463.497 817.653,459.664 816.5,456C 817.167,455.667 817.833,455.333 818.5,455C 818.665,452.743 818.165,450.576 817,448.5C 813.404,450.101 810.071,449.768 807,447.5C 806.297,450.739 805.297,453.405 804,455.5C 802.956,454.377 802.29,453.044 802,451.5C 801.611,458.175 801.778,464.841 802.5,471.5C 800.138,472.357 797.804,472.691 795.5,472.5C 793.907,470.34 792.24,470.173 790.5,472C 790.833,472.333 791.167,472.667 791.5,473C 790.075,474.362 789.242,475.862 789,477.5C 788.667,476.167 788.333,474.833 788,473.5C 787.333,474.833 786.667,474.833 786,473.5C 785.667,474.833 785.333,476.167 785,477.5C 784.808,475.423 784.308,473.423 783.5,471.5C 783.722,474.125 783.055,476.791 781.5,479.5C 780.575,478.359 779.741,478.359 779,479.5C 778.137,477.251 778.637,475.418 780.5,474C 779.333,473.5 778.5,472.667 778,471.5C 778.732,480.373 775.566,482.373 768.5,477.5C 768.264,478.247 767.93,479.08 767.5,480C 770.279,480.149 770.779,480.983 769,482.5C 768.667,482.167 768.333,481.833 768,481.5C 767.808,483.577 767.308,485.577 766.5,487.5C 765.571,486.311 765.238,484.978 765.5,483.5C 764.022,483.238 762.689,483.571 761.5,484.5C 759.013,486.809 757.013,489.476 755.5,492.5C 754.311,493.429 752.978,493.762 751.5,493.5C 751.5,496.833 751.5,500.167 751.5,503.5C 747.643,502.962 744.309,503.962 741.5,506.5C 742.833,507.833 744.167,509.167 745.5,510.5C 741.5,511.167 737.5,511.833 733.5,512.5C 735.005,513.842 735.672,515.508 735.5,517.5C 734.167,517.5 732.833,517.5 731.5,517.5C 731.328,519.492 731.995,521.158 733.5,522.5C 732.167,523.167 730.833,523.833 729.5,524.5C 732.309,527.038 735.643,528.038 739.5,527.5C 739.5,528.833 739.5,530.167 739.5,531.5C 741.492,531.328 743.158,531.995 744.5,533.5C 750.859,525.363 752.859,526.696 750.5,537.5C 746.734,542.549 741.734,545.215 735.5,545.5C 735.16,548.144 735.827,550.477 737.5,552.5C 741.98,554.454 746.647,555.454 751.5,555.5C 751.238,554.022 751.571,552.689 752.5,551.5C 753.58,553.996 754.914,556.33 756.5,558.5C 755.546,564.104 755.212,569.771 755.5,575.5C 753.5,575.5 751.5,575.5 749.5,575.5C 748.509,579.463 747.509,583.463 746.5,587.5C 744.717,584.9 742.717,582.566 740.5,580.5C 739.833,582.833 739.167,585.167 738.5,587.5C 737.833,586.833 737.167,586.167 736.5,585.5C 734.401,587.534 732.068,587.868 729.5,586.5C 728.167,584.5 726.833,582.5 725.5,580.5C 723.604,579.534 721.604,579.201 719.5,579.5C 718.51,575.595 717.844,571.595 717.5,567.5C 719.163,554.217 719.83,540.884 719.5,527.5C 724.833,526.833 724.833,526.167 719.5,525.5C 720.167,522.833 720.833,520.167 721.5,517.5C 716.555,518.324 713.888,516.324 713.5,511.5C 714.833,511.5 716.167,511.5 717.5,511.5C 717.102,501.716 717.935,492.05 720,482.5C 720.333,482.833 720.667,483.167 721,483.5C 721.11,480.354 722.443,479.354 725,480.5C 725.338,477.734 724.838,475.067 723.5,472.5C 723.833,471.5 724.167,470.5 724.5,469.5C 725.906,470.951 727.406,472.284 729,473.5C 728.05,470.697 728.884,468.364 731.5,466.5C 731.167,465.833 730.833,465.167 730.5,464.5C 734.218,463.807 737.551,462.307 740.5,460C 740.167,459.667 739.833,459.333 739.5,459C 741.774,458.53 743.774,457.53 745.5,456C 747.473,455.505 749.473,455.338 751.5,455.5C 751.223,452.552 751.556,449.719 752.5,447C 750.291,446.043 750.457,444.876 753,443.5C 753.667,444.167 754.333,444.833 755,445.5C 757.042,443.396 759.542,442.229 762.5,442C 763.376,440.415 764.709,439.415 766.5,439C 764.314,438.396 764.148,437.23 766,435.5C 767.395,436.815 768.395,436.481 769,434.5C 769.249,435.624 769.749,436.624 770.5,437.5C 771.205,435.328 772.205,433.328 773.5,431.5C 774.333,432.5 775.167,433.5 776,434.5C 776.182,431.774 776.682,429.107 777.5,426.5C 778.833,433.167 780.167,433.167 781.5,426.5C 781.757,429.603 782.257,432.603 783,435.5C 783.333,433.167 783.667,430.833 784,428.5C 789.672,429.619 795.839,428.953 802.5,426.5C 803.5,426.667 804.5,426.833 805.5,427C 804.167,427.333 802.833,427.667 801.5,428C 803.5,428.333 805.5,428.667 807.5,429C 806.167,429.333 804.833,429.667 803.5,430C 805.218,430.346 806.885,430.846 808.5,431.5C 810.418,436.675 811.751,442.008 812.5,447.5C 813.329,442.198 813.829,436.864 814,431.5C 814.667,434.167 815.333,434.167 816,431.5C 816.333,434.167 816.667,436.833 817,439.5C 817.333,436.167 817.667,432.833 818,429.5C 819.326,425.017 821.492,420.85 824.5,417C 823.887,414.853 823.221,412.686 822.5,410.5C 820.492,412.762 820.159,412.262 821.5,409C 822.448,408.517 823.448,408.351 824.5,408.5 Z"/></g>
<g><path style="opacity:1" fill="#fdfcf8" d="M 824.5,408.5 C 823.448,408.351 822.448,408.517 821.5,409C 820.159,412.262 820.492,412.762 822.5,410.5C 823.221,412.686 823.887,414.853 824.5,417C 821.492,420.85 819.326,425.017 818,429.5C 817.667,432.833 817.333,436.167 817,439.5C 816.667,436.833 816.333,434.167 816,431.5C 815.333,434.167 814.667,434.167 814,431.5C 813.829,436.864 813.329,442.198 812.5,447.5C 811.751,442.008 810.418,436.675 808.5,431.5C 806.885,430.846 805.218,430.346 803.5,430C 804.833,429.667 806.167,429.333 807.5,429C 805.5,428.667 803.5,428.333 801.5,428C 802.833,427.667 804.167,427.333 805.5,427C 804.5,426.833 803.5,426.667 802.5,426.5C 795.839,428.953 789.672,429.619 784,428.5C 783.667,430.833 783.333,433.167 783,435.5C 782.257,432.603 781.757,429.603 781.5,426.5C 780.167,433.167 778.833,433.167 777.5,426.5C 776.682,429.107 776.182,431.774 776,434.5C 775.167,433.5 774.333,432.5 773.5,431.5C 772.205,433.328 771.205,435.328 770.5,437.5C 769.749,436.624 769.249,435.624 769,434.5C 768.395,436.481 767.395,436.815 766,435.5C 764.148,437.23 764.314,438.396 766.5,439C 764.709,439.415 763.376,440.415 762.5,442C 759.542,442.229 757.042,443.396 755,445.5C 754.333,444.833 753.667,444.167 753,443.5C 750.457,444.876 750.291,446.043 752.5,447C 751.556,449.719 751.223,452.552 751.5,455.5C 749.473,455.338 747.473,455.505 745.5,456C 743.774,457.53 741.774,458.53 739.5,459C 739.833,459.333 740.167,459.667 740.5,460C 737.551,462.307 734.218,463.807 730.5,464.5C 730.833,465.167 731.167,465.833 731.5,466.5C 728.884,468.364 728.05,470.697 729,473.5C 727.406,472.284 725.906,470.951 724.5,469.5C 724.167,470.5 723.833,471.5 723.5,472.5C 724.838,475.067 725.338,477.734 725,480.5C 722.443,479.354 721.11,480.354 721,483.5C 720.667,483.167 720.333,482.833 720,482.5C 717.935,492.05 717.102,501.716 717.5,511.5C 716.167,511.5 714.833,511.5 713.5,511.5C 713.888,516.324 716.555,518.324 721.5,517.5C 720.833,520.167 720.167,522.833 719.5,525.5C 724.833,526.167 724.833,526.833 719.5,527.5C 719.83,540.884 719.163,554.217 717.5,567.5C 717.844,571.595 718.51,575.595 719.5,579.5C 721.604,579.201 723.604,579.534 725.5,580.5C 726.833,582.5 728.167,584.5 729.5,586.5C 732.068,587.868 734.401,587.534 736.5,585.5C 737.167,586.167 737.833,586.833 738.5,587.5C 739.167,585.167 739.833,582.833 740.5,580.5C 742.717,582.566 744.717,584.9 746.5,587.5C 747.509,583.463 748.509,579.463 749.5,575.5C 751.5,575.5 753.5,575.5 755.5,575.5C 755.212,569.771 755.546,564.104 756.5,558.5C 754.914,556.33 753.58,553.996 752.5,551.5C 751.571,552.689 751.238,554.022 751.5,555.5C 746.647,555.454 741.98,554.454 737.5,552.5C 735.827,550.477 735.16,548.144 735.5,545.5C 741.734,545.215 746.734,542.549 750.5,537.5C 752.859,526.696 750.859,525.363 744.5,533.5C 743.158,531.995 741.492,531.328 739.5,531.5C 739.5,530.167 739.5,528.833 739.5,527.5C 735.643,528.038 732.309,527.038 729.5,524.5C 730.833,523.833 732.167,523.167 733.5,522.5C 731.995,521.158 731.328,519.492 731.5,517.5C 732.833,517.5 734.167,517.5 735.5,517.5C 735.672,515.508 735.005,513.842 733.5,512.5C 737.5,511.833 741.5,511.167 745.5,510.5C 744.167,509.167 742.833,507.833 741.5,506.5C 744.309,503.962 747.643,502.962 751.5,503.5C 751.5,500.167 751.5,496.833 751.5,493.5C 752.978,493.762 754.311,493.429 755.5,492.5C 757.013,489.476 759.013,486.809 761.5,484.5C 762.689,483.571 764.022,483.238 765.5,483.5C 765.238,484.978 765.571,486.311 766.5,487.5C 767.308,485.577 767.808,483.577 768,481.5C 768.333,481.833 768.667,482.167 769,482.5C 770.779,480.983 770.279,480.149 767.5,480C 767.93,479.08 768.264,478.247 768.5,477.5C 775.566,482.373 778.732,480.373 778,471.5C 778.5,472.667 779.333,473.5 780.5,474C 778.637,475.418 778.137,477.251 779,479.5C 779.741,478.359 780.575,478.359 781.5,479.5C 783.055,476.791 783.722,474.125 783.5,471.5C 784.308,473.423 784.808,475.423 785,477.5C 785.333,476.167 785.667,474.833 786,473.5C 786.667,474.833 787.333,474.833 788,473.5C 788.333,474.833 788.667,476.167 789,477.5C 789.242,475.862 790.075,474.362 791.5,473C 791.167,472.667 790.833,472.333 790.5,472C 792.24,470.173 793.907,470.34 795.5,472.5C 797.804,472.691 800.138,472.357 802.5,471.5C 801.778,464.841 801.611,458.175 802,451.5C 802.29,453.044 802.956,454.377 804,455.5C 805.297,453.405 806.297,450.739 807,447.5C 810.071,449.768 813.404,450.101 817,448.5C 818.165,450.576 818.665,452.743 818.5,455C 817.833,455.333 817.167,455.667 816.5,456C 817.653,459.664 818.487,463.497 819,467.5C 819.465,462.369 820.465,457.369 822,452.5C 822.374,453.416 822.874,454.25 823.5,455C 822.248,457.041 821.581,459.375 821.5,462C 821.739,470.466 822.239,470.299 823,461.5C 823.311,463.556 823.811,465.556 824.5,467.5C 824.453,476.231 824.453,484.564 824.5,492.5C 825.5,466.509 825.833,440.509 825.5,414.5C 826.666,485.999 826.832,557.665 826,629.5C 822.527,642.623 814.027,648.123 800.5,646C 765.047,630.107 729.714,613.941 694.5,597.5C 693.333,547.503 693.167,497.503 694,447.5C 729.424,430.538 764.924,413.705 800.5,397C 811.265,395.217 819.265,399.05 824.5,408.5 Z"/></g>
<g><path style="opacity:1" fill="#fcfcf9" d="M 575.5,436.5 C 587.998,435.821 593.165,441.488 591,453.5C 584.406,462.285 577.406,462.619 570,454.5C 566.709,446.818 568.542,440.818 575.5,436.5 Z"/></g>
<g><path style="opacity:1" fill="#fdfdf8" d="M 369.5,446.5 C 402.298,445.311 427.131,458.645 444,486.5C 461.177,526.291 453.01,559.791 419.5,587C 382.258,607.817 348.758,602.983 319,572.5C 296.052,540.417 295.718,508.084 318,475.5C 331.648,459.43 348.814,449.763 369.5,446.5 Z M 371.5,470.5 C 357.337,472.836 345.503,479.503 336,490.5C 322.965,508.846 321.299,528.18 331,548.5C 344.076,569.285 362.909,578.118 387.5,575C 417.311,565.898 431.145,545.731 429,514.5C 421.447,484.793 402.28,470.127 371.5,470.5 Z"/></g>
<g><path style="opacity:1" fill="#fcfcf8" d="M 355.5,490.5 C 366.867,488.542 373.534,493.209 375.5,504.5C 373.111,516.363 366.111,520.529 354.5,517C 343.833,507.807 344.166,498.974 355.5,490.5 Z"/></g>
</svg>
