<?xml version="1.0" encoding="UTF-8"?>
<!DOCTYPE svg PUBLIC "-//W3C//DTD SVG 1.1//EN" "http://www.w3.org/Graphics/SVG/1.1/DTD/svg11.dtd">
<svg xmlns="http://www.w3.org/2000/svg" version="1.1" width="2048px" height="2048px" style="shape-rendering:geometricPrecision; text-rendering:geometricPrecision; image-rendering:optimizeQuality; fill-rule:evenodd; clip-rule:evenodd" xmlns:xlink="http://www.w3.org/1999/xlink">
<g><path style="opacity:1" fill="#010101" d="M 1712.5,925.5 C 1692.83,925.5 1673.17,925.5 1653.5,925.5C 1653.83,860.665 1653.5,795.998 1652.5,731.5C 1650.31,703.577 1636.97,683.077 1612.5,670C 1605.79,666.986 1598.79,664.986 1591.5,664C 1195.5,663.333 799.5,663.333 403.5,664C 366.756,671.079 346.256,693.246 342,730.5C 341.333,994.167 341.333,1257.83 342,1521.5C 345.939,1557.43 365.439,1579.6 400.5,1588C 800.195,1589 1199.86,1588.66 1599.5,1587C 1627.26,1578.91 1644.42,1560.74 1651,1532.5C 1652.14,1467.19 1652.97,1401.85 1653.5,1336.5C 1671.14,1335.93 1688.81,1335.59 1706.5,1335.5C 1708.76,1335.53 1710.93,1335.87 1713,1336.5C 1713.67,1397.5 1713.67,1458.5 1713,1519.5C 1709.99,1575.8 1683.16,1615.97 1632.5,1640C 1619.97,1645.04 1606.97,1648.04 1593.5,1649C 1195.5,1649.67 797.5,1649.67 399.5,1649C 351.824,1643.28 316.657,1619.44 294,1577.5C 287.765,1563.79 283.765,1549.46 282,1534.5C 281.333,1262.5 281.333,990.5 282,718.5C 283.175,707.31 286.175,696.644 291,686.5C 295.193,630.304 325.36,598.804 381.5,592C 702.905,541.466 1024.24,490.466 1345.5,439C 1387.24,432.126 1429.07,425.96 1471,420.5C 1528.67,423.656 1567.34,452.323 1587,506.5C 1588.72,512.752 1590.05,519.086 1591,525.5C 1592.41,551.472 1592.91,577.472 1592.5,603.5C 1646.73,609.34 1684.23,637.34 1705,687.5C 1709.72,700.423 1712.38,713.756 1713,727.5C 1713.35,794.002 1713.19,860.002 1712.5,925.5 Z M 1459.5,482.5 C 1496.49,479.641 1519.83,495.974 1529.5,531.5C 1529.29,532.086 1528.96,532.586 1528.5,533C 1377.87,536.848 1227.2,540.514 1076.5,544C 1204.18,523.261 1331.85,502.761 1459.5,482.5 Z M 1494.5,567.5 C 1506.35,567.57 1518.35,567.57 1530.5,567.5C 1530.5,579.167 1530.5,590.833 1530.5,602.5C 1256.16,602.352 981.826,602.518 707.5,603C 748.659,595.14 789.992,588.14 831.5,582C 1052.33,579.095 1273.33,574.262 1494.5,567.5 Z"/></g>
<g><path style="opacity:1" fill="#010101" d="M 462.5,711.5 C 653.167,711.333 843.834,711.5 1034.5,712C 1046.89,716.609 1050.72,725.109 1046,737.5C 1043.34,741.161 1039.84,743.661 1035.5,745C 846.833,745.333 658.167,745.667 469.5,746C 447.446,748.268 432.612,759.768 425,780.5C 423.276,788.069 422.443,795.736 422.5,803.5C 423.375,993.936 423.542,1184.6 423,1375.5C 418.901,1389.43 410.068,1393.6 396.5,1388C 393.457,1385.41 391.29,1382.24 390,1378.5C 389.333,1179.5 389.333,980.5 390,781.5C 395.64,750.854 412.806,729.354 441.5,717C 448.514,714.705 455.514,712.872 462.5,711.5 Z"/></g>
<g><path style="opacity:1" fill="#141413" d="M 1652.5,731.5 C 1653.5,795.998 1653.83,860.665 1653.5,925.5C 1673.17,925.5 1692.83,925.5 1712.5,925.5C 1692.67,926.497 1672.67,926.83 1652.5,926.5C 1652.5,861.5 1652.5,796.5 1652.5,731.5 Z"/></g>
<g><path style="opacity:1" fill="#010101" d="M 1394.5,955.5 C 1499.5,955.466 1604.5,955.966 1709.5,957C 1744.24,963.402 1767.74,983.235 1780,1016.5C 1782.13,1023.35 1783.46,1030.35 1784,1037.5C 1784.67,1099.17 1784.67,1160.83 1784,1222.5C 1779.09,1261.83 1757.92,1288 1720.5,1301C 1715.24,1302.39 1709.91,1303.39 1704.5,1304C 1596.83,1304.67 1489.17,1304.67 1381.5,1304C 1333.52,1297.68 1300.35,1272.18 1282,1227.5C 1279.86,1221.29 1278.2,1214.96 1277,1208.5C 1275.87,1183.03 1275.37,1157.53 1275.5,1132C 1275.67,1108.83 1275.83,1085.67 1276,1062.5C 1281.08,1022.8 1300.58,992.632 1334.5,972C 1353.37,961.87 1373.37,956.37 1394.5,955.5 Z M 1392.5,1016.5 C 1408.44,1016.7 1424.44,1016.7 1440.5,1016.5C 1510.36,1016.56 1580.36,1016.56 1650.5,1016.5C 1668.16,1017.16 1685.82,1017.66 1703.5,1018C 1714.17,1020.83 1720.67,1027.66 1723,1038.5C 1723.2,1043.09 1723.7,1047.59 1724.5,1052C 1723.67,1108.43 1723.17,1164.93 1723,1221.5C 1719.83,1232.67 1712.67,1239.83 1701.5,1243C 1596.17,1243.67 1490.83,1243.67 1385.5,1243C 1357.47,1236.97 1340.97,1219.81 1336,1191.5C 1335.33,1150.83 1335.33,1110.17 1336,1069.5C 1340.44,1042.89 1355.61,1025.89 1381.5,1018.5C 1385.34,1018.07 1389,1017.4 1392.5,1016.5 Z M 1440.5,1090.5 C 1465.36,1087.99 1480.86,1098.65 1487,1122.5C 1488.25,1144.57 1478.42,1159.07 1457.5,1166C 1432.78,1169.06 1417.28,1158.56 1411,1134.5C 1409.63,1112.22 1419.46,1097.55 1440.5,1090.5 Z"/></g>
<g><path style="opacity:1" fill="#171818" d="M 1392.5,1016.5 C 1389,1017.4 1385.34,1018.07 1381.5,1018.5C 1383.15,1017.03 1384.98,1015.7 1387,1014.5C 1388.4,1016.19 1390.23,1016.86 1392.5,1016.5 Z"/></g>
<g><path style="opacity:1" fill="#090a0b" d="M 1440.5,1016.5 C 1510.5,1015.17 1580.5,1015.17 1650.5,1016.5C 1580.36,1016.56 1510.36,1016.56 1440.5,1016.5 Z"/></g>
<g><path style="opacity:1" fill="#030302" d="M 1444.5,1054.5 C 1484.01,1055.53 1509.51,1074.86 1521,1112.5C 1526.83,1151.68 1512,1179.85 1476.5,1197C 1437.32,1209.34 1406.49,1198.51 1384,1164.5C 1370.5,1135.24 1373.17,1107.57 1392,1081.5C 1406.09,1065.7 1423.59,1056.7 1444.5,1054.5 Z M 1440.5,1090.5 C 1419.46,1097.55 1409.63,1112.22 1411,1134.5C 1417.28,1158.56 1432.78,1169.06 1457.5,1166C 1478.42,1159.07 1488.25,1144.57 1487,1122.5C 1480.86,1098.65 1465.36,1087.99 1440.5,1090.5 Z"/></g>
</svg>
