<?xml version="1.0" encoding="UTF-8"?>
<!DOCTYPE svg PUBLIC "-//W3C//DTD SVG 1.1//EN" "http://www.w3.org/Graphics/SVG/1.1/DTD/svg11.dtd">
<svg xmlns="http://www.w3.org/2000/svg" version="1.1" width="1024px" height="1024px" style="shape-rendering:geometricPrecision; text-rendering:geometricPrecision; image-rendering:optimizeQuality; fill-rule:evenodd; clip-rule:evenodd" xmlns:xlink="http://www.w3.org/1999/xlink">
<g><path style="opacity:1" fill="#01b3f0" d="M 528.5,212.5 C 530.146,215.81 532.48,218.477 535.5,220.5C 538.573,222.569 540.906,225.236 542.5,228.5C 547.715,236.228 553.549,243.561 560,250.5C 560.399,250.272 560.565,249.938 560.5,249.5C 561.338,249.842 561.672,250.508 561.5,251.5C 565.754,259.082 571.088,265.748 577.5,271.5C 579.984,273.8 581.984,276.467 583.5,279.5C 587.703,286.55 592.536,293.216 598,299.5C 598.399,299.272 598.565,298.938 598.5,298.5C 601.323,301.475 603.656,304.808 605.5,308.5C 615.281,323.572 625.947,338.572 637.5,353.5C 638.906,353.973 639.573,354.973 639.5,356.5C 643.844,365.196 649.177,373.196 655.5,380.5C 656.5,380.833 657.167,381.5 657.5,382.5C 656.535,383.721 656.702,385.054 658,386.5C 673.206,408.908 686.872,432.242 699,456.5C 700.517,458.24 702.017,459.906 703.5,461.5C 704.167,461.5 704.5,461.833 704.5,462.5C 703.427,463.251 703.26,464.251 704,465.5C 712.47,481.441 720.137,497.774 727,514.5C 727.399,514.272 727.565,513.938 727.5,513.5C 728.537,514.93 729.204,516.597 729.5,518.5C 728.903,518.735 728.57,519.235 728.5,520C 730.012,527.026 732.012,533.193 734.5,538.5C 735.338,538.842 735.672,539.508 735.5,540.5C 734.876,540.917 734.543,541.584 734.5,542.5C 737.558,562.198 739.224,581.865 739.5,601.5C 739.795,603.735 739.461,605.735 738.5,607.5C 738.66,605.801 738.494,604.134 738,602.5C 737.339,612.795 735.839,622.962 733.5,633C 733.57,633.765 733.903,634.265 734.5,634.5C 734.768,636.099 734.434,637.432 733.5,638.5C 733.631,637.761 733.464,637.094 733,636.5C 731.4,642.735 729.566,648.902 727.5,655C 727.57,655.765 727.903,656.265 728.5,656.5C 727.065,661.49 725.065,666.156 722.5,670.5C 719.887,673.645 718.221,677.311 717.5,681.5C 714.073,686.016 711.407,691.016 709.5,696.5C 703.667,707.659 696.667,717.992 688.5,727.5C 688.565,727.062 688.399,726.728 688,726.5C 683.351,732.316 678.184,737.649 672.5,742.5C 671.37,743.622 670.703,744.956 670.5,746.5C 658.945,758.729 645.945,769.062 631.5,777.5C 617.919,785.123 603.919,791.957 589.5,798C 574.176,803.081 558.509,806.748 542.5,809C 543.448,809.483 544.448,809.649 545.5,809.5C 534.712,811.044 523.712,811.71 512.5,811.5C 504.326,811.5 496.326,811.166 488.5,810.5C 489.552,810.649 490.552,810.483 491.5,810C 485.171,809.13 478.837,808.297 472.5,807.5C 471.274,807.52 470.274,807.853 469.5,808.5C 468.209,808.737 467.209,808.404 466.5,807.5C 467.239,807.631 467.906,807.464 468.5,807C 459.837,805.418 451.337,803.252 443,800.5C 442.235,800.57 441.735,800.903 441.5,801.5C 438.011,800.342 434.678,799.009 431.5,797.5C 431.423,796.25 430.756,795.417 429.5,795C 421.159,792.331 413.159,788.831 405.5,784.5C 404.893,784.624 404.56,784.957 404.5,785.5C 403.29,785.068 402.29,784.401 401.5,783.5C 401.938,783.565 402.272,783.399 402.5,783C 399.594,780.381 396.261,778.547 392.5,777.5C 390.973,777.573 389.973,776.906 389.5,775.5C 381.124,768.457 372.457,761.791 363.5,755.5C 355.194,746.527 346.527,737.86 337.5,729.5C 331.869,724.232 327.203,718.232 323.5,711.5C 320.937,707.38 318.604,703.047 316.5,698.5C 316.709,697.914 317.043,697.414 317.5,697C 315.548,696.634 313.882,695.801 312.5,694.5C 309.263,689.701 306.263,684.701 303.5,679.5C 304.573,678.749 304.74,677.749 304,676.5C 298.825,664.627 294.325,653.294 290.5,642.5C 288.215,635.762 286.548,628.762 285.5,621.5C 286.147,620.726 286.48,619.726 286.5,618.5C 285.868,614.183 285.368,609.85 285,605.5C 284.51,606.793 284.343,608.127 284.5,609.5C 283.539,607.735 283.205,605.735 283.5,603.5C 284.495,591.678 284.828,579.678 284.5,567.5C 285.648,556.162 287.648,544.828 290.5,533.5C 290.457,532.584 290.124,531.917 289.5,531.5C 290.928,525.215 292.928,519.215 295.5,513.5C 297.541,511.835 299.041,509.168 300,505.5C 300.74,504.251 300.573,503.251 299.5,502.5C 300.597,499.314 301.93,496.314 303.5,493.5C 303.81,494.738 304.31,494.738 305,493.5C 314.687,472.793 324.854,452.459 335.5,432.5C 336.079,429.669 337.412,427.336 339.5,425.5C 343.953,420.033 347.619,414.033 350.5,407.5C 354.445,400.23 358.778,393.23 363.5,386.5C 368.47,380.75 373.137,374.083 377.5,366.5C 377.376,365.893 377.043,365.56 376.5,365.5C 376.833,364.5 377.5,363.833 378.5,363.5C 378.81,364.738 379.31,364.738 380,363.5C 384.776,355.725 389.943,348.225 395.5,341C 394.906,340.536 394.239,340.369 393.5,340.5C 393.5,339.833 393.833,339.5 394.5,339.5C 401.284,333.359 406.618,326.025 410.5,317.5C 410.738,315.596 411.738,314.262 413.5,313.5C 418.471,308.891 422.471,303.557 425.5,297.5C 426.529,294.109 428.529,291.443 431.5,289.5C 434.057,286.892 436.723,284.392 439.5,282C 439.167,281.667 438.833,281.333 438.5,281C 441.802,277.544 444.469,273.711 446.5,269.5C 452.22,263.721 457.22,257.387 461.5,250.5C 461.328,249.508 461.662,248.842 462.5,248.5C 462.435,248.938 462.601,249.272 463,249.5C 471.487,240.199 479.32,230.532 486.5,220.5C 491.869,214.13 497.869,208.463 504.5,203.5C 511.486,201.148 518.152,202.314 524.5,207C 526.464,208.451 527.797,210.284 528.5,212.5 Z M 547.5,289.5 C 552.408,297.41 558.075,304.743 564.5,311.5C 570.815,320.476 577.481,329.143 584.5,337.5C 588.738,344.738 593.738,351.404 599.5,357.5C 602.117,362.114 605.117,366.447 608.5,370.5C 608.738,372.404 609.738,373.738 611.5,374.5C 617.079,384.084 623.079,393.418 629.5,402.5C 634.846,410.537 640.18,418.537 645.5,426.5C 653.075,439.311 660.408,452.311 667.5,465.5C 667.932,466.71 668.599,467.71 669.5,468.5C 673.77,476.707 677.77,485.04 681.5,493.5C 687.302,505.258 692.302,517.258 696.5,529.5C 698.323,536.459 699.99,543.459 701.5,550.5C 704.581,567.388 705.581,584.388 704.5,601.5C 703.92,605.81 703.586,610.143 703.5,614.5C 702.596,615.209 702.263,616.209 702.5,617.5C 701.325,623.868 699.991,630.201 698.5,636.5C 697.662,636.842 697.328,637.508 697.5,638.5C 695.172,645.151 692.838,651.817 690.5,658.5C 689.833,658.5 689.5,658.833 689.5,659.5C 685.091,668.652 680.424,677.652 675.5,686.5C 668.927,694.645 662.593,702.978 656.5,711.5C 649.833,717.5 643.5,723.833 637.5,730.5C 634.545,732.122 631.878,734.122 629.5,736.5C 627.142,738.529 624.808,740.529 622.5,742.5C 621.508,742.328 620.842,742.662 620.5,743.5C 613.811,747.867 607.144,752.2 600.5,756.5C 596.646,757.93 592.979,759.597 589.5,761.5C 569.707,769.86 549.041,774.526 527.5,775.5C 519.167,775.5 510.833,775.5 502.5,775.5C 497.833,775.5 493.167,775.5 488.5,775.5C 475.633,773.785 462.967,770.785 450.5,766.5C 444.504,764.169 438.504,761.836 432.5,759.5C 432.5,758.833 432.167,758.5 431.5,758.5C 427.5,756.833 423.5,755.167 419.5,753.5C 412.87,749.18 406.203,744.847 399.5,740.5C 386.845,730.99 375.178,720.323 364.5,708.5C 357.831,699.158 351.164,689.825 344.5,680.5C 342.934,676.272 340.934,672.272 338.5,668.5C 338.068,667.29 337.401,666.29 336.5,665.5C 328.759,649.276 323.426,632.276 320.5,614.5C 320.737,613.209 320.404,612.209 319.5,611.5C 317.996,592.465 318.329,573.465 320.5,554.5C 322.318,546.901 324.318,539.234 326.5,531.5C 328.636,524.426 330.969,517.426 333.5,510.5C 334.736,508.351 335.736,506.018 336.5,503.5C 340.677,495.808 344.344,487.808 347.5,479.5C 352.672,471.16 357.338,462.493 361.5,453.5C 371.414,438.009 381.081,422.342 390.5,406.5C 396.906,398.695 402.572,390.361 407.5,381.5C 412.064,376.052 416.398,370.385 420.5,364.5C 422.5,361.5 424.5,358.5 426.5,355.5C 454.015,318.51 482.515,282.177 512,246.5C 523.852,260.904 535.685,275.237 547.5,289.5 Z"/></g>
<g><path style="opacity:1" fill="#1ca7f0" d="M 504.5,203.5 C 497.869,208.463 491.869,214.13 486.5,220.5C 490.126,215.452 494.126,210.618 498.5,206C 500.407,204.878 502.407,204.045 504.5,203.5 Z"/></g>
<g><path style="opacity:1" fill="#0fa3ef" d="M 528.5,212.5 C 531.573,214.569 533.906,217.236 535.5,220.5C 532.48,218.477 530.146,215.81 528.5,212.5 Z"/></g>
<g><path style="opacity:1" fill="#12a6f0" d="M 486.5,220.5 C 479.32,230.532 471.487,240.199 463,249.5C 462.601,249.272 462.435,248.938 462.5,248.5C 470.155,238.847 478.155,229.514 486.5,220.5 Z"/></g>
<g><path style="opacity:1" fill="#12a5f0" d="M 542.5,228.5 C 549.2,234.901 555.2,241.901 560.5,249.5C 560.565,249.938 560.399,250.272 560,250.5C 553.549,243.561 547.715,236.228 542.5,228.5 Z"/></g>
<g><path style="opacity:1" fill="#14a5f0" d="M 461.5,250.5 C 457.22,257.387 452.22,263.721 446.5,269.5C 450.78,262.613 455.78,256.279 461.5,250.5 Z"/></g>
<g><path style="opacity:1" fill="#1fa6f0" d="M 561.5,251.5 C 563.129,252.625 564.629,253.959 566,255.5C 570.077,260.73 573.91,266.064 577.5,271.5C 571.088,265.748 565.754,259.082 561.5,251.5 Z"/></g>
<g><path style="opacity:1" fill="#0fa4f0" d="M 446.5,269.5 C 444.469,273.711 441.802,277.544 438.5,281C 438.833,281.333 439.167,281.667 439.5,282C 436.723,284.392 434.057,286.892 431.5,289.5C 435.738,282.262 440.738,275.596 446.5,269.5 Z"/></g>
<g><path style="opacity:1" fill="#1aa6f1" d="M 583.5,279.5 C 588.85,285.522 593.85,291.855 598.5,298.5C 598.565,298.938 598.399,299.272 598,299.5C 592.536,293.216 587.703,286.55 583.5,279.5 Z"/></g>
<g><path style="opacity:1" fill="#1fa7f0" d="M 547.5,289.5 C 552.698,294.824 557.698,300.49 562.5,306.5C 563.456,308.075 564.123,309.742 564.5,311.5C 558.075,304.743 552.408,297.41 547.5,289.5 Z"/></g>
<g><path style="opacity:1" fill="#21a7ef" d="M 425.5,297.5 C 422.471,303.557 418.471,308.891 413.5,313.5C 416.529,307.443 420.529,302.109 425.5,297.5 Z"/></g>
<g><path style="opacity:1" fill="#18a7f0" d="M 564.5,311.5 C 565.583,311.539 566.583,311.873 567.5,312.5C 571.744,319.58 576.578,326.247 582,332.5C 583.666,331.66 583.833,332.16 582.5,334C 583.823,334.816 584.489,335.983 584.5,337.5C 577.481,329.143 570.815,320.476 564.5,311.5 Z"/></g>
<g><path style="opacity:1" fill="#1aa5ef" d="M 605.5,308.5 C 611.889,316.251 618.055,324.251 624,332.5C 628.521,339.557 633.021,346.557 637.5,353.5C 625.947,338.572 615.281,323.572 605.5,308.5 Z"/></g>
<g><path style="opacity:1" fill="#13a5ef" d="M 410.5,317.5 C 406.618,326.025 401.284,333.359 394.5,339.5C 399.478,331.863 404.812,324.53 410.5,317.5 Z"/></g>
<g><path style="opacity:1" fill="#1da8f0" d="M 393.5,340.5 C 394.239,340.369 394.906,340.536 395.5,341C 389.943,348.225 384.776,355.725 380,363.5C 379.31,364.738 378.81,364.738 378.5,363.5C 383.08,355.581 388.08,347.914 393.5,340.5 Z"/></g>
<g><path style="opacity:1" fill="#1aa5f0" d="M 426.5,355.5 C 424.5,358.5 422.5,361.5 420.5,364.5C 420.88,360.807 422.714,357.474 426,354.5C 426.399,354.728 426.565,355.062 426.5,355.5 Z"/></g>
<g><path style="opacity:1" fill="#10a2ed" d="M 599.5,357.5 C 603.662,361.001 606.662,365.335 608.5,370.5C 605.117,366.447 602.117,362.114 599.5,357.5 Z"/></g>
<g><path style="opacity:1" fill="#11a3ef" d="M 639.5,356.5 C 645.327,364.148 650.66,372.148 655.5,380.5C 649.177,373.196 643.844,365.196 639.5,356.5 Z"/></g>
<g><path style="opacity:1" fill="#14a5f0" d="M 376.5,365.5 C 377.043,365.56 377.376,365.893 377.5,366.5C 373.137,374.083 368.47,380.75 363.5,386.5C 367.583,379.332 371.916,372.332 376.5,365.5 Z"/></g>
<g><path style="opacity:1" fill="#1da7ee" d="M 611.5,374.5 C 612.794,375.29 613.961,376.29 615,377.5C 619.472,384.956 624.306,392.122 629.5,399C 630.515,400.373 630.515,401.54 629.5,402.5C 623.079,393.418 617.079,384.084 611.5,374.5 Z"/></g>
<g><path style="opacity:1" fill="#17a6ef" d="M 657.5,382.5 C 674.457,407.814 689.791,434.147 703.5,461.5C 702.017,459.906 700.517,458.24 699,456.5C 686.872,432.242 673.206,408.908 658,386.5C 656.702,385.054 656.535,383.721 657.5,382.5 Z"/></g>
<g><path style="opacity:1" fill="#21a5ef" d="M 407.5,381.5 C 402.572,390.361 396.906,398.695 390.5,406.5C 395.428,397.639 401.094,389.305 407.5,381.5 Z"/></g>
<g><path style="opacity:1" fill="#10a5ee" d="M 350.5,407.5 C 347.619,414.033 343.953,420.033 339.5,425.5C 342.381,418.967 346.047,412.967 350.5,407.5 Z"/></g>
<g><path style="opacity:1" fill="#17a5ef" d="M 667.5,465.5 C 660.408,452.311 653.075,439.311 645.5,426.5C 645.435,426.062 645.601,425.728 646,425.5C 654.178,438.577 661.678,451.577 668.5,464.5C 668.376,465.107 668.043,465.44 667.5,465.5 Z"/></g>
<g><path style="opacity:1" fill="#22a7f0" d="M 361.5,453.5 C 357.338,462.493 352.672,471.16 347.5,479.5C 350.104,472.702 353.104,466.036 356.5,459.5C 358.185,457.429 359.852,455.429 361.5,453.5 Z"/></g>
<g><path style="opacity:1" fill="#08a2ed" d="M 681.5,493.5 C 677.77,485.04 673.77,476.707 669.5,468.5C 669.81,467.262 670.31,467.262 671,468.5C 674.667,475.833 678.333,483.167 682,490.5C 682.74,491.749 682.573,492.749 681.5,493.5 Z"/></g>
<g><path style="opacity:1" fill="#10a5ef" d="M 335.5,432.5 C 324.854,452.459 314.687,472.793 305,493.5C 304.31,494.738 303.81,494.738 303.5,493.5C 312.896,472.37 323.562,452.037 335.5,432.5 Z"/></g>
<g><path style="opacity:1" fill="#1ea6ef" d="M 347.5,479.5 C 344.344,487.808 340.677,495.808 336.5,503.5C 335.957,503.44 335.624,503.107 335.5,502.5C 338.223,497.723 340.389,492.723 342,487.5C 343.609,484.593 345.442,481.927 347.5,479.5 Z"/></g>
<g><path style="opacity:1" fill="#17a6f0" d="M 704.5,462.5 C 713.535,478.903 721.202,495.903 727.5,513.5C 727.565,513.938 727.399,514.272 727,514.5C 720.137,497.774 712.47,481.441 704,465.5C 703.26,464.251 703.427,463.251 704.5,462.5 Z"/></g>
<g><path style="opacity:1" fill="#0ca3ed" d="M 299.5,502.5 C 300.573,503.251 300.74,504.251 300,505.5C 299.041,509.168 297.541,511.835 295.5,513.5C 296.441,509.675 297.774,506.009 299.5,502.5 Z"/></g>
<g><path style="opacity:1" fill="#10a3ee" d="M 333.5,510.5 C 330.969,517.426 328.636,524.426 326.5,531.5C 325.903,531.265 325.57,530.765 325.5,530C 326.536,527.226 327.369,524.393 328,521.5C 329.578,517.002 331.412,513.335 333.5,510.5 Z"/></g>
<g><path style="opacity:1" fill="#15a4ef" d="M 729.5,518.5 C 731.793,525.005 733.46,531.671 734.5,538.5C 732.012,533.193 730.012,527.026 728.5,520C 728.57,519.235 728.903,518.735 729.5,518.5 Z"/></g>
<g><path style="opacity:1" fill="#16a5ee" d="M 701.5,550.5 C 699.99,543.459 698.323,536.459 696.5,529.5C 698.084,530.92 699.25,533.253 700,536.5C 700.754,540.351 701.588,544.184 702.5,548C 702.472,549.07 702.139,549.903 701.5,550.5 Z"/></g>
<g><path style="opacity:1" fill="#19a8ef" d="M 289.5,531.5 C 290.124,531.917 290.457,532.584 290.5,533.5C 287.648,544.828 285.648,556.162 284.5,567.5C 284.167,567.5 283.833,567.5 283.5,567.5C 283.992,555.213 285.992,543.213 289.5,531.5 Z"/></g>
<g><path style="opacity:1" fill="#0fa1ee" d="M 735.5,540.5 C 739.033,560.652 740.367,580.986 739.5,601.5C 739.224,581.865 737.558,562.198 734.5,542.5C 734.543,541.584 734.876,540.917 735.5,540.5 Z"/></g>
<g><path style="opacity:1" fill="#01b3f0" d="M 399.5,611.5 C 401.812,617.424 404.146,623.424 406.5,629.5C 405.957,629.56 405.624,629.893 405.5,630.5C 410.575,642.033 417.575,652.033 426.5,660.5C 435.608,669.284 445.275,677.284 455.5,684.5C 465.907,691.768 477.907,696.601 491.5,699C 493.712,699.789 495.712,699.622 497.5,698.5C 499.099,698.232 500.432,698.566 501.5,699.5C 505.56,700.358 510.893,701.524 517.5,703C 520.845,705.768 523.012,709.268 524,713.5C 524.464,712.906 524.631,712.239 524.5,711.5C 525.652,715.054 525.485,718.72 524,722.5C 522.594,725.409 520.428,727.409 517.5,728.5C 510.353,729.058 503.353,729.725 496.5,730.5C 488.528,729.708 480.862,728.041 473.5,725.5C 462.859,721.5 451.859,716.667 440.5,711C 432.302,706.072 424.302,700.906 416.5,695.5C 410.833,691.833 406.167,687.167 402.5,681.5C 399.58,676.732 396.414,672.066 393,667.5C 392.31,666.262 391.81,666.262 391.5,667.5C 390.662,667.158 390.328,666.492 390.5,665.5C 390.039,661.394 388.206,658.061 385,655.5C 377.934,641.325 372.101,627.325 367.5,613.5C 364.352,605.969 364.852,598.636 369,591.5C 369.816,590.177 370.983,589.511 372.5,589.5C 378.199,586.996 383.865,587.163 389.5,590C 392.106,591.938 393.939,594.438 395,597.5C 395.867,602.637 397.201,607.637 399,612.5C 399.399,612.272 399.565,611.938 399.5,611.5 Z"/></g>
<g><path style="opacity:1" fill="#28a6ef" d="M 283.5,567.5 C 283.833,567.5 284.167,567.5 284.5,567.5C 284.828,579.678 284.495,591.678 283.5,603.5C 282.271,591.505 282.271,579.505 283.5,567.5 Z"/></g>
<g><path style="opacity:1" fill="#11a6ef" d="M 320.5,554.5 C 318.329,573.465 317.996,592.465 319.5,611.5C 317.552,605.482 316.552,597.982 316.5,589C 316.881,581.159 317.381,573.326 318,565.5C 318.115,560.3 318.948,556.634 320.5,554.5 Z"/></g>
<g><path style="opacity:1" fill="#0ea6ef" d="M 399.5,611.5 C 399.565,611.938 399.399,612.272 399,612.5C 397.201,607.637 395.867,602.637 395,597.5C 393.939,594.438 392.106,591.938 389.5,590C 383.865,587.163 378.199,586.996 372.5,589.5C 373.058,588.21 374.058,587.377 375.5,587C 384.976,584.657 391.81,587.823 396,596.5C 397.359,601.466 398.526,606.466 399.5,611.5 Z"/></g>
<g><path style="opacity:1" fill="#17a2ee" d="M 285.5,621.5 C 284.838,617.534 284.505,613.534 284.5,609.5C 284.343,608.127 284.51,606.793 285,605.5C 285.368,609.85 285.868,614.183 286.5,618.5C 286.48,619.726 286.147,620.726 285.5,621.5 Z"/></g>
<g><path style="opacity:1" fill="#1b9fed" d="M 704.5,601.5 C 705.158,602.793 705.492,604.293 705.5,606C 705.43,609.683 704.763,612.517 703.5,614.5C 703.586,610.143 703.92,605.81 704.5,601.5 Z"/></g>
<g><path style="opacity:1" fill="#0ea2ee" d="M 702.5,617.5 C 702.992,624.235 701.825,630.902 699,637.5C 698.601,637.272 698.435,636.938 698.5,636.5C 699.991,630.201 701.325,623.868 702.5,617.5 Z"/></g>
<g><path style="opacity:1" fill="#1da4ee" d="M 738.5,607.5 C 738.281,616.704 736.947,625.704 734.5,634.5C 733.903,634.265 733.57,633.765 733.5,633C 735.839,622.962 737.339,612.795 738,602.5C 738.494,604.134 738.66,605.801 738.5,607.5 Z"/></g>
<g><path style="opacity:1" fill="#19a6ef" d="M 697.5,638.5 C 698.613,639.946 698.78,641.613 698,643.5C 695.997,648.84 693.497,653.84 690.5,658.5C 692.838,651.817 695.172,645.151 697.5,638.5 Z"/></g>
<g><path style="opacity:1" fill="#14a4ef" d="M 320.5,614.5 C 323.426,632.276 328.759,649.276 336.5,665.5C 336.565,665.938 336.399,666.272 336,666.5C 327.215,650.001 322.048,632.668 320.5,614.5 Z"/></g>
<g><path style="opacity:1" fill="#19a6ee" d="M 390.5,665.5 C 379.062,649.948 371.396,632.614 367.5,613.5C 372.101,627.325 377.934,641.325 385,655.5C 388.206,658.061 390.039,661.394 390.5,665.5 Z"/></g>
<g><path style="opacity:1" fill="#16a5ef" d="M 303.5,679.5 C 297.779,667.671 293.445,655.337 290.5,642.5C 294.325,653.294 298.825,664.627 304,676.5C 304.74,677.749 304.573,678.749 303.5,679.5 Z"/></g>
<g><path style="opacity:1" fill="#20a5ef" d="M 733.5,638.5 C 732.452,644.693 730.786,650.693 728.5,656.5C 727.903,656.265 727.57,655.765 727.5,655C 729.566,648.902 731.4,642.735 733,636.5C 733.464,637.094 733.631,637.761 733.5,638.5 Z"/></g>
<g><path style="opacity:1" fill="#1aa7ef" d="M 406.5,629.5 C 411.92,640.684 418.587,651.017 426.5,660.5C 417.575,652.033 410.575,642.033 405.5,630.5C 405.624,629.893 405.957,629.56 406.5,629.5 Z"/></g>
<g><path style="opacity:1" fill="#16a2ed" d="M 402.5,681.5 C 398.101,677.432 394.435,672.765 391.5,667.5C 391.81,666.262 392.31,666.262 393,667.5C 396.414,672.066 399.58,676.732 402.5,681.5 Z"/></g>
<g><path style="opacity:1" fill="#0aa3ed" d="M 722.5,670.5 C 721.624,674.582 719.957,678.249 717.5,681.5C 718.221,677.311 719.887,673.645 722.5,670.5 Z"/></g>
<g><path style="opacity:1" fill="#13a3ef" d="M 689.5,659.5 C 690.043,659.56 690.376,659.893 690.5,660.5C 687.002,670.179 682.002,678.845 675.5,686.5C 680.424,677.652 685.091,668.652 689.5,659.5 Z"/></g>
<g><path style="opacity:1" fill="#15a4ef" d="M 338.5,668.5 C 340.934,672.272 342.934,676.272 344.5,680.5C 340.783,677.069 338.783,673.069 338.5,668.5 Z"/></g>
<g><path style="opacity:1" fill="#17a2ed" d="M 717.5,681.5 C 715.593,686.984 712.927,691.984 709.5,696.5C 711.407,691.016 714.073,686.016 717.5,681.5 Z"/></g>
<g><path style="opacity:1" fill="#17a6ee" d="M 455.5,684.5 C 468.749,691.361 482.749,696.027 497.5,698.5C 495.712,699.622 493.712,699.789 491.5,699C 477.907,696.601 465.907,691.768 455.5,684.5 Z"/></g>
<g><path style="opacity:1" fill="#1aa7ef" d="M 675.5,686.5 C 671.337,696.497 665.004,704.831 656.5,711.5C 662.593,702.978 668.927,694.645 675.5,686.5 Z"/></g>
<g><path style="opacity:1" fill="#1ca5f0" d="M 344.5,680.5 C 351.164,689.825 357.831,699.158 364.5,708.5C 355.861,700.535 349.194,691.202 344.5,680.5 Z"/></g>
<g><path style="opacity:1" fill="#1fa8ef" d="M 312.5,694.5 C 313.882,695.801 315.548,696.634 317.5,697C 317.043,697.414 316.709,697.914 316.5,698.5C 318.604,703.047 320.937,707.38 323.5,711.5C 318.659,706.646 314.993,700.98 312.5,694.5 Z"/></g>
<g><path style="opacity:1" fill="#18a7ee" d="M 501.5,699.5 C 510.083,697.793 517.25,700.127 523,706.5C 524.009,708.025 524.509,709.692 524.5,711.5C 524.631,712.239 524.464,712.906 524,713.5C 523.012,709.268 520.845,705.768 517.5,703C 510.893,701.524 505.56,700.358 501.5,699.5 Z"/></g>
<g><path style="opacity:1" fill="#09a4ef" d="M 656.5,711.5 C 653.571,715.606 650.404,719.606 647,723.5C 643.937,726.076 640.771,728.409 637.5,730.5C 643.5,723.833 649.833,717.5 656.5,711.5 Z"/></g>
<g><path style="opacity:1" fill="#1ba6ee" d="M 416.5,695.5 C 424.302,700.906 432.302,706.072 440.5,711C 451.859,716.667 462.859,721.5 473.5,725.5C 452.005,719.923 433.005,709.923 416.5,695.5 Z"/></g>
<g><path style="opacity:1" fill="#20a9ee" d="M 517.5,728.5 C 517.389,729.117 517.056,729.617 516.5,730C 509.883,731.706 503.216,731.873 496.5,730.5C 503.353,729.725 510.353,729.058 517.5,728.5 Z"/></g>
<g><path style="opacity:1" fill="#0da4ef" d="M 629.5,736.5 C 630.239,736.369 630.906,736.536 631.5,737C 628.667,739.167 625.833,741.333 623,743.5C 622.601,743.272 622.435,742.938 622.5,742.5C 624.808,740.529 627.142,738.529 629.5,736.5 Z"/></g>
<g><path style="opacity:1" fill="#14a5ef" d="M 337.5,729.5 C 346.527,737.86 355.194,746.527 363.5,755.5C 353.854,747.854 345.188,739.188 337.5,729.5 Z"/></g>
<g><path style="opacity:1" fill="#0ba3ef" d="M 688.5,727.5 C 683.203,734.464 677.203,740.798 670.5,746.5C 670.703,744.956 671.37,743.622 672.5,742.5C 678.184,737.649 683.351,732.316 688,726.5C 688.399,726.728 688.565,727.062 688.5,727.5 Z"/></g>
<g><path style="opacity:1" fill="#15a6ef" d="M 399.5,740.5 C 406.203,744.847 412.87,749.18 419.5,753.5C 411.608,750.885 404.608,746.718 398.5,741C 398.728,740.601 399.062,740.435 399.5,740.5 Z"/></g>
<g><path style="opacity:1" fill="#13a6f0" d="M 620.5,743.5 C 620.938,743.435 621.272,743.601 621.5,744C 616.009,748.246 610.342,752.246 604.5,756C 603.207,756.49 601.873,756.657 600.5,756.5C 607.144,752.2 613.811,747.867 620.5,743.5 Z"/></g>
<g><path style="opacity:1" fill="#03a4f0" d="M 419.5,753.5 C 423.5,755.167 427.5,756.833 431.5,758.5C 426.88,758.836 422.88,757.17 419.5,753.5 Z"/></g>
<g><path style="opacity:1" fill="#19a5ee" d="M 432.5,759.5 C 438.504,761.836 444.504,764.169 450.5,766.5C 450.265,767.097 449.765,767.43 449,767.5C 444.887,765.861 440.721,764.361 436.5,763C 434.681,762.26 433.348,761.093 432.5,759.5 Z"/></g>
<g><path style="opacity:1" fill="#1ca6f0" d="M 363.5,755.5 C 372.457,761.791 381.124,768.457 389.5,775.5C 379.973,769.975 371.306,763.308 363.5,755.5 Z"/></g>
<g><path style="opacity:1" fill="#13a5ef" d="M 589.5,761.5 C 590.738,761.81 590.738,762.31 589.5,763C 573.823,769.78 557.49,774.113 540.5,776C 535.98,776.814 531.646,776.647 527.5,775.5C 549.041,774.526 569.707,769.86 589.5,761.5 Z"/></g>
<g><path style="opacity:1" fill="#03a0f1" d="M 488.5,775.5 C 493.167,775.5 497.833,775.5 502.5,775.5C 508.987,776.328 515.654,776.828 522.5,777C 517.833,777.167 513.167,777.333 508.5,777.5C 499.717,777.768 493.05,777.101 488.5,775.5 Z"/></g>
<g><path style="opacity:1" fill="#11a4f0" d="M 392.5,777.5 C 396.261,778.547 399.594,780.381 402.5,783C 402.272,783.399 401.938,783.565 401.5,783.5C 397.946,782.231 394.946,780.231 392.5,777.5 Z"/></g>
<g><path style="opacity:1" fill="#12a5ef" d="M 404.5,785.5 C 404.56,784.957 404.893,784.624 405.5,784.5C 413.159,788.831 421.159,792.331 429.5,795C 430.756,795.417 431.423,796.25 431.5,797.5C 422.142,794.321 413.142,790.321 404.5,785.5 Z"/></g>
<g><path style="opacity:1" fill="#1ba6f0" d="M 631.5,777.5 C 605.661,795.405 576.994,806.072 545.5,809.5C 544.448,809.649 543.448,809.483 542.5,809C 558.509,806.748 574.176,803.081 589.5,798C 603.919,791.957 617.919,785.123 631.5,777.5 Z"/></g>
<g><path style="opacity:1" fill="#1aa6ef" d="M 441.5,801.5 C 441.735,800.903 442.235,800.57 443,800.5C 451.337,803.252 459.837,805.418 468.5,807C 467.906,807.464 467.239,807.631 466.5,807.5C 457.9,806.514 449.566,804.514 441.5,801.5 Z"/></g>
<g><path style="opacity:1" fill="#12a6ef" d="M 469.5,808.5 C 470.274,807.853 471.274,807.52 472.5,807.5C 478.837,808.297 485.171,809.13 491.5,810C 490.552,810.483 489.552,810.649 488.5,810.5C 482.081,810.558 475.747,809.891 469.5,808.5 Z"/></g>
</svg>
