<?xml version="1.0" encoding="UTF-8"?>
<!DOCTYPE svg PUBLIC "-//W3C//DTD SVG 1.1//EN" "http://www.w3.org/Graphics/SVG/1.1/DTD/svg11.dtd">
<svg xmlns="http://www.w3.org/2000/svg" version="1.1" width="1024px" height="1024px" style="shape-rendering:geometricPrecision; text-rendering:geometricPrecision; image-rendering:optimizeQuality; fill-rule:evenodd; clip-rule:evenodd" xmlns:xlink="http://www.w3.org/1999/xlink">
<g><path style="opacity:1" fill="#fefefe" d="M 360.5,324.5 C 374.504,324.333 388.504,324.5 402.5,325C 410.114,326.947 414.614,331.78 416,339.5C 415.514,416.835 415.514,494.168 416,571.5C 414.833,580.667 409.667,585.833 400.5,587C 386.12,587.911 371.786,587.578 357.5,586C 352.41,583.249 349.243,579.083 348,573.5C 347.333,495.167 347.333,416.833 348,338.5C 349.653,331.489 353.82,326.823 360.5,324.5 Z"/></g>
<g><path style="opacity:1" fill="#fefffe" d="M 620.5,324.5 C 634.171,324.333 647.837,324.5 661.5,325C 667.501,326.336 671.668,329.836 674,335.5C 674.667,415.5 674.667,495.5 674,575.5C 672.594,580.573 669.428,584.073 664.5,586C 650.967,586.193 637.467,586.693 624,587.5C 614.972,586.797 609.305,582.131 607,573.5C 606.333,495.167 606.333,416.833 607,338.5C 609.052,331.284 613.552,326.617 620.5,324.5 Z"/></g>
<g><path style="opacity:1" fill="#fefffe" d="M 304.5,365.5 C 314.5,365.5 324.5,365.5 334.5,365.5C 334.5,426.167 334.5,486.833 334.5,547.5C 324.828,547.666 315.161,547.5 305.5,547C 301.215,545.271 298.715,542.105 298,537.5C 297.333,483.5 297.333,429.5 298,375.5C 298.932,371.288 301.098,367.955 304.5,365.5 Z"/></g>
<g><path style="opacity:1" fill="#fefffe" d="M 687.5,365.5 C 697.506,365.334 707.506,365.5 717.5,366C 720.333,367.5 722.5,369.667 724,372.5C 724.667,428.5 724.667,484.5 724,540.5C 722.437,543.728 719.937,545.895 716.5,547C 706.839,547.5 697.172,547.666 687.5,547.5C 687.5,486.833 687.5,426.167 687.5,365.5 Z"/></g>
<g><path style="opacity:1" fill="#fefffe" d="M 266.5,392.5 C 272.5,392.5 278.5,392.5 284.5,392.5C 284.5,435.5 284.5,478.5 284.5,521.5C 278.158,521.666 271.825,521.5 265.5,521C 262.272,519.437 260.105,516.937 259,513.5C 258.5,503.506 258.334,493.506 258.5,483.5C 254.154,483.666 249.821,483.499 245.5,483C 242.337,481.52 240.504,479.02 240,475.5C 239.833,469.333 239.667,463.167 239.5,457C 239.388,449.758 239.888,442.591 241,435.5C 242.543,433.622 244.376,432.122 246.5,431C 250.486,430.501 254.486,430.334 258.5,430.5C 258.334,420.828 258.5,411.161 259,401.5C 259.951,397.061 262.451,394.061 266.5,392.5 Z"/></g>
<g><path style="opacity:1" fill="#fefffe" d="M 737.5,392.5 C 743.842,392.334 750.175,392.5 756.5,393C 759.171,394.25 761.337,396.083 763,398.5C 763.428,409.175 763.928,419.841 764.5,430.5C 769.777,429.931 774.777,430.765 779.5,433C 780.211,434.255 781.044,435.421 782,436.5C 782.667,450.167 782.667,463.833 782,477.5C 780.833,480 779,481.833 776.5,483C 772.247,483.2 768.08,483.7 764,484.5C 763.667,494.5 763.333,504.5 763,514.5C 759.401,520.487 754.068,522.821 747,521.5C 743.914,521.478 740.914,521.145 738,520.5C 737.5,477.835 737.333,435.168 737.5,392.5 Z"/></g>
<g><path style="opacity:1" fill="#fefffe" d="M 428.5,432.5 C 483.833,432.5 539.167,432.5 594.5,432.5C 594.5,448.833 594.5,465.167 594.5,481.5C 539.167,481.5 483.833,481.5 428.5,481.5C 428.5,465.167 428.5,448.833 428.5,432.5 Z"/></g>
</svg>
