<?xml version="1.0" encoding="UTF-8"?>
<!DOCTYPE svg PUBLIC "-//W3C//DTD SVG 1.1//EN" "http://www.w3.org/Graphics/SVG/1.1/DTD/svg11.dtd">
<svg xmlns="http://www.w3.org/2000/svg" version="1.1" width="1024px" height="1024px" style="shape-rendering:geometricPrecision; text-rendering:geometricPrecision; image-rendering:optimizeQuality; fill-rule:evenodd; clip-rule:evenodd" xmlns:xlink="http://www.w3.org/1999/xlink">
<g><path style="opacity:1" fill="#272827" d="M 415.5,337.5 C 414.183,415.347 414.183,493.347 415.5,571.5C 414.778,580.723 409.778,585.889 400.5,587C 387.833,587.667 375.167,587.667 362.5,587C 354.784,585.618 349.951,581.118 348,573.5C 347.333,495.167 347.333,416.833 348,338.5C 349.547,331.573 353.713,327.073 360.5,325C 374.5,324.333 388.5,324.333 402.5,325C 409.314,326.649 413.648,330.815 415.5,337.5 Z"/></g>
<g><path style="opacity:1" fill="#272726" d="M 620.5,324.5 C 634.171,324.333 647.837,324.5 661.5,325C 667.501,326.336 671.668,329.836 674,335.5C 674.667,415.5 674.667,495.5 674,575.5C 672.594,580.573 669.428,584.073 664.5,586C 650.967,586.193 637.467,586.693 624,587.5C 614.972,586.797 609.305,582.131 607,573.5C 606.333,495.167 606.333,416.833 607,338.5C 609.052,331.284 613.552,326.617 620.5,324.5 Z"/></g>
<g><path style="opacity:1" fill="#262624" d="M 643.5,347.5 C 645.519,348.566 647.519,349.732 649.5,351C 648.207,351.49 646.873,351.657 645.5,351.5C 645.146,353.541 645.146,355.374 645.5,357C 643.939,357.188 643.272,356.355 643.5,354.5C 642.448,354.351 641.448,354.517 640.5,355C 641.423,357.041 641.756,359.208 641.5,361.5C 642.833,361.5 644.167,361.5 645.5,361.5C 645.799,363.604 645.466,365.604 644.5,367.5C 642.456,366.02 641.122,366.52 640.5,369C 642.291,378.802 643.958,389.302 645.5,400.5C 642.243,401.798 642.243,403.631 645.5,406C 644.359,406.741 644.359,407.575 645.5,408.5C 643.647,409.76 641.814,409.76 640,408.5C 639.821,411.553 639.321,414.553 638.5,417.5C 635.725,415.393 632.725,415.059 629.5,416.5C 630.833,417.167 632.167,417.833 633.5,418.5C 632.167,419.833 632.167,421.167 633.5,422.5C 629.649,423.345 627.649,425.678 627.5,429.5C 625.516,429.617 623.85,428.95 622.5,427.5C 621.833,428.833 621.167,430.167 620.5,431.5C 620.303,427.834 619.136,424.168 617,420.5C 613.486,423.158 611.653,422.158 611.5,417.5C 613.492,417.328 615.158,417.995 616.5,419.5C 617.853,418.315 619.02,416.981 620,415.5C 620.914,416.654 621.747,416.487 622.5,415C 622.167,414.667 621.833,414.333 621.5,414C 623.121,411.834 623.955,409.334 624,406.5C 624.333,406.167 624.667,405.833 625,405.5C 625.308,406.308 625.808,406.975 626.5,407.5C 631.317,403.883 633.317,399.216 632.5,393.5C 630.286,395.924 629.286,395.257 629.5,391.5C 634.502,391.478 634.835,390.145 630.5,387.5C 629.833,388.167 629.167,388.833 628.5,389.5C 627.881,386.968 626.881,384.635 625.5,382.5C 628.905,378.029 630.905,373.029 631.5,367.5C 632.833,367.5 634.167,367.5 635.5,367.5C 635.5,363.5 635.5,359.5 635.5,355.5C 636.552,355.649 637.552,355.483 638.5,355C 637.167,354.333 636.167,353.333 635.5,352C 638.647,351.172 641.314,349.672 643.5,347.5 Z"/></g>
<g><path style="opacity:1" fill="#272726" d="M 687.5,365.5 C 697.506,365.334 707.506,365.5 717.5,366C 720.333,367.5 722.5,369.667 724,372.5C 724.667,428.5 724.667,484.5 724,540.5C 722.437,543.728 719.937,545.895 716.5,547C 706.839,547.5 697.172,547.666 687.5,547.5C 687.5,486.833 687.5,426.167 687.5,365.5 Z"/></g>
<g><path style="opacity:1" fill="#272727" d="M 266.5,392.5 C 272.5,392.5 278.5,392.5 284.5,392.5C 284.5,435.5 284.5,478.5 284.5,521.5C 278.158,521.666 271.825,521.5 265.5,521C 262.272,519.437 260.105,516.937 259,513.5C 258.5,503.506 258.334,493.506 258.5,483.5C 254.154,483.666 249.821,483.499 245.5,483C 242.337,481.52 240.504,479.02 240,475.5C 239.833,469.333 239.667,463.167 239.5,457C 239.388,449.758 239.888,442.591 241,435.5C 242.543,433.622 244.376,432.122 246.5,431C 250.486,430.501 254.486,430.334 258.5,430.5C 258.334,420.828 258.5,411.161 259,401.5C 259.951,397.061 262.451,394.061 266.5,392.5 Z"/></g>
<g><path style="opacity:1" fill="#2d2d2d" d="M 775.5,431.5 C 771.5,431.5 767.5,431.5 763.5,431.5C 763.417,434.282 764.25,436.615 766,438.5C 766.333,438.167 766.667,437.833 767,437.5C 767.667,439.167 767.667,440.833 767,442.5C 766.086,441.346 765.253,441.513 764.5,443C 765.784,444.297 765.617,445.464 764,446.5C 761.731,443.953 759.065,441.953 756,440.5C 755.289,444.248 753.289,445.915 750,445.5C 749.667,442.833 749.333,440.167 749,437.5C 747.582,439.363 745.749,439.863 743.5,439C 746.057,435.57 746.057,432.07 743.5,428.5C 745.056,426.299 746.223,426.299 747,428.5C 748.202,426.447 748.536,424.447 748,422.5C 749.011,423.337 750.178,423.67 751.5,423.5C 751.5,422.167 751.5,420.833 751.5,419.5C 752.873,419.657 754.207,419.49 755.5,419C 754.366,417.984 754.699,417.317 756.5,417C 753.481,415.821 750.481,414.487 747.5,413C 750.591,412.309 751.757,410.476 751,407.5C 750.667,407.833 750.333,408.167 750,408.5C 749.692,407.692 749.192,407.025 748.5,406.5C 747.41,407.391 747.41,408.391 748.5,409.5C 746.556,410.538 745.056,411.871 744,413.5C 742.676,412.12 741.343,411.786 740,412.5C 739.667,411.833 739.333,411.167 739,410.5C 738.5,447.165 738.333,483.832 738.5,520.5C 737.501,478.003 737.168,435.337 737.5,392.5C 743.842,392.334 750.175,392.5 756.5,393C 759.171,394.25 761.337,396.083 763,398.5C 763.428,409.175 763.928,419.841 764.5,430.5C 768.371,430.185 772.038,430.518 775.5,431.5 Z"/></g>
<g><path style="opacity:1" fill="#272726" d="M 304.5,365.5 C 314.5,365.5 324.5,365.5 334.5,365.5C 334.5,426.167 334.5,486.833 334.5,547.5C 324.828,547.666 315.161,547.5 305.5,547C 301.215,545.271 298.715,542.105 298,537.5C 297.333,483.5 297.333,429.5 298,375.5C 298.932,371.288 301.098,367.955 304.5,365.5 Z"/></g>
<g><path style="opacity:1" fill="#343434" d="M 415.5,337.5 C 415.693,415.629 415.693,493.629 415.5,571.5C 414.183,493.347 414.183,415.347 415.5,337.5 Z"/></g>
<g><path style="opacity:1" fill="#272727" d="M 438.5,432.5 C 487.665,433.333 536.998,433.833 586.5,434C 587.917,436.826 589.417,436.993 591,434.5C 592.127,437.377 592.794,440.377 593,443.5C 593.499,439.848 593.665,436.182 593.5,432.5C 594.496,448.658 594.83,464.991 594.5,481.5C 539.167,481.5 483.833,481.5 428.5,481.5C 428.5,465.167 428.5,448.833 428.5,432.5C 431.833,432.5 435.167,432.5 438.5,432.5 Z"/></g>
<g><path style="opacity:1" fill="#1f1f1f" d="M 438.5,432.5 C 490.167,432.5 541.833,432.5 593.5,432.5C 593.665,436.182 593.499,439.848 593,443.5C 592.794,440.377 592.127,437.377 591,434.5C 589.417,436.993 587.917,436.826 586.5,434C 536.998,433.833 487.665,433.333 438.5,432.5 Z"/></g>
<g><path style="opacity:1" fill="#282827" d="M 764.5,483.5 C 763.977,494.521 763.144,505.521 762,516.5C 760.363,518.81 758.196,520.31 755.5,521C 749.651,521.818 743.985,521.652 738.5,520.5C 739.239,520.631 739.906,520.464 740.5,520C 739.19,513.556 739.19,507.056 740.5,500.5C 741.167,500.833 741.833,501.167 742.5,501.5C 744.157,496.32 745.657,496.32 747,501.5C 749.295,498.168 749.961,494.501 749,490.5C 748.29,491.973 747.124,492.64 745.5,492.5C 745.48,490.857 746.147,489.524 747.5,488.5C 746.689,487.784 746.022,486.95 745.5,486C 746.394,484.604 747.061,483.104 747.5,481.5C 745.547,476.324 745.047,470.991 746,465.5C 746.333,465.833 746.667,466.167 747,466.5C 748.085,465.707 749.252,465.04 750.5,464.5C 751.321,467.447 751.821,470.447 752,473.5C 752.677,471.311 753.844,470.978 755.5,472.5C 756.951,470.441 758.951,469.441 761.5,469.5C 761.201,467.396 761.534,465.396 762.5,463.5C 766.309,460.055 769.976,457.222 773.5,455C 772.167,454 772.167,453 773.5,452C 769.98,449.789 769.147,446.955 771,443.5C 771.196,445.286 772.029,446.619 773.5,447.5C 774.425,446.359 775.259,446.359 776,447.5C 776.875,444.785 778.708,443.452 781.5,443.5C 781.666,453.506 781.5,463.506 781,473.5C 780.667,473.167 780.333,472.833 780,472.5C 779.506,474.134 779.34,475.801 779.5,477.5C 777.799,477.966 776.299,477.966 775,477.5C 775.333,478.833 775.667,480.167 776,481.5C 773.223,480.275 770.056,479.775 766.5,480C 767.167,480.333 767.833,480.667 768.5,481C 766.68,481.2 765.347,482.034 764.5,483.5 Z"/></g>
<g><path style="opacity:1" fill="#252524" d="M 775.5,431.5 C 778.675,431.84 780.841,433.507 782,436.5C 782.667,450.167 782.667,463.833 782,477.5C 780.833,480 779,481.833 776.5,483C 772.514,483.499 768.514,483.666 764.5,483.5C 765.347,482.034 766.68,481.2 768.5,481C 767.833,480.667 767.167,480.333 766.5,480C 770.056,479.775 773.223,480.275 776,481.5C 775.667,480.167 775.333,478.833 775,477.5C 776.299,477.966 777.799,477.966 779.5,477.5C 779.34,475.801 779.506,474.134 780,472.5C 780.333,472.833 780.667,473.167 781,473.5C 781.5,463.506 781.666,453.506 781.5,443.5C 778.708,443.452 776.875,444.785 776,447.5C 775.259,446.359 774.425,446.359 773.5,447.5C 772.029,446.619 771.196,445.286 771,443.5C 769.147,446.955 769.98,449.789 773.5,452C 772.167,453 772.167,454 773.5,455C 769.976,457.222 766.309,460.055 762.5,463.5C 761.534,465.396 761.201,467.396 761.5,469.5C 758.951,469.441 756.951,470.441 755.5,472.5C 753.844,470.978 752.677,471.311 752,473.5C 751.821,470.447 751.321,467.447 750.5,464.5C 749.252,465.04 748.085,465.707 747,466.5C 746.667,466.167 746.333,465.833 746,465.5C 745.047,470.991 745.547,476.324 747.5,481.5C 747.061,483.104 746.394,484.604 745.5,486C 746.022,486.95 746.689,487.784 747.5,488.5C 746.147,489.524 745.48,490.857 745.5,492.5C 747.124,492.64 748.29,491.973 749,490.5C 749.961,494.501 749.295,498.168 747,501.5C 745.657,496.32 744.157,496.32 742.5,501.5C 741.833,501.167 741.167,500.833 740.5,500.5C 739.19,507.056 739.19,513.556 740.5,520C 739.906,520.464 739.239,520.631 738.5,520.5C 738.333,483.832 738.5,447.165 739,410.5C 739.333,411.167 739.667,411.833 740,412.5C 741.343,411.786 742.676,412.12 744,413.5C 745.056,411.871 746.556,410.538 748.5,409.5C 747.41,408.391 747.41,407.391 748.5,406.5C 749.192,407.025 749.692,407.692 750,408.5C 750.333,408.167 750.667,407.833 751,407.5C 751.757,410.476 750.591,412.309 747.5,413C 750.481,414.487 753.481,415.821 756.5,417C 754.699,417.317 754.366,417.984 755.5,419C 754.207,419.49 752.873,419.657 751.5,419.5C 751.5,420.833 751.5,422.167 751.5,423.5C 750.178,423.67 749.011,423.337 748,422.5C 748.536,424.447 748.202,426.447 747,428.5C 746.223,426.299 745.056,426.299 743.5,428.5C 746.057,432.07 746.057,435.57 743.5,439C 745.749,439.863 747.582,439.363 749,437.5C 749.333,440.167 749.667,442.833 750,445.5C 753.289,445.915 755.289,444.248 756,440.5C 759.065,441.953 761.731,443.953 764,446.5C 765.617,445.464 765.784,444.297 764.5,443C 765.253,441.513 766.086,441.346 767,442.5C 767.667,440.833 767.667,439.167 767,437.5C 766.667,437.833 766.333,438.167 766,438.5C 764.25,436.615 763.417,434.282 763.5,431.5C 767.5,431.5 771.5,431.5 775.5,431.5 Z"/></g>
</svg>
